<svg id="Layer_1" data-name="Layer 1" xmlns="http://www.w3.org/2000/svg" width="10mm" height="10mm" viewBox="0 0 28.3465 28.3465"><circle cx="14.1581" cy="14.1539" r="4.7498" fill="#fff"/><g style="isolation:isolate"><path d="M2.0127,14.1609a12.1606,12.1606,0,1,1,12.1612,12.16A12.1315,12.1315,0,0,1,2.0127,14.1609ZM14.1741,3.0637A11.1078,11.1078,0,1,0,25.2677,14.1609,11.0873,11.0873,0,0,0,14.1741,3.0637Zm.3749,19.2,2.9067.7775-.187-1.2559-2.3982-1.8389.2117-3.3564c.0263-.9372-.1319-2.0546.6665-2.0546a4.6075,4.6075,0,0,1,1.0416.2118l1.8938.5308,4.48,2.027V16.827c0-.3189.08-.8272-.1844-1.0665a3.62,3.62,0,0,0-.7477-.6405L15.269,9.9482V9.3865l-.1868-2.7223c-.0786-.5057-.1071-1.9448-.88-1.9448s-.8012,1.4391-.8808,1.9474l-.1858,2.72v.5619L6.1754,15.12a4.271,4.271,0,0,0-.7451.64c-.2679.2393-.1893.7476-.1893,1.0666v.4784l4.48-2.0221,1.9224-.5359a4.3115,4.3115,0,0,1,1.013-.2118c.7986,0,.64,1.1176.6652,2.0546l.2143,3.3564-2.401,1.8389-.1868,1.2559,2.9068-.78h.694v.0025Z" fill="#2837c6"/></g></svg>