<?xml version="1.0" encoding="utf-8"?>
<!-- Generator: Adobe Illustrator 17.1.0, SVG Export Plug-In . SVG Version: 6.00 Build 0)  -->
<!DOCTYPE svg PUBLIC "-//W3C//DTD SVG 1.1//EN" "http://www.w3.org/Graphics/SVG/1.1/DTD/svg11.dtd">
<svg version="1.1" id="Layer_1" xmlns="http://www.w3.org/2000/svg" xmlns:xlink="http://www.w3.org/1999/xlink" x="0px" y="0px"
	 viewBox="0 0 50 50" enable-background="new 0 0 50 50" xml:space="preserve">
<symbol  id="Scree1" viewBox="-0.5 -0.4 0.9 0.9">
	<path fill="#BEBEB4" d="M0.4,0.1c0,0-0.1,0.2-0.3,0.3c0,0-0.6-0.2-0.6-0.5c0,0,0.1-0.3,0.3-0.3c0,0,0.2-0.1,0.4,0
		C0.2-0.4,0.6-0.1,0.4,0.1z M0.3-0.2C0.1-0.5-0.3-0.1-0.3-0.1C-0.5,0.1,0,0.3,0,0.3C0.6,0.2,0.3-0.2,0.3-0.2z"/>
</symbol>
<symbol  id="Scree2" viewBox="-0.3 -0.2 0.6 0.4">
	<path fill="#BEBEB4" d="M0.2,0.1c0,0-0.2,0.2-0.3,0L-0.3,0v-0.1l0.2-0.1c0,0,0.3,0,0.3,0L0.2,0.1L0.2,0.1z M0.2-0.1
		C0.1-0.2-0.1-0.1-0.1-0.1C-0.2,0-0.2,0-0.2,0C-0.2,0.1,0,0.1,0,0.1c0.1,0,0.2,0,0.2,0L0.2-0.1z"/>
</symbol>
<use xlink:href="#Scree1"  width="0.9" height="0.9" x="-0.5" y="-0.4" transform="matrix(1.0001 0 0 -1.0001 2.4998 40.9169)" overflow="visible"/>
<use xlink:href="#Scree1"  width="0.9" height="0.9" x="-0.5" y="-0.4" transform="matrix(1.0001 0 0 -1.0001 2.0833 36.3329)" overflow="visible" enable-background="new    "/>
<use xlink:href="#Scree1"  width="0.9" height="0.9" x="-0.5" y="-0.4" transform="matrix(1.0001 0 0 -1.0001 48.4168 39.9169)" overflow="visible" enable-background="new    "/>
<use xlink:href="#Scree1"  width="0.9" height="0.9" x="-0.5" y="-0.4" transform="matrix(1.0001 0 0 -1.0001 45.4168 44.1669)" overflow="visible" enable-background="new    "/>
<use xlink:href="#Scree1"  width="0.9" height="0.9" x="-0.5" y="-0.4" transform="matrix(1.0001 0 0 -1.0001 43.6668 40.9999)" overflow="visible" enable-background="new    "/>
<use xlink:href="#Scree1"  width="0.9" height="0.9" x="-0.5" y="-0.4" transform="matrix(1.0001 0 0 -1.0001 47.9168 45.9999)" overflow="visible" enable-background="new    "/>
<use xlink:href="#Scree1"  width="0.9" height="0.9" x="-0.5" y="-0.4" transform="matrix(1.0001 0 0 -1.0001 43.9168 47.9169)" overflow="visible" enable-background="new    "/>
<use xlink:href="#Scree1"  width="0.9" height="0.9" x="-0.5" y="-0.4" transform="matrix(1.0001 0 0 -1.0001 38.3338 48.4999)" overflow="visible" enable-background="new    "/>
<use xlink:href="#Scree1"  width="0.9" height="0.9" x="-0.5" y="-0.4" transform="matrix(1.0001 0 0 -1.0001 33.1668 48.2499)" overflow="visible" enable-background="new    "/>
<use xlink:href="#Scree1"  width="0.9" height="0.9" x="-0.5" y="-0.4" transform="matrix(1.0001 0 0 -1.0001 25.3333 48.5829)" overflow="visible" enable-background="new    "/>
<use xlink:href="#Scree1"  width="0.9" height="0.9" x="-0.5" y="-0.4" transform="matrix(1.0001 0 0 -1.0001 19.3333 47.8329)" overflow="visible" enable-background="new    "/>
<use xlink:href="#Scree1"  width="0.9" height="0.9" x="-0.5" y="-0.4" transform="matrix(1.0001 0 0 -1.0001 13.0833 48.5829)" overflow="visible" enable-background="new    "/>
<use xlink:href="#Scree1"  width="0.9" height="0.9" x="-0.5" y="-0.4" transform="matrix(1.0001 0 0 -1.0001 9.1668 47.9999)" overflow="visible" enable-background="new    "/>
<use xlink:href="#Scree1"  width="0.9" height="0.9" x="-0.5" y="-0.4" transform="matrix(1.0001 0 0 -1.0001 0.8333 48.0829)" overflow="visible" enable-background="new    "/>
<use xlink:href="#Scree1"  width="0.9" height="0.9" x="-0.5" y="-0.4" transform="matrix(1.0001 0 0 -1.0001 7.4168 42.7499)" overflow="visible" enable-background="new    "/>
<use xlink:href="#Scree1"  width="0.9" height="0.9" x="-0.5" y="-0.4" transform="matrix(1.0001 0 0 -1.0001 40.8338 45.0829)" overflow="visible" enable-background="new    "/>
<use xlink:href="#Scree1"  width="0.9" height="0.9" x="-0.5" y="-0.4" transform="matrix(1.0001 0 0 -1.0001 35.9998 45.4999)" overflow="visible" enable-background="new    "/>
<use xlink:href="#Scree1"  width="0.9" height="0.9" x="-0.5" y="-0.4" transform="matrix(1.0001 0 0 -1.0001 12.2498 44.6669)" overflow="visible" enable-background="new    "/>
<use xlink:href="#Scree1"  width="0.9" height="0.9" x="-0.5" y="-0.4" transform="matrix(1.0001 0 0 -1.0001 15.9168 44.9999)" overflow="visible" enable-background="new    "/>
<use xlink:href="#Scree1"  width="0.9" height="0.9" x="-0.5" y="-0.4" transform="matrix(1.0001 0 0 -1.0001 22.6668 45.1669)" overflow="visible" enable-background="new    "/>
<use xlink:href="#Scree1"  width="0.9" height="0.9" x="-0.5" y="-0.4" transform="matrix(1.0001 0 0 -1.0001 11.6668 41.4169)" overflow="visible" enable-background="new    "/>
<use xlink:href="#Scree1"  width="0.9" height="0.9" x="-0.5" y="-0.4" transform="matrix(1.0001 0 0 -1.0001 16.4998 40.5829)" overflow="visible" enable-background="new    "/>
<use xlink:href="#Scree1"  width="0.9" height="0.9" x="-0.5" y="-0.4" transform="matrix(1.0001 0 0 -1.0001 19.9168 42.5829)" overflow="visible" enable-background="new    "/>
<use xlink:href="#Scree1"  width="0.9" height="0.9" x="-0.5" y="-0.4" transform="matrix(1.0001 0 0 -1.0001 25.3333 40.4999)" overflow="visible" enable-background="new    "/>
<use xlink:href="#Scree1"  width="0.9" height="0.9" x="-0.5" y="-0.4" transform="matrix(1.0001 0 0 -1.0001 38.5838 41.7499)" overflow="visible" enable-background="new    "/>
<use xlink:href="#Scree1"  width="0.9" height="0.9" x="-0.5" y="-0.4" transform="matrix(1.0001 0 0 -1.0001 35.2498 39.5829)" overflow="visible" enable-background="new    "/>
<use xlink:href="#Scree1"  width="0.9" height="0.9" x="-0.5" y="-0.4" transform="matrix(1.0001 0 0 -1.0001 30.4998 41.9169)" overflow="visible" enable-background="new    "/>
<use xlink:href="#Scree1"  width="0.9" height="0.9" x="-0.5" y="-0.4" transform="matrix(1.0001 0 0 -1.0001 39.9168 37.8329)" overflow="visible" enable-background="new    "/>
<use xlink:href="#Scree1"  width="0.9" height="0.9" x="-0.5" y="-0.4" transform="matrix(1.0001 0 0 -1.0001 46.4998 37.1669)" overflow="visible" enable-background="new    "/>
<use xlink:href="#Scree1"  width="0.9" height="0.9" x="-0.5" y="-0.4" transform="matrix(1.0001 0 0 -1.0001 14.3333 36.6669)" overflow="visible" enable-background="new    "/>
<use xlink:href="#Scree1"  width="0.9" height="0.9" x="-0.5" y="-0.4" transform="matrix(1.0001 0 0 -1.0001 19.1668 37.8329)" overflow="visible" enable-background="new    "/>
<use xlink:href="#Scree1"  width="0.9" height="0.9" x="-0.5" y="-0.4" transform="matrix(1.0001 0 0 -1.0001 23.4168 36.4169)" overflow="visible" enable-background="new    "/>
<use xlink:href="#Scree1"  width="0.9" height="0.9" x="-0.5" y="-0.4" transform="matrix(1.0001 0 0 -1.0001 30.2498 37.4999)" overflow="visible" enable-background="new    "/>
<use xlink:href="#Scree1"  width="0.9" height="0.9" x="-0.5" y="-0.4" transform="matrix(1.0001 0 0 -1.0001 35.5838 36.1669)" overflow="visible" enable-background="new    "/>
<use xlink:href="#Scree1"  width="0.9" height="0.9" x="-0.5" y="-0.4" transform="matrix(1.0001 0 0 -1.0001 13.2498 28.4999)" overflow="visible" enable-background="new    "/>
<use xlink:href="#Scree1"  width="0.9" height="0.9" x="-0.5" y="-0.4" transform="matrix(1.0001 0 0 -1.0001 13.4168 21.7499)" overflow="visible" enable-background="new    "/>
<use xlink:href="#Scree1"  width="0.9" height="0.9" x="-0.5" y="-0.4" transform="matrix(1.0001 0 0 -1.0001 14.8333 15.9999)" overflow="visible" enable-background="new    "/>
<use xlink:href="#Scree1"  width="0.9" height="0.9" x="-0.5" y="-0.4" transform="matrix(1.0001 0 0 -1.0001 13.3333 9.0834)" overflow="visible" enable-background="new    "/>
<use xlink:href="#Scree1"  width="0.9" height="0.9" x="-0.5" y="-0.4" transform="matrix(1.0001 0 0 -1.0001 12.4998 3.0834)" overflow="visible" enable-background="new    "/>
<use xlink:href="#Scree1"  width="0.9" height="0.9" x="-0.5" y="-0.4" transform="matrix(1.0001 0 0 -1.0001 10.4998 31.5829)" overflow="visible" enable-background="new    "/>
<use xlink:href="#Scree1"  width="0.9" height="0.9" x="-0.5" y="-0.4" transform="matrix(1.0001 0 0 -1.0001 16.1668 32.4999)" overflow="visible" enable-background="new    "/>
<use xlink:href="#Scree1"  width="0.9" height="0.9" x="-0.5" y="-0.4" transform="matrix(1.0001 0 0 -1.0001 14.5833 23.9999)" overflow="visible" enable-background="new    "/>
<use xlink:href="#Scree1"  width="0.9" height="0.9" x="-0.5" y="-0.4" transform="matrix(1.0001 0 0 -1.0001 34.5838 1.5834)" overflow="visible" enable-background="new    "/>
<use xlink:href="#Scree1"  width="0.9" height="0.9" x="-0.5" y="-0.4" transform="matrix(1.0001 0 0 -1.0001 33.6668 5.4999)" overflow="visible" enable-background="new    "/>
<use xlink:href="#Scree1"  width="0.9" height="0.9" x="-0.5" y="-0.4" transform="matrix(1.0001 0 0 -1.0001 32.0838 10.0834)" overflow="visible" enable-background="new    "/>
<use xlink:href="#Scree1"  width="0.9" height="0.9" x="-0.5" y="-0.4" transform="matrix(1.0001 0 0 -1.0001 32.0838 14.7064)" overflow="visible" enable-background="new    "/>
<use xlink:href="#Scree1"  width="0.9" height="0.9" x="-0.5" y="-0.4" transform="matrix(1.0001 0 0 -1.0001 29.4168 17.2499)" overflow="visible" enable-background="new    "/>
<use xlink:href="#Scree1"  width="0.9" height="0.9" x="-0.5" y="-0.4" transform="matrix(1.0001 0 0 -1.0001 28.2498 20.4999)" overflow="visible" enable-background="new    "/>
<use xlink:href="#Scree1"  width="0.9" height="0.9" x="-0.5" y="-0.4" transform="matrix(1.0001 0 0 -1.0001 27.741 24.4306)" overflow="visible" enable-background="new    "/>
<use xlink:href="#Scree1"  width="0.9" height="0.9" x="-0.5" y="-0.4" transform="matrix(1.0001 0 0 -1.0001 26.4998 28.2499)" overflow="visible" enable-background="new    "/>
<use xlink:href="#Scree1"  width="0.9" height="0.9" x="-0.5" y="-0.4" transform="matrix(1.0001 0 0 -1.0001 32.8338 18.9999)" overflow="visible" enable-background="new    "/>
<use xlink:href="#Scree1"  width="0.9" height="0.9" x="-0.5" y="-0.4" transform="matrix(1.0001 0 0 -1.0001 33.4168 22.1664)" overflow="visible" enable-background="new    "/>
<use xlink:href="#Scree1"  width="0.9" height="0.9" x="-0.5" y="-0.4" transform="matrix(1.0001 0 0 -1.0001 34.1668 25.9164)" overflow="visible" enable-background="new    "/>
<use xlink:href="#Scree1"  width="0.9" height="0.9" x="-0.5" y="-0.4" transform="matrix(1.0001 0 0 -1.0001 32.2498 33.3329)" overflow="visible" enable-background="new    "/>
<use xlink:href="#Scree1"  width="0.9" height="0.9" x="-0.5" y="-0.4" transform="matrix(1.0001 0 0 -1.0001 33.4168 29.5829)" overflow="visible" enable-background="new    "/>
<use xlink:href="#Scree1"  width="0.9" height="0.9" x="-0.5" y="-0.4" transform="matrix(1.0001 0 0 -1.0001 36.2498 31.9999)" overflow="visible" enable-background="new    "/>
<use xlink:href="#Scree1"  width="0.9" height="0.9" x="-0.5" y="-0.4" transform="matrix(1.0001 0 0 -1.0001 36.1668 17.3334)" overflow="visible" enable-background="new    "/>
<use xlink:href="#Scree1"  width="0.9" height="0.9" x="-0.5" y="-0.4" transform="matrix(1.0001 0 0 -1.0001 39.2498 19.1664)" overflow="visible" enable-background="new    "/>
<use xlink:href="#Scree2"  width="0.6" height="0.4" x="-0.3" y="-0.2" transform="matrix(1 0 0 -1 3.75 1.9998)" overflow="visible"/>
<use xlink:href="#Scree2"  width="0.6" height="0.4" x="-0.3" y="-0.2" transform="matrix(1 0 0 -1 3.5 4.4163)" overflow="visible" enable-background="new    "/>
<use xlink:href="#Scree2"  width="0.6" height="0.4" x="-0.3" y="-0.2" transform="matrix(1 0 0 -1 3.4375 7.9998)" overflow="visible" enable-background="new    "/>
<use xlink:href="#Scree2"  width="0.6" height="0.4" x="-0.3" y="-0.2" transform="matrix(1 0 0 -1 6.7085 5.6668)" overflow="visible" enable-background="new    "/>
<use xlink:href="#Scree2"  width="0.6" height="0.4" x="-0.3" y="-0.2" transform="matrix(1 0 0 -1 0.7915 9.7918)" overflow="visible" enable-background="new    "/>
<use xlink:href="#Scree2"  width="0.6" height="0.4" x="-0.3" y="-0.2" transform="matrix(1 0 0 -1 1.375 6.5418)" overflow="visible" enable-background="new    "/>
<use xlink:href="#Scree2"  width="0.6" height="0.4" x="-0.3" y="-0.2" transform="matrix(1 0 0 -1 0.9165 13.6668)" overflow="visible" enable-background="new    "/>
<use xlink:href="#Scree2"  width="0.6" height="0.4" x="-0.3" y="-0.2" transform="matrix(1 0 0 -1 2.6665 10.9998)" overflow="visible" enable-background="new    "/>
<use xlink:href="#Scree2"  width="0.6" height="0.4" x="-0.3" y="-0.2" transform="matrix(1 0 0 -1 2.8335 15.9998)" overflow="visible" enable-background="new    "/>
<use xlink:href="#Scree2"  width="0.6" height="0.4" x="-0.3" y="-0.2" transform="matrix(1 0 0 -1 5.375 10.5833)" overflow="visible" enable-background="new    "/>
<use xlink:href="#Scree2"  width="0.6" height="0.4" x="-0.3" y="-0.2" transform="matrix(1 0 0 -1 6.0835 13.1668)" overflow="visible" enable-background="new    "/>
<use xlink:href="#Scree2"  width="0.6" height="0.4" x="-0.3" y="-0.2" transform="matrix(1 0 0 -1 6.25 15.6668)" overflow="visible" enable-background="new    "/>
<use xlink:href="#Scree2"  width="0.6" height="0.4" x="-0.3" y="-0.2" transform="matrix(1 0 0 -1 5 18.2083)" overflow="visible" enable-background="new    "/>
<use xlink:href="#Scree2"  width="0.6" height="0.4" x="-0.3" y="-0.2" transform="matrix(1 0 0 -1 7.4419 18.5686)" overflow="visible" enable-background="new    "/>
<use xlink:href="#Scree2"  width="0.6" height="0.4" x="-0.3" y="-0.2" transform="matrix(1 0 0 -1 8.7085 21.2083)" overflow="visible" enable-background="new    "/>
<use xlink:href="#Scree2"  width="0.6" height="0.4" x="-0.3" y="-0.2" transform="matrix(1 0 0 -1 4.0835 20.3333)" overflow="visible" enable-background="new    "/>
<use xlink:href="#Scree2"  width="0.6" height="0.4" x="-0.3" y="-0.2" transform="matrix(1 0 0 -1 1.5415 22.5418)" overflow="visible" enable-background="new    "/>
<use xlink:href="#Scree2"  width="0.6" height="0.4" x="-0.3" y="-0.2" transform="matrix(1 0 0 -1 11.2085 1.2918)" overflow="visible" enable-background="new    "/>
<use xlink:href="#Scree2"  width="0.6" height="0.4" x="-0.3" y="-0.2" transform="matrix(1 0 0 -1 10.75 3.8333)" overflow="visible" enable-background="new    "/>
<use xlink:href="#Scree2"  width="0.6" height="0.4" x="-0.3" y="-0.2" transform="matrix(1 0 0 -1 10.5 6.1248)" overflow="visible" enable-background="new    "/>
<use xlink:href="#Scree2"  width="0.6" height="0.4" x="-0.3" y="-0.2" transform="matrix(1 0 0 -1 9.8335 8.3333)" overflow="visible" enable-background="new    "/>
<use xlink:href="#Scree2"  width="0.6" height="0.4" x="-0.3" y="-0.2" transform="matrix(1 0 0 -1 9.2915 10.7918)" overflow="visible" enable-background="new    "/>
<use xlink:href="#Scree2"  width="0.6" height="0.4" x="-0.3" y="-0.2" transform="matrix(1 0 0 -1 12.125 6.1668)" overflow="visible" enable-background="new    "/>
<use xlink:href="#Scree2"  width="0.6" height="0.4" x="-0.3" y="-0.2" transform="matrix(1 0 0 -1 14.0835 10.9168)" overflow="visible" enable-background="new    "/>
<use xlink:href="#Scree2"  width="0.6" height="0.4" x="-0.3" y="-0.2" transform="matrix(1 0 0 -1 11.5835 11.6668)" overflow="visible" enable-background="new    "/>
<use xlink:href="#Scree2"  width="0.6" height="0.4" x="-0.3" y="-0.2" transform="matrix(1 0 0 -1 18.7915 1.3748)" overflow="visible" enable-background="new    "/>
<use xlink:href="#Scree2"  width="0.6" height="0.4" x="-0.3" y="-0.2" transform="matrix(1 0 0 -1 18.25 3.2918)" overflow="visible" enable-background="new    "/>
<use xlink:href="#Scree2"  width="0.6" height="0.4" x="-0.3" y="-0.2" transform="matrix(1 0 0 -1 17.8335 4.7918)" overflow="visible" enable-background="new    "/>
<use xlink:href="#Scree2"  width="0.6" height="0.4" x="-0.3" y="-0.2" transform="matrix(1 0 0 -1 17.0835 7.2918)" overflow="visible" enable-background="new    "/>
<use xlink:href="#Scree2"  width="0.6" height="0.4" x="-0.3" y="-0.2" transform="matrix(1 0 0 -1 16.4585 9.9583)" overflow="visible" enable-background="new    "/>
<use xlink:href="#Scree2"  width="0.6" height="0.4" x="-0.3" y="-0.2" transform="matrix(1 0 0 -1 18.3335 9.7083)" overflow="visible" enable-background="new    "/>
<use xlink:href="#Scree2"  width="0.6" height="0.4" x="-0.3" y="-0.2" transform="matrix(1 0 0 -1 19.0415 11.4998)" overflow="visible" enable-background="new    "/>
<use xlink:href="#Scree2"  width="0.6" height="0.4" x="-0.3" y="-0.2" transform="matrix(1 0 0 -1 19.6665 13.2918)" overflow="visible" enable-background="new    "/>
<use xlink:href="#Scree2"  width="0.6" height="0.4" x="-0.3" y="-0.2" transform="matrix(1 0 0 -1 19.2085 15.3748)" overflow="visible" enable-background="new    "/>
<use xlink:href="#Scree2"  width="0.6" height="0.4" x="-0.3" y="-0.2" transform="matrix(1 0 0 -1 18 17.6248)" overflow="visible" enable-background="new    "/>
<use xlink:href="#Scree2"  width="0.6" height="0.4" x="-0.3" y="-0.2" transform="matrix(1 0 0 -1 16.0415 20.6668)" overflow="visible" enable-background="new    "/>
<use xlink:href="#Scree2"  width="0.6" height="0.4" x="-0.3" y="-0.2" transform="matrix(1 0 0 -1 20.2915 17.2498)" overflow="visible" enable-background="new    "/>
<use xlink:href="#Scree2"  width="0.6" height="0.4" x="-0.3" y="-0.2" transform="matrix(1 0 0 -1 20.9165 19.4998)" overflow="visible" enable-background="new    "/>
<use xlink:href="#Scree2"  width="0.6" height="0.4" x="-0.3" y="-0.2" transform="matrix(1 0 0 -1 21.125 22.3333)" overflow="visible" enable-background="new    "/>
<use xlink:href="#Scree2"  width="0.6" height="0.4" x="-0.3" y="-0.2" transform="matrix(1 0 0 -1 21.4165 25.2083)" overflow="visible" enable-background="new    "/>
<use xlink:href="#Scree2"  width="0.6" height="0.4" x="-0.3" y="-0.2" transform="matrix(1 0 0 -1 23.4165 27.9998)" overflow="visible" enable-background="new    "/>
<use xlink:href="#Scree2"  width="0.6" height="0.4" x="-0.3" y="-0.2" transform="matrix(1 0 0 -1 20.2915 28.6248)" overflow="visible" enable-background="new    "/>
<use xlink:href="#Scree2"  width="0.6" height="0.4" x="-0.3" y="-0.2" transform="matrix(1 0 0 -1 19.6665 31.5828)" overflow="visible" enable-background="new    "/>
<use xlink:href="#Scree2"  width="0.6" height="0.4" x="-0.3" y="-0.2" transform="matrix(1 0 0 -1 8.8125 34.4373)" overflow="visible" enable-background="new    "/>
<use xlink:href="#Scree2"  width="0.6" height="0.4" x="-0.3" y="-0.2" transform="matrix(1 0 0 -1 38.8125 34.9998)" overflow="visible" enable-background="new    "/>
<use xlink:href="#Scree2"  width="0.6" height="0.4" x="-0.3" y="-0.2" transform="matrix(1 0 0 -1 18 34.9373)" overflow="visible" enable-background="new    "/>
<use xlink:href="#Scree2"  width="0.6" height="0.4" x="-0.3" y="-0.2" transform="matrix(1 0 0 -1 22.1875 32.3748)" overflow="visible" enable-background="new    "/>
<use xlink:href="#Scree2"  width="0.6" height="0.4" x="-0.3" y="-0.2" transform="matrix(1 0 0 -1 12.875 32.8748)" overflow="visible" enable-background="new    "/>
<use xlink:href="#Scree2"  width="0.6" height="0.4" x="-0.3" y="-0.2" transform="matrix(1 0 0 -1 5 32.9998)" overflow="visible" enable-background="new    "/>
<use xlink:href="#Scree2"  width="0.6" height="0.4" x="-0.3" y="-0.2" transform="matrix(1 0 0 -1 2 30.3748)" overflow="visible" enable-background="new    "/>
<use xlink:href="#Scree2"  width="0.6" height="0.4" x="-0.3" y="-0.2" transform="matrix(1 0 0 -1 2.4375 26.2498)" overflow="visible" enable-background="new    "/>
<use xlink:href="#Scree2"  width="0.6" height="0.4" x="-0.3" y="-0.2" transform="matrix(1 0 0 -1 49.0625 26.1248)" overflow="visible" enable-background="new    "/>
<use xlink:href="#Scree2"  width="0.6" height="0.4" x="-0.3" y="-0.2" transform="matrix(1 0 0 -1 49.125 33.8748)" overflow="visible" enable-background="new    "/>
<use xlink:href="#Scree2"  width="0.6" height="0.4" x="-0.3" y="-0.2" transform="matrix(1 0 0 -1 45.875 30.3123)" overflow="visible" enable-background="new    "/>
<use xlink:href="#Scree2"  width="0.6" height="0.4" x="-0.3" y="-0.2" transform="matrix(1 0 0 -1 41.25 29.6873)" overflow="visible" enable-background="new    "/>
<use xlink:href="#Scree2"  width="0.6" height="0.4" x="-0.3" y="-0.2" transform="matrix(1 0 0 -1 26.1328 4.0501)" overflow="visible" enable-background="new    "/>
<use xlink:href="#Scree2"  width="0.6" height="0.4" x="-0.3" y="-0.2" transform="matrix(1 0 0 -1 23.4375 7.2498)" overflow="visible" enable-background="new    "/>
<use xlink:href="#Scree2"  width="0.6" height="0.4" x="-0.3" y="-0.2" transform="matrix(1 0 0 -1 26.4375 7.8123)" overflow="visible" enable-background="new    "/>
<use xlink:href="#Scree2"  width="0.6" height="0.4" x="-0.3" y="-0.2" transform="matrix(1 0 0 -1 28.5625 6.6873)" overflow="visible" enable-background="new    "/>
<use xlink:href="#Scree2"  width="0.6" height="0.4" x="-0.3" y="-0.2" transform="matrix(1 0 0 -1 22.25 9.0623)" overflow="visible" enable-background="new    "/>
<use xlink:href="#Scree2"  width="0.6" height="0.4" x="-0.3" y="-0.2" transform="matrix(1 0 0 -1 24.5625 9.3748)" overflow="visible" enable-background="new    "/>
<use xlink:href="#Scree2"  width="0.6" height="0.4" x="-0.3" y="-0.2" transform="matrix(1 0 0 -1 27.4375 9.7498)" overflow="visible" enable-background="new    "/>
<use xlink:href="#Scree2"  width="0.6" height="0.4" x="-0.3" y="-0.2" transform="matrix(1 0 0 -1 29.875 8.4373)" overflow="visible" enable-background="new    "/>
<use xlink:href="#Scree2"  width="0.6" height="0.4" x="-0.3" y="-0.2" transform="matrix(1 0 0 -1 21.6875 11.9373)" overflow="visible" enable-background="new    "/>
<use xlink:href="#Scree2"  width="0.6" height="0.4" x="-0.3" y="-0.2" transform="matrix(1 0 0 -1 24.5625 11.8123)" overflow="visible" enable-background="new    "/>
<use xlink:href="#Scree2"  width="0.6" height="0.4" x="-0.3" y="-0.2" transform="matrix(1 0 0 -1 28.1875 11.4373)" overflow="visible" enable-background="new    "/>
<use xlink:href="#Scree2"  width="0.6" height="0.4" x="-0.3" y="-0.2" transform="matrix(1 0 0 -1 32.6875 12.1873)" overflow="visible" enable-background="new    "/>
<use xlink:href="#Scree2"  width="0.6" height="0.4" x="-0.3" y="-0.2" transform="matrix(1 0 0 -1 22.5625 13.7498)" overflow="visible" enable-background="new    "/>
<use xlink:href="#Scree2"  width="0.6" height="0.4" x="-0.3" y="-0.2" transform="matrix(1 0 0 -1 26.3125 13.6873)" overflow="visible" enable-background="new    "/>
<use xlink:href="#Scree2"  width="0.6" height="0.4" x="-0.3" y="-0.2" transform="matrix(1 0 0 -1 29.625 13.8748)" overflow="visible" enable-background="new    "/>
<use xlink:href="#Scree2"  width="0.6" height="0.4" x="-0.3" y="-0.2" transform="matrix(1 0 0 -1 24.25 15.9998)" overflow="visible" enable-background="new    "/>
<use xlink:href="#Scree2"  width="0.6" height="0.4" x="-0.3" y="-0.2" transform="matrix(1 0 0 -1 23 18.6873)" overflow="visible" enable-background="new    "/>
<use xlink:href="#Scree2"  width="0.6" height="0.4" x="-0.3" y="-0.2" transform="matrix(1 0 0 -1 26.5625 16.8123)" overflow="visible" enable-background="new    "/>
<use xlink:href="#Scree2"  width="0.6" height="0.4" x="-0.3" y="-0.2" transform="matrix(1 0 0 -1 25.25 20.4998)" overflow="visible" enable-background="new    "/>
<use xlink:href="#Scree2"  width="0.6" height="0.4" x="-0.3" y="-0.2" transform="matrix(1 0 0 -1 45.625 5.6248)" overflow="visible" enable-background="new    "/>
<use xlink:href="#Scree2"  width="0.6" height="0.4" x="-0.3" y="-0.2" transform="matrix(1 0 0 -1 43.4375 7.9998)" overflow="visible" enable-background="new    "/>
<use xlink:href="#Scree2"  width="0.6" height="0.4" x="-0.3" y="-0.2" transform="matrix(1 0 0 -1 38.3125 9.0623)" overflow="visible" enable-background="new    "/>
<use xlink:href="#Scree2"  width="0.6" height="0.4" x="-0.3" y="-0.2" transform="matrix(1 0 0 -1 41.5 10.1873)" overflow="visible" enable-background="new    "/>
<use xlink:href="#Scree2"  width="0.6" height="0.4" x="-0.3" y="-0.2" transform="matrix(1 0 0 -1 45.0625 10.3123)" overflow="visible" enable-background="new    "/>
<use xlink:href="#Scree2"  width="0.6" height="0.4" x="-0.3" y="-0.2" transform="matrix(1 0 0 -1 47.5 8.3748)" overflow="visible" enable-background="new    "/>
<use xlink:href="#Scree2"  width="0.6" height="0.4" x="-0.3" y="-0.2" transform="matrix(1 0 0 -1 43 12.8123)" overflow="visible" enable-background="new    "/>
<use xlink:href="#Scree2"  width="0.6" height="0.4" x="-0.3" y="-0.2" transform="matrix(1 0 0 -1 46.9375 11.8123)" overflow="visible" enable-background="new    "/>
<use xlink:href="#Scree2"  width="0.6" height="0.4" x="-0.3" y="-0.2" transform="matrix(1 0 0 -1 40.25 14.4998)" overflow="visible" enable-background="new    "/>
<use xlink:href="#Scree2"  width="0.6" height="0.4" x="-0.3" y="-0.2" transform="matrix(1 0 0 -1 43.3047 15.1629)" overflow="visible" enable-background="new    "/>
<use xlink:href="#Scree2"  width="0.6" height="0.4" x="-0.3" y="-0.2" transform="matrix(1 0 0 -1 46.1875 14.3748)" overflow="visible" enable-background="new    "/>
<use xlink:href="#Scree2"  width="0.6" height="0.4" x="-0.3" y="-0.2" transform="matrix(1 0 0 -1 40.4375 16.9998)" overflow="visible" enable-background="new    "/>
<use xlink:href="#Scree2"  width="0.6" height="0.4" x="-0.3" y="-0.2" transform="matrix(1 0 0 -1 44.375 17.2498)" overflow="visible" enable-background="new    "/>
<use xlink:href="#Scree2"  width="0.6" height="0.4" x="-0.3" y="-0.2" transform="matrix(1 0 0 -1 48.1875 15.7498)" overflow="visible" enable-background="new    "/>
<use xlink:href="#Scree2"  width="0.6" height="0.4" x="-0.3" y="-0.2" transform="matrix(1 0 0 -1 46.6875 18.6873)" overflow="visible" enable-background="new    "/>
<use xlink:href="#Scree2"  width="0.6" height="0.4" x="-0.3" y="-0.2" transform="matrix(1 0 0 -1 42.4375 19.0623)" overflow="visible" enable-background="new    "/>
<use xlink:href="#Scree2"  width="0.6" height="0.4" x="-0.3" y="-0.2" transform="matrix(1 0 0 -1 49.625 18.1873)" overflow="visible" enable-background="new    "/>
<use xlink:href="#Scree2"  width="0.6" height="0.4" x="-0.3" y="-0.2" transform="matrix(1 0 0 -1 44.25 26.8748)" overflow="visible" enable-background="new    "/>
<g id="roughgrass_x5F_bd_23_">
	<path fill="#A9CDA6" d="M7.5,40.2L7.5,40.2L7.5,40.2l-0.1,0.1c0,0-0.1,0-0.1,0l-0.2-0.2l0-0.1l0,0l0,0c0,0,0.1,0,0.1,0L7.5,40.2z"
		/>
	<path fill="#A9CDA6" d="M8.6,39.9C8.6,39.9,8.6,39.9,8.6,39.9C8.6,39.9,8.6,39.9,8.6,39.9c-0.1-0.1-0.2-0.2-0.2-0.2
		c0-0.1,0.1-0.3,0.1-0.3c0-0.1,0-0.4,0-0.4C8.8,39.5,8.6,39.9,8.6,39.9z"/>
	<path fill="#A9CDA6" d="M8.6,39.9c0,0,0.1,0.1,0.1,0.2l-0.1,0l-0.1,0C8.5,40,8.6,40,8.6,39.9z"/>
	<path fill="#A9CDA6" d="M9.7,39.5l-0.2,0.2c0,0-0.1,0.1-0.2,0.3l0,0.1c0,0-0.1,0-0.2,0c0,0,0.1-0.1,0.1-0.3c0,0,0-0.5,0.3-0.6
		c0,0,0.2-0.1,0.1,0c0,0-0.1,0.2-0.2,0.4C9.3,39.7,9.4,39.5,9.7,39.5z"/>
	<path fill="#A9CDA6" d="M10.6,40L10.6,40l-0.2,0.3c0,0-0.1,0-0.1,0l0,0l0,0l0-0.1l0.2-0.2C10.5,39.9,10.5,39.9,10.6,40L10.6,40
		L10.6,40z"/>
	<path fill="#A9CDA6" d="M8,39.7l0.1,0.3l0,0.1l0,0c0,0,0,0-0.1,0c0,0-0.1,0-0.1,0l-0.1-0.3v-0.1l0,0L8,39.7
		C7.9,39.7,7.9,39.7,8,39.7z"/>
	<path fill="#A9CDA6" d="M9.9,39.7L9.9,39.7L9.9,39.7l0.1,0.1l-0.1,0.3c0,0,0,0.1-0.1,0c0,0,0,0-0.1,0l0,0l0-0.1L9.9,39.7
		C9.9,39.7,9.9,39.7,9.9,39.7z"/>
</g>
<g id="roughgrass_x5F_bd_25_" enable-background="new    ">
	<path fill="#A9CDA6" d="M10.1,37.9L10.1,37.9L10.1,37.9L10.1,38c0,0-0.1,0-0.1,0l-0.2-0.2l0-0.1l0,0l0,0c0,0,0.1,0,0.1,0L10.1,37.9
		z"/>
	<path fill="#A9CDA6" d="M11.3,37.6C11.3,37.6,11.3,37.6,11.3,37.6C11.3,37.6,11.3,37.6,11.3,37.6c-0.1-0.1-0.2-0.2-0.2-0.2
		c0-0.1,0.1-0.3,0.1-0.3c0-0.1,0-0.4,0-0.4C11.5,37.3,11.3,37.6,11.3,37.6z"/>
	<path fill="#A9CDA6" d="M11.3,37.6c0,0,0.1,0.1,0.1,0.2l-0.1,0l-0.1,0C11.2,37.8,11.2,37.7,11.3,37.6z"/>
	<path fill="#A9CDA6" d="M12.3,37.2l-0.2,0.2c0,0-0.1,0.1-0.2,0.3l0,0.1c0,0-0.1,0-0.2,0c0,0,0.1-0.1,0.1-0.3c0,0,0-0.5,0.3-0.6
		c0,0,0.2-0.1,0.1,0c0,0-0.1,0.2-0.2,0.4C12,37.4,12.1,37.2,12.3,37.2z"/>
	<path fill="#A9CDA6" d="M13.3,37.7L13.3,37.7L13.2,38c0,0-0.1,0-0.1,0l0,0l0,0l0-0.1l0.2-0.2C13.2,37.7,13.2,37.6,13.3,37.7
		L13.3,37.7L13.3,37.7z"/>
	<path fill="#A9CDA6" d="M10.6,37.5l0.1,0.3l0,0.1l0,0c0,0,0,0-0.1,0c0,0-0.1,0-0.1,0l-0.1-0.3v-0.1l0,0L10.6,37.5
		C10.6,37.4,10.6,37.4,10.6,37.5z"/>
	<path fill="#A9CDA6" d="M12.6,37.4L12.6,37.4L12.6,37.4l0.1,0.1l-0.1,0.3c0,0,0,0.1-0.1,0c0,0,0,0-0.1,0l0,0l0-0.1L12.6,37.4
		C12.5,37.4,12.6,37.4,12.6,37.4z"/>
</g>
<g id="roughgrass_x5F_bd_24_" enable-background="new    ">
	<path fill="#A9CDA6" d="M5.7,37.1L5.7,37.1L5.7,37.1l-0.1,0.1c0,0-0.1,0-0.1,0L5.4,37l0-0.1l0,0l0,0c0,0,0.1,0,0.1,0L5.7,37.1z"/>
	<path fill="#A9CDA6" d="M6.9,36.9C6.9,36.9,6.9,36.9,6.9,36.9C6.8,36.9,6.8,36.9,6.9,36.9c-0.1-0.1-0.2-0.2-0.2-0.2
		c0-0.1,0.1-0.3,0.1-0.3c0-0.1,0-0.4,0-0.4C7.1,36.5,6.9,36.9,6.9,36.9z"/>
	<path fill="#A9CDA6" d="M6.9,36.9c0,0,0.1,0.1,0.1,0.2l-0.1,0l-0.1,0C6.8,37,6.8,37,6.9,36.9z"/>
	<path fill="#A9CDA6" d="M7.9,36.4l-0.2,0.2c0,0-0.1,0.1-0.2,0.3l0,0.1c0,0-0.1,0-0.2,0c0,0,0.1-0.1,0.1-0.3c0,0,0-0.5,0.3-0.6
		c0,0,0.2-0.1,0.1,0c0,0-0.1,0.2-0.2,0.4C7.5,36.6,7.7,36.4,7.9,36.4z"/>
	<path fill="#A9CDA6" d="M8.9,37L8.9,37l-0.2,0.3c0,0-0.1,0-0.1,0l0,0l0,0l0-0.1l0.2-0.2C8.7,36.9,8.8,36.9,8.9,37L8.9,37L8.9,37z"
		/>
	<path fill="#A9CDA6" d="M6.2,36.7l0.1,0.3l0,0.1l0,0c0,0,0,0-0.1,0c0,0-0.1,0-0.1,0L6,36.8v-0.1l0,0L6.2,36.7
		C6.2,36.6,6.2,36.7,6.2,36.7z"/>
	<path fill="#A9CDA6" d="M8.2,36.7L8.2,36.7L8.2,36.7l0.1,0.1l-0.1,0.3c0,0,0,0.1-0.1,0c0,0,0,0-0.1,0l0,0l0-0.1L8.2,36.7
		C8.1,36.7,8.1,36.6,8.2,36.7z"/>
</g>
<g id="roughgrass_x5F_bd_17_" enable-background="new    ">
	<path fill="#A9CDA6" d="M25.6,34.9L25.6,34.9L25.6,34.9L25.6,35c0,0-0.1,0-0.1,0l-0.2-0.2l0-0.1l0,0l0,0c0,0,0.1,0,0.1,0L25.6,34.9
		z"/>
	<path fill="#A9CDA6" d="M26.8,34.6C26.8,34.6,26.8,34.6,26.8,34.6C26.8,34.6,26.8,34.6,26.8,34.6c-0.1-0.1-0.2-0.2-0.2-0.2
		c0-0.1,0.1-0.3,0.1-0.3c0-0.1,0-0.4,0-0.4C27,34.2,26.8,34.6,26.8,34.6z"/>
	<path fill="#A9CDA6" d="M26.8,34.6c0,0,0.1,0.1,0.1,0.2l-0.1,0l-0.1,0C26.7,34.8,26.8,34.7,26.8,34.6z"/>
	<path fill="#A9CDA6" d="M27.8,34.2l-0.2,0.2c0,0-0.1,0.1-0.2,0.3l0,0.1c0,0-0.1,0-0.2,0c0,0,0.1-0.1,0.1-0.3c0,0,0-0.5,0.3-0.6
		c0,0,0.2-0.1,0.1,0c0,0-0.1,0.2-0.2,0.4C27.5,34.4,27.6,34.2,27.8,34.2z"/>
	<path fill="#A9CDA6" d="M28.8,34.7L28.8,34.7L28.7,35c0,0-0.1,0-0.1,0l0,0l0,0l0-0.1l0.2-0.2C28.7,34.7,28.7,34.6,28.8,34.7
		L28.8,34.7L28.8,34.7z"/>
	<path fill="#A9CDA6" d="M26.1,34.5l0.1,0.3l0,0.1l0,0c0,0,0,0-0.1,0c0,0-0.1,0-0.1,0L26,34.5v-0.1l0,0L26.1,34.5
		C26.1,34.4,26.1,34.4,26.1,34.5z"/>
	<path fill="#A9CDA6" d="M28.1,34.4L28.1,34.4L28.1,34.4l0.1,0.1l-0.1,0.3c0,0,0,0.1-0.1,0c0,0,0,0-0.1,0l0,0l0-0.1L28.1,34.4
		C28,34.4,28.1,34.4,28.1,34.4z"/>
</g>
<g id="roughgrass_x5F_bd_16_" enable-background="new    ">
	<path fill="#A9CDA6" d="M28.3,32.6L28.3,32.6L28.3,32.6l-0.1,0.1c0,0-0.1,0-0.1,0L28,32.5l0-0.1l0,0l0,0c0,0,0.1,0,0.1,0L28.3,32.6
		z"/>
	<path fill="#A9CDA6" d="M29.5,32.4C29.5,32.4,29.5,32.4,29.5,32.4C29.4,32.4,29.4,32.3,29.5,32.4c-0.1-0.1-0.2-0.2-0.2-0.2
		c0-0.1,0.1-0.3,0.1-0.3c0-0.1,0-0.4,0-0.4C29.7,32,29.5,32.4,29.5,32.4z"/>
	<path fill="#A9CDA6" d="M29.5,32.4c0,0,0.1,0.1,0.1,0.2l-0.1,0l-0.1,0C29.4,32.5,29.4,32.4,29.5,32.4z"/>
	<path fill="#A9CDA6" d="M30.5,31.9l-0.2,0.2c0,0-0.1,0.1-0.2,0.3l0,0.1c0,0-0.1,0-0.2,0c0,0,0.1-0.1,0.1-0.3c0,0,0-0.5,0.3-0.6
		c0,0,0.2-0.1,0.1,0c0,0-0.1,0.2-0.2,0.4C30.1,32.1,30.3,31.9,30.5,31.9z"/>
	<path fill="#A9CDA6" d="M31.5,32.5L31.5,32.5l-0.2,0.3c0,0-0.1,0-0.1,0l0,0l0,0l0-0.1l0.2-0.2C31.4,32.4,31.4,32.4,31.5,32.5
		L31.5,32.5L31.5,32.5z"/>
	<path fill="#A9CDA6" d="M28.8,32.2l0.1,0.3l0,0.1l0,0c0,0,0,0-0.1,0c0,0-0.1,0-0.1,0l-0.1-0.3v-0.1l0,0L28.8,32.2
		C28.8,32.1,28.8,32.2,28.8,32.2z"/>
	<path fill="#A9CDA6" d="M30.8,32.1L30.8,32.1L30.8,32.1l0.1,0.1l-0.1,0.3c0,0,0,0.1-0.1,0c0,0,0,0-0.1,0l0,0l0-0.1L30.8,32.1
		C30.7,32.2,30.8,32.1,30.8,32.1z"/>
</g>
<g id="roughgrass_x5F_bd_15_" enable-background="new    ">
	<path fill="#A9CDA6" d="M23.9,31.9L23.9,31.9L23.9,31.9L23.8,32c0,0-0.1,0-0.1,0l-0.2-0.2l0-0.1l0,0l0,0c0,0,0.1,0,0.1,0L23.9,31.9
		z"/>
	<path fill="#A9CDA6" d="M25,31.6C25,31.6,25,31.6,25,31.6C25,31.6,25,31.6,25,31.6c-0.1-0.1-0.2-0.2-0.2-0.2c0-0.1,0.1-0.3,0.1-0.3
		c0-0.1,0-0.4,0-0.4C25.3,31.2,25,31.6,25,31.6z"/>
	<path fill="#A9CDA6" d="M25,31.6c0,0,0.1,0.1,0.1,0.2l-0.1,0l-0.1,0C25,31.7,25,31.7,25,31.6z"/>
	<path fill="#A9CDA6" d="M26.1,31.2l-0.2,0.2c0,0-0.1,0.1-0.2,0.3l0,0.1c0,0-0.1,0-0.2,0c0,0,0.1-0.1,0.1-0.3c0,0,0-0.5,0.3-0.6
		c0,0,0.2-0.1,0.1,0c0,0-0.1,0.2-0.2,0.4C25.7,31.4,25.9,31.2,26.1,31.2z"/>
	<path fill="#A9CDA6" d="M27.1,31.7L27.1,31.7L26.9,32c0,0-0.1,0-0.1,0l0,0l0,0l0-0.1l0.2-0.2C26.9,31.6,27,31.6,27.1,31.7
		L27.1,31.7L27.1,31.7z"/>
	<path fill="#A9CDA6" d="M24.4,31.4l0.1,0.3l0,0.1l0,0c0,0,0,0-0.1,0c0,0-0.1,0-0.1,0l-0.1-0.3v-0.1l0,0L24.4,31.4
		C24.3,31.4,24.4,31.4,24.4,31.4z"/>
	<path fill="#A9CDA6" d="M26.4,31.4L26.4,31.4L26.4,31.4l0.1,0.1l-0.1,0.3c0,0,0,0.1-0.1,0c0,0,0,0-0.1,0l0,0l0-0.1L26.4,31.4
		C26.3,31.4,26.3,31.4,26.4,31.4z"/>
</g>
<g id="roughgrass_x5F_bd_26_" enable-background="new    ">
	<path fill="#A9CDA6" d="M5.3,26.2L5.3,26.2L5.3,26.2l-0.1,0.1c0,0-0.1,0-0.1,0l-0.2-0.2l0-0.1l0,0l0,0c0,0,0.1,0,0.1,0L5.3,26.2z"
		/>
	<path fill="#A9CDA6" d="M6.4,26C6.4,26,6.4,26,6.4,26C6.4,25.9,6.4,25.9,6.4,26c-0.1-0.1-0.2-0.2-0.2-0.2c0-0.1,0.1-0.3,0.1-0.3
		c0-0.1,0-0.4,0-0.4C6.6,25.6,6.4,26,6.4,26z"/>
	<path fill="#A9CDA6" d="M6.4,26c0,0,0.1,0.1,0.1,0.2l-0.1,0l-0.1,0C6.3,26.1,6.4,26,6.4,26z"/>
	<path fill="#A9CDA6" d="M7.5,25.5l-0.2,0.2c0,0-0.1,0.1-0.2,0.3l0,0.1c0,0-0.1,0-0.2,0c0,0,0.1-0.1,0.1-0.3c0,0,0-0.5,0.3-0.6
		c0,0,0.2-0.1,0.1,0c0,0-0.1,0.2-0.2,0.4C7.1,25.7,7.2,25.5,7.5,25.5z"/>
	<path fill="#A9CDA6" d="M8.4,26L8.4,26l-0.2,0.3c0,0-0.1,0-0.1,0l0,0l0,0l0-0.1L8.3,26C8.3,26,8.3,26,8.4,26L8.4,26L8.4,26z"/>
	<path fill="#A9CDA6" d="M5.8,25.8l0.1,0.3l0,0.1l0,0c0,0,0,0-0.1,0c0,0-0.1,0-0.1,0l-0.1-0.3v-0.1l0,0L5.8,25.8
		C5.7,25.7,5.7,25.7,5.8,25.8z"/>
	<path fill="#A9CDA6" d="M7.7,25.7L7.7,25.7L7.7,25.7l0.1,0.1l-0.1,0.3c0,0,0,0.1-0.1,0c0,0,0,0-0.1,0l0,0l0-0.1L7.7,25.7
		C7.7,25.7,7.7,25.7,7.7,25.7z"/>
</g>
<g id="roughgrass_x5F_bd_27_" enable-background="new    ">
	<path fill="#A9CDA6" d="M7.9,24L7.9,24L7.9,24l-0.1,0.1c0,0-0.1,0-0.1,0l-0.2-0.2l0-0.1l0,0l0,0c0,0,0.1,0,0.1,0L7.9,24z"/>
	<path fill="#A9CDA6" d="M9.1,23.7C9.1,23.7,9.1,23.7,9.1,23.7C9.1,23.7,9,23.7,9.1,23.7c-0.1-0.1-0.2-0.2-0.2-0.2
		c0-0.1,0.1-0.3,0.1-0.3c0-0.1,0-0.4,0-0.4C9.3,23.3,9.1,23.7,9.1,23.7z"/>
	<path fill="#A9CDA6" d="M9.1,23.7c0,0,0.1,0.1,0.1,0.2l-0.1,0l-0.1,0C9,23.8,9,23.8,9.1,23.7z"/>
	<path fill="#A9CDA6" d="M10.1,23.3l-0.2,0.2c0,0-0.1,0.1-0.2,0.3l0,0.1c0,0-0.1,0-0.2,0c0,0,0.1-0.1,0.1-0.3c0,0,0-0.5,0.3-0.6
		c0,0,0.2-0.1,0.1,0c0,0-0.1,0.2-0.2,0.4C9.8,23.4,9.9,23.2,10.1,23.3z"/>
	<path fill="#A9CDA6" d="M11.1,23.8L11.1,23.8L10.9,24c0,0-0.1,0-0.1,0l0,0l0,0l0-0.1l0.2-0.2C11,23.7,11,23.7,11.1,23.8L11.1,23.8
		L11.1,23.8z"/>
	<path fill="#A9CDA6" d="M8.4,23.5l0.1,0.3l0,0.1l0,0c0,0,0,0-0.1,0c0,0-0.1,0-0.1,0l-0.1-0.3v-0.1l0,0L8.4,23.5
		C8.4,23.4,8.4,23.5,8.4,23.5z"/>
	<path fill="#A9CDA6" d="M10.4,23.5L10.4,23.5L10.4,23.5l0.1,0.1l-0.1,0.3c0,0,0,0.1-0.1,0c0,0,0,0-0.1,0l0,0l0-0.1L10.4,23.5
		C10.3,23.5,10.4,23.4,10.4,23.5z"/>
</g>
<g id="roughgrass_x5F_bd_28_" enable-background="new    ">
	<path fill="#A9CDA6" d="M3.5,23.2L3.5,23.2L3.5,23.2l-0.1,0.1c0,0-0.1,0-0.1,0l-0.2-0.2l0-0.1l0,0l0,0c0,0,0.1,0,0.1,0L3.5,23.2z"
		/>
	<path fill="#A9CDA6" d="M4.6,22.9C4.6,22.9,4.6,22.9,4.6,22.9C4.6,22.9,4.6,22.9,4.6,22.9c-0.1-0.1-0.2-0.2-0.2-0.2
		c0-0.1,0.1-0.3,0.1-0.3c0-0.1,0-0.4,0-0.4C4.9,22.5,4.6,22.9,4.6,22.9z"/>
	<path fill="#A9CDA6" d="M4.6,22.9c0,0,0.1,0.1,0.1,0.2l-0.1,0l-0.1,0C4.6,23,4.6,23,4.6,22.9z"/>
	<path fill="#A9CDA6" d="M5.7,22.5l-0.2,0.2c0,0-0.1,0.1-0.2,0.3l0,0.1c0,0-0.1,0-0.2,0c0,0,0.1-0.1,0.1-0.3c0,0,0-0.5,0.3-0.6
		c0,0,0.2-0.1,0.1,0c0,0-0.1,0.2-0.2,0.4C5.3,22.7,5.5,22.5,5.7,22.5z"/>
	<path fill="#A9CDA6" d="M6.7,23L6.7,23l-0.2,0.3c0,0-0.1,0-0.1,0l0,0l0,0l0-0.1L6.5,23C6.5,22.9,6.6,22.9,6.7,23L6.7,23L6.7,23z"/>
	<path fill="#A9CDA6" d="M4,22.7l0.1,0.3l0,0.1l0,0c0,0,0,0-0.1,0c0,0-0.1,0-0.1,0l-0.1-0.3v-0.1l0,0L4,22.7C4,22.7,4,22.7,4,22.7z"
		/>
	<path fill="#A9CDA6" d="M6,22.7L6,22.7L6,22.7l0.1,0.1L6,23.2c0,0,0,0.1-0.1,0c0,0,0,0-0.1,0l0,0l0-0.1L6,22.7
		C5.9,22.7,5.9,22.7,6,22.7z"/>
</g>
<g id="roughgrass_x5F_bd_29_" enable-background="new    ">
	<path fill="#A9CDA6" d="M9.7,15.8L9.7,15.8L9.7,15.8l-0.1,0.1c0,0-0.1,0-0.1,0l-0.2-0.2l0-0.1l0,0l0,0c0,0,0.1,0,0.1,0L9.7,15.8z"
		/>
	<path fill="#A9CDA6" d="M10.8,15.5C10.8,15.5,10.8,15.5,10.8,15.5C10.8,15.5,10.8,15.5,10.8,15.5c-0.1-0.1-0.2-0.2-0.2-0.2
		c0-0.1,0.1-0.3,0.1-0.3c0-0.1,0-0.4,0-0.4C11,15.2,10.8,15.5,10.8,15.5z"/>
	<path fill="#A9CDA6" d="M10.8,15.6c0,0,0.1,0.1,0.1,0.2l-0.1,0l-0.1,0C10.7,15.7,10.8,15.6,10.8,15.6z"/>
	<path fill="#A9CDA6" d="M11.8,15.1l-0.2,0.2c0,0-0.1,0.1-0.2,0.3l0,0.1c0,0-0.1,0-0.2,0c0,0,0.1-0.1,0.1-0.3c0,0,0-0.5,0.3-0.6
		c0,0,0.2-0.1,0.1,0c0,0-0.1,0.2-0.2,0.4C11.5,15.3,11.6,15.1,11.8,15.1z"/>
	<path fill="#A9CDA6" d="M12.8,15.6L12.8,15.6l-0.2,0.3c0,0-0.1,0-0.1,0l0,0l0,0l0-0.1l0.2-0.2C12.7,15.6,12.7,15.6,12.8,15.6
		L12.8,15.6L12.8,15.6z"/>
	<path fill="#A9CDA6" d="M10.1,15.4l0.1,0.3l0,0.1l0,0c0,0,0,0-0.1,0c0,0-0.1,0-0.1,0L10,15.5v-0.1l0,0L10.1,15.4
		C10.1,15.3,10.1,15.3,10.1,15.4z"/>
	<path fill="#A9CDA6" d="M12.1,15.3L12.1,15.3L12.1,15.3l0.1,0.1l-0.1,0.3c0,0,0,0.1-0.1,0c0,0,0,0-0.1,0l0,0l0-0.1L12.1,15.3
		C12,15.3,12.1,15.3,12.1,15.3z"/>
</g>
<g id="roughgrass_x5F_bd_30_" enable-background="new    ">
	<path fill="#A9CDA6" d="M12.3,13.5L12.3,13.5L12.3,13.5l-0.1,0.1c0,0-0.1,0-0.1,0L12,13.4l0-0.1l0,0l0,0c0,0,0.1,0,0.1,0L12.3,13.5
		z"/>
	<path fill="#A9CDA6" d="M13.5,13.3C13.5,13.3,13.5,13.3,13.5,13.3C13.4,13.3,13.4,13.3,13.5,13.3c-0.1-0.1-0.2-0.2-0.2-0.2
		c0-0.1,0.1-0.3,0.1-0.3c0-0.1,0-0.4,0-0.4C13.7,12.9,13.5,13.3,13.5,13.3z"/>
	<path fill="#A9CDA6" d="M13.5,13.3c0,0,0.1,0.1,0.1,0.2l-0.1,0l-0.1,0C13.4,13.4,13.4,13.3,13.5,13.3z"/>
	<path fill="#A9CDA6" d="M14.5,12.8l-0.2,0.2c0,0-0.1,0.1-0.2,0.3l0,0.1c0,0-0.1,0-0.2,0c0,0,0.1-0.1,0.1-0.3c0,0,0-0.5,0.3-0.6
		c0,0,0.2-0.1,0.1,0c0,0-0.1,0.2-0.2,0.4C14.1,13,14.3,12.8,14.5,12.8z"/>
	<path fill="#A9CDA6" d="M15.5,13.4L15.5,13.4l-0.2,0.3c0,0-0.1,0-0.1,0l0,0l0,0l0-0.1l0.2-0.2C15.4,13.3,15.4,13.3,15.5,13.4
		L15.5,13.4L15.5,13.4z"/>
	<path fill="#A9CDA6" d="M12.8,13.1l0.1,0.3l0,0.1l0,0c0,0,0,0-0.1,0c0,0-0.1,0-0.1,0l-0.1-0.3v-0.1l0,0L12.8,13.1
		C12.8,13,12.8,13.1,12.8,13.1z"/>
	<path fill="#A9CDA6" d="M14.8,13.1L14.8,13.1L14.8,13.1l0.1,0.1l-0.1,0.3c0,0,0,0.1-0.1,0c0,0,0,0-0.1,0l0,0l0-0.1L14.8,13.1
		C14.7,13.1,14.8,13,14.8,13.1z"/>
</g>
<g id="roughgrass_x5F_bd_31_" enable-background="new    ">
	<path fill="#A9CDA6" d="M7.9,12.8L7.9,12.8L7.9,12.8l-0.1,0.1c0,0-0.1,0-0.1,0l-0.2-0.2l0-0.1l0,0l0,0c0,0,0.1,0,0.1,0L7.9,12.8z"
		/>
	<path fill="#A9CDA6" d="M9,12.5C9,12.5,9,12.5,9,12.5C9,12.5,9,12.5,9,12.5c-0.1-0.1-0.2-0.2-0.2-0.2c0-0.1,0.1-0.3,0.1-0.3
		c0-0.1,0-0.4,0-0.4C9.3,12.1,9,12.5,9,12.5z"/>
	<path fill="#A9CDA6" d="M9,12.5c0,0,0.1,0.1,0.1,0.2l-0.1,0l-0.1,0C9,12.6,9,12.6,9,12.5z"/>
	<path fill="#A9CDA6" d="M10.1,12.1l-0.2,0.2c0,0-0.1,0.1-0.2,0.3l0,0.1c0,0-0.1,0-0.2,0c0,0,0.1-0.1,0.1-0.3c0,0,0-0.5,0.3-0.6
		c0,0,0.2-0.1,0.1,0c0,0-0.1,0.2-0.2,0.4C9.7,12.3,9.9,12.1,10.1,12.1z"/>
	<path fill="#A9CDA6" d="M11.1,12.6L11.1,12.6l-0.2,0.3c0,0-0.1,0-0.1,0l0,0l0,0l0-0.1l0.2-0.2C10.9,12.5,11,12.5,11.1,12.6
		L11.1,12.6L11.1,12.6z"/>
	<path fill="#A9CDA6" d="M8.4,12.3l0.1,0.3l0,0.1l0,0c0,0,0,0-0.1,0c0,0-0.1,0-0.1,0l-0.1-0.3v-0.1l0,0L8.4,12.3
		C8.3,12.3,8.4,12.3,8.4,12.3z"/>
	<path fill="#A9CDA6" d="M10.4,12.3L10.4,12.3L10.4,12.3l0.1,0.1l-0.1,0.3c0,0,0,0.1-0.1,0c0,0,0,0-0.1,0l0,0l0-0.1L10.4,12.3
		C10.3,12.3,10.3,12.3,10.4,12.3z"/>
</g>
<g id="roughgrass_x5F_bd_13_" enable-background="new    ">
	<path fill="#A9CDA6" d="M24.9,6L24.9,6L24.9,6l-0.1,0.1c0,0-0.1,0-0.1,0l-0.2-0.2l0-0.1l0,0l0,0c0,0,0.1,0,0.1,0L24.9,6z"/>
	<path fill="#A9CDA6" d="M26.1,5.8C26.1,5.8,26.1,5.8,26.1,5.8C26.1,5.8,26.1,5.7,26.1,5.8c-0.1-0.1-0.2-0.2-0.2-0.2
		c0-0.1,0.1-0.3,0.1-0.3c0-0.1,0-0.4,0-0.4C26.3,5.4,26.1,5.8,26.1,5.8z"/>
	<path fill="#A9CDA6" d="M26.1,5.8c0,0,0.1,0.1,0.1,0.2l-0.1,0L26,6C26,5.9,26,5.8,26.1,5.8z"/>
	<path fill="#A9CDA6" d="M27.1,5.3l-0.2,0.2c0,0-0.1,0.1-0.2,0.3l0,0.1c0,0-0.1,0-0.2,0c0,0,0.1-0.1,0.1-0.3c0,0,0-0.5,0.3-0.6
		c0,0,0.2-0.1,0.1,0c0,0-0.1,0.2-0.2,0.4C26.8,5.5,26.9,5.3,27.1,5.3z"/>
	<path fill="#A9CDA6" d="M28.1,5.8L28.1,5.8L28,6.1c0,0-0.1,0-0.1,0l0,0l0,0l0-0.1L28,5.8C28,5.8,28,5.8,28.1,5.8L28.1,5.8L28.1,5.8
		z"/>
	<path fill="#A9CDA6" d="M25.4,5.6l0.1,0.3l0,0.1l0,0c0,0,0,0-0.1,0c0,0-0.1,0-0.1,0l-0.1-0.3V5.6l0,0L25.4,5.6
		C25.4,5.5,25.4,5.5,25.4,5.6z"/>
	<path fill="#A9CDA6" d="M27.4,5.5L27.4,5.5L27.4,5.5l0.1,0.1L27.4,6c0,0,0,0.1-0.1,0c0,0,0,0-0.1,0l0,0l0-0.1L27.4,5.5
		C27.3,5.5,27.4,5.5,27.4,5.5z"/>
</g>
<g id="roughgrass_x5F_bd_12_" enable-background="new    ">
	<path fill="#A9CDA6" d="M27.6,3.8L27.6,3.8L27.6,3.8l-0.1,0.1c0,0-0.1,0-0.1,0l-0.2-0.2l0-0.1l0,0l0,0c0,0,0.1,0,0.1,0L27.6,3.8z"
		/>
	<path fill="#A9CDA6" d="M28.7,3.5C28.7,3.5,28.7,3.5,28.7,3.5C28.7,3.5,28.7,3.5,28.7,3.5c-0.1-0.1-0.2-0.2-0.2-0.2
		c0-0.1,0.1-0.3,0.1-0.3c0-0.1,0-0.4,0-0.4C29,3.1,28.7,3.5,28.7,3.5z"/>
	<path fill="#A9CDA6" d="M28.7,3.5c0,0,0.1,0.1,0.1,0.2l-0.1,0l-0.1,0C28.7,3.6,28.7,3.6,28.7,3.5z"/>
	<path fill="#A9CDA6" d="M29.8,3.1l-0.2,0.2c0,0-0.1,0.1-0.2,0.3l0,0.1c0,0-0.1,0-0.2,0c0,0,0.1-0.1,0.1-0.3c0,0,0-0.5,0.3-0.6
		c0,0,0.2-0.1,0.1,0c0,0-0.1,0.2-0.2,0.4C29.4,3.2,29.6,3,29.8,3.1z"/>
	<path fill="#A9CDA6" d="M30.8,3.6L30.8,3.6l-0.2,0.3c0,0-0.1,0-0.1,0l0,0l0,0l0-0.1l0.2-0.2C30.6,3.5,30.7,3.5,30.8,3.6L30.8,3.6
		L30.8,3.6z"/>
	<path fill="#A9CDA6" d="M28.1,3.3l0.1,0.3l0,0.1l0,0c0,0,0,0-0.1,0c0,0-0.1,0-0.1,0l-0.1-0.3V3.3l0,0L28.1,3.3
		C28.1,3.3,28.1,3.3,28.1,3.3z"/>
	<path fill="#A9CDA6" d="M30.1,3.3L30.1,3.3L30.1,3.3l0.1,0.1l-0.1,0.3c0,0,0,0.1-0.1,0c0,0,0,0-0.1,0l0,0l0-0.1L30.1,3.3
		C30,3.3,30,3.3,30.1,3.3z"/>
</g>
<g id="roughgrass_x5F_bd_14_" enable-background="new    ">
	<path fill="#A9CDA6" d="M23.2,3L23.2,3L23.2,3l-0.1,0.1c0,0-0.1,0-0.1,0l-0.2-0.2l0-0.1l0,0l0,0c0,0,0.1,0,0.1,0L23.2,3z"/>
	<path fill="#A9CDA6" d="M24.3,2.7C24.3,2.7,24.3,2.7,24.3,2.7C24.3,2.7,24.3,2.7,24.3,2.7c-0.1-0.1-0.2-0.2-0.2-0.2
		c0-0.1,0.1-0.3,0.1-0.3c0-0.1,0-0.4,0-0.4C24.6,2.3,24.3,2.7,24.3,2.7z"/>
	<path fill="#A9CDA6" d="M24.3,2.7c0,0,0.1,0.1,0.1,0.2l-0.1,0l-0.1,0C24.3,2.9,24.3,2.8,24.3,2.7z"/>
	<path fill="#A9CDA6" d="M25.4,2.3l-0.2,0.2c0,0-0.1,0.1-0.2,0.3l0,0.1c0,0-0.1,0-0.2,0c0,0,0.1-0.1,0.1-0.3c0,0,0-0.5,0.3-0.6
		c0,0,0.2-0.1,0.1,0c0,0-0.1,0.2-0.2,0.4C25,2.5,25.2,2.3,25.4,2.3z"/>
	<path fill="#A9CDA6" d="M26.4,2.8L26.4,2.8l-0.2,0.3c0,0-0.1,0-0.1,0l0,0l0,0L26,3l0.2-0.2C26.2,2.7,26.3,2.7,26.4,2.8L26.4,2.8
		L26.4,2.8z"/>
	<path fill="#A9CDA6" d="M23.7,2.6l0.1,0.3l0,0.1l0,0c0,0,0,0-0.1,0c0,0-0.1,0-0.1,0l-0.1-0.3V2.6l0,0L23.7,2.6
		C23.6,2.5,23.7,2.5,23.7,2.6z"/>
	<path fill="#A9CDA6" d="M25.6,2.5L25.6,2.5L25.6,2.5l0.1,0.1L25.6,3c0,0,0,0.1-0.1,0c0,0,0,0-0.1,0l0,0l0-0.1L25.6,2.5
		C25.6,2.5,25.6,2.5,25.6,2.5z"/>
</g>
<g id="roughgrass_x5F_bd_6_" enable-background="new    ">
	<path fill="#A9CDA6" d="M36.1,14.1L36.1,14.1L36.1,14.1L36,14.2c0,0-0.1,0-0.1,0L35.8,14l0-0.1l0,0l0,0c0,0,0.1,0,0.1,0L36.1,14.1z
		"/>
	<path fill="#A9CDA6" d="M37.3,13.8C37.3,13.8,37.3,13.8,37.3,13.8C37.2,13.8,37.2,13.8,37.3,13.8c-0.1-0.1-0.2-0.2-0.2-0.2
		c0-0.1,0.1-0.3,0.1-0.3c0-0.1,0-0.4,0-0.4C37.5,13.4,37.3,13.8,37.3,13.8z"/>
	<path fill="#A9CDA6" d="M37.3,13.8c0,0,0.1,0.1,0.1,0.2l-0.1,0l-0.1,0C37.2,13.9,37.2,13.9,37.3,13.8z"/>
	<path fill="#A9CDA6" d="M38.3,13.4l-0.2,0.2c0,0-0.1,0.1-0.2,0.3l0,0.1c0,0-0.1,0-0.2,0c0,0,0.1-0.1,0.1-0.3c0,0,0-0.5,0.3-0.6
		c0,0,0.2-0.1,0.1,0c0,0-0.1,0.2-0.2,0.4C37.9,13.6,38.1,13.4,38.3,13.4z"/>
	<path fill="#A9CDA6" d="M39.3,13.9L39.3,13.9l-0.2,0.3c0,0-0.1,0-0.1,0l0,0l0,0l0-0.1l0.2-0.2C39.2,13.8,39.2,13.8,39.3,13.9
		L39.3,13.9L39.3,13.9z"/>
	<path fill="#A9CDA6" d="M36.6,13.6l0.1,0.3l0,0.1l0,0c0,0,0,0-0.1,0c0,0-0.1,0-0.1,0l-0.1-0.3v-0.1l0,0L36.6,13.6
		C36.6,13.6,36.6,13.6,36.6,13.6z"/>
	<path fill="#A9CDA6" d="M38.6,13.6L38.6,13.6L38.6,13.6l0.1,0.1l-0.1,0.3c0,0,0,0.1-0.1,0c0,0,0,0-0.1,0l0,0l0-0.1L38.6,13.6
		C38.5,13.6,38.6,13.6,38.6,13.6z"/>
</g>
<g id="roughgrass_x5F_bd_7_" enable-background="new    ">
	<path fill="#A9CDA6" d="M38.8,11.8L38.8,11.8L38.8,11.8l-0.1,0.1c0,0-0.1,0-0.1,0l-0.2-0.2l0-0.1l0,0l0,0c0,0,0.1,0,0.1,0
		L38.8,11.8z"/>
	<path fill="#A9CDA6" d="M39.9,11.5C39.9,11.5,39.9,11.5,39.9,11.5C39.9,11.5,39.9,11.5,39.9,11.5c-0.1-0.1-0.2-0.2-0.2-0.2
		c0-0.1,0.1-0.3,0.1-0.3c0-0.1,0-0.4,0-0.4C40.2,11.1,39.9,11.5,39.9,11.5z"/>
	<path fill="#A9CDA6" d="M39.9,11.5c0,0,0.1,0.1,0.1,0.2l-0.1,0l-0.1,0C39.9,11.7,39.9,11.6,39.9,11.5z"/>
	<path fill="#A9CDA6" d="M41,11.1l-0.2,0.2c0,0-0.1,0.1-0.2,0.3l0,0.1c0,0-0.1,0-0.2,0c0,0,0.1-0.1,0.1-0.3c0,0,0-0.5,0.3-0.6
		c0,0,0.2-0.1,0.1,0c0,0-0.1,0.2-0.2,0.4C40.6,11.3,40.8,11.1,41,11.1z"/>
	<path fill="#A9CDA6" d="M42,11.6L42,11.6l-0.2,0.3c0,0-0.1,0-0.1,0l0,0l0,0l0-0.1l0.2-0.2C41.8,11.6,41.9,11.5,42,11.6L42,11.6
		L42,11.6z"/>
	<path fill="#A9CDA6" d="M39.3,11.4l0.1,0.3l0,0.1l0,0c0,0,0,0-0.1,0c0,0-0.1,0-0.1,0l-0.1-0.3v-0.1l0,0L39.3,11.4
		C39.2,11.3,39.3,11.3,39.3,11.4z"/>
	<path fill="#A9CDA6" d="M41.3,11.3L41.3,11.3L41.3,11.3l0.1,0.1l-0.1,0.3c0,0,0,0.1-0.1,0c0,0,0,0-0.1,0l0,0l0-0.1L41.3,11.3
		C41.2,11.3,41.2,11.3,41.3,11.3z"/>
</g>
<g id="roughgrass_x5F_bd_8_" enable-background="new    ">
	<path fill="#A9CDA6" d="M34.4,11L34.4,11L34.4,11l-0.1,0.1c0,0-0.1,0-0.1,0L34,10.9l0-0.1l0,0l0,0c0,0,0.1,0,0.1,0L34.4,11z"/>
	<path fill="#A9CDA6" d="M35.5,10.8C35.5,10.8,35.5,10.8,35.5,10.8C35.5,10.8,35.5,10.8,35.5,10.8c-0.1-0.1-0.2-0.2-0.2-0.2
		c0-0.1,0.1-0.3,0.1-0.3c0-0.1,0-0.4,0-0.4C35.7,10.4,35.5,10.8,35.5,10.8z"/>
	<path fill="#A9CDA6" d="M35.5,10.8c0,0,0.1,0.1,0.1,0.2l-0.1,0l-0.1,0C35.4,10.9,35.5,10.8,35.5,10.8z"/>
	<path fill="#A9CDA6" d="M36.6,10.3l-0.2,0.2c0,0-0.1,0.1-0.2,0.3l0,0.1c0,0-0.1,0-0.2,0c0,0,0.1-0.1,0.1-0.3c0,0,0-0.5,0.3-0.6
		c0,0,0.2-0.1,0.1,0c0,0-0.1,0.2-0.2,0.4C36.2,10.5,36.3,10.3,36.6,10.3z"/>
	<path fill="#A9CDA6" d="M37.5,10.9L37.5,10.9l-0.2,0.3c0,0-0.1,0-0.1,0l0,0l0,0l0-0.1l0.2-0.2C37.4,10.8,37.4,10.8,37.5,10.9
		L37.5,10.9L37.5,10.9z"/>
	<path fill="#A9CDA6" d="M34.9,10.6l0.1,0.3l0,0.1l0,0c0,0,0,0-0.1,0c0,0-0.1,0-0.1,0l-0.1-0.3v-0.1l0,0L34.9,10.6
		C34.8,10.5,34.8,10.6,34.9,10.6z"/>
	<path fill="#A9CDA6" d="M36.8,10.6L36.8,10.6L36.8,10.6l0.1,0.1L36.8,11c0,0,0,0.1-0.1,0c0,0,0,0-0.1,0l0,0l0-0.1L36.8,10.6
		C36.8,10.6,36.8,10.5,36.8,10.6z"/>
</g>
<g id="roughgrass_x5F_bd_9_" enable-background="new    ">
	<path fill="#A9CDA6" d="M41.6,5.7L41.6,5.7L41.6,5.7l-0.1,0.1c0,0-0.1,0-0.1,0l-0.2-0.2l0-0.1l0,0l0,0c0,0,0.1,0,0.1,0L41.6,5.7z"
		/>
	<path fill="#A9CDA6" d="M42.8,5.4C42.8,5.4,42.8,5.4,42.8,5.4C42.8,5.4,42.7,5.4,42.8,5.4c-0.1-0.1-0.2-0.2-0.2-0.2
		c0-0.1,0.1-0.3,0.1-0.3c0-0.1,0-0.4,0-0.4C43,5,42.8,5.4,42.8,5.4z"/>
	<path fill="#A9CDA6" d="M42.8,5.4c0,0,0.1,0.1,0.1,0.2l-0.1,0l-0.1,0C42.7,5.5,42.7,5.5,42.8,5.4z"/>
	<path fill="#A9CDA6" d="M43.8,5l-0.2,0.2c0,0-0.1,0.1-0.2,0.3l0,0.1c0,0-0.1,0-0.2,0c0,0,0.1-0.1,0.1-0.3c0,0,0-0.5,0.3-0.6
		c0,0,0.2-0.1,0.1,0c0,0-0.1,0.2-0.2,0.4C43.5,5.2,43.6,5,43.8,5z"/>
	<path fill="#A9CDA6" d="M44.8,5.5L44.8,5.5l-0.2,0.3c0,0-0.1,0-0.1,0l0,0l0,0l0-0.1l0.2-0.2C44.7,5.4,44.7,5.4,44.8,5.5L44.8,5.5
		L44.8,5.5z"/>
	<path fill="#A9CDA6" d="M42.1,5.3l0.1,0.3l0,0.1l0,0c0,0,0,0-0.1,0c0,0-0.1,0-0.1,0l-0.1-0.3V5.3l0,0L42.1,5.3
		C42.1,5.2,42.1,5.2,42.1,5.3z"/>
	<path fill="#A9CDA6" d="M44.1,5.2L44.1,5.2L44.1,5.2l0.1,0.1l-0.1,0.3c0,0,0,0.1-0.1,0c0,0,0,0-0.1,0l0,0l0-0.1L44.1,5.2
		C44,5.2,44.1,5.2,44.1,5.2z"/>
</g>
<g id="roughgrass_x5F_bd_10_" enable-background="new    ">
	<path fill="#A9CDA6" d="M44.3,3.4L44.3,3.4L44.3,3.4l-0.1,0.1c0,0-0.1,0-0.1,0L44,3.3l0-0.1l0,0l0,0c0,0,0.1,0,0.1,0L44.3,3.4z"/>
	<path fill="#A9CDA6" d="M45.4,3.1C45.4,3.2,45.4,3.2,45.4,3.1C45.4,3.1,45.4,3.1,45.4,3.1C45.4,3.1,45.3,3,45.3,3
		c0-0.1,0.1-0.3,0.1-0.3c0-0.1,0-0.4,0-0.4C45.7,2.8,45.4,3.1,45.4,3.1z"/>
	<path fill="#A9CDA6" d="M45.4,3.2c0,0,0.1,0.1,0.1,0.2l-0.1,0l-0.1,0C45.4,3.3,45.4,3.2,45.4,3.2z"/>
	<path fill="#A9CDA6" d="M46.5,2.7l-0.2,0.2c0,0-0.1,0.1-0.2,0.3l0,0.1c0,0-0.1,0-0.2,0c0,0,0.1-0.1,0.1-0.3c0,0,0-0.5,0.3-0.6
		c0,0,0.2-0.1,0.1,0c0,0-0.1,0.2-0.2,0.4C46.1,2.9,46.3,2.7,46.5,2.7z"/>
	<path fill="#A9CDA6" d="M47.5,3.2L47.5,3.2l-0.2,0.3c0,0-0.1,0-0.1,0l0,0l0,0l0-0.1l0.2-0.2C47.3,3.2,47.4,3.2,47.5,3.2L47.5,3.2
		L47.5,3.2z"/>
	<path fill="#A9CDA6" d="M44.8,3l0.1,0.3l0,0.1l0,0c0,0,0,0-0.1,0c0,0-0.1,0-0.1,0l-0.1-0.3V3l0,0L44.8,3C44.7,2.9,44.8,2.9,44.8,3z
		"/>
	<path fill="#A9CDA6" d="M46.8,2.9L46.8,2.9L46.8,2.9l0.1,0.1l-0.1,0.3c0,0,0,0.1-0.1,0c0,0,0,0-0.1,0l0,0l0-0.1L46.8,2.9
		C46.7,2.9,46.7,2.9,46.8,2.9z"/>
</g>
<g id="roughgrass_x5F_bd_11_" enable-background="new    ">
	<path fill="#A9CDA6" d="M39.9,2.7L39.9,2.7L39.9,2.7l-0.1,0.1c0,0-0.1,0-0.1,0l-0.2-0.2l0-0.1l0,0l0,0c0,0,0.1,0,0.1,0L39.9,2.7z"
		/>
	<path fill="#A9CDA6" d="M41,2.4C41,2.4,41,2.4,41,2.4C41,2.4,41,2.4,41,2.4c-0.1-0.1-0.2-0.2-0.2-0.2c0-0.1,0.1-0.3,0.1-0.3
		c0-0.1,0-0.4,0-0.4C41.3,2,41,2.4,41,2.4z"/>
	<path fill="#A9CDA6" d="M41,2.4c0,0,0.1,0.1,0.1,0.2l-0.1,0l-0.1,0C41,2.5,41,2.5,41,2.4z"/>
	<path fill="#A9CDA6" d="M42.1,2l-0.2,0.2c0,0-0.1,0.1-0.2,0.3l0,0.1c0,0-0.1,0-0.2,0c0,0,0.1-0.1,0.1-0.3c0,0,0-0.5,0.3-0.6
		c0,0,0.2-0.1,0.1,0c0,0-0.1,0.2-0.2,0.4C41.7,2.1,41.9,1.9,42.1,2z"/>
	<path fill="#A9CDA6" d="M43.1,2.5L43.1,2.5l-0.2,0.3c0,0-0.1,0-0.1,0l0,0l0,0l0-0.1l0.2-0.2C42.9,2.4,43,2.4,43.1,2.5L43.1,2.5
		L43.1,2.5z"/>
	<path fill="#A9CDA6" d="M40.4,2.2l0.1,0.3l0,0.1l0,0c0,0,0,0-0.1,0c0,0-0.1,0-0.1,0l-0.1-0.3V2.2l0,0L40.4,2.2
		C40.3,2.2,40.4,2.2,40.4,2.2z"/>
	<path fill="#A9CDA6" d="M42.3,2.2L42.3,2.2L42.3,2.2l0.1,0.1l-0.1,0.3c0,0,0,0.1-0.1,0c0,0,0,0-0.1,0l0,0l0-0.1L42.3,2.2
		C42.3,2.2,42.3,2.2,42.3,2.2z"/>
</g>
<g id="roughgrass_x5F_bd_3_" enable-background="new    ">
	<path fill="#A9CDA6" d="M36.6,24L36.6,24L36.6,24l-0.1,0.1c0,0-0.1,0-0.1,0l-0.2-0.2l0-0.1l0,0l0,0c0,0,0.1,0,0.1,0L36.6,24z"/>
	<path fill="#A9CDA6" d="M37.8,23.7C37.8,23.7,37.8,23.7,37.8,23.7C37.7,23.7,37.7,23.7,37.8,23.7c-0.1-0.1-0.2-0.2-0.2-0.2
		c0-0.1,0.1-0.3,0.1-0.3c0-0.1,0-0.4,0-0.4C38,23.3,37.8,23.7,37.8,23.7z"/>
	<path fill="#A9CDA6" d="M37.8,23.7c0,0,0.1,0.1,0.1,0.2l-0.1,0l-0.1,0C37.7,23.8,37.7,23.8,37.8,23.7z"/>
	<path fill="#A9CDA6" d="M38.8,23.3l-0.2,0.2c0,0-0.1,0.1-0.2,0.3l0,0.1c0,0-0.1,0-0.2,0c0,0,0.1-0.1,0.1-0.3c0,0,0-0.5,0.3-0.6
		c0,0,0.2-0.1,0.1,0c0,0-0.1,0.2-0.2,0.4C38.4,23.4,38.6,23.2,38.8,23.3z"/>
	<path fill="#A9CDA6" d="M39.8,23.8L39.8,23.8l-0.2,0.3c0,0-0.1,0-0.1,0l0,0l0,0l0-0.1l0.2-0.2C39.7,23.7,39.7,23.7,39.8,23.8
		L39.8,23.8L39.8,23.8z"/>
	<path fill="#A9CDA6" d="M37.1,23.5l0.1,0.3l0,0.1l0,0c0,0,0,0-0.1,0c0,0-0.1,0-0.1,0l-0.1-0.3v-0.1l0,0L37.1,23.5
		C37.1,23.5,37.1,23.5,37.1,23.5z"/>
	<path fill="#A9CDA6" d="M39.1,23.5L39.1,23.5L39.1,23.5l0.1,0.1l-0.1,0.3c0,0,0,0.1-0.1,0c0,0,0,0-0.1,0l0,0l0-0.1L39.1,23.5
		C39,23.5,39,23.5,39.1,23.5z"/>
</g>
<g id="roughgrass_x5F_bd_4_" enable-background="new    ">
	<path fill="#A9CDA6" d="M39.3,21.7L39.3,21.7L39.3,21.7l-0.1,0.1c0,0-0.1,0-0.1,0L39,21.6l0-0.1l0,0l0,0c0,0,0.1,0,0.1,0L39.3,21.7
		z"/>
	<path fill="#A9CDA6" d="M40.4,21.4C40.4,21.4,40.4,21.4,40.4,21.4C40.4,21.4,40.4,21.4,40.4,21.4c-0.1-0.1-0.2-0.2-0.2-0.2
		c0-0.1,0.1-0.3,0.1-0.3c0-0.1,0-0.4,0-0.4C40.7,21,40.4,21.4,40.4,21.4z"/>
	<path fill="#A9CDA6" d="M40.4,21.4c0,0,0.1,0.1,0.1,0.2l-0.1,0l-0.1,0C40.4,21.5,40.4,21.5,40.4,21.4z"/>
	<path fill="#A9CDA6" d="M41.5,21l-0.2,0.2c0,0-0.1,0.1-0.2,0.3l0,0.1c0,0-0.1,0-0.2,0c0,0,0.1-0.1,0.1-0.3c0,0,0-0.5,0.3-0.6
		c0,0,0.2-0.1,0.1,0c0,0-0.1,0.2-0.2,0.4C41.1,21.2,41.3,21,41.5,21z"/>
	<path fill="#A9CDA6" d="M42.5,21.5L42.5,21.5l-0.2,0.3c0,0-0.1,0-0.1,0l0,0l0,0l0-0.1l0.2-0.2C42.3,21.4,42.4,21.4,42.5,21.5
		L42.5,21.5L42.5,21.5z"/>
	<path fill="#A9CDA6" d="M39.8,21.2l0.1,0.3l0,0.1l0,0c0,0,0,0-0.1,0c0,0-0.1,0-0.1,0l-0.1-0.3v-0.1l0,0L39.8,21.2
		C39.7,21.2,39.8,21.2,39.8,21.2z"/>
	<path fill="#A9CDA6" d="M41.8,21.2L41.8,21.2L41.8,21.2l0.1,0.1l-0.1,0.3c0,0,0,0.1-0.1,0c0,0,0,0-0.1,0l0,0l0-0.1L41.8,21.2
		C41.7,21.2,41.7,21.2,41.8,21.2z"/>
</g>
<g id="roughgrass_x5F_bd_5_" enable-background="new    ">
	<path fill="#A9CDA6" d="M34.9,20.9L34.9,20.9L34.9,20.9L34.8,21c0,0-0.1,0-0.1,0l-0.2-0.2l0-0.1l0,0l0,0c0,0,0.1,0,0.1,0L34.9,20.9
		z"/>
	<path fill="#A9CDA6" d="M36,20.6C36,20.7,36,20.7,36,20.6C36,20.6,36,20.6,36,20.6c-0.1-0.1-0.2-0.2-0.2-0.2c0-0.1,0.1-0.3,0.1-0.3
		c0-0.1,0-0.4,0-0.4C36.2,20.3,36,20.6,36,20.6z"/>
	<path fill="#A9CDA6" d="M36,20.7c0,0,0.1,0.1,0.1,0.2l-0.1,0l-0.1,0C35.9,20.8,36,20.7,36,20.7z"/>
	<path fill="#A9CDA6" d="M37.1,20.2l-0.2,0.2c0,0-0.1,0.1-0.2,0.3l0,0.1c0,0-0.1,0-0.2,0c0,0,0.1-0.1,0.1-0.3c0,0,0-0.5,0.3-0.6
		c0,0,0.2-0.1,0.1,0c0,0-0.1,0.2-0.2,0.4C36.7,20.4,36.8,20.2,37.1,20.2z"/>
	<path fill="#A9CDA6" d="M38,20.7L38,20.7L37.9,21c0,0-0.1,0-0.1,0l0,0l0,0l0-0.1l0.2-0.2C37.9,20.7,37.9,20.7,38,20.7L38,20.7
		L38,20.7z"/>
	<path fill="#A9CDA6" d="M35.4,20.5l0.1,0.3l0,0.1l0,0c0,0,0,0-0.1,0c0,0-0.1,0-0.1,0l-0.1-0.3v-0.1l0,0L35.4,20.5
		C35.3,20.4,35.3,20.4,35.4,20.5z"/>
	<path fill="#A9CDA6" d="M37.3,20.4L37.3,20.4L37.3,20.4l0.1,0.1l-0.1,0.3c0,0,0,0.1-0.1,0c0,0,0,0-0.1,0l0,0l0-0.1L37.3,20.4
		C37.3,20.4,37.3,20.4,37.3,20.4z"/>
</g>
<g id="roughgrass_x5F_bd_1_" enable-background="new    ">
	<path fill="#A9CDA6" d="M41.9,35.9L41.9,35.9L41.9,35.9L41.8,36c0,0-0.1,0-0.1,0l-0.2-0.2l0-0.1l0,0l0,0c0,0,0.1,0,0.1,0L41.9,35.9
		z"/>
	<path fill="#A9CDA6" d="M43,35.6C43,35.6,43,35.6,43,35.6C43,35.6,43,35.6,43,35.6c-0.1-0.1-0.2-0.2-0.2-0.2c0-0.1,0.1-0.3,0.1-0.3
		c0-0.1,0-0.4,0-0.4C43.3,35.2,43,35.6,43,35.6z"/>
	<path fill="#A9CDA6" d="M43,35.6c0,0,0.1,0.1,0.1,0.2l-0.1,0l-0.1,0C43,35.7,43,35.7,43,35.6z"/>
	<path fill="#A9CDA6" d="M44.1,35.2l-0.2,0.2c0,0-0.1,0.1-0.2,0.3l0,0.1c0,0-0.1,0-0.2,0c0,0,0.1-0.1,0.1-0.3c0,0,0-0.5,0.3-0.6
		c0,0,0.2-0.1,0.1,0c0,0-0.1,0.2-0.2,0.4C43.7,35.3,43.9,35.1,44.1,35.2z"/>
	<path fill="#A9CDA6" d="M45.1,35.7L45.1,35.7L44.9,36c0,0-0.1,0-0.1,0l0,0l0,0l0-0.1l0.2-0.2C44.9,35.6,45,35.6,45.1,35.7
		L45.1,35.7L45.1,35.7z"/>
	<path fill="#A9CDA6" d="M42.4,35.4l0.1,0.3l0,0.1l0,0c0,0,0,0-0.1,0c0,0-0.1,0-0.1,0l-0.1-0.3v-0.1l0,0L42.4,35.4
		C42.3,35.4,42.4,35.4,42.4,35.4z"/>
	<path fill="#A9CDA6" d="M44.4,35.4L44.4,35.4L44.4,35.4l0.1,0.1l-0.1,0.3c0,0,0,0.1-0.1,0c0,0,0,0-0.1,0l0,0l0-0.1L44.4,35.4
		C44.3,35.4,44.3,35.4,44.4,35.4z"/>
</g>
<g id="roughgrass_x5F_bd_32_" enable-background="new    ">
	<path fill="#A9CDA6" d="M44.6,33.6L44.6,33.6L44.6,33.6l-0.1,0.1c0,0-0.1,0-0.1,0l-0.2-0.2l0-0.1l0,0l0,0c0,0,0.1,0,0.1,0
		L44.6,33.6z"/>
	<path fill="#A9CDA6" d="M45.7,33.3C45.7,33.3,45.7,33.3,45.7,33.3C45.7,33.3,45.7,33.3,45.7,33.3c-0.1-0.1-0.2-0.2-0.2-0.2
		c0-0.1,0.1-0.3,0.1-0.3c0-0.1,0-0.4,0-0.4C45.9,32.9,45.7,33.3,45.7,33.3z"/>
	<path fill="#A9CDA6" d="M45.7,33.3c0,0,0.1,0.1,0.1,0.2l-0.1,0l-0.1,0C45.6,33.4,45.7,33.4,45.7,33.3z"/>
	<path fill="#A9CDA6" d="M46.7,32.9l-0.2,0.2c0,0-0.1,0.1-0.2,0.3l0,0.1c0,0-0.1,0-0.2,0c0,0,0.1-0.1,0.1-0.3c0,0,0-0.5,0.3-0.6
		c0,0,0.2-0.1,0.1,0c0,0-0.1,0.2-0.2,0.4C46.4,33.1,46.5,32.9,46.7,32.9z"/>
	<path fill="#A9CDA6" d="M47.7,33.4L47.7,33.4l-0.2,0.3c0,0-0.1,0-0.1,0l0,0l0,0l0-0.1l0.2-0.2C47.6,33.3,47.6,33.3,47.7,33.4
		L47.7,33.4L47.7,33.4z"/>
	<path fill="#A9CDA6" d="M45,33.1l0.1,0.3l0,0.1l0,0c0,0,0,0-0.1,0c0,0-0.1,0-0.1,0l-0.1-0.3v-0.1l0,0L45,33.1
		C45,33.1,45,33.1,45,33.1z"/>
	<path fill="#A9CDA6" d="M47,33.1L47,33.1L47,33.1l0.1,0.1L47,33.6c0,0,0,0.1-0.1,0c0,0,0,0-0.1,0l0,0l0-0.1L47,33.1
		C46.9,33.1,47,33.1,47,33.1z"/>
</g>
<g id="roughgrass_x5F_bd_2_" enable-background="new    ">
	<path fill="#A9CDA6" d="M40.1,32.8L40.1,32.8L40.1,32.8l-0.1,0.1c0,0-0.1,0-0.1,0l-0.2-0.2l0-0.1l0,0l0,0c0,0,0.1,0,0.1,0
		L40.1,32.8z"/>
	<path fill="#A9CDA6" d="M41.3,32.6C41.3,32.6,41.3,32.6,41.3,32.6C41.3,32.5,41.2,32.5,41.3,32.6c-0.1-0.1-0.2-0.2-0.2-0.2
		c0-0.1,0.1-0.3,0.1-0.3c0-0.1,0-0.4,0-0.4C41.5,32.2,41.3,32.6,41.3,32.6z"/>
	<path fill="#A9CDA6" d="M41.3,32.6c0,0,0.1,0.1,0.1,0.2l-0.1,0l-0.1,0C41.2,32.7,41.2,32.6,41.3,32.6z"/>
	<path fill="#A9CDA6" d="M42.3,32.1l-0.2,0.2c0,0-0.1,0.1-0.2,0.3l0,0.1c0,0-0.1,0-0.2,0c0,0,0.1-0.1,0.1-0.3c0,0,0-0.5,0.3-0.6
		c0,0,0.2-0.1,0.1,0c0,0-0.1,0.2-0.2,0.4C42,32.3,42.1,32.1,42.3,32.1z"/>
	<path fill="#A9CDA6" d="M43.3,32.6L43.3,32.6l-0.2,0.3c0,0-0.1,0-0.1,0l0,0l0,0l0-0.1l0.2-0.2C43.2,32.6,43.2,32.6,43.3,32.6
		L43.3,32.6L43.3,32.6z"/>
	<path fill="#A9CDA6" d="M40.6,32.4l0.1,0.3l0,0.1l0,0c0,0,0,0-0.1,0c0,0-0.1,0-0.1,0l-0.1-0.3v-0.1l0,0L40.6,32.4
		C40.6,32.3,40.6,32.3,40.6,32.4z"/>
	<path fill="#A9CDA6" d="M42.6,32.3L42.6,32.3L42.6,32.3l0.1,0.1l-0.1,0.3c0,0,0,0.1-0.1,0c0,0,0,0-0.1,0l0,0l0-0.1L42.6,32.3
		C42.5,32.3,42.6,32.3,42.6,32.3z"/>
</g>
<g id="roughgrass_x5F_bd_20_" enable-background="new    ">
	<path fill="#A9CDA6" d="M28.9,46.5L28.9,46.5L28.9,46.5l-0.1,0.1c0,0-0.1,0-0.1,0l-0.2-0.2l0-0.1l0,0l0,0c0,0,0.1,0,0.1,0
		L28.9,46.5z"/>
	<path fill="#A9CDA6" d="M30,46.2C30,46.2,30,46.2,30,46.2C30,46.2,30,46.2,30,46.2c-0.1-0.1-0.2-0.2-0.2-0.2c0-0.1,0.1-0.3,0.1-0.3
		c0-0.1,0-0.4,0-0.4C30.2,45.8,30,46.2,30,46.2z"/>
	<path fill="#A9CDA6" d="M30,46.2c0,0,0.1,0.1,0.1,0.2l-0.1,0l-0.1,0C29.9,46.3,30,46.3,30,46.2z"/>
	<path fill="#A9CDA6" d="M31,45.8L30.8,46c0,0-0.1,0.1-0.2,0.3l0,0.1c0,0-0.1,0-0.2,0c0,0,0.1-0.1,0.1-0.3c0,0,0-0.5,0.3-0.6
		c0,0,0.2-0.1,0.1,0c0,0-0.1,0.2-0.2,0.4C30.7,46,30.8,45.7,31,45.8z"/>
	<path fill="#A9CDA6" d="M32,46.3L32,46.3l-0.2,0.3c0,0-0.1,0-0.1,0l0,0l0,0l0-0.1l0.2-0.2C31.9,46.2,31.9,46.2,32,46.3L32,46.3
		L32,46.3z"/>
	<path fill="#A9CDA6" d="M29.4,46l0.1,0.3l0,0.1l0,0c0,0,0,0-0.1,0c0,0-0.1,0-0.1,0l-0.1-0.3V46l0,0L29.4,46
		C29.3,46,29.3,46,29.4,46z"/>
	<path fill="#A9CDA6" d="M31.3,46L31.3,46L31.3,46l0.1,0.1l-0.1,0.3c0,0,0,0.1-0.1,0c0,0,0,0-0.1,0l0,0l0-0.1L31.3,46
		C31.3,46,31.3,46,31.3,46z"/>
</g>
<g id="roughgrass_x5F_bd_19_" enable-background="new    ">
	<path fill="#A9CDA6" d="M31.5,44.2L31.5,44.2L31.5,44.2l-0.1,0.1c0,0-0.1,0-0.1,0l-0.2-0.2l0-0.1l0,0l0,0c0,0,0.1,0,0.1,0
		L31.5,44.2z"/>
	<path fill="#A9CDA6" d="M32.7,43.9C32.7,43.9,32.7,43.9,32.7,43.9C32.6,43.9,32.6,43.9,32.7,43.9c-0.1-0.1-0.2-0.2-0.2-0.2
		c0-0.1,0.1-0.3,0.1-0.3c0-0.1,0-0.4,0-0.4C32.9,43.5,32.7,43.9,32.7,43.9z"/>
	<path fill="#A9CDA6" d="M32.7,43.9c0,0,0.1,0.1,0.1,0.2l-0.1,0l-0.1,0C32.6,44,32.6,44,32.7,43.9z"/>
	<path fill="#A9CDA6" d="M33.7,43.5l-0.2,0.2c0,0-0.1,0.1-0.2,0.3l0,0.1c0,0-0.1,0-0.2,0c0,0,0.1-0.1,0.1-0.3c0,0,0-0.5,0.3-0.6
		c0,0,0.2-0.1,0.1,0c0,0-0.1,0.2-0.2,0.4C33.4,43.7,33.5,43.5,33.7,43.5z"/>
	<path fill="#A9CDA6" d="M34.7,44L34.7,44l-0.2,0.3c0,0-0.1,0-0.1,0l0,0l0,0l0-0.1l0.2-0.2C34.6,43.9,34.6,43.9,34.7,44L34.7,44
		L34.7,44z"/>
	<path fill="#A9CDA6" d="M32,43.7l0.1,0.3l0,0.1l0,0c0,0,0,0-0.1,0c0,0-0.1,0-0.1,0l-0.1-0.3v-0.1l0,0L32,43.7
		C32,43.7,32,43.7,32,43.7z"/>
	<path fill="#A9CDA6" d="M34,43.7L34,43.7L34,43.7l0.1,0.1L34,44.2c0,0,0,0.1-0.1,0c0,0,0,0-0.1,0l0,0l0-0.1L34,43.7
		C33.9,43.7,34,43.7,34,43.7z"/>
</g>
<g id="roughgrass_x5F_bd_18_" enable-background="new    ">
	<path fill="#A9CDA6" d="M27.1,43.4L27.1,43.4L27.1,43.4L27,43.5c0,0-0.1,0-0.1,0l-0.2-0.2l0-0.1l0,0l0,0c0,0,0.1,0,0.1,0L27.1,43.4
		z"/>
	<path fill="#A9CDA6" d="M28.2,43.2C28.2,43.2,28.2,43.2,28.2,43.2C28.2,43.1,28.2,43.1,28.2,43.2c-0.1-0.1-0.2-0.2-0.2-0.2
		c0-0.1,0.1-0.3,0.1-0.3c0-0.1,0-0.4,0-0.4C28.5,42.8,28.2,43.2,28.2,43.2z"/>
	<path fill="#A9CDA6" d="M28.2,43.2c0,0,0.1,0.1,0.1,0.2l-0.1,0l-0.1,0C28.2,43.3,28.2,43.2,28.2,43.2z"/>
	<path fill="#A9CDA6" d="M29.3,42.7l-0.2,0.2c0,0-0.1,0.1-0.2,0.3l0,0.1c0,0-0.1,0-0.2,0c0,0,0.1-0.1,0.1-0.3c0,0,0-0.5,0.3-0.6
		c0,0,0.2-0.1,0.1,0c0,0-0.1,0.2-0.2,0.4C28.9,42.9,29.1,42.7,29.3,42.7z"/>
	<path fill="#A9CDA6" d="M30.3,43.2L30.3,43.2l-0.2,0.3c0,0-0.1,0-0.1,0l0,0l0,0l0-0.1l0.2-0.2C30.1,43.2,30.2,43.2,30.3,43.2
		L30.3,43.2L30.3,43.2z"/>
	<path fill="#A9CDA6" d="M27.6,43l0.1,0.3l0,0.1l0,0c0,0,0,0-0.1,0c0,0-0.1,0-0.1,0l-0.1-0.3V43l0,0L27.6,43
		C27.5,42.9,27.6,42.9,27.6,43z"/>
	<path fill="#A9CDA6" d="M29.6,42.9L29.6,42.9L29.6,42.9l0.1,0.1l-0.1,0.3c0,0,0,0.1-0.1,0c0,0,0,0-0.1,0l0,0l0-0.1L29.6,42.9
		C29.5,42.9,29.5,42.9,29.6,42.9z"/>
</g>
<g id="roughgrass_x5F_bd_21_" enable-background="new    ">
	<path fill="#A9CDA6" d="M5.1,47.9L5.1,47.9L5.1,47.9L5,48c0,0-0.1,0-0.1,0l-0.2-0.2l0-0.1l0,0l0,0c0,0,0.1,0,0.1,0L5.1,47.9z"/>
	<path fill="#A9CDA6" d="M6.2,47.6C6.2,47.6,6.2,47.6,6.2,47.6C6.2,47.6,6.2,47.6,6.2,47.6C6.1,47.5,6,47.4,6,47.4
		c0-0.1,0.1-0.3,0.1-0.3c0-0.1,0-0.4,0-0.4C6.5,47.2,6.2,47.6,6.2,47.6z"/>
	<path fill="#A9CDA6" d="M6.2,47.6c0,0,0.1,0.1,0.1,0.2l-0.1,0l-0.1,0C6.2,47.7,6.2,47.7,6.2,47.6z"/>
	<path fill="#A9CDA6" d="M7.3,47.2L7,47.4c0,0-0.1,0.1-0.2,0.3l0,0.1c0,0-0.1,0-0.2,0c0,0,0.1-0.1,0.1-0.3c0,0,0-0.5,0.3-0.6
		c0,0,0.2-0.1,0.1,0c0,0-0.1,0.2-0.2,0.4C6.9,47.4,7.1,47.2,7.3,47.2z"/>
	<path fill="#A9CDA6" d="M8.3,47.7L8.3,47.7L8.1,48c0,0-0.1,0-0.1,0l0,0l0,0l0-0.1l0.2-0.2C8.1,47.6,8.2,47.6,8.3,47.7L8.3,47.7
		L8.3,47.7z"/>
	<path fill="#A9CDA6" d="M5.6,47.4l0.1,0.3l0,0.1l0,0c0,0,0,0-0.1,0c0,0-0.1,0-0.1,0l-0.1-0.3v-0.1l0,0L5.6,47.4
		C5.5,47.4,5.6,47.4,5.6,47.4z"/>
	<path fill="#A9CDA6" d="M7.5,47.4L7.5,47.4L7.5,47.4l0.1,0.1l-0.1,0.3c0,0,0,0.1-0.1,0c0,0,0,0-0.1,0l0,0l0-0.1L7.5,47.4
		C7.5,47.4,7.5,47.4,7.5,47.4z"/>
</g>
<g id="roughgrass_x5F_bd_22_" enable-background="new    ">
	<path fill="#A9CDA6" d="M7.7,45.6L7.7,45.6L7.7,45.6l-0.1,0.1c0,0-0.1,0-0.1,0l-0.2-0.2l0-0.1l0,0l0,0c0,0,0.1,0,0.1,0L7.7,45.6z"
		/>
	<path fill="#A9CDA6" d="M8.9,45.3C8.9,45.3,8.9,45.3,8.9,45.3C8.9,45.3,8.9,45.3,8.9,45.3c-0.1-0.1-0.2-0.2-0.2-0.2
		c0-0.1,0.1-0.3,0.1-0.3c0-0.1,0-0.4,0-0.4C9.1,44.9,8.9,45.3,8.9,45.3z"/>
	<path fill="#A9CDA6" d="M8.9,45.3c0,0,0.1,0.1,0.1,0.2l-0.1,0l-0.1,0C8.8,45.5,8.9,45.4,8.9,45.3z"/>
	<path fill="#A9CDA6" d="M9.9,44.9l-0.2,0.2c0,0-0.1,0.1-0.2,0.3l0,0.1c0,0-0.1,0-0.2,0c0,0,0.1-0.1,0.1-0.3c0,0,0-0.5,0.3-0.6
		c0,0,0.2-0.1,0.1,0c0,0-0.1,0.2-0.2,0.4C9.6,45.1,9.7,44.9,9.9,44.9z"/>
	<path fill="#A9CDA6" d="M10.9,45.4L10.9,45.4l-0.2,0.3c0,0-0.1,0-0.1,0l0,0l0,0l0-0.1l0.2-0.2C10.8,45.3,10.8,45.3,10.9,45.4
		L10.9,45.4L10.9,45.4z"/>
	<path fill="#A9CDA6" d="M8.2,45.2l0.1,0.3l0,0.1l0,0c0,0,0,0-0.1,0c0,0-0.1,0-0.1,0l-0.1-0.3v-0.1l0,0L8.2,45.2
		C8.2,45.1,8.2,45.1,8.2,45.2z"/>
	<path fill="#A9CDA6" d="M10.2,45.1L10.2,45.1L10.2,45.1l0.1,0.1l-0.1,0.3c0,0,0,0.1-0.1,0c0,0,0,0-0.1,0l0,0l0-0.1L10.2,45.1
		C10.1,45.1,10.2,45.1,10.2,45.1z"/>
</g>
<g id="roughgrass_x5F_bd" enable-background="new    ">
	<path fill="#A9CDA6" d="M3.3,44.8L3.3,44.8L3.3,44.8L3.2,45c0,0-0.1,0-0.1,0L3,44.7l0-0.1l0,0l0,0c0,0,0.1,0,0.1,0L3.3,44.8z"/>
	<path fill="#A9CDA6" d="M4.5,44.6C4.5,44.6,4.5,44.6,4.5,44.6C4.5,44.6,4.4,44.6,4.5,44.6c-0.1-0.1-0.2-0.2-0.2-0.2
		c0-0.1,0.1-0.3,0.1-0.3c0-0.1,0-0.4,0-0.4C4.7,44.2,4.5,44.6,4.5,44.6z"/>
	<path fill="#A9CDA6" d="M4.5,44.6c0,0,0.1,0.1,0.1,0.2l-0.1,0l-0.1,0C4.4,44.7,4.4,44.6,4.5,44.6z"/>
	<path fill="#A9CDA6" d="M5.5,44.1l-0.2,0.2c0,0-0.1,0.1-0.2,0.3l0,0.1c0,0-0.1,0-0.2,0c0,0,0.1-0.1,0.1-0.3c0,0,0-0.5,0.3-0.6
		c0,0,0.2-0.1,0.1,0c0,0-0.1,0.2-0.2,0.4C5.2,44.3,5.3,44.1,5.5,44.1z"/>
	<path fill="#A9CDA6" d="M6.5,44.7L6.5,44.7l-0.2,0.3c0,0-0.1,0-0.1,0l0,0l0,0l0-0.1l0.2-0.2C6.4,44.6,6.4,44.6,6.5,44.7L6.5,44.7
		L6.5,44.7z"/>
	<path fill="#A9CDA6" d="M3.8,44.4l0.1,0.3l0,0.1l0,0c0,0,0,0-0.1,0c0,0-0.1,0-0.1,0l-0.1-0.3v-0.1l0,0L3.8,44.4
		C3.8,44.3,3.8,44.4,3.8,44.4z"/>
	<path fill="#A9CDA6" d="M5.8,44.3L5.8,44.3L5.8,44.3l0.1,0.1l-0.1,0.3c0,0,0,0.1-0.1,0c0,0,0,0-0.1,0l0,0l0-0.1L5.8,44.3
		C5.7,44.4,5.8,44.3,5.8,44.3z"/>
</g>
</svg>
