<?xml version="1.0" encoding="utf-8"?>
<!-- Generator: Adobe Illustrator 17.1.0, SVG Export Plug-In . SVG Version: 6.00 Build 0)  -->
<!DOCTYPE svg PUBLIC "-//W3C//DTD SVG 1.1//EN" "http://www.w3.org/Graphics/SVG/1.1/DTD/svg11.dtd">
<svg version="1.1" id="Layer_1" xmlns="http://www.w3.org/2000/svg" xmlns:xlink="http://www.w3.org/1999/xlink" x="0px" y="0px"
	 viewBox="0 0 50 50" enable-background="new 0 0 50 50" xml:space="preserve">
<g id="Scree1_57_">
	<path fill="#9A9A90" d="M2.9,40.8c0,0-0.1-0.2-0.3-0.3c0,0-0.6,0.2-0.6,0.5c0,0,0.1,0.3,0.3,0.3c0,0,0.2,0.1,0.4,0
		C2.7,41.3,3.1,41,2.9,40.8z M2.8,41.1C2.6,41.4,2.2,41,2.2,41c-0.2-0.2,0.3-0.4,0.3-0.4C3.1,40.7,2.8,41.1,2.8,41.1z"/>
</g>
<g id="Scree1_56_" enable-background="new    ">
	<path fill="#9A9A90" d="M2.5,36.2c0,0-0.1-0.2-0.3-0.3c0,0-0.6,0.2-0.6,0.5c0,0,0.1,0.3,0.3,0.3c0,0,0.2,0.1,0.4,0
		C2.3,36.7,2.7,36.4,2.5,36.2z M2.4,36.5c-0.2,0.3-0.6-0.1-0.6-0.1C1.6,36.2,2.1,36,2.1,36C2.6,36.1,2.4,36.5,2.4,36.5z"/>
</g>
<g id="Scree1_55_" enable-background="new    ">
	<path fill="#9A9A90" d="M48.8,39.8c0,0-0.1-0.2-0.3-0.3c0,0-0.6,0.2-0.6,0.5c0,0,0.1,0.3,0.3,0.3c0,0,0.2,0.1,0.4,0
		C48.6,40.3,49,40,48.8,39.8z M48.7,40.1c-0.2,0.3-0.6-0.1-0.6-0.1c-0.2-0.2,0.3-0.4,0.3-0.4C49,39.7,48.7,40.1,48.7,40.1z"/>
</g>
<g id="Scree1_54_" enable-background="new    ">
	<path fill="#9A9A90" d="M45.8,44c0,0-0.1-0.2-0.3-0.3c0,0-0.6,0.2-0.6,0.5c0,0,0.1,0.3,0.3,0.3c0,0,0.2,0.1,0.4,0
		C45.6,44.5,46,44.3,45.8,44z M45.7,44.3c-0.2,0.3-0.6-0.1-0.6-0.1c-0.2-0.2,0.3-0.4,0.3-0.4C46,43.9,45.7,44.3,45.7,44.3z"/>
</g>
<g id="Scree1_53_" enable-background="new    ">
	<path fill="#9A9A90" d="M44.1,40.9c0,0-0.1-0.2-0.3-0.3c0,0-0.6,0.2-0.6,0.5c0,0,0.1,0.3,0.3,0.3c0,0,0.2,0.1,0.4,0
		C43.9,41.4,44.3,41.1,44.1,40.9z M43.9,41.2c-0.2,0.3-0.6-0.1-0.6-0.1c-0.2-0.2,0.3-0.4,0.3-0.4C44.2,40.8,43.9,41.2,43.9,41.2z"/>
</g>
<g id="Scree1_52_" enable-background="new    ">
	<path fill="#9A9A90" d="M48.3,45.9c0,0-0.1-0.2-0.3-0.3c0,0-0.6,0.2-0.6,0.5c0,0,0.1,0.3,0.3,0.3c0,0,0.2,0.1,0.4,0
		C48.1,46.4,48.5,46.1,48.3,45.9z M48.2,46.2c-0.2,0.3-0.6-0.1-0.6-0.1c-0.2-0.2,0.3-0.4,0.3-0.4C48.5,45.8,48.2,46.2,48.2,46.2z"/>
</g>
<g id="Scree1_51_" enable-background="new    ">
	<path fill="#9A9A90" d="M44.3,47.8c0,0-0.1-0.2-0.3-0.3c0,0-0.6,0.2-0.6,0.5c0,0,0.1,0.3,0.3,0.3c0,0,0.2,0.1,0.4,0
		C44.1,48.3,44.5,48,44.3,47.8z M44.2,48.1C44,48.4,43.6,48,43.6,48c-0.2-0.2,0.3-0.4,0.3-0.4C44.5,47.7,44.2,48.1,44.2,48.1z"/>
</g>
<g id="Scree1_50_" enable-background="new    ">
	<path fill="#9A9A90" d="M38.8,48.4c0,0-0.1-0.2-0.3-0.3c0,0-0.6,0.2-0.6,0.5c0,0,0.1,0.3,0.3,0.3c0,0,0.2,0.1,0.4,0
		C38.6,48.9,38.9,48.6,38.8,48.4z M38.6,48.7C38.4,49,38,48.6,38,48.6c-0.2-0.2,0.3-0.4,0.3-0.4C38.9,48.3,38.6,48.7,38.6,48.7z"/>
</g>
<g id="Scree1_49_" enable-background="new    ">
	<path fill="#9A9A90" d="M33.6,48.1c0,0-0.1-0.2-0.3-0.3c0,0-0.6,0.2-0.6,0.5c0,0,0.1,0.3,0.3,0.3c0,0,0.2,0.1,0.4,0
		C33.4,48.6,33.8,48.3,33.6,48.1z M33.4,48.4c-0.2,0.3-0.6-0.1-0.6-0.1c-0.2-0.2,0.3-0.4,0.3-0.4C33.7,48,33.4,48.4,33.4,48.4z"/>
</g>
<g id="Scree1_48_" enable-background="new    ">
	<path fill="#9A9A90" d="M25.8,48.4c0,0-0.1-0.2-0.3-0.3c0,0-0.6,0.2-0.6,0.5c0,0,0.1,0.3,0.3,0.3c0,0,0.2,0.1,0.4,0
		C25.6,48.9,25.9,48.7,25.8,48.4z M25.6,48.8c-0.2,0.3-0.6-0.1-0.6-0.1c-0.2-0.2,0.3-0.4,0.3-0.4C25.9,48.4,25.6,48.8,25.6,48.8z"/>
</g>
<g id="Scree1_47_" enable-background="new    ">
	<path fill="#9A9A90" d="M19.8,47.7c0,0-0.1-0.2-0.3-0.3c0,0-0.6,0.2-0.6,0.5c0,0,0.1,0.3,0.3,0.3c0,0,0.2,0.1,0.4,0
		C19.6,48.2,19.9,47.9,19.8,47.7z M19.6,48c-0.2,0.3-0.6-0.1-0.6-0.1c-0.2-0.2,0.3-0.4,0.3-0.4C19.9,47.6,19.6,48,19.6,48z"/>
</g>
<g id="Scree1_46_" enable-background="new    ">
	<path fill="#9A9A90" d="M13.5,48.4c0,0-0.1-0.2-0.3-0.3c0,0-0.6,0.2-0.6,0.5c0,0,0.1,0.3,0.3,0.3c0,0,0.2,0.1,0.4,0
		C13.3,48.9,13.7,48.7,13.5,48.4z M13.4,48.8c-0.2,0.3-0.6-0.1-0.6-0.1c-0.2-0.2,0.3-0.4,0.3-0.4C13.6,48.4,13.4,48.8,13.4,48.8z"/>
</g>
<g id="Scree1_45_" enable-background="new    ">
	<path fill="#9A9A90" d="M9.6,47.9c0,0-0.1-0.2-0.3-0.3c0,0-0.6,0.2-0.6,0.5c0,0,0.1,0.3,0.3,0.3c0,0,0.2,0.1,0.4,0
		C9.4,48.4,9.8,48.1,9.6,47.9z M9.4,48.2c-0.2,0.3-0.6-0.1-0.6-0.1c-0.2-0.2,0.3-0.4,0.3-0.4C9.7,47.8,9.4,48.2,9.4,48.2z"/>
</g>
<g id="Scree1_44_" enable-background="new    ">
	<path fill="#9A9A90" d="M1.3,47.9c0,0-0.1-0.2-0.3-0.3c0,0-0.6,0.2-0.6,0.5c0,0,0.1,0.3,0.3,0.3c0,0,0.2,0.1,0.4,0
		C1.1,48.4,1.4,48.2,1.3,47.9z M1.1,48.3c-0.2,0.3-0.6-0.1-0.6-0.1c-0.2-0.2,0.3-0.4,0.3-0.4C1.4,47.9,1.1,48.3,1.1,48.3z"/>
</g>
<g id="Scree1_43_" enable-background="new    ">
	<path fill="#9A9A90" d="M7.8,42.6c0,0-0.1-0.2-0.3-0.3c0,0-0.6,0.2-0.6,0.5c0,0,0.1,0.3,0.3,0.3c0,0,0.2,0.1,0.4,0
		C7.6,43.1,8,42.8,7.8,42.6z M7.7,42.9c-0.2,0.3-0.6-0.1-0.6-0.1c-0.2-0.2,0.3-0.4,0.3-0.4C8,42.5,7.7,42.9,7.7,42.9z"/>
</g>
<g id="Scree1_42_" enable-background="new    ">
	<path fill="#9A9A90" d="M41.3,44.9c0,0-0.1-0.2-0.3-0.3c0,0-0.6,0.2-0.6,0.5c0,0,0.1,0.3,0.3,0.3c0,0,0.2,0.1,0.4,0
		C41.1,45.4,41.4,45.2,41.3,44.9z M41.1,45.3c-0.2,0.3-0.6-0.1-0.6-0.1c-0.2-0.2,0.3-0.4,0.3-0.4C41.4,44.9,41.1,45.3,41.1,45.3z"/>
</g>
<g id="Scree1_41_" enable-background="new    ">
	<path fill="#9A9A90" d="M36.4,45.4c0,0-0.1-0.2-0.3-0.3c0,0-0.6,0.2-0.6,0.5c0,0,0.1,0.3,0.3,0.3c0,0,0.2,0.1,0.4,0
		C36.2,45.9,36.6,45.6,36.4,45.4z M36.3,45.7c-0.2,0.3-0.6-0.1-0.6-0.1c-0.2-0.2,0.3-0.4,0.3-0.4C36.6,45.3,36.3,45.7,36.3,45.7z"/>
</g>
<g id="Scree1_40_" enable-background="new    ">
	<path fill="#9A9A90" d="M12.7,44.5c0,0-0.1-0.2-0.3-0.3c0,0-0.6,0.2-0.6,0.5c0,0,0.1,0.3,0.3,0.3c0,0,0.2,0.1,0.4,0
		C12.5,45,12.8,44.8,12.7,44.5z M12.5,44.8c-0.2,0.3-0.6-0.1-0.6-0.1c-0.2-0.2,0.3-0.4,0.3-0.4C12.8,44.4,12.5,44.8,12.5,44.8z"/>
</g>
<g id="Scree1_39_" enable-background="new    ">
	<path fill="#9A9A90" d="M16.3,44.9c0,0-0.1-0.2-0.3-0.3c0,0-0.6,0.2-0.6,0.5c0,0,0.1,0.3,0.3,0.3c0,0,0.2,0.1,0.4,0
		C16.1,45.4,16.5,45.1,16.3,44.9z M16.2,45.2c-0.2,0.3-0.6-0.1-0.6-0.1c-0.2-0.2,0.3-0.4,0.3-0.4C16.5,44.8,16.2,45.2,16.2,45.2z"/>
</g>
<g id="Scree1_38_" enable-background="new    ">
	<path fill="#9A9A90" d="M23.1,45c0,0-0.1-0.2-0.3-0.3c0,0-0.6,0.2-0.6,0.5c0,0,0.1,0.3,0.3,0.3c0,0,0.2,0.1,0.4,0
		C22.9,45.5,23.3,45.3,23.1,45z M22.9,45.3c-0.2,0.3-0.6-0.1-0.6-0.1c-0.2-0.2,0.3-0.4,0.3-0.4C23.2,44.9,22.9,45.3,22.9,45.3z"/>
</g>
<g id="Scree1_37_" enable-background="new    ">
	<path fill="#9A9A90" d="M12.1,41.3c0,0-0.1-0.2-0.3-0.3c0,0-0.6,0.2-0.6,0.5c0,0,0.1,0.3,0.3,0.3c0,0,0.2,0.1,0.4,0
		C11.9,41.8,12.3,41.5,12.1,41.3z M11.9,41.6c-0.2,0.3-0.6-0.1-0.6-0.1c-0.2-0.2,0.3-0.4,0.3-0.4C12.2,41.2,11.9,41.6,11.9,41.6z"/>
</g>
<g id="Scree1_36_" enable-background="new    ">
	<path fill="#9A9A90" d="M16.9,40.4c0,0-0.1-0.2-0.3-0.3c0,0-0.6,0.2-0.6,0.5c0,0,0.1,0.3,0.3,0.3c0,0,0.2,0.1,0.4,0
		C16.7,40.9,17.1,40.7,16.9,40.4z M16.8,40.8c-0.2,0.3-0.6-0.1-0.6-0.1c-0.2-0.2,0.3-0.4,0.3-0.4C17.1,40.4,16.8,40.8,16.8,40.8z"/>
</g>
<g id="Scree1_35_" enable-background="new    ">
	<path fill="#9A9A90" d="M20.3,42.4c0,0-0.1-0.2-0.3-0.3c0,0-0.6,0.2-0.6,0.5c0,0,0.1,0.3,0.3,0.3c0,0,0.2,0.1,0.4,0
		C20.1,42.9,20.5,42.7,20.3,42.4z M20.2,42.8c-0.2,0.3-0.6-0.1-0.6-0.1c-0.2-0.2,0.3-0.4,0.3-0.4C20.5,42.4,20.2,42.8,20.2,42.8z"/>
</g>
<g id="Scree1_34_" enable-background="new    ">
	<path fill="#9A9A90" d="M25.8,40.4c0,0-0.1-0.2-0.3-0.3c0,0-0.6,0.2-0.6,0.5c0,0,0.1,0.3,0.3,0.3c0,0,0.2,0.1,0.4,0
		C25.6,40.9,25.9,40.6,25.8,40.4z M25.6,40.7C25.4,41,25,40.6,25,40.6c-0.2-0.2,0.3-0.4,0.3-0.4C25.9,40.3,25.6,40.7,25.6,40.7z"/>
</g>
<g id="Scree1_33_" enable-background="new    ">
	<path fill="#9A9A90" d="M39,41.6c0,0-0.1-0.2-0.3-0.3c0,0-0.6,0.2-0.6,0.5c0,0,0.1,0.3,0.3,0.3c0,0,0.2,0.1,0.4,0
		C38.8,42.1,39.2,41.8,39,41.6z M38.9,41.9c-0.2,0.3-0.6-0.1-0.6-0.1c-0.2-0.2,0.3-0.4,0.3-0.4C39.1,41.5,38.9,41.9,38.9,41.9z"/>
</g>
<g id="Scree1_32_" enable-background="new    ">
	<path fill="#9A9A90" d="M35.7,39.4c0,0-0.1-0.2-0.3-0.3c0,0-0.6,0.2-0.6,0.5c0,0,0.1,0.3,0.3,0.3c0,0,0.2,0.1,0.4,0
		C35.5,39.9,35.8,39.7,35.7,39.4z M35.5,39.8c-0.2,0.3-0.6-0.1-0.6-0.1c-0.2-0.2,0.3-0.4,0.3-0.4C35.8,39.4,35.5,39.8,35.5,39.8z"/>
</g>
<g id="Scree1_31_" enable-background="new    ">
	<path fill="#9A9A90" d="M30.9,41.8c0,0-0.1-0.2-0.3-0.3c0,0-0.6,0.2-0.6,0.5c0,0,0.1,0.3,0.3,0.3c0,0,0.2,0.1,0.4,0
		C30.7,42.3,31.1,42,30.9,41.8z M30.8,42.1c-0.2,0.3-0.6-0.1-0.6-0.1c-0.2-0.2,0.3-0.4,0.3-0.4C31.1,41.7,30.8,42.1,30.8,42.1z"/>
</g>
<g id="Scree1_30_" enable-background="new    ">
	<path fill="#9A9A90" d="M40.3,37.7c0,0-0.1-0.2-0.3-0.3c0,0-0.6,0.2-0.6,0.5c0,0,0.1,0.3,0.3,0.3c0,0,0.2,0.1,0.4,0
		C40.1,38.2,40.5,37.9,40.3,37.7z M40.2,38c-0.2,0.3-0.6-0.1-0.6-0.1c-0.2-0.2,0.3-0.4,0.3-0.4C40.5,37.6,40.2,38,40.2,38z"/>
</g>
<g id="Scree1_29_" enable-background="new    ">
	<path fill="#9A9A90" d="M46.9,37c0,0-0.1-0.2-0.3-0.3c0,0-0.6,0.2-0.6,0.5c0,0,0.1,0.3,0.3,0.3c0,0,0.2,0.1,0.4,0
		C46.7,37.5,47.1,37.3,46.9,37z M46.8,37.3c-0.2,0.3-0.6-0.1-0.6-0.1c-0.2-0.2,0.3-0.4,0.3-0.4C47.1,36.9,46.8,37.3,46.8,37.3z"/>
</g>
<g id="Scree1_28_" enable-background="new    ">
	<path fill="#9A9A90" d="M14.8,36.5c0,0-0.1-0.2-0.3-0.3c0,0-0.6,0.2-0.6,0.5c0,0,0.1,0.3,0.3,0.3c0,0,0.2,0.1,0.4,0
		C14.6,37,14.9,36.8,14.8,36.5z M14.6,36.8c-0.2,0.3-0.6-0.1-0.6-0.1c-0.2-0.2,0.3-0.4,0.3-0.4C14.9,36.4,14.6,36.8,14.6,36.8z"/>
</g>
<g id="Scree1_27_" enable-background="new    ">
	<path fill="#9A9A90" d="M19.6,37.7c0,0-0.1-0.2-0.3-0.3c0,0-0.6,0.2-0.6,0.5c0,0,0.1,0.3,0.3,0.3c0,0,0.2,0.1,0.4,0
		C19.4,38.2,19.8,37.9,19.6,37.7z M19.4,38c-0.2,0.3-0.6-0.1-0.6-0.1c-0.2-0.2,0.3-0.4,0.3-0.4C19.7,37.6,19.4,38,19.4,38z"/>
</g>
<g id="Scree1_26_" enable-background="new    ">
	<path fill="#9A9A90" d="M23.8,36.3c0,0-0.1-0.2-0.3-0.3c0,0-0.6,0.2-0.6,0.5c0,0,0.1,0.3,0.3,0.3c0,0,0.2,0.1,0.4,0
		C23.6,36.8,24,36.5,23.8,36.3z M23.7,36.6c-0.2,0.3-0.6-0.1-0.6-0.1c-0.2-0.2,0.3-0.4,0.3-0.4C24,36.2,23.7,36.6,23.7,36.6z"/>
</g>
<g id="Scree1_25_" enable-background="new    ">
	<path fill="#9A9A90" d="M30.7,37.4c0,0-0.1-0.2-0.3-0.3c0,0-0.6,0.2-0.6,0.5c0,0,0.1,0.3,0.3,0.3c0,0,0.2,0.1,0.4,0
		C30.5,37.9,30.8,37.6,30.7,37.4z M30.5,37.7C30.3,38,30,37.6,30,37.6c-0.2-0.2,0.3-0.4,0.3-0.4C30.8,37.3,30.5,37.7,30.5,37.7z"/>
</g>
<g id="Scree1_24_" enable-background="new    ">
	<path fill="#9A9A90" d="M36,36c0,0-0.1-0.2-0.3-0.3c0,0-0.6,0.2-0.6,0.5c0,0,0.1,0.3,0.3,0.3c0,0,0.2,0.1,0.4,0
		C35.8,36.5,36.2,36.3,36,36z M35.9,36.3c-0.2,0.3-0.6-0.1-0.6-0.1c-0.2-0.2,0.3-0.4,0.3-0.4C36.1,35.9,35.9,36.3,35.9,36.3z"/>
</g>
<g id="Scree1_23_" enable-background="new    ">
	<path fill="#9A9A90" d="M13.7,28.4c0,0-0.1-0.2-0.3-0.3c0,0-0.6,0.2-0.6,0.5c0,0,0.1,0.3,0.3,0.3c0,0,0.2,0.1,0.4,0
		C13.5,28.9,13.8,28.6,13.7,28.4z M13.5,28.7C13.3,29,13,28.6,13,28.6c-0.2-0.2,0.3-0.4,0.3-0.4C13.8,28.3,13.5,28.7,13.5,28.7z"/>
</g>
<g id="Scree1_22_" enable-background="new    ">
	<path fill="#9A9A90" d="M13.8,21.6c0,0-0.1-0.2-0.3-0.3c0,0-0.6,0.2-0.6,0.5c0,0,0.1,0.3,0.3,0.3c0,0,0.2,0.1,0.4,0
		C13.6,22.1,14,21.8,13.8,21.6z M13.7,21.9c-0.2,0.3-0.6-0.1-0.6-0.1c-0.2-0.2,0.3-0.4,0.3-0.4C14,21.5,13.7,21.9,13.7,21.9z"/>
</g>
<g id="Scree1_21_" enable-background="new    ">
	<path fill="#9A9A90" d="M15.3,15.9c0,0-0.1-0.2-0.3-0.3c0,0-0.6,0.2-0.6,0.5c0,0,0.1,0.3,0.3,0.3c0,0,0.2,0.1,0.4,0
		C15.1,16.4,15.4,16.1,15.3,15.9z M15.1,16.2c-0.2,0.3-0.6-0.1-0.6-0.1c-0.2-0.2,0.3-0.4,0.3-0.4C15.4,15.8,15.1,16.2,15.1,16.2z"/>
</g>
<g id="Scree1_20_" enable-background="new    ">
	<path fill="#9A9A90" d="M13.8,8.9c0,0-0.1-0.2-0.3-0.3c0,0-0.6,0.2-0.6,0.5c0,0,0.1,0.3,0.3,0.3c0,0,0.2,0.1,0.4,0
		C13.6,9.4,13.9,9.2,13.8,8.9z M13.6,9.3C13.4,9.6,13,9.2,13,9.2c-0.2-0.2,0.3-0.4,0.3-0.4C13.9,8.9,13.6,9.3,13.6,9.3z"/>
</g>
<g id="Scree1_19_" enable-background="new    ">
	<path fill="#9A9A90" d="M12.9,2.9c0,0-0.1-0.2-0.3-0.3c0,0-0.6,0.2-0.6,0.5c0,0,0.1,0.3,0.3,0.3c0,0,0.2,0.1,0.4,0
		C12.7,3.4,13.1,3.2,12.9,2.9z M12.8,3.3c-0.2,0.3-0.6-0.1-0.6-0.1C12,3,12.5,2.8,12.5,2.8C13.1,2.9,12.8,3.3,12.8,3.3z"/>
</g>
<g id="Scree1_18_" enable-background="new    ">
	<path fill="#9A9A90" d="M10.9,31.4c0,0-0.1-0.2-0.3-0.3c0,0-0.6,0.2-0.6,0.5c0,0,0.1,0.3,0.3,0.3c0,0,0.2,0.1,0.4,0
		C10.7,31.9,11.1,31.7,10.9,31.4z M10.8,31.8c-0.2,0.3-0.6-0.1-0.6-0.1c-0.2-0.2,0.3-0.4,0.3-0.4C11.1,31.4,10.8,31.8,10.8,31.8z"/>
</g>
<g id="Scree1_17_" enable-background="new    ">
	<path fill="#9A9A90" d="M16.6,32.4c0,0-0.1-0.2-0.3-0.3c0,0-0.6,0.2-0.6,0.5c0,0,0.1,0.3,0.3,0.3c0,0,0.2,0.1,0.4,0
		C16.4,32.9,16.8,32.6,16.6,32.4z M16.4,32.7c-0.2,0.3-0.6-0.1-0.6-0.1c-0.2-0.2,0.3-0.4,0.3-0.4C16.7,32.3,16.4,32.7,16.4,32.7z"/>
</g>
<g id="Scree1_16_" enable-background="new    ">
	<path fill="#9A9A90" d="M15,23.9c0,0-0.1-0.2-0.3-0.3c0,0-0.6,0.2-0.6,0.5c0,0,0.1,0.3,0.3,0.3c0,0,0.2,0.1,0.4,0
		C14.8,24.4,15.2,24.1,15,23.9z M14.9,24.2c-0.2,0.3-0.6-0.1-0.6-0.1c-0.2-0.2,0.3-0.4,0.3-0.4C15.1,23.8,14.9,24.2,14.9,24.2z"/>
</g>
<g id="Scree1_15_" enable-background="new    ">
	<path fill="#9A9A90" d="M35,1.4c0,0-0.1-0.2-0.3-0.3c0,0-0.6,0.2-0.6,0.5c0,0,0.1,0.3,0.3,0.3c0,0,0.2,0.1,0.4,0
		C34.8,1.9,35.2,1.7,35,1.4z M34.9,1.8c-0.2,0.3-0.6-0.1-0.6-0.1c-0.2-0.2,0.3-0.4,0.3-0.4C35.1,1.4,34.9,1.8,34.9,1.8z"/>
</g>
<g id="Scree1_14_" enable-background="new    ">
	<path fill="#9A9A90" d="M34.1,5.4c0,0-0.1-0.2-0.3-0.3c0,0-0.6,0.2-0.6,0.5c0,0,0.1,0.3,0.3,0.3c0,0,0.2,0.1,0.4,0
		C33.9,5.9,34.3,5.6,34.1,5.4z M33.9,5.7c-0.2,0.3-0.6-0.1-0.6-0.1c-0.2-0.2,0.3-0.4,0.3-0.4C34.2,5.3,33.9,5.7,33.9,5.7z"/>
</g>
<g id="Scree1_13_" enable-background="new    ">
	<path fill="#9A9A90" d="M32.5,9.9c0,0-0.1-0.2-0.3-0.3c0,0-0.6,0.2-0.6,0.5c0,0,0.1,0.3,0.3,0.3c0,0,0.2,0.1,0.4,0
		C32.3,10.4,32.7,10.2,32.5,9.9z M32.4,10.3c-0.2,0.3-0.6-0.1-0.6-0.1c-0.2-0.2,0.3-0.4,0.3-0.4C32.6,9.9,32.4,10.3,32.4,10.3z"/>
</g>
<g id="Scree1_12_" enable-background="new    ">
	<path fill="#9A9A90" d="M32.5,14.6c0,0-0.1-0.2-0.3-0.3c0,0-0.6,0.2-0.6,0.5c0,0,0.1,0.3,0.3,0.3c0,0,0.2,0.1,0.4,0
		C32.3,15.1,32.7,14.8,32.5,14.6z M32.4,14.9c-0.2,0.3-0.6-0.1-0.6-0.1c-0.2-0.2,0.3-0.4,0.3-0.4C32.6,14.5,32.4,14.9,32.4,14.9z"/>
</g>
<g id="Scree1_11_" enable-background="new    ">
	<path fill="#9A9A90" d="M29.8,17.1c0,0-0.1-0.2-0.3-0.3c0,0-0.6,0.2-0.6,0.5c0,0,0.1,0.3,0.3,0.3c0,0,0.2,0.1,0.4,0
		C29.6,17.6,30,17.3,29.8,17.1z M29.7,17.4c-0.2,0.3-0.6-0.1-0.6-0.1c-0.2-0.2,0.3-0.4,0.3-0.4C30,17,29.7,17.4,29.7,17.4z"/>
</g>
<g id="Scree1_10_" enable-background="new    ">
	<path fill="#9A9A90" d="M28.7,20.4c0,0-0.1-0.2-0.3-0.3c0,0-0.6,0.2-0.6,0.5c0,0,0.1,0.3,0.3,0.3c0,0,0.2,0.1,0.4,0
		C28.5,20.9,28.8,20.6,28.7,20.4z M28.5,20.7C28.3,21,28,20.6,28,20.6c-0.2-0.2,0.3-0.4,0.3-0.4C28.8,20.3,28.5,20.7,28.5,20.7z"/>
</g>
<g id="Scree1_9_" enable-background="new    ">
	<path fill="#9A9A90" d="M28.2,24.3c0,0-0.1-0.2-0.3-0.3c0,0-0.6,0.2-0.6,0.5c0,0,0.1,0.3,0.3,0.3c0,0,0.2,0.1,0.4,0
		C28,24.8,28.3,24.5,28.2,24.3z M28,24.6c-0.2,0.3-0.6-0.1-0.6-0.1c-0.2-0.2,0.3-0.4,0.3-0.4C28.3,24.2,28,24.6,28,24.6z"/>
</g>
<g id="Scree1_8_" enable-background="new    ">
	<path fill="#9A9A90" d="M26.9,28.1c0,0-0.1-0.2-0.3-0.3c0,0-0.6,0.2-0.6,0.5c0,0,0.1,0.3,0.3,0.3c0,0,0.2,0.1,0.4,0
		C26.7,28.6,27.1,28.3,26.9,28.1z M26.8,28.4c-0.2,0.3-0.6-0.1-0.6-0.1c-0.2-0.2,0.3-0.4,0.3-0.4C27.1,28,26.8,28.4,26.8,28.4z"/>
</g>
<g id="Scree1_7_" enable-background="new    ">
	<path fill="#9A9A90" d="M33.3,18.9c0,0-0.1-0.2-0.3-0.3c0,0-0.6,0.2-0.6,0.5c0,0,0.1,0.3,0.3,0.3c0,0,0.2,0.1,0.4,0
		C33.1,19.4,33.4,19.1,33.3,18.9z M33.1,19.2c-0.2,0.3-0.6-0.1-0.6-0.1c-0.2-0.2,0.3-0.4,0.3-0.4C33.4,18.8,33.1,19.2,33.1,19.2z"/>
</g>
<g id="Scree1_6_" enable-background="new    ">
	<path fill="#9A9A90" d="M33.8,22c0,0-0.1-0.2-0.3-0.3c0,0-0.6,0.2-0.6,0.5c0,0,0.1,0.3,0.3,0.3c0,0,0.2,0.1,0.4,0
		C33.6,22.5,34,22.3,33.8,22z M33.7,22.3c-0.2,0.3-0.6-0.1-0.6-0.1c-0.2-0.2,0.3-0.4,0.3-0.4C34,21.9,33.7,22.3,33.7,22.3z"/>
</g>
<g id="Scree1_5_" enable-background="new    ">
	<path fill="#9A9A90" d="M34.6,25.8c0,0-0.1-0.2-0.3-0.3c0,0-0.6,0.2-0.6,0.5c0,0,0.1,0.3,0.3,0.3c0,0,0.2,0.1,0.4,0
		C34.4,26.3,34.8,26,34.6,25.8z M34.4,26.1c-0.2,0.3-0.6-0.1-0.6-0.1c-0.2-0.2,0.3-0.4,0.3-0.4C34.7,25.7,34.4,26.1,34.4,26.1z"/>
</g>
<g id="Scree1_4_" enable-background="new    ">
	<path fill="#9A9A90" d="M32.7,33.2c0,0-0.1-0.2-0.3-0.3c0,0-0.6,0.2-0.6,0.5c0,0,0.1,0.3,0.3,0.3c0,0,0.2,0.1,0.4,0
		C32.5,33.7,32.8,33.4,32.7,33.2z M32.5,33.5c-0.2,0.3-0.6-0.1-0.6-0.1c-0.2-0.2,0.3-0.4,0.3-0.4C32.8,33.1,32.5,33.5,32.5,33.5z"/>
</g>
<g id="Scree1_3_" enable-background="new    ">
	<path fill="#9A9A90" d="M33.8,29.4c0,0-0.1-0.2-0.3-0.3c0,0-0.6,0.2-0.6,0.5c0,0,0.1,0.3,0.3,0.3c0,0,0.2,0.1,0.4,0
		C33.6,29.9,34,29.7,33.8,29.4z M33.7,29.8c-0.2,0.3-0.6-0.1-0.6-0.1c-0.2-0.2,0.3-0.4,0.3-0.4C34,29.4,33.7,29.8,33.7,29.8z"/>
</g>
<g id="Scree1_2_" enable-background="new    ">
	<path fill="#9A9A90" d="M36.7,31.9c0,0-0.1-0.2-0.3-0.3c0,0-0.6,0.2-0.6,0.5c0,0,0.1,0.3,0.3,0.3c0,0,0.2,0.1,0.4,0
		C36.5,32.4,36.8,32.1,36.7,31.9z M36.5,32.2c-0.2,0.3-0.6-0.1-0.6-0.1c-0.2-0.2,0.3-0.4,0.3-0.4C36.8,31.8,36.5,32.2,36.5,32.2z"/>
</g>
<g id="Scree1_1_" enable-background="new    ">
	<path fill="#9A9A90" d="M36.6,17.2c0,0-0.1-0.2-0.3-0.3c0,0-0.6,0.2-0.6,0.5c0,0,0.1,0.3,0.3,0.3c0,0,0.2,0.1,0.4,0
		C36.4,17.7,36.8,17.4,36.6,17.2z M36.4,17.5c-0.2,0.3-0.6-0.1-0.6-0.1c-0.2-0.2,0.3-0.4,0.3-0.4C36.7,17.1,36.4,17.5,36.4,17.5z"/>
</g>
<g id="Scree1" enable-background="new    ">
	<path fill="#9A9A90" d="M39.7,19c0,0-0.1-0.2-0.3-0.3c0,0-0.6,0.2-0.6,0.5c0,0,0.1,0.3,0.3,0.3c0,0,0.2,0.1,0.4,0
		C39.5,19.5,39.8,19.3,39.7,19z M39.5,19.3c-0.2,0.3-0.6-0.1-0.6-0.1c-0.2-0.2,0.3-0.4,0.3-0.4C39.8,18.9,39.5,19.3,39.5,19.3z"/>
</g>
<g id="Scree2_92_">
	<path fill="#9A9A90" d="M4,1.9c0,0-0.2-0.2-0.3,0L3.4,2v0.1l0.2,0.1c0,0,0.3,0,0.3,0L4,1.9L4,1.9z M3.9,2.1
		C3.9,2.2,3.6,2.1,3.6,2.1C3.5,2,3.6,2,3.6,2c0-0.1,0.2-0.1,0.2-0.1c0.1,0,0.2,0,0.2,0L3.9,2.1z"/>
</g>
<g id="Scree2_91_" enable-background="new    ">
	<path fill="#9A9A90" d="M3.7,4.3c0,0-0.2-0.2-0.3,0L3.2,4.4v0.1l0.2,0.1c0,0,0.3,0,0.3,0L3.7,4.3L3.7,4.3z M3.7,4.5
		C3.6,4.6,3.4,4.5,3.4,4.5C3.3,4.5,3.3,4.4,3.3,4.4c0-0.1,0.2-0.1,0.2-0.1c0.1,0,0.2,0,0.2,0L3.7,4.5z"/>
</g>
<g id="Scree2_90_" enable-background="new    ">
	<path fill="#9A9A90" d="M3.7,7.9c0,0-0.2-0.2-0.3,0L3.1,8v0.1l0.2,0.1c0,0,0.3,0,0.3,0L3.7,7.9L3.7,7.9z M3.6,8.1
		C3.5,8.2,3.3,8.1,3.3,8.1C3.2,8,3.2,8,3.2,8c0-0.1,0.2-0.1,0.2-0.1c0.1,0,0.2,0,0.2,0L3.6,8.1z"/>
</g>
<g id="Scree2_89_" enable-background="new    ">
	<path fill="#9A9A90" d="M6.9,5.5c0,0-0.2-0.2-0.3,0L6.4,5.6v0.1l0.2,0.1c0,0,0.3,0,0.3,0L6.9,5.5L6.9,5.5z M6.9,5.7
		C6.8,5.8,6.6,5.8,6.6,5.8C6.5,5.7,6.5,5.7,6.5,5.7c0-0.1,0.2-0.1,0.2-0.1c0.1,0,0.2,0,0.2,0L6.9,5.7z"/>
</g>
<g id="Scree2_88_" enable-background="new    ">
	<path fill="#9A9A90" d="M1,9.6c0,0-0.2-0.2-0.3,0L0.5,9.7v0.1L0.7,10c0,0,0.3,0,0.3,0L1,9.6L1,9.6z M1,9.8C0.9,10,0.7,9.9,0.7,9.9
		C0.6,9.8,0.6,9.8,0.6,9.8c0-0.1,0.2-0.1,0.2-0.1c0.1,0,0.2,0,0.2,0L1,9.8z"/>
</g>
<g id="Scree2_87_" enable-background="new    ">
	<path fill="#9A9A90" d="M1.6,6.4c0,0-0.2-0.2-0.3,0L1.1,6.5v0.1l0.2,0.1c0,0,0.3,0,0.3,0L1.6,6.4L1.6,6.4z M1.5,6.6
		C1.5,6.7,1.3,6.7,1.3,6.7C1.2,6.6,1.2,6.5,1.2,6.5c0-0.1,0.2-0.1,0.2-0.1c0.1,0,0.2,0,0.2,0L1.5,6.6z"/>
</g>
<g id="Scree2_86_" enable-background="new    ">
	<path fill="#9A9A90" d="M1.1,13.5c0,0-0.2-0.2-0.3,0l-0.2,0.1v0.1l0.2,0.1c0,0,0.3,0,0.3,0L1.1,13.5L1.1,13.5z M1.1,13.7
		c-0.1,0.1-0.3,0.1-0.3,0.1c-0.1-0.1-0.1-0.1-0.1-0.1c0-0.1,0.2-0.1,0.2-0.1c0.1,0,0.2,0,0.2,0L1.1,13.7z"/>
</g>
<g id="Scree2_85_" enable-background="new    ">
	<path fill="#9A9A90" d="M2.9,10.9c0,0-0.2-0.2-0.3,0L2.4,11v0.1l0.2,0.1c0,0,0.3,0,0.3,0L2.9,10.9L2.9,10.9z M2.8,11.1
		c-0.1,0.1-0.3,0.1-0.3,0.1C2.5,11,2.5,11,2.5,11c0-0.1,0.2-0.1,0.2-0.1c0.1,0,0.2,0,0.2,0L2.8,11.1z"/>
</g>
<g id="Scree2_84_" enable-background="new    ">
	<path fill="#9A9A90" d="M3,15.9c0,0-0.2-0.2-0.3,0L2.5,16v0.1l0.2,0.1c0,0,0.3,0,0.3,0L3,15.9L3,15.9z M3,16.1
		c-0.1,0.1-0.3,0.1-0.3,0.1C2.6,16,2.6,16,2.6,16c0-0.1,0.2-0.1,0.2-0.1c0.1,0,0.2,0,0.2,0L3,16.1z"/>
</g>
<g id="Scree2_83_" enable-background="new    ">
	<path fill="#9A9A90" d="M5.6,10.4c0,0-0.2-0.2-0.3,0l-0.2,0.1v0.1l0.2,0.1c0,0,0.3,0,0.3,0L5.6,10.4L5.6,10.4z M5.5,10.6
		c-0.1,0.1-0.3,0.1-0.3,0.1c-0.1-0.1-0.1-0.1-0.1-0.1c0-0.1,0.2-0.1,0.2-0.1c0.1,0,0.2,0,0.2,0L5.5,10.6z"/>
</g>
<g id="Scree2_82_" enable-background="new    ">
	<path fill="#9A9A90" d="M6.3,13c0,0-0.2-0.2-0.3,0l-0.2,0.1v0.1L6,13.4c0,0,0.3,0,0.3,0L6.3,13L6.3,13z M6.2,13.2
		C6.2,13.3,6,13.3,6,13.3c-0.1-0.1-0.1-0.1-0.1-0.1C5.9,13,6.1,13,6.1,13c0.1,0,0.2,0,0.2,0L6.2,13.2z"/>
</g>
<g id="Scree2_81_" enable-background="new    ">
	<path fill="#9A9A90" d="M6.5,15.5c0,0-0.2-0.2-0.3,0l-0.2,0.1v0.1l0.2,0.1c0,0,0.3,0,0.3,0L6.5,15.5L6.5,15.5z M6.4,15.7
		c-0.1,0.1-0.3,0.1-0.3,0.1c-0.1-0.1-0.1-0.1-0.1-0.1c0-0.1,0.2-0.1,0.2-0.1c0.1,0,0.2,0,0.2,0L6.4,15.7z"/>
</g>
<g id="Scree2_80_" enable-background="new    ">
	<path fill="#9A9A90" d="M5.2,18.1c0,0-0.2-0.2-0.3,0l-0.2,0.1v0.1l0.2,0.1c0,0,0.3,0,0.3,0L5.2,18.1L5.2,18.1z M5.2,18.3
		c-0.1,0.1-0.3,0.1-0.3,0.1c-0.1-0.1-0.1-0.1-0.1-0.1c0-0.1,0.2-0.1,0.2-0.1c0.1,0,0.2,0,0.2,0L5.2,18.3z"/>
</g>
<g id="Scree2_79_" enable-background="new    ">
	<path fill="#9A9A90" d="M7.7,18.4c0,0-0.2-0.2-0.3,0l-0.2,0.1v0.1l0.2,0.1c0,0,0.3,0,0.3,0L7.7,18.4L7.7,18.4z M7.6,18.6
		c-0.1,0.1-0.3,0.1-0.3,0.1c-0.1-0.1-0.1-0.1-0.1-0.1c0-0.1,0.2-0.1,0.2-0.1c0.1,0,0.2,0,0.2,0L7.6,18.6z"/>
</g>
<g id="Scree2_78_" enable-background="new    ">
	<path fill="#9A9A90" d="M8.9,21.1c0,0-0.2-0.2-0.3,0l-0.2,0.1v0.1l0.2,0.1c0,0,0.3,0,0.3,0L8.9,21.1L8.9,21.1z M8.9,21.3
		c-0.1,0.1-0.3,0.1-0.3,0.1c-0.1-0.1-0.1-0.1-0.1-0.1c0-0.1,0.2-0.1,0.2-0.1c0.1,0,0.2,0,0.2,0L8.9,21.3z"/>
</g>
<g id="Scree2_77_" enable-background="new    ">
	<path fill="#9A9A90" d="M6.8,23.1c0,0-0.2-0.2-0.3,0l-0.2,0.1v0.1l0.2,0.1c0,0,0.3,0,0.3,0L6.8,23.1L6.8,23.1z M6.8,23.3
		c-0.1,0.1-0.3,0.1-0.3,0.1c-0.1-0.1-0.1-0.1-0.1-0.1c0-0.1,0.2-0.1,0.2-0.1c0.1,0,0.2,0,0.2,0L6.8,23.3z"/>
</g>
<g id="Scree2_76_" enable-background="new    ">
	<path fill="#9A9A90" d="M4.3,20.2c0,0-0.2-0.2-0.3,0l-0.2,0.1v0.1L4,20.5c0,0,0.3,0,0.3,0L4.3,20.2L4.3,20.2z M4.2,20.4
		C4.2,20.5,4,20.4,4,20.4c-0.1-0.1-0.1-0.1-0.1-0.1c0-0.1,0.2-0.1,0.2-0.1c0.1,0,0.2,0,0.2,0L4.2,20.4z"/>
</g>
<g id="Scree2_75_" enable-background="new    ">
	<path fill="#9A9A90" d="M1.8,22.4c0,0-0.2-0.2-0.3,0l-0.2,0.1v0.1l0.2,0.1c0,0,0.3,0,0.3,0L1.8,22.4L1.8,22.4z M1.7,22.6
		c-0.1,0.1-0.3,0.1-0.3,0.1c-0.1-0.1-0.1-0.1-0.1-0.1c0-0.1,0.2-0.1,0.2-0.1c0.1,0,0.2,0,0.2,0L1.7,22.6z"/>
</g>
<g id="Scree2_74_" enable-background="new    ">
	<path fill="#9A9A90" d="M11.4,1.1c0,0-0.2-0.2-0.3,0l-0.2,0.1v0.1l0.2,0.1c0,0,0.3,0,0.3,0L11.4,1.1L11.4,1.1z M11.4,1.3
		c-0.1,0.1-0.3,0.1-0.3,0.1C11,1.3,11,1.3,11,1.3c0-0.1,0.2-0.1,0.2-0.1c0.1,0,0.2,0,0.2,0L11.4,1.3z"/>
</g>
<g id="Scree2_73_" enable-background="new    ">
	<path fill="#9A9A90" d="M11,3.7c0,0-0.2-0.2-0.3,0l-0.2,0.1v0.1L10.6,4c0,0,0.3,0,0.3,0L11,3.7L11,3.7z M10.9,3.9
		c-0.1,0.1-0.3,0.1-0.3,0.1c-0.1-0.1-0.1-0.1-0.1-0.1c0-0.1,0.2-0.1,0.2-0.1c0.1,0,0.2,0,0.2,0L10.9,3.9z"/>
</g>
<g id="Scree2_72_" enable-background="new    ">
	<path fill="#9A9A90" d="M10.7,6c0,0-0.2-0.2-0.3,0l-0.2,0.1v0.1l0.2,0.1c0,0,0.3,0,0.3,0L10.7,6L10.7,6z M10.7,6.2
		c-0.1,0.1-0.3,0.1-0.3,0.1c-0.1-0.1-0.1-0.1-0.1-0.1C10.3,6,10.5,6,10.5,6c0.1,0,0.2,0,0.2,0L10.7,6.2z"/>
</g>
<g id="Scree2_71_" enable-background="new    ">
	<path fill="#9A9A90" d="M10,8.2c0,0-0.2-0.2-0.3,0L9.5,8.3v0.1l0.2,0.1c0,0,0.3,0,0.3,0L10,8.2L10,8.2z M10,8.4
		C9.9,8.5,9.7,8.4,9.7,8.4C9.6,8.4,9.6,8.3,9.6,8.3c0-0.1,0.2-0.1,0.2-0.1c0.1,0,0.2,0,0.2,0L10,8.4z"/>
</g>
<g id="Scree2_70_" enable-background="new    ">
	<path fill="#9A9A90" d="M9.5,10.6c0,0-0.2-0.2-0.3,0L9,10.7v0.1L9.2,11c0,0,0.3,0,0.3,0L9.5,10.6L9.5,10.6z M9.5,10.8
		c-0.1,0.1-0.3,0.1-0.3,0.1c-0.1-0.1-0.1-0.1-0.1-0.1c0-0.1,0.2-0.1,0.2-0.1c0.1,0,0.2,0,0.2,0L9.5,10.8z"/>
</g>
<g id="Scree2_69_" enable-background="new    ">
	<path fill="#9A9A90" d="M12.3,6c0,0-0.2-0.2-0.3,0l-0.2,0.1v0.1L12,6.4c0,0,0.3,0,0.3,0L12.3,6L12.3,6z M12.3,6.2
		C12.2,6.3,12,6.3,12,6.3c-0.1-0.1-0.1-0.1-0.1-0.1C12,6,12.1,6,12.1,6c0.1,0,0.2,0,0.2,0L12.3,6.2z"/>
</g>
<g id="Scree2_68_" enable-background="new    ">
	<path fill="#9A9A90" d="M14.3,10.8c0,0-0.2-0.2-0.3,0l-0.2,0.1V11l0.2,0.1c0,0,0.3,0,0.3,0L14.3,10.8L14.3,10.8z M14.2,11
		C14.2,11.1,14,11,14,11c-0.1-0.1-0.1-0.1-0.1-0.1c0-0.1,0.2-0.1,0.2-0.1c0.1,0,0.2,0,0.2,0L14.2,11z"/>
</g>
<g id="Scree2_67_" enable-background="new    ">
	<path fill="#9A9A90" d="M11.8,11.5c0,0-0.2-0.2-0.3,0l-0.2,0.1v0.1l0.2,0.1c0,0,0.3,0,0.3,0L11.8,11.5L11.8,11.5z M11.7,11.7
		c-0.1,0.1-0.3,0.1-0.3,0.1c-0.1-0.1-0.1-0.1-0.1-0.1c0-0.1,0.2-0.1,0.2-0.1c0.1,0,0.2,0,0.2,0L11.7,11.7z"/>
</g>
<g id="Scree2_66_" enable-background="new    ">
	<path fill="#9A9A90" d="M19,1.2c0,0-0.2-0.2-0.3,0l-0.2,0.1v0.1l0.2,0.1c0,0,0.3,0,0.3,0L19,1.2L19,1.2z M19,1.4
		c-0.1,0.1-0.3,0.1-0.3,0.1c-0.1-0.1-0.1-0.1-0.1-0.1c0-0.1,0.2-0.1,0.2-0.1c0.1,0,0.2,0,0.2,0L19,1.4z"/>
</g>
<g id="Scree2_65_" enable-background="new    ">
	<path fill="#9A9A90" d="M18.5,3.1c0,0-0.2-0.2-0.3,0l-0.2,0.1v0.1l0.2,0.1c0,0,0.3,0,0.3,0L18.5,3.1L18.5,3.1z M18.4,3.3
		c-0.1,0.1-0.3,0.1-0.3,0.1c-0.1-0.1-0.1-0.1-0.1-0.1c0-0.1,0.2-0.1,0.2-0.1c0.1,0,0.2,0,0.2,0L18.4,3.3z"/>
</g>
<g id="Scree2_64_" enable-background="new    ">
	<path fill="#9A9A90" d="M18,4.6c0,0-0.2-0.2-0.3,0l-0.2,0.1v0.1L17.7,5c0,0,0.3,0,0.3,0L18,4.6L18,4.6z M18,4.8
		c-0.1,0.1-0.3,0.1-0.3,0.1c-0.1-0.1-0.1-0.1-0.1-0.1c0-0.1,0.2-0.1,0.2-0.1c0.1,0,0.2,0,0.2,0L18,4.8z"/>
</g>
<g id="Scree2_63_" enable-background="new    ">
	<path fill="#9A9A90" d="M17.3,7.1c0,0-0.2-0.2-0.3,0l-0.2,0.1v0.1L17,7.5c0,0,0.3,0,0.3,0L17.3,7.1L17.3,7.1z M17.2,7.3
		C17.2,7.5,17,7.4,17,7.4c-0.1-0.1-0.1-0.1-0.1-0.1c0-0.1,0.2-0.1,0.2-0.1c0.1,0,0.2,0,0.2,0L17.2,7.3z"/>
</g>
<g id="Scree2_62_" enable-background="new    ">
	<path fill="#9A9A90" d="M16.7,9.8c0,0-0.2-0.2-0.3,0l-0.2,0.1V10l0.2,0.1c0,0,0.3,0,0.3,0L16.7,9.8L16.7,9.8z M16.6,10
		c-0.1,0.1-0.3,0.1-0.3,0.1c-0.1-0.1-0.1-0.1-0.1-0.1c0-0.1,0.2-0.1,0.2-0.1c0.1,0,0.2,0,0.2,0L16.6,10z"/>
</g>
<g id="Scree2_61_" enable-background="new    ">
	<path fill="#9A9A90" d="M18.5,9.6c0,0-0.2-0.2-0.3,0L18,9.7v0.1l0.2,0.1c0,0,0.3,0,0.3,0L18.5,9.6L18.5,9.6z M18.5,9.8
		c-0.1,0.1-0.3,0.1-0.3,0.1c-0.1-0.1-0.1-0.1-0.1-0.1c0-0.1,0.2-0.1,0.2-0.1c0.1,0,0.2,0,0.2,0L18.5,9.8z"/>
</g>
<g id="Scree2_60_" enable-background="new    ">
	<path fill="#9A9A90" d="M19.3,11.4c0,0-0.2-0.2-0.3,0l-0.2,0.1v0.1l0.2,0.1c0,0,0.3,0,0.3,0L19.3,11.4L19.3,11.4z M19.2,11.6
		c-0.1,0.1-0.3,0.1-0.3,0.1c-0.1-0.1-0.1-0.1-0.1-0.1c0-0.1,0.2-0.1,0.2-0.1c0.1,0,0.2,0,0.2,0L19.2,11.6z"/>
</g>
<g id="Scree2_59_" enable-background="new    ">
	<path fill="#9A9A90" d="M19.9,13.1c0,0-0.2-0.2-0.3,0l-0.2,0.1v0.1l0.2,0.1c0,0,0.3,0,0.3,0L19.9,13.1L19.9,13.1z M19.8,13.3
		c-0.1,0.1-0.3,0.1-0.3,0.1c-0.1-0.1-0.1-0.1-0.1-0.1c0-0.1,0.2-0.1,0.2-0.1c0.1,0,0.2,0,0.2,0L19.8,13.3z"/>
</g>
<g id="Scree2_58_" enable-background="new    ">
	<path fill="#9A9A90" d="M19.4,15.2c0,0-0.2-0.2-0.3,0l-0.2,0.1v0.1l0.2,0.1c0,0,0.3,0,0.3,0L19.4,15.2L19.4,15.2z M19.4,15.4
		c-0.1,0.1-0.3,0.1-0.3,0.1C19,15.4,19,15.4,19,15.4c0-0.1,0.2-0.1,0.2-0.1c0.1,0,0.2,0,0.2,0L19.4,15.4z"/>
</g>
<g id="Scree2_57_" enable-background="new    ">
	<path fill="#9A9A90" d="M18.2,17.5c0,0-0.2-0.2-0.3,0l-0.2,0.1v0.1l0.2,0.1c0,0,0.3,0,0.3,0L18.2,17.5L18.2,17.5z M18.2,17.7
		c-0.1,0.1-0.3,0.1-0.3,0.1c-0.1-0.1-0.1-0.1-0.1-0.1c0-0.1,0.2-0.1,0.2-0.1c0.1,0,0.2,0,0.2,0L18.2,17.7z"/>
</g>
<g id="Scree2_56_" enable-background="new    ">
	<path fill="#9A9A90" d="M16.3,20.5c0,0-0.2-0.2-0.3,0l-0.2,0.1v0.1l0.2,0.1c0,0,0.3,0,0.3,0L16.3,20.5L16.3,20.5z M16.2,20.7
		c-0.1,0.1-0.3,0.1-0.3,0.1c-0.1-0.1-0.1-0.1-0.1-0.1c0-0.1,0.2-0.1,0.2-0.1c0.1,0,0.2,0,0.2,0L16.2,20.7z"/>
</g>
<g id="Scree2_55_" enable-background="new    ">
	<path fill="#9A9A90" d="M20.5,17.1c0,0-0.2-0.2-0.3,0L20,17.2v0.1l0.2,0.1c0,0,0.3,0,0.3,0L20.5,17.1L20.5,17.1z M20.5,17.3
		c-0.1,0.1-0.3,0.1-0.3,0.1c-0.1-0.1-0.1-0.1-0.1-0.1c0-0.1,0.2-0.1,0.2-0.1c0.1,0,0.2,0,0.2,0L20.5,17.3z"/>
</g>
<g id="Scree2_54_" enable-background="new    ">
	<path fill="#9A9A90" d="M21.1,19.4c0,0-0.2-0.2-0.3,0l-0.2,0.1v0.1l0.2,0.1c0,0,0.3,0,0.3,0L21.1,19.4L21.1,19.4z M21.1,19.6
		c-0.1,0.1-0.3,0.1-0.3,0.1c-0.1-0.1-0.1-0.1-0.1-0.1c0-0.1,0.2-0.1,0.2-0.1c0.1,0,0.2,0,0.2,0L21.1,19.6z"/>
</g>
<g id="Scree2_53_" enable-background="new    ">
	<path fill="#9A9A90" d="M21.3,22.2c0,0-0.2-0.2-0.3,0l-0.2,0.1v0.1l0.2,0.1c0,0,0.3,0,0.3,0L21.3,22.2L21.3,22.2z M21.3,22.4
		c-0.1,0.1-0.3,0.1-0.3,0.1c-0.1-0.1-0.1-0.1-0.1-0.1c0-0.1,0.2-0.1,0.2-0.1c0.1,0,0.2,0,0.2,0L21.3,22.4z"/>
</g>
<g id="Scree2_52_" enable-background="new    ">
	<path fill="#9A9A90" d="M21.6,25.1c0,0-0.2-0.2-0.3,0l-0.2,0.1v0.1l0.2,0.1c0,0,0.3,0,0.3,0L21.6,25.1L21.6,25.1z M21.6,25.3
		c-0.1,0.1-0.3,0.1-0.3,0.1c-0.1-0.1-0.1-0.1-0.1-0.1c0-0.1,0.2-0.1,0.2-0.1c0.1,0,0.2,0,0.2,0L21.6,25.3z"/>
</g>
<g id="Scree2_51_" enable-background="new    ">
	<path fill="#9A9A90" d="M23.6,27.9c0,0-0.2-0.2-0.3,0L23.1,28v0.1l0.2,0.1c0,0,0.3,0,0.3,0L23.6,27.9L23.6,27.9z M23.6,28.1
		c-0.1,0.1-0.3,0.1-0.3,0.1C23.2,28,23.2,28,23.2,28c0-0.1,0.2-0.1,0.2-0.1c0.1,0,0.2,0,0.2,0L23.6,28.1z"/>
</g>
<g id="Scree2_50_" enable-background="new    ">
	<path fill="#9A9A90" d="M20.5,28.5c0,0-0.2-0.2-0.3,0L20,28.6v0.1l0.2,0.1c0,0,0.3,0,0.3,0L20.5,28.5L20.5,28.5z M20.5,28.7
		c-0.1,0.1-0.3,0.1-0.3,0.1c-0.1-0.1-0.1-0.1-0.1-0.1c0-0.1,0.2-0.1,0.2-0.1c0.1,0,0.2,0,0.2,0L20.5,28.7z"/>
</g>
<g id="Scree2_49_" enable-background="new    ">
	<path fill="#9A9A90" d="M19.9,31.4c0,0-0.2-0.2-0.3,0l-0.2,0.1v0.1l0.2,0.1c0,0,0.3,0,0.3,0L19.9,31.4L19.9,31.4z M19.8,31.6
		c-0.1,0.1-0.3,0.1-0.3,0.1c-0.1-0.1-0.1-0.1-0.1-0.1c0-0.1,0.2-0.1,0.2-0.1c0.1,0,0.2,0,0.2,0L19.8,31.6z"/>
</g>
<g id="Scree2_48_" enable-background="new    ">
	<path fill="#9A9A90" d="M9,34.3c0,0-0.2-0.2-0.3,0l-0.2,0.1v0.1l0.2,0.1c0,0,0.3,0,0.3,0L9,34.3L9,34.3z M9,34.5
		c-0.1,0.1-0.3,0.1-0.3,0.1c-0.1-0.1-0.1-0.1-0.1-0.1c0-0.1,0.2-0.1,0.2-0.1c0.1,0,0.2,0,0.2,0L9,34.5z"/>
</g>
<g id="Scree2_47_" enable-background="new    ">
	<path fill="#9A9A90" d="M39,34.9c0,0-0.2-0.2-0.3,0L38.5,35v0.1l0.2,0.1c0,0,0.3,0,0.3,0L39,34.9L39,34.9z M39,35.1
		c-0.1,0.1-0.3,0.1-0.3,0.1C38.6,35,38.6,35,38.6,35c0-0.1,0.2-0.1,0.2-0.1c0.1,0,0.2,0,0.2,0L39,35.1z"/>
</g>
<g id="Scree2_46_" enable-background="new    ">
	<path fill="#9A9A90" d="M18.2,34.8c0,0-0.2-0.2-0.3,0l-0.2,0.1V35l0.2,0.1c0,0,0.3,0,0.3,0L18.2,34.8L18.2,34.8z M18.2,35
		c-0.1,0.1-0.3,0.1-0.3,0.1c-0.1-0.1-0.1-0.1-0.1-0.1c0-0.1,0.2-0.1,0.2-0.1c0.1,0,0.2,0,0.2,0L18.2,35z"/>
</g>
<g id="Scree2_45_" enable-background="new    ">
	<path fill="#9A9A90" d="M22.4,32.2c0,0-0.2-0.2-0.3,0l-0.2,0.1v0.1l0.2,0.1c0,0,0.3,0,0.3,0L22.4,32.2L22.4,32.2z M22.3,32.4
		c-0.1,0.1-0.3,0.1-0.3,0.1C22,32.4,22,32.4,22,32.4c0-0.1,0.2-0.1,0.2-0.1c0.1,0,0.2,0,0.2,0L22.3,32.4z"/>
</g>
<g id="Scree2_44_" enable-background="new    ">
	<path fill="#9A9A90" d="M13.1,32.7c0,0-0.2-0.2-0.3,0l-0.2,0.1V33l0.2,0.1c0,0,0.3,0,0.3,0L13.1,32.7L13.1,32.7z M13,32.9
		C13,33,12.8,33,12.8,33c-0.1-0.1-0.1-0.1-0.1-0.1c0-0.1,0.2-0.1,0.2-0.1c0.1,0,0.2,0,0.2,0L13,32.9z"/>
</g>
<g id="Scree2_43_" enable-background="new    ">
	<path fill="#9A9A90" d="M5.2,32.9c0,0-0.2-0.2-0.3,0L4.7,33v0.1l0.2,0.1c0,0,0.3,0,0.3,0L5.2,32.9L5.2,32.9z M5.2,33.1
		c-0.1,0.1-0.3,0.1-0.3,0.1C4.8,33,4.8,33,4.8,33c0-0.1,0.2-0.1,0.2-0.1c0.1,0,0.2,0,0.2,0L5.2,33.1z"/>
</g>
<g id="Scree2_42_" enable-background="new    ">
	<path fill="#9A9A90" d="M2.2,30.2c0,0-0.2-0.2-0.3,0l-0.2,0.1v0.1l0.2,0.1c0,0,0.3,0,0.3,0L2.2,30.2L2.2,30.2z M2.2,30.4
		c-0.1,0.1-0.3,0.1-0.3,0.1c-0.1-0.1-0.1-0.1-0.1-0.1c0-0.1,0.2-0.1,0.2-0.1c0.1,0,0.2,0,0.2,0L2.2,30.4z"/>
</g>
<g id="Scree2_41_" enable-background="new    ">
	<path fill="#9A9A90" d="M2.7,26.1c0,0-0.2-0.2-0.3,0l-0.2,0.1v0.1l0.2,0.1c0,0,0.3,0,0.3,0L2.7,26.1L2.7,26.1z M2.6,26.3
		c-0.1,0.1-0.3,0.1-0.3,0.1c-0.1-0.1-0.1-0.1-0.1-0.1c0-0.1,0.2-0.1,0.2-0.1c0.1,0,0.2,0,0.2,0L2.6,26.3z"/>
</g>
<g id="Scree2_40_" enable-background="new    ">
	<path fill="#9A9A90" d="M49.3,26c0,0-0.2-0.2-0.3,0l-0.2,0.1v0.1l0.2,0.1c0,0,0.3,0,0.3,0L49.3,26L49.3,26z M49.2,26.2
		c-0.1,0.1-0.3,0.1-0.3,0.1c-0.1-0.1-0.1-0.1-0.1-0.1C48.9,26,49,26,49,26c0.1,0,0.2,0,0.2,0L49.2,26.2z"/>
</g>
<g id="Scree2_39_" enable-background="new    ">
	<path fill="#9A9A90" d="M49.3,33.7c0,0-0.2-0.2-0.3,0l-0.2,0.1V34l0.2,0.1c0,0,0.3,0,0.3,0L49.3,33.7L49.3,33.7z M49.3,33.9
		C49.2,34,49,34,49,34c-0.1-0.1-0.1-0.1-0.1-0.1c0-0.1,0.2-0.1,0.2-0.1c0.1,0,0.2,0,0.2,0L49.3,33.9z"/>
</g>
<g id="Scree2_38_" enable-background="new    ">
	<path fill="#9A9A90" d="M46.1,30.2c0,0-0.2-0.2-0.3,0l-0.2,0.1v0.1l0.2,0.1c0,0,0.3,0,0.3,0L46.1,30.2L46.1,30.2z M46,30.4
		c-0.1,0.1-0.3,0.1-0.3,0.1c-0.1-0.1-0.1-0.1-0.1-0.1c0-0.1,0.2-0.1,0.2-0.1c0.1,0,0.2,0,0.2,0L46,30.4z"/>
</g>
<g id="Scree2_37_" enable-background="new    ">
	<path fill="#9A9A90" d="M41.5,29.5c0,0-0.2-0.2-0.3,0l-0.2,0.1v0.1l0.2,0.1c0,0,0.3,0,0.3,0L41.5,29.5L41.5,29.5z M41.4,29.7
		c-0.1,0.1-0.3,0.1-0.3,0.1c-0.1-0.1-0.1-0.1-0.1-0.1c0-0.1,0.2-0.1,0.2-0.1c0.1,0,0.2,0,0.2,0L41.4,29.7z"/>
</g>
<g id="Scree2_36_" enable-background="new    ">
	<path fill="#9A9A90" d="M26.3,3.9c0,0-0.2-0.2-0.3,0L25.8,4v0.1L26,4.3c0,0,0.3,0,0.3,0L26.3,3.9L26.3,3.9z M26.3,4.1
		C26.2,4.2,26,4.2,26,4.2C25.9,4.1,25.9,4,25.9,4c0-0.1,0.2-0.1,0.2-0.1c0.1,0,0.2,0,0.2,0L26.3,4.1z"/>
</g>
<g id="Scree2_35_" enable-background="new    ">
	<path fill="#9A9A90" d="M23.7,7.1c0,0-0.2-0.2-0.3,0l-0.2,0.1v0.1l0.2,0.1c0,0,0.3,0,0.3,0L23.7,7.1L23.7,7.1z M23.6,7.3
		c-0.1,0.1-0.3,0.1-0.3,0.1c-0.1-0.1-0.1-0.1-0.1-0.1c0-0.1,0.2-0.1,0.2-0.1c0.1,0,0.2,0,0.2,0L23.6,7.3z"/>
</g>
<g id="Scree2_34_" enable-background="new    ">
	<path fill="#9A9A90" d="M26.7,7.7c0,0-0.2-0.2-0.3,0l-0.2,0.1v0.1L26.3,8c0,0,0.3,0,0.3,0L26.7,7.7L26.7,7.7z M26.6,7.9
		c-0.1,0.1-0.3,0.1-0.3,0.1c-0.1-0.1-0.1-0.1-0.1-0.1c0-0.1,0.2-0.1,0.2-0.1c0.1,0,0.2,0,0.2,0L26.6,7.9z"/>
</g>
<g id="Scree2_33_" enable-background="new    ">
	<path fill="#9A9A90" d="M28.8,6.5c0,0-0.2-0.2-0.3,0l-0.2,0.1v0.1l0.2,0.1c0,0,0.3,0,0.3,0L28.8,6.5L28.8,6.5z M28.7,6.7
		c-0.1,0.1-0.3,0.1-0.3,0.1c-0.1-0.1-0.1-0.1-0.1-0.1c0-0.1,0.2-0.1,0.2-0.1c0.1,0,0.2,0,0.2,0L28.7,6.7z"/>
</g>
<g id="Scree2_32_" enable-background="new    ">
	<path fill="#9A9A90" d="M22.5,8.9c0,0-0.2-0.2-0.3,0L21.9,9v0.1l0.2,0.1c0,0,0.3,0,0.3,0L22.5,8.9L22.5,8.9z M22.4,9.1
		c-0.1,0.1-0.3,0.1-0.3,0.1C22,9.1,22.1,9,22.1,9c0-0.1,0.2-0.1,0.2-0.1c0.1,0,0.2,0,0.2,0L22.4,9.1z"/>
</g>
<g id="Scree2_31_" enable-background="new    ">
	<path fill="#9A9A90" d="M24.8,9.2c0,0-0.2-0.2-0.3,0l-0.2,0.1v0.1l0.2,0.1c0,0,0.3,0,0.3,0L24.8,9.2L24.8,9.2z M24.7,9.4
		c-0.1,0.1-0.3,0.1-0.3,0.1c-0.1-0.1-0.1-0.1-0.1-0.1c0-0.1,0.2-0.1,0.2-0.1c0.1,0,0.2,0,0.2,0L24.7,9.4z"/>
</g>
<g id="Scree2_30_" enable-background="new    ">
	<path fill="#9A9A90" d="M27.7,9.6c0,0-0.2-0.2-0.3,0l-0.2,0.1v0.1l0.2,0.1c0,0,0.3,0,0.3,0L27.7,9.6L27.7,9.6z M27.6,9.8
		c-0.1,0.1-0.3,0.1-0.3,0.1c-0.1-0.1-0.1-0.1-0.1-0.1c0-0.1,0.2-0.1,0.2-0.1c0.1,0,0.2,0,0.2,0L27.6,9.8z"/>
</g>
<g id="Scree2_29_" enable-background="new    ">
	<path fill="#9A9A90" d="M30.1,8.3c0,0-0.2-0.2-0.3,0l-0.2,0.1v0.1l0.2,0.1c0,0,0.3,0,0.3,0L30.1,8.3L30.1,8.3z M30,8.5
		c-0.1,0.1-0.3,0.1-0.3,0.1c-0.1-0.1-0.1-0.1-0.1-0.1c0-0.1,0.2-0.1,0.2-0.1c0.1,0,0.2,0,0.2,0L30,8.5z"/>
</g>
<g id="Scree2_28_" enable-background="new    ">
	<path fill="#9A9A90" d="M21.9,11.8c0,0-0.2-0.2-0.3,0l-0.2,0.1V12l0.2,0.1c0,0,0.3,0,0.3,0L21.9,11.8L21.9,11.8z M21.8,12
		c-0.1,0.1-0.3,0.1-0.3,0.1c-0.1-0.1-0.1-0.1-0.1-0.1c0-0.1,0.2-0.1,0.2-0.1c0.1,0,0.2,0,0.2,0L21.8,12z"/>
</g>
<g id="Scree2_27_" enable-background="new    ">
	<path fill="#9A9A90" d="M24.8,11.7c0,0-0.2-0.2-0.3,0l-0.2,0.1v0.1l0.2,0.1c0,0,0.3,0,0.3,0L24.8,11.7L24.8,11.7z M24.7,11.9
		c-0.1,0.1-0.3,0.1-0.3,0.1c-0.1-0.1-0.1-0.1-0.1-0.1c0-0.1,0.2-0.1,0.2-0.1c0.1,0,0.2,0,0.2,0L24.7,11.9z"/>
</g>
<g id="Scree2_26_" enable-background="new    ">
	<path fill="#9A9A90" d="M28.4,11.3c0,0-0.2-0.2-0.3,0l-0.2,0.1v0.1l0.2,0.1c0,0,0.3,0,0.3,0L28.4,11.3L28.4,11.3z M28.3,11.5
		c-0.1,0.1-0.3,0.1-0.3,0.1C28,11.5,28,11.4,28,11.4c0-0.1,0.2-0.1,0.2-0.1c0.1,0,0.2,0,0.2,0L28.3,11.5z"/>
</g>
<g id="Scree2_25_" enable-background="new    ">
	<path fill="#9A9A90" d="M32.9,12c0,0-0.2-0.2-0.3,0l-0.2,0.1v0.1l0.2,0.1c0,0,0.3,0,0.3,0L32.9,12L32.9,12z M32.8,12.2
		c-0.1,0.1-0.3,0.1-0.3,0.1c-0.1-0.1-0.1-0.1-0.1-0.1c0-0.1,0.2-0.1,0.2-0.1c0.1,0,0.2,0,0.2,0L32.8,12.2z"/>
</g>
<g id="Scree2_24_" enable-background="new    ">
	<path fill="#9A9A90" d="M22.8,13.6c0,0-0.2-0.2-0.3,0l-0.2,0.1v0.1l0.2,0.1c0,0,0.3,0,0.3,0L22.8,13.6L22.8,13.6z M22.7,13.8
		c-0.1,0.1-0.3,0.1-0.3,0.1c-0.1-0.1-0.1-0.1-0.1-0.1c0-0.1,0.2-0.1,0.2-0.1c0.1,0,0.2,0,0.2,0L22.7,13.8z"/>
</g>
<g id="Scree2_23_" enable-background="new    ">
	<path fill="#9A9A90" d="M26.5,13.5c0,0-0.2-0.2-0.3,0L26,13.6v0.1l0.2,0.1c0,0,0.3,0,0.3,0L26.5,13.5L26.5,13.5z M26.5,13.7
		c-0.1,0.1-0.3,0.1-0.3,0.1c-0.1-0.1-0.1-0.1-0.1-0.1c0-0.1,0.2-0.1,0.2-0.1c0.1,0,0.2,0,0.2,0L26.5,13.7z"/>
</g>
<g id="Scree2_22_" enable-background="new    ">
	<path fill="#9A9A90" d="M29.8,13.7c0,0-0.2-0.2-0.3,0l-0.2,0.1V14l0.2,0.1c0,0,0.3,0,0.3,0L29.8,13.7L29.8,13.7z M29.8,13.9
		C29.7,14,29.5,14,29.5,14c-0.1-0.1-0.1-0.1-0.1-0.1c0-0.1,0.2-0.1,0.2-0.1c0.1,0,0.2,0,0.2,0L29.8,13.9z"/>
</g>
<g id="Scree2_21_" enable-background="new    ">
	<path fill="#9A9A90" d="M24.5,15.9c0,0-0.2-0.2-0.3,0L23.9,16v0.1l0.2,0.1c0,0,0.3,0,0.3,0L24.5,15.9L24.5,15.9z M24.4,16.1
		c-0.1,0.1-0.3,0.1-0.3,0.1C24,16,24.1,16,24.1,16c0-0.1,0.2-0.1,0.2-0.1c0.1,0,0.2,0,0.2,0L24.4,16.1z"/>
</g>
<g id="Scree2_20_" enable-background="new    ">
	<path fill="#9A9A90" d="M23.2,18.5c0,0-0.2-0.2-0.3,0l-0.2,0.1v0.1l0.2,0.1c0,0,0.3,0,0.3,0L23.2,18.5L23.2,18.5z M23.2,18.7
		c-0.1,0.1-0.3,0.1-0.3,0.1c-0.1-0.1-0.1-0.1-0.1-0.1c0-0.1,0.2-0.1,0.2-0.1c0.1,0,0.2,0,0.2,0L23.2,18.7z"/>
</g>
<g id="Scree2_19_" enable-background="new    ">
	<path fill="#9A9A90" d="M26.8,16.7c0,0-0.2-0.2-0.3,0l-0.2,0.1v0.1l0.2,0.1c0,0,0.3,0,0.3,0L26.8,16.7L26.8,16.7z M26.7,16.9
		c-0.1,0.1-0.3,0.1-0.3,0.1c-0.1-0.1-0.1-0.1-0.1-0.1c0-0.1,0.2-0.1,0.2-0.1c0.1,0,0.2,0,0.2,0L26.7,16.9z"/>
</g>
<g id="Scree2_18_" enable-background="new    ">
	<path fill="#9A9A90" d="M25.5,20.4c0,0-0.2-0.2-0.3,0l-0.2,0.1v0.1l0.2,0.1c0,0,0.3,0,0.3,0L25.5,20.4L25.5,20.4z M25.4,20.6
		c-0.1,0.1-0.3,0.1-0.3,0.1c-0.1-0.1-0.1-0.1-0.1-0.1c0-0.1,0.2-0.1,0.2-0.1c0.1,0,0.2,0,0.2,0L25.4,20.6z"/>
</g>
<g id="Scree2_17_" enable-background="new    ">
	<path fill="#9A9A90" d="M45.8,5.5c0,0-0.2-0.2-0.3,0l-0.2,0.1v0.1l0.2,0.1c0,0,0.3,0,0.3,0L45.8,5.5L45.8,5.5z M45.8,5.7
		c-0.1,0.1-0.3,0.1-0.3,0.1c-0.1-0.1-0.1-0.1-0.1-0.1c0-0.1,0.2-0.1,0.2-0.1c0.1,0,0.2,0,0.2,0L45.8,5.7z"/>
</g>
<g id="Scree2_16_" enable-background="new    ">
	<path fill="#9A9A90" d="M43.7,7.9c0,0-0.2-0.2-0.3,0L43.1,8v0.1l0.2,0.1c0,0,0.3,0,0.3,0L43.7,7.9L43.7,7.9z M43.6,8.1
		c-0.1,0.1-0.3,0.1-0.3,0.1C43.2,8,43.2,8,43.2,8c0-0.1,0.2-0.1,0.2-0.1c0.1,0,0.2,0,0.2,0L43.6,8.1z"/>
</g>
<g id="Scree2_15_" enable-background="new    ">
	<path fill="#9A9A90" d="M38.5,8.9c0,0-0.2-0.2-0.3,0L38,9v0.1l0.2,0.1c0,0,0.3,0,0.3,0L38.5,8.9L38.5,8.9z M38.5,9.1
		c-0.1,0.1-0.3,0.1-0.3,0.1C38.1,9.1,38.1,9,38.1,9c0-0.1,0.2-0.1,0.2-0.1c0.1,0,0.2,0,0.2,0L38.5,9.1z"/>
</g>
<g id="Scree2_14_" enable-background="new    ">
	<path fill="#9A9A90" d="M41.7,10c0,0-0.2-0.2-0.3,0l-0.2,0.1v0.1l0.2,0.1c0,0,0.3,0,0.3,0L41.7,10L41.7,10z M41.7,10.2
		c-0.1,0.1-0.3,0.1-0.3,0.1c-0.1-0.1-0.1-0.1-0.1-0.1c0-0.1,0.2-0.1,0.2-0.1c0.1,0,0.2,0,0.2,0L41.7,10.2z"/>
</g>
<g id="Scree2_13_" enable-background="new    ">
	<path fill="#9A9A90" d="M45.3,10.2c0,0-0.2-0.2-0.3,0l-0.2,0.1v0.1l0.2,0.1c0,0,0.3,0,0.3,0L45.3,10.2L45.3,10.2z M45.2,10.4
		c-0.1,0.1-0.3,0.1-0.3,0.1c-0.1-0.1-0.1-0.1-0.1-0.1c0-0.1,0.2-0.1,0.2-0.1c0.1,0,0.2,0,0.2,0L45.2,10.4z"/>
</g>
<g id="Scree2_12_" enable-background="new    ">
	<path fill="#9A9A90" d="M47.7,8.2c0,0-0.2-0.2-0.3,0l-0.2,0.1v0.1l0.2,0.1c0,0,0.3,0,0.3,0L47.7,8.2L47.7,8.2z M47.7,8.4
		c-0.1,0.1-0.3,0.1-0.3,0.1c-0.1-0.1-0.1-0.1-0.1-0.1c0-0.1,0.2-0.1,0.2-0.1c0.1,0,0.2,0,0.2,0L47.7,8.4z"/>
</g>
<g id="Scree2_11_" enable-background="new    ">
	<path fill="#9A9A90" d="M43.2,12.7c0,0-0.2-0.2-0.3,0l-0.2,0.1v0.1l0.2,0.1c0,0,0.3,0,0.3,0L43.2,12.7L43.2,12.7z M43.2,12.9
		c-0.1,0.1-0.3,0.1-0.3,0.1c-0.1-0.1-0.1-0.1-0.1-0.1c0-0.1,0.2-0.1,0.2-0.1c0.1,0,0.2,0,0.2,0L43.2,12.9z"/>
</g>
<g id="Scree2_10_" enable-background="new    ">
	<path fill="#9A9A90" d="M47.2,11.7c0,0-0.2-0.2-0.3,0l-0.2,0.1v0.1l0.2,0.1c0,0,0.3,0,0.3,0L47.2,11.7L47.2,11.7z M47.1,11.9
		c-0.1,0.1-0.3,0.1-0.3,0.1c-0.1-0.1-0.1-0.1-0.1-0.1c0-0.1,0.2-0.1,0.2-0.1c0.1,0,0.2,0,0.2,0L47.1,11.9z"/>
</g>
<g id="Scree2_9_" enable-background="new    ">
	<path fill="#9A9A90" d="M40.5,14.4c0,0-0.2-0.2-0.3,0l-0.2,0.1v0.1l0.2,0.1c0,0,0.3,0,0.3,0L40.5,14.4L40.5,14.4z M40.4,14.6
		c-0.1,0.1-0.3,0.1-0.3,0.1c-0.1-0.1-0.1-0.1-0.1-0.1c0-0.1,0.2-0.1,0.2-0.1c0.1,0,0.2,0,0.2,0L40.4,14.6z"/>
</g>
<g id="Scree2_8_" enable-background="new    ">
	<path fill="#9A9A90" d="M43.5,15c0,0-0.2-0.2-0.3,0L43,15.1v0.1l0.2,0.1c0,0,0.3,0,0.3,0L43.5,15L43.5,15z M43.5,15.2
		c-0.1,0.1-0.3,0.1-0.3,0.1c-0.1-0.1-0.1-0.1-0.1-0.1c0-0.1,0.2-0.1,0.2-0.1c0.1,0,0.2,0,0.2,0L43.5,15.2z"/>
</g>
<g id="Scree2_7_" enable-background="new    ">
	<path fill="#9A9A90" d="M46.4,14.2c0,0-0.2-0.2-0.3,0l-0.2,0.1v0.1l0.2,0.1c0,0,0.3,0,0.3,0L46.4,14.2L46.4,14.2z M46.3,14.4
		c-0.1,0.1-0.3,0.1-0.3,0.1C46,14.4,46,14.4,46,14.4c0-0.1,0.2-0.1,0.2-0.1c0.1,0,0.2,0,0.2,0L46.3,14.4z"/>
</g>
<g id="Scree2_6_" enable-background="new    ">
	<path fill="#9A9A90" d="M40.7,16.9c0,0-0.2-0.2-0.3,0L40.1,17v0.1l0.2,0.1c0,0,0.3,0,0.3,0L40.7,16.9L40.7,16.9z M40.6,17.1
		c-0.1,0.1-0.3,0.1-0.3,0.1C40.2,17,40.2,17,40.2,17c0-0.1,0.2-0.1,0.2-0.1c0.1,0,0.2,0,0.2,0L40.6,17.1z"/>
</g>
<g id="Scree2_5_" enable-background="new    ">
	<path fill="#9A9A90" d="M44.6,17.1c0,0-0.2-0.2-0.3,0l-0.2,0.1v0.1l0.2,0.1c0,0,0.3,0,0.3,0L44.6,17.1L44.6,17.1z M44.5,17.3
		c-0.1,0.1-0.3,0.1-0.3,0.1c-0.1-0.1-0.1-0.1-0.1-0.1c0-0.1,0.2-0.1,0.2-0.1c0.1,0,0.2,0,0.2,0L44.5,17.3z"/>
</g>
<g id="Scree2_4_" enable-background="new    ">
	<path fill="#9A9A90" d="M48.4,15.6c0,0-0.2-0.2-0.3,0l-0.2,0.1v0.1l0.2,0.1c0,0,0.3,0,0.3,0L48.4,15.6L48.4,15.6z M48.3,15.8
		c-0.1,0.1-0.3,0.1-0.3,0.1C48,15.8,48,15.7,48,15.7c0-0.1,0.2-0.1,0.2-0.1c0.1,0,0.2,0,0.2,0L48.3,15.8z"/>
</g>
<g id="Scree2_3_" enable-background="new    ">
	<path fill="#9A9A90" d="M46.9,18.5c0,0-0.2-0.2-0.3,0l-0.2,0.1v0.1l0.2,0.1c0,0,0.3,0,0.3,0L46.9,18.5L46.9,18.5z M46.8,18.7
		c-0.1,0.1-0.3,0.1-0.3,0.1c-0.1-0.1-0.1-0.1-0.1-0.1c0-0.1,0.2-0.1,0.2-0.1c0.1,0,0.2,0,0.2,0L46.8,18.7z"/>
</g>
<g id="Scree2_2_" enable-background="new    ">
	<path fill="#9A9A90" d="M42.7,18.9c0,0-0.2-0.2-0.3,0L42.1,19v0.1l0.2,0.1c0,0,0.3,0,0.3,0L42.7,18.9L42.7,18.9z M42.6,19.1
		c-0.1,0.1-0.3,0.1-0.3,0.1c-0.1-0.1-0.1-0.1-0.1-0.1c0-0.1,0.2-0.1,0.2-0.1c0.1,0,0.2,0,0.2,0L42.6,19.1z"/>
</g>
<g id="Scree2_1_" enable-background="new    ">
	<path fill="#9A9A90" d="M49.8,18c0,0-0.2-0.2-0.3,0l-0.2,0.1v0.1l0.2,0.1c0,0,0.3,0,0.3,0L49.8,18L49.8,18z M49.8,18.2
		c-0.1,0.1-0.3,0.1-0.3,0.1c-0.1-0.1-0.1-0.1-0.1-0.1c0-0.1,0.2-0.1,0.2-0.1c0.1,0,0.2,0,0.2,0L49.8,18.2z"/>
</g>
<g id="Scree2" enable-background="new    ">
	<path fill="#9A9A90" d="M44.5,26.7c0,0-0.2-0.2-0.3,0l-0.2,0.1V27l0.2,0.1c0,0,0.3,0,0.3,0L44.5,26.7L44.5,26.7z M44.4,26.9
		C44.4,27,44.1,27,44.1,27c-0.1-0.1-0.1-0.1-0.1-0.1c0-0.1,0.2-0.1,0.2-0.1c0.1,0,0.2,0,0.2,0L44.4,26.9z"/>
</g>
<g id="roughgrass_x5F_bd_23_">
	<path fill="#6BBE66" d="M6.9,40.2L6.9,40.2L6.9,40.2l-0.1,0.1c0,0-0.1,0-0.1,0l-0.2-0.2l0-0.1l0,0l0,0c0,0,0.1,0,0.1,0L6.9,40.2z"
		/>
	<path fill="#6BBE66" d="M8,39.9C8,39.9,8,39.9,8,39.9C8,39.9,8,39.9,8,39.9c-0.1-0.1-0.2-0.2-0.2-0.2c0-0.1,0.1-0.3,0.1-0.3
		c0-0.1,0-0.4,0-0.4C8.3,39.5,8,39.9,8,39.9z"/>
	<path fill="#6BBE66" d="M8,39.9c0,0,0.1,0.1,0.1,0.2l-0.1,0l-0.1,0C8,40,8,40,8,39.9z"/>
	<path fill="#6BBE66" d="M9.1,39.5l-0.2,0.2c0,0-0.1,0.1-0.2,0.3l0,0.1c0,0-0.1,0-0.2,0c0,0,0.1-0.1,0.1-0.3c0,0,0-0.5,0.3-0.6
		c0,0,0.2-0.1,0.1,0c0,0-0.1,0.2-0.2,0.4C8.7,39.7,8.9,39.5,9.1,39.5z"/>
	<path fill="#6BBE66" d="M10.1,40L10.1,40l-0.2,0.3c0,0-0.1,0-0.1,0l0,0l0,0l0-0.1L9.9,40C9.9,39.9,10,39.9,10.1,40L10.1,40L10.1,40
		z"/>
	<path fill="#6BBE66" d="M7.4,39.7l0.1,0.3l0,0.1l0,0c0,0,0,0-0.1,0c0,0-0.1,0-0.1,0l-0.1-0.3v-0.1l0,0L7.4,39.7
		C7.3,39.7,7.4,39.7,7.4,39.7z"/>
	<path fill="#6BBE66" d="M9.4,39.7L9.4,39.7L9.4,39.7l0.1,0.1l-0.1,0.3c0,0,0,0.1-0.1,0c0,0,0,0-0.1,0l0,0l0-0.1L9.4,39.7
		C9.3,39.7,9.3,39.7,9.4,39.7z"/>
</g>
<g id="roughgrass_x5F_bd_25_" enable-background="new    ">
	<path fill="#6BBE66" d="M9.6,37.9L9.6,37.9L9.6,37.9L9.5,38c0,0-0.1,0-0.1,0l-0.2-0.2l0-0.1l0,0l0,0c0,0,0.1,0,0.1,0L9.6,37.9z"/>
	<path fill="#6BBE66" d="M10.7,37.6C10.7,37.6,10.7,37.6,10.7,37.6C10.7,37.6,10.7,37.6,10.7,37.6c-0.1-0.1-0.2-0.2-0.2-0.2
		c0-0.1,0.1-0.3,0.1-0.3c0-0.1,0-0.4,0-0.4C10.9,37.3,10.7,37.6,10.7,37.6z"/>
	<path fill="#6BBE66" d="M10.7,37.6c0,0,0.1,0.1,0.1,0.2l-0.1,0l-0.1,0C10.6,37.8,10.7,37.7,10.7,37.6z"/>
	<path fill="#6BBE66" d="M11.8,37.2l-0.2,0.2c0,0-0.1,0.1-0.2,0.3l0,0.1c0,0-0.1,0-0.2,0c0,0,0.1-0.1,0.1-0.3c0,0,0-0.5,0.3-0.6
		c0,0,0.2-0.1,0.1,0c0,0-0.1,0.2-0.2,0.4C11.4,37.4,11.5,37.2,11.8,37.2z"/>
	<path fill="#6BBE66" d="M12.7,37.7L12.7,37.7L12.6,38c0,0-0.1,0-0.1,0l0,0l0,0l0-0.1l0.2-0.2C12.6,37.7,12.6,37.6,12.7,37.7
		L12.7,37.7L12.7,37.7z"/>
	<path fill="#6BBE66" d="M10.1,37.5l0.1,0.3l0,0.1l0,0c0,0,0,0-0.1,0c0,0-0.1,0-0.1,0l-0.1-0.3v-0.1l0,0L10.1,37.5
		C10,37.4,10,37.4,10.1,37.5z"/>
	<path fill="#6BBE66" d="M12,37.4L12,37.4L12,37.4l0.1,0.1L12,37.9c0,0,0,0.1-0.1,0c0,0,0,0-0.1,0l0,0l0-0.1L12,37.4
		C12,37.4,12,37.4,12,37.4z"/>
</g>
<g id="roughgrass_x5F_bd_24_" enable-background="new    ">
	<path fill="#6BBE66" d="M5.1,37.1L5.1,37.1L5.1,37.1l-0.1,0.1c0,0-0.1,0-0.1,0L4.8,37l0-0.1l0,0l0,0c0,0,0.1,0,0.1,0L5.1,37.1z"/>
	<path fill="#6BBE66" d="M6.3,36.9C6.3,36.9,6.3,36.9,6.3,36.9C6.3,36.9,6.3,36.9,6.3,36.9c-0.1-0.1-0.2-0.2-0.2-0.2
		c0-0.1,0.1-0.3,0.1-0.3c0-0.1,0-0.4,0-0.4C6.5,36.5,6.3,36.9,6.3,36.9z"/>
	<path fill="#6BBE66" d="M6.3,36.9c0,0,0.1,0.1,0.1,0.2l-0.1,0l-0.1,0C6.2,37,6.2,37,6.3,36.9z"/>
	<path fill="#6BBE66" d="M7.3,36.4l-0.2,0.2c0,0-0.1,0.1-0.2,0.3l0,0.1c0,0-0.1,0-0.2,0c0,0,0.1-0.1,0.1-0.3c0,0,0-0.5,0.3-0.6
		c0,0,0.2-0.1,0.1,0c0,0-0.1,0.2-0.2,0.4C7,36.6,7.1,36.4,7.3,36.4z"/>
	<path fill="#6BBE66" d="M8.3,37L8.3,37l-0.2,0.3c0,0-0.1,0-0.1,0l0,0l0,0l0-0.1l0.2-0.2C8.2,36.9,8.2,36.9,8.3,37L8.3,37L8.3,37z"
		/>
	<path fill="#6BBE66" d="M5.6,36.7l0.1,0.3l0,0.1l0,0c0,0,0,0-0.1,0c0,0-0.1,0-0.1,0l-0.1-0.3v-0.1l0,0L5.6,36.7
		C5.6,36.6,5.6,36.7,5.6,36.7z"/>
	<path fill="#6BBE66" d="M7.6,36.7L7.6,36.7L7.6,36.7l0.1,0.1l-0.1,0.3c0,0,0,0.1-0.1,0c0,0,0,0-0.1,0l0,0l0-0.1L7.6,36.7
		C7.5,36.7,7.6,36.6,7.6,36.7z"/>
</g>
<g id="roughgrass_x5F_bd_17_" enable-background="new    ">
	<path fill="#6BBE66" d="M25.1,34.9L25.1,34.9L25.1,34.9L25,35c0,0-0.1,0-0.1,0l-0.2-0.2l0-0.1l0,0l0,0c0,0,0.1,0,0.1,0L25.1,34.9z"
		/>
	<path fill="#6BBE66" d="M26.2,34.6C26.2,34.6,26.2,34.6,26.2,34.6C26.2,34.6,26.2,34.6,26.2,34.6c-0.1-0.1-0.2-0.2-0.2-0.2
		c0-0.1,0.1-0.3,0.1-0.3c0-0.1,0-0.4,0-0.4C26.5,34.2,26.2,34.6,26.2,34.6z"/>
	<path fill="#6BBE66" d="M26.2,34.6c0,0,0.1,0.1,0.1,0.2l-0.1,0l-0.1,0C26.2,34.8,26.2,34.7,26.2,34.6z"/>
	<path fill="#6BBE66" d="M27.3,34.2L27,34.4c0,0-0.1,0.1-0.2,0.3l0,0.1c0,0-0.1,0-0.2,0c0,0,0.1-0.1,0.1-0.3c0,0,0-0.5,0.3-0.6
		c0,0,0.2-0.1,0.1,0c0,0-0.1,0.2-0.2,0.4C26.9,34.4,27.1,34.2,27.3,34.2z"/>
	<path fill="#6BBE66" d="M28.3,34.7L28.3,34.7L28.1,35c0,0-0.1,0-0.1,0l0,0l0,0l0-0.1l0.2-0.2C28.1,34.7,28.1,34.6,28.3,34.7
		L28.3,34.7L28.3,34.7z"/>
	<path fill="#6BBE66" d="M25.6,34.5l0.1,0.3l0,0.1l0,0c0,0,0,0-0.1,0c0,0-0.1,0-0.1,0l-0.1-0.3v-0.1l0,0L25.6,34.5
		C25.5,34.4,25.6,34.4,25.6,34.5z"/>
	<path fill="#6BBE66" d="M27.5,34.4L27.5,34.4L27.5,34.4l0.1,0.1l-0.1,0.3c0,0,0,0.1-0.1,0c0,0,0,0-0.1,0l0,0l0-0.1L27.5,34.4
		C27.5,34.4,27.5,34.4,27.5,34.4z"/>
</g>
<g id="roughgrass_x5F_bd_16_" enable-background="new    ">
	<path fill="#6BBE66" d="M27.7,32.6L27.7,32.6L27.7,32.6l-0.1,0.1c0,0-0.1,0-0.1,0l-0.2-0.2l0-0.1l0,0l0,0c0,0,0.1,0,0.1,0
		L27.7,32.6z"/>
	<path fill="#6BBE66" d="M28.9,32.4C28.9,32.4,28.9,32.4,28.9,32.4C28.9,32.4,28.9,32.3,28.9,32.4c-0.1-0.1-0.2-0.2-0.2-0.2
		c0-0.1,0.1-0.3,0.1-0.3c0-0.1,0-0.4,0-0.4C29.1,32,28.9,32.4,28.9,32.4z"/>
	<path fill="#6BBE66" d="M28.9,32.4c0,0,0.1,0.1,0.1,0.2l-0.1,0l-0.1,0C28.8,32.5,28.8,32.4,28.9,32.4z"/>
	<path fill="#6BBE66" d="M29.9,31.9l-0.2,0.2c0,0-0.1,0.1-0.2,0.3l0,0.1c0,0-0.1,0-0.2,0c0,0,0.1-0.1,0.1-0.3c0,0,0-0.5,0.3-0.6
		c0,0,0.2-0.1,0.1,0c0,0-0.1,0.2-0.2,0.4C29.6,32.1,29.7,31.9,29.9,31.9z"/>
	<path fill="#6BBE66" d="M30.9,32.5L30.9,32.5l-0.2,0.3c0,0-0.1,0-0.1,0l0,0l0,0l0-0.1l0.2-0.2C30.8,32.4,30.8,32.4,30.9,32.5
		L30.9,32.5L30.9,32.5z"/>
	<path fill="#6BBE66" d="M28.2,32.2l0.1,0.3l0,0.1l0,0c0,0,0,0-0.1,0c0,0-0.1,0-0.1,0l-0.1-0.3v-0.1l0,0L28.2,32.2
		C28.2,32.1,28.2,32.2,28.2,32.2z"/>
	<path fill="#6BBE66" d="M30.2,32.1L30.2,32.1L30.2,32.1l0.1,0.1l-0.1,0.3c0,0,0,0.1-0.1,0c0,0,0,0-0.1,0l0,0l0-0.1L30.2,32.1
		C30.1,32.2,30.2,32.1,30.2,32.1z"/>
</g>
<g id="roughgrass_x5F_bd_15_" enable-background="new    ">
	<path fill="#6BBE66" d="M23.3,31.9L23.3,31.9L23.3,31.9L23.2,32c0,0-0.1,0-0.1,0L23,31.7l0-0.1l0,0l0,0c0,0,0.1,0,0.1,0L23.3,31.9z
		"/>
	<path fill="#6BBE66" d="M24.5,31.6C24.5,31.6,24.5,31.6,24.5,31.6C24.4,31.6,24.4,31.6,24.5,31.6c-0.1-0.1-0.2-0.2-0.2-0.2
		c0-0.1,0.1-0.3,0.1-0.3c0-0.1,0-0.4,0-0.4C24.7,31.2,24.5,31.6,24.5,31.6z"/>
	<path fill="#6BBE66" d="M24.5,31.6c0,0,0.1,0.1,0.1,0.2l-0.1,0l-0.1,0C24.4,31.7,24.4,31.7,24.5,31.6z"/>
	<path fill="#6BBE66" d="M25.5,31.2l-0.2,0.2c0,0-0.1,0.1-0.2,0.3l0,0.1c0,0-0.1,0-0.2,0c0,0,0.1-0.1,0.1-0.3c0,0,0-0.5,0.3-0.6
		c0,0,0.2-0.1,0.1,0c0,0-0.1,0.2-0.2,0.4C25.1,31.4,25.3,31.2,25.5,31.2z"/>
	<path fill="#6BBE66" d="M26.5,31.7L26.5,31.7L26.3,32c0,0-0.1,0-0.1,0l0,0l0,0l0-0.1l0.2-0.2C26.4,31.6,26.4,31.6,26.5,31.7
		L26.5,31.7L26.5,31.7z"/>
	<path fill="#6BBE66" d="M23.8,31.4l0.1,0.3l0,0.1l0,0c0,0,0,0-0.1,0c0,0-0.1,0-0.1,0l-0.1-0.3v-0.1l0,0L23.8,31.4
		C23.8,31.4,23.8,31.4,23.8,31.4z"/>
	<path fill="#6BBE66" d="M25.8,31.4L25.8,31.4L25.8,31.4l0.1,0.1l-0.1,0.3c0,0,0,0.1-0.1,0c0,0,0,0-0.1,0l0,0l0-0.1L25.8,31.4
		C25.7,31.4,25.8,31.4,25.8,31.4z"/>
</g>
<g id="roughgrass_x5F_bd_26_" enable-background="new    ">
	<path fill="#6BBE66" d="M4.7,26.2L4.7,26.2L4.7,26.2l-0.1,0.1c0,0-0.1,0-0.1,0l-0.2-0.2l0-0.1l0,0l0,0c0,0,0.1,0,0.1,0L4.7,26.2z"
		/>
	<path fill="#6BBE66" d="M5.8,26C5.8,26,5.8,26,5.8,26C5.8,25.9,5.8,25.9,5.8,26c-0.1-0.1-0.2-0.2-0.2-0.2c0-0.1,0.1-0.3,0.1-0.3
		c0-0.1,0-0.4,0-0.4C6.1,25.6,5.8,26,5.8,26z"/>
	<path fill="#6BBE66" d="M5.8,26c0,0,0.1,0.1,0.1,0.2l-0.1,0l-0.1,0C5.8,26.1,5.8,26,5.8,26z"/>
	<path fill="#6BBE66" d="M6.9,25.5l-0.2,0.2c0,0-0.1,0.1-0.2,0.3l0,0.1c0,0-0.1,0-0.2,0c0,0,0.1-0.1,0.1-0.3c0,0,0-0.5,0.3-0.6
		c0,0,0.2-0.1,0.1,0c0,0-0.1,0.2-0.2,0.4C6.5,25.7,6.7,25.5,6.9,25.5z"/>
	<path fill="#6BBE66" d="M7.9,26L7.9,26l-0.2,0.3c0,0-0.1,0-0.1,0l0,0l0,0l0-0.1L7.7,26C7.7,26,7.8,26,7.9,26L7.9,26L7.9,26z"/>
	<path fill="#6BBE66" d="M5.2,25.8l0.1,0.3l0,0.1l0,0c0,0,0,0-0.1,0c0,0-0.1,0-0.1,0L5,25.9v-0.1l0,0L5.2,25.8
		C5.1,25.7,5.2,25.7,5.2,25.8z"/>
	<path fill="#6BBE66" d="M7.2,25.7L7.2,25.7L7.2,25.7l0.1,0.1l-0.1,0.3c0,0,0,0.1-0.1,0c0,0,0,0-0.1,0l0,0l0-0.1L7.2,25.7
		C7.1,25.7,7.1,25.7,7.2,25.7z"/>
</g>
<g id="roughgrass_x5F_bd_27_" enable-background="new    ">
	<path fill="#6BBE66" d="M7.4,24L7.4,24L7.4,24l-0.1,0.1c0,0-0.1,0-0.1,0L7,23.8l0-0.1l0,0l0,0c0,0,0.1,0,0.1,0L7.4,24z"/>
	<path fill="#6BBE66" d="M8.5,23.7C8.5,23.7,8.5,23.7,8.5,23.7C8.5,23.7,8.5,23.7,8.5,23.7c-0.1-0.1-0.2-0.2-0.2-0.2
		c0-0.1,0.1-0.3,0.1-0.3c0-0.1,0-0.4,0-0.4C8.7,23.3,8.5,23.7,8.5,23.7z"/>
	<path fill="#6BBE66" d="M8.5,23.7c0,0,0.1,0.1,0.1,0.2l-0.1,0l-0.1,0C8.4,23.8,8.5,23.8,8.5,23.7z"/>
	<path fill="#6BBE66" d="M9.6,23.3l-0.2,0.2c0,0-0.1,0.1-0.2,0.3l0,0.1c0,0-0.1,0-0.2,0c0,0,0.1-0.1,0.1-0.3c0,0,0-0.5,0.3-0.6
		c0,0,0.2-0.1,0.1,0c0,0-0.1,0.2-0.2,0.4C9.2,23.4,9.3,23.2,9.6,23.3z"/>
	<path fill="#6BBE66" d="M10.5,23.8L10.5,23.8L10.4,24c0,0-0.1,0-0.1,0l0,0l0,0l0-0.1l0.2-0.2C10.4,23.7,10.4,23.7,10.5,23.8
		L10.5,23.8L10.5,23.8z"/>
	<path fill="#6BBE66" d="M7.9,23.5L8,23.9l0,0.1l0,0c0,0,0,0-0.1,0c0,0-0.1,0-0.1,0l-0.1-0.3v-0.1l0,0L7.9,23.5
		C7.8,23.4,7.8,23.5,7.9,23.5z"/>
	<path fill="#6BBE66" d="M9.8,23.5L9.8,23.5L9.8,23.5l0.1,0.1l-0.1,0.3c0,0,0,0.1-0.1,0c0,0,0,0-0.1,0l0,0l0-0.1L9.8,23.5
		C9.8,23.5,9.8,23.4,9.8,23.5z"/>
</g>
<g id="roughgrass_x5F_bd_28_" enable-background="new    ">
	<path fill="#6BBE66" d="M2.9,23.2L2.9,23.2L2.9,23.2l-0.1,0.1c0,0-0.1,0-0.1,0l-0.2-0.2l0-0.1l0,0l0,0c0,0,0.1,0,0.1,0L2.9,23.2z"
		/>
	<path fill="#6BBE66" d="M4.1,22.9C4.1,22.9,4.1,22.9,4.1,22.9C4.1,22.9,4,22.9,4.1,22.9c-0.1-0.1-0.2-0.2-0.2-0.2
		c0-0.1,0.1-0.3,0.1-0.3c0-0.1,0-0.4,0-0.4C4.3,22.5,4.1,22.9,4.1,22.9z"/>
	<path fill="#6BBE66" d="M4.1,22.9c0,0,0.1,0.1,0.1,0.2l-0.1,0l-0.1,0C4,23,4,23,4.1,22.9z"/>
	<path fill="#6BBE66" d="M5.1,22.5l-0.2,0.2c0,0-0.1,0.1-0.2,0.3l0,0.1c0,0-0.1,0-0.2,0c0,0,0.1-0.1,0.1-0.3c0,0,0-0.5,0.3-0.6
		c0,0,0.2-0.1,0.1,0c0,0-0.1,0.2-0.2,0.4C4.8,22.7,4.9,22.5,5.1,22.5z"/>
	<path fill="#6BBE66" d="M6.1,23L6.1,23l-0.2,0.3c0,0-0.1,0-0.1,0l0,0l0,0l0-0.1L5.9,23C6,22.9,6,22.9,6.1,23L6.1,23L6.1,23z"/>
	<path fill="#6BBE66" d="M3.4,22.7l0.1,0.3l0,0.1l0,0c0,0,0,0-0.1,0c0,0-0.1,0-0.1,0l-0.1-0.3v-0.1l0,0L3.4,22.7
		C3.4,22.7,3.4,22.7,3.4,22.7z"/>
	<path fill="#6BBE66" d="M5.4,22.7L5.4,22.7L5.4,22.7l0.1,0.1l-0.1,0.3c0,0,0,0.1-0.1,0c0,0,0,0-0.1,0l0,0l0-0.1L5.4,22.7
		C5.3,22.7,5.4,22.7,5.4,22.7z"/>
</g>
<g id="roughgrass_x5F_bd_29_" enable-background="new    ">
	<path fill="#6BBE66" d="M9.1,15.8L9.1,15.8L9.1,15.8L9,15.9c0,0-0.1,0-0.1,0l-0.2-0.2l0-0.1l0,0l0,0c0,0,0.1,0,0.1,0L9.1,15.8z"/>
	<path fill="#6BBE66" d="M10.2,15.5C10.2,15.5,10.2,15.5,10.2,15.5C10.2,15.5,10.2,15.5,10.2,15.5c-0.1-0.1-0.2-0.2-0.2-0.2
		c0-0.1,0.1-0.3,0.1-0.3c0-0.1,0-0.4,0-0.4C10.5,15.2,10.2,15.5,10.2,15.5z"/>
	<path fill="#6BBE66" d="M10.2,15.6c0,0,0.1,0.1,0.1,0.2l-0.1,0l-0.1,0C10.2,15.7,10.2,15.6,10.2,15.6z"/>
	<path fill="#6BBE66" d="M11.3,15.1L11,15.3c0,0-0.1,0.1-0.2,0.3l0,0.1c0,0-0.1,0-0.2,0c0,0,0.1-0.1,0.1-0.3c0,0,0-0.5,0.3-0.6
		c0,0,0.2-0.1,0.1,0c0,0-0.1,0.2-0.2,0.4C10.9,15.3,11.1,15.1,11.3,15.1z"/>
	<path fill="#6BBE66" d="M12.3,15.6L12.3,15.6l-0.2,0.3c0,0-0.1,0-0.1,0l0,0l0,0l0-0.1l0.2-0.2C12.1,15.6,12.2,15.6,12.3,15.6
		L12.3,15.6L12.3,15.6z"/>
	<path fill="#6BBE66" d="M9.6,15.4l0.1,0.3l0,0.1l0,0c0,0,0,0-0.1,0c0,0-0.1,0-0.1,0l-0.1-0.3v-0.1l0,0L9.6,15.4
		C9.5,15.3,9.6,15.3,9.6,15.4z"/>
	<path fill="#6BBE66" d="M11.5,15.3L11.5,15.3L11.5,15.3l0.1,0.1l-0.1,0.3c0,0,0,0.1-0.1,0c0,0,0,0-0.1,0l0,0l0-0.1L11.5,15.3
		C11.5,15.3,11.5,15.3,11.5,15.3z"/>
</g>
<g id="roughgrass_x5F_bd_30_" enable-background="new    ">
	<path fill="#6BBE66" d="M11.7,13.5L11.7,13.5L11.7,13.5l-0.1,0.1c0,0-0.1,0-0.1,0l-0.2-0.2l0-0.1l0,0l0,0c0,0,0.1,0,0.1,0
		L11.7,13.5z"/>
	<path fill="#6BBE66" d="M12.9,13.3C12.9,13.3,12.9,13.3,12.9,13.3C12.9,13.3,12.9,13.3,12.9,13.3c-0.1-0.1-0.2-0.2-0.2-0.2
		c0-0.1,0.1-0.3,0.1-0.3c0-0.1,0-0.4,0-0.4C13.1,12.9,12.9,13.3,12.9,13.3z"/>
	<path fill="#6BBE66" d="M12.9,13.3c0,0,0.1,0.1,0.1,0.2l-0.1,0l-0.1,0C12.8,13.4,12.9,13.3,12.9,13.3z"/>
	<path fill="#6BBE66" d="M13.9,12.8l-0.2,0.2c0,0-0.1,0.1-0.2,0.3l0,0.1c0,0-0.1,0-0.2,0c0,0,0.1-0.1,0.1-0.3c0,0,0-0.5,0.3-0.6
		c0,0,0.2-0.1,0.1,0c0,0-0.1,0.2-0.2,0.4C13.6,13,13.7,12.8,13.9,12.8z"/>
	<path fill="#6BBE66" d="M14.9,13.4L14.9,13.4l-0.2,0.3c0,0-0.1,0-0.1,0l0,0l0,0l0-0.1l0.2-0.2C14.8,13.3,14.8,13.3,14.9,13.4
		L14.9,13.4L14.9,13.4z"/>
	<path fill="#6BBE66" d="M12.2,13.1l0.1,0.3l0,0.1l0,0c0,0,0,0-0.1,0c0,0-0.1,0-0.1,0l-0.1-0.3v-0.1l0,0L12.2,13.1
		C12.2,13,12.2,13.1,12.2,13.1z"/>
	<path fill="#6BBE66" d="M14.2,13.1L14.2,13.1L14.2,13.1l0.1,0.1l-0.1,0.3c0,0,0,0.1-0.1,0c0,0,0,0-0.1,0l0,0l0-0.1L14.2,13.1
		C14.1,13.1,14.2,13,14.2,13.1z"/>
</g>
<g id="roughgrass_x5F_bd_31_" enable-background="new    ">
	<path fill="#6BBE66" d="M7.3,12.8L7.3,12.8L7.3,12.8l-0.1,0.1c0,0-0.1,0-0.1,0L7,12.7l0-0.1l0,0l0,0c0,0,0.1,0,0.1,0L7.3,12.8z"/>
	<path fill="#6BBE66" d="M8.5,12.5C8.5,12.5,8.5,12.5,8.5,12.5C8.5,12.5,8.4,12.5,8.5,12.5c-0.1-0.1-0.2-0.2-0.2-0.2
		c0-0.1,0.1-0.3,0.1-0.3c0-0.1,0-0.4,0-0.4C8.7,12.1,8.5,12.5,8.5,12.5z"/>
	<path fill="#6BBE66" d="M8.5,12.5c0,0,0.1,0.1,0.1,0.2l-0.1,0l-0.1,0C8.4,12.6,8.4,12.6,8.5,12.5z"/>
	<path fill="#6BBE66" d="M9.5,12.1l-0.2,0.2c0,0-0.1,0.1-0.2,0.3l0,0.1c0,0-0.1,0-0.2,0c0,0,0.1-0.1,0.1-0.3c0,0,0-0.5,0.3-0.6
		c0,0,0.2-0.1,0.1,0c0,0-0.1,0.2-0.2,0.4C9.2,12.3,9.3,12.1,9.5,12.1z"/>
	<path fill="#6BBE66" d="M10.5,12.6L10.5,12.6l-0.2,0.3c0,0-0.1,0-0.1,0l0,0l0,0l0-0.1l0.2-0.2C10.4,12.5,10.4,12.5,10.5,12.6
		L10.5,12.6L10.5,12.6z"/>
	<path fill="#6BBE66" d="M7.8,12.3l0.1,0.3l0,0.1l0,0c0,0,0,0-0.1,0c0,0-0.1,0-0.1,0l-0.1-0.3v-0.1l0,0L7.8,12.3
		C7.8,12.3,7.8,12.3,7.8,12.3z"/>
	<path fill="#6BBE66" d="M9.8,12.3L9.8,12.3L9.8,12.3l0.1,0.1l-0.1,0.3c0,0,0,0.1-0.1,0c0,0,0,0-0.1,0l0,0l0-0.1L9.8,12.3
		C9.7,12.3,9.8,12.3,9.8,12.3z"/>
</g>
<g id="roughgrass_x5F_bd_13_" enable-background="new    ">
	<path fill="#6BBE66" d="M24.4,6L24.4,6L24.4,6l-0.1,0.1c0,0-0.1,0-0.1,0L24,5.9l0-0.1l0,0l0,0c0,0,0.1,0,0.1,0L24.4,6z"/>
	<path fill="#6BBE66" d="M25.5,5.8C25.5,5.8,25.5,5.8,25.5,5.8C25.5,5.8,25.5,5.7,25.5,5.8c-0.1-0.1-0.2-0.2-0.2-0.2
		c0-0.1,0.1-0.3,0.1-0.3c0-0.1,0-0.4,0-0.4C25.7,5.4,25.5,5.8,25.5,5.8z"/>
	<path fill="#6BBE66" d="M25.5,5.8c0,0,0.1,0.1,0.1,0.2l-0.1,0l-0.1,0C25.4,5.9,25.5,5.8,25.5,5.8z"/>
	<path fill="#6BBE66" d="M26.6,5.3l-0.2,0.2c0,0-0.1,0.1-0.2,0.3l0,0.1c0,0-0.1,0-0.2,0c0,0,0.1-0.1,0.1-0.3c0,0,0-0.5,0.3-0.6
		c0,0,0.2-0.1,0.1,0c0,0-0.1,0.2-0.2,0.4C26.2,5.5,26.3,5.3,26.6,5.3z"/>
	<path fill="#6BBE66" d="M27.5,5.8L27.5,5.8l-0.2,0.3c0,0-0.1,0-0.1,0l0,0l0,0l0-0.1l0.2-0.2C27.4,5.8,27.4,5.8,27.5,5.8L27.5,5.8
		L27.5,5.8z"/>
	<path fill="#6BBE66" d="M24.9,5.6L25,5.9L25,6l0,0c0,0,0,0-0.1,0c0,0-0.1,0-0.1,0l-0.1-0.3V5.6l0,0L24.9,5.6
		C24.8,5.5,24.8,5.5,24.9,5.6z"/>
	<path fill="#6BBE66" d="M26.8,5.5L26.8,5.5L26.8,5.5l0.1,0.1L26.8,6c0,0,0,0.1-0.1,0c0,0,0,0-0.1,0l0,0l0-0.1L26.8,5.5
		C26.8,5.5,26.8,5.5,26.8,5.5z"/>
</g>
<g id="roughgrass_x5F_bd_12_" enable-background="new    ">
	<path fill="#6BBE66" d="M27,3.8L27,3.8L27,3.8L27,3.9c0,0-0.1,0-0.1,0l-0.2-0.2l0-0.1l0,0l0,0c0,0,0.1,0,0.1,0L27,3.8z"/>
	<path fill="#6BBE66" d="M28.2,3.5C28.2,3.5,28.2,3.5,28.2,3.5C28.2,3.5,28.1,3.5,28.2,3.5C28.1,3.4,28,3.3,28,3.3
		C28,3.2,28.1,3,28.1,3c0-0.1,0-0.4,0-0.4C28.4,3.1,28.2,3.5,28.2,3.5z"/>
	<path fill="#6BBE66" d="M28.2,3.5c0,0,0.1,0.1,0.1,0.2l-0.1,0l-0.1,0C28.1,3.6,28.1,3.6,28.2,3.5z"/>
	<path fill="#6BBE66" d="M29.2,3.1L29,3.3c0,0-0.1,0.1-0.2,0.3l0,0.1c0,0-0.1,0-0.2,0c0,0,0.1-0.1,0.1-0.3c0,0,0-0.5,0.3-0.6
		c0,0,0.2-0.1,0.1,0c0,0-0.1,0.2-0.2,0.4C28.9,3.2,29,3,29.2,3.1z"/>
	<path fill="#6BBE66" d="M30.2,3.6L30.2,3.6L30,3.9c0,0-0.1,0-0.1,0l0,0l0,0l0-0.1L30,3.5C30.1,3.5,30.1,3.5,30.2,3.6L30.2,3.6
		L30.2,3.6z"/>
	<path fill="#6BBE66" d="M27.5,3.3l0.1,0.3l0,0.1l0,0c0,0,0,0-0.1,0c0,0-0.1,0-0.1,0l-0.1-0.3V3.3l0,0L27.5,3.3
		C27.5,3.3,27.5,3.3,27.5,3.3z"/>
	<path fill="#6BBE66" d="M29.5,3.3L29.5,3.3L29.5,3.3l0.1,0.1l-0.1,0.3c0,0,0,0.1-0.1,0c0,0,0,0-0.1,0l0,0l0-0.1L29.5,3.3
		C29.4,3.3,29.5,3.3,29.5,3.3z"/>
</g>
<g id="roughgrass_x5F_bd_14_" enable-background="new    ">
	<path fill="#6BBE66" d="M22.6,3L22.6,3L22.6,3l-0.1,0.1c0,0-0.1,0-0.1,0l-0.2-0.2l0-0.1l0,0l0,0c0,0,0.1,0,0.1,0L22.6,3z"/>
	<path fill="#6BBE66" d="M23.8,2.7C23.8,2.7,23.8,2.7,23.8,2.7C23.7,2.7,23.7,2.7,23.8,2.7c-0.1-0.1-0.2-0.2-0.2-0.2
		c0-0.1,0.1-0.3,0.1-0.3c0-0.1,0-0.4,0-0.4C24,2.3,23.8,2.7,23.8,2.7z"/>
	<path fill="#6BBE66" d="M23.7,2.7c0,0,0.1,0.1,0.1,0.2l-0.1,0l-0.1,0C23.7,2.9,23.7,2.8,23.7,2.7z"/>
	<path fill="#6BBE66" d="M24.8,2.3l-0.2,0.2c0,0-0.1,0.1-0.2,0.3l0,0.1c0,0-0.1,0-0.2,0c0,0,0.1-0.1,0.1-0.3c0,0,0-0.5,0.3-0.6
		c0,0,0.2-0.1,0.1,0c0,0-0.1,0.2-0.2,0.4C24.4,2.5,24.6,2.3,24.8,2.3z"/>
	<path fill="#6BBE66" d="M25.8,2.8L25.8,2.8l-0.2,0.3c0,0-0.1,0-0.1,0l0,0l0,0l0-0.1l0.2-0.2C25.6,2.7,25.7,2.7,25.8,2.8L25.8,2.8
		L25.8,2.8z"/>
	<path fill="#6BBE66" d="M23.1,2.6l0.1,0.3l0,0.1l0,0c0,0,0,0-0.1,0c0,0-0.1,0-0.1,0l-0.1-0.3V2.6l0,0L23.1,2.6
		C23.1,2.5,23.1,2.5,23.1,2.6z"/>
	<path fill="#6BBE66" d="M25.1,2.5L25.1,2.5L25.1,2.5l0.1,0.1L25.1,3c0,0,0,0.1-0.1,0c0,0,0,0-0.1,0l0,0l0-0.1L25.1,2.5
		C25,2.5,25,2.5,25.1,2.5z"/>
</g>
<g id="roughgrass_x5F_bd_6_" enable-background="new    ">
	<path fill="#6BBE66" d="M35.5,14.1L35.5,14.1L35.5,14.1l-0.1,0.1c0,0-0.1,0-0.1,0L35.2,14l0-0.1l0,0l0,0c0,0,0.1,0,0.1,0L35.5,14.1
		z"/>
	<path fill="#6BBE66" d="M36.7,13.8C36.7,13.8,36.7,13.8,36.7,13.8C36.7,13.8,36.7,13.8,36.7,13.8c-0.1-0.1-0.2-0.2-0.2-0.2
		c0-0.1,0.1-0.3,0.1-0.3c0-0.1,0-0.4,0-0.4C36.9,13.4,36.7,13.8,36.7,13.8z"/>
	<path fill="#6BBE66" d="M36.7,13.8c0,0,0.1,0.1,0.1,0.2l-0.1,0l-0.1,0C36.6,13.9,36.7,13.9,36.7,13.8z"/>
	<path fill="#6BBE66" d="M37.7,13.4l-0.2,0.2c0,0-0.1,0.1-0.2,0.3l0,0.1c0,0-0.1,0-0.2,0c0,0,0.1-0.1,0.1-0.3c0,0,0-0.5,0.3-0.6
		c0,0,0.2-0.1,0.1,0c0,0-0.1,0.2-0.2,0.4C37.4,13.6,37.5,13.4,37.7,13.4z"/>
	<path fill="#6BBE66" d="M38.7,13.9L38.7,13.9l-0.2,0.3c0,0-0.1,0-0.1,0l0,0l0,0l0-0.1l0.2-0.2C38.6,13.8,38.6,13.8,38.7,13.9
		L38.7,13.9L38.7,13.9z"/>
	<path fill="#6BBE66" d="M36,13.6l0.1,0.3l0,0.1l0,0c0,0,0,0-0.1,0c0,0-0.1,0-0.1,0l-0.1-0.3v-0.1l0,0L36,13.6
		C36,13.6,36,13.6,36,13.6z"/>
	<path fill="#6BBE66" d="M38,13.6L38,13.6L38,13.6l0.1,0.1L38,14.1c0,0,0,0.1-0.1,0c0,0,0,0-0.1,0l0,0l0-0.1L38,13.6
		C37.9,13.6,38,13.6,38,13.6z"/>
</g>
<g id="roughgrass_x5F_bd_7_" enable-background="new    ">
	<path fill="#6BBE66" d="M38.2,11.8L38.2,11.8L38.2,11.8l-0.1,0.1c0,0-0.1,0-0.1,0l-0.2-0.2l0-0.1l0,0l0,0c0,0,0.1,0,0.1,0
		L38.2,11.8z"/>
	<path fill="#6BBE66" d="M39.4,11.5C39.4,11.5,39.4,11.5,39.4,11.5C39.3,11.5,39.3,11.5,39.4,11.5c-0.1-0.1-0.2-0.2-0.2-0.2
		c0-0.1,0.1-0.3,0.1-0.3c0-0.1,0-0.4,0-0.4C39.6,11.1,39.4,11.5,39.4,11.5z"/>
	<path fill="#6BBE66" d="M39.4,11.5c0,0,0.1,0.1,0.1,0.2l-0.1,0l-0.1,0C39.3,11.7,39.3,11.6,39.4,11.5z"/>
	<path fill="#6BBE66" d="M40.4,11.1l-0.2,0.2c0,0-0.1,0.1-0.2,0.3l0,0.1c0,0-0.1,0-0.2,0c0,0,0.1-0.1,0.1-0.3c0,0,0-0.5,0.3-0.6
		c0,0,0.2-0.1,0.1,0c0,0-0.1,0.2-0.2,0.4C40,11.3,40.2,11.1,40.4,11.1z"/>
	<path fill="#6BBE66" d="M41.4,11.6L41.4,11.6l-0.2,0.3c0,0-0.1,0-0.1,0l0,0l0,0l0-0.1l0.2-0.2C41.3,11.6,41.3,11.5,41.4,11.6
		L41.4,11.6L41.4,11.6z"/>
	<path fill="#6BBE66" d="M38.7,11.4l0.1,0.3l0,0.1l0,0c0,0,0,0-0.1,0c0,0-0.1,0-0.1,0l-0.1-0.3v-0.1l0,0L38.7,11.4
		C38.7,11.3,38.7,11.3,38.7,11.4z"/>
	<path fill="#6BBE66" d="M40.7,11.3L40.7,11.3L40.7,11.3l0.1,0.1l-0.1,0.3c0,0,0,0.1-0.1,0c0,0,0,0-0.1,0l0,0l0-0.1L40.7,11.3
		C40.6,11.3,40.6,11.3,40.7,11.3z"/>
</g>
<g id="roughgrass_x5F_bd_8_" enable-background="new    ">
	<path fill="#6BBE66" d="M33.8,11L33.8,11L33.8,11l-0.1,0.1c0,0-0.1,0-0.1,0l-0.2-0.2l0-0.1l0,0l0,0c0,0,0.1,0,0.1,0L33.8,11z"/>
	<path fill="#6BBE66" d="M34.9,10.8C34.9,10.8,34.9,10.8,34.9,10.8C34.9,10.8,34.9,10.8,34.9,10.8c-0.1-0.1-0.2-0.2-0.2-0.2
		c0-0.1,0.1-0.3,0.1-0.3c0-0.1,0-0.4,0-0.4C35.2,10.4,34.9,10.8,34.9,10.8z"/>
	<path fill="#6BBE66" d="M34.9,10.8c0,0,0.1,0.1,0.1,0.2L35,11l-0.1,0C34.9,10.9,34.9,10.8,34.9,10.8z"/>
	<path fill="#6BBE66" d="M36,10.3l-0.2,0.2c0,0-0.1,0.1-0.2,0.3l0,0.1c0,0-0.1,0-0.2,0c0,0,0.1-0.1,0.1-0.3c0,0,0-0.5,0.3-0.6
		c0,0,0.2-0.1,0.1,0c0,0-0.1,0.2-0.2,0.4C35.6,10.5,35.8,10.3,36,10.3z"/>
	<path fill="#6BBE66" d="M37,10.9L37,10.9l-0.2,0.3c0,0-0.1,0-0.1,0l0,0l0,0l0-0.1l0.2-0.2C36.8,10.8,36.9,10.8,37,10.9L37,10.9
		L37,10.9z"/>
	<path fill="#6BBE66" d="M34.3,10.6l0.1,0.3l0,0.1l0,0c0,0,0,0-0.1,0c0,0-0.1,0-0.1,0l-0.1-0.3v-0.1l0,0L34.3,10.6
		C34.2,10.5,34.3,10.6,34.3,10.6z"/>
	<path fill="#6BBE66" d="M36.3,10.6L36.3,10.6L36.3,10.6l0.1,0.1L36.2,11c0,0,0,0.1-0.1,0c0,0,0,0-0.1,0l0,0l0-0.1L36.3,10.6
		C36.2,10.6,36.2,10.5,36.3,10.6z"/>
</g>
<g id="roughgrass_x5F_bd_9_" enable-background="new    ">
	<path fill="#6BBE66" d="M41.1,5.7L41.1,5.7L41.1,5.7L41,5.8c0,0-0.1,0-0.1,0l-0.2-0.2l0-0.1l0,0l0,0c0,0,0.1,0,0.1,0L41.1,5.7z"/>
	<path fill="#6BBE66" d="M42.2,5.4C42.2,5.4,42.2,5.4,42.2,5.4C42.2,5.4,42.2,5.4,42.2,5.4C42.1,5.3,42,5.3,42,5.3
		c0-0.1,0.1-0.3,0.1-0.3c0-0.1,0-0.4,0-0.4C42.4,5,42.2,5.4,42.2,5.4z"/>
	<path fill="#6BBE66" d="M42.2,5.4c0,0,0.1,0.1,0.1,0.2l-0.1,0l-0.1,0C42.1,5.5,42.2,5.5,42.2,5.4z"/>
	<path fill="#6BBE66" d="M43.3,5L43,5.2c0,0-0.1,0.1-0.2,0.3l0,0.1c0,0-0.1,0-0.2,0c0,0,0.1-0.1,0.1-0.3c0,0,0-0.5,0.3-0.6
		c0,0,0.2-0.1,0.1,0c0,0-0.1,0.2-0.2,0.4C42.9,5.2,43,5,43.3,5z"/>
	<path fill="#6BBE66" d="M44.2,5.5L44.2,5.5l-0.2,0.3c0,0-0.1,0-0.1,0l0,0l0,0l0-0.1l0.2-0.2C44.1,5.4,44.1,5.4,44.2,5.5L44.2,5.5
		L44.2,5.5z"/>
	<path fill="#6BBE66" d="M41.6,5.3l0.1,0.3l0,0.1l0,0c0,0,0,0-0.1,0c0,0-0.1,0-0.1,0l-0.1-0.3V5.3l0,0L41.6,5.3
		C41.5,5.2,41.5,5.2,41.6,5.3z"/>
	<path fill="#6BBE66" d="M43.5,5.2L43.5,5.2L43.5,5.2l0.1,0.1l-0.1,0.3c0,0,0,0.1-0.1,0c0,0,0,0-0.1,0l0,0l0-0.1L43.5,5.2
		C43.5,5.2,43.5,5.2,43.5,5.2z"/>
</g>
<g id="roughgrass_x5F_bd_10_" enable-background="new    ">
	<path fill="#6BBE66" d="M43.7,3.4L43.7,3.4L43.7,3.4l-0.1,0.1c0,0-0.1,0-0.1,0l-0.2-0.2l0-0.1l0,0l0,0c0,0,0.1,0,0.1,0L43.7,3.4z"
		/>
	<path fill="#6BBE66" d="M44.9,3.1C44.9,3.2,44.9,3.2,44.9,3.1C44.9,3.1,44.8,3.1,44.9,3.1C44.8,3.1,44.7,3,44.7,3
		c0-0.1,0.1-0.3,0.1-0.3c0-0.1,0-0.4,0-0.4C45.1,2.8,44.9,3.1,44.9,3.1z"/>
	<path fill="#6BBE66" d="M44.9,3.2c0,0,0.1,0.1,0.1,0.2l-0.1,0l-0.1,0C44.8,3.3,44.8,3.2,44.9,3.2z"/>
	<path fill="#6BBE66" d="M45.9,2.7l-0.2,0.2c0,0-0.1,0.1-0.2,0.3l0,0.1c0,0-0.1,0-0.2,0c0,0,0.1-0.1,0.1-0.3c0,0,0-0.5,0.3-0.6
		c0,0,0.2-0.1,0.1,0c0,0-0.1,0.2-0.2,0.4C45.6,2.9,45.7,2.7,45.9,2.7z"/>
	<path fill="#6BBE66" d="M46.9,3.2L46.9,3.2l-0.2,0.3c0,0-0.1,0-0.1,0l0,0l0,0l0-0.1l0.2-0.2C46.8,3.2,46.8,3.2,46.9,3.2L46.9,3.2
		L46.9,3.2z"/>
	<path fill="#6BBE66" d="M44.2,3l0.1,0.3l0,0.1l0,0c0,0,0,0-0.1,0c0,0-0.1,0-0.1,0L44,3.1V3l0,0L44.2,3C44.2,2.9,44.2,2.9,44.2,3z"
		/>
	<path fill="#6BBE66" d="M46.2,2.9L46.2,2.9L46.2,2.9l0.1,0.1l-0.1,0.3c0,0,0,0.1-0.1,0c0,0,0,0-0.1,0l0,0l0-0.1L46.2,2.9
		C46.1,2.9,46.2,2.9,46.2,2.9z"/>
</g>
<g id="roughgrass_x5F_bd_11_" enable-background="new    ">
	<path fill="#6BBE66" d="M39.3,2.7L39.3,2.7L39.3,2.7l-0.1,0.1c0,0-0.1,0-0.1,0L39,2.5l0-0.1l0,0l0,0c0,0,0.1,0,0.1,0L39.3,2.7z"/>
	<path fill="#6BBE66" d="M40.4,2.4C40.4,2.4,40.4,2.4,40.4,2.4C40.4,2.4,40.4,2.4,40.4,2.4c-0.1-0.1-0.2-0.2-0.2-0.2
		c0-0.1,0.1-0.3,0.1-0.3c0-0.1,0-0.4,0-0.4C40.7,2,40.4,2.4,40.4,2.4z"/>
	<path fill="#6BBE66" d="M40.4,2.4c0,0,0.1,0.1,0.1,0.2l-0.1,0l-0.1,0C40.4,2.5,40.4,2.5,40.4,2.4z"/>
	<path fill="#6BBE66" d="M41.5,2l-0.2,0.2c0,0-0.1,0.1-0.2,0.3l0,0.1c0,0-0.1,0-0.2,0c0,0,0.1-0.1,0.1-0.3c0,0,0-0.5,0.3-0.6
		c0,0,0.2-0.1,0.1,0c0,0-0.1,0.2-0.2,0.4C41.1,2.1,41.3,1.9,41.5,2z"/>
	<path fill="#6BBE66" d="M42.5,2.5L42.5,2.5l-0.2,0.3c0,0-0.1,0-0.1,0l0,0l0,0l0-0.1l0.2-0.2C42.3,2.4,42.4,2.4,42.5,2.5L42.5,2.5
		L42.5,2.5z"/>
	<path fill="#6BBE66" d="M39.8,2.2l0.1,0.3l0,0.1l0,0c0,0,0,0-0.1,0c0,0-0.1,0-0.1,0l-0.1-0.3V2.2l0,0L39.8,2.2
		C39.8,2.2,39.8,2.2,39.8,2.2z"/>
	<path fill="#6BBE66" d="M41.8,2.2L41.8,2.2L41.8,2.2l0.1,0.1l-0.1,0.3c0,0,0,0.1-0.1,0c0,0,0,0-0.1,0l0,0l0-0.1L41.8,2.2
		C41.7,2.2,41.7,2.2,41.8,2.2z"/>
</g>
<g id="roughgrass_x5F_bd_3_" enable-background="new    ">
	<path fill="#6BBE66" d="M36,24L36,24L36,24L36,24.1c0,0-0.1,0-0.1,0l-0.2-0.2l0-0.1l0,0l0,0c0,0,0.1,0,0.1,0L36,24z"/>
	<path fill="#6BBE66" d="M37.2,23.7C37.2,23.7,37.2,23.7,37.2,23.7C37.2,23.7,37.2,23.7,37.2,23.7c-0.1-0.1-0.2-0.2-0.2-0.2
		c0-0.1,0.1-0.3,0.1-0.3c0-0.1,0-0.4,0-0.4C37.4,23.3,37.2,23.7,37.2,23.7z"/>
	<path fill="#6BBE66" d="M37.2,23.7c0,0,0.1,0.1,0.1,0.2l-0.1,0l-0.1,0C37.1,23.8,37.1,23.8,37.2,23.7z"/>
	<path fill="#6BBE66" d="M38.2,23.3L38,23.5c0,0-0.1,0.1-0.2,0.3l0,0.1c0,0-0.1,0-0.2,0c0,0,0.1-0.1,0.1-0.3c0,0,0-0.5,0.3-0.6
		c0,0,0.2-0.1,0.1,0c0,0-0.1,0.2-0.2,0.4C37.9,23.4,38,23.2,38.2,23.3z"/>
	<path fill="#6BBE66" d="M39.2,23.8L39.2,23.8l-0.2,0.3c0,0-0.1,0-0.1,0l0,0l0,0l0-0.1l0.2-0.2C39.1,23.7,39.1,23.7,39.2,23.8
		L39.2,23.8L39.2,23.8z"/>
	<path fill="#6BBE66" d="M36.5,23.5l0.1,0.3l0,0.1l0,0c0,0,0,0-0.1,0c0,0-0.1,0-0.1,0l-0.1-0.3v-0.1l0,0L36.5,23.5
		C36.5,23.5,36.5,23.5,36.5,23.5z"/>
	<path fill="#6BBE66" d="M38.5,23.5L38.5,23.5L38.5,23.5l0.1,0.1l-0.1,0.3c0,0,0,0.1-0.1,0c0,0,0,0-0.1,0l0,0l0-0.1L38.5,23.5
		C38.4,23.5,38.5,23.5,38.5,23.5z"/>
</g>
<g id="roughgrass_x5F_bd_4_" enable-background="new    ">
	<path fill="#6BBE66" d="M38.7,21.7L38.7,21.7L38.7,21.7l-0.1,0.1c0,0-0.1,0-0.1,0l-0.2-0.2l0-0.1l0,0l0,0c0,0,0.1,0,0.1,0
		L38.7,21.7z"/>
	<path fill="#6BBE66" d="M39.9,21.4C39.9,21.4,39.9,21.4,39.9,21.4C39.8,21.4,39.8,21.4,39.9,21.4c-0.1-0.1-0.2-0.2-0.2-0.2
		c0-0.1,0.1-0.3,0.1-0.3c0-0.1,0-0.4,0-0.4C40.1,21,39.9,21.4,39.9,21.4z"/>
	<path fill="#6BBE66" d="M39.9,21.4c0,0,0.1,0.1,0.1,0.2l-0.1,0l-0.1,0C39.8,21.5,39.8,21.5,39.9,21.4z"/>
	<path fill="#6BBE66" d="M40.9,21l-0.2,0.2c0,0-0.1,0.1-0.2,0.3l0,0.1c0,0-0.1,0-0.2,0c0,0,0.1-0.1,0.1-0.3c0,0,0-0.5,0.3-0.6
		c0,0,0.2-0.1,0.1,0c0,0-0.1,0.2-0.2,0.4C40.5,21.2,40.7,21,40.9,21z"/>
	<path fill="#6BBE66" d="M41.9,21.5L41.9,21.5l-0.2,0.3c0,0-0.1,0-0.1,0l0,0l0,0l0-0.1l0.2-0.2C41.7,21.4,41.8,21.4,41.9,21.5
		L41.9,21.5L41.9,21.5z"/>
	<path fill="#6BBE66" d="M39.2,21.2l0.1,0.3l0,0.1l0,0c0,0,0,0-0.1,0c0,0-0.1,0-0.1,0L39,21.3v-0.1l0,0L39.2,21.2
		C39.2,21.2,39.2,21.2,39.2,21.2z"/>
	<path fill="#6BBE66" d="M41.2,21.2L41.2,21.2L41.2,21.2l0.1,0.1l-0.1,0.3c0,0,0,0.1-0.1,0c0,0,0,0-0.1,0l0,0l0-0.1L41.2,21.2
		C41.1,21.2,41.1,21.2,41.2,21.2z"/>
</g>
<g id="roughgrass_x5F_bd_5_" enable-background="new    ">
	<path fill="#6BBE66" d="M34.3,20.9L34.3,20.9L34.3,20.9L34.2,21c0,0-0.1,0-0.1,0L34,20.8l0-0.1l0,0l0,0c0,0,0.1,0,0.1,0L34.3,20.9z
		"/>
	<path fill="#6BBE66" d="M35.4,20.6C35.4,20.7,35.4,20.7,35.4,20.6C35.4,20.6,35.4,20.6,35.4,20.6c-0.1-0.1-0.2-0.2-0.2-0.2
		c0-0.1,0.1-0.3,0.1-0.3c0-0.1,0-0.4,0-0.4C35.7,20.3,35.4,20.6,35.4,20.6z"/>
	<path fill="#6BBE66" d="M35.4,20.7c0,0,0.1,0.1,0.1,0.2l-0.1,0l-0.1,0C35.4,20.8,35.4,20.7,35.4,20.7z"/>
	<path fill="#6BBE66" d="M36.5,20.2l-0.2,0.2c0,0-0.1,0.1-0.2,0.3l0,0.1c0,0-0.1,0-0.2,0c0,0,0.1-0.1,0.1-0.3c0,0,0-0.5,0.3-0.6
		c0,0,0.2-0.1,0.1,0c0,0-0.1,0.2-0.2,0.4C36.1,20.4,36.3,20.2,36.5,20.2z"/>
	<path fill="#6BBE66" d="M37.5,20.7L37.5,20.7L37.3,21c0,0-0.1,0-0.1,0l0,0l0,0l0-0.1l0.2-0.2C37.3,20.7,37.4,20.7,37.5,20.7
		L37.5,20.7L37.5,20.7z"/>
	<path fill="#6BBE66" d="M34.8,20.5l0.1,0.3l0,0.1l0,0c0,0,0,0-0.1,0c0,0-0.1,0-0.1,0l-0.1-0.3v-0.1l0,0L34.8,20.5
		C34.7,20.4,34.8,20.4,34.8,20.5z"/>
	<path fill="#6BBE66" d="M36.8,20.4L36.8,20.4L36.8,20.4l0.1,0.1l-0.1,0.3c0,0,0,0.1-0.1,0c0,0,0,0-0.1,0l0,0l0-0.1L36.8,20.4
		C36.7,20.4,36.7,20.4,36.8,20.4z"/>
</g>
<g id="roughgrass_x5F_bd_1_" enable-background="new    ">
	<path fill="#6BBE66" d="M41.3,35.9L41.3,35.9L41.3,35.9L41.2,36c0,0-0.1,0-0.1,0L41,35.7l0-0.1l0,0l0,0c0,0,0.1,0,0.1,0L41.3,35.9z
		"/>
	<path fill="#6BBE66" d="M42.5,35.6C42.5,35.6,42.5,35.6,42.5,35.6C42.4,35.6,42.4,35.6,42.5,35.6c-0.1-0.1-0.2-0.2-0.2-0.2
		c0-0.1,0.1-0.3,0.1-0.3c0-0.1,0-0.4,0-0.4C42.7,35.2,42.5,35.6,42.5,35.6z"/>
	<path fill="#6BBE66" d="M42.5,35.6c0,0,0.1,0.1,0.1,0.2l-0.1,0l-0.1,0C42.4,35.7,42.4,35.7,42.5,35.6z"/>
	<path fill="#6BBE66" d="M43.5,35.2l-0.2,0.2c0,0-0.1,0.1-0.2,0.3l0,0.1c0,0-0.1,0-0.2,0c0,0,0.1-0.1,0.1-0.3c0,0,0-0.5,0.3-0.6
		c0,0,0.2-0.1,0.1,0c0,0-0.1,0.2-0.2,0.4C43.1,35.3,43.3,35.1,43.5,35.2z"/>
	<path fill="#6BBE66" d="M44.5,35.7L44.5,35.7L44.3,36c0,0-0.1,0-0.1,0l0,0l0,0l0-0.1l0.2-0.2C44.3,35.6,44.4,35.6,44.5,35.7
		L44.5,35.7L44.5,35.7z"/>
	<path fill="#6BBE66" d="M41.8,35.4l0.1,0.3l0,0.1l0,0c0,0,0,0-0.1,0c0,0-0.1,0-0.1,0l-0.1-0.3v-0.1l0,0L41.8,35.4
		C41.8,35.4,41.8,35.4,41.8,35.4z"/>
	<path fill="#6BBE66" d="M43.8,35.4L43.8,35.4L43.8,35.4l0.1,0.1l-0.1,0.3c0,0,0,0.1-0.1,0c0,0,0,0-0.1,0l0,0l0-0.1L43.8,35.4
		C43.7,35.4,43.7,35.4,43.8,35.4z"/>
</g>
<g id="roughgrass_x5F_bd_32_" enable-background="new    ">
	<path fill="#6BBE66" d="M44,33.6L44,33.6L44,33.6l-0.1,0.1c0,0-0.1,0-0.1,0l-0.2-0.2l0-0.1l0,0l0,0c0,0,0.1,0,0.1,0L44,33.6z"/>
	<path fill="#6BBE66" d="M45.1,33.3C45.1,33.3,45.1,33.3,45.1,33.3C45.1,33.3,45.1,33.3,45.1,33.3c-0.1-0.1-0.2-0.2-0.2-0.2
		c0-0.1,0.1-0.3,0.1-0.3c0-0.1,0-0.4,0-0.4C45.4,32.9,45.1,33.3,45.1,33.3z"/>
	<path fill="#6BBE66" d="M45.1,33.3c0,0,0.1,0.1,0.1,0.2l-0.1,0l-0.1,0C45.1,33.4,45.1,33.4,45.1,33.3z"/>
	<path fill="#6BBE66" d="M46.2,32.9l-0.2,0.2c0,0-0.1,0.1-0.2,0.3l0,0.1c0,0-0.1,0-0.2,0c0,0,0.1-0.1,0.1-0.3c0,0,0-0.5,0.3-0.6
		c0,0,0.2-0.1,0.1,0c0,0-0.1,0.2-0.2,0.4C45.8,33.1,46,32.9,46.2,32.9z"/>
	<path fill="#6BBE66" d="M47.2,33.4L47.2,33.4L47,33.7c0,0-0.1,0-0.1,0l0,0l0,0l0-0.1l0.2-0.2C47,33.3,47.1,33.3,47.2,33.4
		L47.2,33.4L47.2,33.4z"/>
	<path fill="#6BBE66" d="M44.5,33.1l0.1,0.3l0,0.1l0,0c0,0,0,0-0.1,0c0,0-0.1,0-0.1,0l-0.1-0.3v-0.1l0,0L44.5,33.1
		C44.4,33.1,44.5,33.1,44.5,33.1z"/>
	<path fill="#6BBE66" d="M46.4,33.1L46.4,33.1L46.4,33.1l0.1,0.1l-0.1,0.3c0,0,0,0.1-0.1,0c0,0,0,0-0.1,0l0,0l0-0.1L46.4,33.1
		C46.4,33.1,46.4,33.1,46.4,33.1z"/>
</g>
<g id="roughgrass_x5F_bd_2_" enable-background="new    ">
	<path fill="#6BBE66" d="M39.6,32.8L39.6,32.8L39.6,32.8l-0.1,0.1c0,0-0.1,0-0.1,0l-0.2-0.2l0-0.1l0,0l0,0c0,0,0.1,0,0.1,0
		L39.6,32.8z"/>
	<path fill="#6BBE66" d="M40.7,32.6C40.7,32.6,40.7,32.6,40.7,32.6C40.7,32.5,40.7,32.5,40.7,32.6c-0.1-0.1-0.2-0.2-0.2-0.2
		c0-0.1,0.1-0.3,0.1-0.3c0-0.1,0-0.4,0-0.4C40.9,32.2,40.7,32.6,40.7,32.6z"/>
	<path fill="#6BBE66" d="M40.7,32.6c0,0,0.1,0.1,0.1,0.2l-0.1,0l-0.1,0C40.6,32.7,40.7,32.6,40.7,32.6z"/>
	<path fill="#6BBE66" d="M41.8,32.1l-0.2,0.2c0,0-0.1,0.1-0.2,0.3l0,0.1c0,0-0.1,0-0.2,0c0,0,0.1-0.1,0.1-0.3c0,0,0-0.5,0.3-0.6
		c0,0,0.2-0.1,0.1,0c0,0-0.1,0.2-0.2,0.4C41.4,32.3,41.5,32.1,41.8,32.1z"/>
	<path fill="#6BBE66" d="M42.7,32.6L42.7,32.6l-0.2,0.3c0,0-0.1,0-0.1,0l0,0l0,0l0-0.1l0.2-0.2C42.6,32.6,42.6,32.6,42.7,32.6
		L42.7,32.6L42.7,32.6z"/>
	<path fill="#6BBE66" d="M40.1,32.4l0.1,0.3l0,0.1l0,0c0,0,0,0-0.1,0c0,0-0.1,0-0.1,0l-0.1-0.3v-0.1l0,0L40.1,32.4
		C40,32.3,40,32.3,40.1,32.4z"/>
	<path fill="#6BBE66" d="M42,32.3L42,32.3L42,32.3l0.1,0.1L42,32.8c0,0,0,0.1-0.1,0c0,0,0,0-0.1,0l0,0l0-0.1L42,32.3
		C42,32.3,42,32.3,42,32.3z"/>
</g>
<g id="roughgrass_x5F_bd_20_" enable-background="new    ">
	<path fill="#6BBE66" d="M28.3,46.5L28.3,46.5L28.3,46.5l-0.1,0.1c0,0-0.1,0-0.1,0L28,46.3l0-0.1l0,0l0,0c0,0,0.1,0,0.1,0L28.3,46.5
		z"/>
	<path fill="#6BBE66" d="M29.4,46.2C29.4,46.2,29.4,46.2,29.4,46.2C29.4,46.2,29.4,46.2,29.4,46.2c-0.1-0.1-0.2-0.2-0.2-0.2
		c0-0.1,0.1-0.3,0.1-0.3c0-0.1,0-0.4,0-0.4C29.7,45.8,29.4,46.2,29.4,46.2z"/>
	<path fill="#6BBE66" d="M29.4,46.2c0,0,0.1,0.1,0.1,0.2l-0.1,0l-0.1,0C29.4,46.3,29.4,46.3,29.4,46.2z"/>
	<path fill="#6BBE66" d="M30.5,45.8L30.3,46c0,0-0.1,0.1-0.2,0.3l0,0.1c0,0-0.1,0-0.2,0c0,0,0.1-0.1,0.1-0.3c0,0,0-0.5,0.3-0.6
		c0,0,0.2-0.1,0.1,0c0,0-0.1,0.2-0.2,0.4C30.1,46,30.3,45.7,30.5,45.8z"/>
	<path fill="#6BBE66" d="M31.5,46.3L31.5,46.3l-0.2,0.3c0,0-0.1,0-0.1,0l0,0l0,0l0-0.1l0.2-0.2C31.3,46.2,31.4,46.2,31.5,46.3
		L31.5,46.3L31.5,46.3z"/>
	<path fill="#6BBE66" d="M28.8,46l0.1,0.3l0,0.1l0,0c0,0,0,0-0.1,0c0,0-0.1,0-0.1,0l-0.1-0.3V46l0,0L28.8,46
		C28.7,46,28.8,46,28.8,46z"/>
	<path fill="#6BBE66" d="M30.8,46L30.8,46L30.8,46l0.1,0.1l-0.1,0.3c0,0,0,0.1-0.1,0c0,0,0,0-0.1,0l0,0l0-0.1L30.8,46
		C30.7,46,30.7,46,30.8,46z"/>
</g>
<g id="roughgrass_x5F_bd_19_" enable-background="new    ">
	<path fill="#6BBE66" d="M30.9,44.2L30.9,44.2L30.9,44.2l-0.1,0.1c0,0-0.1,0-0.1,0l-0.2-0.2l0-0.1l0,0l0,0c0,0,0.1,0,0.1,0
		L30.9,44.2z"/>
	<path fill="#6BBE66" d="M32.1,43.9C32.1,43.9,32.1,43.9,32.1,43.9C32.1,43.9,32.1,43.9,32.1,43.9c-0.1-0.1-0.2-0.2-0.2-0.2
		c0-0.1,0.1-0.3,0.1-0.3c0-0.1,0-0.4,0-0.4C32.3,43.5,32.1,43.9,32.1,43.9z"/>
	<path fill="#6BBE66" d="M32.1,43.9c0,0,0.1,0.1,0.1,0.2l-0.1,0l-0.1,0C32,44,32.1,44,32.1,43.9z"/>
	<path fill="#6BBE66" d="M33.1,43.5l-0.2,0.2c0,0-0.1,0.1-0.2,0.3l0,0.1c0,0-0.1,0-0.2,0c0,0,0.1-0.1,0.1-0.3c0,0,0-0.5,0.3-0.6
		c0,0,0.2-0.1,0.1,0c0,0-0.1,0.2-0.2,0.4C32.8,43.7,32.9,43.5,33.1,43.5z"/>
	<path fill="#6BBE66" d="M34.1,44L34.1,44L34,44.3c0,0-0.1,0-0.1,0l0,0l0,0l0-0.1L34,44C34,43.9,34,43.9,34.1,44L34.1,44L34.1,44z"
		/>
	<path fill="#6BBE66" d="M31.4,43.7l0.1,0.3l0,0.1l0,0c0,0,0,0-0.1,0c0,0-0.1,0-0.1,0l-0.1-0.3v-0.1l0,0L31.4,43.7
		C31.4,43.7,31.4,43.7,31.4,43.7z"/>
	<path fill="#6BBE66" d="M33.4,43.7L33.4,43.7L33.4,43.7l0.1,0.1l-0.1,0.3c0,0,0,0.1-0.1,0c0,0,0,0-0.1,0l0,0l0-0.1L33.4,43.7
		C33.3,43.7,33.4,43.7,33.4,43.7z"/>
</g>
<g id="roughgrass_x5F_bd_18_" enable-background="new    ">
	<path fill="#6BBE66" d="M26.5,43.4L26.5,43.4L26.5,43.4l-0.1,0.1c0,0-0.1,0-0.1,0l-0.2-0.2l0-0.1l0,0l0,0c0,0,0.1,0,0.1,0
		L26.5,43.4z"/>
	<path fill="#6BBE66" d="M27.7,43.2C27.7,43.2,27.7,43.2,27.7,43.2C27.7,43.1,27.6,43.1,27.7,43.2c-0.1-0.1-0.2-0.2-0.2-0.2
		c0-0.1,0.1-0.3,0.1-0.3c0-0.1,0-0.4,0-0.4C27.9,42.8,27.7,43.2,27.7,43.2z"/>
	<path fill="#6BBE66" d="M27.7,43.2c0,0,0.1,0.1,0.1,0.2l-0.1,0l-0.1,0C27.6,43.3,27.6,43.2,27.7,43.2z"/>
	<path fill="#6BBE66" d="M28.7,42.7l-0.2,0.2c0,0-0.1,0.1-0.2,0.3l0,0.1c0,0-0.1,0-0.2,0c0,0,0.1-0.1,0.1-0.3c0,0,0-0.5,0.3-0.6
		c0,0,0.2-0.1,0.1,0c0,0-0.1,0.2-0.2,0.4C28.4,42.9,28.5,42.7,28.7,42.7z"/>
	<path fill="#6BBE66" d="M29.7,43.2L29.7,43.2l-0.2,0.3c0,0-0.1,0-0.1,0l0,0l0,0l0-0.1l0.2-0.2C29.6,43.2,29.6,43.2,29.7,43.2
		L29.7,43.2L29.7,43.2z"/>
	<path fill="#6BBE66" d="M27,43l0.1,0.3l0,0.1l0,0c0,0,0,0-0.1,0c0,0-0.1,0-0.1,0l-0.1-0.3V43l0,0L27,43C27,42.9,27,42.9,27,43z"/>
	<path fill="#6BBE66" d="M29,42.9L29,42.9L29,42.9l0.1,0.1L29,43.4c0,0,0,0.1-0.1,0c0,0,0,0-0.1,0l0,0l0-0.1L29,42.9
		C28.9,42.9,29,42.9,29,42.9z"/>
</g>
<g id="roughgrass_x5F_bd_21_" enable-background="new    ">
	<path fill="#6BBE66" d="M4.5,47.9L4.5,47.9L4.5,47.9L4.4,48c0,0-0.1,0-0.1,0l-0.2-0.2l0-0.1l0,0l0,0c0,0,0.1,0,0.1,0L4.5,47.9z"/>
	<path fill="#6BBE66" d="M5.6,47.6C5.6,47.6,5.6,47.6,5.6,47.6C5.6,47.6,5.6,47.6,5.6,47.6c-0.1-0.1-0.2-0.2-0.2-0.2
		c0-0.1,0.1-0.3,0.1-0.3c0-0.1,0-0.4,0-0.4C5.9,47.2,5.6,47.6,5.6,47.6z"/>
	<path fill="#6BBE66" d="M5.6,47.6c0,0,0.1,0.1,0.1,0.2l-0.1,0l-0.1,0C5.6,47.7,5.6,47.7,5.6,47.6z"/>
	<path fill="#6BBE66" d="M6.7,47.2l-0.2,0.2c0,0-0.1,0.1-0.2,0.3l0,0.1c0,0-0.1,0-0.2,0c0,0,0.1-0.1,0.1-0.3c0,0,0-0.5,0.3-0.6
		c0,0,0.2-0.1,0.1,0c0,0-0.1,0.2-0.2,0.4C6.3,47.4,6.5,47.2,6.7,47.2z"/>
	<path fill="#6BBE66" d="M7.7,47.7L7.7,47.7L7.5,48c0,0-0.1,0-0.1,0l0,0l0,0l0-0.1l0.2-0.2C7.5,47.6,7.6,47.6,7.7,47.7L7.7,47.7
		L7.7,47.7z"/>
	<path fill="#6BBE66" d="M5,47.4l0.1,0.3l0,0.1l0,0c0,0,0,0-0.1,0c0,0-0.1,0-0.1,0l-0.1-0.3v-0.1l0,0L5,47.4C5,47.4,5,47.4,5,47.4z"
		/>
	<path fill="#6BBE66" d="M7,47.4L7,47.4L7,47.4l0.1,0.1L7,47.9c0,0,0,0.1-0.1,0c0,0,0,0-0.1,0l0,0l0-0.1L7,47.4
		C6.9,47.4,6.9,47.4,7,47.4z"/>
</g>
<g id="roughgrass_x5F_bd_22_" enable-background="new    ">
	<path fill="#6BBE66" d="M7.2,45.6L7.2,45.6L7.2,45.6l-0.1,0.1c0,0-0.1,0-0.1,0l-0.2-0.2l0-0.1l0,0l0,0c0,0,0.1,0,0.1,0L7.2,45.6z"
		/>
	<path fill="#6BBE66" d="M8.3,45.3C8.3,45.3,8.3,45.3,8.3,45.3C8.3,45.3,8.3,45.3,8.3,45.3c-0.1-0.1-0.2-0.2-0.2-0.2
		c0-0.1,0.1-0.3,0.1-0.3c0-0.1,0-0.4,0-0.4C8.5,44.9,8.3,45.3,8.3,45.3z"/>
	<path fill="#6BBE66" d="M8.3,45.3c0,0,0.1,0.1,0.1,0.2l-0.1,0l-0.1,0C8.3,45.5,8.3,45.4,8.3,45.3z"/>
	<path fill="#6BBE66" d="M9.4,44.9l-0.2,0.2c0,0-0.1,0.1-0.2,0.3l0,0.1c0,0-0.1,0-0.2,0c0,0,0.1-0.1,0.1-0.3c0,0,0-0.5,0.3-0.6
		c0,0,0.2-0.1,0.1,0c0,0-0.1,0.2-0.2,0.4C9,45.1,9.2,44.9,9.4,44.9z"/>
	<path fill="#6BBE66" d="M10.4,45.4L10.4,45.4l-0.2,0.3c0,0-0.1,0-0.1,0l0,0l0,0l0-0.1l0.2-0.2C10.2,45.3,10.2,45.3,10.4,45.4
		L10.4,45.4L10.4,45.4z"/>
	<path fill="#6BBE66" d="M7.7,45.2l0.1,0.3l0,0.1l0,0c0,0,0,0-0.1,0c0,0-0.1,0-0.1,0l-0.1-0.3v-0.1l0,0L7.7,45.2
		C7.6,45.1,7.7,45.1,7.7,45.2z"/>
	<path fill="#6BBE66" d="M9.6,45.1L9.6,45.1L9.6,45.1l0.1,0.1l-0.1,0.3c0,0,0,0.1-0.1,0c0,0,0,0-0.1,0l0,0l0-0.1L9.6,45.1
		C9.6,45.1,9.6,45.1,9.6,45.1z"/>
</g>
<g id="roughgrass_x5F_bd" enable-background="new    ">
	<path fill="#6BBE66" d="M2.7,44.8L2.7,44.8L2.7,44.8L2.7,45c0,0-0.1,0-0.1,0l-0.2-0.2l0-0.1l0,0l0,0c0,0,0.1,0,0.1,0L2.7,44.8z"/>
	<path fill="#6BBE66" d="M3.9,44.6C3.9,44.6,3.9,44.6,3.9,44.6C3.9,44.6,3.9,44.6,3.9,44.6c-0.1-0.1-0.2-0.2-0.2-0.2
		c0-0.1,0.1-0.3,0.1-0.3c0-0.1,0-0.4,0-0.4C4.1,44.2,3.9,44.6,3.9,44.6z"/>
	<path fill="#6BBE66" d="M3.9,44.6c0,0,0.1,0.1,0.1,0.2l-0.1,0l-0.1,0C3.8,44.7,3.9,44.6,3.9,44.6z"/>
	<path fill="#6BBE66" d="M4.9,44.1l-0.2,0.2c0,0-0.1,0.1-0.2,0.3l0,0.1c0,0-0.1,0-0.2,0c0,0,0.1-0.1,0.1-0.3c0,0,0-0.5,0.3-0.6
		c0,0,0.2-0.1,0.1,0c0,0-0.1,0.2-0.2,0.4C4.6,44.3,4.7,44.1,4.9,44.1z"/>
	<path fill="#6BBE66" d="M5.9,44.7L5.9,44.7l-0.2,0.3c0,0-0.1,0-0.1,0l0,0l0,0l0-0.1l0.2-0.2C5.8,44.6,5.8,44.6,5.9,44.7L5.9,44.7
		L5.9,44.7z"/>
	<path fill="#6BBE66" d="M3.2,44.4l0.1,0.3l0,0.1l0,0c0,0,0,0-0.1,0c0,0-0.1,0-0.1,0l-0.1-0.3v-0.1l0,0L3.2,44.4
		C3.2,44.3,3.2,44.4,3.2,44.4z"/>
	<path fill="#6BBE66" d="M5.2,44.3L5.2,44.3L5.2,44.3l0.1,0.1l-0.1,0.3c0,0,0,0.1-0.1,0c0,0,0,0-0.1,0l0,0l0-0.1L5.2,44.3
		C5.1,44.4,5.2,44.3,5.2,44.3z"/>
</g>
</svg>
