<svg id="Layer_1" data-name="Layer 1" xmlns="http://www.w3.org/2000/svg" width="16.9333mm" height="16.9333mm" viewBox="0 0 48 48"><circle cx="24" cy="24" r="4.8" fill="#fff"/><g style="isolation:isolate"><path d="M1,24A23,23,0,1,1,24,47,22.9395,22.9395,0,0,1,1,24ZM24,3A21,21,0,1,0,45,24,20.9974,20.9974,0,0,0,24,3Zm.7,36.3,5.5,1.5-.4-2.4-4.5-3.5.4-6.4c0-1.8-.3-3.9,1.3-3.9a14.1589,14.1589,0,0,1,2,.4l3.6,1,8.5,3.8V29c0-.6.1-1.6-.4-2a8.0638,8.0638,0,0,0-1.4-1.2L26.1,16V14.9l-.4-5.2C25.6,8.7,25.5,6,24,6s-1.5,2.7-1.7,3.7L22,14.9V16L8.9,25.8A8.0638,8.0638,0,0,0,7.5,27c-.5.5-.4,1.4-.4,2v.9l8.5-3.8,3.6-1a12.86,12.86,0,0,1,1.9-.4c1.5,0,1.2,2.1,1.3,3.9l.4,6.4-4.5,3.5-.4,2.4,5.5-1.5,1.3-.1Z" fill="#6a70c7"/></g></svg>