<svg id="Layer_1" data-name="Layer 1" xmlns="http://www.w3.org/2000/svg" width="16.9333mm" height="16.9333mm" viewBox="0 0 48 48"><path d="M47,22.5c0,3.1-1.9,12.3-2.1,13.3-.2.9-.7,1.9-1.6,1.9a2.092,2.092,0,0,1-.6-.4c-1-.3-1.2-3.1-1-4.2.4-1.8.7-1.2,1.1-3.3l-.9-1.5c-.6-.3-.7-1.4-.3-2.1.3-.7.9-.7,1.5-.3l.4-1.1a7.51,7.51,0,0,0,0-2.2,14.3244,14.3244,0,0,0-.3-2.6c-1.9.2-3.7.5-4.2.9-1.6,1.6-3.4.1-4.1-.4l-.3-.3c-.3.3-.5.6-.9,1-.3.4-.7.9-1.4,1.7-.3.3-.2,1.4.1,2.3l.3.8c.4,1,.3,2.5-.6,3s-1.4-.2-1.8-1.2a9.0166,9.0166,0,0,1-1.4-1.7l-.6-2.5a7.6687,7.6687,0,0,0-1.9-3.2A7.5513,7.5513,0,0,1,25,19.3c-1-1-1.4-1.4-3.3.7s-3.1,5.6-3.3,9.5c0,1.1-1.6,5.3-2.6,5.2-1,0-.8-.9-.7-2.1,0-.7,1-8.9,1-9.4l-3.8-4.5-1.8.7,1.2,3.8a1.2383,1.2383,0,0,1-.3,1.4L9.5,26.9c-.2.3-.6,0-.9,0s-.6.3-.8.1a1.5108,1.5108,0,0,1-.1-1.9L9.5,23,7.8,20.5,3.4,22.1a1.7181,1.7181,0,0,1-2.3-1.3c-.3-1.1,2.5-2.6,3.5-2.9l6.1-2.4c.5-.2,2.5-1,2.9-.7l.8.5c.2.1.5,1.5,1.3,3l1.9,1.3c.7-.5.9-1.7,1.4-2.3,4.3-4.9,7.1-2.1,8.3-.9.2.2.4.4.5.4a6.21,6.21,0,0,1,2.4,2.8,3.6314,3.6314,0,0,1,.8-.9,10.2436,10.2436,0,0,1,1.8-1.9c1.8-1.5,3.5-.1,4.3.6a.3491.3491,0,0,0,.2.1,15.6333,15.6333,0,0,1,6.2-1.7A3.4839,3.4839,0,0,1,45.9,17,14.1965,14.1965,0,0,1,47,22.5Z" fill="#9a9a90"/></svg>