<svg id="Layer_1" data-name="Layer 1" xmlns="http://www.w3.org/2000/svg" width="16.9333mm" height="16.9333mm" viewBox="0 0 48 48"><g id="Layer_2" data-name="Layer 2"><path d="M47,22.4a37.2594,37.2594,0,0,1-.8,6.2c-.1.3.5,1.5.5,1.8-.1.6-.9.4-1,.9-.4,2.2-.8,3.9-.9,4.4-.2.9-.7,1.9-1.6,1.9-.1,0-.5-.4-.6-.4-1-.3-1.2-3.1-1-4.2.4-1.8.7-1.2,1.1-3.3,0,0-.3-4.3.2-3.9l.4-1.1a8.3989,8.3989,0,0,0,0-2.3,14.3244,14.3244,0,0,0-.3-2.6c-1.9.2-3.7.5-4.2.9-1.6,1.6-3.4.1-4.1-.4l-.3-.3a9.016,9.016,0,0,0-.9,1c-.3.4-.7.9-1.4,1.7a3.9006,3.9006,0,0,0,.2,2.3l-.8,1.7c.3,1-1.1,2.6-2,3-.9.5-1.3-1.1-1.7-2.1-.1-.1,1.1-1.1.9-1.7l-.6-2.5a7.6687,7.6687,0,0,0-1.9-3.2c-.5-.3-.8-1-1.4-1.1-1.6-.5-1.4-1.4-3.3.7s-2.6,2.1-1.5,6.8c.3,1.1,2.4,6.4,1.4,6.3-1,0-3.1-2.3-3-3.4,0-.7-2.6-6-2.6-6.5L12,18.5l-1.8.7.1,2.4s.5,2.5.1,2.9L11.7,27c-.1.3-1.8-1-2.1-1s-1.5.4-1.7.1c-.5-.5-.7-.9-.3-1.4l.5-2L7.7,20,3.3,21.6A1.7181,1.7181,0,0,1,1,20.3c-.3-1.1,2.5-2.6,3.5-2.9L8,16.6c.5-.2,3.8-2.5,4.3-2.2l2.1.4c.2.1-.1.8.7,2.4l2.5,2c.7-.5.8-1.7,1.4-2.3,3.4-3.5,5-2.6,6.2-1.4.2.2,2.5.9,2.6,1a7.978,7.978,0,0,1,3.1,3.2c.3-.4.9-1.7,1.1-1.9a5.35,5.35,0,0,1,1.3-1.4c1.8-1.5,2.9,0,3.7.7a.3491.3491,0,0,0,.2.1c1.6-.9,3.4-1.9,5-1,.6.3,3.2-.6,3.5,0A17.0346,17.0346,0,0,1,47,22.4Z" fill="#9a9a90"/></g></svg>