<svg id="Layer_1" data-name="Layer 1" xmlns="http://www.w3.org/2000/svg" width="16.9333mm" height="16.9333mm" viewBox="0 0 48 48"><polygon points="3.3 22.1 27.1 28.4 44.7 19.8 23 16.2 3.3 22.1" fill="#fff"/><g style="isolation:isolate"><path d="M41.3,19.1a2.7872,2.7872,0,0,1,.1,1.8,3.7839,3.7839,0,0,0-.1.8,4.5331,4.5331,0,0,0,.2,1.9,1.5393,1.5393,0,0,1,1,1.5c0,.3-.1.4-.1.7.7,2,1.4,4.7-.3,6.2l-2.2.2c-1.8-.7-1.5-2.6-1.1-4.1a10.1022,10.1022,0,0,1,.7-2.3,1.4773,1.4773,0,0,1,.5-2,8.0649,8.0649,0,0,1,0-3.1,1.1833,1.1833,0,0,0-.1-1l-5.8,2.7c.1.4.1,1,.2,1.9a21.3608,21.3608,0,0,1,.2,5c-5.4,5.2-14.7,3.7-20.4-.2-.7-1.8-.2-5.3.3-6.8L2.6,19l.1-.7L1,18l21.9-6L47,15.6l-1.2.6.3.8Zm2.3-3L22.9,12.9,4.8,18,27,23.8,37.2,19l-1.3-.1a13.2813,13.2813,0,0,1-4.4-.9,6.6861,6.6861,0,0,1-1.9-.5l-.1-.1a2.8145,2.8145,0,0,1-1.1.1,8.51,8.51,0,0,1-4.2-.3c-1-.7-.8-1.1.5-1.3a3.2688,3.2688,0,0,0,.8.2,11.5709,11.5709,0,0,0,2.8.1c.5,0,1.5-.2,1.9.1a8.4689,8.4689,0,0,0,1.7.4s.5.2,1.1.4a15.5354,15.5354,0,0,0,2.9.5s2.5.2,3.9.2Z" fill="#2837c6"/></g></svg>