<svg id="Layer_1" data-name="Layer 1" xmlns="http://www.w3.org/2000/svg" width="16.9333mm" height="16.9333mm" viewBox="0 0 48 48"><polygon points="3.3 20.2 27.1 26.5 44.7 17.9 23 14.3 3.3 20.2" fill="#fff"/><g style="isolation:isolate"><path d="M41.3,20.8a2.7872,2.7872,0,0,1,.1,1.8,3.7839,3.7839,0,0,0-.1.8,4.5331,4.5331,0,0,0,.2,1.9,1.5393,1.5393,0,0,1,1,1.5c0,.2-.1.4-.1.6.7,2,1.4,4.7-.2,6.2l-2.2.2c-1.8-.7-1.5-2.6-1.1-4.1a10.1022,10.1022,0,0,1,.7-2.3,1.349,1.349,0,0,1,.5-1.9,8.0649,8.0649,0,0,1,0-3.1,1.1833,1.1833,0,0,0-.1-1l-5.8,2.7c.1.4.1,1,.2,1.9a21.3608,21.3608,0,0,1,.2,5c-5.4,5.2-14.7,3.8-20.4-.2-.7-1.8-.2-5.3.3-6.8l-12-3.3.1-.7L1,19.7l21.9-6L47,17.3l-1.2.6.3.8Zm2.3-3L22.9,14.6l-18.1,5L27,25.5l10.3-4.8L36,20.6a13.2813,13.2813,0,0,1-4.4-.9,6.6861,6.6861,0,0,1-1.9-.5l-.1-.1a2.8145,2.8145,0,0,1-1.1.1,8.51,8.51,0,0,1-4.2-.3c-1-.7-.8-1.1.5-1.3a3.2688,3.2688,0,0,0,.8.2,11.5709,11.5709,0,0,0,2.8.1c.5,0,1.5-.2,1.9.1a8.4689,8.4689,0,0,0,1.7.4s.5.2,1.1.4a15.5354,15.5354,0,0,0,2.9.5s2.5.2,3.9.2Z" fill="#6a70c7"/></g></svg>