<svg id="Layer_1" data-name="Layer 1" xmlns="http://www.w3.org/2000/svg" width="33.8667mm" height="33.8667mm" viewBox="0 0 96 96"><g id="marsh_bd"><g id="Marsh_FC"><path d="M13.7,78.4c.1.1,0,.2-.1.2H11.2a.2.2,0,1,1,0-.4h1.6a.0979.0979,0,0,0-.1-.1h0c-.1-.1-.1-.1,0-.2l.1-.1.2.2v.2h.2c0-.2,0-.3-.1-.4a.0979.0979,0,0,0-.1-.1.1385.1385,0,0,1,0-.2h.1c.1.1.1.2.2.2v.1a.3674.3674,0,0,0,.1.3C13.6,78.2,13.6,78.3,13.7,78.4Zm3,.9c0,.1-.1.1-.2.1H12.6a.125.125,0,1,1,0-.2h3.9C16.6,79.2,16.7,79.2,16.7,79.3Zm-2.3-.8a2.0577,2.0577,0,0,0-.5-.9s-.2-.2.2-.1a1.1057,1.1057,0,0,1,.4.5s0-.8.5-.9c0,0,.3-.1.1.1a1.0474,1.0474,0,0,0-.3.6,1.4093,1.4093,0,0,1,.5-.3s.3-.1,0,.1l-.4.4a.31.31,0,0,0-.1.2l-.2.2C14.6,78.6,14.6,78.6,14.4,78.5Zm1.1-.1c0-.1.1-.2.1-.3V78a.3674.3674,0,0,1,.1-.3.0979.0979,0,0,1,.1-.1.1875.1875,0,0,1,.3,0h.1c-.1.1-.2.2-.2.3v.2a.2151.2151,0,0,0,.2.2h0c0-.1,0-.2.1-.2V78a.1875.1875,0,0,1,.3,0l.1.1c-.1,0-.1.1-.2.1h0a.3491.3491,0,0,0,.2.1H18a.2.2,0,0,1,0,.4H15.6A.3674.3674,0,0,1,15.5,78.4Z" fill="#a9cda6"/></g></g><g id="marsh_bd-2" data-name="marsh_bd" style="isolation:isolate"><g id="Marsh_FC-2" data-name="Marsh_FC"><path d="M19.1,73.8c.1.1,0,.2-.1.2H16.6a.2.2,0,0,1,0-.4h1.6a.0979.0979,0,0,0-.1-.1h0c-.1-.1-.1-.1,0-.2l.1-.1.2.2v.2h.2c0-.2,0-.3-.1-.4a.0979.0979,0,0,0-.1-.1.1385.1385,0,0,1,0-.2h.1c.1.1.1.2.2.2v.1a.3674.3674,0,0,0,.1.3Q19.1,73.65,19.1,73.8Zm3,.9c0,.1-.1.1-.2.1H18a.125.125,0,1,1,0-.2h4C22.1,74.6,22.1,74.6,22.1,74.7Zm-2.3-.8a2.0577,2.0577,0,0,0-.5-.9s-.2-.2.2-.1a1.1057,1.1057,0,0,1,.4.5s0-.8.5-.9c0,0,.3-.1.1.1a1.0474,1.0474,0,0,0-.3.6,1.4093,1.4093,0,0,1,.5-.3s.3-.1,0,.1l-.4.4a.31.31,0,0,0-.1.2l-.2.2C20,74,20,74,19.8,73.9Zm1.1-.1c0-.1.1-.2.1-.3v-.1a.3674.3674,0,0,1,.1-.3.0979.0979,0,0,1,.1-.1.1875.1875,0,0,1,.3,0h.1c-.1.1-.2.2-.2.3v.2a.2151.2151,0,0,0,.2.2h0c0-.1,0-.2.1-.2v-.1a.1875.1875,0,0,1,.3,0l.1.1c-.1,0-.1.1-.2.1h0a.3491.3491,0,0,0,.2.1h1.5a.2.2,0,0,1,0,.4H21C20.9,73.9,20.9,73.9,20.9,73.8Z" fill="#a9cda6"/></g></g><g id="marsh_bd-3" data-name="marsh_bd" style="isolation:isolate"><g id="Marsh_FC-3" data-name="Marsh_FC"><path d="M10.1,72.2c.1.1,0,.2-.1.2H7.7a.2.2,0,0,1,0-.4H9.3a.0979.0979,0,0,0-.1-.1h0c-.1-.1-.1-.1,0-.2l.1-.1.2.2V72h.2c0-.2,0-.3-.1-.4a.0979.0979,0,0,0-.1-.1.1385.1385,0,0,1,0-.2h.1c.1.1.1.2.2.2s0,.1,0,.1a.3674.3674,0,0,0,.1.3A1.4385,1.4385,0,0,1,10.1,72.2Zm3.1.9c0,.1-.1.1-.2.1H9.1a.125.125,0,1,1,0-.2H13A.3491.3491,0,0,1,13.2,73.1Zm-2.4-.8a2.0577,2.0577,0,0,0-.5-.9s-.2-.2.2-.1a1.1057,1.1057,0,0,1,.4.5s0-.8.5-.9c0,0,.3-.1.1.1a1.0474,1.0474,0,0,0-.3.6,1.4093,1.4093,0,0,1,.5-.3s.3-.1,0,.1l-.3.6a.31.31,0,0,0-.1.2l-.2.2C11,72.4,11,72.5,10.8,72.3Zm1.2-.1c0-.1.1-.2.1-.3v-.1a.3674.3674,0,0,1,.1-.3.0979.0979,0,0,1,.1-.1.1875.1875,0,0,1,.3,0h.1c-.1.1-.2.2-.2.3v.2a.2151.2151,0,0,0,.2.2h0c0-.1,0-.2.1-.2v-.1a.1875.1875,0,0,1,.3,0l.1.1c-.1,0-.1.1-.2.1h0a.3491.3491,0,0,0,.2.1h1.5a.2.2,0,1,1,0,.4H12A.1875.1875,0,0,1,12,72.2Z" fill="#a9cda6"/></g></g><g id="marsh_bd-4" data-name="marsh_bd" style="isolation:isolate"><g id="Marsh_FC-4" data-name="Marsh_FC"><path d="M50.6,67.7c.1.1,0,.2-.1.2H48.1a.2.2,0,0,1,0-.4h1.6a.0979.0979,0,0,0-.1-.1h0c-.1-.1-.1-.1,0-.2l.1-.1.2.2v.2h.2c0-.2,0-.3-.1-.4a.0979.0979,0,0,0-.1-.1.1385.1385,0,0,1,0-.2H50c.1.1.1.2.2.2v.1a.3674.3674,0,0,0,.1.3C50.5,67.5,50.5,67.6,50.6,67.7Zm3,.9c0,.1-.1.1-.2.1H49.5a.125.125,0,1,1,0-.2h3.9C53.5,68.5,53.6,68.5,53.6,68.6Zm-2.4-.8a3.0764,3.0764,0,0,0-.4-.9s-.2-.2.2-.1a1.1057,1.1057,0,0,1,.4.5s0-.8.5-.9c0,0,.3-.1.1.1a1.0474,1.0474,0,0,0-.3.6,1.4093,1.4093,0,0,1,.5-.3s.3-.1,0,.1l-.4.4a.31.31,0,0,0-.1.2l-.2.2C51.5,67.9,51.5,67.9,51.2,67.8Zm1.2-.1c0-.1.1-.2.1-.3v-.1a.3674.3674,0,0,1,.1-.3l.1-.1a.1875.1875,0,0,1,.3,0h.1c-.1.1-.2.2-.2.3v.2a.2151.2151,0,0,0,.2.2h0c0-.1,0-.2.1-.2v-.1a.1875.1875,0,0,1,.3,0l.1.1c-.1,0-.1.1-.2.1h0a.3491.3491,0,0,0,.2.1H55a.2.2,0,0,1,0,.4H52.6C52.4,67.9,52.3,67.8,52.4,67.7Z" fill="#a9cda6"/></g></g><g id="marsh_bd-5" data-name="marsh_bd" style="isolation:isolate"><g id="Marsh_FC-5" data-name="Marsh_FC"><path d="M56,63.1c.1.1,0,.2-.1.2H53.5a.2.2,0,0,1,0-.4h1.6a.0979.0979,0,0,0-.1-.1h0c-.1-.1-.1-.1,0-.2l.1-.1.2.2v.2h.2c0-.2,0-.3-.1-.4a.0979.0979,0,0,0-.1-.1.1385.1385,0,0,1,0-.2h.1c.1.1.1.2.2.2v.1a.3674.3674,0,0,0,.1.3C55.9,62.9,55.9,63,56,63.1Zm3,.9c0,.1-.1.1-.2.1H54.9a.125.125,0,1,1,0-.2h3.9C58.9,63.9,59,63.9,59,64Zm-2.3-.8a3.0764,3.0764,0,0,0-.4-.9s-.2-.2.2-.1a1.1057,1.1057,0,0,1,.4.5s0-.8.5-.9c0,0,.3-.1.1.1a1.0474,1.0474,0,0,0-.3.6,1.4093,1.4093,0,0,1,.5-.3s.3-.1,0,.1l-.4.4a.31.31,0,0,0-.1.2l-.2.2C56.9,63.3,56.9,63.3,56.7,63.2Zm1.1-.1c0-.1.1-.2.1-.3v-.1a.3674.3674,0,0,1,.1-.3.0979.0979,0,0,1,.1-.1.1875.1875,0,0,1,.3,0h.1c-.1.1-.2.2-.2.3v.2a.2151.2151,0,0,0,.2.2h0c0-.1,0-.2.1-.2v-.1a.1875.1875,0,0,1,.3,0l.1.1c-.1,0-.1.1-.2.1h0a.3491.3491,0,0,0,.2.1h1.4a.2.2,0,0,1,0,.4H58C57.8,63.2,57.7,63.2,57.8,63.1Z" fill="#a9cda6"/></g></g><g id="marsh_bd-6" data-name="marsh_bd" style="isolation:isolate"><g id="Marsh_FC-6" data-name="Marsh_FC"><path d="M47,61.5c.1.1,0,.2-.1.2H44.5a.2.2,0,0,1,0-.4h1.6a.0979.0979,0,0,0-.1-.1h0c-.1-.1-.1-.1,0-.2l.1-.1.2.2v.2h.2c0-.2,0-.3-.1-.4a.0979.0979,0,0,0-.1-.1.1385.1385,0,0,1,0-.2h.1c.1.1.1.2.2.2v.1a.3674.3674,0,0,0,.1.3C46.9,61.3,46.9,61.5,47,61.5Zm3,.9c0,.1-.1.1-.2.1H46a.125.125,0,1,1,0-.2h3.9A.0979.0979,0,0,1,50,62.4Zm-2.3-.7a2.0577,2.0577,0,0,0-.5-.9s-.2-.2.2-.1a1.1057,1.1057,0,0,1,.4.5s0-.8.5-.9c0,0,.3-.1.1.1a1.0474,1.0474,0,0,0-.3.6,1.4093,1.4093,0,0,1,.5-.3s.3-.1,0,.1l-.4.4a.31.31,0,0,0-.1.2l-.2.2C47.9,61.8,47.9,61.8,47.7,61.7Zm1.1-.2c0-.1.1-.2.1-.3v-.1a.3674.3674,0,0,1,.1-.3.0979.0979,0,0,1,.1-.1.1875.1875,0,0,1,.3,0h.1c-.1.1-.2.2-.2.3v.2a.2151.2151,0,0,0,.2.2h0c0-.1,0-.2.1-.2v-.1a.1875.1875,0,0,1,.3,0l.1.1c-.1,0-.1.1-.2.1h0a.3491.3491,0,0,0,.2.1h1.5a.2.2,0,0,1,0,.4H49.1C48.8,61.7,48.8,61.6,48.8,61.5Z" fill="#a9cda6"/></g></g><g id="marsh_bd-7" data-name="marsh_bd" style="isolation:isolate"><g id="Marsh_FC-7" data-name="Marsh_FC"><path d="M9.2,50.1c.1.1,0,.2-.1.2H6.8a.2.2,0,0,1,0-.4H8.4a.0979.0979,0,0,0-.1-.1h0c-.1-.1-.1-.1,0-.2l.1-.1.2.2v.2h.2c0-.2,0-.3-.1-.4a.0979.0979,0,0,0-.1-.1.1385.1385,0,0,1,0-.2h.1c.2.1.3.1.3.2v.1a.3674.3674,0,0,0,.1.3C9.1,49.9,9.2,50,9.2,50.1Zm3.1.9c0,.1-.1.1-.2.1H8.2a.125.125,0,1,1,0-.2h3.9C12.2,50.9,12.3,50.9,12.3,51Zm-2.4-.8a2.0577,2.0577,0,0,0-.5-.9s-.2-.2.2-.1a1.1057,1.1057,0,0,1,.4.5s0-.8.5-.9c0,0,.3-.1.1.1a1.0474,1.0474,0,0,0-.3.6,1.4093,1.4093,0,0,1,.5-.3s.3-.1,0,.1l-.4.4a.31.31,0,0,0-.1.2l-.2.2C10.1,50.3,10.1,50.3,9.9,50.2Zm1.1-.1c0-.1.1-.2.1-.3v-.1a.3674.3674,0,0,1,.1-.3.0979.0979,0,0,1,.1-.1.1875.1875,0,0,1,.3,0h.1c-.1.1-.2.2-.2.3v.2a.2151.2151,0,0,0,.2.2h0c0-.1,0-.2.1-.2v-.1a.1875.1875,0,0,1,.3,0l.1.1c-.1,0-.1.1-.2.1h0a.3491.3491,0,0,0,.2.1h1.5a.2.2,0,0,1,0,.4H11.3C11,50.2,11,50.2,11,50.1Z" fill="#a9cda6"/></g></g><g id="marsh_bd-8" data-name="marsh_bd" style="isolation:isolate"><g id="Marsh_FC-8" data-name="Marsh_FC"><path d="M14.6,45.5c.1.1,0,.2-.1.2H12.1a.2.2,0,0,1,0-.4h1.6a.0979.0979,0,0,0-.1-.1h0c-.1-.1-.1-.1,0-.2l.1-.1.2.2v.2h.2c0-.2,0-.3-.1-.4a.0979.0979,0,0,0-.1-.1.1385.1385,0,0,1,0-.2H14c.1.1.1.2.2.2v.1a.3674.3674,0,0,0,.1.3Q14.6,45.35,14.6,45.5Zm3.1.9c0,.1-.1.1-.2.1H13.6a.3491.3491,0,0,1-.2-.1.3491.3491,0,0,1,.2-.1h3.9C17.6,46.3,17.7,46.3,17.7,46.4Zm-2.4-.8a2.0577,2.0577,0,0,0-.5-.9s-.2-.2.2-.1a1.1057,1.1057,0,0,1,.4.5s0-.8.5-.9c0,0,.3-.1.1.1a1.0474,1.0474,0,0,0-.3.6,1.4093,1.4093,0,0,1,.5-.3s.3-.1,0,.1l-.4.4a.31.31,0,0,0-.1.2l-.2.2C15.5,45.7,15.5,45.7,15.3,45.6Zm1.1-.1c0-.1.1-.2.1-.3v-.1a.3674.3674,0,0,1,.1-.3.0979.0979,0,0,1,.1-.1.1875.1875,0,0,1,.3,0h.1c-.1.1-.2.2-.2.3v.2a.2151.2151,0,0,0,.2.2h0c0-.1,0-.2.1-.2v-.1a.1875.1875,0,0,1,.3,0l.1.1c-.1,0-.1.1-.2.1h0a.3491.3491,0,0,0,.2.1h1.5a.2.2,0,0,1,0,.4H16.7C16.4,45.6,16.4,45.6,16.4,45.5Z" fill="#a9cda6"/></g></g><g id="marsh_bd-9" data-name="marsh_bd" style="isolation:isolate"><g id="Marsh_FC-9" data-name="Marsh_FC"><path d="M5.7,43.9c.1.1,0,.2-.1.2H3.2a.2.2,0,0,1,0-.4H4.8a.0979.0979,0,0,0-.1-.1h0c-.1-.1-.1-.1,0-.2l.1-.1c.1.2.2.2.2.3v.2h.2c0-.2,0-.3-.1-.4a.0979.0979,0,0,0-.1-.1.1385.1385,0,0,1,0-.2h.1c.1.1.1.2.2.2v.1a.3674.3674,0,0,0,.1.3C5.6,43.7,5.6,43.9,5.7,43.9Zm3,.9c0,.1-.1.1-.2.1H4.6a.3491.3491,0,0,1-.2-.1.3491.3491,0,0,1,.2-.1H8.5A.3491.3491,0,0,1,8.7,44.8ZM6.3,44a2.0577,2.0577,0,0,0-.5-.9s-.2-.2.2-.1a1.1057,1.1057,0,0,1,.4.5s0-.8.5-.9c0,0,.3-.1.1.1a1.0474,1.0474,0,0,0-.3.6,1.4093,1.4093,0,0,1,.5-.3s.3-.1,0,.1l-.4.4a.31.31,0,0,0-.1.2l-.2.2C6.6,44.1,6.6,44.1,6.3,44Zm1.2-.1c0-.1.1-.2.1-.3v-.1a.3674.3674,0,0,1,.1-.3.0979.0979,0,0,1,.1-.1.1875.1875,0,0,1,.3,0h.1c-.1.1-.2.2-.2.3v.2a.2151.2151,0,0,0,.2.2h0c0-.1,0-.2.1-.2v-.1a.1875.1875,0,0,1,.3,0l.1.1c-.1,0-.1.1-.2.1h0a.3491.3491,0,0,0,.2.1h1.5a.2.2,0,0,1,0,.4H7.6C7.5,44.1,7.4,44,7.5,43.9Z" fill="#a9cda6"/></g></g><g id="marsh_bd-10" data-name="marsh_bd" style="isolation:isolate"><g id="Marsh_FC-10" data-name="Marsh_FC"><path d="M18.1,29c.1.1,0,.2-.1.2H15.6a.2.2,0,0,1,0-.4h1.6a.0979.0979,0,0,0-.1-.1h0c-.1-.1-.1-.1,0-.2l.1-.1.2.2v.2h.2c0-.2,0-.3-.1-.4a.0979.0979,0,0,0-.1-.1.1385.1385,0,0,1,0-.2h.1c.1.1.1.2.2.2v.1a.3674.3674,0,0,0,.1.3Q18.1,28.85,18.1,29Zm3.1.9c0,.1-.1.1-.2.1H17.1a.3491.3491,0,0,1-.2-.1c0-.1.1-.1.2-.1H21C21.1,29.7,21.2,29.8,21.2,29.9Zm-2.4-.8a2.0577,2.0577,0,0,0-.5-.9s-.2-.2.2-.1a1.1057,1.1057,0,0,1,.4.5s0-.8.5-.9c0,0,.3-.1.1.1a1.0474,1.0474,0,0,0-.3.6,1.4093,1.4093,0,0,1,.5-.3s.3-.1,0,.1l-.4.4a.31.31,0,0,0-.1.2L19,29C19,29.2,19,29.2,18.8,29.1Zm1.1-.1c0-.1.1-.2.1-.3v-.1a.3674.3674,0,0,1,.1-.3.0979.0979,0,0,1,.1-.1.1875.1875,0,0,1,.3,0h.1c-.1.1-.2.2-.2.3v.2a.2151.2151,0,0,0,.2.2h0c0-.1,0-.2.1-.2v-.1a.1875.1875,0,0,1,.3,0l.1.1c-.1,0-.1.1-.2.1h0a.3491.3491,0,0,0,.2.1h1.5a.2.2,0,1,1,0,.4H20C19.9,29.1,19.9,29.1,19.9,29Z" fill="#a9cda6"/></g></g><g id="marsh_bd-11" data-name="marsh_bd" style="isolation:isolate"><g id="Marsh_FC-11" data-name="Marsh_FC"><path d="M23.5,24.4c.1.1,0,.2-.1.2H21a.2.2,0,0,1,0-.4h1.6a.0979.0979,0,0,0-.1-.1h0c-.1-.1-.1-.1,0-.2l.1-.1.2.2v.2H23c0-.2,0-.3-.1-.4a.0979.0979,0,0,0-.1-.1.1385.1385,0,0,1,0-.2h.1c.1.1.1.2.2.2v.1a.3674.3674,0,0,0,.1.3Q23.5,24.25,23.5,24.4Zm3.1.9c0,.1-.1.1-.2.1H22.5a.3491.3491,0,0,1-.2-.1c0-.1.1-.1.2-.1h3.9C26.5,25.1,26.6,25.2,26.6,25.3Zm-2.4-.8a2.0577,2.0577,0,0,0-.5-.9s-.2-.2.2-.1a1.1057,1.1057,0,0,1,.4.5s0-.8.5-.9c0,0,.3-.1.1.1a1.0474,1.0474,0,0,0-.3.6,1.4093,1.4093,0,0,1,.5-.3s.3-.1,0,.1l-.4.4a.31.31,0,0,0-.1.2l-.2.2C24.4,24.6,24.4,24.6,24.2,24.5Zm1.2-.1c0-.1.1-.2.1-.3V24a.3674.3674,0,0,1,.1-.3.0979.0979,0,0,1,.1-.1.1875.1875,0,0,1,.3,0h.1c-.1.1-.2.2-.2.3v.2a.2151.2151,0,0,0,.2.2h0c0-.1,0-.2.1-.2V24a.1875.1875,0,0,1,.3,0l.1.1c-.1,0-.1.1-.2.1h0a.3491.3491,0,0,0,.2.1h1.5a.2.2,0,0,1,0,.4H25.7C25.3,24.5,25.3,24.5,25.4,24.4Z" fill="#a9cda6"/></g></g><g id="marsh_bd-12" data-name="marsh_bd" style="isolation:isolate"><g id="Marsh_FC-12" data-name="Marsh_FC"><path d="M14.6,22.8c.1.1,0,.2-.1.2H12.1a.2.2,0,1,1,0-.4h1.6a.0979.0979,0,0,0-.1-.1h0c-.1-.1-.1-.1,0-.2l.1-.1.2.2v.2h.2c0-.2,0-.3-.1-.4a.0979.0979,0,0,0-.1-.1.1385.1385,0,0,1,0-.2H14c.1.1.1.2.2.2v.1a.3674.3674,0,0,0,.1.3C14.5,22.6,14.5,22.7,14.6,22.8Zm3,.9c0,.1-.1.1-.2.1H13.5a.3491.3491,0,0,1-.2-.1c0-.1.1-.1.2-.1h3.9C17.5,23.6,17.6,23.6,17.6,23.7Zm-2.4-.8a2.0577,2.0577,0,0,0-.5-.9s-.2-.2.2-.1a1.1057,1.1057,0,0,1,.4.5s0-.8.5-.9c0,0,.3-.1.1.1a1.0474,1.0474,0,0,0-.3.6,1.4093,1.4093,0,0,1,.5-.3s.3-.1,0,.1l-.4.4a.31.31,0,0,0-.1.2l-.2.2C15.5,23,15.5,23,15.2,22.9Zm1.2-.1c0-.1.1-.2.1-.3v-.1a.3674.3674,0,0,1,.1-.3.0979.0979,0,0,1,.1-.1.1875.1875,0,0,1,.3,0h.1c-.1.1-.2.2-.2.3v.2a.2151.2151,0,0,0,.2.2h0c0-.1,0-.2.1-.2v-.1a.1875.1875,0,0,1,.3,0l.1.1c-.1,0-.1.1-.2.1h0a.3491.3491,0,0,0,.2.1h1.5a.2.2,0,0,1,0,.4H16.7Q16.25,22.95,16.4,22.8Z" fill="#a9cda6"/></g></g><g id="marsh_bd-13" data-name="marsh_bd" style="isolation:isolate"><g id="Marsh_FC-13" data-name="Marsh_FC"><path d="M49.1,9.1c.1.1,0,.2-.1.2H46.6a.2.2,0,0,1,0-.4h1.6a.0979.0979,0,0,0-.1-.1h0c-.1-.1-.1-.1,0-.2l.1-.1.2.2v.2h.2c0-.2,0-.3-.1-.4a.0979.0979,0,0,0-.1-.1.1385.1385,0,0,1,0-.2h.1c.1.1.1.2.2.2s0,.1,0,.1a.3674.3674,0,0,0,.1.3A.7467.7467,0,0,1,49.1,9.1Zm3.1.9c0,.1-.1.1-.2.1H48.1a.3491.3491,0,0,1-.2-.1c0-.1.1-.1.2-.1H52A.3491.3491,0,0,1,52.2,10Zm-2.4-.8a3.0764,3.0764,0,0,0-.4-.9s-.2-.2.2-.1a1.1057,1.1057,0,0,1,.4.5s0-.8.5-.9c0,0,.3-.1.1.1a1.0474,1.0474,0,0,0-.3.6,1.4093,1.4093,0,0,1,.5-.3s.3-.1,0,.1l-.4.4a.31.31,0,0,0-.1.2l-.2.2C50,9.3,50,9.4,49.8,9.2Zm1.1-.1c.1,0,.1-.2.1-.3V8.7a.3674.3674,0,0,1,.1-.3l.1-.1a.1875.1875,0,0,1,.3,0h.1c-.1.1-.2.2-.2.3v.2a.2151.2151,0,0,0,.2.2h0c0-.1,0-.2.1-.2V8.7a.1875.1875,0,0,1,.3,0v.1c-.1,0-.1.1-.2.1h0A.3491.3491,0,0,0,52,9h1.4a.2.2,0,0,1,0,.4H51A.3674.3674,0,0,1,50.9,9.1Z" fill="#a9cda6"/></g></g><g id="marsh_bd-14" data-name="marsh_bd" style="isolation:isolate"><g id="Marsh_FC-14" data-name="Marsh_FC"><path d="M54.5,4.5c.1.1,0,.2-.1.2H52a.2.2,0,1,1,0-.4h1.6a.0979.0979,0,0,0-.1-.1h0c-.1-.1-.1-.1,0-.2h.2l.2.2v.2h.2c0-.2,0-.3-.1-.4a.0979.0979,0,0,0-.1-.1.1385.1385,0,0,1,0-.2H54c.1.1.1.2.2.2V4a.3674.3674,0,0,0,.1.3C54.4,4.3,54.5,4.5,54.5,4.5Zm3.1.9c0,.1-.1.1-.2.1H53.5a.3491.3491,0,0,1-.2-.1.3491.3491,0,0,1,.2-.1h3.9A.3491.3491,0,0,1,57.6,5.4Zm-2.4-.8a3.0764,3.0764,0,0,0-.4-.9s-.2-.2.2-.1a1.1057,1.1057,0,0,1,.4.5s0-.8.5-.9c0,0,.3-.1.1.1a1.0474,1.0474,0,0,0-.3.6,1.4093,1.4093,0,0,1,.5-.3s.3-.1,0,.1l-.4.4a.31.31,0,0,0-.1.2l-.2.2C55.4,4.7,55.4,4.7,55.2,4.6Zm1.1-.1c0-.1.1-.2.1-.3V4.1a.3674.3674,0,0,1,.1-.3l.1-.1a.1875.1875,0,0,1,.3,0H57c-.1.1-.2.2-.2.3v.2a.2151.2151,0,0,0,.2.2h0c0-.1,0-.2.1-.2V4.1a.1875.1875,0,0,1,.3,0l.1.1c-.1,0-.1.1-.2.1h0a.3491.3491,0,0,0,.2.1h1.4a.2.2,0,1,1,0,.4H56.5C56.3,4.7,56.3,4.6,56.3,4.5Z" fill="#a9cda6"/></g></g><g id="marsh_bd-15" data-name="marsh_bd" style="isolation:isolate"><g id="Marsh_FC-15" data-name="Marsh_FC"><path d="M45.6,3c.1.1,0,.2-.1.2H43.1a.2.2,0,1,1,0-.4h1.6a.0979.0979,0,0,0-.1-.1h0c-.1-.1-.1-.1,0-.2l.1-.1.2.2v.2h.2c0-.2,0-.3-.1-.4a.0979.0979,0,0,0-.1-.1.1385.1385,0,0,1,0-.2H45c.1.1.1.2.2.2v.1a.3674.3674,0,0,0,.1.3C45.5,2.8,45.5,2.9,45.6,3Zm3,.9c0,.1-.1.1-.2.1H44.5a.3491.3491,0,0,1-.2-.1.3491.3491,0,0,1,.2-.1h3.9C48.5,3.8,48.6,3.8,48.6,3.9Zm-2.4-.8a2.0577,2.0577,0,0,0-.5-.9s-.2-.2.2-.1a1.1057,1.1057,0,0,1,.4.5s0-.8.5-.9c0,0,.3-.1.1.1a1.0474,1.0474,0,0,0-.3.6,1.4093,1.4093,0,0,1,.5-.3s.3-.1,0,.1l-.4.4a.5845.5845,0,0,1-.1.4l-.2.2C46.5,3.2,46.5,3.2,46.2,3.1ZM47.4,3c0-.1.1-.2.1-.3V2.6a.3674.3674,0,0,1,.1-.3.0979.0979,0,0,1,.1-.1.1875.1875,0,0,1,.3,0h.1c-.1.1-.2.2-.2.3v.2a.2151.2151,0,0,0,.2.2h0c0-.1,0-.2.1-.2V2.6a.1875.1875,0,0,1,.3,0l.1.1c-.1,0-.1.1-.2.1h0a.3491.3491,0,0,0,.2.1h1.5c-.2-.1-.1,0-.1.1a.2151.2151,0,0,1-.2.2H47.4C47.4,3.1,47.3,3.1,47.4,3Z" fill="#a9cda6"/></g></g><g id="marsh_bd-16" data-name="marsh_bd" style="isolation:isolate"><g id="Marsh_FC-16" data-name="Marsh_FC"><path d="M71.8,25.5c.1.1,0,.2-.1.2H69.3a.2.2,0,1,1,0-.4H71a.0979.0979,0,0,0-.1-.1h0c-.1-.1-.1-.1,0-.2l.1-.1.2.2v.2h.2c0-.2,0-.3-.1-.4a.0979.0979,0,0,0-.1-.1.1385.1385,0,0,1,0-.2h.1c.1.1.1.2.2.2v.1a.3674.3674,0,0,0,.1.3C71.7,25.2,71.7,25.4,71.8,25.5Zm3,.8c0,.1-.1.1-.2.1H70.7a.3491.3491,0,0,1-.2-.1.3491.3491,0,0,1,.2-.1h3.9C74.8,26.2,74.8,26.3,74.8,26.3Zm-2.3-.7a3.0764,3.0764,0,0,0-.4-.9s-.2-.2.2-.1a1.1057,1.1057,0,0,1,.4.5s0-.8.5-.9c0,0,.3-.1.1.1a1.0474,1.0474,0,0,0-.3.6,1.4093,1.4093,0,0,1,.5-.3s.3-.1,0,.1l-.5.5a.31.31,0,0,0-.1.2l-.2.2C72.7,25.7,72.7,25.7,72.5,25.6Zm1.1-.1c0-.1.1-.2.1-.3v-.1a.3674.3674,0,0,1,.1-.3.0979.0979,0,0,1,.1-.1.1875.1875,0,0,1,.3,0h.1c-.1.1-.2.2-.2.3v.2a.2151.2151,0,0,0,.2.2h0c0-.1,0-.2.1-.2v-.1a.1875.1875,0,0,1,.3,0l.1.1c-.1,0-.1.1-.2.1h0a.3491.3491,0,0,0,.2.1h1.4a.2.2,0,1,1,0,.4H73.8C73.6,25.6,73.6,25.5,73.6,25.5Z" fill="#a9cda6"/></g></g><g id="marsh_bd-17" data-name="marsh_bd" style="isolation:isolate"><g id="Marsh_FC-17" data-name="Marsh_FC"><path d="M77.2,20.9c.1.1,0,.2-.1.2H74.7a.2.2,0,0,1,0-.4h1.6a.0979.0979,0,0,0-.1-.1h0c-.1-.1-.1-.1,0-.2l.1-.1.2.2v.2h.2c0-.2,0-.3-.1-.4a.0979.0979,0,0,0-.1-.1.1385.1385,0,0,1,0-.2h.1c.1.1.1.2.2.2v.1a.3674.3674,0,0,0,.1.3A.3193.3193,0,0,1,77.2,20.9Zm3,.8c0,.1-.1.1-.2.1H76.1a.3491.3491,0,0,1-.2-.1.3491.3491,0,0,1,.2-.1H80C80.2,21.6,80.2,21.7,80.2,21.7ZM77.9,21a3.0764,3.0764,0,0,0-.4-.9s-.2-.2.2-.1a1.1057,1.1057,0,0,1,.4.5s0-.8.5-.9c0,0,.3-.1.1.1a1.0474,1.0474,0,0,0-.3.6,1.4093,1.4093,0,0,1,.5-.3s.3-.1,0,.1l-.4.4a.31.31,0,0,0-.1.2l-.2.2C78.1,21.1,78.1,21.1,77.9,21Zm1.1-.1c0-.1.1-.2.1-.3v-.1a.3674.3674,0,0,1,.1-.3.0979.0979,0,0,1,.1-.1.1875.1875,0,0,1,.3,0h.1c-.1.1-.2.2-.2.3v.2a.2151.2151,0,0,0,.2.2h0c0-.1,0-.2.1-.2v-.1a.1875.1875,0,0,1,.3,0l.1.1c-.1,0-.1.1-.2.1h0a.3491.3491,0,0,0,.2.1h1.4a.2.2,0,0,1,0,.4H79.2C79,21,79,20.9,79,20.9Z" fill="#a9cda6"/></g></g><g id="marsh_bd-18" data-name="marsh_bd" style="isolation:isolate"><g id="Marsh_FC-18" data-name="Marsh_FC"><path d="M68.2,19.3c.1.1,0,.2-.1.2H65.7a.2.2,0,0,1,0-.4h1.6a.0979.0979,0,0,0-.1-.1h0c-.1-.1-.1-.1,0-.2l.1-.1.2.2v.2h.2c0-.2,0-.3-.1-.4a.0979.0979,0,0,0-.1-.1.1385.1385,0,0,1,0-.2h.1c.1.1.1.2.2.2v.1a.3674.3674,0,0,0,.1.3Q68.2,19.15,68.2,19.3Zm3.1.9c0,.1-.1.1-.2.1H67.2a.3491.3491,0,0,1-.2-.1c0-.1.1-.1.2-.1h3.9C71.2,20.1,71.3,20.1,71.3,20.2Zm-2.4-.8a3.0764,3.0764,0,0,0-.4-.9s-.2-.2.2-.1a1.1057,1.1057,0,0,1,.4.5s0-.8.5-.9c0,0,.3-.1.1.1a1.0474,1.0474,0,0,0-.3.6,1.4093,1.4093,0,0,1,.5-.3s.3-.1,0,.1l-.4.4a.31.31,0,0,0-.1.2l-.2.2C69.1,19.5,69.1,19.5,68.9,19.4Zm1.2-.1c0-.1.1-.2.1-.3v-.1a.3674.3674,0,0,1,.1-.3.0979.0979,0,0,1,.1-.1.1875.1875,0,0,1,.3,0h.1c-.1.1-.2.2-.2.3V19a.2151.2151,0,0,0,.2.2h0c0-.1,0-.2.1-.2v-.1a.1875.1875,0,0,1,.3,0l.1.1c-.3,0-.3,0-.4.1h0a.3491.3491,0,0,0,.2.1h1.4a.2.2,0,1,1,0,.4H70.1A.1875.1875,0,0,1,70.1,19.3Z" fill="#a9cda6"/></g></g><g id="marsh_bd-19" data-name="marsh_bd" style="isolation:isolate"><g id="Marsh_FC-19" data-name="Marsh_FC"><path d="M83,8.5c.1.1,0,.2-.1.2H80.5a.2.2,0,0,1,0-.4h1.6a.0979.0979,0,0,0-.1-.1h0c0-.1,0-.2.1-.2l.1-.1.2.2v.2h.2c0-.2,0-.3-.1-.4a.0979.0979,0,0,0-.1-.1.1385.1385,0,0,1,0-.2h.1c.1.1.1.2.2.2v.1a.3674.3674,0,0,0,.1.3C82.9,8.2,82.9,8.4,83,8.5Zm3,.8c0,.1-.1.1-.2.1H81.9a.3491.3491,0,0,1-.2-.1.3491.3491,0,0,1,.2-.1h3.9A.3491.3491,0,0,1,86,9.3Zm-2.3-.7a3.0764,3.0764,0,0,0-.4-.9s-.2-.2.2-.1a1.1057,1.1057,0,0,1,.4.5s0-.8.5-.9c0,0,.3-.1.1.1a1.0474,1.0474,0,0,0-.3.6,1.4093,1.4093,0,0,1,.5-.3s.3-.1,0,.1l-.4.4a.31.31,0,0,0-.1.2l-.2.2C83.9,8.7,83.9,8.7,83.7,8.6Zm1.1-.1c0-.1.1-.2.1-.3V8.1a.3674.3674,0,0,1,.1-.3.0979.0979,0,0,1,.1-.1.1875.1875,0,0,1,.3,0h.1c-.1.1-.2.2-.2.3v.2a.2151.2151,0,0,0,.2.2h0c0-.1,0-.2.1-.2V8.1c-.1-.1.1-.1.1-.1l.1.1c-.1,0-.1.1-.2.1h0a.3491.3491,0,0,0,.2.1h1.4a.2.2,0,1,1,0,.4H84.8C84.8,8.6,84.7,8.5,84.8,8.5Z" fill="#a9cda6"/></g></g><g id="marsh_bd-20" data-name="marsh_bd" style="isolation:isolate"><g id="Marsh_FC-20" data-name="Marsh_FC"><path d="M88.4,3.8c.1.1,0,.2-.1.2H85.9a.2.2,0,0,1,0-.4h1.6a.0979.0979,0,0,0-.1-.1h0c-.1-.1-.1-.1,0-.2l.1-.1.2.2v.2h.2c0-.2,0-.3-.1-.4a.0979.0979,0,0,0-.1-.1.1385.1385,0,0,1,0-.2h.1c.1.1.1.2.2.2v.1a.3674.3674,0,0,0,.1.3C88.3,3.6,88.3,3.8,88.4,3.8Zm3,.9c0,.1-.1.1-.2.1H87.3a.3491.3491,0,0,1-.2-.1.3491.3491,0,0,1,.2-.1h3.9A.3491.3491,0,0,1,91.4,4.7ZM89.1,4a3.0764,3.0764,0,0,0-.4-.9s-.2-.2.2-.1a1.1057,1.1057,0,0,1,.4.5s0-.8.5-.9c0,0,.3-.1.1.1a1.0474,1.0474,0,0,0-.3.6,1.4093,1.4093,0,0,1,.5-.3s.3-.1,0,.1l-.4.4a.31.31,0,0,0-.1.2l-.2.2C89.3,4.1,89.3,4.1,89.1,4Zm1.1-.2c0-.1.1-.2.1-.3V3.4a.3674.3674,0,0,1,.1-.3.0979.0979,0,0,1,.1-.1h.4c-.1.1-.2.2-.2.3v.2a.2151.2151,0,0,0,.2.2h0c0-.1,0-.2.1-.2V3.4a.1875.1875,0,0,1,.3,0l.1.1c-.1,0-.1.1-.2.1h0a.3491.3491,0,0,0,.2.1h1.4a.2.2,0,1,1,0,.4H90.4C90.2,4,90.2,3.9,90.2,3.8Z" fill="#a9cda6"/></g></g><g id="marsh_bd-21" data-name="marsh_bd" style="isolation:isolate"><g id="Marsh_FC-21" data-name="Marsh_FC"><path d="M79.4,2.3c.1.1,0,.2-.1.2H77a.2151.2151,0,0,1-.2-.2.2151.2151,0,0,1,.2-.2h1.6a.0979.0979,0,0,0-.1-.1h0c-.1-.1-.1-.1,0-.2l.1-.1.2.2v.2H79V1.8a.0979.0979,0,0,0-.1-.1.1385.1385,0,0,1,0-.2H79c.1.1.1.2.2.2v.1a.3674.3674,0,0,0,.1.3A.3491.3491,0,0,1,79.4,2.3Zm3.1.9c0,.1-.1.1-.2.1H78.4a.3491.3491,0,0,1-.2-.1c0-.1.1-.1.2-.1h3.9C82.4,3.1,82.5,3.1,82.5,3.2Zm-2.4-.8a3.0764,3.0764,0,0,0-.4-.9s-.2-.2.2-.1a1.1057,1.1057,0,0,1,.4.5s0-.8.5-.9c0,0,.3-.1.1.1a1.0474,1.0474,0,0,0-.3.6,1.4093,1.4093,0,0,1,.5-.3s.3-.1,0,.1l-.4.4a.31.31,0,0,0-.1.2l-.2.2C80.3,2.5,80.3,2.5,80.1,2.4Zm1.1-.1c0-.1.1-.2.1-.3V1.9a.3674.3674,0,0,1,.1-.3l.1-.1a.1875.1875,0,0,1,.3,0h.1c-.1.1-.2.2-.2.3V2a.2151.2151,0,0,0,.2.2h0c0-.1,0-.2.1-.2V1.9a.1875.1875,0,0,1,.3,0l.1.1c-.1,0-.1.1-.2.1h0a.3491.3491,0,0,0,.2.1h1.4a.2151.2151,0,0,1,.2.2.2151.2151,0,0,1-.2.2H81.4C81.2,2.5,81.2,2.4,81.2,2.3Z" fill="#a9cda6"/></g></g><g id="marsh_bd-22" data-name="marsh_bd" style="isolation:isolate"><g id="Marsh_FC-22" data-name="Marsh_FC"><path d="M72.8,45.5c.1.1,0,.2-.1.2H70.3a.2.2,0,1,1,0-.4H72a.0979.0979,0,0,0-.1-.1h0c-.1-.1-.1-.1,0-.2H72l.2.2v.2h.2c0-.2,0-.3-.1-.4a.0979.0979,0,0,0-.1-.1.1385.1385,0,0,1,0-.2h.1c.1.1.1.2.2.2V45a.3674.3674,0,0,0,.1.3C72.7,45.3,72.7,45.4,72.8,45.5Zm3,.9c0,.1-.1.1-.2.1H71.7a.3491.3491,0,0,1-.2-.1c0-.1.1-.1.2-.1h3.9C75.8,46.3,75.8,46.3,75.8,46.4Zm-2.3-.8a3.0764,3.0764,0,0,0-.4-.9s-.2-.2.2-.1a1.1057,1.1057,0,0,1,.4.5s0-.8.5-.9c0,0,.3-.1.1.1a1.0474,1.0474,0,0,0-.3.6,1.4093,1.4093,0,0,1,.5-.3s.3-.1,0,.1l-.5.6a.31.31,0,0,0-.1.2l-.2.2Zm1.1-.1c0-.1.1-.2.1-.3v-.1a.3674.3674,0,0,1,.1-.3l.1-.1a.1875.1875,0,0,1,.3,0h.1c-.1.1-.2.2-.2.3v.2a.2151.2151,0,0,0,.2.2h0c0-.1,0-.2.1-.2v-.1a.1875.1875,0,0,1,.3,0l.1.1c-.1,0-.1.1-.2.1h0a.3491.3491,0,0,0,.2.1h1.4a.2.2,0,0,1,0,.4H74.8C74.6,45.6,74.6,45.6,74.6,45.5Z" fill="#a9cda6"/></g></g><g id="marsh_bd-23" data-name="marsh_bd" style="isolation:isolate"><g id="Marsh_FC-23" data-name="Marsh_FC"><path d="M78.2,40.9c.1.1,0,.2-.1.2H75.7a.2.2,0,1,1,0-.4h1.6a.0979.0979,0,0,0-.1-.1h0c-.1-.1-.1-.1,0-.2l.1-.1.2.2v.2h.2c0-.2,0-.3-.1-.4a.0979.0979,0,0,0-.1-.1.1385.1385,0,0,1,0-.2h.1c.1.1.1.2.2.2v.1a.3674.3674,0,0,0,.1.3Q78.2,40.75,78.2,40.9Zm3.1.9c0,.1-.1.1-.2.1H77.2a.3491.3491,0,0,1-.2-.1c0-.1.1-.1.2-.1h3.9C81.2,41.7,81.3,41.7,81.3,41.8ZM78.9,41a3.0764,3.0764,0,0,0-.4-.9s-.2-.2.2-.1a1.1057,1.1057,0,0,1,.4.5s0-.8.5-.9c0,0,.3-.1.1.1a1.0474,1.0474,0,0,0-.3.6,1.4093,1.4093,0,0,1,.5-.3s.3-.1,0,.1l-.4.4a.31.31,0,0,0-.1.2l-.2.2C79.1,41.1,79.1,41.1,78.9,41Zm1.1-.1c0-.1.1-.2.1-.3v-.1a.3674.3674,0,0,1,.1-.3l.1-.1a.1875.1875,0,0,1,.3,0h.1c-.1.1-.2.2-.2.3v.2a.2151.2151,0,0,0,.2.2h0c0-.1,0-.2.1-.2v-.1a.1875.1875,0,0,1,.3,0l.1.1c-.1,0-.1.1-.2.1h0a.3491.3491,0,0,0,.2.1h1.4a.2.2,0,0,1,0,.4H80.2C80,41,80,41,80,40.9Z" fill="#a9cda6"/></g></g><g id="marsh_bd-24" data-name="marsh_bd" style="isolation:isolate"><g id="Marsh_FC-24" data-name="Marsh_FC"><path d="M69.2,39.3c.1.1,0,.2-.1.2H66.7a.2.2,0,0,1,0-.4h1.6a.0979.0979,0,0,0-.1-.1h0c-.1-.1-.1-.1,0-.2l.1-.1.2.2v.2h.2c0-.2,0-.3-.1-.4a.0979.0979,0,0,0-.1-.1.1385.1385,0,0,1,0-.2h.1c.1.1.1.2.2.2v.1a.3674.3674,0,0,0,.1.3A.7467.7467,0,0,1,69.2,39.3Zm3.1.9c0,.1-.1.1-.2.1H68.2a.3491.3491,0,0,1-.2-.1.3491.3491,0,0,1,.2-.1h3.9A.3491.3491,0,0,1,72.3,40.2Zm-2.4-.8a3.0764,3.0764,0,0,0-.4-.9s-.2-.2.2-.1a1.1057,1.1057,0,0,1,.4.5s0-.8.5-.9c0,0,.3-.1.1.1a1.0474,1.0474,0,0,0-.3.6,1.4093,1.4093,0,0,1,.5-.3s.3-.1,0,.1l-.4.4a.31.31,0,0,0-.1.2l-.2.2C70.2,39.5,70.1,39.5,69.9,39.4Zm1.2-.1c0-.1.1-.2.1-.3v-.1a.3674.3674,0,0,1,.1-.3.0979.0979,0,0,1,.1-.1.1875.1875,0,0,1,.3,0h.1c-.1.1-.2.2-.2.3V39a.2151.2151,0,0,0,.2.2h0c0-.1,0-.2.1-.2v-.1a.1875.1875,0,0,1,.3,0l.1.1c-.1,0-.1.1-.2.1h0a.3491.3491,0,0,0,.2.1h1.4a.2.2,0,1,1,0,.4H71.3C71.1,39.5,71,39.4,71.1,39.3Z" fill="#a9cda6"/></g></g><g id="marsh_bd-25" data-name="marsh_bd" style="isolation:isolate"><g id="Marsh_FC-25" data-name="Marsh_FC"><path d="M83.5,69.6c.1.1,0,.2-.1.2H81a.2.2,0,0,1,0-.4h1.6a.0979.0979,0,0,0-.1-.1h0c-.1-.1-.1-.1,0-.2l.1-.1.2.2v.2H83c0-.2,0-.3-.1-.4H83a.1385.1385,0,0,1,0-.2h.1c.1.1.1.2.2.2v.1a.3674.3674,0,0,0,.1.3A.31.31,0,0,0,83.5,69.6Zm3,.9c0,.1-.1.1-.2.1H82.4a.125.125,0,1,1,0-.2h3.9C86.4,70.4,86.5,70.4,86.5,70.5Zm-2.3-.8a3.0764,3.0764,0,0,0-.4-.9s-.2-.2.2-.1a1.1057,1.1057,0,0,1,.4.5s0-.8.5-.9c0,0,.3-.1.1.1a1.0474,1.0474,0,0,0-.3.6,1.4093,1.4093,0,0,1,.5-.3s.3-.1,0,.1l-.4.4a.31.31,0,0,0-.1.2l-.2.2C84.4,69.8,84.4,69.8,84.2,69.7Zm1.1-.1c0-.1.1-.2.1-.3v-.1a.3674.3674,0,0,1,.1-.3l.1-.1a.1875.1875,0,0,1,.3,0H86c-.1.1-.2.2-.2.3v.2a.2151.2151,0,0,0,.2.2h0c0-.1,0-.2.1-.2v-.1a.1875.1875,0,0,1,.3,0l.1.1c-.1,0-.1.1-.2.1h0a.3491.3491,0,0,0,.2.1h1.4a.2.2,0,1,1,0,.4H85.5C85.3,69.8,85.3,69.7,85.3,69.6Z" fill="#a9cda6"/></g></g><g id="marsh_bd-26" data-name="marsh_bd" style="isolation:isolate"><g id="Marsh_FC-26" data-name="Marsh_FC"><path d="M88.9,65c.1.1,0,.2-.1.2H86.4a.2.2,0,0,1,0-.4H88a.0979.0979,0,0,0-.1-.1h0c-.1-.1-.1-.1,0-.2l.1-.1.2.2v.2h.2c0-.2,0-.3-.1-.4a.0979.0979,0,0,0-.1-.1.1385.1385,0,0,1,0-.2h.1c.1.1.1.2.2.2v.1a.3674.3674,0,0,0,.1.3C88.8,64.8,88.8,64.9,88.9,65Zm3,.9c0,.1-.1.1-.2.1H87.8a.125.125,0,1,1,0-.2h3.9C91.9,65.8,91.9,65.8,91.9,65.9Zm-2.3-.8a3.0764,3.0764,0,0,0-.4-.9s-.2-.2.2-.1a1.1057,1.1057,0,0,1,.4.5s0-.8.5-.9c0,0,.3-.1.1.1a1.0474,1.0474,0,0,0-.3.6,1.4093,1.4093,0,0,1,.5-.3s.3-.1,0,.1l-.4.4a1.0945,1.0945,0,0,1-.2.4l-.2.2Zm1.1-.1c0-.1.1-.2.1-.3v-.1a.3674.3674,0,0,1,.1-.3l.1-.1a.1875.1875,0,0,1,.3,0h.1c-.1.1-.2.2-.2.3v.2a.2151.2151,0,0,0,.2.2h0c0-.1,0-.2.1-.2v-.1a.1875.1875,0,0,1,.3,0l.1.1c-.1,0-.1.1-.2.1h0a.3491.3491,0,0,0,.2.1h1.4a.2.2,0,1,1,0,.4H90.9C90.7,65.2,90.7,65.1,90.7,65Z" fill="#a9cda6"/></g></g><g id="marsh_bd-27" data-name="marsh_bd" style="isolation:isolate"><g id="Marsh_FC-27" data-name="Marsh_FC"><path d="M79.9,63.5c.1.1,0,.2-.1.2H77.4a.2.2,0,0,1,0-.4H79a.0979.0979,0,0,0-.1-.1h0c-.1-.1-.1-.1,0-.2l.1-.1.2.2v.2h.2c0-.2,0-.3-.1-.4a.0979.0979,0,0,0-.1-.1.1385.1385,0,0,1,0-.2h.1c.1.1.1.2.2.2v.1a.3674.3674,0,0,0,.1.3Q79.9,63.35,79.9,63.5Zm3.1.9c0,.1-.1.1-.2.1H78.9a.125.125,0,1,1,0-.2h3.9C82.9,64.2,83,64.3,83,64.4Zm-2.4-.8a3.0764,3.0764,0,0,0-.4-.9s-.2-.2.2-.1a1.1057,1.1057,0,0,1,.4.5s0-.8.5-.9c0,0,.3-.1.1.1a1.0474,1.0474,0,0,0-.3.6,1.4093,1.4093,0,0,1,.5-.3s.3-.1,0,.1l-.4.4a.31.31,0,0,0-.1.2l-.2.2C80.8,63.7,80.8,63.7,80.6,63.6Zm1.1-.1c0-.1.1-.2.1-.3v-.1a.3674.3674,0,0,1,.1-.3.0979.0979,0,0,1,.1-.1.1875.1875,0,0,1,.3,0h.1c-.1.1-.2.2-.2.3v.2a.2151.2151,0,0,0,.2.2h0c0-.1,0-.2.1-.2v-.1a.1875.1875,0,0,1,.3,0l.1.1c-.1,0-.1.1-.2.1h0a.3491.3491,0,0,0,.2.1h1.4a.2.2,0,1,1,0,.4H81.9C81.7,63.6,81.7,63.6,81.7,63.5Z" fill="#a9cda6"/></g></g><g id="marsh_bd-28" data-name="marsh_bd" style="isolation:isolate"><g id="Marsh_FC-28" data-name="Marsh_FC"><path d="M57.1,91.1c.1.1,0,.2-.1.2H54.6a.2.2,0,1,1,0-.4h1.6a.0979.0979,0,0,0-.1-.1h0c-.1-.1-.1-.1,0-.2l.1-.1.2.2v.2h.2c0-.2,0-.3-.1-.4a.0979.0979,0,0,0-.1-.1.1385.1385,0,0,1,0-.2h.1c.1.1.1.2.2.2v.1a.3674.3674,0,0,0,.1.3C57,90.9,57,91,57.1,91.1Zm3,.9c0,.1-.1.1-.2.1H56a.125.125,0,1,1,0-.2h3.9C60,91.9,60.1,91.9,60.1,92Zm-2.4-.8a3.0764,3.0764,0,0,0-.4-.9s-.2-.2.2-.1a1.1057,1.1057,0,0,1,.4.5s0-.8.5-.9c0,0,.3-.1.1.1a1.0474,1.0474,0,0,0-.3.6,1.4093,1.4093,0,0,1,.5-.3s.3-.1,0,.1l-.4.4a.31.31,0,0,0-.1.2l-.2.2C58,91.3,58,91.3,57.7,91.2Zm1.2-.1c0-.1.1-.2.1-.3v-.1a.3674.3674,0,0,1,.1-.3.0979.0979,0,0,1,.1-.1.1875.1875,0,0,1,.3,0h.1c-.1.1-.2.2-.2.3v.2a.2151.2151,0,0,0,.2.2h0c0-.1,0-.2.1-.2v-.1a.1875.1875,0,0,1,.3,0l.1.1c-.1,0-.1.1-.2.1h0a.3491.3491,0,0,0,.2.1h1.4a.2.2,0,0,1,0,.4H59C58.9,91.3,58.8,91.2,58.9,91.1Z" fill="#a9cda6"/></g></g><g id="marsh_bd-29" data-name="marsh_bd" style="isolation:isolate"><g id="Marsh_FC-29" data-name="Marsh_FC"><path d="M62.5,86.5c.1.1,0,.2-.1.2H60a.2.2,0,0,1,0-.4h1.6a.0979.0979,0,0,0-.1-.1h0c-.1-.1-.1-.1,0-.2l.1-.1.2.2v.2H62c0-.2,0-.3-.1-.4a.0979.0979,0,0,0-.1-.1.1385.1385,0,0,1,0-.2h.1c.1.1.1.2.2.2v.1a.3674.3674,0,0,0,.1.3C62.4,86.3,62.4,86.4,62.5,86.5Zm3,.9c0,.1-.1.1-.2.1H61.4a.125.125,0,1,1,0-.2h3.9C65.4,87.3,65.5,87.3,65.5,87.4Zm-2.3-.8a3.0764,3.0764,0,0,0-.4-.9s-.2-.2.2-.1a1.1057,1.1057,0,0,1,.4.5s0-.8.5-.9c0,0,.3-.1.1.1a1.0474,1.0474,0,0,0-.3.6,1.4093,1.4093,0,0,1,.5-.3s.3-.1,0,.1l-.4.4a.31.31,0,0,0-.1.2l-.2.2C63.4,86.7,63.4,86.7,63.2,86.6Zm1.1-.1c0-.1.1-.2.1-.3v-.1a.3674.3674,0,0,1,.1-.3.0979.0979,0,0,1,.1-.1.1875.1875,0,0,1,.3,0H65c-.1.1-.2.2-.2.3v.2a.2151.2151,0,0,0,.2.2h0c0-.1,0-.2.1-.2v-.1a.1875.1875,0,0,1,.3,0l.1.1c-.1,0-.1.1-.2.1h0a.3491.3491,0,0,0,.2.1h1.4a.2.2,0,0,1,0,.4H64.5C64.3,86.7,64.2,86.6,64.3,86.5Z" fill="#a9cda6"/></g></g><g id="marsh_bd-30" data-name="marsh_bd" style="isolation:isolate"><g id="Marsh_FC-30" data-name="Marsh_FC"><path d="M53.5,85c.1.1,0,.2-.1.2H51a.2.2,0,0,1,0-.4h1.6a.0979.0979,0,0,0-.1-.1h0c-.1-.1-.1-.1,0-.2l.1-.1.2.2v.2H53c0-.2,0-.3-.1-.4a.0979.0979,0,0,0-.1-.1.1385.1385,0,0,1,0-.2h.1c.1.1.1.2.2.2v.1a.3674.3674,0,0,0,.1.3C53.4,84.8,53.4,84.9,53.5,85Zm3,.9c0,.1-.1.1-.2.1H52.4a.125.125,0,1,1,0-.2h3.9C56.5,85.7,56.5,85.8,56.5,85.9Zm-2.3-.8a3.0764,3.0764,0,0,0-.4-.9s-.2-.2.2-.1a1.1057,1.1057,0,0,1,.4.5s0-.8.5-.9c0,0,.3-.1.1.1a1.0474,1.0474,0,0,0-.3.6,1.4093,1.4093,0,0,1,.5-.3s.3-.1,0,.1l-.4.4a.31.31,0,0,0-.1.2l-.2.2C54.4,85.2,54.4,85.2,54.2,85.1Zm1.1-.1c0-.1.1-.2.1-.3v-.1a.3674.3674,0,0,1,.1-.3.0979.0979,0,0,1,.1-.1.1875.1875,0,0,1,.3,0H56c-.1.1-.2.2-.2.3v.2a.2151.2151,0,0,0,.2.2h0c0-.1,0-.2.1-.2v-.1a.1875.1875,0,0,1,.3,0l.1.1c-.1,0-.1.1-.2.1h0a.3491.3491,0,0,0,.2.1h1.4a.2.2,0,0,1,0,.4H55.5C55.3,85.1,55.3,85.1,55.3,85Z" fill="#a9cda6"/></g></g><g id="marsh_bd-31" data-name="marsh_bd" style="isolation:isolate"><g id="Marsh_FC-31" data-name="Marsh_FC"><path d="M8.8,94c.1.1,0,.2-.1.2H6.4a.2.2,0,1,1,0-.4H8a.0979.0979,0,0,0-.1-.1h0c-.1-.1-.1-.1,0-.2l.1-.1.2.2v.2h.2c0-.2,0-.3-.1-.4a.0979.0979,0,0,0-.1-.1.1385.1385,0,0,1,0-.2h.1c.1.1.1.2.2.2v.1a.3674.3674,0,0,0,.1.3C8.7,93.8,8.8,93.9,8.8,94Zm3.1.9c0,.1-.1.1-.2.1H7.8a.125.125,0,1,1,0-.2h3.9C11.8,94.8,11.9,94.8,11.9,94.9Zm-2.4-.8a2.0577,2.0577,0,0,0-.5-.9s-.2-.2.2-.1a1.1057,1.1057,0,0,1,.4.5s0-.8.5-.9c0,0,.3-.1.1.1a1.0474,1.0474,0,0,0-.3.6,1.4093,1.4093,0,0,1,.5-.3s.3-.1,0,.1l-.4.4a.5845.5845,0,0,1-.1.4l-.2.2C9.8,94.2,9.7,94.2,9.5,94.1Zm1.2-.1c0-.1.1-.2.1-.3v-.1a.3674.3674,0,0,1,.1-.3.0979.0979,0,0,1,.1-.1.1875.1875,0,0,1,.3,0h.1c-.1.1-.2.2-.2.3v.2a.2151.2151,0,0,0,.2.2h0c0-.1,0-.2.1-.2v-.1a.1875.1875,0,0,1,.3,0l.1.1c-.1,0-.1.1-.2.1h0a.3491.3491,0,0,0,.2.1h1.5a.2.2,0,0,1,0,.4H11Q10.55,94.15,10.7,94Z" fill="#a9cda6"/></g></g><g id="marsh_bd-32" data-name="marsh_bd" style="isolation:isolate"><g id="Marsh_FC-32" data-name="Marsh_FC"><path d="M14.3,89.4c.1.1,0,.2-.1.2H11.8a.2.2,0,0,1,0-.4h1.6a.0979.0979,0,0,0-.1-.1h0c-.1-.1-.1-.1,0-.2l.1-.1.2.2v.2h.2c0-.2,0-.3-.1-.4a.0979.0979,0,0,0-.1-.1.1385.1385,0,0,1,0-.2h.1c.1.1.1.2.2.2s0,.1,0,.1a.3674.3674,0,0,0,.1.3C14.2,89.2,14.2,89.3,14.3,89.4Zm3,.9c0,.1-.1.1-.2.1H13.2a.125.125,0,1,1,0-.2h3.9C17.2,90.2,17.3,90.2,17.3,90.3Zm-2.4-.8a2.0577,2.0577,0,0,0-.5-.9s-.2-.2.2-.1a1.1057,1.1057,0,0,1,.4.5s0-.8.5-.9c0,0,.3-.1.1.1a1.0474,1.0474,0,0,0-.3.6,1.4093,1.4093,0,0,1,.5-.3s.3-.1,0,.1l-.4.4a.31.31,0,0,0-.1.2l-.2.2C15.2,89.6,15.2,89.6,14.9,89.5Zm1.2-.1c0-.1.1-.2.1-.3V89a.3674.3674,0,0,1,.1-.3.0979.0979,0,0,1,.1-.1.1875.1875,0,0,1,.3,0h.1c-.1.1-.2.2-.2.3v.2a.2151.2151,0,0,0,.2.2h0c0-.1,0-.2.1-.2V89a.1875.1875,0,0,1,.3,0l.1.1c-.1,0-.1.1-.2.1h0a.3491.3491,0,0,0,.2.1h1.5a.2.2,0,0,1,0,.4H16.4C16.1,89.5,16,89.5,16.1,89.4Z" fill="#a9cda6"/></g></g><g id="marsh_bd-33" data-name="marsh_bd" style="isolation:isolate"><g id="Marsh_FC-33" data-name="Marsh_FC"><path d="M5.3,87.8c.1.1,0,.2-.1.2H2.8a.2.2,0,0,1,0-.4H4.4a.0979.0979,0,0,0-.1-.1h0c-.1-.1-.1-.1,0-.2l.1-.1.2.2v.2h.2c0-.2,0-.3-.1-.4a.0979.0979,0,0,0-.1-.1.1385.1385,0,0,1,0-.2h.1a.68.68,0,0,1,.4.3v.1a.3674.3674,0,0,0,.1.3S5.2,87.8,5.3,87.8Zm3,.9c0,.1-.1.1-.2.1H4.2a.125.125,0,1,1,0-.2H8.1A.3491.3491,0,0,1,8.3,88.7ZM6,88a2.0577,2.0577,0,0,0-.5-.9s-.2-.2.2-.1a1.1057,1.1057,0,0,1,.4.5s0-.8.5-.9c0,0,.3-.1.1.1a1.0474,1.0474,0,0,0-.3.6,1.4093,1.4093,0,0,1,.5-.3s.3-.1,0,.1l-.4.4a.31.31,0,0,0-.1.2l-.2.2C6.2,88.1,6.2,88.1,6,88Zm1.1-.2c0-.1.1-.2.1-.3v-.1a.3674.3674,0,0,1,.1-.3.0979.0979,0,0,1,.1-.1h.4c-.1.1-.2.2-.2.3v.2a.2151.2151,0,0,0,.2.2h0c0-.1,0-.2.1-.2v-.1a.1875.1875,0,0,1,.3,0l.1.1c-.1,0-.1.1-.2.1h0a.3491.3491,0,0,0,.2.1H9.8a.2.2,0,0,1,0,.4H7.2A.3674.3674,0,0,1,7.1,87.8Z" fill="#a9cda6"/></g></g></svg>