<svg id="Layer_1" data-name="Layer 1" xmlns="http://www.w3.org/2000/svg" width="33.8667mm" height="33.8667mm" viewBox="0 0 96 96"><g id="marsh_bd"><g id="Marsh_FC"><path d="M13.7,78.4c.1.1,0,.2-.1.2H11.2a.2.2,0,1,1,0-.4h1.6a.0979.0979,0,0,0-.1-.1h0c-.1-.1-.1-.1,0-.2l.1-.1.2.2v.2h.2c0-.2,0-.3-.1-.4a.0979.0979,0,0,0-.1-.1.1385.1385,0,0,1,0-.2h.1c.1.1.1.2.2.2v.1a.3674.3674,0,0,0,.1.3Q13.7,78.25,13.7,78.4Zm3.1.9c0,.1-.1.1-.2.1H12.7a.125.125,0,1,1,0-.2h3.9C16.7,79.2,16.8,79.2,16.8,79.3Zm-2.4-.8a2.0577,2.0577,0,0,0-.5-.9s-.2-.2.2-.1a1.1057,1.1057,0,0,1,.4.5s0-.8.5-.9c0,0,.3-.1.1.1a1.0474,1.0474,0,0,0-.3.6,1.4093,1.4093,0,0,1,.5-.3s.3-.1,0,.1l-.4.4a.31.31,0,0,0-.1.2l-.2.2C14.6,78.6,14.6,78.6,14.4,78.5Zm1.1-.1c0-.1.1-.2.1-.3V78a.3674.3674,0,0,1,.1-.3.0979.0979,0,0,1,.1-.1.1875.1875,0,0,1,.3,0h.1c-.2.1-.2.2-.2.3v.2a.2151.2151,0,0,0,.2.2h0c0-.1,0-.2.1-.2V78a.1875.1875,0,0,1,.3,0l.1.1c-.1,0-.1.1-.2.1h0a.3491.3491,0,0,0,.2.1H18a.2.2,0,0,1,0,.4H15.6A.3674.3674,0,0,1,15.5,78.4Z" fill="#74c8c0"/></g></g><g id="heath_bd"><g id="Heath_FC"><path d="M17.1,75c-.1,0-.1,0-.1-.1l-.4-.7v-.1a.0979.0979,0,0,1,.1-.1l.1-.1h.1l.1.1.4.7v.1l-.1.1-.2.1Z" fill="#6bbe66"/><path d="M18.6,74.7c-.1,0-.1,0-.2-.1L18,73.3c0-.1,0-.2.1-.2l.1-.1h.1l.1.1.4,1.3v.1l-.1.1a.0979.0979,0,0,1-.1.1Z" fill="#6bbe66"/><path d="M20.2,72.5l.2,1.9v.1l-.1.1h-.2a.2151.2151,0,0,1-.2-.2l-.2-1.9.1-.1.2-.1h.1A.31.31,0,0,0,20.2,72.5Z" fill="#6bbe66"/><path d="M21.5,74.7h-.1l-.1-.1v-.1l.4-1.3.1-.1h.3l.1.1c.1,0,.1.1.1.2l-.4,1.3Z" fill="#6bbe66"/><path d="M23,75h0l-.2-.1-.1-.1v-.1l.4-.7.1-.1h.1l.1.1c.1,0,.1.1.1.2l-.4.7C23.1,75,23.1,75,23,75Z" fill="#6bbe66"/></g></g><g id="heath_bd-2" data-name="heath_bd" style="isolation:isolate"><g id="Heath_FC-2" data-name="Heath_FC"><path d="M8.1,73.5c-.1,0-.1,0-.1-.1l-.4-.7v-.1a.0979.0979,0,0,1,.1-.1l.1-.1h.1l.1.1.4.7v.1l-.1.1-.2.1Z" fill="#6bbe66"/><path d="M9.6,73.2c-.1,0-.1,0-.2-.1L9,71.7c0-.1,0-.2.1-.2l.1-.1h.1l.1.1.4,1.3v.1l-.1.1c0,.1,0,.1-.1.2Z" fill="#6bbe66"/><path d="M11.2,70.9l.2,1.9v.1l-.2.1H11a.2151.2151,0,0,1-.2-.2l-.2-1.9.1-.1.2-.1H11C11.1,70.8,11.2,70.8,11.2,70.9Z" fill="#6bbe66"/><path d="M12.5,73.2h-.1l-.2-.2v-.1l.4-1.3.1-.1H13l.1.1c.1,0,.1.1.1.2L12.7,73a.2151.2151,0,0,1-.2.2Z" fill="#6bbe66"/><path d="M14,73.5h0l-.2-.1-.1-.1v-.1l.4-.7.1-.1h.1l.1.1c.1,0,.1.1.1.2l-.4.7A.0979.0979,0,0,1,14,73.5Z" fill="#6bbe66"/></g></g><g id="marsh_bd-2" data-name="marsh_bd" style="isolation:isolate"><g id="Marsh_FC-2" data-name="Marsh_FC"><path d="M50.6,67.7c.1.1,0,.2-.1.2H48.1a.2.2,0,0,1,0-.4h1.6a.0979.0979,0,0,0-.1-.1h0c-.1-.1-.1-.1,0-.2l.1-.1.2.2v.2h.2c0-.2,0-.3-.1-.4a.0979.0979,0,0,0-.1-.1.1385.1385,0,0,1,0-.2H50c.1.1.1.2.2.2v.1a.3674.3674,0,0,0,.1.3C50.5,67.5,50.5,67.6,50.6,67.7Zm3,.9c0,.1-.1.1-.2.1H49.5a.125.125,0,1,1,0-.2h3.9C53.5,68.5,53.6,68.5,53.6,68.6Zm-2.3-.8a3.0764,3.0764,0,0,0-.4-.9s-.2-.2.2-.1a1.1057,1.1057,0,0,1,.4.5s0-.8.5-.9c0,0,.3-.1.1.1a1.0474,1.0474,0,0,0-.3.6,1.4093,1.4093,0,0,1,.5-.3s.3-.1,0,.1l-.4.4a.31.31,0,0,0-.1.2l-.2.2C51.5,67.9,51.5,67.9,51.3,67.8Zm1.1-.1c0-.1.1-.2.1-.3v-.1a.3674.3674,0,0,1,.1-.3l.1-.1a.1875.1875,0,0,1,.3,0h.1c-.1.1-.2.2-.2.3v.2a.2151.2151,0,0,0,.2.2h0c0-.1,0-.2.1-.2v-.1a.1875.1875,0,0,1,.3,0l.1.1c-.1,0-.1.1-.2.1h0a.3491.3491,0,0,0,.2.1H55a.2.2,0,0,1,0,.4H52.6C52.4,67.9,52.3,67.8,52.4,67.7Z" fill="#74c8c0"/></g></g><g id="heath_bd-3" data-name="heath_bd" style="isolation:isolate"><g id="Heath_FC-3" data-name="Heath_FC"><path d="M53.9,64.3c-.1,0-.1,0-.1-.1l-.4-.7v-.1a.0979.0979,0,0,1,.1-.1l.1-.1h.1l.1.1.4.7v.1l-.1.1-.2.1Z" fill="#6bbe66"/><path d="M55.4,64c-.1,0-.1,0-.2-.1l-.4-1.3c0-.1,0-.2.1-.2l.1-.1h.2l.1.1.4,1.3v.1l-.1.2Z" fill="#6bbe66"/><path d="M57,61.8l.2,1.9v.1l-.1.1h-.2a.2151.2151,0,0,1-.2-.2l-.2-1.9.1-.1.2-.1h.1A.3491.3491,0,0,1,57,61.8Z" fill="#6bbe66"/><path d="M58.3,64h-.1l-.1-.1v-.1l.4-1.3.1-.1h.2l.1.1c.1,0,.1.1.1.2L58.6,64Z" fill="#6bbe66"/><path d="M59.9,64.3h0l-.2-.1-.1-.1V64l.4-.7.1-.1h.1l.1.1c.1,0,.1.1.1.2l-.4.7A.0979.0979,0,0,1,59.9,64.3Z" fill="#6bbe66"/></g></g><g id="heath_bd-4" data-name="heath_bd" style="isolation:isolate"><g id="Heath_FC-4" data-name="Heath_FC"><path d="M45,62.8c-.1,0-.1,0-.1-.1l-.5-.7v-.1a.0979.0979,0,0,1,.1-.1l.1-.1h.1l.1.1.4.7v.1l-.1.1-.1.1Z" fill="#6bbe66"/><path d="M46.5,62.5c-.1,0-.1,0-.2-.1L45.9,61c0-.1,0-.2.1-.2l.1-.1h.1l.1.1.4,1.3v.1l-.1.1a.3491.3491,0,0,1-.1.2Z" fill="#6bbe66"/><path d="M48.1,60.2l.2,1.9v.1l-.1.1H48a.2151.2151,0,0,1-.2-.2l-.2-1.9.1-.1.2-.1H48C48,60.1,48,60.1,48.1,60.2Z" fill="#6bbe66"/><path d="M49.4,62.5h-.1l-.1-.1v-.1l.4-1.3.1-.1h.2l.1.1c.1,0,.1.1.1.2l-.4,1.3c-.2-.1-.2,0-.3,0Z" fill="#6bbe66"/><path d="M50.9,62.8h0l-.2-.1-.1-.1v-.1l.4-.7.1-.1h.1l.1.1c.1,0,.1.1.1.2l-.4.7Z" fill="#6bbe66"/></g></g><g id="marsh_bd-3" data-name="marsh_bd" style="isolation:isolate"><g id="Marsh_FC-3" data-name="Marsh_FC"><path d="M9.2,50.1c.1.1,0,.2-.1.2H6.8a.2.2,0,0,1,0-.4H8.4a.0979.0979,0,0,0-.1-.1h0c-.1-.1-.1-.1,0-.2l.1-.1.2.2v.2h.2c0-.2,0-.3-.1-.4a.0979.0979,0,0,0-.1-.1.1385.1385,0,0,1,0-.2h.1c.2.1.3.1.3.2v.1a.3674.3674,0,0,0,.1.3C9.1,49.9,9.2,50,9.2,50.1Zm3.1.9c0,.1-.1.1-.2.1H8.2a.125.125,0,1,1,0-.2h3.9C12.2,50.9,12.3,50.9,12.3,51Zm-2.4-.8a2.0577,2.0577,0,0,0-.5-.9s-.2-.2.2-.1a1.1057,1.1057,0,0,1,.4.5s0-.8.5-.9c0,0,.3-.1.1.1a1.0474,1.0474,0,0,0-.3.6,1.4093,1.4093,0,0,1,.5-.3s.3-.1,0,.1l-.4.4a.31.31,0,0,0-.1.2l-.2.2C10.1,50.3,10.1,50.3,9.9,50.2Zm1.2-.1c0-.1.1-.2.1-.3v-.1a.3674.3674,0,0,1,.1-.3.0979.0979,0,0,1,.1-.1.1875.1875,0,0,1,.3,0h.1c-.1.1-.2.2-.2.3v.2a.2151.2151,0,0,0,.2.2h0c0-.1,0-.2.1-.2v-.1a.1875.1875,0,0,1,.3,0l.1.1c-.1,0-.1.1-.2.1h0a.3491.3491,0,0,0,.2.1h1.5a.2.2,0,1,1,0,.4H11.4C11,50.2,11,50.2,11.1,50.1Z" fill="#74c8c0"/></g></g><g id="heath_bd-5" data-name="heath_bd" style="isolation:isolate"><g id="Heath_FC-5" data-name="Heath_FC"><path d="M12.6,46.7c-.1,0-.1,0-.1-.1l-.4-.7v-.1a.0979.0979,0,0,1,.1-.1l.1-.1h.1l.1.1.4.7v.1l-.1.1-.2.1Z" fill="#6bbe66"/><path d="M14.1,46.4c-.1,0-.1,0-.2-.1L13.5,45c0-.1,0-.2.1-.2l.1-.1h.1l.1.1.4,1.3v.1l-.1.1c0,.1,0,.1-.1.1Z" fill="#6bbe66"/><path d="M15.7,44.2l.2,1.9v.1l-.1.1h-.2a.2151.2151,0,0,1-.2-.2l-.2-1.9.1-.1.2-.1h.1A.3491.3491,0,0,1,15.7,44.2Z" fill="#6bbe66"/><path d="M17,46.4h-.1l-.1-.1v-.1l.4-1.3.1-.1h.3l.1.1c.1,0,.1.1.1.2l-.4,1.3Z" fill="#6bbe66"/><path d="M18.5,46.7h0l-.2-.1-.1-.1v-.1l.4-.7.1-.1h.1l.1.1c.1,0,.1.1.1.2l-.4.7C18.6,46.7,18.6,46.7,18.5,46.7Z" fill="#6bbe66"/></g></g><g id="marsh_bd-4" data-name="marsh_bd" style="isolation:isolate"><g id="Marsh_FC-4" data-name="Marsh_FC"><path d="M5.7,43.9c.1.1,0,.2-.1.2H3.2a.2.2,0,0,1,0-.4H4.8a.0979.0979,0,0,0-.1-.1h0c-.1-.1-.1-.1,0-.2l.1-.1.3.3v.2h.2c0-.2,0-.3-.1-.4a.0979.0979,0,0,0-.1-.1.1385.1385,0,0,1,0-.2h.1c.1.1.1.2.2.2v.1a.3674.3674,0,0,0,.1.3C5.6,43.7,5.6,43.9,5.7,43.9Zm3,.9c0,.1-.1.1-.2.1H4.6a.3491.3491,0,0,1-.2-.1.3491.3491,0,0,1,.2-.1H8.5A.3491.3491,0,0,1,8.7,44.8ZM6.4,44a2.0577,2.0577,0,0,0-.5-.9s-.2-.2.2-.1a1.1057,1.1057,0,0,1,.4.5s0-.8.5-.9c0,0,.3-.1.1.1a1.0474,1.0474,0,0,0-.3.6,1.4093,1.4093,0,0,1,.5-.3s.3-.1,0,.1l-.4.4a.31.31,0,0,0-.1.2l-.2.2C6.6,44.1,6.6,44.1,6.4,44Zm1.1-.1c0-.1.1-.2.1-.3v-.1a.3674.3674,0,0,1,.1-.3.0979.0979,0,0,1,.1-.1.1875.1875,0,0,1,.3,0h.1c-.2.1-.2.2-.3.3v.2a.2151.2151,0,0,0,.2.2h0c0-.1,0-.2.1-.2v-.1a.1875.1875,0,0,1,.3,0l.1.1c-.1,0-.1.1-.2.1h0a.3491.3491,0,0,0,.2.1H10a.2.2,0,0,1,0,.4H7.6C7.5,44.1,7.4,44,7.5,43.9Z" fill="#74c8c0"/></g></g><g id="marsh_bd-5" data-name="marsh_bd" style="isolation:isolate"><g id="Marsh_FC-5" data-name="Marsh_FC"><path d="M18.1,29c.1.1,0,.2-.1.2H15.6a.2.2,0,0,1,0-.4h1.6a.0979.0979,0,0,0-.1-.1h0c-.1-.1-.1-.1,0-.2l.1-.1.2.2v.2h.2c0-.2,0-.3-.1-.4a.0979.0979,0,0,0-.1-.1.1385.1385,0,0,1,0-.2h.1c.1.1.1.2.2.2v.1a.3674.3674,0,0,0,.1.3Q18.1,28.85,18.1,29Zm3.1.9c0,.1-.1.1-.2.1H17.1a.3491.3491,0,0,1-.2-.1c0-.1.1-.1.2-.1H21C21.1,29.7,21.2,29.8,21.2,29.9Zm-2.4-.8a2.0577,2.0577,0,0,0-.5-.9s-.2-.2.2-.1a1.1057,1.1057,0,0,1,.4.5s0-.8.5-.9c0,0,.3-.1.1.1a1.0474,1.0474,0,0,0-.3.6,1.4093,1.4093,0,0,1,.5-.3s.3-.1,0,.1l-.4.4a.31.31,0,0,0-.1.2L19,29C19.1,29.2,19,29.2,18.8,29.1ZM20,29c0-.1.1-.2.1-.3v-.1a.3674.3674,0,0,1,.1-.3.0979.0979,0,0,1,.1-.1.1875.1875,0,0,1,.3,0h.1c-.1.1-.2.2-.2.3v.2a.2151.2151,0,0,0,.2.2h0c0-.1,0-.2.1-.2v-.1a.1875.1875,0,0,1,.3,0l.1.1c-.1,0-.1.1-.2.1h0a.3491.3491,0,0,0,.2.1h1.5a.2.2,0,1,1,0,.4H20.3C20,29.1,19.9,29.1,20,29Z" fill="#74c8c0"/></g></g><g id="heath_bd-6" data-name="heath_bd" style="isolation:isolate"><g id="Heath_FC-6" data-name="Heath_FC"><path d="M21.5,25.6c-.1,0-.1,0-.1-.1l-.4-.7v-.1a.0979.0979,0,0,1,.1-.1l.1-.1h.1l.1.1.4.7v.1l-.1.1-.2.1Z" fill="#6bbe66"/><path d="M23,25.3c-.1,0-.1,0-.2-.1l-.4-1.3c0-.1,0-.2.1-.2l.1-.1h.1l.1.1.4,1.3v.1l-.1.1c0,.1,0,.1-.1.1Z" fill="#6bbe66"/><path d="M24.6,23.1l.2,1.9v.1l-.1.1h-.2a.2151.2151,0,0,1-.2-.2l-.2-1.9.1-.1.2-.1h.1A.3491.3491,0,0,1,24.6,23.1Z" fill="#6bbe66"/><path d="M25.9,25.3h-.1l-.1-.1v-.1l.4-1.3.1-.1h.3l.1.1c.1,0,.1.1.1.2l-.4,1.3Z" fill="#6bbe66"/><path d="M27.4,25.6h0l-.2-.1-.1-.1v-.1l.4-.7.1-.1h.1l.1.1c.1,0,.1.1.1.2l-.4.7C27.5,25.6,27.5,25.6,27.4,25.6Z" fill="#6bbe66"/></g></g><g id="heath_bd-7" data-name="heath_bd" style="isolation:isolate"><g id="Heath_FC-7" data-name="Heath_FC"><path d="M12.5,24c-.1,0-.1,0-.1-.1l-.4-.6v-.1a.0979.0979,0,0,1,.1-.1l.1-.1h.1l.1.1.4.7v.1l-.1.1Z" fill="#6bbe66"/><path d="M14,23.8c-.1,0-.1,0-.2-.1l-.4-1.3c0-.1,0-.2.1-.2l.1-.1h.1l.1.1.4,1.3v.1l-.1.1-.1.1Z" fill="#6bbe66"/><path d="M15.6,21.5l.2,1.9v.1l-.1.1h-.2a.2151.2151,0,0,1-.2-.2l-.2-1.9.1-.1.2-.1h.1A.3491.3491,0,0,1,15.6,21.5Z" fill="#6bbe66"/><path d="M16.9,23.7h-.1l-.1-.1v-.1l.4-1.3.1-.1h.3l.1.1c.1,0,.1.1.1.2l-.4,1.3c-.2,0-.3.1-.4,0Z" fill="#6bbe66"/><path d="M18.5,24h-.2l-.1-.1v-.1l.4-.7.1-.1h.1l.1.1c.1,0,.1.1.1.2l-.4.7Z" fill="#6bbe66"/></g></g><g id="marsh_bd-6" data-name="marsh_bd" style="isolation:isolate"><g id="Marsh_FC-6" data-name="Marsh_FC"><path d="M49.1,9.1c.1.1,0,.2-.1.2H46.6a.2.2,0,0,1,0-.4h1.6a.0979.0979,0,0,0-.1-.1h0c-.1-.1-.1-.1,0-.2l.1-.1.2.2v.2h.2c0-.2,0-.3-.1-.4a.0979.0979,0,0,0-.1-.1.1385.1385,0,0,1,0-.2h.1c.1.1.1.2.2.2s0,.1,0,.1a.3674.3674,0,0,0,.1.3A.7467.7467,0,0,1,49.1,9.1Zm3.1.9c0,.1-.1.1-.2.1H48.1a.3491.3491,0,0,1-.2-.1c0-.1.1-.1.2-.1H52A.3491.3491,0,0,1,52.2,10Zm-2.4-.8a3.0764,3.0764,0,0,0-.4-.9s-.2-.2.2-.1a1.1057,1.1057,0,0,1,.4.5s0-.8.5-.9c0,0,.3-.1.1.1a1.0474,1.0474,0,0,0-.3.6,1.4093,1.4093,0,0,1,.5-.3s.3-.1,0,.1l-.4.4a.31.31,0,0,0-.1.2l-.2.2C50,9.3,50,9.4,49.8,9.2ZM51,9.1c0-.1.1-.2.1-.3V8.7a.3674.3674,0,0,1,.1-.3.0979.0979,0,0,1,.1-.1.1875.1875,0,0,1,.3,0h.1c-.1.1-.2.2-.2.3v.2a.2151.2151,0,0,0,.2.2h0c0-.1,0-.2.1-.2V8.7a.1875.1875,0,0,1,.3,0l-.1.1c-.1,0-.1.1-.2.1h0c0,.1.1.1.2.1h1.4a.2.2,0,0,1,0,.4H51A.1875.1875,0,0,1,51,9.1Z" fill="#74c8c0"/></g></g><g id="heath_bd-8" data-name="heath_bd" style="isolation:isolate"><g id="Heath_FC-8" data-name="Heath_FC"><path d="M52.5,5.8c-.1,0-.1,0-.1-.1L52,5V4.9a.0979.0979,0,0,1,.1-.1l.1-.1h.1l.1.1.4.7v.1l-.1.1-.2.1Z" fill="#6bbe66"/><path d="M54,5.5c-.1,0-.1,0-.2-.1L53.4,4c0-.1,0-.2.1-.2l.1-.1h.2l.1.1.4,1.3v.1l-.1.1-.2.2Z" fill="#6bbe66"/><path d="M55.6,3.2l.2,1.9v.1l-.1.1h-.2a.2151.2151,0,0,1-.2-.2l-.2-1.9.1-.1.1-.1h.1C55.5,3.1,55.6,3.1,55.6,3.2Z" fill="#6bbe66"/><path d="M56.9,5.5h-.1l-.1-.1V5.3L57,3.8l.1-.1h.2l.1.1c.1,0,.1.1.1.2l-.4,1.3a.2151.2151,0,0,1-.2.2Z" fill="#6bbe66"/><path d="M58.4,5.8h0l-.2-.1-.1-.1V5.5l.4-.7.1-.1h.1l.1.1c.2,0,.2.1.2.2l-.4.7C58.5,5.7,58.5,5.8,58.4,5.8Z" fill="#6bbe66"/></g></g><g id="heath_bd-9" data-name="heath_bd" style="isolation:isolate"><g id="Heath_FC-9" data-name="Heath_FC"><path d="M43.5,4.2c-.1,0-.1,0-.1-.1L43,3.4V3.3a.0979.0979,0,0,1,.1-.1l.1-.1h.1l.1.1.4.7V4l-.1.1-.2.1Z" fill="#6bbe66"/><path d="M45,3.9c-.1,0-.1,0-.2-.1l-.4-1.3c0-.1,0-.2.1-.2l.1-.1h.1l.1.1.4,1.3v.1l-.1.1c0,.1,0,.1-.1.1Z" fill="#6bbe66"/><path d="M46.6,1.7l.2,1.9v.1l-.1.1h-.2a.2151.2151,0,0,1-.2-.2l-.2-1.9.1-.1.2-.1h.1A.3491.3491,0,0,1,46.6,1.7Z" fill="#6bbe66"/><path d="M47.9,3.9h-.1l-.1-.1V3.7l.4-1.3.1-.1h.3l.1.1c.1,0,.1.1.1.2l-.4,1.3Z" fill="#6bbe66"/><path d="M49.5,4.2h0l-.2-.1L49.2,4V3.9l.4-.7.1-.1h.1l.1.1a.31.31,0,0,1,.1.2l-.4.7A.0979.0979,0,0,1,49.5,4.2Z" fill="#6bbe66"/></g></g><g id="marsh_bd-7" data-name="marsh_bd" style="isolation:isolate"><g id="Marsh_FC-7" data-name="Marsh_FC"><path d="M71.8,25.5c.1.1,0,.2-.1.2H69.3a.2.2,0,1,1,0-.4H71a.0979.0979,0,0,0-.1-.1h0c-.1-.1-.1-.1,0-.2l.1-.1.2.2v.2h.2c0-.2,0-.3-.1-.4a.0979.0979,0,0,0-.1-.1.1385.1385,0,0,1,0-.2h.1c.1.1.1.2.2.2v.1a.3674.3674,0,0,0,.1.3C71.7,25.2,71.8,25.4,71.8,25.5Zm3.1.8c0,.1-.1.1-.2.1H70.8a.3491.3491,0,0,1-.2-.1.3491.3491,0,0,1,.2-.1h3.9A.3491.3491,0,0,1,74.9,26.3Zm-2.4-.7a3.0764,3.0764,0,0,0-.4-.9s-.2-.2.2-.1a1.1057,1.1057,0,0,1,.4.5s0-.8.5-.9c0,0,.3-.1.1.1a1.0474,1.0474,0,0,0-.3.6,1.4093,1.4093,0,0,1,.5-.3s.3-.1,0,.1l-.5.5a.31.31,0,0,0-.1.2l-.2.2C72.7,25.7,72.7,25.7,72.5,25.6Zm1.1-.1c0-.1.1-.2.1-.3v-.1a.3674.3674,0,0,1,.1-.3.0979.0979,0,0,1,.1-.1.1875.1875,0,0,1,.3,0h.1c-.1.1-.2.2-.2.3v.2a.2151.2151,0,0,0,.2.2h0c0-.1,0-.2.1-.2v-.1a.1875.1875,0,0,1,.3,0l.1.1c-.1,0-.1.1-.2.1h0a.3491.3491,0,0,0,.2.1h1.4a.2.2,0,1,1,0,.4H73.8C73.6,25.6,73.6,25.5,73.6,25.5Z" fill="#74c8c0"/></g></g><g id="heath_bd-10" data-name="heath_bd" style="isolation:isolate"><g id="Heath_FC-10" data-name="Heath_FC"><path d="M75.2,22.1c-.1,0-.1,0-.1-.1l-.4-.7v-.1a.0979.0979,0,0,1,.1-.1l.1-.1H75l.1.1.4.7v.1l-.2.1-.1.1Z" fill="#6bbe66"/><path d="M76.7,21.8c-.1,0-.1,0-.2-.1l-.4-1.3c0-.1,0-.2.1-.2l.1-.1h.2l.1.1.4,1.3v.1l-.1.1c-.1.1-.1.1-.2.1Z" fill="#6bbe66"/><path d="M78.3,19.5l.2,1.9v.1l-.1.1h-.2a.2151.2151,0,0,1-.2-.2l-.2-1.9.1-.1.2-.1h.1C78.2,19.4,78.3,19.4,78.3,19.5Z" fill="#6bbe66"/><path d="M79.6,21.8h-.1l-.1-.1v-.1l.4-1.3.1-.1h.2l.1.1c.1,0,.1.1.1.2l-.4,1.3c-.2-.1-.2,0-.3,0Z" fill="#6bbe66"/><path d="M81.1,22.1h0l-.2-.1-.1-.1v-.1l.4-.7.1-.1h.1l.1.1c.1,0,.1.1.1.2l-.4.7A.0979.0979,0,0,1,81.1,22.1Z" fill="#6bbe66"/></g></g><g id="marsh_bd-8" data-name="marsh_bd" style="isolation:isolate"><g id="Marsh_FC-8" data-name="Marsh_FC"><path d="M68.3,19.3c.1.1,0,.2-.1.2H65.8a.2.2,0,0,1,0-.4h1.6a.0979.0979,0,0,0-.1-.1h0c-.1-.1-.1-.1,0-.2l.1-.1.2.2v.2h.2c0-.2,0-.3-.1-.4a.0979.0979,0,0,0-.1-.1.1385.1385,0,0,1,0-.2h.1c.1.1.1.2.2.2v.1a.3674.3674,0,0,0,.1.3C68.2,19.1,68.2,19.2,68.3,19.3Zm3,.9c0,.1-.1.1-.2.1H67.2a.3491.3491,0,0,1-.2-.1c0-.1.1-.1.2-.1h3.9C71.2,20.1,71.3,20.1,71.3,20.2Zm-2.4-.8a3.0764,3.0764,0,0,0-.4-.9s-.2-.2.2-.1a1.1057,1.1057,0,0,1,.4.5s0-.8.5-.9c0,0,.3-.1.1.1a1.0474,1.0474,0,0,0-.3.6,1.4093,1.4093,0,0,1,.5-.3s.3-.1,0,.1l-.4.4a.31.31,0,0,0-.1.2l-.2.2C69.2,19.5,69.2,19.5,68.9,19.4Zm1.2-.1c0-.1.1-.2.1-.3v-.1a.3674.3674,0,0,1,.1-.3.0979.0979,0,0,1,.1-.1.1875.1875,0,0,1,.3,0h.1c-.1.1-.2.2-.2.3V19a.2151.2151,0,0,0,.2.2h0c0-.1,0-.2.1-.2v-.1a.1875.1875,0,0,1,.3,0l.1.1c-.3,0-.3,0-.4.1h0a.3491.3491,0,0,0,.2.1h1.4a.2.2,0,1,1,0,.4H70.1C70.1,19.5,70,19.4,70.1,19.3Z" fill="#74c8c0"/></g></g><g id="marsh_bd-9" data-name="marsh_bd" style="isolation:isolate"><g id="Marsh_FC-9" data-name="Marsh_FC"><path d="M83,8.5c.1.1,0,.2-.1.2H80.5a.2.2,0,0,1,0-.4h1.6a.0979.0979,0,0,0-.1-.1h0c0-.1,0-.2.1-.2l.1-.1.2.2v.2h.2c0-.2,0-.3-.1-.4a.0979.0979,0,0,0-.1-.1.1385.1385,0,0,1,0-.2h.1c.1.1.1.2.2.2v.1a.3674.3674,0,0,0,.1.3C82.9,8.2,82.9,8.4,83,8.5Zm3,.8c0,.1-.1.1-.2.1H82a.3491.3491,0,0,1-.2-.1.3491.3491,0,0,1,.2-.1h3.9A.0979.0979,0,0,1,86,9.3Zm-2.3-.7a3.0764,3.0764,0,0,0-.4-.9s-.2-.2.2-.1a1.1057,1.1057,0,0,1,.4.5s0-.8.5-.9c0,0,.3-.1.1.1a1.0474,1.0474,0,0,0-.3.6,1.4093,1.4093,0,0,1,.5-.3s.3-.1,0,.1l-.4.4a.31.31,0,0,0-.1.2l-.2.2C83.9,8.7,83.9,8.7,83.7,8.6Zm1.1-.1c0-.1.1-.2.1-.3V8.1a.3674.3674,0,0,1,.1-.3.0979.0979,0,0,1,.1-.1.1875.1875,0,0,1,.3,0h.1c-.1.1-.2.2-.2.3v.2a.2151.2151,0,0,0,.2.2h0c0-.1,0-.2.1-.2V8.1c-.1-.1.1-.1.2-.1l.1.1c-.1,0-.1.1-.2.1h0a.3491.3491,0,0,0,.2.1h1.4a.2.2,0,1,1,0,.4H84.9A.31.31,0,0,1,84.8,8.5Z" fill="#74c8c0"/></g></g><g id="heath_bd-11" data-name="heath_bd" style="isolation:isolate"><g id="Heath_FC-11" data-name="Heath_FC"><path d="M86.3,5.1c-.1,0-.1,0-.1-.1l-.4-.7V4.2a.0979.0979,0,0,1,.1-.1L86,4h.1l.1.1.4.7v.1l-.1.1-.2.1Z" fill="#6bbe66"/><path d="M87.8,4.8c-.1,0-.1,0-.2-.1l-.4-1.3c0-.1,0-.2.1-.2l.1-.1h.2l.1.1.4,1.3v.1l-.1.1a.3491.3491,0,0,1-.2.1Z" fill="#6bbe66"/><path d="M89.4,2.5l.2,1.9v.1l-.1.1h-.2a.2151.2151,0,0,1-.2-.2l-.2-1.9.1-.1.2-.1h.1C89.4,2.4,89.4,2.4,89.4,2.5Z" fill="#6bbe66"/><path d="M90.7,4.8h-.1l-.1-.1V4.6l.4-1.3.1-.2h.2l.1.1c.1,0,.1.1.1.2L91,4.7c-.1,0-.1.1-.3.1Z" fill="#6bbe66"/><path d="M92.3,5.1h0L92.1,5,92,4.9V4.8l.4-.7.1-.1h.1l.1.1c.1,0,.1.1.1.2l-.4.7Z" fill="#6bbe66"/></g></g><g id="marsh_bd-10" data-name="marsh_bd" style="isolation:isolate"><g id="Marsh_FC-10" data-name="Marsh_FC"><path d="M79.4,2.3c.1.1,0,.2-.1.2H77a.2151.2151,0,0,1-.2-.2.2151.2151,0,0,1,.2-.2h1.6a.0979.0979,0,0,0-.1-.1h0c-.1-.1-.1-.1,0-.2l.1-.1.2.2v.2H79c0-.2,0-.3-.1-.4a.0979.0979,0,0,0-.1-.1.1385.1385,0,0,1,0-.2h.1c.1.1.1.2.2.2v.1a.3674.3674,0,0,0,.1.3C79.3,2.1,79.4,2.2,79.4,2.3Zm3.1.9c0,.1-.1.1-.2.1H78.4a.3491.3491,0,0,1-.2-.1c0-.1.1-.1.2-.1h3.9C82.4,3.1,82.5,3.1,82.5,3.2Zm-2.4-.8a3.0764,3.0764,0,0,0-.4-.9s-.2-.2.2-.1a1.1057,1.1057,0,0,1,.4.5s0-.8.5-.9c0,0,.3-.1.1.1a1.0474,1.0474,0,0,0-.3.6,1.4093,1.4093,0,0,1,.5-.3s.3-.1,0,.1l-.4.4a.31.31,0,0,0-.1.2l-.2.2C80.3,2.5,80.3,2.5,80.1,2.4Zm1.2-.1c0-.1.1-.2.1-.3V1.9a.3674.3674,0,0,1,.1-.3l.1-.1a.1875.1875,0,0,1,.3,0H82c-.1.1-.2.2-.2.3V2a.2151.2151,0,0,0,.2.2h0c0-.1,0-.2.1-.2V1.9a.1875.1875,0,0,1,.3,0l.1.1c-.1,0-.1.1-.2.1h0a.3491.3491,0,0,0,.2.1h1.4a.2151.2151,0,0,1,.2.2.2151.2151,0,0,1-.2.2H81.5C81.3,2.5,81.2,2.4,81.3,2.3Z" fill="#74c8c0"/></g></g><g id="marsh_bd-11" data-name="marsh_bd" style="isolation:isolate"><g id="Marsh_FC-11" data-name="Marsh_FC"><path d="M72.8,45.5c.1.1,0,.2-.1.2H70.3a.2.2,0,1,1,0-.4H72a.0979.0979,0,0,0-.1-.1h0c-.1-.1-.1-.1,0-.2H72l.2.2v.2h.2c0-.2,0-.3-.1-.4a.0979.0979,0,0,0-.1-.1.1385.1385,0,0,1,0-.2h.1c.1.1.1.2.2.2V45a.3674.3674,0,0,0,.1.3A.2151.2151,0,0,1,72.8,45.5Zm3.1.9c0,.1-.1.1-.2.1H71.8a.3491.3491,0,0,1-.2-.1c0-.1.1-.1.2-.1h3.9C75.8,46.3,75.9,46.3,75.9,46.4Zm-2.4-.8a3.0764,3.0764,0,0,0-.4-.9s-.2-.2.2-.1a1.1057,1.1057,0,0,1,.4.5s0-.8.5-.9c0,0,.3-.1.1.1a1.0474,1.0474,0,0,0-.3.6,1.4093,1.4093,0,0,1,.5-.3s.3-.1,0,.1l-.5.6a.31.31,0,0,0-.1.2l-.2.2Zm1.1-.1c0-.1.1-.2.1-.3v-.1a.3674.3674,0,0,1,.1-.3l.1-.1a.1875.1875,0,0,1,.3,0h.1c-.1.1-.2.2-.2.3v.2a.2151.2151,0,0,0,.2.2h0c0-.1,0-.2.1-.2v-.1a.1875.1875,0,0,1,.3,0l.1.1c-.1,0-.1.1-.2.1h0a.3491.3491,0,0,0,.2.1h1.4a.2.2,0,0,1,0,.4H74.8C74.6,45.6,74.6,45.6,74.6,45.5Z" fill="#74c8c0"/></g></g><g id="heath_bd-12" data-name="heath_bd" style="isolation:isolate"><g id="Heath_FC-12" data-name="Heath_FC"><path d="M76.2,42.1c-.1,0-.1,0-.1-.1l-.4-.7v-.1a.0979.0979,0,0,1,.1-.1l.1-.1H76l.1.1.4.7v.1l-.1.1-.2.1Z" fill="#6bbe66"/><path d="M77.7,41.8c-.1,0-.1,0-.2-.1l-.4-1.3c0-.1,0-.2.1-.2l.1-.1h.2l.1.1.4,1.3v.1l-.1.1c-.1.1-.1.1-.2.1Z" fill="#6bbe66"/><path d="M79.3,39.6l.2,1.9v.1l-.1.1h-.2a.2151.2151,0,0,1-.2-.2l-.2-1.9.1-.1.2-.1h.1A.3491.3491,0,0,1,79.3,39.6Z" fill="#6bbe66"/><path d="M80.6,41.8h-.1l-.1-.1v-.1l.4-1.3.1-.1h.2l.1.1c.1,0,.1.1.1.2l-.4,1.3Z" fill="#6bbe66"/><path d="M82.1,42.1h0l-.2-.1-.1-.1v-.1l.4-.7.1-.1h.1l.1.1c.1,0,.1.1.1.2l-.4.7C82.2,42.1,82.2,42.1,82.1,42.1Z" fill="#6bbe66"/></g></g><g id="heath_bd-13" data-name="heath_bd" style="isolation:isolate"><g id="Heath_FC-13" data-name="Heath_FC"><path d="M67.2,40.6c-.1,0-.1,0-.1-.1l-.4-.7v-.1a.0979.0979,0,0,1,.1-.1l.1-.1H67l.1.1.4.7v.1l-.1.1-.2.1Z" fill="#6bbe66"/><path d="M68.7,40.3c-.1,0-.1,0-.2-.1l-.4-1.3c0-.1,0-.2.1-.2l.1-.1h.2l.1.1L69,40v.1l-.1.1c-.1,0-.1,0-.2.1Z" fill="#6bbe66"/><path d="M70.3,38l.2,1.9V40l-.1.1h-.2a.2151.2151,0,0,1-.2-.2L69.8,38l.1-.1.2-.1h.1C70.2,37.9,70.3,37.9,70.3,38Z" fill="#6bbe66"/><path d="M71.6,40.3h-.1l-.1-.1v-.1l.4-1.3.1-.1h.2l.1.1c.1,0,.1.1.1.2l-.4,1.3c-.1-.1-.2,0-.3,0Z" fill="#6bbe66"/><path d="M73.1,40.6h0l-.1-.1-.1-.1v-.1l.4-.7.1-.1h.1l.1.1c.1,0,.1.1.1.2l-.4.7C73.2,40.5,73.2,40.6,73.1,40.6Z" fill="#6bbe66"/></g></g><g id="marsh_bd-12" data-name="marsh_bd" style="isolation:isolate"><g id="Marsh_FC-12" data-name="Marsh_FC"><path d="M83.5,69.6c.1.1,0,.2-.1.2H81a.2.2,0,0,1,0-.4h1.6a.0979.0979,0,0,0-.1-.1h0c-.1-.1-.1-.1,0-.2l.1-.1.2.2v.2H83c0-.2,0-.3-.1-.4H83a.1385.1385,0,0,1,0-.2h.1c.1.1.1.2.2.2v.1a.3674.3674,0,0,0,.1.3A.3491.3491,0,0,1,83.5,69.6Zm3,.9c0,.1-.1.1-.2.1H82.4a.125.125,0,1,1,0-.2h3.9C86.5,70.4,86.5,70.4,86.5,70.5Zm-2.3-.8a3.0764,3.0764,0,0,0-.4-.9s-.2-.2.2-.1a1.1057,1.1057,0,0,1,.4.5s0-.8.5-.9c0,0,.3-.1.1.1a1.0474,1.0474,0,0,0-.3.6,1.4093,1.4093,0,0,1,.5-.3s.3-.1,0,.1l-.4.4a.31.31,0,0,0-.1.2l-.2.2C84.4,69.8,84.4,69.8,84.2,69.7Zm1.1-.1c0-.1.1-.2.1-.3v-.1a.3674.3674,0,0,1,.1-.3l.1-.1a.1875.1875,0,0,1,.3,0H86c-.1.1-.2.2-.2.3v.2a.2151.2151,0,0,0,.2.2h0c0-.1,0-.2.1-.2v-.1a.1875.1875,0,0,1,.3,0l.1.1c-.1,0-.1.1-.2.1h0a.3491.3491,0,0,0,.2.1h1.4a.2.2,0,1,1,0,.4H85.5C85.3,69.8,85.3,69.7,85.3,69.6Z" fill="#74c8c0"/></g></g><g id="heath_bd-14" data-name="heath_bd" style="isolation:isolate"><g id="Heath_FC-14" data-name="Heath_FC"><path d="M86.9,66.2c-.1,0-.1,0-.1-.1l-.4-.7v-.1a.0979.0979,0,0,1,.1-.1l.1-.1h.1l.1.1.4.7V66l-.2.2Z" fill="#6bbe66"/><path d="M88.3,65.9c-.1,0-.1,0-.2-.1l-.4-1.3c0-.1,0-.2.1-.2l.1-.1h.2l.1.1.4,1.3v.1l-.1.1c0,.1-.1.1-.2.1Z" fill="#6bbe66"/><path d="M90,63.7l.2,1.9v.1l-.2.1h-.2a.2151.2151,0,0,1-.2-.2l-.2-1.9.1-.1.2-.1h.1C89.9,63.5,89.9,63.6,90,63.7Z" fill="#6bbe66"/><path d="M91.2,65.9h-.1l-.1-.1v-.1l.4-1.3.1-.1h.2l.1.1c.1,0,.1.1.1.2l-.4,1.3c-.1,0-.1.1-.3,0Z" fill="#6bbe66"/><path d="M92.8,66.2h0l-.2-.1-.1-.1v-.1l.4-.7.1-.1h.1l.1.1c.1,0,.1.1.1.2l-.4.7A.0979.0979,0,0,1,92.8,66.2Z" fill="#6bbe66"/></g></g><g id="marsh_bd-13" data-name="marsh_bd" style="isolation:isolate"><g id="Marsh_FC-13" data-name="Marsh_FC"><path d="M79.9,63.5c.1.1,0,.2-.1.2H77.4a.2.2,0,0,1,0-.4H79a.0979.0979,0,0,0-.1-.1h0c-.1-.1-.1-.1,0-.2l.1-.1.2.2v.2h.2c0-.2,0-.3-.1-.4a.0979.0979,0,0,0-.1-.1.1385.1385,0,0,1,0-.2h.1c.1.1.1.2.2.2v.1a.3674.3674,0,0,0,.1.3Q79.9,63.35,79.9,63.5Zm3.1.9c0,.1-.1.1-.2.1H78.9a.125.125,0,1,1,0-.2h3.9C82.9,64.2,83,64.3,83,64.4Zm-2.4-.8a3.0764,3.0764,0,0,0-.4-.9s-.2-.2.2-.1a1.1057,1.1057,0,0,1,.4.5s0-.8.5-.9c0,0,.3-.1.1.1a1.0474,1.0474,0,0,0-.3.6,1.4093,1.4093,0,0,1,.5-.3s.3-.1,0,.1l-.4.4a.31.31,0,0,0-.1.2l-.2.2C80.9,63.7,80.9,63.7,80.6,63.6Zm1.2-.1c0-.1.1-.2.1-.3v-.1a.3674.3674,0,0,1,.1-.3.0979.0979,0,0,1,.1-.1.1875.1875,0,0,1,.3,0h.1c-.1.1-.2.2-.2.3v.2a.2151.2151,0,0,0,.2.2h0c0-.1,0-.2.1-.2v-.1a.1875.1875,0,0,1,.3,0l.1.1c-.1,0-.1.1-.2.1h0a.3491.3491,0,0,0,.2.1h1.4a.2.2,0,1,1,0,.4H82C81.8,63.6,81.7,63.6,81.8,63.5Z" fill="#74c8c0"/></g></g><g id="marsh_bd-14" data-name="marsh_bd" style="isolation:isolate"><g id="Marsh_FC-14" data-name="Marsh_FC"><path d="M57.1,91.1c.1.1,0,.2-.1.2H54.6a.2.2,0,1,1,0-.4h1.6a.0979.0979,0,0,0-.1-.1h0c-.1-.1-.1-.1,0-.2l.1-.1.2.2v.2h.2c0-.2,0-.3-.1-.4a.0979.0979,0,0,0-.1-.1.1385.1385,0,0,1,0-.2h.1c.1.1.1.2.2.2v.1a.3674.3674,0,0,0,.1.3C57,90.9,57,91,57.1,91.1Zm3,.9c0,.1-.1.1-.2.1H56a.125.125,0,1,1,0-.2h3.9C60,91.9,60.1,91.9,60.1,92Zm-2.3-.8a3.0764,3.0764,0,0,0-.4-.9s-.2-.2.2-.1a1.1057,1.1057,0,0,1,.4.5s0-.8.5-.9c0,0,.3-.1.1.1a1.0474,1.0474,0,0,0-.3.6,1.4093,1.4093,0,0,1,.5-.3s.3-.1,0,.1l-.4.4a.31.31,0,0,0-.1.2l-.2.2C58,91.3,58,91.3,57.8,91.2Zm1.1-.1c0-.1.1-.2.1-.3v-.1a.3674.3674,0,0,1,.1-.3.0979.0979,0,0,1,.1-.1.1875.1875,0,0,1,.3,0h.1c-.1.1-.2.2-.2.3v.2a.2151.2151,0,0,0,.2.2h0c0-.1,0-.2.1-.2v-.1a.1875.1875,0,0,1,.3,0l.1.1c-.1,0-.1.1-.2.1h0a.3491.3491,0,0,0,.2.1h1.4a.2.2,0,0,1,0,.4H59C58.9,91.3,58.8,91.2,58.9,91.1Z" fill="#74c8c0"/></g></g><g id="heath_bd-15" data-name="heath_bd" style="isolation:isolate"><g id="Heath_FC-15" data-name="Heath_FC"><path d="M60.4,87.7c-.1,0-.1,0-.1-.1l-.4-.6v-.1a.0979.0979,0,0,1,.1-.1l.1-.1h.1l.1.1.4.7v.1l-.1.1Z" fill="#6bbe66"/><path d="M61.9,87.4c-.1,0-.1,0-.2-.1L61.3,86c0-.1,0-.2.1-.2l.1-.1h.2l.1.1.4,1.3v.1l-.1.1c0,.1-.1.1-.2.1Z" fill="#6bbe66"/><path d="M63.5,85.2l.2,1.9v.1l-.1.1h-.2a.2151.2151,0,0,1-.2-.2L63,85.2l.1-.1.2-.1h.1A.3491.3491,0,0,1,63.5,85.2Z" fill="#6bbe66"/><path d="M64.8,87.4h-.1l-.1-.1v-.1l.4-1.3.1-.1h.2l.1.1c.1,0,.1.1.1.2L65,87.3c0,.1-.1.2-.2.1Z" fill="#6bbe66"/><path d="M66.4,87.7h0l-.2-.1-.1-.1v-.1l.4-.7.1-.1h.1l.1.1c.1,0,.1.1.1.2l-.4.7A.0979.0979,0,0,1,66.4,87.7Z" fill="#6bbe66"/></g></g><g id="marsh_bd-15" data-name="marsh_bd" style="isolation:isolate"><g id="Marsh_FC-15" data-name="Marsh_FC"><path d="M53.5,85c.1.1,0,.2-.1.2H51a.2.2,0,0,1,0-.4h1.6a.0979.0979,0,0,0-.1-.1h0c-.1-.1-.1-.1,0-.2l.1-.1.2.2v.2H53c0-.2,0-.3-.1-.4a.0979.0979,0,0,0-.1-.1.1385.1385,0,0,1,0-.2h.1c.1.1.1.2.2.2v.1a.3674.3674,0,0,0,.1.3Q53.5,84.85,53.5,85Zm3.1.9c0,.1-.1.1-.2.1H52.5a.125.125,0,1,1,0-.2h3.9C56.5,85.7,56.6,85.8,56.6,85.9Zm-2.4-.8a3.0764,3.0764,0,0,0-.4-.9s-.2-.2.2-.1a1.1057,1.1057,0,0,1,.4.5s0-.8.5-.9c0,0,.3-.1.1.1a1.0474,1.0474,0,0,0-.3.6,1.4093,1.4093,0,0,1,.5-.3s.3-.1,0,.1l-.4.4a.31.31,0,0,0-.1.2l-.2.2C54.4,85.2,54.4,85.2,54.2,85.1Zm1.1-.1c0-.1.1-.2.1-.3v-.1a.3674.3674,0,0,1,.1-.3l.1-.1a.1875.1875,0,0,1,.3,0H56c-.1.1-.2.2-.2.3v.2a.2151.2151,0,0,0,.2.2h0c0-.1,0-.2.1-.2v-.1a.1875.1875,0,0,1,.3,0l.1.1c-.1,0-.1.1-.2.1h0a.3491.3491,0,0,0,.2.1h1.4a.2.2,0,0,1,0,.4H55.5C55.3,85.1,55.3,85.1,55.3,85Z" fill="#74c8c0"/></g></g><g id="marsh_bd-16" data-name="marsh_bd" style="isolation:isolate"><g id="Marsh_FC-16" data-name="Marsh_FC"><path d="M8.9,94c.1.1,0,.2-.1.2H6.4a.2.2,0,1,1,0-.4H8a.0979.0979,0,0,0-.1-.1h0c-.1-.1-.1-.1,0-.2l.1-.1.2.2v.2h.2c0-.2,0-.3-.1-.4a.0979.0979,0,0,0-.1-.1.1385.1385,0,0,1,0-.2h.1c.1.1.1.2.2.2s0,.1,0,.1a.3674.3674,0,0,0,.1.3C8.8,93.8,8.8,93.9,8.9,94Zm3,.9c0,.1-.1.1-.2.1H7.8a.125.125,0,1,1,0-.2h3.9C11.8,94.8,11.9,94.8,11.9,94.9Zm-2.3-.8a2.0577,2.0577,0,0,0-.5-.9s-.2-.2.2-.1a1.1057,1.1057,0,0,1,.4.5s0-.8.5-.9c0,0,.3-.1.1.1a1.0474,1.0474,0,0,0-.3.6,1.4093,1.4093,0,0,1,.5-.3s.3-.1,0,.1l-.4.4a1.5769,1.5769,0,0,0-.1.4l-.2.2Zm1.1-.1c0-.1.1-.2.1-.3v-.1a.3674.3674,0,0,1,.1-.3.0979.0979,0,0,1,.1-.1.1875.1875,0,0,1,.3,0h.1c-.1.1-.2.2-.2.3v.2a.2151.2151,0,0,0,.2.2h0c0-.1,0-.2.1-.2v-.1a.1875.1875,0,0,1,.3,0l.1.1c-.1,0-.1.1-.2.1h0a.3491.3491,0,0,0,.2.1h1.5a.2.2,0,0,1,0,.4H11Q10.55,94.15,10.7,94Z" fill="#74c8c0"/></g></g><g id="heath_bd-16" data-name="heath_bd" style="isolation:isolate"><g id="Heath_FC-16" data-name="Heath_FC"><path d="M12.2,90.6c-.1,0-.1,0-.1-.1l-.4-.7v-.1a.0979.0979,0,0,1,.1-.1l.1-.1H12l.1.1.4.7v.1l-.1.1-.2.1Z" fill="#6bbe66"/><path d="M13.7,90.3c-.1,0-.1,0-.2-.1l-.4-1.3c0-.1,0-.2.1-.2l.1-.1h.1l.1.1.4,1.3v.1l-.1.1c0,.1,0,.1-.1.1Z" fill="#6bbe66"/><path d="M15.3,88.1l.2,1.9v.1l-.1.1h-.2A.2151.2151,0,0,1,15,90l-.2-1.9.1-.1.2-.1h.1A.3491.3491,0,0,1,15.3,88.1Z" fill="#6bbe66"/><path d="M16.6,90.3h-.1l-.1-.1v-.1l.4-1.3.1-.1h.3l.1.1c.1,0,.1.1.1.2L17,90.3Z" fill="#6bbe66"/><path d="M18.2,90.6h0l-.2-.1-.1-.1v-.1l.4-.7.1-.1h.1l.1.1c.1,0,.1.1.1.2l-.4.7A.0979.0979,0,0,1,18.2,90.6Z" fill="#6bbe66"/></g></g><g id="marsh_bd-17" data-name="marsh_bd" style="isolation:isolate"><g id="Marsh_FC-17" data-name="Marsh_FC"><path d="M5.3,87.8c.1.1,0,.2-.1.2H2.8a.2.2,0,0,1,0-.4H4.4a.0979.0979,0,0,0-.1-.1h0c-.1-.1-.1-.1,0-.2l.1-.1.2.2v.2h.2c0-.2,0-.3-.1-.4a.0979.0979,0,0,0-.1-.1.1385.1385,0,0,1,0-.2h.1c.3.1.4.2.4.3v.1a.3674.3674,0,0,0,.1.3Zm3,.9c0,.1-.1.1-.2.1H4.3a.125.125,0,1,1,0-.2H8.2A.0979.0979,0,0,1,8.3,88.7ZM6,88a2.0577,2.0577,0,0,0-.5-.9s-.2-.2.2-.1a1.1057,1.1057,0,0,1,.4.5s0-.8.5-.9c0,0,.3-.1.1.1a1.0474,1.0474,0,0,0-.3.6,1.4093,1.4093,0,0,1,.5-.3s.3-.1,0,.1l-.4.4a.31.31,0,0,0-.1.2l-.2.2C6.2,88.1,6.2,88.1,6,88Zm1.1-.2c0-.1.1-.2.1-.3v-.1a.3674.3674,0,0,1,.1-.3.0979.0979,0,0,1,.1-.1h.4c-.1.1-.2.2-.2.3v.2a.2151.2151,0,0,0,.2.2h0c0-.1,0-.2.1-.2v-.1a.1875.1875,0,0,1,.3,0l.1.1c-.1,0-.1.1-.2.1h0a.3491.3491,0,0,0,.2.1H9.8a.2.2,0,0,1,0,.4H7.2A.3674.3674,0,0,1,7.1,87.8Z" fill="#74c8c0"/></g></g></svg>