<svg id="Layer_1" data-name="Layer 1" xmlns="http://www.w3.org/2000/svg" width="33.8667mm" height="33.8667mm" viewBox="0 0 96 96"><g id="heath_bd"><g id="Heath_FC"><path d="M11.8,79.5c-.1,0-.1,0-.1-.1l-.4-.7v-.1a.0979.0979,0,0,1,.1-.1l.1-.1h.1l.1.1.4.7v.1l-.1.1-.2.1Z" fill="#6bbe66"/><path d="M13.3,79.2c-.1,0-.1,0-.2-.1l-.4-1.3c0-.1,0-.2.1-.2l.1-.1H13l.1.1.4,1.3V79l-.1.1c0,.1,0,.1-.1.1Z" fill="#6bbe66"/><path d="M14.9,76.9l.2,1.8v.1l-.2.2h-.2a.2151.2151,0,0,1-.2-.2L14.4,77l.1-.1.2-.1h.1A.0979.0979,0,0,1,14.9,76.9Z" fill="#6bbe66"/><path d="M16.2,79.2h-.1l-.1-.1V79l.4-1.3.1-.1h.3l.1.1c.1,0,.1.1.1.2l-.4,1.3c-.2-.1-.3,0-.4,0Z" fill="#6bbe66"/><path d="M17.7,79.5h0l-.2-.1-.1-.1v-.1l.4-.7.1-.1H18l.1.1c.1,0,.1.1.1.2l-.4.7A.0979.0979,0,0,1,17.7,79.5Z" fill="#6bbe66"/></g></g><g id="heath_bd-2" data-name="heath_bd" style="isolation:isolate"><g id="Heath_FC-2" data-name="Heath_FC"><path d="M17.2,74.9c-.1,0-.1,0-.1-.1l-.4-.7V74a.0979.0979,0,0,1,.1-.1l.1-.1H17l.1.1.4.7v.1l-.1.1-.2.1Z" fill="#6bbe66"/><path d="M18.7,74.6c-.1,0-.1,0-.2-.1l-.4-1.3c0-.1,0-.2.1-.2l.1-.1h.1l.1.1.4,1.3v.1l-.1.1c0,.1,0,.1-.1.1Z" fill="#6bbe66"/><path d="M20.3,72.4l.2,1.8v.1l-.1.1h-.2a.2151.2151,0,0,1-.2-.2l-.2-1.9.1-.1.2-.1h.1C20.2,72.2,20.3,72.3,20.3,72.4Z" fill="#6bbe66"/><path d="M21.6,74.6h-.1l-.1-.1v-.1l.4-1.3.1-.1h.3l.1.1c.1,0,.1.1.1.2L22,74.6c-.3-.1-.3,0-.4,0Z" fill="#6bbe66"/><path d="M23.1,74.9h0l-.2-.1-.1-.1v-.1l.4-.7.1-.1h.1l.1.1c.1,0,.1.1.1.2l-.4.7A.0979.0979,0,0,1,23.1,74.9Z" fill="#6bbe66"/></g></g><g id="heath_bd-3" data-name="heath_bd" style="isolation:isolate"><g id="Heath_FC-3" data-name="Heath_FC"><path d="M8.3,73.3c-.1,0-.1,0-.1-.1l-.4-.7v-.1a.0979.0979,0,0,1,.1-.1l.1-.1h.1l.1.1.4.7v.1l-.1.1-.2.1Z" fill="#6bbe66"/><path d="M9.7,73.1c-.1,0-.1,0-.2-.1l-.4-1.3c0-.1,0-.2.1-.2l.1-.1h.1l.1.1.4,1.3V73a.31.31,0,0,0-.2.1Z" fill="#6bbe66"/><path d="M11.3,70.8l.2,1.8v.1l-.1.1h-.2a.2151.2151,0,0,1-.2-.2l-.2-1.9.1-.1.2-.1h.1C11.3,70.7,11.3,70.7,11.3,70.8Z" fill="#6bbe66"/><path d="M12.6,73h-.1l-.1-.1v-.1l.4-1.3.1-.1h.3l.1.1c.1,0,.1.1.1.2L13,73c-.2,0-.3.1-.4,0Z" fill="#6bbe66"/><path d="M14.2,73.3H14l-.1-.1v-.1l.4-.7.1-.1h.1l.1.1c.1,0,.1.1.1.2l-.4.7Z" fill="#6bbe66"/></g></g><g id="heath_bd-4" data-name="heath_bd" style="isolation:isolate"><g id="Heath_FC-4" data-name="Heath_FC"><path d="M48.5,68.8c-.1,0-.1,0-.1-.1l-.4-.6V68a.0979.0979,0,0,1,.1-.1l.1-.1h.1l.1.1.4.7v.1l-.1.1Z" fill="#6bbe66"/><path d="M50,68.5c-.1,0-.1,0-.2-.1l-.4-1.3c0-.1,0-.2.1-.2l.1-.1h.1l.1.1.4,1.3v.1l-.1.1c0,.1,0,.1-.1.1Z" fill="#6bbe66"/><path d="M51.6,66.3l.2,1.8v.1l-.1.1h-.2a.2151.2151,0,0,1-.2-.2l-.2-1.9.1-.1.2-.1h.1C51.5,66.1,51.6,66.2,51.6,66.3Z" fill="#6bbe66"/><path d="M52.9,68.5h-.1l-.1-.1v-.1l.4-1.3.1-.1h.2l.1.1c.1,0,.1.1.1.2l-.4,1.3Z" fill="#6bbe66"/><path d="M54.4,68.8h0l-.2-.1-.1-.1v-.1l.4-.7.1-.1h.1l.1.1c.1,0,.1.1.1.2l-.4.7C54.5,68.8,54.5,68.8,54.4,68.8Z" fill="#6bbe66"/></g></g><g id="heath_bd-5" data-name="heath_bd" style="isolation:isolate"><g id="Heath_FC-5" data-name="Heath_FC"><path d="M53.9,64.2c-.1,0-.1,0-.1-.1l-.4-.7v-.1a.0979.0979,0,0,1,.1-.1l.1-.1h.1l.1.1.4.7V64l-.1.1-.2.1Z" fill="#6bbe66"/><path d="M55.4,63.9c-.1,0-.1,0-.2-.1l-.4-1.3c0-.1,0-.2.1-.2l.1-.1h.1l.1.1.4,1.3v.1l-.1.1c0,.1,0,.1-.1.1Z" fill="#6bbe66"/><path d="M57,61.7l.2,1.8v.1l-.2.2h-.2a.2151.2151,0,0,1-.2-.2l-.2-1.9.1-.1.2-.1h.1C56.9,61.6,57,61.6,57,61.7Z" fill="#6bbe66"/><path d="M58.3,63.9h-.1l-.2-.1v-.1l.4-1.3.1-.1h.2l.1.1c.1,0,.1.1.1.2l-.4,1.3Z" fill="#6bbe66"/><path d="M59.8,64.2h0l-.2-.1-.1-.1v-.1l.4-.7.1-.1h.1l.1.1c.1,0,.1.1.1.2l-.4.7A.0979.0979,0,0,1,59.8,64.2Z" fill="#6bbe66"/></g></g><g id="heath_bd-6" data-name="heath_bd" style="isolation:isolate"><g id="Heath_FC-6" data-name="Heath_FC"><path d="M45,62.7c-.1,0-.1,0-.1-.1l-.4-.7v-.1a.0979.0979,0,0,1,.1-.1l.1-.1h.1l.1.1.4.7v.1l-.1.1-.2.1Z" fill="#6bbe66"/><path d="M46.4,62.4c-.1,0-.1,0-.2-.1L45.9,61c0-.1,0-.2.1-.2l.1-.1h.1l.1.1.4,1.3v.1l-.1.1c0,.1-.1.1-.2.1Z" fill="#6bbe66"/><path d="M48,60.2l.2,1.8v.1l-.1.1h-.2a.2151.2151,0,0,1-.2-.2l-.2-1.9.1-.1.2-.1h.1A.3674.3674,0,0,1,48,60.2Z" fill="#6bbe66"/><path d="M49.3,62.4h-.1l-.1-.1v-.1l.4-1.3.1-.1h.2l.1.1c.1,0,.1.1.1.2l-.4,1.3Z" fill="#6bbe66"/><path d="M50.9,62.7h0l-.2-.1-.1-.1v-.1l.4-.7.1-.1h.1l.1.1c.1,0,.1.1.1.2l-.4.7A.0979.0979,0,0,1,50.9,62.7Z" fill="#6bbe66"/></g></g><g id="heath_bd-7" data-name="heath_bd" style="isolation:isolate"><g id="Heath_FC-7" data-name="Heath_FC"><path d="M7.3,51.3c-.1,0-.1,0-.1-.1l-.4-.7v-.1a.0979.0979,0,0,1,.1-.1h.2l.1.1.4.6v.1l-.1.1-.2.1Z" fill="#6bbe66"/><path d="M8.8,51c-.1,0-.1,0-.2-.1l-.4-1.3c0-.1,0-.2.1-.2l.1-.1h.1l.1.1L9,50.7V51Z" fill="#6bbe66"/><path d="M10.4,48.8l.2,1.8v.1l-.1.1h-.2a.2151.2151,0,0,1-.2-.2l-.2-1.9.1-.1.2-.1h.1C10.3,48.6,10.4,48.7,10.4,48.8Z" fill="#6bbe66"/><path d="M11.7,51h-.1l-.1-.1v-.1l.4-1.3.1-.1h.3l.1.1c.1,0,.1.1.1.2L12.1,51Z" fill="#6bbe66"/><path d="M13.2,51.3h0l-.2-.1V51l.4-.7.1-.1h.1l.1.1c.1,0,.1.1.1.2l-.4.7C13.3,51.3,13.3,51.3,13.2,51.3Z" fill="#6bbe66"/></g></g><g id="heath_bd-8" data-name="heath_bd" style="isolation:isolate"><g id="Heath_FC-8" data-name="Heath_FC"><path d="M12.7,46.7c-.1,0-.1,0-.1-.1l-.4-.7v-.1a.0979.0979,0,0,1,.1-.1l.1-.1h.1l.1.1.4.7v.1l-.1.1-.2.1Z" fill="#6bbe66"/><path d="M14.2,46.4c-.1,0-.1,0-.2-.1L13.6,45c0-.1,0-.2.1-.2l.1-.1h.1l.1.1.4,1.3v.1l-.1.1c0,.1,0,.1-.1.1Z" fill="#6bbe66"/><path d="M15.8,44.2,16,46v.1l-.1.1h-.2a.2151.2151,0,0,1-.2-.2l-.2-1.9.1-.1.2-.1h.1C15.7,44,15.8,44.1,15.8,44.2Z" fill="#6bbe66"/><path d="M17.1,46.4H17l-.1-.1v-.1l.4-1.3.1-.1h.3l.1.1c.1,0,.1.1.1.2l-.4,1.3Z" fill="#6bbe66"/><path d="M18.6,46.7h0l-.2-.1-.1-.1v-.1l.4-.7.1-.1h.1l.1.1c.1,0,.1.1.1.2l-.4.7C18.7,46.7,18.7,46.7,18.6,46.7Z" fill="#6bbe66"/></g></g><g id="heath_bd-9" data-name="heath_bd" style="isolation:isolate"><g id="Heath_FC-9" data-name="Heath_FC"><path d="M3.8,45.2c-.1,0-.1,0-.1-.1l-.4-.7v-.1a.0979.0979,0,0,1,.1-.1l.1-.1h.1l.1.1.3.7v.2l-.2.1Z" fill="#6bbe66"/><path d="M5.3,44.9c-.1,0-.1,0-.2-.1l-.4-1.3c0-.1,0-.2.1-.2l.1-.1H5l.1.1.4,1.3v.1l-.1.1a.0979.0979,0,0,1-.1.1Z" fill="#6bbe66"/><path d="M6.9,42.6l.2,1.8v.1l-.1.1H6.8a.2151.2151,0,0,1-.2-.2l-.2-1.9.1-.1.2-.1h.1C6.8,42.5,6.9,42.5,6.9,42.6Z" fill="#6bbe66"/><path d="M8.2,44.9H8.1L8,44.8v-.1l.4-1.3.1-.1h.3l.1.1c.1,0,.1.1.1.2l-.4,1.3c-.2-.1-.3,0-.4,0Z" fill="#6bbe66"/><path d="M9.7,45.2h0l-.2-.1L9.4,45v-.1l.4-.7.1-.1H10l.1.1c.1,0,.1.1.1.2l-.4.7A.0979.0979,0,0,1,9.7,45.2Z" fill="#6bbe66"/></g></g><g id="heath_bd-10" data-name="heath_bd" style="isolation:isolate"><g id="Heath_FC-10" data-name="Heath_FC"><path d="M16.2,30.3c-.1,0-.1,0-.1-.1l-.4-.7v-.1a.0979.0979,0,0,1,.1-.1l.1-.1H16l.1.1.4.7v.1l-.1.1-.2.1Z" fill="#6bbe66"/><path d="M17.7,30c-.1,0-.1,0-.2-.1l-.4-1.3c0-.1,0-.2.1-.2l.1-.1h.1l.1.1.4,1.3v.1l-.1.1c0,.1,0,.1-.1.1Z" fill="#6bbe66"/><path d="M19.3,27.8l.2,1.8v.1l-.1.1h-.2a.2151.2151,0,0,1-.2-.2l-.2-1.9.1-.1.2-.1h.1C19.2,27.6,19.3,27.7,19.3,27.8Z" fill="#6bbe66"/><path d="M20.6,30h-.1l-.1-.1v-.1l.4-1.3.1-.1h.3l.1.1c.1,0,.1.1.1.2L21,30c-.2-.1-.3,0-.4,0Z" fill="#6bbe66"/><path d="M22.1,30.3h0l-.2-.1-.1-.1V30l.4-.7.1-.1h.1l.1.1c.1,0,.1.1.1.2l-.4.7A.0979.0979,0,0,1,22.1,30.3Z" fill="#6bbe66"/></g></g><g id="heath_bd-11" data-name="heath_bd" style="isolation:isolate"><g id="Heath_FC-11" data-name="Heath_FC"><path d="M21.6,25.7c-.1,0-.1,0-.1-.1l-.4-.7v-.1a.0979.0979,0,0,1,.1-.1l.1-.1h.1l.1.1.4.7v.1l-.1.1-.2.1Z" fill="#6bbe66"/><path d="M23.1,25.4c-.1,0-.1,0-.2-.1L22.5,24c0-.1,0-.2.1-.2l.1-.1h.1l.1.1.4,1.3v.1l-.1.1c0,.1,0,.1-.1.1Z" fill="#6bbe66"/><path d="M24.7,23.2l.2,1.8v.1l-.1.1h-.2a.2151.2151,0,0,1-.2-.2l-.2-1.9.1-.1.2-.1h.1C24.6,23,24.7,23.1,24.7,23.2Z" fill="#6bbe66"/><path d="M26,25.4h-.1l-.1-.1v-.1l.4-1.3.1-.1h.3l.1.1c.1,0,.1.1.1.2l-.4,1.3Z" fill="#6bbe66"/><path d="M27.5,25.7h0l-.2-.1-.1-.1v-.1l.4-.7.1-.1h.1l.1.1c.1,0,.1.1.1.2l-.4.7C27.6,25.7,27.6,25.7,27.5,25.7Z" fill="#6bbe66"/></g></g><g id="heath_bd-12" data-name="heath_bd" style="isolation:isolate"><g id="Heath_FC-12" data-name="Heath_FC"><path d="M12.7,24.1c-.1,0-.1,0-.1-.1l-.4-.7v-.1a.0979.0979,0,0,1,.1-.1l.1-.1h.1l.1.1.4.7v.1l-.1.1-.2.1Z" fill="#6bbe66"/><path d="M14.1,23.9c-.1,0-.1,0-.2-.1l-.4-1.3c0-.1,0-.2.1-.2l.1-.1h.1l.1.1.4,1.3v.1l-.1.1c.1,0,0,0-.1.1Z" fill="#6bbe66"/><path d="M15.7,21.6l.2,1.8v.1l-.1.1h-.2a.2151.2151,0,0,1-.2-.2l-.2-1.9.1-.1.2-.1h.1C15.7,21.5,15.7,21.5,15.7,21.6Z" fill="#6bbe66"/><path d="M17,23.9h-.1l-.1-.1v-.1l.4-1.3.1-.1h.3l.1.1c.1,0,.1.1.1.2l-.4,1.3c-.2-.1-.2,0-.4,0Z" fill="#6bbe66"/><path d="M18.6,24.1h0l-.2-.1h-.1v-.1l.4-.7.1-.1h.1l.1.1c.1,0,.1.1.1.2l-.4.7Z" fill="#6bbe66"/></g></g><g id="heath_bd-13" data-name="heath_bd" style="isolation:isolate"><g id="Heath_FC-13" data-name="Heath_FC"><path d="M47.1,10.5c-.1,0-.1,0-.1-.1l-.4-.7V9.6a.0979.0979,0,0,1,.1-.1l.1-.1h.1l.1.1.4.7v.1l-.1.1-.2.1Z" fill="#6bbe66"/><path d="M48.5,10.2c-.1,0-.1,0-.2-.1L48,8.8c0-.1,0-.2.1-.2l.1-.1h.1l.1.1.4,1.3V10l-.1.1c0,.1-.1.1-.2.1Z" fill="#6bbe66"/><path d="M50.1,8l.2,1.8v.1l-.1.1H50a.2151.2151,0,0,1-.2-.2L49.6,8l.1-.1.2-.1H50C50.1,7.8,50.1,7.9,50.1,8Z" fill="#6bbe66"/><path d="M51.4,10.2h-.1l-.1-.1V10l.4-1.3.1-.1H52c.1,0,.1.1.1.2l-.4,1.3c-.1.1-.1.1-.3.1Z" fill="#6bbe66"/><path d="M53,10.5h0l-.2-.1-.1-.1v-.1l.4-.7.1-.1h.1l.1.1c.1,0,.1.1.1.2l-.4.7A.0979.0979,0,0,1,53,10.5Z" fill="#6bbe66"/></g></g><g id="heath_bd-14" data-name="heath_bd" style="isolation:isolate"><g id="Heath_FC-14" data-name="Heath_FC"><path d="M52.4,5.9c-.1,0-.1,0-.1-.1l-.4-.7V5a.0979.0979,0,0,1,.1-.1l.1-.1h.1l.1.2.4.7v.1l-.1.1Z" fill="#6bbe66"/><path d="M53.9,5.7c-.1,0-.1,0-.2-.1l-.4-1.3c0-.1,0-.2.1-.2l.1-.1h.1l.1.1.4,1.3v.1l-.1.1c.1,0,0,0-.1.1Z" fill="#6bbe66"/><path d="M55.5,3.4l.2,1.8v.1l-.1.1h-.2a.2151.2151,0,0,1-.2-.2L55,3.4l.1-.1.2-.1h.1C55.5,3.3,55.5,3.3,55.5,3.4Z" fill="#6bbe66"/><path d="M56.8,5.6h-.1l-.1-.1V5.4L57,4h.4c.1,0,.1.1.1.2L57,5.5c0,.1-.1.2-.2.1Z" fill="#6bbe66"/><path d="M58.4,5.9h0l-.2-.1-.1-.1V5.6l.4-.6.1-.1h.1l.1.1c.1,0,.1.1.1.2l-.4.7Z" fill="#6bbe66"/></g></g><g id="heath_bd-15" data-name="heath_bd" style="isolation:isolate"><g id="Heath_FC-15" data-name="Heath_FC"><path d="M43.5,4.4c-.1,0-.1,0-.1-.1L43,3.6V3.5a.0979.0979,0,0,1,.1-.1l.1-.1h.1l.1.1.4.7v.1l-.1.1-.2.1Z" fill="#6bbe66"/><path d="M45,4.1c-.1,0-.1,0-.2-.1l-.4-1.3c0-.1,0-.2.1-.2l.1-.1h.1l.1.1.4,1.3v.1l-.1.1c0,.1,0,.1-.1.1Z" fill="#6bbe66"/><path d="M46.6,1.9l.2,1.8v.1l-.1.1h-.2a.2151.2151,0,0,1-.2-.2l-.2-1.9.1-.1.2-.1h.1C46.5,1.7,46.6,1.8,46.6,1.9Z" fill="#6bbe66"/><path d="M47.9,4.1h-.1L47.6,4V3.9L48,2.6l.1-.1h.3l.1.1c.1,0,.1.1.1.2L48.1,4c0,.1-.1.1-.2.1Z" fill="#6bbe66"/><path d="M49.4,4.4h0l-.2-.1-.1-.1V4.1l.4-.7.1-.1h.1l.1.1c.2.1.2.2.2.2l-.4.7C49.5,4.4,49.5,4.4,49.4,4.4Z" fill="#6bbe66"/></g></g><g id="heath_bd-16" data-name="heath_bd" style="isolation:isolate"><g id="Heath_FC-16" data-name="Heath_FC"><path d="M69.6,26.8c-.1,0-.1,0-.1-.1l-.4-.7v-.1a.0979.0979,0,0,1,.1-.1l.1-.1h.1l.1.1.4.7v.1l-.1.1-.2.1Z" fill="#6bbe66"/><path d="M71.1,26.5c-.1,0-.1,0-.2-.1L70.5,25c0-.1,0-.2.1-.2l.1-.1h.1l.1.1.4,1.3v.1l-.1.1c.1.2,0,.2-.1.2Z" fill="#6bbe66"/><path d="M72.7,24.2l.2,1.8v.1l-.1.1h-.2a.2151.2151,0,0,1-.2-.2l-.2-1.9.1-.1.2-.1h.1C72.6,24.1,72.7,24.1,72.7,24.2Z" fill="#6bbe66"/><path d="M74,26.5h-.1l-.1-.1v-.1l.4-1.3.1-.1h.2l.1.1c.1,0,.1.1.1.2l-.4,1.3c-.1-.1-.2,0-.3,0Z" fill="#6bbe66"/><path d="M75.5,26.8h0l-.2-.1-.1-.1v-.1l.4-.7.1-.1h.1l.1.1c.1,0,.1.1.1.2l-.4.7A.0979.0979,0,0,1,75.5,26.8Z" fill="#6bbe66"/></g></g><g id="heath_bd-17" data-name="heath_bd" style="isolation:isolate"><g id="Heath_FC-17" data-name="Heath_FC"><path d="M75,22.2c-.1,0-.1,0-.1-.1l-.4-.7v-.1a.0979.0979,0,0,1,.1-.1l.1-.1h.1l.1.1.4.7V22l-.1.1-.2.1Z" fill="#6bbe66"/><path d="M76.5,21.9c-.1,0-.1,0-.2-.1l-.4-1.3c0-.1,0-.2.1-.2l.1-.1h.1l.1.1.4,1.3v.1l-.1.1c0,.1,0,.1-.1.1Z" fill="#6bbe66"/><path d="M78.1,19.7l.2,1.8v.1l-.1.1H78a.2151.2151,0,0,1-.2-.2l-.2-1.9.1-.1.2-.1H78C78,19.5,78.1,19.6,78.1,19.7Z" fill="#6bbe66"/><path d="M79.4,21.9h-.1l-.1-.1v-.1l.4-1.3.1-.1h.2l.1.1c.1,0,.1.1.1.2l-.4,1.3Z" fill="#6bbe66"/><path d="M80.9,22.2h0l-.2-.1v-.2l.4-.7.1-.1h.1l.1.1c.1,0,.1.1.1.2l-.4.7C81,22.2,81,22.2,80.9,22.2Z" fill="#6bbe66"/></g></g><g id="heath_bd-18" data-name="heath_bd" style="isolation:isolate"><g id="Heath_FC-18" data-name="Heath_FC"><path d="M66.1,20.6c-.1,0-.1,0-.1-.1l-.4-.7v-.1a.0979.0979,0,0,1,.1-.1l.1-.1h.1l.1.1.4.7v.1l-.1.1-.2.1Z" fill="#6bbe66"/><path d="M67.6,20.4c-.1,0-.1,0-.2-.1L67,18.9c0-.1,0-.2.1-.2l.1-.1h.1l.1.1.4,1.3v.1l-.1.1c0,.1,0,.1-.1.2Z" fill="#6bbe66"/><path d="M69.2,18.1l.2,1.8V20l-.1.1h-.2a.2151.2151,0,0,1-.2-.2L68.7,18l.1-.1.2-.1h.1C69.1,18,69.2,18,69.2,18.1Z" fill="#6bbe66"/><path d="M70.5,20.4h-.1l-.1-.1v-.1l.4-1.3.1-.1H71l.1.1c.1,0,.1.1.1.2l-.4,1.3c-.2-.1-.2,0-.3,0Z" fill="#6bbe66"/><path d="M72,20.6h0l-.2-.1-.1-.1v-.1l.4-.7.1-.1h.1l.1.1c.1,0,.1.1.1.2l-.4.7C72.1,20.6,72.1,20.6,72,20.6Z" fill="#6bbe66"/></g></g><g id="heath_bd-19" data-name="heath_bd" style="isolation:isolate"><g id="Heath_FC-19" data-name="Heath_FC"><path d="M80.8,9.8c-.1,0-.1,0-.1-.1L80.3,9V8.9a.0979.0979,0,0,1,.1-.1l.1-.1h.1l.1.1.3.8v.1l-.1.1Z" fill="#6bbe66"/><path d="M82.3,9.6c-.1,0-.1,0-.2-.1l-.4-1.3c0-.1,0-.2.1-.2l.1-.1H82l.1.1.4,1.3v.1l-.1.1a.0979.0979,0,0,0-.1.1Z" fill="#6bbe66"/><path d="M83.8,7.3,84,9.1v.1l-.1.1h-.2a.2151.2151,0,0,1-.2-.2l-.2-1.9.1-.1.2-.1h.1C83.8,7.2,83.8,7.2,83.8,7.3Z" fill="#6bbe66"/><path d="M85.1,9.6H85l-.1-.1V9.4l.4-1.3.1-.1h.2l.1.1c.1,0,.1.1.1.2l-.4,1.3c-.1-.1-.1,0-.3,0Z" fill="#6bbe66"/><path d="M86.7,9.8h0l-.2-.1-.1-.1V9.5l.4-.7.1-.1H87l.1.1c.1,0,.1.1.1.2l-.4.7A.0979.0979,0,0,1,86.7,9.8Z" fill="#6bbe66"/></g></g><g id="heath_bd-20" data-name="heath_bd" style="isolation:isolate"><g id="Heath_FC-20" data-name="Heath_FC"><path d="M86.2,5.3c-.1,0-.1,0-.1-.1l-.4-.7V4.4a.0979.0979,0,0,1,.1-.1l.1-.1H86v.1l.4.7v.1l-.1.1-.1.1Z" fill="#6bbe66"/><path d="M87.6,5c-.1,0-.1,0-.2-.1L87,3.6c0-.1,0-.2.1-.2l.1-.1h.1l.1.1.4,1.3v.1l-.1.1c.1,0,0,.1-.1.1Z" fill="#6bbe66"/><path d="M89.2,2.7l.2,1.8v.1l-.1.1h-.2a.2151.2151,0,0,1-.2-.2l-.2-1.9.1-.1.2-.1h.1C89.2,2.6,89.2,2.6,89.2,2.7Z" fill="#6bbe66"/><path d="M90.5,5h-.1l-.1-.1V4.8l.4-1.3.1-.1H91l.1.1c.1,0,.1.1.1.2L90.8,5c-.1-.1-.1,0-.3,0Z" fill="#6bbe66"/><path d="M92.1,5.3h0l-.2-.1-.1-.1V5l.4-.7.1-.1h.1l.1.1c.1,0,.1.1.1.2l-.4.7Z" fill="#6bbe66"/></g></g><g id="heath_bd-21" data-name="heath_bd" style="isolation:isolate"><g id="Heath_FC-21" data-name="Heath_FC"><path d="M77.2,3.7c-.1,0-.1,0-.1-.1L76.7,3V2.9a.0979.0979,0,0,1,.1-.1l.1-.1H77l.1.1.4.7v.1l-.1.1Z" fill="#6bbe66"/><path d="M78.7,3.4c-.1,0-.1,0-.2-.1L78.1,2c0-.1,0-.2.1-.2l.1-.1h.1l.1.1L79,3.2v.1l-.1.1Z" fill="#6bbe66"/><path d="M80.3,1.2,80.5,3v.1l-.1.1h-.2c-.2.1-.2,0-.2-.1l-.2-1.9.1-.1L80,1h.1A.2151.2151,0,0,1,80.3,1.2Z" fill="#6bbe66"/><path d="M81.6,3.4h-.1l-.1-.1V3.2l.4-1.3.1-.1h.2l.1.1c.1,0,.1.1.1.2l-.4,1.3Z" fill="#6bbe66"/><path d="M83.1,3.7h0l-.2-.1-.1-.1V3.4l.4-.7.1-.1h.1l.1.1c.1,0,.1.1.1.2l-.4.7C83.2,3.7,83.2,3.7,83.1,3.7Z" fill="#6bbe66"/></g></g><g id="heath_bd-22" data-name="heath_bd" style="isolation:isolate"><g id="Heath_FC-22" data-name="Heath_FC"><path d="M70.6,46.7c-.1,0-.1,0-.1-.1l-.4-.7v-.1a.0979.0979,0,0,1,.1-.1l.1-.1h.1l.1.1.4.7v.1l-.1.1-.2.1Z" fill="#6bbe66"/><path d="M72.1,46.4c-.1,0-.1,0-.2-.1L71.5,45c0-.1,0-.2.1-.2l.1-.1h.1l.1.1.4,1.3v.1l-.1.1c.1.1,0,.1-.1.1Z" fill="#6bbe66"/><path d="M73.7,44.2l.2,1.8v.1l-.1.1h-.2a.2151.2151,0,0,1-.2-.2l-.2-1.9.1-.1.2-.1h.1C73.6,44,73.7,44.1,73.7,44.2Z" fill="#6bbe66"/><path d="M75,46.4h-.1l-.1-.1v-.1l.4-1.3.1-.1h.2l.1.1c.1,0,.1.1.1.2l-.4,1.3Z" fill="#6bbe66"/><path d="M76.5,46.7h0l-.2-.1-.1-.1v-.1l.4-.7.1-.1h.1l.1.1c.1,0,.1.1.1.2l-.4.7C76.7,46.7,76.6,46.7,76.5,46.7Z" fill="#6bbe66"/></g></g><g id="heath_bd-23" data-name="heath_bd" style="isolation:isolate"><g id="Heath_FC-23" data-name="Heath_FC"><path d="M76,42.1c-.1,0-.1,0-.1-.1l-.4-.7v-.1a.0979.0979,0,0,1,.1-.1l.1-.1h.1l.1.1.4.7v.1l-.1.1-.2.1Z" fill="#6bbe66"/><path d="M77.5,41.8c-.1,0-.1,0-.2-.1l-.4-1.3c0-.1,0-.2.1-.2l.1-.1h.1l.1.1.4,1.3v.1l-.1.1c0,.1,0,.1-.1.1Z" fill="#6bbe66"/><path d="M79.1,39.6l.2,1.8v.1l-.1.1H79a.2151.2151,0,0,1-.2-.2l-.2-1.9.1-.1.2-.1H79C79,39.4,79.1,39.5,79.1,39.6Z" fill="#6bbe66"/><path d="M80.4,41.8h-.1l-.1-.1v-.1l.4-1.3.1-.1h.2l.1.1c.1,0,.1.1.1.2l-.4,1.3Z" fill="#6bbe66"/><path d="M81.9,42.1h0l-.1-.1-.1-.1v-.1l.4-.7.1-.1h.1l.1.1c.1,0,.1.1.1.2l-.4.7C82,42.1,82,42.1,81.9,42.1Z" fill="#6bbe66"/></g></g><g id="heath_bd-24" data-name="heath_bd" style="isolation:isolate"><g id="Heath_FC-24" data-name="Heath_FC"><path d="M67.1,40.6c-.1,0-.1,0-.1-.1l-.4-.7v-.1a.0979.0979,0,0,1,.1-.1l.1-.1h.1l.1.1.4.7v.1l-.1.1-.2.1Z" fill="#6bbe66"/><path d="M68.6,40.3c-.1,0-.1,0-.2-.1L68,38.9c0-.1,0-.2.1-.2l.1-.1h.1l.1.1.4,1.3v.1l-.1.1c0,.1,0,.1-.1.1Z" fill="#6bbe66"/><path d="M70.2,38.1l.2,1.8V40l-.1.1h-.2a.2151.2151,0,0,1-.2-.2L69.7,38l.1-.1.2-.1h.1C70.1,37.9,70.2,38,70.2,38.1Z" fill="#6bbe66"/><path d="M71.5,40.3h-.1l-.1-.1v-.1l.4-1.3.1-.1H72l.1.1c.1,0,.1.1.1.2l-.4,1.3Z" fill="#6bbe66"/><path d="M73,40.6h0l-.2-.1-.1-.1v-.1l.4-.7.1-.1h.1l.1.1c.1,0,.1.1.1.2l-.4.7C73.1,40.6,73.1,40.6,73,40.6Z" fill="#6bbe66"/></g></g><g id="heath_bd-25" data-name="heath_bd" style="isolation:isolate"><g id="Heath_FC-25" data-name="Heath_FC"><path d="M81.3,70.7c-.1,0-.1,0-.1-.1l-.5-.6v-.1a.0979.0979,0,0,1,.1-.1l.1-.1H81l.1.1.4.7v.1l-.1.1Z" fill="#6bbe66"/><path d="M82.8,70.5c-.1,0-.1,0-.2-.1L82.2,69c0-.1,0-.2.1-.2l.1-.1h.1l.1.1.4,1.3v.1l-.1.1c0,.1,0,.1-.1.2Z" fill="#6bbe66"/><path d="M84.4,68.2l.2,1.8v.1l-.1.1h-.2a.2151.2151,0,0,1-.2-.2l-.2-1.9L84,68h.1A.7688.7688,0,0,1,84.4,68.2Z" fill="#6bbe66"/><path d="M85.6,70.4h-.1l-.1-.1v-.1l.4-1.3.1-.1h.2l.1.1c.1,0,.1.1.1.2l-.4,1.3c-.1,0-.1.1-.3,0Z" fill="#6bbe66"/><path d="M87.2,70.7H87l-.1-.1v-.1l.4-.7.1-.1h.1l.1.1c.1,0,.1.1.1.2l-.4.7Z" fill="#6bbe66"/></g></g><g id="heath_bd-26" data-name="heath_bd" style="isolation:isolate"><g id="Heath_FC-26" data-name="Heath_FC"><path d="M86.7,66.2c-.1,0-.1,0-.1-.1l-.4-.7v-.1a.0979.0979,0,0,1,.1-.1l.1-.1h.1l.1.1.4.7V66l-.1.1-.2.1Z" fill="#6bbe66"/><path d="M88.1,65.9c-.1,0-.1,0-.2-.1l-.4-1.3c0-.1,0-.2.1-.2l.1-.1h.1l.1.1.4,1.3v.1l-.1.1c.1,0,0,0-.1.1Z" fill="#6bbe66"/><path d="M89.7,63.6l.2,1.8v.1l-.1.1h-.2a.2151.2151,0,0,1-.2-.2l-.2-1.9.1-.1.2-.1h.1C89.7,63.5,89.7,63.5,89.7,63.6Z" fill="#6bbe66"/><path d="M91,65.9h-.1l-.1-.1v-.1l.4-1.3.1-.1h.2l.1.1c.1,0,.1.1.1.2l-.4,1.3c-.1-.1-.1,0-.3,0Z" fill="#6bbe66"/><path d="M92.6,66.2c-.1,0-.1-.1,0,0l-.2-.1-.1-.1v-.1l.4-.7.1-.1h.1l.1.1c.1,0,.1.1.1.2l-.4.7Z" fill="#6bbe66"/></g></g><g id="heath_bd-27" data-name="heath_bd" style="isolation:isolate"><g id="Heath_FC-27" data-name="Heath_FC"><path d="M77.7,64.6c-.1,0-.1,0-.1-.1l-.4-.7v-.1a.0979.0979,0,0,1,.1-.1l.1-.1h.1l.1.1.4.7v.1l-.1.1-.2.1Z" fill="#6bbe66"/><path d="M79.2,64.3c-.1,0-.1,0-.2-.1l-.4-1.3c0-.1,0-.2.1-.2l.1-.1h.1l.1.1.4,1.3v.1l-.1.1c.1.1,0,.1-.1.1Z" fill="#6bbe66"/><path d="M80.8,62.1l.2,1.8V64l-.1.1h-.2a.2151.2151,0,0,1-.2-.2L80.3,62l.1-.1.2-.1h.1C80.7,61.9,80.8,62,80.8,62.1Z" fill="#6bbe66"/><path d="M82.1,64.3H82l-.1-.1v-.1l.4-1.3.1-.1h.2l.1.1c.1,0,.1.1.1.2l-.4,1.3Z" fill="#6bbe66"/><path d="M83.6,64.6h0l-.2-.1-.1-.1v-.1l.4-.7.1-.1h.1l.1.1c.1,0,.1.1.1.2l-.4.7C83.7,64.6,83.7,64.6,83.6,64.6Z" fill="#6bbe66"/></g></g><g id="heath_bd-28" data-name="heath_bd" style="isolation:isolate"><g id="Heath_FC-28" data-name="Heath_FC"><path d="M55,92.1c-.1,0-.1,0-.1-.1l-.4-.7v-.1a.0979.0979,0,0,1,.1-.1l.1-.1h.1l.1.1.4.7v.1l-.1.1-.2.1Z" fill="#6bbe66"/><path d="M56.5,91.9c-.1,0-.1,0-.2-.1l-.4-1.3c0-.1,0-.2.1-.2l.1-.1h.1l.1.1.4,1.3v.1l-.1.1a.0979.0979,0,0,0-.1.1Z" fill="#6bbe66"/><path d="M58.1,89.6l.2,1.8v.1l-.1.1H58a.2151.2151,0,0,1-.2-.2l-.2-1.9.1-.1.2-.1H58C58,89.5,58,89.5,58.1,89.6Z" fill="#6bbe66"/><path d="M59.3,91.9h-.1l-.1-.1v-.1l.4-1.3.1-.1h.2l.1.1c.1,0,.1.1.1.2l-.4,1.3c-.1-.1-.1,0-.3,0Z" fill="#6bbe66"/><path d="M60.9,92.1h0l-.2-.1h-.1v-.1l.4-.7.1-.1h.1l.1.1c.1,0,.1.1.1.2l-.4.7Z" fill="#6bbe66"/></g></g><g id="heath_bd-29" data-name="heath_bd" style="isolation:isolate"><g id="Heath_FC-29" data-name="Heath_FC"><path d="M60.4,87.6c-.1,0-.1,0-.1-.1l-.4-.7v-.1a.0979.0979,0,0,1,.1-.1l.1-.1h.1l.1.1.4.7v.1l-.1.1-.2.1Z" fill="#6bbe66"/><path d="M61.8,87.3c-.1,0-.1,0-.2-.1l-.4-1.3c0-.1,0-.2.1-.2l.1-.1h.1l.1.1L62,87v.2a.3491.3491,0,0,1-.2.1Z" fill="#6bbe66"/><path d="M63.4,85l.2,1.8v.1l-.1.1h-.2a.2151.2151,0,0,1-.2-.2L62.9,85l.1-.1.2-.1h.1C63.4,84.9,63.4,84.9,63.4,85Z" fill="#6bbe66"/><path d="M64.7,87.3h-.1l-.1-.1v-.1l.4-1.3.1-.1h.2l.1.1c.1,0,.1.1.1.2L65,87.3c-.1-.1-.1,0-.3,0Z" fill="#6bbe66"/><path d="M66.3,87.6h0l-.2-.1-.1-.1v-.1l.4-.7.1-.1h.1l.1.1c.1,0,.1.1.1.2l-.4.7Z" fill="#6bbe66"/></g></g><g id="heath_bd-30" data-name="heath_bd" style="isolation:isolate"><g id="Heath_FC-30" data-name="Heath_FC"><path d="M51.4,86c-.1,0-.1,0-.1-.1l-.4-.7v-.1A.0979.0979,0,0,1,51,85l.1-.1h.1l.1.1.4.7v.1l-.1.1-.2.1Z" fill="#6bbe66"/><path d="M52.9,85.7c-.1,0-.1,0-.2-.1l-.4-1.3c0-.1,0-.2.1-.2l.1-.1h.1l.1.1.4,1.3v.1l-.1.1c0,.1,0,.1-.1.1Z" fill="#6bbe66"/><path d="M54.5,83.5l.2,1.8v.1l-.1.1h-.2a.2151.2151,0,0,1-.2-.2L54,83.5l.1-.1.2-.1h.1A.3491.3491,0,0,1,54.5,83.5Z" fill="#6bbe66"/><path d="M55.8,85.7h-.1l-.1-.1v-.1l.4-1.3.1-.1h.2l.1.1c.1,0,.1.1.1.2L56,85.6c0,.1-.1.1-.2.1Z" fill="#6bbe66"/><path d="M57.3,86h0l-.2-.1-.1-.1v-.1l.4-.7.1-.1h.1l.1.1c.1,0,.1.1.1.2l-.4.7C57.4,86,57.4,86,57.3,86Z" fill="#6bbe66"/></g></g><g id="heath_bd-31" data-name="heath_bd" style="isolation:isolate"><g id="Heath_FC-31" data-name="Heath_FC"><path d="M7,95c-.1,0-.1,0-.1-.1l-.4-.7v-.1a.0979.0979,0,0,1,.1-.1h.2l.4.7v.1l-.1.1L7,95Z" fill="#6bbe66"/><path d="M8.5,94.7c-.1,0-.1,0-.2-.1l-.4-1.3c0-.1,0-.2.1-.2l.1-.1h.1l.1.1.4,1.3v.1l-.1.1c0,.1,0,.1-.1.1Z" fill="#6bbe66"/><path d="M10.1,92.5l.2,1.8v.1l-.1.1H10a.2151.2151,0,0,1-.2-.2l-.2-1.9.1-.1.2-.1H10A.3674.3674,0,0,0,10.1,92.5Z" fill="#6bbe66"/><path d="M11.3,94.7h-.1l-.1-.1v-.1l.4-1.3.1-.1h.3l.1.1c.1,0,.1.1.1.2l-.4,1.3Z" fill="#6bbe66"/><path d="M12.9,95h0l-.2-.1-.1-.1v-.1L13,94l.1-.1h.1l.1.1c.1,0,.1.1.1.2l-.4.7A.0979.0979,0,0,1,12.9,95Z" fill="#6bbe66"/></g></g><g id="heath_bd-32" data-name="heath_bd" style="isolation:isolate"><g id="Heath_FC-32" data-name="Heath_FC"><path d="M12.4,90.4c-.1,0-.1,0-.1-.1l-.4-.7v-.1a.0979.0979,0,0,1,.1-.1l.1-.1h.1l.1.1.4.7v.1l-.1.1-.2.1Z" fill="#6bbe66"/><path d="M13.8,90.1c-.1,0-.1,0-.2-.1l-.4-1.3c0-.1,0-.2.1-.2l.1-.1h.1l.1.1.4,1.3v.3Z" fill="#6bbe66"/><path d="M15.4,87.9l.2,1.8v.1l-.1.1h-.2a.2151.2151,0,0,1-.2-.2l-.2-1.9.1-.1.2-.1h.1A.3674.3674,0,0,1,15.4,87.9Z" fill="#6bbe66"/><path d="M16.7,90.1h-.1l-.1-.1v-.1l.4-1.3.1-.1h.3l.1.1c.1,0,.1.1.1.2L16.9,90c0,.1,0,.1-.2.1Z" fill="#6bbe66"/><path d="M18.3,90.4h0l-.2-.1-.1-.1v-.1l.4-.7.1-.1h.1l.1.1c.1,0,.1.1.1.2l-.4.7A.0979.0979,0,0,1,18.3,90.4Z" fill="#6bbe66"/></g></g><g id="heath_bd-33" data-name="heath_bd" style="isolation:isolate"><g id="Heath_FC-33" data-name="Heath_FC"><path d="M3.4,88.9c-.1,0-.1,0-.1-.1l-.4-.7V88a.0979.0979,0,0,1,.1-.1l.1-.1h.1l.1.1.4.7v.1l-.1.1-.2.1Z" fill="#6bbe66"/><path d="M4.9,88.6c-.1,0-.1,0-.2-.1l-.4-1.3c0-.1,0-.2.1-.2l.1-.1h.1l.2.1.4,1.3v.1l-.1.1c-.1.1-.1.1-.2.1Z" fill="#6bbe66"/><path d="M6.5,86.3l.2,1.8v.1l-.1.1H6.4a.2151.2151,0,0,1-.2-.2L6,86.4v-.2l.2-.1h.1Z" fill="#6bbe66"/><path d="M7.8,88.6H7.7l-.1-.1v-.1L8,87v-.1h.3l.1.1c.1,0,.1.1.1.2L8,88.5a.3491.3491,0,0,1-.2.1Z" fill="#6bbe66"/><path d="M9.3,88.9h0l-.2-.1L9,88.7v-.1l.4-.7.1-.1h.1l.1.1c.1,0,.1.1.1.2l-.4.7A.0979.0979,0,0,1,9.3,88.9Z" fill="#6bbe66"/></g></g></svg>