<svg id="Layer_1" data-name="Layer 1" xmlns="http://www.w3.org/2000/svg" width="33.8667mm" height="33.8667mm" viewBox="0 0 96 96"><g id="scrub_bd"><g id="Scrub_FC"><g id="Deleted_Symbol_1" data-name="Deleted Symbol 1"><path d="M13.1,79.8c-.1,0-.1,0-.1-.1l-.3-1c0-.1,0-.1.1-.2l.2-.1h.1a.0979.0979,0,0,1,.1.1l.3,1c0,.1,0,.1-.1.2a.438.438,0,0,0-.3.1Z" fill="#6bbe66"/><path d="M14.9,79.5a.0979.0979,0,0,1-.1-.1V78.3h-.1a.31.31,0,0,0-.2.1h-.1c-.1,0-.1,0-.1-.1l-.1-.1V78c.2-.1.3-.2.5-.2a.52.52,0,0,1,.4.2.6012.6012,0,0,1,.1.4v1a.0979.0979,0,0,1-.1.1Z" fill="#6bbe66"/><path d="M19.2,79.7H19c-.1,0-.1-.1-.1-.2l.3-1a.0979.0979,0,0,1,.1-.1h.3c.1,0,.1.1.1.2l-.3,1a.3491.3491,0,0,0-.2.1Z" fill="#6bbe66"/><path d="M17,79.4a.3674.3674,0,0,1-.3-.1A7.8942,7.8942,0,0,0,16,77a.3491.3491,0,0,0-.1-.2c.1,0,.2.1.3.1,0,0,.4.2.6,1.2l.1.2c0-.1.1-2.1.8-2.4a.3491.3491,0,0,0,.2-.1.31.31,0,0,1-.1.2,3.5548,3.5548,0,0,0-.4,1.6v.2a1.3807,1.3807,0,0,1,.9-.7h.1s0,.1-.2.2a6.69,6.69,0,0,0-.9,1.5v.5A.3674.3674,0,0,1,17,79.4Z" fill="#6bbe66"/></g></g></g><g id="coniferoustree_bd"><g id="ConiferousTree_FC"><g id="Deleted_Symbol" data-name="Deleted Symbol"><path d="M23.2,75.7c-.8-.1-1.6-1.5-1.6-1.5l.1,2.2c-.1.3-.6.1-.6.1v-2a3.6592,3.6592,0,0,1-1.6,1.4c-.3,0-.1-.2-.1-.2a6.7618,6.7618,0,0,0,1.6-2,4.8858,4.8858,0,0,0,.1-1.6c-.7,1-1.2,1.1-1.2,1.1h-.2c-.1-.1.1-.3.1-.3a1.7556,1.7556,0,0,1,.5-.4h0a2.722,2.722,0,0,0,.8-1.2l.2-1s0-.1.1,0l.1,1.1A9.19,9.19,0,0,0,22.7,73c.1.1-.1.1-.1.1-.6-.1-1.1-.9-1.1-.9l.1,1.7a5.7617,5.7617,0,0,0,1.6,1.6C23.6,75.5,23.2,75.7,23.2,75.7ZM20,72.8h0C19.9,72.9,19.9,72.8,20,72.8Zm.1-.1c-.1.1-.1.1-.2.1A.3491.3491,0,0,0,20.1,72.7Zm.2-.2-.1.1Zm.1-.1-.1.1Zm0,0Zm.1-.1Z" fill="#6bbe66"/></g></g></g><g id="coniferoustree_bd-2" data-name="coniferoustree_bd" style="isolation:isolate"><g id="ConiferousTree_FC-2" data-name="ConiferousTree_FC"><g id="Deleted_Symbol-2" data-name="Deleted Symbol"><path d="M14.5,74.2c-.8-.1-1.6-1.5-1.6-1.5l.1,2.2c-.1.3-.6.1-.6.1V73a3.6592,3.6592,0,0,1-1.6,1.4c-.3,0-.1-.2-.1-.2a6.7618,6.7618,0,0,0,1.6-2,4.8858,4.8858,0,0,0,.1-1.6c-.7,1-1.2,1.1-1.2,1.1H11c-.1-.1.1-.3.1-.3a1.7556,1.7556,0,0,1,.5-.4h0a2.722,2.722,0,0,0,.8-1.2l.2-1s0-.1.1,0l.1,1.1A9.19,9.19,0,0,0,14,71.5c.1.1-.1.1-.1.1-.6-.1-1.1-.9-1.1-.9l.1,1.7A5.7617,5.7617,0,0,0,14.5,74C14.8,74,14.5,74.2,14.5,74.2Zm-3.3-2.9Zm.2-.1c-.1.1-.1.1-.2.1C11.3,71.3,11.3,71.2,11.4,71.2Zm.1-.2-.1.1A.0979.0979,0,0,0,11.5,71Zm.1-.1-.1.1A.0979.0979,0,0,0,11.6,70.9Zm0,0Zm.1-.1Z" fill="#6bbe66"/></g></g></g><g id="scrub_bd-2" data-name="scrub_bd" style="isolation:isolate"><g id="Scrub_FC-2" data-name="Scrub_FC"><g id="Deleted_Symbol_1-2" data-name="Deleted Symbol 1"><path d="M49.1,69.3c-.1,0-.1,0-.1-.1l-.3-1c0-.1,0-.1.1-.2l.2-.1h.1a.0979.0979,0,0,1,.1.1l.3,1c0,.1,0,.1-.1.2a.774.774,0,0,1-.3.1Z" fill="#6bbe66"/><path d="M50.9,69.1a.0979.0979,0,0,1-.1-.1V67.9h-.1a.31.31,0,0,0-.2.1h-.1c-.1,0-.1,0-.1-.1l-.1-.1v-.2c.2-.1.3-.2.5-.2a.52.52,0,0,1,.4.2.6012.6012,0,0,1,.1.4v1a.0979.0979,0,0,1-.1.1Z" fill="#6bbe66"/><path d="M55.2,69.2H55c-.1,0-.1-.1-.1-.2l.3-1a.0979.0979,0,0,1,.1-.1h.3c.1,0,.1.1.1.2l-.3,1a.31.31,0,0,1-.2.1Z" fill="#6bbe66"/><path d="M53,69a.3674.3674,0,0,1-.3-.1,7.8942,7.8942,0,0,0-.7-2.3.3491.3491,0,0,0-.1-.2c.1,0,.2.1.3.1,0,0,.4.2.6,1.2l.1.2c0-.1.1-2.1.8-2.4a.3491.3491,0,0,0,.2-.1.31.31,0,0,1-.1.2,3.5548,3.5548,0,0,0-.4,1.6v.2a1.3807,1.3807,0,0,1,.9-.7h.1s0,.1-.2.2a6.69,6.69,0,0,0-.9,1.5v.5C53.2,68.9,53.1,69,53,69Z" fill="#6bbe66"/></g></g></g><g id="coniferoustree_bd-3" data-name="coniferoustree_bd" style="isolation:isolate"><g id="ConiferousTree_FC-3" data-name="ConiferousTree_FC"><g id="Deleted_Symbol-3" data-name="Deleted Symbol"><path d="M59.2,65.3c-.8-.1-1.6-1.5-1.6-1.5l.1,2.2c-.1.3-.6.1-.6.1v-2a3.6592,3.6592,0,0,1-1.6,1.4c-.3,0-.1-.2-.1-.2a6.7618,6.7618,0,0,0,1.6-2,4.8858,4.8858,0,0,0,.1-1.6c-.7,1-1.2,1.1-1.2,1.1h-.2c-.1-.1.1-.3.1-.3a1.7556,1.7556,0,0,1,.5-.4h0a2.722,2.722,0,0,0,.8-1.2l.2-1s0-.1.1,0l.1,1.1a9.19,9.19,0,0,0,1.2,1.6c.1.1-.1.1-.1.1-.6-.1-1.1-.9-1.1-.9l.1,1.7a5.7617,5.7617,0,0,0,1.6,1.6C59.6,65.1,59.2,65.3,59.2,65.3ZM56,62.4Zm.1-.2c-.1.1-.1.1-.2.1C56,62.3,56.1,62.3,56.1,62.2Zm.2-.1-.1.1A.0979.0979,0,0,1,56.3,62.1Zm.1-.1-.1.1A.0979.0979,0,0,1,56.4,62Zm0,0Zm.1-.1Z" fill="#6bbe66"/></g></g></g><g id="coniferoustree_bd-4" data-name="coniferoustree_bd" style="isolation:isolate"><g id="ConiferousTree_FC-4" data-name="ConiferousTree_FC"><g id="Deleted_Symbol-4" data-name="Deleted Symbol"><path d="M50.5,63.7c-.8-.1-1.6-1.5-1.6-1.5l.1,2.2c-.1.3-.6.1-.6.1v-2a3.6592,3.6592,0,0,1-1.6,1.4c-.3,0-.1-.2-.1-.2a6.7618,6.7618,0,0,0,1.6-2,4.8858,4.8858,0,0,0,.1-1.6c-.7,1-1.2,1.1-1.2,1.1H47c-.1-.1.1-.3.1-.3a1.7556,1.7556,0,0,1,.5-.4h0a2.722,2.722,0,0,0,.8-1.2l.2-1s0-.1.1,0l.1,1.1A9.19,9.19,0,0,0,50,61c.1.1-.1.1-.1.1-.6-.1-1.1-.9-1.1-.9l.1,1.7a5.7617,5.7617,0,0,0,1.6,1.6C50.8,63.5,50.5,63.7,50.5,63.7Zm-3.3-2.8Zm.2-.2c-.1.1-.1.1-.2.1C47.3,60.8,47.3,60.8,47.4,60.7Zm.1-.1-.1.1Zm.1-.1-.1.1A.0979.0979,0,0,1,47.6,60.5Zm0,0Zm.1-.1Z" fill="#6bbe66"/></g></g></g><g id="scrub_bd-3" data-name="scrub_bd" style="isolation:isolate"><g id="Scrub_FC-3" data-name="Scrub_FC"><g id="Deleted_Symbol_1-3" data-name="Deleted Symbol 1"><path d="M8.7,52.1c-.1,0-.1,0-.1-.1l-.3-1c0-.1,0-.1.1-.2l.2-.1h.1a.0979.0979,0,0,1,.1.1l.3,1c0,.1,0,.1-.1.2-.2.1-.2.1-.3.1Z" fill="#6bbe66"/><path d="M10.5,51.9a.0979.0979,0,0,1-.1-.1V50.7h-.1a.31.31,0,0,0-.2.1H10c-.1,0-.1,0-.1-.1l-.1-.1v-.2c.2-.1.3-.2.5-.2a.52.52,0,0,1,.4.2.6012.6012,0,0,1,.1.4v1a.0979.0979,0,0,1-.1.1Z" fill="#6bbe66"/><path d="M14.8,52h-.2c-.1,0-.1-.1-.1-.2l.3-1a.0979.0979,0,0,1,.1-.1h.3c.1,0,.1.1.1.2l-.3,1c-.1.1-.1.1-.2.1Z" fill="#6bbe66"/><path d="M12.6,51.8a.3674.3674,0,0,1-.3-.1,7.8942,7.8942,0,0,0-.7-2.3.3491.3491,0,0,0-.1-.2c.1,0,.2.1.3.1,0,0,.4.2.6,1.2l.1.2c0-.1.1-2.1.8-2.4a.3491.3491,0,0,0,.2-.1.31.31,0,0,1-.1.2A3.5548,3.5548,0,0,0,13,50v.2a1.3807,1.3807,0,0,1,.9-.7H14s0,.1-.2.2a6.69,6.69,0,0,0-.9,1.5v.5A.3674.3674,0,0,1,12.6,51.8Z" fill="#6bbe66"/></g></g></g><g id="coniferoustree_bd-5" data-name="coniferoustree_bd" style="isolation:isolate"><g id="ConiferousTree_FC-5" data-name="ConiferousTree_FC"><g id="Deleted_Symbol-5" data-name="Deleted Symbol"><path d="M18.9,48.1c-.8-.1-1.6-1.5-1.6-1.5l.1,2.2c-.1.3-.6.1-.6.1v-2a3.6592,3.6592,0,0,1-1.6,1.4c-.3,0-.1-.2-.1-.2a6.7618,6.7618,0,0,0,1.6-2,4.8858,4.8858,0,0,0,.1-1.6c-.7,1-1.2,1.1-1.2,1.1h-.2c-.1-.1.1-.3.1-.3a1.7556,1.7556,0,0,1,.5-.4h0a2.722,2.722,0,0,0,.8-1.2l.2-1s0-.1.1,0l.1,1.1a9.19,9.19,0,0,0,1.2,1.6c.1.1-.1.1-.1.1-.6-.1-1.1-.9-1.1-.9l.1,1.7a5.7617,5.7617,0,0,0,1.6,1.6C19.2,47.9,18.9,48.1,18.9,48.1Zm-3.3-2.9Zm.2-.2c-.1.1-.1.1-.2.1C15.7,45.1,15.7,45.1,15.8,45Zm.1-.1-.1.1Zm.1-.1-.1.1Zm0,0Zm.1-.1Z" fill="#6bbe66"/></g></g></g><g id="scrub_bd-4" data-name="scrub_bd" style="isolation:isolate"><g id="Scrub_FC-4" data-name="Scrub_FC"><g id="Deleted_Symbol_1-4" data-name="Deleted Symbol 1"><path d="M5.2,46.1c-.1,0-.1,0-.1-.1l-.3-1c0-.1,0-.1.1-.2l.2-.1h.1a.0979.0979,0,0,1,.1.1l.3,1c0,.1,0,.1-.1.2a.3674.3674,0,0,1-.3.1Z" fill="#6bbe66"/><path d="M7.1,45.9a.0979.0979,0,0,1-.1-.1V44.7H6.9a.31.31,0,0,0-.2.1H6.6c-.1,0-.1,0-.1-.1l-.1-.1v-.2c.2-.1.3-.2.5-.2a.52.52,0,0,1,.4.2.6012.6012,0,0,1,.1.4v1a.0979.0979,0,0,1-.1.1Z" fill="#6bbe66"/><path d="M11.3,46h-.2c-.1,0-.1-.1-.1-.2l.3-1a.0979.0979,0,0,1,.1-.1h.3c.1,0,.1.1.1.2l-.3,1c-.1.1-.1.1-.2.1Z" fill="#6bbe66"/><path d="M9.1,45.8a.3674.3674,0,0,1-.3-.1,7.8942,7.8942,0,0,0-.7-2.3.3491.3491,0,0,0-.1-.2c.1,0,.2.1.3.1,0,0,.4.2.6,1.2l.1.2c0-.1.1-2.1.8-2.4a.3491.3491,0,0,0,.2-.1.31.31,0,0,1-.1.2A3.5548,3.5548,0,0,0,9.5,44v.2a1.3807,1.3807,0,0,1,.9-.7h.1s0,.1-.2.2a6.69,6.69,0,0,0-.9,1.5v.5C9.3,45.7,9.3,45.8,9.1,45.8Z" fill="#6bbe66"/></g></g></g><g id="scrub_bd-5" data-name="scrub_bd" style="isolation:isolate"><g id="Scrub_FC-5" data-name="Scrub_FC"><g id="Deleted_Symbol_1-5" data-name="Deleted Symbol 1"><path d="M17.4,31.5c-.1,0-.1,0-.1-.1l-.3-1c0-.1,0-.1.1-.2l.2-.1h.1a.0979.0979,0,0,1,.1.1l.3,1c0,.1,0,.1-.1.2-.2.1-.2.1-.3.1Z" fill="#6bbe66"/><path d="M19.2,31.3a.0979.0979,0,0,1-.1-.1V30.1H19a.31.31,0,0,0-.2.1h-.1c-.1,0-.1,0-.1-.1l-.1-.1v-.2c.2-.1.3-.2.5-.2a.52.52,0,0,1,.4.2.6012.6012,0,0,1,.1.4v1a.0979.0979,0,0,1-.1.1Z" fill="#6bbe66"/><path d="M23.5,31.4h-.2c-.1,0-.1-.1-.1-.2l.3-1a.0979.0979,0,0,1,.1-.1h.3c.1,0,.1.1.1.2l-.3,1c-.1.1-.1.1-.2.1Z" fill="#6bbe66"/><path d="M21.3,31.2a.3674.3674,0,0,1-.3-.1,7.8942,7.8942,0,0,0-.7-2.3.3491.3491,0,0,0-.1-.2c.1,0,.2.1.3.1,0,0,.4.2.6,1.2l.1.2c0-.1.1-2.1.8-2.4a.3491.3491,0,0,0,.2-.1.31.31,0,0,1-.1.2,3.5548,3.5548,0,0,0-.4,1.6v.2a1.3807,1.3807,0,0,1,.9-.7h.1s0,.1-.2.2a6.69,6.69,0,0,0-.9,1.5v.5C21.5,31.1,21.4,31.2,21.3,31.2Z" fill="#6bbe66"/></g></g></g><g id="coniferoustree_bd-6" data-name="coniferoustree_bd" style="isolation:isolate"><g id="ConiferousTree_FC-6" data-name="ConiferousTree_FC"><g id="Deleted_Symbol-6" data-name="Deleted Symbol"><path d="M27.6,27.4c-.8-.1-1.6-1.5-1.6-1.5l.1,2.2c-.1.3-.6.1-.6.1v-2a3.6592,3.6592,0,0,1-1.6,1.4c-.3,0-.1-.2-.1-.2a6.7618,6.7618,0,0,0,1.6-2,4.8858,4.8858,0,0,0,.1-1.6c-.7,1-1.2,1.1-1.2,1.1h-.2c-.1-.1.1-.3.1-.3a1.7556,1.7556,0,0,1,.5-.4h0a2.722,2.722,0,0,0,.8-1.2l.2-1s0-.1.1,0l.1,1.1a9.19,9.19,0,0,0,1.2,1.6c.1.1-.1.1-.1.1-.6-.1-1.1-.9-1.1-.9l.1,1.7a5.7617,5.7617,0,0,0,1.6,1.6C27.9,27.3,27.6,27.4,27.6,27.4Zm-3.3-2.8Zm.1-.2c-.1.1-.1.1-.2.1C24.3,24.5,24.4,24.5,24.4,24.4Zm.2-.1-.1.1A.0979.0979,0,0,1,24.6,24.3Zm.1-.1-.1.1Zm0,0Zm.1-.1Z" fill="#6bbe66"/></g></g></g><g id="coniferoustree_bd-7" data-name="coniferoustree_bd" style="isolation:isolate"><g id="ConiferousTree_FC-7" data-name="ConiferousTree_FC"><g id="Deleted_Symbol-7" data-name="Deleted Symbol"><path d="M18.8,25.9c-.8-.1-1.6-1.5-1.6-1.5l.1,2.2c-.1.3-.6.1-.6.1v-2a3.6592,3.6592,0,0,1-1.6,1.4c-.3,0-.1-.2-.1-.2a6.7618,6.7618,0,0,0,1.6-2,4.8858,4.8858,0,0,0,.1-1.6c-.7,1-1.2,1.1-1.2,1.1h-.2c-.1-.1.1-.3.1-.3a1.7556,1.7556,0,0,1,.5-.4h0a2.722,2.722,0,0,0,.8-1.2l.2-1s0-.1.1,0l.1,1.1a9.19,9.19,0,0,0,1.2,1.6c.1.1-.1.1-.1.1-.6-.1-1.1-.9-1.1-.9l.1,1.7a5.7617,5.7617,0,0,0,1.6,1.6C19.1,25.7,18.8,25.9,18.8,25.9Zm-3.3-2.8Zm.2-.2c-.1.1-.1.1-.2.1C15.6,23,15.6,23,15.7,22.9Zm.1-.1-.1.1Zm.1-.1-.1.1Zm0,0Zm.2-.1Z" fill="#6bbe66"/></g></g></g><g id="scrub_bd-6" data-name="scrub_bd" style="isolation:isolate"><g id="Scrub_FC-6" data-name="Scrub_FC"><g id="Deleted_Symbol_1-6" data-name="Deleted Symbol 1"><path d="M47.7,12.1c-.1,0-.1,0-.1-.1l-.3-1c0-.1,0-.1.1-.2l.2-.1h.1a.0979.0979,0,0,1,.1.1l.3,1c0,.1,0,.1-.1.2a.774.774,0,0,1-.3.1Z" fill="#6bbe66"/><path d="M49.5,11.9a.0979.0979,0,0,1-.1-.1V10.7h-.1a.31.31,0,0,0-.2.1H49c-.1,0-.1,0-.1-.1l-.1-.1v-.2c.2-.1.3-.2.5-.2a.52.52,0,0,1,.4.2.6012.6012,0,0,1,.1.4v1a.0979.0979,0,0,1-.1.1Z" fill="#6bbe66"/><path d="M53.7,12h-.2c-.1,0-.1-.1-.1-.2l.3-1a.0979.0979,0,0,1,.1-.1h.3c.1,0,.1.1.1.2l-.3,1c0,.1-.1.1-.2.1Z" fill="#6bbe66"/><path d="M51.6,11.8a.3674.3674,0,0,1-.3-.1,7.8942,7.8942,0,0,0-.7-2.3.3491.3491,0,0,0-.1-.2c.1,0,.2.1.3.1,0,0,.4.2.6,1.2l.1.2c0-.1.1-2.1.8-2.4a.3491.3491,0,0,0,.2-.1.31.31,0,0,1-.1.2A3.5548,3.5548,0,0,0,52,10v.2a1.3807,1.3807,0,0,1,.9-.7H53s0,.1-.2.2a6.69,6.69,0,0,0-.9,1.5v.5A.3674.3674,0,0,1,51.6,11.8Z" fill="#6bbe66"/></g></g></g><g id="coniferoustree_bd-8" data-name="coniferoustree_bd" style="isolation:isolate"><g id="ConiferousTree_FC-8" data-name="ConiferousTree_FC"><g id="Deleted_Symbol-8" data-name="Deleted Symbol"><path d="M57.8,8.1C57,8,56.2,6.6,56.2,6.6l.1,2.2c-.1.3-.6.1-.6.1v-2a3.6592,3.6592,0,0,1-1.6,1.4c-.3,0-.1-.2-.1-.2a6.7618,6.7618,0,0,0,1.6-2,4.8858,4.8858,0,0,0,.1-1.6c-.7,1-1.2,1.1-1.2,1.1h-.2c-.1-.1.1-.3.1-.3a1.7556,1.7556,0,0,1,.5-.4h0a2.722,2.722,0,0,0,.8-1.2l.2-1s0-.1.1,0l.1,1.1a9.19,9.19,0,0,0,1.2,1.6c.1.1-.1.1-.1.1-.6-.1-1.1-.9-1.1-.9l.1,1.7a5.7617,5.7617,0,0,0,1.6,1.6C58.2,7.9,57.8,8.1,57.8,8.1ZM54.6,5.2Zm.1-.1c-.1.1-.1.1-.2.1A.31.31,0,0,1,54.7,5.1Zm.1-.2-.1.1C54.8,5,54.8,5,54.8,4.9Zm.2-.1-.1.1Zm0,0Zm.1-.1Z" fill="#6bbe66"/></g></g></g><g id="coniferoustree_bd-9" data-name="coniferoustree_bd" style="isolation:isolate"><g id="ConiferousTree_FC-9" data-name="ConiferousTree_FC"><g id="Deleted_Symbol-9" data-name="Deleted Symbol"><path d="M49.1,6.6c-.8-.1-1.6-1.5-1.6-1.5l.1,2.2c-.1.3-.6.1-.6.1v-2a3.6592,3.6592,0,0,1-1.6,1.4c-.3,0-.1-.2-.1-.2a6.7618,6.7618,0,0,0,1.6-2A5.536,5.536,0,0,0,47,2.9c-.7,1-1.2,1.1-1.2,1.1h-.2c-.1-.1.1-.3.1-.3a1.7556,1.7556,0,0,1,.5-.4h0A2.722,2.722,0,0,0,47,2.1l.2-1s0-.1.1,0l.1,1.1a9.19,9.19,0,0,0,1.2,1.6c.1.1-.1.1-.1.1-.6-.1-1.1-.9-1.1-.9l.1,1.7a5.7617,5.7617,0,0,0,1.6,1.6C49.4,6.4,49.1,6.6,49.1,6.6ZM45.8,3.7Zm.2-.2c-.1.1-.1.1-.2.1C45.9,3.6,45.9,3.6,46,3.5Zm.1-.1-.1.1Zm.1-.1-.1.1Zm0,0Zm.1-.1Z" fill="#6bbe66"/></g></g></g><g id="scrub_bd-7" data-name="scrub_bd" style="isolation:isolate"><g id="Scrub_FC-7" data-name="Scrub_FC"><g id="Deleted_Symbol_1-7" data-name="Deleted Symbol 1"><path d="M69.8,28.1c-.1,0-.1,0-.1-.1l-.3-1c0-.1,0-.1.1-.2l.2-.1h.1a.0979.0979,0,0,1,.1.1l.3,1c0,.1,0,.1-.1.2-.2.1-.2.1-.3.1Z" fill="#6bbe66"/><path d="M71.6,27.8a.0979.0979,0,0,1-.1-.1V26.6h-.1a.31.31,0,0,0-.2.1h-.1c-.1,0-.1,0-.1-.1l-.1-.1v-.2c.2-.1.3-.2.5-.2a.52.52,0,0,1,.4.2.6012.6012,0,0,1,.1.4v1a.0979.0979,0,0,1-.1.1Z" fill="#6bbe66"/><path d="M75.9,28h-.2c-.1,0-.1-.1-.1-.2l.3-1a.0979.0979,0,0,1,.1-.1h.3c.1,0,.1.1.1.2l-.3,1c-.1,0-.1.1-.2.1Z" fill="#6bbe66"/><path d="M73.7,27.8a.3674.3674,0,0,1-.3-.1,7.8942,7.8942,0,0,0-.7-2.3.3491.3491,0,0,0-.1-.2c.1,0,.2.1.3.1,0,0,.4.2.6,1.2l.1.2c0-.1.1-2.1.8-2.4a.3491.3491,0,0,0,.2-.1.31.31,0,0,1-.1.2,3.5548,3.5548,0,0,0-.4,1.6v.2a1.3807,1.3807,0,0,1,.9-.7h.1s0,.1-.2.2a6.69,6.69,0,0,0-.9,1.5v.5C73.9,27.7,73.8,27.8,73.7,27.8Z" fill="#6bbe66"/></g></g></g><g id="coniferoustree_bd-10" data-name="coniferoustree_bd" style="isolation:isolate"><g id="ConiferousTree_FC-10" data-name="ConiferousTree_FC"><g id="Deleted_Symbol-10" data-name="Deleted Symbol"><path d="M80,24c-.8-.1-1.6-1.5-1.6-1.5l.1,2.2c-.1.3-.6.1-.6.1v-2a3.6592,3.6592,0,0,1-1.6,1.4c-.3,0-.1-.2-.1-.2a6.7618,6.7618,0,0,0,1.6-2,4.8858,4.8858,0,0,0,.1-1.6c-.7,1-1.2,1.1-1.2,1.1h-.2c-.1-.1.1-.3.1-.3a1.7556,1.7556,0,0,1,.5-.4h0a2.722,2.722,0,0,0,.8-1.2l.2-1s0-.1.1,0l.1,1.1a9.19,9.19,0,0,0,1.2,1.6c.1.1-.1.1-.1.1-.6-.1-1.1-.9-1.1-.9l.1,1.7A5.7617,5.7617,0,0,0,80,23.8C80.3,23.8,80,24,80,24Zm-3.3-2.9Zm.2-.1c-.1.1-.1.1-.2.1C76.8,21.1,76.8,21,76.9,21Zm.1-.1-.1.1C76.9,20.9,76.9,20.9,77,20.9Zm.1-.1-.1.1A.0979.0979,0,0,1,77.1,20.8Zm0,0Zm.1-.2Z" fill="#6bbe66"/></g></g></g><g id="scrub_bd-8" data-name="scrub_bd" style="isolation:isolate"><g id="Scrub_FC-8" data-name="Scrub_FC"><g id="Deleted_Symbol_1-8" data-name="Deleted Symbol 1"><path d="M66.4,22.1c-.1,0-.1,0-.1-.1L66,21c0-.1,0-.1.1-.2l.2-.1h.1a.0979.0979,0,0,1,.1.1l.3,1c0,.1,0,.1-.1.2a.438.438,0,0,0-.3.1Z" fill="#6bbe66"/><path d="M68.2,21.8a.0979.0979,0,0,1-.1-.1V20.6H68a.31.31,0,0,0-.2.1h-.1c-.1,0-.1,0-.1-.1l-.1-.1v-.2c.2-.1.3-.2.5-.2a.52.52,0,0,1,.4.2.6012.6012,0,0,1,.1.4v1a.0979.0979,0,0,1-.1.1Z" fill="#6bbe66"/><path d="M72.4,22h-.2c-.1,0-.1-.1-.1-.2l.3-1a.0979.0979,0,0,1,.1-.1h.3c.1,0,.1.1.1.2l-.3,1c-.1,0-.1.1-.2.1Z" fill="#6bbe66"/><path d="M70.2,21.7a.3674.3674,0,0,1-.3-.1,7.8942,7.8942,0,0,0-.7-2.3.3491.3491,0,0,0-.1-.2c.1,0,.2.1.3.1,0,0,.4.2.6,1.2l.1.2c0-.1.1-2.1.8-2.4a.3491.3491,0,0,0,.2-.1.31.31,0,0,1-.1.2,3.5548,3.5548,0,0,0-.4,1.6v.2a1.3807,1.3807,0,0,1,.9-.7h.1s0,.1-.2.2a6.69,6.69,0,0,0-.9,1.5v.5C70.4,21.7,70.4,21.7,70.2,21.7Z" fill="#6bbe66"/></g></g></g><g id="scrub_bd-9" data-name="scrub_bd" style="isolation:isolate"><g id="Scrub_FC-9" data-name="Scrub_FC"><g id="Deleted_Symbol_1-9" data-name="Deleted Symbol 1"><path d="M80.7,11.5c-.1,0-.1,0-.1-.1l-.3-1c0-.1,0-.1.1-.2l.2-.1h.1a.0979.0979,0,0,1,.1.1l.3,1c0,.1,0,.1-.1.2a.3674.3674,0,0,1-.3.1Z" fill="#6bbe66"/><path d="M82.6,11.2a.0979.0979,0,0,1-.1-.1V10h-.1a.31.31,0,0,0-.2.1h-.1c-.1,0-.1,0-.1-.1l-.1-.1V9.7c.2-.1.3-.2.5-.2a.52.52,0,0,1,.4.2.6012.6012,0,0,1,.1.4v1a.0979.0979,0,0,1-.1.1Z" fill="#6bbe66"/><path d="M86.8,11.4h-.2c-.1,0-.1-.1-.1-.2l.3-1a.0979.0979,0,0,1,.1-.1h.3c.1,0,.1.1.1.2l-.3,1c-.1,0-.1.1-.2.1Z" fill="#6bbe66"/><path d="M84.6,11.2a.3674.3674,0,0,1-.3-.1,7.8942,7.8942,0,0,0-.7-2.3.3491.3491,0,0,0-.1-.2c.1,0,.2.1.3.1,0,0,.4.2.6,1.2l.1.2c0-.1.1-2.1.8-2.4a.3491.3491,0,0,0,.2-.1.31.31,0,0,1-.1.2A3.5548,3.5548,0,0,0,85,9.4v.2a1.3807,1.3807,0,0,1,.9-.7H86s0,.1-.2.2a6.69,6.69,0,0,0-.9,1.5v.5C84.8,11.1,84.7,11.2,84.6,11.2Z" fill="#6bbe66"/></g></g></g><g id="coniferoustree_bd-11" data-name="coniferoustree_bd" style="isolation:isolate"><g id="ConiferousTree_FC-11" data-name="ConiferousTree_FC"><g id="Deleted_Symbol-11" data-name="Deleted Symbol"><path d="M90.9,7.4c-.8-.1-1.6-1.5-1.6-1.5l.1,2.2c-.1.3-.6.1-.6.1v-2a3.6592,3.6592,0,0,1-1.6,1.4c-.3,0-.1-.2-.1-.2a6.7618,6.7618,0,0,0,1.6-2,4.8858,4.8858,0,0,0,.1-1.6c-.7,1-1.2,1.1-1.2,1.1h-.2c-.1-.1.1-.3.1-.3a1.7556,1.7556,0,0,1,.5-.4h0A2.722,2.722,0,0,0,88.8,3L89,2s0-.1.1,0l.1,1a9.19,9.19,0,0,0,1.2,1.6c.1.1-.1.1-.1.1-.6-.1-1.1-.9-1.1-.9l.1,1.7A6.6234,6.6234,0,0,0,90.9,7C91.2,7.2,90.9,7.4,90.9,7.4ZM87.6,4.5Zm.2-.1c-.1.1-.1.1-.2.1C87.7,4.5,87.7,4.4,87.8,4.4Zm.1-.1-.1.1A.0979.0979,0,0,1,87.9,4.3Zm.1-.1-.1.1A.0979.0979,0,0,1,88,4.2Zm0,0Zm.1-.2Z" fill="#6bbe66"/></g></g></g><g id="scrub_bd-10" data-name="scrub_bd" style="isolation:isolate"><g id="Scrub_FC-10" data-name="Scrub_FC"><g id="Deleted_Symbol_1-10" data-name="Deleted Symbol 1"><path d="M77.3,5.5c-.1,0-.1,0-.1-.1l-.3-1c0-.1,0-.1.1-.2l.2-.1h.1a.0979.0979,0,0,1,.1.1l.3,1c0,.1,0,.1-.1.2a.438.438,0,0,0-.3.1Z" fill="#6bbe66"/><path d="M79.1,5.2a.0979.0979,0,0,1-.1-.1V4h-.1a.31.31,0,0,0-.2.1h-.1c-.1,0-.1,0-.1-.1l-.1-.1V3.7c.2-.1.3-.2.5-.2a.52.52,0,0,1,.4.2.6012.6012,0,0,1,.1.4v1a.0979.0979,0,0,1-.1.1Z" fill="#6bbe66"/><path d="M83.3,5.4h-.2c-.1,0-.1-.1-.1-.2l.3-1a.0979.0979,0,0,1,.1-.1h.3c.1,0,.1.1.1.2l-.3,1a.3491.3491,0,0,1-.2.1Z" fill="#6bbe66"/><path d="M81.2,5.1a.3674.3674,0,0,1-.3-.1,7.8942,7.8942,0,0,0-.7-2.3.3491.3491,0,0,0-.1-.2c.1,0,.2.1.3.1,0,0,.4.2.6,1.2l.1.2c0-.1.1-2.1.8-2.4a.3491.3491,0,0,0,.2-.1.31.31,0,0,1-.1.2,3.5548,3.5548,0,0,0-.4,1.6v.2a1.3807,1.3807,0,0,1,.9-.7h.1s0,.1-.2.2a6.69,6.69,0,0,0-.9,1.5V5A.3674.3674,0,0,1,81.2,5.1Z" fill="#6bbe66"/></g></g></g><g id="scrub_bd-11" data-name="scrub_bd" style="isolation:isolate"><g id="Scrub_FC-11" data-name="Scrub_FC"><g id="Deleted_Symbol_1-11" data-name="Deleted Symbol 1"><path d="M70.8,47.6c-.1,0-.1,0-.1-.1l-.3-1c0-.1,0-.1.1-.2l.2-.1h.1a.0979.0979,0,0,1,.1.1l.3,1c0,.1,0,.1-.1.2-.2.1-.2.1-.3.1Z" fill="#6bbe66"/><path d="M72.6,47.4a.0979.0979,0,0,1-.1-.1V46.2h-.1a.31.31,0,0,0-.2.1h-.1c-.1,0-.1,0-.1-.1l-.2-.2v-.2c.2-.1.3-.2.5-.2a.52.52,0,0,1,.4.2.6012.6012,0,0,1,.1.4v1a.0979.0979,0,0,1-.1.1h-.1Z" fill="#6bbe66"/><path d="M76.9,47.5h-.2c-.1,0-.1-.1-.1-.2l.3-1a.0979.0979,0,0,1,.1-.1h.3c.1,0,.1.1.1.2l-.3,1c-.1.1-.1.1-.2.1Z" fill="#6bbe66"/><path d="M74.7,47.3a.3674.3674,0,0,1-.3-.1,7.8942,7.8942,0,0,0-.7-2.3.3491.3491,0,0,0-.1-.2c.1,0,.2.1.3.1,0,0,.4.2.6,1.2l.1.2c0-.1.1-2.1.8-2.4a.3491.3491,0,0,0,.2-.1.31.31,0,0,1-.1.2,3.5548,3.5548,0,0,0-.4,1.6v.2A1.3807,1.3807,0,0,1,76,45h.1s0,.1-.2.2a6.69,6.69,0,0,0-.9,1.5v.5A.3674.3674,0,0,1,74.7,47.3Z" fill="#6bbe66"/></g></g></g><g id="coniferoustree_bd-12" data-name="coniferoustree_bd" style="isolation:isolate"><g id="ConiferousTree_FC-12" data-name="ConiferousTree_FC"><g id="Deleted_Symbol-12" data-name="Deleted Symbol"><path d="M81,43.6c-.8-.1-1.6-1.5-1.6-1.5l.1,2.2c-.1.3-.6.1-.6.1v-2a3.6592,3.6592,0,0,1-1.6,1.4c-.3,0-.1-.2-.1-.2a6.7618,6.7618,0,0,0,1.6-2,4.8858,4.8858,0,0,0,.1-1.6c-.7,1-1.2,1.1-1.2,1.1h-.2c-.1-.1.1-.3.1-.3a1.7556,1.7556,0,0,1,.5-.4h0a2.722,2.722,0,0,0,.8-1.2l.2-1s0-.1.1,0l.1,1.1a9.19,9.19,0,0,0,1.2,1.6c.1.1-.1.1-.1.1-.6-.1-1.1-.9-1.1-.9l.1,1.7A5.7617,5.7617,0,0,0,81,43.4C81.3,43.4,81,43.6,81,43.6Zm-3.3-2.9Zm.1-.2c-.1.1-.1.1-.2.1C77.7,40.6,77.8,40.6,77.8,40.5Zm.2-.1-.1.1Zm.1-.1-.1.1A.0979.0979,0,0,1,78.1,40.3Zm0,0Zm.1-.1Z" fill="#6bbe66"/></g></g></g><g id="coniferoustree_bd-13" data-name="coniferoustree_bd" style="isolation:isolate"><g id="ConiferousTree_FC-13" data-name="ConiferousTree_FC"><g id="Deleted_Symbol-13" data-name="Deleted Symbol"><path d="M72.2,42.1c-.8-.1-1.6-1.5-1.6-1.5l.1,2.2c-.1.3-.6.1-.6.1v-2a3.6592,3.6592,0,0,1-1.6,1.4c-.3,0-.1-.2-.1-.2a6.7618,6.7618,0,0,0,1.6-2,4.8858,4.8858,0,0,0,.1-1.6c-.7,1-1.2,1.1-1.2,1.1h-.2c-.1-.1.1-.3.1-.3a1.7556,1.7556,0,0,1,.5-.4h0a2.722,2.722,0,0,0,.8-1.2l.2-1s0-.1.1,0l.1,1.1a9.19,9.19,0,0,0,1.2,1.6c.1.1-.1.1-.1.1-.6-.1-1.1-.9-1.1-.9l.1,1.7a5.7617,5.7617,0,0,0,1.6,1.6C72.5,41.9,72.2,42.1,72.2,42.1Zm-3.3-2.9Zm.2-.2c-.1.1-.1.1-.2.1C69,39.1,69,39.1,69.1,39Zm.1-.1-.1.1Zm.1-.1-.1.1A.0979.0979,0,0,0,69.3,38.8Zm0,0Zm.2-.1Z" fill="#6bbe66"/></g></g></g><g id="scrub_bd-12" data-name="scrub_bd" style="isolation:isolate"><g id="Scrub_FC-12" data-name="Scrub_FC"><g id="Deleted_Symbol_1-12" data-name="Deleted Symbol 1"><path d="M81.2,71.2c-.1,0-.1,0-.1-.1l-.3-1c0-.1,0-.1.1-.2l.2-.1h.1a.0979.0979,0,0,1,.1.1l.3,1c0,.1,0,.1-.1.2a.3674.3674,0,0,1-.3.1Z" fill="#6bbe66"/><path d="M83.1,71a.0979.0979,0,0,1-.1-.1V69.8h-.1a.31.31,0,0,0-.2.1h-.1c-.1,0-.1,0-.1-.1l-.1-.1v-.2c.2-.1.3-.2.5-.2a.52.52,0,0,1,.4.2.6012.6012,0,0,1,.1.4v1a.0979.0979,0,0,1-.1.1Z" fill="#6bbe66"/><path d="M87.3,71.1h-.2c-.1,0-.1-.1-.1-.2l.3-1a.0979.0979,0,0,1,.1-.1h.3c.1,0,.1.1.1.2l-.3,1c-.1.1-.1.1-.2.1Z" fill="#6bbe66"/><path d="M85.1,70.9a.3674.3674,0,0,1-.3-.1,7.8942,7.8942,0,0,0-.7-2.3.3491.3491,0,0,0-.1-.2c.1,0,.2.1.3.1,0,0,.4.2.6,1.2l.1.2c0-.1.1-2.1.8-2.4a.3491.3491,0,0,0,.2-.1.31.31,0,0,1-.1.2,3.5548,3.5548,0,0,0-.4,1.6v.2a1.3807,1.3807,0,0,1,.9-.7h.1s0,.1-.2.2a6.69,6.69,0,0,0-.9,1.5v.5C85.3,70.8,85.2,70.9,85.1,70.9Z" fill="#6bbe66"/></g></g></g><g id="coniferoustree_bd-14" data-name="coniferoustree_bd" style="isolation:isolate"><g id="ConiferousTree_FC-14" data-name="ConiferousTree_FC"><g id="Deleted_Symbol-14" data-name="Deleted Symbol"><path d="M91.4,67.1c-.8-.1-1.6-1.5-1.6-1.5l.1,2.2c-.1.3-.6.1-.6.1v-2a3.6592,3.6592,0,0,1-1.6,1.4c-.3,0-.1-.2-.1-.2a6.7618,6.7618,0,0,0,1.6-2,4.8858,4.8858,0,0,0,.1-1.6c-.7,1-1.2,1.1-1.2,1.1h-.2c-.1-.1.1-.3.1-.3a1.7556,1.7556,0,0,1,.5-.4h0a2.722,2.722,0,0,0,.8-1.2l.2-1s0-.1.1,0l.1,1.1a9.19,9.19,0,0,0,1.2,1.6c.1.1-.1.1-.1.1-.6-.1-1.1-.9-1.1-.9l.1,1.7a5.7617,5.7617,0,0,0,1.6,1.6C91.7,66.9,91.4,67.1,91.4,67.1Zm-3.3-2.8Zm.2-.2c-.1.1-.1.1-.2.1C88.2,64.2,88.2,64.2,88.3,64.1Zm.1-.1-.1.1Zm.1-.1-.1.1A.0979.0979,0,0,1,88.5,63.9Zm0,0Zm.1-.1Z" fill="#6bbe66"/></g></g></g><g id="scrub_bd-13" data-name="scrub_bd" style="isolation:isolate"><g id="Scrub_FC-13" data-name="Scrub_FC"><g id="Deleted_Symbol_1-13" data-name="Deleted Symbol 1"><path d="M77.8,65.2c-.1,0-.1,0-.1-.1l-.3-1c0-.1,0-.1.1-.2l.2-.1h.1a.0979.0979,0,0,1,.1.1l.3,1c0,.1,0,.1-.1.2a.774.774,0,0,1-.3.1Z" fill="#6bbe66"/><path d="M79.6,65a.0979.0979,0,0,1-.1-.1V63.8h-.1a.31.31,0,0,0-.2.1h-.1c-.1,0-.1,0-.1-.1l-.1-.1v-.2c.2-.1.3-.2.5-.2a.52.52,0,0,1,.4.2.6012.6012,0,0,1,.1.4v1a.0979.0979,0,0,1-.1.1Z" fill="#6bbe66"/><path d="M83.8,65.1h-.2c-.1,0-.1-.1-.1-.2l.3-1a.0979.0979,0,0,1,.1-.1h.3c.1,0,.1.1.1.2L84,65c0,.1-.1.1-.2.1Z" fill="#6bbe66"/><path d="M81.7,64.9a.3674.3674,0,0,1-.3-.1,7.8942,7.8942,0,0,0-.7-2.3.3491.3491,0,0,0-.1-.2c.1,0,.2.1.3.1,0,0,.4.2.6,1.2l.1.2c0-.1.1-2.1.8-2.4a.3491.3491,0,0,0,.2-.1.31.31,0,0,1-.1.2,3.5548,3.5548,0,0,0-.4,1.6v.2a1.3807,1.3807,0,0,1,.9-.7h.1s0,.1-.2.2a6.69,6.69,0,0,0-.9,1.5v.5C81.9,64.8,81.8,64.9,81.7,64.9Z" fill="#6bbe66"/></g></g></g><g id="scrub_bd-14" data-name="scrub_bd" style="isolation:isolate"><g id="Scrub_FC-14" data-name="Scrub_FC"><g id="Deleted_Symbol_1-14" data-name="Deleted Symbol 1"><path d="M55.4,92.2c-.1,0-.1,0-.1-.1l-.3-1c0-.1,0-.1.1-.2l.2-.1h.1a.0979.0979,0,0,1,.1.1l.3,1c0,.1,0,.1-.1.2-.2.1-.2.1-.3.1Z" fill="#6bbe66"/><path d="M57.3,92a.0979.0979,0,0,1-.1-.1V90.8h-.1a.31.31,0,0,0-.2.1h-.1c-.1,0-.1,0-.1-.1l-.1-.1v-.2c.2-.1.3-.2.5-.2a.52.52,0,0,1,.4.2.6012.6012,0,0,1,.1.4v1a.0979.0979,0,0,1-.1.1Z" fill="#6bbe66"/><path d="M61.5,92.1h-.2c-.1,0-.1-.1-.1-.2l.3-1a.0979.0979,0,0,1,.1-.1h.3c.1,0,.1.1.1.2l-.3,1c-.1.1-.1.1-.2.1Z" fill="#6bbe66"/><path d="M59.3,91.9a.3674.3674,0,0,1-.3-.1,7.8942,7.8942,0,0,0-.7-2.3.3491.3491,0,0,0-.1-.2c.1,0,.2.1.3.1,0,0,.4.2.6,1.2l.1.2c0-.1.1-2.1.8-2.4a.3491.3491,0,0,0,.2-.1.31.31,0,0,1-.1.2,3.5548,3.5548,0,0,0-.4,1.6v.2a1.3807,1.3807,0,0,1,.9-.7h.1s0,.1-.2.2a6.69,6.69,0,0,0-.9,1.5v.5C59.5,91.8,59.4,91.9,59.3,91.9Z" fill="#6bbe66"/></g></g></g><g id="coniferoustree_bd-15" data-name="coniferoustree_bd" style="isolation:isolate"><g id="ConiferousTree_FC-15" data-name="ConiferousTree_FC"><g id="Deleted_Symbol-15" data-name="Deleted Symbol"><path d="M65.6,88.1c-.8-.1-1.6-1.5-1.6-1.5l.1,2.2c-.1.3-.6.1-.6.1v-2a3.6592,3.6592,0,0,1-1.6,1.4c-.3,0-.1-.2-.1-.2a6.7618,6.7618,0,0,0,1.6-2,4.8858,4.8858,0,0,0,.1-1.6c-.7,1-1.2,1.1-1.2,1.1h-.2c-.1-.1.1-.3.1-.3a1.7556,1.7556,0,0,1,.5-.4h0a2.722,2.722,0,0,0,.8-1.2l.2-1s0-.1.1,0l.1,1.1a9.19,9.19,0,0,0,1.2,1.6c.1.1-.1.1-.1.1-.6-.1-1.1-.9-1.1-.9l.1,1.7a5.7617,5.7617,0,0,0,1.6,1.6C65.9,87.9,65.6,88.1,65.6,88.1Zm-3.3-2.8Zm.2-.2c-.1.1-.1.1-.2.1C62.4,85.2,62.4,85.1,62.5,85.1Zm.1-.1-.1.1Zm.1-.1-.1.1A.0979.0979,0,0,1,62.7,84.9Zm0,0Zm.1-.1Z" fill="#6bbe66"/></g></g></g><g id="scrub_bd-15" data-name="scrub_bd" style="isolation:isolate"><g id="Scrub_FC-15" data-name="Scrub_FC"><g id="Deleted_Symbol_1-15" data-name="Deleted Symbol 1"><path d="M52,86.2c-.1,0-.1,0-.1-.1l-.3-1c0-.1,0-.1.1-.2l.2-.1H52a.0979.0979,0,0,1,.1.1l.3,1c0,.1,0,.1-.1.2a.774.774,0,0,1-.3.1Z" fill="#6bbe66"/><path d="M53.8,85.9a.0979.0979,0,0,1-.1-.1V84.7h-.1a.31.31,0,0,0-.2.1h-.1c-.1,0-.1,0-.1-.1l-.1-.1v-.2c.2-.1.3-.2.5-.2a.52.52,0,0,1,.4.2.6012.6012,0,0,1,.1.4v1a.0979.0979,0,0,1-.1.1Z" fill="#6bbe66"/><path d="M58,86.1h-.2c-.1,0-.1-.1-.1-.2l.3-1a.0979.0979,0,0,1,.1-.1h.3c.1,0,.1.1.1.2l-.3,1a.3491.3491,0,0,1-.2.1Z" fill="#6bbe66"/><path d="M55.9,85.9a.3674.3674,0,0,1-.3-.1,7.8942,7.8942,0,0,0-.7-2.3.3491.3491,0,0,0-.1-.2c.1,0,.2.1.3.1,0,0,.4.2.6,1.2l.1.2c0-.1.1-2.1.8-2.4a.3491.3491,0,0,0,.2-.1.31.31,0,0,1-.1.2,3.5548,3.5548,0,0,0-.4,1.6v.2a1.3807,1.3807,0,0,1,.9-.7h.1s0,.1-.2.2a6.69,6.69,0,0,0-.9,1.5v.5C56.1,85.8,56,85.9,55.9,85.9Z" fill="#6bbe66"/></g></g></g><g id="scrub_bd-16" data-name="scrub_bd" style="isolation:isolate"><g id="Scrub_FC-16" data-name="Scrub_FC"><g id="Deleted_Symbol_1-16" data-name="Deleted Symbol 1"><path d="M8.4,95c-.1,0-.1,0-.1-.1l-.3-1c0-.1,0-.1.1-.2l.2-.1h.1a.0979.0979,0,0,1,.1.1l.3,1c0,.1,0,.1-.1.2a.774.774,0,0,1-.3.1Z" fill="#6bbe66"/><path d="M10.2,94.8a.0979.0979,0,0,1-.1-.1V93.6H10a.31.31,0,0,0-.2.1H9.7c-.1,0-.1,0-.1-.1l-.1-.1v-.2c0-.2.2-.3.4-.3a.52.52,0,0,1,.4.2.6012.6012,0,0,1,.1.4v1a.0979.0979,0,0,1-.1.1h-.1Z" fill="#6bbe66"/><path d="M14.4,94.9h-.2c-.1,0-.1-.1-.1-.2l.3-1a.0979.0979,0,0,1,.1-.1h.3c.1,0,.1.1.1.2l-.3,1c0,.1-.1.1-.2.1Z" fill="#6bbe66"/><path d="M12.3,94.7a.3674.3674,0,0,1-.3-.1,7.8942,7.8942,0,0,0-.7-2.3.3491.3491,0,0,0-.1-.2c.1,0,.2.1.3.1,0,0,.4.2.6,1.2l.1.2c0-.1.1-2.1.8-2.4a.3491.3491,0,0,0,.2-.1.31.31,0,0,1-.1.2,3.5548,3.5548,0,0,0-.4,1.6v.2a1.3807,1.3807,0,0,1,.9-.7h.1s0,.1-.2.2a6.69,6.69,0,0,0-.9,1.5v.5C12.5,94.6,12.4,94.7,12.3,94.7Z" fill="#6bbe66"/></g></g></g><g id="coniferoustree_bd-16" data-name="coniferoustree_bd" style="isolation:isolate"><g id="ConiferousTree_FC-16" data-name="ConiferousTree_FC"><g id="Deleted_Symbol-16" data-name="Deleted Symbol"><path d="M18.5,90.9c-.8-.1-1.6-1.5-1.6-1.5l.1,2.2c-.1.3-.6.1-.6.1v-2a3.6592,3.6592,0,0,1-1.6,1.4c-.3,0-.1-.2-.1-.2a6.7618,6.7618,0,0,0,1.6-2,4.8858,4.8858,0,0,0,.1-1.6c-.7,1-1.2,1.1-1.2,1.1H15c-.1-.1.1-.3.1-.3a1.7556,1.7556,0,0,1,.5-.4h0a2.722,2.722,0,0,0,.8-1.2l.2-1s0-.1.1,0l.1,1.1A10.1451,10.1451,0,0,0,18,88c.1.1-.1.1-.1.1-.6-.1-1.1-.9-1.1-.9l.1,1.7a5.7617,5.7617,0,0,0,1.6,1.6C18.8,90.7,18.5,90.9,18.5,90.9Zm-3.3-2.8Zm.2-.2c-.1.1-.1.1-.2.1C15.3,88,15.3,87.9,15.4,87.9Zm.1-.1-.1.1Zm.1-.1-.1.1Zm0,0Zm.2-.1Z" fill="#6bbe66"/></g></g></g><g id="scrub_bd-17" data-name="scrub_bd" style="isolation:isolate"><g id="Scrub_FC-17" data-name="Scrub_FC"><g id="Deleted_Symbol_1-17" data-name="Deleted Symbol 1"><path d="M4.9,89c-.1,0-.1,0-.1-.1l-.3-1c0-.1,0-.1.1-.2l.2-.1h.1a.0979.0979,0,0,1,.1.1l.3,1c0,.1,0,.1-.1.2a.774.774,0,0,1-.3.1Z" fill="#6bbe66"/><path d="M6.7,88.7a.0979.0979,0,0,1-.1-.1V87.5H6.5a.31.31,0,0,0-.2.1H6.2c-.1,0-.1,0-.1-.1L6,87.4v-.2c.1-.2.2-.2.4-.2a.52.52,0,0,1,.4.2.7581.7581,0,0,1,.2.4v1a.0979.0979,0,0,1-.1.1Z" fill="#6bbe66"/><path d="M10.9,88.9h-.2c-.1,0-.1-.1-.1-.2l.3-1a.0979.0979,0,0,1,.1-.1h.3c.1,0,.1.1.1.2l-.3,1a.3491.3491,0,0,1-.2.1Z" fill="#6bbe66"/><path d="M8.8,88.7a.3674.3674,0,0,1-.3-.1,7.8942,7.8942,0,0,0-.7-2.3.3491.3491,0,0,0-.1-.2c.1,0,.2.1.3.1,0,0,.4.2.6,1.2l.1.2c0-.1.1-2.1.8-2.4a.3491.3491,0,0,0,.2-.1.31.31,0,0,1-.1.2,3.5548,3.5548,0,0,0-.4,1.6v.2a1.3807,1.3807,0,0,1,.9-.7h.1s0,.1-.2.2a6.69,6.69,0,0,0-.9,1.5v.5C9,88.6,8.9,88.7,8.8,88.7Z" fill="#6bbe66"/></g></g></g></svg>