<svg id="Layer_1" data-name="Layer 1" xmlns="http://www.w3.org/2000/svg" width="33.8667mm" height="33.8667mm" viewBox="0 0 96 96"><g id="rock2_bd"><path d="M17.8,77.4v.1a.8643.8643,0,0,1-.3.6.52.52,0,0,1-.4.2,1.0873,1.0873,0,0,1-.5-.1,1.7594,1.7594,0,0,0-.6-.1h-.3a.6012.6012,0,0,0-.4.1c-.2,0-.3.1-.4.1h-.1c-.2,0-.4-.1-.4-.3a.7581.7581,0,0,1,.2-.4V76.4c0-.3.2-.5.5-.7a6.89,6.89,0,0,1,.8-.3H16a.3674.3674,0,0,1,.3.1l.2.2.2.2.4.2q.3.15.3.3c.1.1.1.2.2.5C17.7,77.1,17.7,77.3,17.8,77.4Zm-.3,0v-.2c0-.1-.1-.2-.1-.3a19668661934065.48,19668661934065.48,0,0,0-.2-.4.9984.9984,0,0,0-.5-.4h-.2a.3674.3674,0,0,1-.3-.1l-.2-.2c-.1-.1-.1-.1-.2-.1s-.1,0-.2.1a.3491.3491,0,0,1-.2.1l-.2.2a.3674.3674,0,0,1-.3.1.3491.3491,0,0,0-.2.1v1.3a.0979.0979,0,0,1-.1.1v.1a.31.31,0,0,1,.2.1H15a.3491.3491,0,0,0,.2-.1c.1,0,.3-.1.4-.1a.9015.9015,0,0,1,.5-.1h.2c.1,0,.1,0,.2.1a.3674.3674,0,0,0,.3.1c.2,0,.3.1.4.1h.1v-.1C17.4,77.6,17.5,77.5,17.5,77.4Z" fill="#9a9a90"/></g><g id="rock2_bd-2" data-name="rock2_bd" style="isolation:isolate"><path d="M22.9,73.1v.1a.8643.8643,0,0,1-.3.6.52.52,0,0,1-.4.2,1.0873,1.0873,0,0,1-.5-.1,1.7594,1.7594,0,0,0-.6-.1h-.3a.6012.6012,0,0,0-.4.1c-.2,0-.3.1-.4.1h-.1c-.2,0-.4-.1-.4-.3a.7581.7581,0,0,1,.2-.4V72.1c0-.3.2-.5.5-.7a6.89,6.89,0,0,1,.8-.3h.1a.3674.3674,0,0,1,.3.1l.2.2.2.2.4.2q.3.15.3.3c.1.1.1.2.2.5C22.7,72.8,22.8,72.9,22.9,73.1Zm-.4,0v-.2c0-.1-.1-.2-.1-.3a19668661934073.934,19668661934073.934,0,0,1-.2-.4.9984.9984,0,0,0-.5-.4h-.2a.3674.3674,0,0,1-.3-.1l-.2-.2c-.1-.1-.1-.1-.2-.1s-.1,0-.2.1a.3491.3491,0,0,1-.2.1l-.2.2a.3674.3674,0,0,1-.3.1.3491.3491,0,0,0-.2.1v1.3a.0979.0979,0,0,1-.1.1v.1a.31.31,0,0,1,.2.1H20a.3491.3491,0,0,0,.2-.1c.1,0,.3-.1.4-.1a.9015.9015,0,0,1,.5-.1h.2c.1,0,.1,0,.2.1a.3674.3674,0,0,0,.3.1c.2,0,.3.1.4.1h.1v-.1C22.5,73.3,22.5,73.2,22.5,73.1Z" fill="#9a9a90"/></g><g id="rock1_bd"><path d="M11.6,71c.1-.2.1-.3.2-.4,0-.1.1-.1.3-.2.1,0,.2-.1.3-.2l.2-.2.2-.2a.31.31,0,0,1,.2-.1h.1c.2.1.4.1.6.2.3.2.4.3.4.5v1c.1.1.2.2.2.3s-.1.2-.3.2H13a1.0873,1.0873,0,0,0-.5.1c-.2,0-.3.1-.4.1a.438.438,0,0,1-.3-.1c-.2-.2-.2-.3-.2-.4v-.1A.4464.4464,0,0,1,11.6,71Zm.2.8h0c.1.1.2.1.4,0,.1,0,.2,0,.2-.1.1,0,.1-.1.2-.1h.2a.7559.7559,0,0,1,.4.1c.1,0,.2.1.3.1s.1,0,.2.1h.2c.1,0,.1,0,.1-.1v-.1l-.1-.1v-1c0-.1,0-.1-.1-.1s-.2-.1-.3-.1l-.2-.2-.1-.1A.3491.3491,0,0,0,13,70a.0979.0979,0,0,0-.1.1c0,.1-.1.1-.1.2a.3491.3491,0,0,1-.2.1h-.2a1.38,1.38,0,0,0-.4.3.3491.3491,0,0,0-.1.2.31.31,0,0,1-.1.2.3491.3491,0,0,1-.1.2v.2A.3674.3674,0,0,0,11.8,71.8Z" fill="#9a9a90"/></g><g id="rock2_bd-3" data-name="rock2_bd" style="isolation:isolate"><path d="M52.3,67.4v.1a.8643.8643,0,0,1-.3.6.52.52,0,0,1-.4.2,1.0873,1.0873,0,0,1-.5-.1,1.7594,1.7594,0,0,0-.6-.1h-.3a.6012.6012,0,0,0-.4.1c-.2,0-.3.1-.4.1h-.1c-.2,0-.4-.1-.4-.3a.7581.7581,0,0,1,.2-.4V66.4c0-.3.2-.5.5-.7a6.89,6.89,0,0,1,.8-.3h.1a.3674.3674,0,0,1,.3.1l.2.2.2.2.4.2q.3.15.3.3c.1.1.1.2.2.5A.7638.7638,0,0,0,52.3,67.4Zm-.3,0v-.2c0-.1-.1-.2-.1-.3a9834330967049.578,9834330967049.578,0,0,1-.2-.4.9984.9984,0,0,0-.5-.4H51a.3674.3674,0,0,1-.3-.1l-.2-.2c-.1-.1-.1-.1-.2-.1s-.1,0-.2.1a.3491.3491,0,0,1-.2.1l-.2.2a.3674.3674,0,0,1-.3.1.3491.3491,0,0,0-.2.1v1.3a.0979.0979,0,0,1-.1.1v.1a.31.31,0,0,1,.2.1h.2a.3491.3491,0,0,0,.2-.1c.1,0,.3-.1.4-.1a.9015.9015,0,0,1,.5-.1h.2c.1,0,.1,0,.2.1a.3674.3674,0,0,0,.3.1c.2,0,.3.1.4.1h.1v-.1C51.9,67.6,52,67.5,52,67.4Z" fill="#9a9a90"/></g><g id="rock1_bd-2" data-name="rock1_bd" style="isolation:isolate"><path d="M54.5,62.5c.1-.2.1-.3.2-.4,0-.1.1-.1.3-.2.1,0,.2-.1.3-.2l.2-.2.2-.2a.31.31,0,0,1,.2-.1H56c.2.1.4.1.6.2.3.2.4.3.4.5v1c.1.1.2.2.2.3s-.1.2-.3.2h-1a1.0873,1.0873,0,0,0-.5.1c-.2,0-.3.1-.4.1a.438.438,0,0,1-.3-.1c-.2-.2-.2-.3-.2-.4V63C54.3,62.8,54.4,62.7,54.5,62.5Zm.2.7h0c.1.1.2.1.4,0,.1,0,.2,0,.2-.1.1,0,.1-.1.2-.1h.2a.7559.7559,0,0,1,.4.1c.1,0,.2.1.3.1s.1,0,.2.1h.2c.1,0,.1,0,.1-.1v-.1l-.1-.1V62c0-.1,0-.1-.1-.1s-.2-.1-.3-.1l-.2-.2-.1-.1a.3491.3491,0,0,0-.2-.1.0979.0979,0,0,0-.1.1c0,.1-.1.1-.1.2a.3491.3491,0,0,1-.2.1h-.2a1.38,1.38,0,0,0-.4.3.3491.3491,0,0,0-.1.2.31.31,0,0,1-.1.2.3491.3491,0,0,1-.1.2v.2C54.5,63,54.6,63.1,54.7,63.2Z" fill="#9a9a90"/></g><g id="rock1_bd-3" data-name="rock1_bd" style="isolation:isolate"><path d="M46.1,61c.1-.2.1-.3.2-.4,0-.1.1-.1.3-.2.1,0,.2-.1.3-.2l.2-.2.2-.2a.31.31,0,0,1,.2-.1h.1c.2.1.4.1.6.2.3.2.4.3.4.5v1c.1.1.2.2.2.3s-.1.2-.3.2h-1a1.0873,1.0873,0,0,0-.5.1c-.2,0-.3.1-.4.1a.438.438,0,0,1-.3-.1c-.2-.2-.2-.3-.2-.4v-.1C45.9,61.4,46,61.2,46.1,61Zm.2.7h0c.1.1.2.1.4,0,.1,0,.2,0,.2-.1.1,0,.1-.1.2-.1h.2a.7559.7559,0,0,1,.4.1c.1,0,.2.1.3.1s.1,0,.2.1h.2c.1,0,.1,0,.1-.1v-.1l-.1-.1v-1c0-.1,0-.1-.1-.1s-.2-.1-.3-.1l-.2-.2-.1-.1a.3491.3491,0,0,0-.2-.1.0979.0979,0,0,0-.1.1c0,.1-.1.1-.1.2a.3491.3491,0,0,1-.2.1h-.2a1.38,1.38,0,0,0-.4.3.3491.3491,0,0,0-.1.2.31.31,0,0,1-.1.2.3491.3491,0,0,1-.1.2v.2C46.1,61.6,46.2,61.7,46.3,61.7Z" fill="#9a9a90"/></g><g id="rock1_bd-4" data-name="rock1_bd" style="isolation:isolate"><path d="M10.7,50.3c.1-.2.1-.3.2-.4,0-.1.1-.1.3-.2.1,0,.2-.1.3-.2l.2-.2.2-.2a.31.31,0,0,1,.2-.1h.1c.2.1.4.1.6.2.3.2.4.3.4.5v1c.1.1.2.2.2.3s-.1.2-.3.2h-1a1.0873,1.0873,0,0,0-.5.1c-.2,0-.3.1-.4.1a.438.438,0,0,1-.3-.1c-.2-.2-.2-.3-.2-.4v-.1C10.6,50.7,10.7,50.5,10.7,50.3Zm.2.7h0c.1.1.2.1.4,0,.1,0,.2,0,.2-.1.1,0,.1-.1.2-.1h.2a.7559.7559,0,0,1,.4.1c.1,0,.2.1.3.1s.1,0,.2.1H13c.1,0,.1,0,.1-.1v-.1l-.1-.1v-1c0-.1,0-.1-.1-.1s-.2-.1-.3-.1l-.2-.2-.1-.1a.3491.3491,0,0,0-.2-.1.0979.0979,0,0,0-.1.1c0,.1-.1.1-.1.2a.3491.3491,0,0,1-.2.1h-.2a1.38,1.38,0,0,0-.4.3.3491.3491,0,0,0-.1.2.31.31,0,0,1-.1.2.3491.3491,0,0,1-.1.2v.2C10.8,50.9,10.8,50.9,10.9,51Z" fill="#9a9a90"/></g><g id="rock1_bd-5" data-name="rock1_bd" style="isolation:isolate"><path d="M15.8,46c.1-.2.1-.3.2-.4,0-.1.1-.1.3-.2.1,0,.2-.1.3-.2l.2-.2.2-.2a.31.31,0,0,1,.2-.1h.1c.2.1.4.1.6.2.3.2.4.3.4.5v1c.1.1.2.2.2.3s-.1.2-.3.2h-1a1.0873,1.0873,0,0,0-.5.1c-.2,0-.3.1-.4.1A.438.438,0,0,1,16,47c-.2-.2-.2-.3-.2-.4v-.1A.4464.4464,0,0,1,15.8,46Zm.2.7h0c.1.1.2.1.4,0,.1,0,.2,0,.2-.1.1,0,.1-.1.2-.1H17a.7559.7559,0,0,1,.4.1c.1,0,.2.1.3.1s.1,0,.2.1h.2c.1,0,.1,0,.1-.1v-.1l-.1-.1v-1c0-.1,0-.1-.1-.1s-.2-.1-.3-.1l-.2-.2-.1-.1a.3491.3491,0,0,0-.2-.1.0979.0979,0,0,0-.1.1c0,.1-.1.1-.1.2a.3491.3491,0,0,1-.2.1h-.2a1.38,1.38,0,0,0-.4.3.3491.3491,0,0,0-.1.2.31.31,0,0,1-.1.2.3491.3491,0,0,1-.1.2v.2C15.9,46.6,15.9,46.6,16,46.7Z" fill="#9a9a90"/></g><g id="rock1_bd-6" data-name="rock1_bd" style="isolation:isolate"><path d="M7.4,44.5c.1-.2.1-.3.2-.4,0-.1.1-.1.3-.2.1,0,.2-.1.3-.2l.2-.2.2-.2a.31.31,0,0,1,.2-.1h.1c.2.1.4.1.6.2.3.2.4.3.4.5v1c.1.1.2.2.2.3s-.1.2-.3.2h-1a1.0873,1.0873,0,0,0-.5.1c-.2,0-.3.1-.4.1a.438.438,0,0,1-.3-.1c-.2-.2-.2-.3-.2-.4V45C7.3,44.9,7.3,44.8,7.4,44.5Zm.2.8h0c0,.1.1.1,0,0,.1.1.2.1.4,0,.1,0,.2,0,.2-.1.1,0,.1-.1.2-.1h.2a.7559.7559,0,0,1,.4.1c.1,0,.2.1.3.1s.1,0,.2.1h.2c.1,0,.1,0,.1-.1v-.1l-.1-.1v-1c0-.1,0-.1-.1-.1s-.2-.1-.3-.1l-.2-.2c-.1,0-.1,0-.1-.1a.3491.3491,0,0,0-.2-.1.0979.0979,0,0,0-.1.1c0,.1-.1.1-.1.2a.3491.3491,0,0,1-.2.1H8.2c-.2.1-.4.2-.4.4a.3491.3491,0,0,0-.1.2.31.31,0,0,1-.1.2.3491.3491,0,0,1-.1.2v.2A.31.31,0,0,0,7.6,45.3Z" fill="#9a9a90"/></g><g id="rock1_bd-7" data-name="rock1_bd" style="isolation:isolate"><path d="M19.1,30.6c.1-.2.1-.3.2-.4,0-.1.1-.1.3-.2.1,0,.2-.1.3-.2l.2-.2.2-.2a.31.31,0,0,1,.2-.1h.1c.2.1.4.1.6.2.3.2.4.3.4.5v1c.1.1.2.2.2.3s-.1.2-.3.2h-1a1.0873,1.0873,0,0,0-.5.1c-.2,0-.3.1-.4.1a.438.438,0,0,1-.3-.1c-.2-.2-.2-.3-.2-.4v-.1C18.9,30.9,19,30.8,19.1,30.6Zm.2.7h0c.1.1.2.1.4,0,.1,0,.2,0,.2-.1.1,0,.1-.1.2-.1h.2a.7559.7559,0,0,1,.4.1c.1,0,.2.1.3.1s.1,0,.2.1h.2c.1,0,.1,0,.1-.1v-.1l-.1-.1v-1c0-.1,0-.1-.1-.1-.3,0-.3,0-.4-.1l-.2-.2-.1-.1a.3491.3491,0,0,0-.2-.1.0979.0979,0,0,0-.1.1c0,.1-.1.1-.1.2a.3491.3491,0,0,1-.2.1h-.2a1.38,1.38,0,0,0-.4.3.3491.3491,0,0,0-.1.2.31.31,0,0,1-.1.2.3491.3491,0,0,1-.1.2V31C19.1,31.1,19.2,31.2,19.3,31.3Z" fill="#9a9a90"/></g><g id="rock1_bd-8" data-name="rock1_bd" style="isolation:isolate"><path d="M24.1,26.2c.1-.2.1-.3.2-.4,0-.1.1-.1.3-.2.1,0,.2-.1.3-.2l.2-.2.2-.2a.31.31,0,0,1,.2-.1h.1c.2.1.4.1.6.2.3.2.4.3.4.5v1c.1.1.2.2.2.3s-.1.2-.3.2h-1a1.0873,1.0873,0,0,0-.5.1c-.2,0-.3.1-.4.1a.438.438,0,0,1-.3-.1c-.2-.2-.2-.3-.2-.4v-.1C24,26.6,24.1,26.5,24.1,26.2Zm.2.8h0c.1.1.2.1.4,0,.1,0,.2,0,.2-.1.1,0,.1-.1.2-.1h.2a.7559.7559,0,0,1,.4.1c.1,0,.2.1.3.1s.1,0,.2.1h.2c.1,0,.1,0,.1-.1v-.1l-.1-.1v-1c0-.1,0-.1-.1-.1s-.2-.1-.3-.1l-.2-.2-.1-.1a.3491.3491,0,0,0-.2-.1.0979.0979,0,0,0-.1.1c0,.1-.1.1-.1.2a.3491.3491,0,0,1-.2.1h-.2a1.38,1.38,0,0,0-.4.3.3491.3491,0,0,0-.1.2.31.31,0,0,1-.1.2.3491.3491,0,0,1-.1.2v.2A.3674.3674,0,0,0,24.3,27Z" fill="#9a9a90"/></g><g id="rock1_bd-9" data-name="rock1_bd" style="isolation:isolate"><path d="M15.7,24.8c.1-.2.1-.3.2-.4,0-.1.1-.1.3-.2.1,0,.2-.1.3-.2l.2-.2.2-.2a.31.31,0,0,1,.2-.1h.1c.2.1.4.1.6.2.3.2.4.3.4.5v1c.1.1.2.2.2.3s-.1.2-.3.2h-1a1.0873,1.0873,0,0,0-.5.1c-.2,0-.3.1-.4.1a.438.438,0,0,1-.3-.1c-.2-.2-.2-.3-.2-.4v-.1C15.6,25.2,15.7,25,15.7,24.8Zm.2.7h0c.1.1.2.1.4,0,.1,0,.2,0,.2-.1.1,0,.1-.1.2-.1h.2a.7559.7559,0,0,1,.4.1c.1,0,.2.1.3.1s.1,0,.2.1H18c.1,0,.1,0,.1-.1v-.1l-.1-.1v-1c0-.1,0-.1-.1-.1s-.2-.1-.3-.1l-.2-.2-.1-.1a.3491.3491,0,0,0-.2-.1.0979.0979,0,0,0-.1.1c0,.1-.1.1-.1.2a.3491.3491,0,0,1-.2.1h-.2a1.38,1.38,0,0,0-.4.3.3491.3491,0,0,0-.1.2.31.31,0,0,1-.1.2.3491.3491,0,0,1-.1.2v.2C15.8,25.4,15.9,25.4,15.9,25.5Z" fill="#9a9a90"/></g><g id="rock1_bd-10" data-name="rock1_bd" style="isolation:isolate"><path d="M48.1,12c.1-.2.1-.3.2-.4,0-.1.1-.1.3-.2.1,0,.2-.1.3-.2l.2-.2.2-.2a.31.31,0,0,1,.2-.1h.1c.2.1.4.1.6.2.3.2.4.3.4.5v1c.1.1.2.2.2.3s-.1.2-.3.2h-1a1.0873,1.0873,0,0,0-.5.1c-.2,0-.3.1-.4.1a.438.438,0,0,1-.3-.1c-.2-.2-.2-.3-.2-.4v-.1C47.9,12.4,48,12.2,48.1,12Zm.2.7h0c.1.1.2.1.4,0,.1,0,.2,0,.2-.1.1,0,.1-.1.2-.1h.2a.7559.7559,0,0,1,.4.1c.1,0,.2.1.3.1s.1,0,.2.1h.2c.1,0,.1,0,.1-.1v-.1l-.1-.1v-1c0-.1,0-.1-.1-.1s-.2-.1-.3-.1l-.2-.2-.1-.1a.3491.3491,0,0,0-.2-.1.0979.0979,0,0,0-.1.1c0,.1-.1.1-.1.2a.3491.3491,0,0,1-.2.1h-.2a1.38,1.38,0,0,0-.4.3.3491.3491,0,0,0-.1.2.31.31,0,0,1-.1.2.3491.3491,0,0,1-.1.2v.2C48.1,12.6,48.2,12.6,48.3,12.7Z" fill="#9a9a90"/></g><g id="rock1_bd-11" data-name="rock1_bd" style="isolation:isolate"><path d="M53.1,7.7c.1-.2.1-.3.2-.4,0-.1.1-.1.3-.2.1,0,.2-.1.3-.2l.2-.2.2-.2a.31.31,0,0,1,.2-.1h.1c.2.1.4.1.6.2.3.2.4.3.4.5v1c.1.1.2.2.2.3s-.1.2-.3.2h-1a1.0873,1.0873,0,0,0-.5.1c-.2,0-.3.1-.4.1a.438.438,0,0,1-.3-.1c-.2-.2-.2-.3-.2-.4V8.2A.4464.4464,0,0,1,53.1,7.7Zm.2.7h0c.1.1.2.1.4,0,.1,0,.2,0,.2-.1.1,0,.1-.1.2-.1h.2a.7559.7559,0,0,1,.4.1c.1,0,.2.1.3.1s.1,0,.2.1h.2c.1,0,.1,0,.1-.1V8.3l-.1-.1v-1c0-.1,0-.1-.1-.1S55.1,7,55,7l-.2-.2-.1-.1a.3491.3491,0,0,0-.2-.1.0979.0979,0,0,0-.1.1c0,.1-.1.1-.1.2a.3491.3491,0,0,1-.2.1h-.2a1.38,1.38,0,0,0-.4.3.3491.3491,0,0,0-.1.2.31.31,0,0,1-.1.2.3491.3491,0,0,1-.1.2v.2A.3674.3674,0,0,0,53.3,8.4Z" fill="#9a9a90"/></g><g id="rock1_bd-12" data-name="rock1_bd" style="isolation:isolate"><path d="M44.7,6.2c.1-.2.1-.3.2-.4,0-.1.1-.1.3-.2.1,0,.2-.1.3-.2l.2-.2.2-.2c0,.1.1,0,.2,0h.1c.2.1.4.1.6.2.3.2.4.3.4.5v1c.1.1.2.2.2.3s-.1.2-.3.2h-1a1.0873,1.0873,0,0,0-.5.1c-.2,0-.3.1-.4.1a.438.438,0,0,1-.3-.1c-.2-.2-.2-.3-.2-.4V6.8C44.6,6.6,44.7,6.5,44.7,6.2Zm.2.8h0c.1.1.2,0,.4,0,.1,0,.2,0,.2-.1.1,0,.1-.1.2-.1h.2a.7559.7559,0,0,1,.4.1c.1,0,.2.1.3.1s.1,0,.2.1H47V6.9l-.1-.1v-1c0-.1,0-.1-.1-.1s-.2-.1-.3-.1l-.2-.2-.1-.1a.3491.3491,0,0,0-.2-.1.0979.0979,0,0,0-.1.1c0,.1-.1.1-.1.2a.3491.3491,0,0,1-.2.1h-.2a1.38,1.38,0,0,0-.4.3v.2a.31.31,0,0,1-.1.2.3491.3491,0,0,1-.1.2v.2A.3674.3674,0,0,0,44.9,7Z" fill="#9a9a90"/></g><g id="rock1_bd-13" data-name="rock1_bd" style="isolation:isolate"><path d="M69.3,27.3c.1-.2.1-.3.2-.4,0-.1.1-.1.3-.2.1,0,.2-.1.3-.2l.2-.2.2-.2a.31.31,0,0,1,.2-.1h.1c.2.1.4.1.6.2.3.2.4.3.4.5v1c.1.1.2.2.2.3s-.1.2-.3.2h-1a1.0873,1.0873,0,0,0-.5.1c-.2,0-.3.1-.4.1a.438.438,0,0,1-.3-.1c-.2-.2-.2-.3-.2-.4v-.1C69.1,27.6,69.2,27.5,69.3,27.3Zm.2.7h0c.1.1.2.1.4,0,.1,0,.2,0,.2-.1.1,0,.1-.1.2-.1h.2a.7559.7559,0,0,1,.4.1c.1,0,.2.1.3.1s.1,0,.2.1h.2c.1,0,.1,0,.1-.1v-.1l-.1-.1v-1c0-.1,0-.1-.1-.1s-.2-.1-.3-.1l-.2-.2-.1-.1a.3491.3491,0,0,0-.2-.1.0979.0979,0,0,0-.1.1c0,.1-.1.1-.1.2a.3491.3491,0,0,1-.2.1h-.2a1.38,1.38,0,0,0-.4.3.3491.3491,0,0,0-.1.2.31.31,0,0,1-.1.2.3491.3491,0,0,1-.1.2v.2C69.3,27.8,69.4,27.9,69.5,28Z" fill="#9a9a90"/></g><g id="rock1_bd-14" data-name="rock1_bd" style="isolation:isolate"><path d="M74.3,23c.1-.2.1-.3.2-.4,0-.1.1-.1.3-.2.1,0,.2-.1.3-.2l.2-.2.2-.2a.31.31,0,0,1,.2-.1h.1c.2.1.4.1.6.2.3.2.4.3.4.5v1c.1.1.2.2.2.3s-.1.2-.3.2h-1a1.0873,1.0873,0,0,0-.5.1c-.2,0-.3.1-.4.1a.438.438,0,0,1-.3-.1c-.2-.2-.2-.3-.2-.4v-.1C74.2,23.3,74.3,23.2,74.3,23Zm.2.7h0c.1.1.2.1.4,0,.1,0,.2,0,.2-.1.1,0,.1-.1.2-.1h.2a.7559.7559,0,0,1,.4.1c.1,0,.2.1.3.1s.1,0,.2.1h.2c.1,0,.1,0,.1-.1v-.1l-.1-.1v-1c0-.1,0-.1-.1-.1s-.2-.1-.3-.1l-.2-.2-.1-.1a.3491.3491,0,0,0-.2-.1.0979.0979,0,0,0-.1.1c0,.1-.1.1-.1.2a.3491.3491,0,0,1-.2.1h-.2a1.38,1.38,0,0,0-.4.3.3491.3491,0,0,0-.1.2.31.31,0,0,1-.1.2.3491.3491,0,0,1-.1.2v.2A.3674.3674,0,0,0,74.5,23.7Z" fill="#9a9a90"/></g><g id="rock1_bd-15" data-name="rock1_bd" style="isolation:isolate"><path d="M65.9,21.5c.1-.2.1-.3.2-.4,0-.1.1-.1.3-.2.1,0,.2-.1.3-.2l.2-.2.2-.2a.31.31,0,0,1,.2-.1h.1c.2.1.4.1.6.2.3.2.4.3.4.5v1c.1.1.2.2.2.3s-.1.2-.3.2h-1a1.0873,1.0873,0,0,0-.5.1c-.2,0-.3.1-.4.1a.438.438,0,0,1-.3-.1c-.2-.2-.2-.3-.2-.4V22C65.8,21.9,65.9,21.7,65.9,21.5Zm.2.7c0,.1.1.1,0,0h0c.1.1.2.1.4,0,.1,0,.2,0,.2-.1.1,0,.1-.1.2-.1h.2a.7559.7559,0,0,1,.4.1c.1,0,.2.1.3.1s.1,0,.2.1h.2c.1,0,.1,0,.1-.1v-.1l-.1-.1V21c0-.1,0-.1-.1-.1s-.2-.1-.3-.1l-.2-.2-.1-.1a.3491.3491,0,0,0-.2-.1.0979.0979,0,0,0-.1.1c0,.1-.1.1-.1.2a.3491.3491,0,0,1-.2.1h-.2a1.38,1.38,0,0,0-.4.3.3491.3491,0,0,0-.1.2.31.31,0,0,1-.1.2.3491.3491,0,0,1-.1.2v.2C66,22.1,66,22.2,66.1,22.2Z" fill="#9a9a90"/></g><g id="rock1_bd-16" data-name="rock1_bd" style="isolation:isolate"><path d="M79.7,11.4c.1-.2.1-.3.2-.4,0-.1.1-.1.3-.2.1,0,.2-.1.3-.2l.2-.2.2-.2a.31.31,0,0,1,.2-.1h.1c.2.1.4.1.6.2.3.2.4.3.4.5v1c.1.1.2.2.2.3s-.1.2-.3.2h-1a1.0873,1.0873,0,0,0-.5.1c-.2,0-.3.1-.4.1a.438.438,0,0,1-.3-.1c-.2-.2-.2-.3-.2-.4v-.1C79.6,11.7,79.7,11.6,79.7,11.4Zm.2.7h0c.1.1.2.1.4,0,.1,0,.2,0,.2-.1.1,0,.1-.1.2-.1h.2a.7559.7559,0,0,1,.4.1c.1,0,.2.1.3.1s.1,0,.2.1H82c.1,0,.1,0,.1-.1V12l-.1-.1v-1c0-.1,0-.1-.1-.1s-.2-.1-.3-.1l-.2-.2-.1-.1a.3491.3491,0,0,0-.2-.1.0979.0979,0,0,0-.1.1c0,.1-.1.1-.1.2a.3491.3491,0,0,1-.2.1h-.2a1.38,1.38,0,0,0-.4.3.3491.3491,0,0,0-.1.2.31.31,0,0,1-.1.2.3491.3491,0,0,1-.1.2v.2A.3674.3674,0,0,0,79.9,12.1Z" fill="#9a9a90"/></g><g id="rock1_bd-17" data-name="rock1_bd" style="isolation:isolate"><path d="M84.8,7c.1-.2.1-.3.2-.4,0-.1.1-.1.3-.2.1,0,.2-.1.3-.2l.2-.2a.0979.0979,0,0,0,.1-.1.31.31,0,0,1,.2-.1h.1c.2.1.4.1.6.2.3.2.4.3.4.5v1c.1.1.2.2.2.3s-.1.2-.3.2h-1a1.0873,1.0873,0,0,0-.5.1c-.2,0-.3.1-.4.1a.438.438,0,0,1-.3-.1c-.2-.2-.2-.3-.2-.4V7.6A1.4862,1.4862,0,0,1,84.8,7Zm.2.8h0c.1.1.2.1.4,0,.1,0,.2,0,.2-.1.1,0,.1-.1.2-.1H86a.7559.7559,0,0,1,.4.1c.1,0,.2.1.3.1s.1,0,.2.1h.2c.1,0,.1,0,.1-.1V7.7l-.1-.1v-1c0-.1,0-.1-.1-.1s-.2-.1-.3-.1l-.2-.2-.1-.1a.3491.3491,0,0,0-.2-.1.0979.0979,0,0,0-.1.1c0,.1-.1.1-.1.2a.3491.3491,0,0,1-.2.1h-.2a1.38,1.38,0,0,0-.4.3.3491.3491,0,0,0-.1.2c-.1.1-.1.1-.1.2a.3491.3491,0,0,1-.1.2v.2A.3674.3674,0,0,0,85,7.8Z" fill="#9a9a90"/></g><g id="rock1_bd-18" data-name="rock1_bd" style="isolation:isolate"><path d="M76.4,5.6c.1-.2.1-.3.2-.4,0-.1.1-.1.3-.2.1,0,.2-.1.3-.2l.2-.2.2-.2a.31.31,0,0,1,.2-.1h.1c.2.1.4.1.6.2.3.2.4.3.4.5V6c.1.1.2.2.2.3s-.1.2-.3.2h-1a1.0873,1.0873,0,0,0-.5.1c-.2,0-.3.1-.4.1a.438.438,0,0,1-.3-.1c-.2-.2-.2-.3-.2-.4V6.1A.4464.4464,0,0,1,76.4,5.6Zm.2.7h0c.1.1.2.1.4,0,.1,0,.2,0,.2-.1.1,0,.1-.1.2-.1h.2a.7559.7559,0,0,1,.4.1c.1,0,.2.1.3.1s.1,0,.2.1h.2c.1,0,.1,0,.1-.1V6.2l-.1-.1v-1c0-.1,0-.1-.1-.1h-.4L78,4.8a.0979.0979,0,0,0-.1-.1.3491.3491,0,0,0-.2-.1.0979.0979,0,0,0-.1.1c0,.1-.1.1-.1.2a.3491.3491,0,0,1-.2.1h-.2a1.38,1.38,0,0,0-.4.3.3491.3491,0,0,0-.1.2.31.31,0,0,1-.1.2.3491.3491,0,0,1-.1.2v.2Z" fill="#9a9a90"/></g><g id="rock1_bd-19" data-name="rock1_bd" style="isolation:isolate"><path d="M70.2,46c.1-.2.1-.3.2-.4,0-.1.1-.1.3-.2.1,0,.2-.1.3-.2l.2-.2.2-.2a.31.31,0,0,1,.2-.1h.1c.2.1.4.1.6.2.3.2.4.3.4.5v1c.1.1.2.2.2.3s-.1.2-.3.2h-1a1.0873,1.0873,0,0,0-.5.1c-.2,0-.3.1-.4.1a.438.438,0,0,1-.3-.1c-.2-.2-.2-.3-.2-.4v-.1A.4464.4464,0,0,1,70.2,46Zm.2.7h0c.1.1.2.1.4,0,.1,0,.2,0,.2-.1.1,0,.1-.1.2-.1h.2a.7559.7559,0,0,1,.4.1c.1,0,.2.1.3.1s.1,0,.2.1h.2c.1,0,.1,0,.1-.1v-.1l-.1-.1v-1c0-.1,0-.1-.1-.1s-.2-.1-.3-.1l-.2-.2-.1-.1a.3491.3491,0,0,0-.2-.1.0979.0979,0,0,0-.1.1c0,.1-.1.1-.1.2a.3491.3491,0,0,1-.2.1H71a1.38,1.38,0,0,0-.4.3.3491.3491,0,0,0-.1.2.31.31,0,0,1-.1.2.3491.3491,0,0,1-.1.2v.2C70.3,46.6,70.3,46.6,70.4,46.7Z" fill="#9a9a90"/></g><g id="rock1_bd-20" data-name="rock1_bd" style="isolation:isolate"><path d="M75.3,41.7c.1-.2.1-.3.2-.4,0-.1.1-.1.3-.2.1,0,.2-.1.3-.2l.2-.2.2-.2a.31.31,0,0,1,.2-.1h.1c.2.1.4.1.6.2.3.2.4.3.4.5v1c.1.1.2.2.2.3s-.1.2-.3.2h-1a1.0873,1.0873,0,0,0-.5.1c-.2,0-.3.1-.4.1a.438.438,0,0,1-.3-.1c-.2-.2-.2-.3-.2-.4v-.1C75.1,42.1,75.2,41.9,75.3,41.7Zm.2.7h0c.1.1.2.1.4,0,.1,0,.2,0,.2-.1.1,0,.1-.1.2-.1h.2a.7559.7559,0,0,1,.4.1c.1,0,.2.1.3.1s.1,0,.2.1h.2c.1,0,.1,0,.1-.1v-.1l-.1-.1v-1c0-.1,0-.1-.1-.1s-.2-.1-.3-.1l-.2-.2-.1-.1a.3491.3491,0,0,0-.2-.1.0979.0979,0,0,0-.1.1c0,.1-.1.1-.1.2a.3491.3491,0,0,1-.2.1h-.2a1.38,1.38,0,0,0-.4.3.3491.3491,0,0,0-.1.2.31.31,0,0,1-.1.2.3491.3491,0,0,1-.1.2v.2C75.3,42.2,75.4,42.3,75.5,42.4Z" fill="#9a9a90"/></g><g id="rock1_bd-21" data-name="rock1_bd" style="isolation:isolate"><path d="M66.9,40.2c.1-.2.1-.3.2-.4,0-.1.1-.1.3-.2.1,0,.2-.1.3-.2l.2-.2.2-.2a.31.31,0,0,1,.2-.1h.1c.2.1.4.1.6.2.3.2.4.3.4.5v1c.1.1.2.2.2.3s-.1.2-.3.2h-1a1.0873,1.0873,0,0,0-.5.1c-.2,0-.3.1-.4.1a.438.438,0,0,1-.3-.1c-.2-.2-.2-.3-.2-.4v-.1C66.7,40.6,66.8,40.5,66.9,40.2Zm.2.8h0c.1.1.2.1.4,0,.1,0,.2,0,.2-.1.1,0,.1-.1.2-.1h.2a.7559.7559,0,0,1,.4.1c.1,0,.2.1.3.1s.1,0,.2.1h.2c.1,0,.1,0,.1-.1v-.1l-.1-.1v-1c0-.1,0-.1-.1-.1s-.2-.1-.3-.1l-.2-.2-.1-.1a.3491.3491,0,0,0-.2-.1.0979.0979,0,0,0-.1.1c0,.1-.1.1-.1.2a.3491.3491,0,0,1-.2.1h-.2a1.38,1.38,0,0,0-.4.3.3491.3491,0,0,0-.1.2.31.31,0,0,1-.1.2.3491.3491,0,0,1-.1.2v.2A.3674.3674,0,0,0,67.1,41Z" fill="#9a9a90"/></g><g id="rock2_bd-4" data-name="rock2_bd" style="isolation:isolate"><path d="M83.1,69.2v.1a.8643.8643,0,0,1-.3.6.52.52,0,0,1-.4.2,1.0873,1.0873,0,0,1-.5-.1,1.7594,1.7594,0,0,0-.6-.1H81a.6012.6012,0,0,0-.4.1c-.2,0-.3.1-.4.1h-.1c-.2,0-.4-.1-.4-.3a.7581.7581,0,0,1,.2-.4V68.2c0-.3.2-.5.5-.7a6.89,6.89,0,0,1,.8-.3h.1a.3674.3674,0,0,1,.3.1l.2.2.2.2.4.2q.3.15.3.3c.1.1.1.2.2.5A.7638.7638,0,0,0,83.1,69.2Zm-.3,0V69c0-.1-.1-.2-.1-.3a3933732386813.6865,3933732386813.6865,0,0,1-.2-.4.9984.9984,0,0,0-.5-.4h-.2a.3674.3674,0,0,1-.3-.1l-.2-.2c-.1-.1-.1-.1-.2-.1s-.1,0-.2.1a.3491.3491,0,0,1-.2.1l-.2.2a.3674.3674,0,0,1-.3.1.1385.1385,0,0,0-.2,0v1.3a.0979.0979,0,0,1-.1.1v.1a.31.31,0,0,1,.2.1h.2a.3491.3491,0,0,0,.2-.1c.1,0,.3-.1.4-.1a.9015.9015,0,0,1,.5-.1h.2c.1,0,.1,0,.2.1a.3674.3674,0,0,0,.3.1c.2,0,.3.1.4.1h.1v-.1C82.7,69.4,82.8,69.3,82.8,69.2Z" fill="#9a9a90"/></g><g id="rock1_bd-22" data-name="rock1_bd" style="isolation:isolate"><path d="M85.3,64.3c.1-.2.1-.3.2-.4,0-.1.1-.1.3-.2.1,0,.2-.1.3-.2l.2-.2.2-.2a.31.31,0,0,1,.2-.1h.1c.2.1.4.1.6.2.3.2.4.3.4.5v1c.1.1.2.2.2.3s-.1.2-.3.2h-1a1.0873,1.0873,0,0,0-.5.1c-.2,0-.3.1-.4.1a.438.438,0,0,1-.3-.1c-.2-.2-.2-.3-.2-.4v-.1C85.1,64.6,85.2,64.5,85.3,64.3Zm.2.7h0c.1.1.2.1.4,0,.1,0,.2,0,.2-.1.1,0,.1-.1.2-.1h.2a.7559.7559,0,0,1,.4.1c.1,0,.2.1.3.1s.1,0,.2.1h.2c.1,0,.1,0,.1-.1v-.1l-.1-.1v-1c0-.1,0-.1-.1-.1s-.2-.1-.3-.1l-.2-.2-.1-.1a.3491.3491,0,0,0-.2-.1.0979.0979,0,0,0-.1.1c0,.1-.1.1-.1.2a.3491.3491,0,0,1-.2.1h-.2a1.38,1.38,0,0,0-.4.3.3491.3491,0,0,0-.1.2.31.31,0,0,1-.1.2.3491.3491,0,0,1-.1.2v.2C85.3,64.8,85.4,64.9,85.5,65Z" fill="#9a9a90"/></g><g id="rock1_bd-23" data-name="rock1_bd" style="isolation:isolate"><path d="M76.9,62.8c.1-.2.1-.3.2-.4,0-.1.1-.1.3-.2.1,0,.2-.1.3-.2l.2-.2.2-.2a.31.31,0,0,1,.2-.1h.1c.2.1.4.1.6.2.3.2.4.3.4.5v1c.1.1.2.2.2.3s-.1.2-.3.2h-1a1.0873,1.0873,0,0,0-.5.1c-.2,0-.3.1-.4.1a.438.438,0,0,1-.3-.1c-.2-.2-.2-.3-.2-.4v-.1C76.7,63.2,76.8,63,76.9,62.8Zm.2.8h0c.1.1.2.1.4,0,.1,0,.2,0,.2-.1.1,0,.1-.1.2-.1h.2a.7559.7559,0,0,1,.4.1c.1,0,.2.1.3.1s.1,0,.2.1h.2c.1,0,.1,0,.1-.1v-.1l-.1-.1v-1c0-.1,0-.1-.1-.1s-.2-.1-.3-.1l-.2-.2-.1-.1a.3491.3491,0,0,0-.2-.1.0979.0979,0,0,0-.1.1c0,.1-.1.1-.1.2a.3491.3491,0,0,1-.2.1h-.2a1.38,1.38,0,0,0-.4.3.3491.3491,0,0,0-.1.2.31.31,0,0,1-.1.2c-.1.1-.1.1-.1.2v.2C76.9,63.4,77,63.5,77.1,63.6Z" fill="#9a9a90"/></g><g id="rock2_bd-5" data-name="rock2_bd" style="isolation:isolate"><path d="M58.4,89.3v.1a.8643.8643,0,0,1-.3.6.52.52,0,0,1-.4.2,1.0873,1.0873,0,0,1-.5-.1,1.7594,1.7594,0,0,0-.6-.1h-.3a.6012.6012,0,0,0-.4.1c-.2,0-.3.1-.4.1h-.1c-.2,0-.4-.1-.4-.3a.7581.7581,0,0,1,.2-.4V88.3c0-.3.2-.5.5-.7a6.89,6.89,0,0,1,.8-.3h.1a.3674.3674,0,0,1,.3.1l.2.2.2.2.4.2q.3.15.3.3c.1.1.1.2.2.5A.7638.7638,0,0,0,58.4,89.3Zm-.4,0v-.2c0-.1-.1-.2-.1-.3a.3491.3491,0,0,0-.1-.2.3491.3491,0,0,0-.1-.2.9984.9984,0,0,0-.5-.4H57a.3674.3674,0,0,1-.3-.1l-.2-.2c-.1-.1-.1-.1-.2-.1s-.1,0-.2.1a.3491.3491,0,0,1-.2.1l-.2.2a.3674.3674,0,0,1-.3.1.3491.3491,0,0,0-.2.1v1.3a.0979.0979,0,0,1-.1.1v.1a.31.31,0,0,1,.2.1h.2a.3491.3491,0,0,0,.2-.1c.1,0,.3-.1.4-.1a.9015.9015,0,0,1,.5-.1h.2c.1,0,.1,0,.2.1a.3674.3674,0,0,0,.3.1c.2,0,.3.1.4.1h.1v-.1C58,89.5,58,89.4,58,89.3Z" fill="#9a9a90"/></g><g id="rock2_bd-6" data-name="rock2_bd" style="isolation:isolate"><path d="M63.4,85v.1a.8643.8643,0,0,1-.3.6.52.52,0,0,1-.4.2,1.0873,1.0873,0,0,1-.5-.1,1.7594,1.7594,0,0,0-.6-.1h-.3a.6012.6012,0,0,0-.4.1c-.2,0-.3.1-.4.1h-.1c-.2,0-.4-.1-.4-.3a.7581.7581,0,0,1,.2-.4V84c0-.3.2-.5.5-.7a6.89,6.89,0,0,1,.8-.3h.1a.3674.3674,0,0,1,.3.1l.2.2.2.2.4.2q.3.15.3.3c.1.1.1.2.2.5A1.69,1.69,0,0,1,63.4,85Zm-.3,0v-.2c0-.1-.1-.2-.1-.3a.3491.3491,0,0,0-.1-.2.3491.3491,0,0,0-.1-.2.9984.9984,0,0,0-.5-.4h-.2a.3674.3674,0,0,1-.3-.1l-.2-.2c-.1-.1-.1-.1-.2-.1s-.1,0-.2.1a.3491.3491,0,0,1-.2.1l-.2.2a.3674.3674,0,0,1-.3.1.3491.3491,0,0,0-.2.1v1.3a.0979.0979,0,0,1-.1.1v.1a.31.31,0,0,1,.2.1h.2a.3491.3491,0,0,0,.2-.1c.1,0,.3-.1.4-.1a.9015.9015,0,0,1,.5-.1h.2c.1,0,.1,0,.2.1a.3674.3674,0,0,0,.3.1c.2,0,.3.1.4.1h.1v-.1C63,85.2,63.1,85.1,63.1,85Z" fill="#9a9a90"/></g><g id="rock2_bd-7" data-name="rock2_bd" style="isolation:isolate"><path d="M55,83.5v.1a.8643.8643,0,0,1-.3.6.52.52,0,0,1-.4.2,1.0873,1.0873,0,0,1-.5-.1,1.7594,1.7594,0,0,0-.6-.1h-.3a.6012.6012,0,0,0-.4.1c-.2,0-.3.1-.4.1H52c-.2,0-.4-.1-.4-.3a.7581.7581,0,0,1,.2-.4V82.5c0-.3.2-.5.5-.7a6.89,6.89,0,0,1,.8-.3h.1a.3674.3674,0,0,1,.3.1l.2.2.2.2.4.2q.3.15.3.3c.1.1.1.2.2.5A1.69,1.69,0,0,1,55,83.5Zm-.3,0v-.2c0-.1-.1-.2-.1-.3a.3491.3491,0,0,0-.1-.2.3491.3491,0,0,0-.1-.2.9984.9984,0,0,0-.5-.4h-.2a.3674.3674,0,0,1-.3-.1l-.2-.2c-.1-.1-.1-.1-.2-.1s-.1,0-.2.1a.3491.3491,0,0,1-.2.1l-.2.2a.3674.3674,0,0,1-.3.1.3491.3491,0,0,0-.2.1v1.3a.0979.0979,0,0,1-.1.1v.1a.31.31,0,0,1,.2.1h.2a.3491.3491,0,0,0,.2-.1c.1,0,.3-.1.4-.1a.9015.9015,0,0,1,.5-.1h.2c.1,0,.1,0,.2.1a.3674.3674,0,0,0,.3.1c.2,0,.3.1.4.1h.1v-.1A.3992.3992,0,0,0,54.7,83.5Z" fill="#9a9a90"/></g><g id="rock2_bd-8" data-name="rock2_bd" style="isolation:isolate"><path d="M13.3,92v.1a.8643.8643,0,0,1-.3.6.52.52,0,0,1-.4.2,1.0873,1.0873,0,0,1-.5-.1,1.7594,1.7594,0,0,0-.6-.1h-.3a.6012.6012,0,0,0-.4.1c-.2,0-.3.1-.4.1h-.1c-.2,0-.4-.1-.4-.3a.7581.7581,0,0,1,.2-.4V91c0-.3.2-.5.5-.7a6.89,6.89,0,0,1,.8-.3h.1a.3674.3674,0,0,1,.3.1l.2.2.2.2.4.2q.3.15.3.3c.1.1.1.2.2.5A.7638.7638,0,0,0,13.3,92Zm-.4,0v-.2c0-.1-.1-.2-.1-.3a19668661934064.363,19668661934064.363,0,0,1-.2-.4.9984.9984,0,0,0-.5-.4h-.2a.3674.3674,0,0,1-.3-.1l-.2-.2c-.1-.1-.1-.1-.2-.1s-.1,0-.2.1a.3491.3491,0,0,1-.2.1l-.2.2a.3674.3674,0,0,1-.3.1.3491.3491,0,0,0-.2.1v1.3a.0979.0979,0,0,1-.1.1v.1a.31.31,0,0,1,.2.1h.2a.3491.3491,0,0,0,.2-.1c.1,0,.3-.1.4-.1a.9015.9015,0,0,1,.5-.1h.2c.1,0,.1,0,.2.1a.3674.3674,0,0,0,.3.1c.2,0,.3.1.4.1h.1v-.1C12.9,92.2,12.9,92.1,12.9,92Z" fill="#9a9a90"/></g><g id="rock2_bd-9" data-name="rock2_bd" style="isolation:isolate"><path d="M18.3,87.6v.1a.8643.8643,0,0,1-.3.6.52.52,0,0,1-.4.2,1.0873,1.0873,0,0,1-.5-.1,1.7594,1.7594,0,0,0-.6-.1h-.3a.6012.6012,0,0,0-.4.1c-.2,0-.3.1-.4.1h-.1c-.2,0-.4-.1-.4-.3a.7581.7581,0,0,1,.2-.4V86.6c0-.3.2-.5.5-.7a6.89,6.89,0,0,1,.8-.3h.1a.3674.3674,0,0,1,.3.1l.2.2.2.2.4.2q.3.15.3.3c.1.1.1.2.2.5A1.69,1.69,0,0,1,18.3,87.6Zm-.3.1v-.2c0-.1-.1-.2-.1-.3a19668661934062.887,19668661934062.887,0,0,0-.2-.4.9984.9984,0,0,0-.5-.4H17a.3674.3674,0,0,1-.3-.1l-.2-.2c-.1-.1-.1-.1-.2-.1s-.1,0-.2.1a.3491.3491,0,0,1-.2.1l-.2.2a.3674.3674,0,0,1-.3.1.3491.3491,0,0,0-.2.1v1.3a.0979.0979,0,0,1-.1.1v.1a.31.31,0,0,1,.2.1h.2a.3491.3491,0,0,0,.2-.1c.1,0,.3-.1.4-.1a.9015.9015,0,0,1,.5-.1h.2c.1,0,.1,0,.2.1a.3674.3674,0,0,0,.3.1c.2,0,.3.1.4.1h.1v-.1C18,87.9,18,87.8,18,87.7Z" fill="#9a9a90"/></g><g id="rock2_bd-10" data-name="rock2_bd" style="isolation:isolate"><path d="M9.9,86.2v.1a.8643.8643,0,0,1-.3.6c0,.1-.2.1-.4.1H8.7a1.7594,1.7594,0,0,0-.6-.1H7.8a.6012.6012,0,0,0-.4.1H6.9c-.2,0-.4-.1-.4-.3a.7581.7581,0,0,1,.2-.4V85.1c0-.3.2-.5.5-.7a6.89,6.89,0,0,1,.8-.3h.1a.3674.3674,0,0,1,.3.1l.2.2.2.2.4.2c.1.2.2.2.3.3s.1.2.2.5A3.9326,3.9326,0,0,1,9.9,86.2Zm-.3,0V86c0-.1-.1-.2-.1-.3a.3491.3491,0,0,0-.1-.2.3491.3491,0,0,0-.1-.2.9984.9984,0,0,0-.5-.4H8.6a.3674.3674,0,0,1-.3-.1l-.2-.2c-.1-.2-.1-.2-.2-.2s-.1,0-.2.1a.3491.3491,0,0,1-.2.1l-.2.2a.3674.3674,0,0,1-.3.1.3491.3491,0,0,0-.2.1v1.3a.0979.0979,0,0,1-.1.1v.1a.31.31,0,0,1,.2.1h.2a.3491.3491,0,0,0,.2-.1c.1,0,.3-.1.4-.1a.9015.9015,0,0,1,.5-.1h.2c.1,0,.1,0,.2.1a.3674.3674,0,0,0,.3.1c.2,0,.3.1.4.1h.1v-.1C9.6,86.4,9.6,86.3,9.6,86.2Z" fill="#9a9a90"/></g><g id="Scree1"><path d="M5.8,77.8a.7458.7458,0,0,0-.6-.5s-1.1.4-1.1,1c0,0,.2.5.5.6a.684.684,0,0,0,.8,0C5.5,78.8,6.2,78.3,5.8,77.8Zm-.2.6c-.4.7-1.1-.2-1.1-.2-.4-.3.5-.7.5-.7C6.1,77.7,5.6,78.4,5.6,78.4Z" fill="#9a9a90"/></g><g id="Scree1-2" data-name="Scree1" style="isolation:isolate"><path d="M5,69.1a.7458.7458,0,0,0-.6-.5s-1.1.4-1.1,1c0,0,.2.5.5.6a.684.684,0,0,0,.8,0C4.7,70.1,5.4,69.6,5,69.1Zm-.2.7c-.4.7-1.1-.2-1.1-.2-.4-.4.6-.8.6-.8C5.3,69,4.8,69.8,4.8,69.8Z" fill="#9a9a90"/></g><g id="Scree1-3" data-name="Scree1" style="isolation:isolate"><path d="M92.9,75.9a.7458.7458,0,0,0-.6-.5s-1.1.4-1.1,1c0,0,.2.5.5.6a.684.684,0,0,0,.8,0C92.6,76.9,93.2,76.4,92.9,75.9Zm-.3.7c-.4.7-1.1-.2-1.1-.2-.4-.4.6-.8.6-.8C93.2,75.8,92.6,76.6,92.6,76.6Z" fill="#9a9a90"/></g><g id="Scree1-4" data-name="Scree1" style="isolation:isolate"><path d="M87.2,84a.7458.7458,0,0,0-.6-.5s-1.1.4-1.1,1c0,0,.2.5.5.6a.684.684,0,0,0,.8,0C86.9,85,87.6,84.4,87.2,84Zm-.2.6c-.4.7-1.1-.2-1.1-.2-.4-.4.6-.8.6-.8C87.5,83.8,87,84.6,87,84.6Z" fill="#9a9a90"/></g><g id="Scree1-5" data-name="Scree1" style="isolation:isolate"><path d="M83.9,78a.7458.7458,0,0,0-.6-.5s-1.1.4-1.1,1c0,0,.2.5.5.6a.684.684,0,0,0,.8,0C83.5,79,84.2,78.4,83.9,78Zm-.3.6c-.4.7-1.1-.2-1.1-.2-.4-.4.6-.8.6-.8C84.2,77.8,83.6,78.6,83.6,78.6Z" fill="#9a9a90"/></g><g id="Scree1-6" data-name="Scree1" style="isolation:isolate"><path d="M92,87.5a.7458.7458,0,0,0-.6-.5s-1.1.4-1.1,1c0,0,.2.5.5.6a.684.684,0,0,0,.8,0C91.6,88.4,92.3,87.9,92,87.5Zm-.3.6c-.4.7-1.1-.2-1.1-.2-.4-.4.6-.8.6-.8C92.2,87.3,91.7,88.1,91.7,88.1Z" fill="#9a9a90"/></g><g id="Scree1-7" data-name="Scree1" style="isolation:isolate"><path d="M84.4,91.1a.7458.7458,0,0,0-.6-.5s-1.1.4-1.1,1c0,0,.2.5.5.6a.684.684,0,0,0,.8,0C84,92.1,84.7,91.6,84.4,91.1Zm-.3.6c-.4.7-1.1-.2-1.1-.2-.4-.4.6-.8.6-.8C84.7,90.9,84.1,91.7,84.1,91.7Z" fill="#9a9a90"/></g><g id="Scree1-8" data-name="Scree1" style="isolation:isolate"><path d="M73.8,92.2a.7458.7458,0,0,0-.6-.5s-1.1.4-1.1,1c0,0,.2.5.5.6a.684.684,0,0,0,.8,0C73.4,93.2,74.1,92.7,73.8,92.2Zm-.3.6c-.4.7-1.1-.2-1.1-.2-.4-.4.6-.8.6-.8C74.1,92.1,73.5,92.8,73.5,92.8Z" fill="#9a9a90"/></g><g id="Scree1-9" data-name="Scree1" style="isolation:isolate"><path d="M64,91.7a.7458.7458,0,0,0-.6-.5s-1.1.4-1.1,1c0,0,.2.5.5.6a.684.684,0,0,0,.8,0C63.6,92.7,64.3,92.2,64,91.7Zm-.3.7c-.4.7-1.1-.2-1.1-.2-.4-.4.6-.8.6-.8C64.3,91.6,63.7,92.4,63.7,92.4Z" fill="#9a9a90"/></g><g id="Scree1-10" data-name="Scree1" style="isolation:isolate"><path d="M49.1,92.4a.7458.7458,0,0,0-.6-.5s-1.1.4-1.1,1c0,0,.2.5.5.6a.684.684,0,0,0,.8,0C48.8,93.3,49.5,92.8,49.1,92.4Zm-.2.6c-.4.7-1.1-.2-1.1-.2-.4-.4.6-.8.6-.8C49.4,92.2,48.9,93,48.9,93Z" fill="#9a9a90"/></g><g id="Scree1-11" data-name="Scree1" style="isolation:isolate"><path d="M37.8,90.9a.7458.7458,0,0,0-.6-.5s-1.1.4-1.1,1c0,0,.2.5.5.6a.684.684,0,0,0,.8,0C37.4,91.9,38.1,91.4,37.8,90.9Zm-.3.7c-.4.7-1.1-.2-1.1-.2-.4-.4.6-.8.6-.8C38,90.8,37.5,91.6,37.5,91.6Z" fill="#9a9a90"/></g><g id="Scree1-12" data-name="Scree1" style="isolation:isolate"><path d="M25.9,92.4a.7458.7458,0,0,0-.6-.5s-1.1.4-1.1,1c0,0,.2.5.5.6a.684.684,0,0,0,.8,0C25.5,93.3,26.2,92.8,25.9,92.4Zm-.3.6c-.4.7-1.1-.2-1.1-.2-.4-.4.6-.8.6-.8C26.2,92.2,25.6,93,25.6,93Z" fill="#9a9a90"/></g><g id="Scree1-13" data-name="Scree1" style="isolation:isolate"><path d="M18.5,91.3a.7458.7458,0,0,0-.6-.5s-1.1.4-1.1,1c0,0,.2.5.5.6a.684.684,0,0,0,.8,0C18.1,92.2,18.8,91.7,18.5,91.3Zm-.3.6c-.4.7-1.1-.2-1.1-.2-.4-.4.6-.8.6-.8C18.7,91.1,18.2,91.9,18.2,91.9Z" fill="#9a9a90"/></g><g id="Scree1-14" data-name="Scree1" style="isolation:isolate"><path d="M2.7,91.4a.7458.7458,0,0,0-.6-.5s-1.1.4-1.1,1c0,0,.2.5.5.6a.684.684,0,0,0,.8,0C2.3,92.4,3,91.9,2.7,91.4Zm-.3.6c-.4.7-1.1-.2-1.1-.2-.4-.4.6-.8.6-.8C2.9,91.3,2.4,92,2.4,92Z" fill="#9a9a90"/></g><g id="Scree1-15" data-name="Scree1" style="isolation:isolate"><path d="M15.2,81.3a.7458.7458,0,0,0-.6-.5s-1.1.4-1.1,1c0,0,.2.5.5.6a.684.684,0,0,0,.8,0C14.8,82.3,15.5,81.8,15.2,81.3Zm-.3.6c-.4.7-1.1-.2-1.1-.2-.4-.4.6-.8.6-.8C15.4,81.1,14.9,81.9,14.9,81.9Z" fill="#9a9a90"/></g><g id="Scree1-16" data-name="Scree1" style="isolation:isolate"><path d="M78.5,85.7a.7458.7458,0,0,0-.6-.5s-1.1.4-1.1,1c0,0,.2.5.5.6a.684.684,0,0,0,.8,0C78.2,86.7,78.9,86.2,78.5,85.7Zm-.2.7c-.4.7-1.1-.2-1.1-.2-.4-.4.6-.8.6-.8C78.8,85.6,78.3,86.4,78.3,86.4Z" fill="#9a9a90"/></g><g id="Scree1-17" data-name="Scree1" style="isolation:isolate"><path d="M69.4,86.5a.7458.7458,0,0,0-.6-.5s-1.1.4-1.1,1c0,0,.2.5.5.6a.684.684,0,0,0,.8,0C69,87.5,69.7,87,69.4,86.5Zm-.3.6c-.4.7-1.1-.1-1.1-.1-.4-.4.6-.8.6-.8C69.6,86.4,69.1,87.1,69.1,87.1Z" fill="#9a9a90"/></g><g id="Scree1-18" data-name="Scree1" style="isolation:isolate"><path d="M24.3,84.9a.7458.7458,0,0,0-.6-.5s-1.1.4-1.1,1c0,0,.2.5.5.6a.684.684,0,0,0,.8,0C24,85.9,24.6,85.4,24.3,84.9Zm-.3.7c-.4.7-1.1-.2-1.1-.2-.4-.4.6-.8.6-.8C24.6,84.8,24,85.6,24,85.6Z" fill="#9a9a90"/></g><g id="Scree1-19" data-name="Scree1" style="isolation:isolate"><path d="M31.3,85.6a.7458.7458,0,0,0-.6-.5s-1.1.4-1.1,1c0,0,.2.5.5.6a.684.684,0,0,0,.8,0C30.9,86.5,31.6,86,31.3,85.6Zm-.3.6c-.4.7-1.1-.2-1.1-.2-.4-.4.6-.8.6-.8C31.5,85.4,31,86.2,31,86.2Z" fill="#9a9a90"/></g><g id="Scree1-20" data-name="Scree1" style="isolation:isolate"><path d="M44.1,85.9a.7458.7458,0,0,0-.6-.5s-1.1.4-1.1,1c0,0,.2.5.5.6a.684.684,0,0,0,.8,0C43.7,86.9,44.4,86.3,44.1,85.9Zm-.3.6c-.4.7-1.1-.2-1.1-.2-.4-.4.6-.8.6-.8C44.4,85.7,43.8,86.5,43.8,86.5Z" fill="#9a9a90"/></g><g id="Scree1-21" data-name="Scree1" style="isolation:isolate"><path d="M23.2,78.8a.7458.7458,0,0,0-.6-.5s-1.1.4-1.1,1c0,0,.2.5.5.6a.684.684,0,0,0,.8,0C22.8,79.7,23.5,79.2,23.2,78.8Zm-.3.6c-.4.7-1.1-.2-1.1-.2-.4-.4.6-.8.6-.8C23.5,78.6,22.9,79.4,22.9,79.4Z" fill="#9a9a90"/></g><g id="Scree1-22" data-name="Scree1" style="isolation:isolate"><path d="M32.4,77.2a.7458.7458,0,0,0-.6-.5s-1.1.4-1.1,1c0,0,.2.5.5.6a.684.684,0,0,0,.8,0C32,78.2,32.7,77.7,32.4,77.2Zm-.3.6c-.4.7-1.1-.2-1.1-.2-.4-.4.6-.8.6-.8C32.7,77,32.1,77.8,32.1,77.8Z" fill="#9a9a90"/></g><g id="Scree1-23" data-name="Scree1" style="isolation:isolate"><path d="M38.9,81a.7458.7458,0,0,0-.6-.5s-1.1.4-1.1,1c0,0,.2.5.5.6a.684.684,0,0,0,.8,0C38.5,82,39.2,81.4,38.9,81Zm-.3.6c-.4.7-1.1-.2-1.1-.2-.4-.4.6-.8.6-.8C39.1,80.8,38.6,81.6,38.6,81.6Z" fill="#9a9a90"/></g><g id="Scree1-24" data-name="Scree1" style="isolation:isolate"><path d="M49.1,77a.7458.7458,0,0,0-.6-.5s-1.1.4-1.1,1c0,0,.2.5.5.6a.684.684,0,0,0,.8,0C48.8,78,49.5,77.5,49.1,77Zm-.2.7c-.4.7-1.1-.2-1.1-.2-.4-.4.6-.8.6-.8C49.4,76.9,48.9,77.7,48.9,77.7Z" fill="#9a9a90"/></g><g id="Scree1-25" data-name="Scree1" style="isolation:isolate"><path d="M74.3,79.4a.7458.7458,0,0,0-.6-.5s-1.1.4-1.1,1c0,0,.2.5.5.6a.684.684,0,0,0,.8,0C73.9,80.4,74.6,79.9,74.3,79.4ZM74,80c-.4.7-1.1-.2-1.1-.2-.4-.4.6-.8.6-.8C74.5,79.3,74,80,74,80Z" fill="#9a9a90"/></g><g id="Scree1-26" data-name="Scree1" style="isolation:isolate"><path d="M67.9,75.3a.7458.7458,0,0,0-.6-.5s-1.1.4-1.1,1c0,0,.2.5.5.6a.684.684,0,0,0,.8,0C67.6,76.3,68.3,75.8,67.9,75.3Zm-.2.6c-.4.7-1.1-.2-1.1-.2-.4-.4.6-.8.6-.8C68.2,75.1,67.7,75.9,67.7,75.9Z" fill="#9a9a90"/></g><g id="Scree1-27" data-name="Scree1" style="isolation:isolate"><path d="M58.9,79.7a.7458.7458,0,0,0-.6-.5s-1.1.4-1.1,1c0,0,.2.5.5.6a.684.684,0,0,0,.8,0C58.6,80.7,59.3,80.2,58.9,79.7Zm-.2.6c-.4.7-1.1-.2-1.1-.2-.4-.4.6-.8.6-.8C59.2,79.6,58.7,80.3,58.7,80.3Z" fill="#9a9a90"/></g><g id="Scree1-28" data-name="Scree1" style="isolation:isolate"><path d="M76.8,72a.7458.7458,0,0,0-.6-.5s-1.1.4-1.1,1c0,0,.2.5.5.6a.684.684,0,0,0,.8,0C76.4,72.9,77.1,72.4,76.8,72Zm-.3.6c-.4.7-1.1-.2-1.1-.2-.3-.4.6-.7.6-.7C77.1,71.8,76.5,72.6,76.5,72.6Z" fill="#9a9a90"/></g><g id="Scree1-29" data-name="Scree1" style="isolation:isolate"><path d="M89.3,70.7a.7458.7458,0,0,0-.6-.5s-1.1.4-1.1,1c0,0,.2.5.5.6a.684.684,0,0,0,.8,0C88.9,71.7,89.6,71.2,89.3,70.7Zm-.3.6c-.4.7-1.1-.2-1.1-.2-.4-.4.6-.8.6-.8C89.6,70.6,89,71.3,89,71.3Z" fill="#9a9a90"/></g><g id="Scree1-30" data-name="Scree1" style="isolation:isolate"><path d="M28.3,69.8a.7458.7458,0,0,0-.6-.5s-1.1.4-1.1,1c0,0,.2.5.5.6a.684.684,0,0,0,.8,0C27.9,70.7,28.6,70.2,28.3,69.8Zm-.3.6c-.4.7-1.1-.2-1.1-.2-.4-.4.6-.8.6-.8C28.5,69.6,28,70.4,28,70.4Z" fill="#9a9a90"/></g><g id="Scree1-31" data-name="Scree1" style="isolation:isolate"><path d="M37.4,72a.7458.7458,0,0,0-.6-.5s-1.1.4-1.1,1c0,0,.2.5.5.6a.684.684,0,0,0,.8,0C37.1,72.9,37.8,72.4,37.4,72Zm-.2.6c-.4.7-1.1-.2-1.1-.2-.4-.4.6-.8.6-.8C37.7,71.8,37.2,72.6,37.2,72.6Z" fill="#9a9a90"/></g><g id="Scree1-32" data-name="Scree1" style="isolation:isolate"><path d="M45.5,69.3a.7458.7458,0,0,0-.6-.5s-1.1.4-1.1,1c0,0,.2.5.5.6a.684.684,0,0,0,.8,0C45.1,70.3,45.8,69.7,45.5,69.3Zm-.3.6c-.4.7-1.1-.2-1.1-.2-.4-.4.6-.8.6-.8C45.8,69.1,45.2,69.9,45.2,69.9Z" fill="#9a9a90"/></g><g id="Scree1-33" data-name="Scree1" style="isolation:isolate"><path d="M58.5,71.3a.7458.7458,0,0,0-.6-.5s-1.1.4-1.1,1c0,0,.2.5.5.6a.684.684,0,0,0,.8,0C58.1,72.3,58.8,71.8,58.5,71.3Zm-.3.7c-.4.7-1.1-.2-1.1-.2-.4-.4.6-.8.6-.8C58.7,71.2,58.2,72,58.2,72Z" fill="#9a9a90"/></g><g id="Scree1-34" data-name="Scree1" style="isolation:isolate"><path d="M68.6,68.8a.7458.7458,0,0,0-.6-.5s-1.1.4-1.1,1c0,0,.2.5.5.6a.684.684,0,0,0,.8,0C68.2,69.8,68.9,69.3,68.6,68.8Zm-.3.6c-.4.7-1.1-.2-1.1-.2-.4-.4.6-.8.6-.8C68.9,68.7,68.3,69.4,68.3,69.4Z" fill="#9a9a90"/></g><g id="Scree1-35" data-name="Scree1" style="isolation:isolate"><path d="M26.2,54.3a.7458.7458,0,0,0-.6-.5s-1.1.4-1.1,1c0,0,.2.5.5.6a.684.684,0,0,0,.8,0C25.8,55.2,26.5,54.7,26.2,54.3Zm-.3.6c-.4.7-1.1-.2-1.1-.2-.4-.4.6-.8.6-.8C26.5,54.1,25.9,54.9,25.9,54.9Z" fill="#9a9a90"/></g><g id="Scree1-36" data-name="Scree1" style="isolation:isolate"><path d="M26.5,41.5a.7458.7458,0,0,0-.6-.5s-1.1.4-1.1,1c0,0,.2.5.5.6a.684.684,0,0,0,.8,0C26.2,42.4,26.9,41.9,26.5,41.5Zm-.2.6c-.4.7-1.1-.2-1.1-.2-.4-.4.6-.8.6-.8C26.8,41.3,26.3,42.1,26.3,42.1Z" fill="#9a9a90"/></g><g id="Scree1-37" data-name="Scree1" style="isolation:isolate"><path d="M29.2,30.6a.7458.7458,0,0,0-.6-.5s-1.1.4-1.1,1c0,0,.2.5.5.6a.684.684,0,0,0,.8,0C28.9,31.5,29.5,31,29.2,30.6Zm-.3.6c-.4.7-1.1-.2-1.1-.2-.4-.4.6-.8.6-.8C29.5,30.4,28.9,31.2,28.9,31.2Z" fill="#9a9a90"/></g><g id="Scree1-38" data-name="Scree1" style="isolation:isolate"><path d="M26.4,17.4a.7458.7458,0,0,0-.6-.5s-1.1.4-1.1,1c0,0,.2.5.5.6a.684.684,0,0,0,.8,0C26,18.4,26.7,17.9,26.4,17.4Zm-.3.7c-.4.7-1.1-.2-1.1-.2-.4-.4.6-.8.6-.8C26.6,17.3,26.1,18.1,26.1,18.1Z" fill="#9a9a90"/></g><g id="Scree1-39" data-name="Scree1" style="isolation:isolate"><path d="M24.8,6.1a.7458.7458,0,0,0-.6-.5s-1.1.4-1.1,1c0,0,.2.5.5.6a.684.684,0,0,0,.8,0C24.4,7,25.1,6.5,24.8,6.1Zm-.3.6c-.4.7-1.1-.2-1.1-.2-.3-.4.6-.8.6-.8C25.1,5.9,24.5,6.7,24.5,6.7Z" fill="#9a9a90"/></g><g id="Scree1-40" data-name="Scree1" style="isolation:isolate"><path d="M21,60.1a.7458.7458,0,0,0-.6-.5s-1.1.4-1.1,1c0,0,.2.5.5.6a.684.684,0,0,0,.8,0C20.6,61.1,21.3,60.6,21,60.1Zm-.3.6c-.4.7-1.1-.2-1.1-.2-.4-.4.6-.8.6-.8C21.3,60,20.7,60.7,20.7,60.7Z" fill="#9a9a90"/></g><g id="Scree1-41" data-name="Scree1" style="isolation:isolate"><path d="M31.8,61.9a.7458.7458,0,0,0-.6-.5s-1.1.4-1.1,1c0,0,.2.5.5.6a.684.684,0,0,0,.8,0C31.4,62.8,32.1,62.3,31.8,61.9Zm-.3.6c-.4.7-1.1-.2-1.1-.2-.4-.4.6-.8.6-.8C32,61.7,31.5,62.5,31.5,62.5Z" fill="#9a9a90"/></g><g id="Scree1-42" data-name="Scree1" style="isolation:isolate"><path d="M28.7,45.7a.7458.7458,0,0,0-.6-.5s-1.1.4-1.1,1c0,0,.2.5.5.6a.684.684,0,0,0,.8,0C28.4,46.7,29.1,46.2,28.7,45.7Zm-.2.7c-.4.7-1.1-.2-1.1-.2-.4-.4.6-.8.6-.8C29,45.6,28.5,46.4,28.5,46.4Z" fill="#9a9a90"/></g><g id="Scree1-43" data-name="Scree1" style="isolation:isolate"><path d="M66.7,3.2a.7458.7458,0,0,0-.6-.5s-1.1.4-1.1,1c0,0,.2.5.5.6a.684.684,0,0,0,.8,0C66.3,4.2,67,3.7,66.7,3.2Zm-.3.6c-.4.7-1.1-.2-1.1-.2-.4-.4.6-.8.6-.8C67,3.1,66.4,3.8,66.4,3.8Z" fill="#9a9a90"/></g><g id="Scree1-44" data-name="Scree1" style="isolation:isolate"><path d="M64.9,10.6a.7458.7458,0,0,0-.6-.5s-1.1.4-1.1,1c0,0,.2.5.5.6a.684.684,0,0,0,.8,0C64.6,11.6,65.3,11.1,64.9,10.6Zm-.2.7c-.4.7-1.1-.2-1.1-.2-.4-.4.6-.8.6-.8C65.2,10.5,64.7,11.3,64.7,11.3Z" fill="#9a9a90"/></g><g id="Scree1-45" data-name="Scree1" style="isolation:isolate"><path d="M61.9,19.3a.7458.7458,0,0,0-.6-.5s-1.1.4-1.1,1c0,0,.2.5.5.6a.684.684,0,0,0,.8,0C61.6,20.3,62.3,19.8,61.9,19.3Zm-.2.7c-.4.7-1.1-.2-1.1-.2-.4-.4.6-.8.6-.8C62.2,19.2,61.7,20,61.7,20Z" fill="#9a9a90"/></g><g id="Scree1-46" data-name="Scree1" style="isolation:isolate"><path d="M61.9,28.1a.7458.7458,0,0,0-.6-.5s-1.1.4-1.1,1c0,0,.2.5.5.6a.684.684,0,0,0,.8,0C61.6,29.1,62.3,28.6,61.9,28.1Zm-.2.6c-.4.7-1.1-.2-1.1-.2-.4-.4.6-.8.6-.8C62.2,28,61.7,28.7,61.7,28.7Z" fill="#9a9a90"/></g><g id="Scree1-47" data-name="Scree1" style="isolation:isolate"><path d="M56.9,32.9a.7458.7458,0,0,0-.6-.5s-1.1.4-1.1,1c0,0,.2.5.5.6a.684.684,0,0,0,.8,0C56.5,33.9,57.2,33.4,56.9,32.9Zm-.3.7c-.4.7-1.1-.2-1.1-.2-.4-.4.6-.8.6-.8C57.2,32.8,56.6,33.6,56.6,33.6Z" fill="#9a9a90"/></g><g id="Scree1-48" data-name="Scree1" style="isolation:isolate"><path d="M54.7,39.1a.7458.7458,0,0,0-.6-.5s-1.1.4-1.1,1c0,0,.2.5.5.6a.684.684,0,0,0,.8,0C54.3,40.1,55,39.6,54.7,39.1Zm-.3.6c-.4.7-1.1-.2-1.1-.2-.4-.4.6-.8.6-.8C54.9,38.9,54.4,39.7,54.4,39.7Z" fill="#9a9a90"/></g><g id="Scree1-49" data-name="Scree1" style="isolation:isolate"><path d="M53.7,46.6a.7458.7458,0,0,0-.6-.5s-1.1.4-1.1,1c0,0,.2.5.5.6a.684.684,0,0,0,.8,0C53.3,47.5,54,47,53.7,46.6Zm-.3.6c-.4.6-1.1-.2-1.1-.2-.4-.4.6-.8.6-.8C54,46.4,53.4,47.2,53.4,47.2Z" fill="#9a9a90"/></g><g id="Scree1-50" data-name="Scree1" style="isolation:isolate"><path d="M51.4,53.8a.7458.7458,0,0,0-.6-.5s-1.1.4-1.1,1c0,0,.2.5.5.6a.684.684,0,0,0,.8,0C51,54.8,51.7,54.3,51.4,53.8Zm-.3.6c-.4.7-1.1-.2-1.1-.2-.4-.4.6-.8.6-.8C51.6,53.6,51.1,54.4,51.1,54.4Z" fill="#9a9a90"/></g><g id="Scree1-51" data-name="Scree1" style="isolation:isolate"><path d="M63.4,36.3a.7458.7458,0,0,0-.6-.5s-1.1.4-1.1,1c0,0,.2.5.5.6a.684.684,0,0,0,.8,0C63,37.2,63.7,36.7,63.4,36.3Zm-.3.6c-.4.7-1.1-.2-1.1-.2-.4-.4.6-.8.6-.8C63.6,36.1,63.1,36.9,63.1,36.9Z" fill="#9a9a90"/></g><g id="Scree1-52" data-name="Scree1" style="isolation:isolate"><path d="M64.5,42.3a.7458.7458,0,0,0-.6-.5s-1.1.4-1.1,1c0,0,.2.5.5.6a.684.684,0,0,0,.8,0C64.1,43.2,64.8,42.7,64.5,42.3Zm-.3.6c-.4.7-1.1-.2-1.1-.2-.4-.4.6-.8.6-.8C64.7,42.1,64.2,42.9,64.2,42.9Z" fill="#9a9a90"/></g><g id="Scree1-53" data-name="Scree1" style="isolation:isolate"><path d="M65.9,49.4a.7458.7458,0,0,0-.6-.5s-1.1.4-1.1,1c0,0,.2.5.5.6a.684.684,0,0,0,.8,0C65.5,50.3,66.2,49.8,65.9,49.4Zm-.3.6c-.4.7-1.1-.2-1.1-.2-.4-.4.6-.8.6-.8C66.2,49.2,65.6,50,65.6,50Z" fill="#9a9a90"/></g><g id="Scree1-54" data-name="Scree1" style="isolation:isolate"><path d="M62.3,63.4a.7458.7458,0,0,0-.6-.5s-1.1.4-1.1,1c0,0,.2.5.5.6a.684.684,0,0,0,.8,0C61.9,64.4,62.6,63.9,62.3,63.4Zm-.3.7c-.4.7-1.1-.2-1.1-.2-.4-.4.6-.8.6-.8C62.5,63.3,62,64.1,62,64.1Z" fill="#9a9a90"/></g><g id="Scree1-55" data-name="Scree1" style="isolation:isolate"><path d="M64.5,56.3a.7458.7458,0,0,0-.6-.5s-1.1.4-1.1,1c0,0,.2.5.5.6a.684.684,0,0,0,.8,0C64.1,57.3,64.8,56.8,64.5,56.3Zm-.3.7c-.4.7-1.1-.2-1.1-.2-.4-.4.6-.8.6-.8C64.7,56.2,64.2,57,64.2,57Z" fill="#9a9a90"/></g><g id="Scree1-56" data-name="Scree1" style="isolation:isolate"><path d="M69.8,60.9a.7458.7458,0,0,0-.6-.5s-1.1.4-1.1,1c0,0,.2.5.5.6a.684.684,0,0,0,.8,0C69.5,61.9,70.2,61.4,69.8,60.9Zm-.2.6c-.4.7-1.1-.2-1.1-.2-.4-.3.5-.7.5-.7C70.1,60.8,69.6,61.5,69.6,61.5Z" fill="#9a9a90"/></g><g id="Scree1-57" data-name="Scree1" style="isolation:isolate"><path d="M69.7,33.1a.7458.7458,0,0,0-.6-.5s-1.1.4-1.1,1c0,0,.2.5.5.6a.684.684,0,0,0,.8,0C69.3,34.1,70,33.6,69.7,33.1Zm-.3.6c-.4.7-1.1-.2-1.1-.2-.4-.4.6-.8.6-.8C70,32.9,69.4,33.7,69.4,33.7Z" fill="#9a9a90"/></g><g id="Scree1-58" data-name="Scree1" style="isolation:isolate"><path d="M75.5,36.6a.7458.7458,0,0,0-.6-.5s-1.1.4-1.1,1c0,0,.2.5.5.6a.684.684,0,0,0,.8,0C75.2,37.5,75.9,37,75.5,36.6Zm-.2.6c-.4.7-1.1-.2-1.1-.2-.4-.4.6-.8.6-.8C75.8,36.4,75.3,37.2,75.3,37.2Z" fill="#9a9a90"/></g><g id="Scree2"><path d="M7.8,4a.5227.5227,0,0,0-.7,0l-.3.2v.2l.3.2s.5.1.6-.1L8,4.1Zm-.1.4c-.1.2-.5.1-.5.1C7,4.4,7,4.3,7,4.3c0-.2.3-.2.3-.2h.4Z" fill="#9a9a90"/></g><g id="Scree2-2" data-name="Scree2" style="isolation:isolate"><path d="M7.3,8.6a.5227.5227,0,0,0-.7,0l-.2.2V9l.3.2s.5.1.6-.1l.2-.5ZM7.2,9c-.1.2-.5.1-.5.1-.2-.2-.1-.3-.1-.3,0-.2.3-.2.3-.2h.4Z" fill="#9a9a90"/></g><g id="Scree2-3" data-name="Scree2" style="isolation:isolate"><path d="M7.2,15.4a.5227.5227,0,0,0-.7,0l-.3.2v.2l.4.2s.5.1.6-.1l.2-.5Zm-.1.4c-.1.2-.5.1-.5.1-.2-.1-.2-.2-.2-.2,0-.2.3-.2.3-.2h.4Z" fill="#9a9a90"/></g><g id="Scree2-4" data-name="Scree2" style="isolation:isolate"><path d="M13.4,11a.5227.5227,0,0,0-.7,0l-.3.2v.2l.3.2s.5.1.6-.1l.2-.5Zm-.1.3c-.1.2-.5.1-.5.1-.2-.1-.2-.2-.2-.2.1-.2.4-.2.4-.2h.4Z" fill="#9a9a90"/></g><g id="Scree2-5" data-name="Scree2" style="isolation:isolate"><path d="M2.2,18.8a.5227.5227,0,0,0-.7,0l-.3.2v.2l.3.2s.5.1.6-.1l.2-.5Zm-.1.4c-.1.2-.5.1-.5.1-.2-.2-.2-.3-.2-.3,0-.2.3-.2.3-.2h.4Z" fill="#9a9a90"/></g><g id="Scree2-6" data-name="Scree2" style="isolation:isolate"><path d="M3.3,12.6a.5227.5227,0,0,0-.7,0l-.3.2V13l.3.2s.5.1.6-.1l.2-.5Zm-.1.4c-.1.2-.5.1-.5.1-.2-.1-.2-.2-.2-.2,0-.2.3-.2.3-.2h.4Z" fill="#9a9a90"/></g><g id="Scree2-7" data-name="Scree2" style="isolation:isolate"><path d="M2.4,26.1a.5227.5227,0,0,0-.7,0l-.3.2v.2l.3.2s.5.1.6-.1l.2-.5Zm-.1.4c-.1.2-.5.1-.5.1-.2-.1-.2-.2-.2-.2,0-.2.3-.2.3-.2h.4Z" fill="#9a9a90"/></g><g id="Scree2-8" data-name="Scree2" style="isolation:isolate"><path d="M5.8,21.1a.5227.5227,0,0,0-.7,0l-.3.2v.2l.3.2s.5.1.6-.1l.2-.5Zm-.1.4c-.1.2-.5.1-.5.1-.2-.2-.2-.3-.2-.3,0-.2.3-.2.3-.2h.4Z" fill="#9a9a90"/></g><g id="Scree2-9" data-name="Scree2" style="isolation:isolate"><path d="M6.1,30.6a.5227.5227,0,0,0-.7,0l-.3.2V31l.3.2s.5.1.6-.1l.2-.5Zm-.1.3c-.1.2-.5.1-.5.1-.2-.1-.2-.2-.2-.2,0-.2.3-.2.3-.2H6Z" fill="#9a9a90"/></g><g id="Scree2-10" data-name="Scree2" style="isolation:isolate"><path d="M10.9,20.3a.5227.5227,0,0,0-.7,0l-.3.2v.2l.3.2s.5.1.6-.1l.2-.5Zm-.1.4c-.1.2-.5.1-.5.1-.2-.1-.2-.2-.2-.2,0-.2.3-.2.3-.2h.4Z" fill="#9a9a90"/></g><g id="Scree2-11" data-name="Scree2" style="isolation:isolate"><path d="M12.2,25.2a.5227.5227,0,0,0-.7,0l-.3.2v.2l.3.2s.5.1.6-.1l.2-.5Zm-.1.4c-.1.2-.5.1-.5.1-.2-.1-.2-.2-.2-.2,0-.2.3-.2.3-.2h.4Z" fill="#9a9a90"/></g><g id="Scree2-12" data-name="Scree2" style="isolation:isolate"><path d="M12.6,29.9a.5227.5227,0,0,0-.7,0l-.3.2v.2l.3.2s.5.1.6-.1l.2-.5Zm-.1.4c-.1.2-.5.1-.5.1-.2-.1-.2-.2-.2-.2,0-.2.3-.2.3-.2h.4Z" fill="#9a9a90"/></g><g id="Scree2-13" data-name="Scree2" style="isolation:isolate"><path d="M10.2,34.8a.5227.5227,0,0,0-.7,0l-.3.2v.2l.3.2s.5.1.6-.1l.2-.5Zm-.1.3c-.1.2-.5.1-.5.1-.2-.1-.2-.2-.2-.2,0-.2.3-.2.3-.2h.4Z" fill="#9a9a90"/></g><g id="Scree2-14" data-name="Scree2" style="isolation:isolate"><path d="M14.8,35.4a.5227.5227,0,0,0-.7,0l-.3.2v.2l.3.2s.5.1.6-.1l.2-.5Zm-.1.4c-.1.2-.5.1-.5.1-.2-.1-.2-.2-.2-.2,0-.2.3-.2.3-.2h.4Z" fill="#9a9a90"/></g><g id="Scree2-15" data-name="Scree2" style="isolation:isolate"><path d="M17.2,40.4a.5227.5227,0,0,0-.7,0l-.3.2v.2l.3.2s.5.1.6-.1l.2-.5Zm-.1.4c-.1.2-.5.1-.5.1-.2-.1-.2-.2-.2-.2,0-.2.3-.2.3-.2h.4Z" fill="#9a9a90"/></g><g id="Scree2-16" data-name="Scree2" style="isolation:isolate"><path d="M13.3,44.4a.5227.5227,0,0,0-.7,0l-.3.2v.2l.3.2s.5.1.6-.1l.2-.5Zm-.1.4c-.1.2-.5.1-.5.1-.2-.1-.2-.2-.2-.2,0-.2.3-.2.3-.2h.4Z" fill="#9a9a90"/></g><g id="Scree2-17" data-name="Scree2" style="isolation:isolate"><path d="M8.4,38.8a.5227.5227,0,0,0-.7,0l-.2.2v.2l.3.2s.5.1.6-.1l.2-.5Zm-.1.4c-.1.2-.5.1-.5.1-.2-.2-.1-.3-.1-.3,0-.2.3-.2.3-.2h.4Z" fill="#9a9a90"/></g><g id="Scree2-18" data-name="Scree2" style="isolation:isolate"><path d="M3.6,43a.5227.5227,0,0,0-.7,0l-.3.2v.2l.4.2s.5.1.6-.1l.2-.5Zm-.1.4c-.1.2-.5.1-.5.1-.2-.1-.2-.2-.2-.2a.4373.4373,0,0,1,.4-.3h.4Z" fill="#9a9a90"/></g><g id="Scree2-19" data-name="Scree2" style="isolation:isolate"><path d="M22,2.7a.5227.5227,0,0,0-.7,0l-.3.2v.2l.3.2s.5.1.6-.1l.2-.5Zm-.1.3c-.1.2-.5.1-.5.1-.2-.1-.2-.2-.2-.2,0-.2.3-.2.3-.2h.4Z" fill="#9a9a90"/></g><g id="Scree2-20" data-name="Scree2" style="isolation:isolate"><path d="M21.1,7.5a.5227.5227,0,0,0-.7,0l-.3.2v.2l.3.2s.5.1.6-.1l.2-.5Zm-.1.4c-.1.2-.5.1-.5.1-.2-.1-.2-.2-.2-.2,0-.2.3-.2.3-.2H21Z" fill="#9a9a90"/></g><g id="Scree2-21" data-name="Scree2" style="isolation:isolate"><path d="M20.6,11.8a.5227.5227,0,0,0-.7,0l-.3.2v.2l.3.2s.5.1.6-.1l.2-.5Zm-.1.4c-.1.2-.5.1-.5.1-.2-.1-.2-.2-.2-.2,0-.2.3-.2.3-.2h.4Z" fill="#9a9a90"/></g><g id="Scree2-22" data-name="Scree2" style="isolation:isolate"><path d="M19.4,16a.5227.5227,0,0,0-.7,0l-.3.2v.2l.3.2s.5.1.6-.1l.2-.5Zm-.1.4c-.1.2-.5.1-.5.1-.2-.1-.2-.2-.2-.2,0-.2.3-.2.3-.2h.4Z" fill="#9a9a90"/></g><g id="Scree2-23" data-name="Scree2" style="isolation:isolate"><path d="M18.3,20.7a.5227.5227,0,0,0-.7,0l-.3.2v.2l.3.2s.5.1.6-.1l.2-.5Zm-.1.4c-.1.2-.5.1-.5.1-.2-.1-.2-.2-.2-.2,0-.2.3-.2.3-.2h.4Z" fill="#9a9a90"/></g><g id="Scree2-24" data-name="Scree2" style="isolation:isolate"><path d="M23.7,11.9a.5227.5227,0,0,0-.7,0l-.3.2v.2l.3.2s.5.1.6-.1l.2-.5Zm-.1.4c-.1.2-.5.1-.5.1-.2-.1-.2-.2-.2-.2,0-.2.3-.2.3-.2h.4Z" fill="#9a9a90"/></g><g id="Scree2-25" data-name="Scree2" style="isolation:isolate"><path d="M27.4,20.9a.5227.5227,0,0,0-.7,0l-.3.2v.2l.3.2s.5.1.6-.1l.2-.5Zm-.1.4c-.1.2-.5.1-.5.1-.2-.1-.2-.2-.2-.2.1-.2.4-.2.4-.2h.4Z" fill="#9a9a90"/></g><g id="Scree2-26" data-name="Scree2" style="isolation:isolate"><path d="M22.7,22.3a.5227.5227,0,0,0-.7,0l-.3.2v.2l.3.3s.5.1.6-.1l.2-.5Zm-.1.4c-.1.2-.5.1-.5.1-.2-.1-.2-.2-.2-.2,0-.2.3-.2.3-.2h.4Z" fill="#9a9a90"/></g><g id="Scree2-27" data-name="Scree2" style="isolation:isolate"><path d="M36.3,2.8a.5227.5227,0,0,0-.7,0l-.2.2v.2l.3.2s.5.1.6-.1l.2-.5Zm-.1.4c-.1.2-.5.1-.5.1-.2-.1-.2-.2-.2-.2,0-.2.3-.2.3-.2h.4Z" fill="#9a9a90"/></g><g id="Scree2-28" data-name="Scree2" style="isolation:isolate"><path d="M35.3,6.5a.5227.5227,0,0,0-.7,0l-.3.2v.2l.3.2s.5.1.6-.1l.2-.5Zm-.1.3c-.1.2-.5.1-.5.1-.2-.1-.2-.2-.2-.2,0-.2.3-.2.3-.2h.4Z" fill="#9a9a90"/></g><g id="Scree2-29" data-name="Scree2" style="isolation:isolate"><path d="M34.5,9.3a.5227.5227,0,0,0-.7,0l-.3.2v.2l.3.2s.5.1.6-.1l.2-.5Zm-.1.4c-.1.2-.5.1-.5.1-.2-.1-.2-.2-.2-.2,0-.2.3-.2.3-.2h.4Z" fill="#9a9a90"/></g><g id="Scree2-30" data-name="Scree2" style="isolation:isolate"><path d="M33.1,14a.5227.5227,0,0,0-.7,0l-.3.2v.2l.3.2s.5.1.6-.1l.2-.5Zm-.1.4c-.1.2-.5.1-.5.1-.2-.1-.2-.2-.2-.2,0-.2.3-.2.3-.2H33Z" fill="#9a9a90"/></g><g id="Scree2-31" data-name="Scree2" style="isolation:isolate"><path d="M31.9,19.1a.5227.5227,0,0,0-.7,0l-.3.2v.2l.3.2s.5.1.6-.1l.2-.5Zm-.1.4c-.1.2-.5.1-.5.1-.2-.1-.2-.2-.2-.2,0-.2.3-.2.3-.2h.4Z" fill="#9a9a90"/></g><g id="Scree2-32" data-name="Scree2" style="isolation:isolate"><path d="M35.5,18.6a.5227.5227,0,0,0-.7,0l-.3.2V19l.3.2s.5.1.6-.1l.2-.5Zm-.1.4c-.1.2-.5.1-.5.1-.2-.1-.2-.2-.2-.2,0-.2.3-.2.3-.2h.4Z" fill="#9a9a90"/></g><g id="Scree2-33" data-name="Scree2" style="isolation:isolate"><path d="M36.8,22a.5227.5227,0,0,0-.7,0l-.3.2v.2l.3.2s.5.1.6-.1l.2-.5Zm-.1.4c-.1.2-.5.1-.5.1-.2-.1-.2-.2-.2-.2,0-.2.3-.2.3-.2h.4Z" fill="#9a9a90"/></g><g id="Scree2-34" data-name="Scree2" style="isolation:isolate"><path d="M38,25.4a.5227.5227,0,0,0-.7,0l-.3.2v.2l.3.2s.5.1.6-.1l.2-.5Zm-.1.4c-.1.2-.5.1-.5.1-.2-.1-.2-.2-.2-.2,0-.2.3-.2.3-.2h.4Z" fill="#9a9a90"/></g><g id="Scree2-35" data-name="Scree2" style="isolation:isolate"><path d="M37.1,29.4a.5227.5227,0,0,0-.7,0l-.3.2v.2l.3.2s.5.1.6-.1l.2-.5Zm-.1.4c-.1.2-.5.1-.5.1-.2-.1-.2-.2-.2-.2,0-.2.3-.2.3-.2H37Z" fill="#9a9a90"/></g><g id="Scree2-36" data-name="Scree2" style="isolation:isolate"><path d="M34.8,33.6a.5227.5227,0,0,0-.7,0l-.3.2V34l.3.2s.5.1.6-.1l.2-.5Zm-.1.4c-.1.2-.5.1-.5.1-.2-.1-.2-.2-.2-.2,0-.2.3-.2.3-.2h.4Z" fill="#9a9a90"/></g><g id="Scree2-37" data-name="Scree2" style="isolation:isolate"><path d="M31.1,39.4a.5227.5227,0,0,0-.7,0l-.3.2v.2l.3.2s.5.1.6-.1l.2-.5Zm-.1.4c-.1.2-.5.1-.5.1-.2-.1-.2-.2-.2-.2,0-.2.3-.2.3-.2H31Z" fill="#9a9a90"/></g><g id="Scree2-38" data-name="Scree2" style="isolation:isolate"><path d="M39.2,32.9a.5227.5227,0,0,0-.7,0l-.3.2v.2l.3.2s.5.1.6-.1l.2-.5Zm-.1.4c-.1.2-.5.1-.5.1-.2-.1-.2-.2-.2-.2,0-.2.3-.2.3-.2h.4Z" fill="#9a9a90"/></g><g id="Scree2-39" data-name="Scree2" style="isolation:isolate"><path d="M40.4,37.2a.5227.5227,0,0,0-.7,0l-.3.2v.2l.3.2s.5.1.6-.1l.2-.5Zm-.1.4c-.1.2-.5.1-.5.1-.2-.1-.2-.2-.2-.2,0-.2.3-.2.3-.2h.4Z" fill="#9a9a90"/></g><g id="Scree2-40" data-name="Scree2" style="isolation:isolate"><path d="M40.8,42.6a.5227.5227,0,0,0-.7,0l-.3.2V43l.3.2s.5.1.6-.1l.2-.5Zm-.1.4c-.1.2-.5.1-.5.1-.2-.2-.2-.3-.2-.3,0-.2.3-.2.3-.2h.4Z" fill="#9a9a90"/></g><g id="Scree2-41" data-name="Scree2" style="isolation:isolate"><path d="M41.3,48a.5227.5227,0,0,0-.7,0l-.3.2v.2l.3.2s.5.1.6-.1l.2-.5Zm-.1.4c-.1.2-.5.1-.5.1-.2-.1-.2-.2-.2-.2,0-.2.3-.2.3-.2h.4Z" fill="#9a9a90"/></g><g id="Scree2-42" data-name="Scree2" style="isolation:isolate"><path d="M45.1,53.3a.5227.5227,0,0,0-.7,0l-.3.2v.2l.3.2s.5.1.6-.1l.2-.5Zm-.1.4c-.1.2-.5.1-.5.1-.2-.1-.2-.2-.2-.2,0-.2.3-.2.3-.2H45Z" fill="#9a9a90"/></g><g id="Scree2-43" data-name="Scree2" style="isolation:isolate"><path d="M39.2,54.5a.5227.5227,0,0,0-.7,0l-.3.2v.2l.3.2s.5.1.6-.1l.2-.5Zm-.1.4c-.1.2-.5.1-.5.1-.2-.1-.2-.2-.2-.2,0-.2.3-.2.3-.2h.4Z" fill="#9a9a90"/></g><g id="Scree2-44" data-name="Scree2" style="isolation:isolate"><path d="M38,60.1a.5227.5227,0,0,0-.7,0l-.3.2v.2l.3.2s.5.1.6-.1l.2-.5Zm-.1.4c-.1.2-.5.1-.5.1-.2-.1-.2-.2-.2-.2,0-.2.3-.2.3-.2h.4Z" fill="#9a9a90"/></g><g id="Scree2-45" data-name="Scree2" style="isolation:isolate"><path d="M17.4,65.5a.5227.5227,0,0,0-.7,0l-.3.2V66l.3.2s.5.1.6-.1l.2-.5Zm-.1.4c-.1.2-.5.1-.5.1-.2-.1-.2-.2-.2-.2,0-.2.3-.2.3-.2h.4Z" fill="#9a9a90"/></g><g id="Scree2-46" data-name="Scree2" style="isolation:isolate"><path d="M74.3,66.6a.5227.5227,0,0,0-.7,0l-.3.2V67l.3.2s.5.1.6-.1l.2-.5Zm-.1.4c-.1.2-.5.1-.5.1-.2-.1-.2-.2-.2-.2,0-.2.3-.2.3-.2h.4Z" fill="#9a9a90"/></g><g id="Scree2-47" data-name="Scree2" style="isolation:isolate"><path d="M34.8,66.5a.5227.5227,0,0,0-.7,0l-.3.2v.2l.3.2s.5.1.6-.1l.2-.5Zm-.1.4c-.1.2-.5.1-.5.1-.2-.1-.2-.2-.2-.2,0-.2.3-.2.3-.2h.4Z" fill="#9a9a90"/></g><g id="Scree2-48" data-name="Scree2" style="isolation:isolate"><path d="M42.8,61.6a.5227.5227,0,0,0-.7,0l-.3.2V62l.3.2s.5.1.6-.1l.2-.5Zm-.1.4c-.1.2-.5.1-.5.1-.2-.1-.2-.2-.2-.2,0-.2.3-.2.3-.2h.4Z" fill="#9a9a90"/></g><g id="Scree2-49" data-name="Scree2" style="isolation:isolate"><path d="M25.1,62.6a.5227.5227,0,0,0-.7,0l-.3.2V63l.3.2s.5.1.6-.1l.2-.5ZM25,63c-.1.2-.5.1-.5.1-.2-.1-.2-.2-.2-.2,0-.2.3-.2.3-.2H25Z" fill="#9a9a90"/></g><g id="Scree2-50" data-name="Scree2" style="isolation:isolate"><path d="M10.2,62.8a.5227.5227,0,0,0-.7,0l-.3.2v.2l.3.2s.5.1.6-.1l.2-.5Zm-.1.4c-.1.2-.5.1-.5.1-.2-.1-.2-.2-.2-.2,0-.2.3-.2.3-.2h.4Z" fill="#9a9a90"/></g><g id="Scree2-51" data-name="Scree2" style="isolation:isolate"><path d="M4.5,57.8a.5227.5227,0,0,0-.7,0l-.3.2v.2l.3.2s.5.1.6-.1l.2-.5Zm-.1.4c-.1.2-.5.1-.5.1-.2-.1-.2-.2-.2-.2,0-.2.3-.2.3-.2h.4Z" fill="#9a9a90"/></g><g id="Scree2-52" data-name="Scree2" style="isolation:isolate"><path d="M5.3,50a.5227.5227,0,0,0-.7,0l-.3.2v.2l.3.2s.5.1.6-.1l.2-.5Zm-.1.4c-.1.2-.5.1-.5.1-.2-.1-.2-.2-.2-.2,0-.2.3-.2.3-.2h.4Z" fill="#9a9a90"/></g><g id="Scree2-53" data-name="Scree2" style="isolation:isolate"><path d="M93.8,49.8a.5227.5227,0,0,0-.7,0l-.3.2v.2l.3.2s.5.1.6-.1l.2-.5Zm-.1.3c-.1.2-.5.1-.5.1-.2-.1-.2-.2-.2-.2,0-.2.3-.2.3-.2h.4Z" fill="#9a9a90"/></g><g id="Scree2-54" data-name="Scree2" style="isolation:isolate"><path d="M93.9,64.5a.5227.5227,0,0,0-.7,0l-.3.2v.2l.3.2s.5.1.6-.1l.2-.5Zm-.1.3c-.1.2-.5.1-.5.1-.2-.1-.2-.2-.2-.2,0-.2.3-.2.3-.2h.4Z" fill="#9a9a90"/></g><g id="Scree2-55" data-name="Scree2" style="isolation:isolate"><path d="M87.7,57.7a.5227.5227,0,0,0-.7,0l-.3.2v.2l.3.2s.5.1.6-.1l.2-.5Zm-.1.4c-.1.2-.5.1-.5.1-.2-.1-.2-.2-.2-.2,0-.2.3-.2.3-.2h.4Z" fill="#9a9a90"/></g><g id="Scree2-56" data-name="Scree2" style="isolation:isolate"><path d="M78.9,56.5a.5227.5227,0,0,0-.7,0l-.2.2V57l.3.2s.5.1.6-.1l.2-.5Zm-.1.4c-.1.2-.5.1-.5.1-.2-.1-.2-.2-.2-.2,0-.2.3-.2.3-.2h.4Z" fill="#9a9a90"/></g><g id="Scree2-57" data-name="Scree2" style="isolation:isolate"><path d="M50.3,7.9a.5227.5227,0,0,0-.7,0l-.3.2v.2l.3.2s.5.1.6-.1l.2-.4Zm-.1.4c-.1.2-.5.1-.5.1-.2-.1-.2-.2-.2-.2,0-.2.3-.2.3-.2h.4Z" fill="#9a9a90"/></g><g id="Scree2-58" data-name="Scree2" style="isolation:isolate"><path d="M45.2,14a.5227.5227,0,0,0-.7,0l-.3.2v.2l.3.2s.5.1.6-.1l.2-.5Zm-.1.3c-.1.2-.5.1-.5.1-.2-.1-.2-.2-.2-.2,0-.2.3-.2.3-.2h.4Z" fill="#9a9a90"/></g><g id="Scree2-59" data-name="Scree2" style="isolation:isolate"><path d="M50.8,15a.5227.5227,0,0,0-.7,0l-.3.2v.2l.3.2s.5.1.6-.1l.2-.5Zm-.1.4c-.1.2-.5.1-.5.1-.2-.1-.2-.2-.2-.2,0-.2.3-.2.3-.2h.4Z" fill="#9a9a90"/></g><g id="Scree2-60" data-name="Scree2" style="isolation:isolate"><path d="M54.9,12.9a.5227.5227,0,0,0-.7,0l-.3.2v.2l.3.2s.5.1.6-.1L55,13Zm-.1.4c-.1.2-.5.1-.5.1-.2-.1-.2-.2-.2-.2,0-.2.3-.2.3-.2h.4Z" fill="#9a9a90"/></g><g id="Scree2-61" data-name="Scree2" style="isolation:isolate"><path d="M42.9,17.4a.5227.5227,0,0,0-.7,0l-.3.2v.2l.3.2s.5.1.6-.1l.2-.5Zm-.1.4c-.1.2-.5.1-.5.1-.2-.1-.2-.2-.2-.2,0-.2.3-.2.3-.2h.4Z" fill="#9a9a90"/></g><g id="Scree2-62" data-name="Scree2" style="isolation:isolate"><path d="M47.3,18a.5227.5227,0,0,0-.7,0l-.3.2v.2l.3.2s.5.1.6-.1l.2-.5Zm-.1.4c-.1.2-.5.1-.5.1-.2-.1-.2-.2-.2-.2,0-.2.3-.2.3-.2h.4Z" fill="#9a9a90"/></g><g id="Scree2-63" data-name="Scree2" style="isolation:isolate"><path d="M52.7,18.7a.5227.5227,0,0,0-.7,0l-.3.2v.2l.3.2s.5.1.6-.1l.2-.5Zm-.1.4c-.1.2-.5.1-.5.1-.2-.1-.1-.2-.1-.2,0-.2.3-.2.3-.2h.4Z" fill="#9a9a90"/></g><g id="Scree2-64" data-name="Scree2" style="isolation:isolate"><path d="M57.4,16.2a.5227.5227,0,0,0-.7,0l-.3.2v.2l.3.2s.5.1.6-.1l.2-.5Zm-.1.4c-.1.2-.5.1-.5.1-.2-.1-.2-.2-.2-.2,0-.2.3-.2.3-.2h.4Z" fill="#9a9a90"/></g><g id="Scree2-65" data-name="Scree2" style="isolation:isolate"><path d="M41.8,22.9a.5227.5227,0,0,0-.7,0l-.3.2v.2l.3.2s.5.1.6-.1L42,23Zm-.1.3c-.1.2-.5.1-.5.1-.2-.1-.2-.2-.2-.2,0-.2.3-.2.3-.2h.4Z" fill="#9a9a90"/></g><g id="Scree2-66" data-name="Scree2" style="isolation:isolate"><path d="M47.3,22.6a.5227.5227,0,0,0-.7,0l-.3.2V23l.3.2s.5.1.6-.1l.2-.5Zm-.1.4c-.1.2-.5.1-.5.1-.2-.1-.2-.2-.2-.2,0-.2.3-.2.3-.2h.4Z" fill="#9a9a90"/></g><g id="Scree2-67" data-name="Scree2" style="isolation:isolate"><path d="M54.2,21.9a.5227.5227,0,0,0-.7,0l-.3.2v.2l.3.2s.5.1.6-.1l.2-.5Zm-.1.4c-.1.2-.5.1-.5.1-.2-.1-.2-.2-.2-.2,0-.2.3-.2.3-.2h.4Z" fill="#9a9a90"/></g><g id="Scree2-68" data-name="Scree2" style="isolation:isolate"><path d="M62.7,23.3a.5227.5227,0,0,0-.7,0l-.3.2v.2l.3.3s.5.1.6-.1l.2-.5Zm-.1.4c-.1.2-.5.1-.5.1-.2-.1-.2-.2-.2-.2,0-.2.3-.2.3-.2h.4Z" fill="#9a9a90"/></g><g id="Scree2-69" data-name="Scree2" style="isolation:isolate"><path d="M43.5,26.3a.5227.5227,0,0,0-.7,0l-.3.2v.2l.3.2s.5.1.6-.1l.2-.5Zm-.1.4c-.1.2-.5.1-.5.1-.2-.1-.2-.2-.2-.2,0-.2.3-.2.3-.2h.4Z" fill="#9a9a90"/></g><g id="Scree2-70" data-name="Scree2" style="isolation:isolate"><path d="M50.6,26.2a.5227.5227,0,0,0-.7,0l-.3.2v.2l.3.2s.5.1.6-.1l.2-.5Zm-.1.4c-.1.2-.5.1-.5.1-.2-.1-.2-.2-.2-.2,0-.2.3-.2.3-.2h.4Z" fill="#9a9a90"/></g><g id="Scree2-71" data-name="Scree2" style="isolation:isolate"><path d="M56.9,26.5a.5227.5227,0,0,0-.7,0l-.3.2V27l.3.2s.5.1.6-.1l.2-.5Zm-.1.4c-.1.2-.5.1-.5.1-.2-.1-.2-.2-.2-.2,0-.2.3-.2.3-.2h.4Z" fill="#9a9a90"/></g><g id="Scree2-72" data-name="Scree2" style="isolation:isolate"><path d="M46.7,30.6a.5227.5227,0,0,0-.7,0l-.3.2V31l.3.2s.5.1.6-.1l.2-.5Zm-.1.3c-.1.2-.5.1-.5.1-.2-.1-.2-.2-.2-.2,0-.2.3-.2.3-.2h.4Z" fill="#9a9a90"/></g><g id="Scree2-73" data-name="Scree2" style="isolation:isolate"><path d="M44.3,35.7a.5227.5227,0,0,0-.7,0l-.3.2v.2l.3.2s.5.1.6-.1l.2-.5Zm-.1.3c-.1.2-.5.1-.5.1-.2-.1-.2-.2-.2-.2,0-.2.3-.2.3-.2h.4Z" fill="#9a9a90"/></g><g id="Scree2-74" data-name="Scree2" style="isolation:isolate"><path d="M51.1,32.1a.5227.5227,0,0,0-.7,0l-.3.2v.2l.3.2s.5.1.6-.1l.2-.5Zm-.1.4c-.1.2-.5.1-.5.1-.2-.1-.2-.2-.2-.2,0-.2.3-.2.3-.2H51Z" fill="#9a9a90"/></g><g id="Scree2-75" data-name="Scree2" style="isolation:isolate"><path d="M48.6,39.1a.5227.5227,0,0,0-.7,0l-.3.2v.2l.3.2s.5.1.6-.1l.2-.5Zm-.1.4c-.1.2-.5.1-.5.1-.2-.1-.2-.2-.2-.2,0-.2.3-.2.3-.2h.4Z" fill="#9a9a90"/></g><g id="Scree2-76" data-name="Scree2" style="isolation:isolate"><path d="M87.2,10.9a.5227.5227,0,0,0-.7,0l-.3.2v.2l.3.2s.5.1.6-.1l.2-.5Zm-.1.4c-.1.2-.5.1-.5.1-.2-.1-.2-.2-.2-.2,0-.2.3-.2.3-.2h.4Z" fill="#9a9a90"/></g><g id="Scree2-77" data-name="Scree2" style="isolation:isolate"><path d="M83.1,15.4a.5227.5227,0,0,0-.7,0l-.3.2v.2l.3.2s.5.1.6-.1l.2-.5Zm-.1.4c-.1.2-.5.1-.5.1-.2-.1-.2-.2-.2-.2,0-.2.3-.2.3-.2H83Z" fill="#9a9a90"/></g><g id="Scree2-78" data-name="Scree2" style="isolation:isolate"><path d="M73.4,17.4a.5227.5227,0,0,0-.7,0l-.3.2v.2l.3.2s.5.1.6-.1l.2-.5Zm-.1.4c-.1.2-.5.1-.5.1-.2-.1-.2-.2-.2-.2,0-.2.3-.2.3-.2h.4Z" fill="#9a9a90"/></g><g id="Scree2-79" data-name="Scree2" style="isolation:isolate"><path d="M79.4,19.5a.5227.5227,0,0,0-.7,0l-.3.2V20l.3.2s.5.1.6-.1l.2-.5Zm-.1.4c-.1.2-.5.1-.5.1-.2-.1-.2-.2-.2-.2,0-.2.3-.2.3-.2h.4Z" fill="#9a9a90"/></g><g id="Scree2-80" data-name="Scree2" style="isolation:isolate"><path d="M86.2,19.8a.5227.5227,0,0,0-.7,0l-.3.2v.2l.3.2s.5.1.6-.1l.2-.5Zm-.1.4c-.1.2-.5.1-.5.1-.2-.1-.2-.2-.2-.2,0-.2.3-.2.3-.2h.4Z" fill="#9a9a90"/></g><g id="Scree2-81" data-name="Scree2" style="isolation:isolate"><path d="M90.8,16.1a.5227.5227,0,0,0-.7,0l-.3.2v.2l.3.2s.5.1.6-.1l.2-.5Zm-.1.4c-.1.2-.5.1-.5.1l-.2-.2c0-.2.3-.2.3-.2h.4Z" fill="#9a9a90"/></g><g id="Scree2-82" data-name="Scree2" style="isolation:isolate"><path d="M82.3,24.5a.5227.5227,0,0,0-.7,0l-.3.2V25l.3.2s.5.1.6-.1l.2-.5Zm-.1.4c-.1.2-.5.1-.5.1-.2-.1-.2-.2-.2-.2,0-.2.3-.2.3-.2h.4Z" fill="#9a9a90"/></g><g id="Scree2-83" data-name="Scree2" style="isolation:isolate"><path d="M89.7,22.6a.5227.5227,0,0,0-.7,0l-.3.2V23l.3.2s.5.1.6-.1l.2-.5Zm-.1.4c-.1.2-.5.1-.5.1-.2-.1-.1-.2-.1-.2,0-.2.3-.2.3-.2h.4Z" fill="#9a9a90"/></g><g id="Scree2-84" data-name="Scree2" style="isolation:isolate"><path d="M77,27.7a.5227.5227,0,0,0-.7,0l-.3.2v.2l.3.2s.5.1.6-.1l.2-.5Zm-.1.4c-.1.2-.5.1-.5.1-.2-.1-.2-.2-.2-.2,0-.2.3-.2.3-.2h.4Z" fill="#9a9a90"/></g><g id="Scree2-85" data-name="Scree2" style="isolation:isolate"><path d="M82.8,29a.5227.5227,0,0,0-.7,0l-.3.2v.2l.3.2s.5.1.6-.1l.2-.5Zm-.1.4c-.1.2-.5.1-.5.1-.2-.1-.2-.2-.2-.2,0-.2.3-.2.3-.2h.4Z" fill="#9a9a90"/></g><g id="Scree2-86" data-name="Scree2" style="isolation:isolate"><path d="M88.3,27.5a.5227.5227,0,0,0-.7,0l-.3.2v.2l.3.2s.5.1.6-.1l.2-.5Zm-.1.4c-.1.2-.5.1-.5.1-.2-.1-.2-.2-.2-.2,0-.2.3-.2.3-.2h.4Z" fill="#9a9a90"/></g><g id="Scree2-87" data-name="Scree2" style="isolation:isolate"><path d="M77.4,32.5a.5227.5227,0,0,0-.7,0l-.3.2v.2l.3.2s.5.1.6-.1l.2-.5Zm-.1.3c-.1.2-.5.1-.5.1-.2-.1-.2-.2-.2-.2,0-.2.3-.2.3-.2h.4Z" fill="#9a9a90"/></g><g id="Scree2-88" data-name="Scree2" style="isolation:isolate"><path d="M84.9,32.9a.5227.5227,0,0,0-.7,0l-.3.2v.2l.3.2s.5.1.6-.1L85,33Zm-.1.4c-.1.2-.5.1-.5.1-.2-.1-.2-.2-.2-.2,0-.2.3-.2.3-.2h.4Z" fill="#9a9a90"/></g><g id="Scree2-89" data-name="Scree2" style="isolation:isolate"><path d="M92.1,30.1a.5227.5227,0,0,0-.7,0l-.3.2v.2l.3.2s.5.1.6-.1l.2-.5Zm-.1.4c-.1.2-.5.1-.5.1-.2-.1-.2-.2-.2-.2,0-.2.3-.2.3-.2H92Z" fill="#9a9a90"/></g><g id="Scree2-90" data-name="Scree2" style="isolation:isolate"><path d="M89.3,35.7a.5227.5227,0,0,0-.7,0l-.3.2v.2l.3.2s.5.1.6-.1l.2-.5Zm-.1.3c-.1.2-.5.1-.5.1-.2-.1-.2-.2-.2-.2,0-.2.3-.2.3-.2h.4Z" fill="#9a9a90"/></g><g id="Scree2-91" data-name="Scree2" style="isolation:isolate"><path d="M81.2,36.4a.5227.5227,0,0,0-.7,0l-.3.2v.2l.3.2s.5.1.6-.1l.2-.5Zm-.1.4c-.1.2-.5.1-.5.1-.2-.1-.2-.2-.2-.2,0-.2.3-.2.3-.2h.4Z" fill="#9a9a90"/></g><g id="Scree2-92" data-name="Scree2" style="isolation:isolate"><path d="M94.8,34.7a.5227.5227,0,0,0-.7,0l-.3.2v.2l.3.2s.5.1.6-.1l.2-.5Zm-.1.4c-.1.2-.5.1-.5.1-.2-.1-.1-.2-.1-.2,0-.2.3-.2.3-.2h.4Z" fill="#9a9a90"/></g><g id="Scree2-93" data-name="Scree2" style="isolation:isolate"><path d="M84.6,51.2a.5227.5227,0,0,0-.7,0l-.3.2v.2l.3.2s.5.1.6-.1l.2-.5Zm-.1.4c-.1.2-.5.1-.5.1-.2-.1-.2-.2-.2-.2,0-.2.3-.2.3-.2h.4Z" fill="#9a9a90"/></g></svg>