<svg id="Layer_1" data-name="Layer 1" xmlns="http://www.w3.org/2000/svg" width="33.8667mm" height="33.8667mm" viewBox="0 0 96 96"><g id="roughgrass_bd"><path d="M11.8,79.2v.1l-.1.1h-.3l-.3-.5v-.1l.1-.1h.3Z" fill="#a9cda6"/><path d="M14.1,78.6h0a1.7265,1.7265,0,0,0-.4-.3c-.1-.2.1-.7.1-.7v-.7A1.432,1.432,0,0,1,14.1,78.6Z" fill="#a9cda6"/><path d="M14.1,78.6c.1.1.2.1.2.4H14A.7559.7559,0,0,1,14.1,78.6Z" fill="#a9cda6"/><path d="M16.2,77.8l-.5.5a2.1644,2.1644,0,0,0-.3.6v.2a.4829.4829,0,0,1-.4,0,2.18,2.18,0,0,0,.1-.6s0-1.1.5-1.2c0,0,.4-.2.1.1a1.67,1.67,0,0,0-.3.9C15.5,78.1,15.8,77.7,16.2,77.8Z" fill="#a9cda6"/><path d="M18.2,78.8v.1l-.3.4c0,.1-.1.1-.2,0h-.1l-.1-.1v-.1l.3-.5c0-.1.1-.1.2,0l.2.2Z" fill="#a9cda6"/><path d="M12.8,78.3l.2.7v.1l-.1.1h-.1c-.1,0-.1,0-.2-.1l-.2-.7v-.1l.1-.1h.1C12.7,78.2,12.8,78.2,12.8,78.3Z" fill="#a9cda6"/><path d="M16.8,78.2h.1l.1.1v.1l-.2.7c0,.1-.1.1-.2.1h-.1l-.1-.1V79l.2-.7C16.6,78.2,16.7,78.2,16.8,78.2Z" fill="#a9cda6"/></g><g id="roughgrass_bd-2" data-name="roughgrass_bd" style="isolation:isolate"><path d="M17.2,74.6v.1l-.1.1h-.3l-.3-.5v-.1l.1-.1h.3Z" fill="#a9cda6"/><path d="M19.5,74h0a1.7265,1.7265,0,0,0-.4-.3c-.1-.2.1-.7.1-.7v-.7C20,73.3,19.5,74,19.5,74Z" fill="#a9cda6"/><path d="M19.5,74.1c.1.1.2.1.2.4h-.3C19.4,74.3,19.4,74.2,19.5,74.1Z" fill="#a9cda6"/><path d="M21.6,73.2l-.5.5a2.1644,2.1644,0,0,0-.3.6v.2a.4829.4829,0,0,1-.4,0,2.18,2.18,0,0,0,.1-.6s0-1.1.5-1.2c0,0,.4-.2.1.1a1.67,1.67,0,0,0-.3.9C20.9,73.6,21.2,73.1,21.6,73.2Z" fill="#a9cda6"/><path d="M23.6,74.2v.1l-.3.4c0,.1-.1.1-.2,0H23v-.1l.3-.5c0-.1.1-.1.2,0l.1.1Z" fill="#a9cda6"/><path d="M18.2,73.7l.2.7v.1l-.1.1h-.1c-.1,0-.1,0-.2-.1l-.2-.7v-.1l.1-.1H18C18.1,73.6,18.2,73.6,18.2,73.7Z" fill="#a9cda6"/><path d="M22.2,73.6h.1l.1.1v.1l-.2.7c0,.1-.1.1-.2.1h-.1l-.1-.1v-.1l.2-.7C22,73.6,22.1,73.6,22.2,73.6Z" fill="#a9cda6"/></g><g id="roughgrass_bd-3" data-name="roughgrass_bd" style="isolation:isolate"><path d="M8.2,73v.1l-.1.1H7.8l-.3-.5v-.1l.1-.1h.3Z" fill="#a9cda6"/><path d="M10.5,72.5h0a1.7265,1.7265,0,0,0-.4-.3c-.1-.2.1-.7.1-.7v-.7A1.432,1.432,0,0,1,10.5,72.5Z" fill="#a9cda6"/><path d="M10.5,72.5c.1.1.2.1.2.4h-.3C10.4,72.7,10.5,72.6,10.5,72.5Z" fill="#a9cda6"/><path d="M12.7,71.6l-.5.5a2.1644,2.1644,0,0,0-.3.6v.2a.4829.4829,0,0,1-.4,0,2.18,2.18,0,0,0,.1-.6s0-1.1.5-1.2c0,0,.4-.2.1.1a1.67,1.67,0,0,0-.3.9A.8514.8514,0,0,1,12.7,71.6Z" fill="#a9cda6"/><path d="M14.7,72.7v.1l-.3.4c0,.1-.1.1-.2,0h-.1l-.1-.1V73l.3-.5c0-.1.1-.1.2,0l.2.2Z" fill="#a9cda6"/><path d="M9.2,72.1l.2.7v.1l-.1.1H9.2c-.1,0-.1,0-.2-.1l-.2-.7v-.1h.3C9.1,72,9.2,72.1,9.2,72.1Z" fill="#a9cda6"/><path d="M13.2,72h.1l.1.1v.1l-.2.8c0,.1-.1.1-.2.1h-.1l-.1-.1v-.1l.2-.7Z" fill="#a9cda6"/></g><g id="roughgrass_bd-4" data-name="roughgrass_bd" style="isolation:isolate"><path d="M48.6,68.5v.1l-.1.1h-.3l-.3-.5v-.1L48,68h.3Z" fill="#a9cda6"/><path d="M50.9,68h0a1.7265,1.7265,0,0,0-.4-.3c-.1-.2.1-.7.1-.7v-.7A1.65,1.65,0,0,1,50.9,68Z" fill="#a9cda6"/><path d="M50.9,68c.1.1.2.1.2.4h-.3C50.7,68.2,50.8,68.1,50.9,68Z" fill="#a9cda6"/><path d="M53,67.1l-.5.5a2.1644,2.1644,0,0,0-.3.6v.2a.4829.4829,0,0,1-.4,0,2.18,2.18,0,0,0,.1-.6s0-1.1.5-1.2c0,0,.4-.2.1.1a1.67,1.67,0,0,0-.3.9C52.3,67.5,52.6,67.1,53,67.1Z" fill="#a9cda6"/><path d="M55,68.1v.1l-.3.4c0,.1-.1.1-.2,0h-.1l-.1-.1v-.1l.3-.5c0-.1.1-.1.2,0l.2.2Z" fill="#a9cda6"/><path d="M49.6,67.6l.2.7v.1l-.1.1h-.1c-.1,0-.1,0-.2-.1l-.2-.7v-.1l.1-.1h.1C49.5,67.5,49.5,67.5,49.6,67.6Z" fill="#a9cda6"/><path d="M53.6,67.5h.1l.1.1v.1l-.2.7c0,.1-.1.1-.2.1h-.1l-.1-.1v-.1l.2-.7C53.4,67.5,53.5,67.5,53.6,67.5Z" fill="#a9cda6"/></g><g id="roughgrass_bd-5" data-name="roughgrass_bd" style="isolation:isolate"><path d="M54,63.9V64l-.1.1h-.3l-.3-.5v-.1l.1-.1h.3Z" fill="#a9cda6"/><path d="M56.3,63.4h0a1.7265,1.7265,0,0,0-.4-.3c-.1-.2.1-.7.1-.7v-.7A1.432,1.432,0,0,1,56.3,63.4Z" fill="#a9cda6"/><path d="M56.3,63.4c.1.1.2.1.2.4h-.3C56.1,63.6,56.2,63.5,56.3,63.4Z" fill="#a9cda6"/><path d="M58.4,62.5l-.4.4a2.1644,2.1644,0,0,0-.3.6v.2a.4829.4829,0,0,1-.4,0,2.18,2.18,0,0,0,.1-.6s0-1.1.5-1.2c0,0,.4-.2.1.1a1.67,1.67,0,0,0-.3.9A1.0233,1.0233,0,0,1,58.4,62.5Z" fill="#a9cda6"/><path d="M60.4,63.5v.1l-.3.4c0,.1-.1.1-.2,0h-.2v-.1l.3-.5c0-.1.1-.1.2,0l.2.1Z" fill="#a9cda6"/><path d="M55,63l.2.7v.1l-.1.1L55,64c-.1,0-.1,0-.2-.1l-.2-.7V63l.1-.1h.1C54.9,62.9,54.9,62.9,55,63Z" fill="#a9cda6"/><path d="M59,62.9h.1l.1.1v.1l-.2.7c0,.1-.1.1-.2.1h-.1l-.1-.1v-.1l.2-.7C58.8,62.9,58.9,62.9,59,62.9Z" fill="#a9cda6"/></g><g id="roughgrass_bd-6" data-name="roughgrass_bd" style="isolation:isolate"><path d="M45,62.4v.2h-.3l-.3-.5V62l.1-.1h.3Z" fill="#a9cda6"/><path d="M47.3,61.8h0a1.7265,1.7265,0,0,0-.4-.3c-.1-.2.1-.7.1-.7v-.7A1.432,1.432,0,0,1,47.3,61.8Z" fill="#a9cda6"/><path d="M47.3,61.8c.1.1.2.1.2.4h-.3C47.2,62.1,47.3,62,47.3,61.8Z" fill="#a9cda6"/><path d="M49.5,60.9l-.5.5a2.1644,2.1644,0,0,0-.3.6v.2a.4829.4829,0,0,1-.4,0,2.18,2.18,0,0,0,.1-.6s0-1.1.5-1.2c0,0,.4-.2.1.1a1.67,1.67,0,0,0-.3.9A.8514.8514,0,0,1,49.5,60.9Z" fill="#a9cda6"/><path d="M51.5,62v.1l-.3.4c0,.1-.1.1-.2,0h-.1l-.1-.1v-.1l.3-.5c0-.1.1-.1.2,0l.2.2Z" fill="#a9cda6"/><path d="M46,61.5l.2.7v.1l-.1.1H46c-.1,0-.1,0-.2-.1l-.2-.7v-.1l.1-.1h.1C45.9,61.3,46,61.4,46,61.5Z" fill="#a9cda6"/><path d="M50,61.4h.1l.1.1v.1l-.2.7c0,.1-.1.1-.2.1h-.1l-.1-.1v-.1l.2-.7C49.9,61.4,49.9,61.3,50,61.4Z" fill="#a9cda6"/></g><g id="roughgrass_bd-7" data-name="roughgrass_bd" style="isolation:isolate"><path d="M7.3,50.9V51l-.1.1H6.9l-.3-.5v-.1l.1-.1H7Z" fill="#a9cda6"/><path d="M9.6,50.4h0a1.7265,1.7265,0,0,0-.4-.3c-.1-.2.1-.7.1-.7v-.7A1.432,1.432,0,0,1,9.6,50.4Z" fill="#a9cda6"/><path d="M9.6,50.4c.1.1.2.1.2.4H9.5C9.5,50.6,9.5,50.5,9.6,50.4Z" fill="#a9cda6"/><path d="M11.8,49.5l-.5.5a2.1644,2.1644,0,0,0-.3.6v.2a.4829.4829,0,0,1-.4,0,2.18,2.18,0,0,0,.1-.6s0-1.1.5-1.2c0,0,.4-.2.1.1a1.67,1.67,0,0,0-.3.9A.8514.8514,0,0,1,11.8,49.5Z" fill="#a9cda6"/><path d="M13.8,50.6v.1l-.3.4c0,.1-.1.1-.2,0h-.1l-.1-.1v-.1l.3-.5c0-.1.1-.1.2,0l.2.2Z" fill="#a9cda6"/><path d="M8.3,50l.2.7v.1l-.1.2H8.3c-.1,0-.1,0-.2-.1l-.2-.7v-.1L8,50h.1A.1385.1385,0,0,1,8.3,50Z" fill="#a9cda6"/><path d="M12.3,49.9h.1l.1.1v.1l-.2.7c0,.1-.1.1-.2.1H12l-.1-.1v-.1l.2-.7C12.2,50,12.2,49.9,12.3,49.9Z" fill="#a9cda6"/></g><g id="roughgrass_bd-8" data-name="roughgrass_bd" style="isolation:isolate"><path d="M12.7,46.3v.1l-.1.1h-.3L12,46v-.1l.1-.1h.3Z" fill="#a9cda6"/><path d="M15,45.8h0a1.7265,1.7265,0,0,0-.4-.3c-.1-.2.1-.7.1-.7v-.7A1.432,1.432,0,0,1,15,45.8Z" fill="#a9cda6"/><path d="M15,45.8c.1.1.2.1.2.4h-.3C14.9,46,14.9,45.9,15,45.8Z" fill="#a9cda6"/><path d="M17.2,44.9l-.5.5a2.1644,2.1644,0,0,0-.3.6v.2a.4829.4829,0,0,1-.4,0,2.18,2.18,0,0,0,.1-.6s0-1.1.5-1.2c0,0,.4-.2.1.1a1.67,1.67,0,0,0-.3.9A.8514.8514,0,0,1,17.2,44.9Z" fill="#a9cda6"/><path d="M19.2,46v.1l-.3.4c0,.1-.1.1-.2,0h-.1l-.1-.1v-.1l.3-.5c0-.1.1-.1.2,0l.2.2Z" fill="#a9cda6"/><path d="M13.7,45.4l.2.7v.1l-.1.1h-.1c-.1,0-.1,0-.2-.1l-.2-.7v-.1l.1-.1h.1A.3491.3491,0,0,1,13.7,45.4Z" fill="#a9cda6"/><path d="M17.7,45.4h.1l.1.1v.1l-.2.7c0,.1-.1.1-.2.1h-.1l-.1-.1v-.1l.2-.7C17.6,45.4,17.6,45.3,17.7,45.4Z" fill="#a9cda6"/></g><g id="roughgrass_bd-9" data-name="roughgrass_bd" style="isolation:isolate"><path d="M3.8,44.8v.1l-.1.1H3.4l-.3-.5v-.1l.1-.1h.3Z" fill="#a9cda6"/><path d="M6.1,44.2h0a1.7265,1.7265,0,0,0-.4-.3c-.1-.2.1-.7.1-.7v-.7A1.6318,1.6318,0,0,1,6.1,44.2Z" fill="#a9cda6"/><path d="M6.1,44.3c.1.1.2.1.2.4H6C5.9,44.5,6,44.4,6.1,44.3Z" fill="#a9cda6"/><path d="M8.2,43.4l-.5.5a2.1644,2.1644,0,0,0-.3.6v.2a.4829.4829,0,0,1-.4,0,2.18,2.18,0,0,0,.1-.6s0-1.1.5-1.2c0,0,.4-.2.1.1a1.67,1.67,0,0,0-.3.9C7.5,43.8,7.8,43.4,8.2,43.4Z" fill="#a9cda6"/><path d="M10.2,44.4v.1l-.3.5c0,.1-.1.1-.2,0H9.6l-.1-.1v-.1l.3-.5c0-.1.1-.1.2,0l.2.1Z" fill="#a9cda6"/><path d="M4.8,43.9l.2.7v.1l-.1.1H4.8c-.1,0-.1,0-.2-.1L4.4,44v-.1l.1-.1h.1C4.7,43.8,4.7,43.8,4.8,43.9Z" fill="#a9cda6"/><path d="M8.8,43.8h.1l.1.1V44l-.2.7c0,.1-.1.1-.2.1H8.5l-.1-.1v-.1l.2-.7C8.6,43.8,8.7,43.8,8.8,43.8Z" fill="#a9cda6"/></g><g id="roughgrass_bd-10" data-name="roughgrass_bd" style="isolation:isolate"><path d="M16.2,29.9V30l-.1.1h-.3l-.3-.5v-.1l.1-.1h.3Z" fill="#a9cda6"/><path d="M18.5,29.3h0a1.7265,1.7265,0,0,0-.4-.3c-.1-.2.1-.7.1-.7v-.7A1.432,1.432,0,0,1,18.5,29.3Z" fill="#a9cda6"/><path d="M18.5,29.3c.1.1.2.1.2.4h-.3A.7559.7559,0,0,1,18.5,29.3Z" fill="#a9cda6"/><path d="M20.6,28.5l-.5.5a2.1644,2.1644,0,0,0-.3.6v.2a.4829.4829,0,0,1-.4,0,2.18,2.18,0,0,0,.1-.6s0-1.1.5-1.2c0,0,.4-.2.1.1a1.67,1.67,0,0,0-.3.9C19.9,28.8,20.2,28.4,20.6,28.5Z" fill="#a9cda6"/><path d="M22.6,29.5v.1l-.3.4c0,.1-.1.1-.2,0H22v-.1l.3-.5c0-.1.1-.1.2,0l.1.1Z" fill="#a9cda6"/><path d="M17.2,29l.2.7v.1l-.1.1h-.1c-.1,0-.1,0-.2-.1l-.2-.7V29l.1-.1H17C17.1,28.9,17.2,28.9,17.2,29Z" fill="#a9cda6"/><path d="M21.2,28.9h.1l.1.1v.1l-.2.7c0,.1-.1.1-.2.1h-.1l-.1-.1v-.1L21,29C21,28.9,21.1,28.9,21.2,28.9Z" fill="#a9cda6"/></g><g id="roughgrass_bd-11" data-name="roughgrass_bd" style="isolation:isolate"><path d="M21.6,25.3v.1l-.1.1h-.3L21,25v-.1l.1-.1h.3Z" fill="#a9cda6"/><path d="M23.9,24.7h0a1.7265,1.7265,0,0,0-.4-.3c-.1-.2.1-.7.1-.7V23A1.432,1.432,0,0,1,23.9,24.7Z" fill="#a9cda6"/><path d="M23.9,24.7c.1.1.2.1.2.4h-.3A.7559.7559,0,0,1,23.9,24.7Z" fill="#a9cda6"/><path d="M26,23.9l-.5.5a2.1644,2.1644,0,0,0-.3.6v.2a.4829.4829,0,0,1-.4,0,2.18,2.18,0,0,0,.1-.6s0-1.1.5-1.2c0,0,.4-.2.1.1a1.67,1.67,0,0,0-.3.9C25.3,24.2,25.6,23.8,26,23.9Z" fill="#a9cda6"/><path d="M28,24.9V25l-.3.4c0,.1-.1.1-.2,0h-.1l-.1-.1v-.1l.3-.5c0-.1.1-.1.2,0l.2.2Z" fill="#a9cda6"/><path d="M22.6,24.4l.2.7v.1l-.1.1h-.1c-.1,0-.1,0-.2-.1l-.2-.7v-.1l.1-.1h.1C22.5,24.3,22.6,24.3,22.6,24.4Z" fill="#a9cda6"/><path d="M26.6,24.3h.1l.1.1v.1l-.2.7c0,.1-.1.1-.2.1h-.1l-.1-.1v-.1l.2-.7C26.4,24.3,26.5,24.3,26.6,24.3Z" fill="#a9cda6"/></g><g id="roughgrass_bd-12" data-name="roughgrass_bd" style="isolation:isolate"><path d="M12.6,23.7v.1l-.1.1h-.3l-.2-.4v-.1l.1-.1h.3Z" fill="#a9cda6"/><path d="M15,23.2h0a1.7265,1.7265,0,0,0-.4-.3c-.1-.2.1-.7.1-.7v-.7A1.65,1.65,0,0,1,15,23.2Z" fill="#a9cda6"/><path d="M15,23.2c.1.1.2.1.2.4h-.3C14.8,23.4,14.9,23.3,15,23.2Z" fill="#a9cda6"/><path d="M17.1,22.3l-.5.5a2.1644,2.1644,0,0,0-.3.6v.2a.4829.4829,0,0,1-.4,0A2.18,2.18,0,0,0,16,23s0-1.1.5-1.2c0,0,.4-.2.1.1a1.67,1.67,0,0,0-.3.9A1.0092,1.0092,0,0,1,17.1,22.3Z" fill="#a9cda6"/><path d="M19.1,23.4v.1l-.3.4c0,.1-.1.1-.2,0h-.1l-.1-.1v-.1l.3-.5c0-.1.1-.1.2,0l.2.2Z" fill="#a9cda6"/><path d="M13.7,22.8l.2.7v.1l-.1.1h-.1c-.1,0-.1,0-.2-.1l-.2-.6v-.1l.1-.1h.1C13.6,22.7,13.6,22.8,13.7,22.8Z" fill="#a9cda6"/><path d="M17.6,22.7h.1l.1.1V23l-.2.7c0,.1-.1.1-.2.1h-.1l-.1-.1v-.1l.2-.7Z" fill="#a9cda6"/></g><g id="roughgrass_bd-13" data-name="roughgrass_bd" style="isolation:isolate"><path d="M47.1,10.1v.1l-.1.1h-.3l-.3-.5V9.7l.1-.1h.3Z" fill="#a9cda6"/><path d="M49.4,9.5h0a1.7265,1.7265,0,0,0-.4-.3c-.1-.2.1-.7.1-.7V7.8A1.432,1.432,0,0,1,49.4,9.5Z" fill="#a9cda6"/><path d="M49.4,9.5c.1.1.2.1.2.4h-.3C49.3,9.8,49.4,9.7,49.4,9.5Z" fill="#a9cda6"/><path d="M51.6,8.7l-.5.5a2.1644,2.1644,0,0,0-.3.6V10a.4829.4829,0,0,1-.4,0,2.18,2.18,0,0,0,.1-.6s0-1.1.5-1.2c0,0,.4-.2.1.1a1.67,1.67,0,0,0-.3.9A.6508.6508,0,0,1,51.6,8.7Z" fill="#a9cda6"/><path d="M53.6,9.7v.1l-.3.4c0,.1-.1.1-.2,0H53l-.1-.1V10l.3-.5c0-.1.1-.1.2,0l.2.2Z" fill="#a9cda6"/><path d="M48.1,9.2l.2.7V10l-.1.1h-.1c-.1,0-.1,0-.2-.1l-.2-.7V9.2l.1-.1h.1C48,9.1,48.1,9.1,48.1,9.2Z" fill="#a9cda6"/><path d="M52.1,9.1h.1l.1.1v.1l-.2.7c0,.1-.1.1-.2.1h-.1l-.1-.1V9.9l.3-.7A.0979.0979,0,0,1,52.1,9.1Z" fill="#a9cda6"/></g><g id="roughgrass_bd-14" data-name="roughgrass_bd" style="isolation:isolate"><path d="M52.5,5.5v.1l-.1.1h-.3l-.3-.5V5.1l.1-.1h.3Z" fill="#a9cda6"/><path d="M54.8,4.9h0a1.7265,1.7265,0,0,0-.4-.3c-.1-.2.1-.7.1-.7V3.2A1.432,1.432,0,0,1,54.8,4.9Z" fill="#a9cda6"/><path d="M54.8,4.9a1.38,1.38,0,0,1,.3.4h-.3C54.7,5.2,54.8,5.1,54.8,4.9Z" fill="#a9cda6"/><path d="M57,4.1l-.5.5a2.1644,2.1644,0,0,0-.3.6v.2a.4829.4829,0,0,1-.4,0,2.18,2.18,0,0,0,.1-.6s0-1.1.5-1.2c0,0,.4-.2.1.1a1.67,1.67,0,0,0-.3.9A.6508.6508,0,0,1,57,4.1Z" fill="#a9cda6"/><path d="M59,5.1v.1l-.3.4c0,.1-.1.1-.2,0h-.1l-.1-.1V5.4l.3-.4c0-.1.1-.1.2,0l.2.1Z" fill="#a9cda6"/><path d="M53.5,4.6l.2.7v.1l-.1.1h-.1c-.1,0-.1,0-.2-.1l-.2-.7V4.6l.1-.1h.1C53.4,4.5,53.5,4.5,53.5,4.6Z" fill="#a9cda6"/><path d="M57.5,4.5h.1l.1.1v.1l-.2.7c0,.1-.1.1-.2.1h-.1l-.1-.1V5.3l.2-.7A.31.31,0,0,1,57.5,4.5Z" fill="#a9cda6"/></g><g id="roughgrass_bd-15" data-name="roughgrass_bd" style="isolation:isolate"><path d="M43.6,3.9V4l-.1.1h-.3l-.3-.5V3.5h.4Z" fill="#a9cda6"/><path d="M45.9,3.4h0a1.7265,1.7265,0,0,0-.4-.3c-.1-.2.1-.7.1-.7V1.7A1.432,1.432,0,0,1,45.9,3.4Z" fill="#a9cda6"/><path d="M45.9,3.4c.1.1.2.1.2.4h-.3C45.8,3.6,45.8,3.5,45.9,3.4Z" fill="#a9cda6"/><path d="M48,2.5l-.4.5a2.1644,2.1644,0,0,0-.3.6v.2a.4829.4829,0,0,1-.4,0,2.18,2.18,0,0,0,.1-.6s0-1.1.5-1.2c0,0,.4-.2.1.1a1.67,1.67,0,0,0-.3.9A.8083.8083,0,0,1,48,2.5Z" fill="#a9cda6"/><path d="M50,3.6v.1l-.3.4c0,.1-.1.1-.2,0h-.1L49.3,4V3.9l.3-.5c0-.1.1-.1.2,0l.2.2Z" fill="#a9cda6"/><path d="M44.6,3l.2.7v.1l-.1.2h-.1c-.1,0-.1,0-.2-.1l-.2-.7V3.1l.1-.1h.1A.1385.1385,0,0,1,44.6,3Z" fill="#a9cda6"/><path d="M48.6,2.9h.1l.1.1v.1l-.2.7c-.1.2-.1.2-.2.2h-.1l-.1-.1V3.8l.2-.8A.3491.3491,0,0,1,48.6,2.9Z" fill="#a9cda6"/></g><g id="roughgrass_bd-16" data-name="roughgrass_bd" style="isolation:isolate"><path d="M69.8,26.4v.1l-.1.1h-.3l-.3-.5V26l.1-.1h.3Z" fill="#a9cda6"/><path d="M72.1,25.8h0a1.7265,1.7265,0,0,0-.4-.3c-.1-.2.1-.7.1-.7v-.7A1.65,1.65,0,0,1,72.1,25.8Z" fill="#a9cda6"/><path d="M72.1,25.8c.1.1.2.1.2.4H72C71.9,26.1,72,26,72.1,25.8Z" fill="#a9cda6"/><path d="M74.2,24.9l-.5.5a2.1644,2.1644,0,0,0-.3.6v.2a.4829.4829,0,0,1-.4,0,2.18,2.18,0,0,0,.1-.6s0-1.1.5-1.2c0,0,.4-.2.1.1a1.67,1.67,0,0,0-.3.9C73.5,25.3,73.8,24.9,74.2,24.9Z" fill="#a9cda6"/><path d="M76.2,26v.1l-.3.4c0,.1-.1.1-.2,0h-.1l-.1-.1v-.1l.3-.5c0-.1.1-.1.2,0l.2.2Z" fill="#a9cda6"/><path d="M70.8,25.5l.2.7v.1l-.1.1h-.1c-.1,0-.1,0-.2-.1l-.2-.7v-.1l.1-.1h.1C70.7,25.3,70.7,25.4,70.8,25.5Z" fill="#a9cda6"/><path d="M74.8,25.4h.1l.1.1v.1l-.2.7c0,.1-.1.1-.2.1h-.1l-.1-.1v-.1l.2-.7C74.6,25.4,74.7,25.3,74.8,25.4Z" fill="#a9cda6"/></g><g id="roughgrass_bd-17" data-name="roughgrass_bd" style="isolation:isolate"><path d="M75.2,21.8v.1l-.1.1h-.3l-.3-.5v-.1l.1-.1h.3Z" fill="#a9cda6"/><path d="M77.5,21.2h0a1.7265,1.7265,0,0,0-.4-.3c-.1-.2.1-.7.1-.7v-.7A1.65,1.65,0,0,1,77.5,21.2Z" fill="#a9cda6"/><path d="M77.5,21.2c.1.1.2.1.2.4h-.3C77.3,21.5,77.4,21.4,77.5,21.2Z" fill="#a9cda6"/><path d="M79.6,20.3l-.5.5a2.1644,2.1644,0,0,0-.3.6v.2a.4829.4829,0,0,1-.4,0,2.18,2.18,0,0,0,.1-.6s0-1.1.5-1.2c0,0,.4-.2.1.1a1.67,1.67,0,0,0-.3.9C78.9,20.7,79.2,20.3,79.6,20.3Z" fill="#a9cda6"/><path d="M81.6,21.4v.1l-.3.5c0,.1-.1.1-.2,0H81l-.1-.1v-.1l.3-.5c0-.1.1-.1.2,0l.2.1Z" fill="#a9cda6"/><path d="M76.2,20.9l.2.7v.1l-.1.1h-.1c-.1,0-.1,0-.2-.1l-.2-.7v-.1l.1-.1H76C76.1,20.7,76.1,20.8,76.2,20.9Z" fill="#a9cda6"/><path d="M80.2,20.8h.1l.1.1V21l-.2.7c0,.1-.1.1-.2.1h-.1l-.1-.1v-.1l.2-.7C80,20.8,80.1,20.7,80.2,20.8Z" fill="#a9cda6"/></g><g id="roughgrass_bd-18" data-name="roughgrass_bd" style="isolation:isolate"><path d="M66.2,20.2v.1l-.1.1h-.3l-.2-.4v-.1l.1-.1H66Z" fill="#a9cda6"/><path d="M68.5,19.7h0a1.7265,1.7265,0,0,0-.4-.3c-.1-.2.1-.7.1-.7V18A1.432,1.432,0,0,1,68.5,19.7Z" fill="#a9cda6"/><path d="M68.5,19.7c.1.1.2.1.2.4h-.3C68.4,19.9,68.4,19.8,68.5,19.7Z" fill="#a9cda6"/><path d="M70.6,18.8l-.5.5a2.1644,2.1644,0,0,0-.3.6v.2a.4829.4829,0,0,1-.4,0,2.18,2.18,0,0,0,.1-.6s0-1.1.5-1.2c0,0,.4-.2.1.1a1.67,1.67,0,0,0-.3.9C69.9,19.2,70.2,18.8,70.6,18.8Z" fill="#a9cda6"/><path d="M72.6,19.8v.1l-.3.4c0,.1-.1.1-.2,0H72v-.1l.3-.5c0-.1.1-.1.2,0l.1.1Z" fill="#a9cda6"/><path d="M67.2,19.3l.2.7v.1l-.1.1h-.1c-.1,0-.1,0-.2-.1l-.2-.7v-.1l.1-.1H67C67.1,19.2,67.2,19.2,67.2,19.3Z" fill="#a9cda6"/><path d="M71.2,19.2h.1l.1.1v.1l-.2.7c0,.1-.1.1-.2.1h-.1l-.1-.1V20l.2-.7C71.1,19.2,71.1,19.2,71.2,19.2Z" fill="#a9cda6"/></g><g id="roughgrass_bd-19" data-name="roughgrass_bd" style="isolation:isolate"><path d="M80.9,9.4v.1l-.1.1h-.3l-.3-.5V9l.1-.1h.3Z" fill="#a9cda6"/><path d="M83.2,8.8h0a1.7265,1.7265,0,0,0-.4-.3,3.1,3.1,0,0,1,.2-.7V7.1A1.4785,1.4785,0,0,1,83.2,8.8Z" fill="#a9cda6"/><path d="M83.2,8.9c.1.1.2.1.2.4h-.3C83.1,9.1,83.1,9,83.2,8.9Z" fill="#a9cda6"/><path d="M85.4,8l-.5.5a2.1644,2.1644,0,0,0-.3.6v.2a.4829.4829,0,0,1-.4,0,2.18,2.18,0,0,0,.1-.6s0-1.1.5-1.2c0,0,.4-.2.1.1a1.67,1.67,0,0,0-.3.9A.8514.8514,0,0,1,85.4,8Z" fill="#a9cda6"/><path d="M87.4,9v.1l-.4.5c0,.1-.1.1-.2,0h-.1l-.1-.1V9.4l.4-.5c0-.1.1-.1.2,0l.2.1Z" fill="#a9cda6"/><path d="M81.9,8.5l.2.7v.1l-.1.1h-.1c-.1,0-.1,0-.2-.1l-.2-.7V8.5l.1-.1h.1C81.8,8.4,81.9,8.4,81.9,8.5Z" fill="#a9cda6"/><path d="M85.9,8.4H86l.1.1v.1l-.2.7c0,.1-.1.1-.2.1h-.1l-.1-.1V9.2l.2-.7C85.8,8.4,85.8,8.4,85.9,8.4Z" fill="#a9cda6"/></g><g id="roughgrass_bd-20" data-name="roughgrass_bd" style="isolation:isolate"><path d="M86.3,4.8v.1l-.1.1h-.3l-.3-.5V4.4l.1-.1H86Z" fill="#a9cda6"/><path d="M88.6,4.2h0a1.7265,1.7265,0,0,0-.4-.3c-.1-.2.1-.7.1-.7V2.5C89.1,3.5,88.6,4.2,88.6,4.2Z" fill="#a9cda6"/><path d="M88.6,4.3c.1.1.2.1.2.4h-.3C88.5,4.5,88.5,4.4,88.6,4.3Z" fill="#a9cda6"/><path d="M90.8,3.4l-.5.5a2.1644,2.1644,0,0,0-.3.6v.2a.4829.4829,0,0,1-.4,0,2.18,2.18,0,0,0,.1-.6s0-1.1.5-1.2c0,0,.4-.2.1.1a1.67,1.67,0,0,0-.3.9A.8514.8514,0,0,1,90.8,3.4Z" fill="#a9cda6"/><path d="M92.8,4.4v.1l-.4.5c0,.1-.1.1-.2,0h-.1L92,4.9V4.8l.3-.5c0-.1.1-.1.2,0l.3.1Z" fill="#a9cda6"/><path d="M87.3,3.9l.2.7v.1l-.1.1h-.1c-.1,0-.1,0-.2-.1L86.9,4V3.9l.1-.1h.1C87.2,3.8,87.3,3.8,87.3,3.9Z" fill="#a9cda6"/><path d="M91.3,3.8h.1l.1.1V4l-.2.7c0,.1-.1.1-.2.1H91l-.1-.1V4.6l.2-.7C91.2,3.8,91.2,3.8,91.3,3.8Z" fill="#a9cda6"/></g><g id="roughgrass_bd-21" data-name="roughgrass_bd" style="isolation:isolate"><path d="M77.4,3.2v.1l-.1.1H77L76.7,3V2.9l.1-.1h.3Z" fill="#a9cda6"/><path d="M79.7,2.7h0a1.7265,1.7265,0,0,0-.4-.3c-.1-.2.1-.7.1-.7V1A1.65,1.65,0,0,1,79.7,2.7Z" fill="#a9cda6"/><path d="M79.7,2.7c.1.1.2.1.2.4h-.3C79.5,3,79.6,2.9,79.7,2.7Z" fill="#a9cda6"/><path d="M81.8,1.8l-.5.5a2.1644,2.1644,0,0,0-.3.6v.2a.4829.4829,0,0,1-.4,0,2.18,2.18,0,0,0,.1-.6s0-1.1.5-1.2c0,0,.4-.2.1.1a1.67,1.67,0,0,0-.3.9C81.1,2.2,81.4,1.8,81.8,1.8Z" fill="#a9cda6"/><path d="M83.8,2.9V3l-.3.4c0,.1-.1.1-.2,0h-.1l-.1-.1V3.2l.3-.5c0-.1.1-.1.2,0l.2.2Z" fill="#a9cda6"/><path d="M78.4,2.4l.2.7v.1l-.1.1h-.1c-.1,0-.1,0-.2-.1L78,2.5V2.4l.1-.1h.1C78.3,2.2,78.3,2.3,78.4,2.4Z" fill="#a9cda6"/><path d="M82.4,2.3h.1l.1.1v.1l-.2.7c0,.1-.1.1-.2.1h-.1L82,3.2V3.1l.2-.7C82.2,2.3,82.3,2.2,82.4,2.3Z" fill="#a9cda6"/></g><g id="roughgrass_bd-22" data-name="roughgrass_bd" style="isolation:isolate"><path d="M70.8,46.3v.1l-.1.1h-.3l-.3-.5v-.1l.1-.1h.3Z" fill="#a9cda6"/><path d="M73.1,45.8h0a1.7265,1.7265,0,0,0-.4-.3c-.1-.2.1-.7.1-.7v-.7A1.65,1.65,0,0,1,73.1,45.8Z" fill="#a9cda6"/><path d="M73.1,45.8c.1.1.2.1.2.4H73C72.9,46.1,73,46,73.1,45.8Z" fill="#a9cda6"/><path d="M75.2,44.9l-.5.5a2.1644,2.1644,0,0,0-.3.6v.2a.4829.4829,0,0,1-.4,0,2.18,2.18,0,0,0,.1-.6s0-1.1.5-1.2c0,0,.4-.2.1.1a1.67,1.67,0,0,0-.3.9C74.5,45.3,74.8,44.9,75.2,44.9Z" fill="#a9cda6"/><path d="M77.2,46v.1l-.3.4c0,.1-.1.1-.2,0h-.1l-.1-.1v-.1l.3-.5c0-.1.1-.1.2,0l.2.2Z" fill="#a9cda6"/><path d="M71.8,45.5l.2.7v.1l-.1.1h-.1c-.1,0-.1,0-.2-.1l-.2-.7v-.1l.1-.1h.1C71.7,45.3,71.7,45.4,71.8,45.5Z" fill="#a9cda6"/><path d="M75.8,45.4h.1l.1.1v.1l-.2.7c0,.1-.1.1-.2.1h-.1l-.1-.1v-.1l.2-.7C75.6,45.4,75.7,45.3,75.8,45.4Z" fill="#a9cda6"/></g><g id="roughgrass_bd-23" data-name="roughgrass_bd" style="isolation:isolate"><path d="M76.2,41.7v.1l-.1.1L76,42h-.2l-.3-.5v-.1l.1-.1h.3Z" fill="#a9cda6"/><path d="M78.5,41.2h0a1.7265,1.7265,0,0,0-.4-.3c-.1-.2.1-.7.1-.7v-.7A1.65,1.65,0,0,1,78.5,41.2Z" fill="#a9cda6"/><path d="M78.5,41.2c.1.1.2.1.2.4h-.3C78.3,41.5,78.4,41.4,78.5,41.2Z" fill="#a9cda6"/><path d="M80.6,40.3l-.5.5a2.1644,2.1644,0,0,0-.3.6v.2a.4829.4829,0,0,1-.4,0,2.18,2.18,0,0,0,.1-.6s0-1.1.5-1.2c0,0,.4-.2.1.1a1.67,1.67,0,0,0-.3.9C79.9,40.7,80.2,40.3,80.6,40.3Z" fill="#a9cda6"/><path d="M82.6,41.4v.1l-.3.4c0,.1-.1.1-.2,0H82l-.1-.1v-.1l.3-.5c0-.1.1-.1.2,0l.2.2Z" fill="#a9cda6"/><path d="M77.2,40.9l.2.7v.1l-.1.1h-.1c-.1,0-.1,0-.2-.1l-.2-.7v-.1l.1-.1H77C77.1,40.7,77.1,40.8,77.2,40.9Z" fill="#a9cda6"/><path d="M81.2,40.8h.1l.1.1V41l-.2.7c0,.1-.1.1-.2.1h-.1l-.1-.1v-.1l.2-.7C81,40.8,81.1,40.7,81.2,40.8Z" fill="#a9cda6"/></g><g id="roughgrass_bd-24" data-name="roughgrass_bd" style="isolation:isolate"><path d="M67.2,40.2v.1l-.1.1h-.3l-.3-.5v-.1l.1-.1h.3Z" fill="#a9cda6"/><path d="M69.5,39.7h0a1.7265,1.7265,0,0,0-.4-.3c-.1-.2.1-.7.1-.7V38A1.432,1.432,0,0,1,69.5,39.7Z" fill="#a9cda6"/><path d="M69.5,39.7c.1.1.2.1.2.4h-.3C69.4,39.9,69.4,39.8,69.5,39.7Z" fill="#a9cda6"/><path d="M71.6,38.8l-.5.5a2.1644,2.1644,0,0,0-.3.6v.2a.4829.4829,0,0,1-.4,0,2.18,2.18,0,0,0,.1-.6s0-1.1.5-1.2c0,0,.4-.2.1.1a1.67,1.67,0,0,0-.3.9C70.9,39.2,71.2,38.8,71.6,38.8Z" fill="#a9cda6"/><path d="M73.6,39.8v.1l-.3.4c0,.1-.1.1-.2,0H73v-.1l.3-.5c0-.1.1-.1.2,0l.1.1Z" fill="#a9cda6"/><path d="M68.2,39.3l.2.7v.1l-.1.1h-.1c-.1,0-.1,0-.2-.1l-.2-.7v-.1l.1-.1H68C68.1,39.2,68.2,39.2,68.2,39.3Z" fill="#a9cda6"/><path d="M72.2,39.2h.1l.1.1v.1l-.2.7c0,.1-.1.1-.2.1h-.1l-.1-.1V40l.2-.7C72.1,39.2,72.1,39.2,72.2,39.2Z" fill="#a9cda6"/></g><g id="roughgrass_bd-25" data-name="roughgrass_bd" style="isolation:isolate"><path d="M81.4,70.4v.1l-.1.1H81l-.3-.5V70l.1-.1h.3Z" fill="#a9cda6"/><path d="M83.7,69.9h0a1.7265,1.7265,0,0,0-.4-.3c-.1-.2.1-.7.1-.7v-.7A1.432,1.432,0,0,1,83.7,69.9Z" fill="#a9cda6"/><path d="M83.7,69.9c.1.1.2.1.2.4h-.3C83.6,70.1,83.7,70,83.7,69.9Z" fill="#a9cda6"/><path d="M85.9,69l-.5.5a2.1644,2.1644,0,0,0-.3.6v.2a.4829.4829,0,0,1-.4,0,2.18,2.18,0,0,0,.1-.6s0-1.1.5-1.2c0,0,.4-.2.1.1a1.67,1.67,0,0,0-.3.9A.8514.8514,0,0,1,85.9,69Z" fill="#a9cda6"/><path d="M87.9,70.1v.1l-.3.4c0,.1-.1.1-.2,0h-.1l-.1-.1v-.1l.3-.5c0-.1.1-.1.2,0l.2.2Z" fill="#a9cda6"/><path d="M82.4,69.5l.2.7v.1l-.1.1h-.1c-.1,0-.1,0-.2-.1l-.2-.7v-.1l.1-.1h.1A.3491.3491,0,0,1,82.4,69.5Z" fill="#a9cda6"/><path d="M86.4,69.4h.1l.1.1v.1l-.2.7c0,.1-.1.1-.2.1H86v-.1l.2-.7C86.3,69.5,86.3,69.4,86.4,69.4Z" fill="#a9cda6"/></g><g id="roughgrass_bd-26" data-name="roughgrass_bd" style="isolation:isolate"><path d="M86.8,65.8V66h-.3l-.3-.5v-.1l.1-.1h.3Z" fill="#a9cda6"/><path d="M89.1,65.3h0a.7467.7467,0,0,0-.3-.3c-.1-.2.1-.7.1-.7v-.7A1.5084,1.5084,0,0,1,89.1,65.3Z" fill="#a9cda6"/><path d="M89.1,65.3c.1.1.2.1.2.4H89C89,65.5,89.1,65.4,89.1,65.3Z" fill="#a9cda6"/><path d="M91.3,64.4l-.5.5a2.1644,2.1644,0,0,0-.3.6v.2a.4829.4829,0,0,1-.4,0,2.18,2.18,0,0,0,.1-.6s0-1.1.5-1.2c0,0,.4-.2.1.1a1.67,1.67,0,0,0-.3.9A.8514.8514,0,0,1,91.3,64.4Z" fill="#a9cda6"/><path d="M93.3,65.5v.1l-.4.4c0,.1-.1.1-.2,0h-.1l-.1-.1v-.1l.3-.5c0-.1.1-.1.2,0l.3.2Z" fill="#a9cda6"/><path d="M87.8,64.9l.2.7v.1l-.1.1h-.1c-.1,0-.1,0-.2-.1l-.2-.7h0l.1-.1h.1A.1385.1385,0,0,1,87.8,64.9Z" fill="#a9cda6"/><path d="M91.8,64.8h.1l.1.2v.1l-.2.7c0,.1-.1.1-.2.1h-.1l-.1-.1v-.1l.2-.7C91.7,64.9,91.7,64.8,91.8,64.8Z" fill="#a9cda6"/></g><g id="roughgrass_bd-27" data-name="roughgrass_bd" style="isolation:isolate"><path d="M77.9,64.3v.1l-.1.1h-.3l-.3-.5v-.1l.1-.1h.3Z" fill="#a9cda6"/><path d="M80.2,63.7h0a1.7265,1.7265,0,0,0-.4-.3c-.1-.2.1-.7.1-.7V62C80.7,63,80.2,63.7,80.2,63.7Z" fill="#a9cda6"/><path d="M80.2,63.8c.1.1.2.1.2.4h-.3C80.1,64,80.1,63.9,80.2,63.8Z" fill="#a9cda6"/><path d="M82.3,62.9l-.5.5a2.1644,2.1644,0,0,0-.3.6v.2a.4829.4829,0,0,1-.4,0,2.18,2.18,0,0,0,.1-.6s0-1.1.5-1.2c0,0,.4-.2.1.1a1.67,1.67,0,0,0-.3.9C81.6,63.3,81.9,62.8,82.3,62.9Z" fill="#a9cda6"/><path d="M84.3,63.9V64l-.3.5c0,.1-.1.1-.2,0h-.1l-.1-.1v-.1l.3-.5c0-.1.1-.1.2,0l.2.1Z" fill="#a9cda6"/><path d="M78.9,63.4l.2.7v.1l-.1.1h-.1c-.1,0-.1,0-.2-.1l-.2-.7v-.1l.1-.1h.1C78.8,63.3,78.8,63.3,78.9,63.4Z" fill="#a9cda6"/><path d="M82.9,63.3H83l.1.1v.1l-.2.7c0,.1-.1.1-.2.1h-.1l-.1-.1v-.1l.2-.7C82.7,63.3,82.8,63.3,82.9,63.3Z" fill="#a9cda6"/></g><g id="roughgrass_bd-28" data-name="roughgrass_bd" style="isolation:isolate"><path d="M55.1,91.9V92l-.1.1h-.3l-.3-.5v-.1l.1-.1h.3Z" fill="#a9cda6"/><path d="M57.4,91.3h0A1.8658,1.8658,0,0,1,57,91c-.1-.2.1-.7.1-.7v-.7A1.6318,1.6318,0,0,1,57.4,91.3Z" fill="#a9cda6"/><path d="M57.4,91.4c.1.1.2.1.2.4h-.3C57.2,91.6,57.3,91.5,57.4,91.4Z" fill="#a9cda6"/><path d="M59.5,90.5l-.5.4a2.1644,2.1644,0,0,0-.3.6v.2a.4829.4829,0,0,1-.4,0,2.18,2.18,0,0,0,.1-.6s0-1.1.5-1.2c0,0,.4-.2.1.1a1.67,1.67,0,0,0-.3.9C58.8,90.9,59.1,90.4,59.5,90.5Z" fill="#a9cda6"/><path d="M61.5,91.5v.1l-.3.4c0,.1-.1.1-.2,0h-.2v-.1l.3-.5c0-.1.1-.1.2,0l.2.1Z" fill="#a9cda6"/><path d="M56.1,91l.2.7v.1l-.1.1h-.1c-.1,0-.1,0-.2-.1l-.2-.7V91l.1-.1h.1C56,90.9,56,90.9,56.1,91Z" fill="#a9cda6"/><path d="M60.1,90.9h.1l.1.1v.1l-.3.7c0,.1-.1.1-.2.1h-.1l-.1-.1v-.1l.2-.7A.3674.3674,0,0,1,60.1,90.9Z" fill="#a9cda6"/></g><g id="roughgrass_bd-29" data-name="roughgrass_bd" style="isolation:isolate"><path d="M60.5,87.3v.1l-.1.1h-.3l-.3-.5v-.1l.1-.1h.3Z" fill="#a9cda6"/><path d="M62.8,86.7h0a1.7265,1.7265,0,0,0-.4-.3c-.1-.2.1-.7.1-.7V85A1.6318,1.6318,0,0,1,62.8,86.7Z" fill="#a9cda6"/><path d="M62.8,86.8c.1.1.2.1.2.4h-.3C62.6,87,62.7,86.9,62.8,86.8Z" fill="#a9cda6"/><path d="M64.9,85.9l-.5.5a2.1644,2.1644,0,0,0-.3.6v.2a.4829.4829,0,0,1-.4,0,2.18,2.18,0,0,0,.1-.6s0-1.1.5-1.2c0,0,.4-.2.1.1a1.67,1.67,0,0,0-.3.9C64.2,86.3,64.5,85.8,64.9,85.9Z" fill="#a9cda6"/><path d="M66.9,86.9V87l-.3.4c0,.1-.1.1-.2,0h-.1l-.1-.1v-.1l.3-.5c0-.1.1-.1.2,0l.2.2Z" fill="#a9cda6"/><path d="M61.5,86.4l.2.7v.1l-.1.1h-.1c-.1,0-.1,0-.2-.1l-.2-.7v-.1l.1-.1h.1C61.4,86.3,61.4,86.3,61.5,86.4Z" fill="#a9cda6"/><path d="M65.5,86.3h.1l.1.1v.1l-.2.7c0,.1-.1.1-.2.1h-.1l-.1-.1v-.1l.2-.7C65.3,86.3,65.4,86.3,65.5,86.3Z" fill="#a9cda6"/></g><g id="roughgrass_bd-30" data-name="roughgrass_bd" style="isolation:isolate"><path d="M51.5,85.7v.1l-.1.1h-.3l-.3-.5v-.1l.1-.1h.3Z" fill="#a9cda6"/><path d="M53.8,85.2h0a1.7265,1.7265,0,0,0-.4-.3c-.1-.2.1-.7.1-.7v-.7A1.432,1.432,0,0,1,53.8,85.2Z" fill="#a9cda6"/><path d="M53.8,85.2c.1.1.2.1.2.4h-.3A.6012.6012,0,0,1,53.8,85.2Z" fill="#a9cda6"/><path d="M55.9,84.3l-.5.5a2.1644,2.1644,0,0,0-.3.6v.2a.4829.4829,0,0,1-.4,0,2.18,2.18,0,0,0,.1-.6s0-1.1.5-1.2c0,0,.4-.2.1.1a1.67,1.67,0,0,0-.3.9C55.2,84.7,55.5,84.3,55.9,84.3Z" fill="#a9cda6"/><path d="M57.9,85.4v.1l-.3.4c0,.1-.1.1-.2,0h-.1l-.1-.1v-.1l.3-.5c0-.1.1-.1.2,0l.2.2Z" fill="#a9cda6"/><path d="M52.5,84.8l.2.7v.1l-.1.1h-.1c-.1,0-.1,0-.2-.1l-.2-.6v-.1l.1-.1h.1A.1385.1385,0,0,1,52.5,84.8Z" fill="#a9cda6"/><path d="M56.5,84.8h.1l.1.1V85l-.2.7c0,.1-.1.1-.2.1h-.1l-.1-.1v-.1l.2-.7C56.4,84.8,56.4,84.7,56.5,84.8Z" fill="#a9cda6"/></g><g id="roughgrass_bd-31" data-name="roughgrass_bd" style="isolation:isolate"><path d="M6.9,94.7v.1l-.1.1H6.5l-.3-.5v-.1l.1-.1h.3Z" fill="#a9cda6"/><path d="M9.3,94.2h0a1.7265,1.7265,0,0,0-.4-.3,1.1041,1.1041,0,0,1,.1-.7v-.7A1.65,1.65,0,0,1,9.3,94.2Z" fill="#a9cda6"/><path d="M9.2,94.2c.1.1.2.1.2.4H9.1C9.1,94.5,9.2,94.4,9.2,94.2Z" fill="#a9cda6"/><path d="M11.4,93.3l-.5.5a2.1644,2.1644,0,0,0-.3.6v.2a.4829.4829,0,0,1-.4,0,2.18,2.18,0,0,0,.1-.6s0-1.1.5-1.2c0,0,.4-.2.1.1a1.67,1.67,0,0,0-.3.9A1.0092,1.0092,0,0,1,11.4,93.3Z" fill="#a9cda6"/><path d="M13.4,94.4v.1l-.3.4c0,.1-.1.1-.2,0h-.1l-.1-.1v-.1l.3-.5c0-.1.1-.1.2,0l.2.2Z" fill="#a9cda6"/><path d="M7.9,93.9l.2.7v.1l-.1.1H7.9c-.1,0-.1,0-.2-.1L7.6,94v-.1l.1-.1h.1C7.8,93.7,7.9,93.8,7.9,93.9Z" fill="#a9cda6"/><path d="M11.9,93.8H12l.1.1V94l-.2.7c0,.1-.1.1-.2.1h-.1l-.1-.1v-.1l.2-.7C11.8,93.8,11.9,93.7,11.9,93.8Z" fill="#a9cda6"/></g><g id="roughgrass_bd-32" data-name="roughgrass_bd" style="isolation:isolate"><path d="M12.3,90.1v.1l-.1.1h-.3l-.3-.5v-.1l.1-.1H12Z" fill="#a9cda6"/><path d="M14.7,89.6h0a1.7265,1.7265,0,0,0-.4-.3c-.1-.2.1-.7.1-.7v-.7A1.65,1.65,0,0,1,14.7,89.6Z" fill="#a9cda6"/><path d="M14.6,89.6c.1.1.2.1.2.4h-.3C14.5,89.9,14.6,89.8,14.6,89.6Z" fill="#a9cda6"/><path d="M16.8,88.7l-.5.5a2.1644,2.1644,0,0,0-.3.6V90a.4829.4829,0,0,1-.4,0,2.18,2.18,0,0,0,.1-.6s0-1.1.5-1.2c0,0,.4-.2.1.1a1.67,1.67,0,0,0-.3.9A1.0092,1.0092,0,0,1,16.8,88.7Z" fill="#a9cda6"/><path d="M18.8,89.8v.1l-.3.4c0,.1-.1.1-.2,0h-.1l-.1-.1v-.1l.3-.5c0-.1.1-.1.2,0l.2.2Z" fill="#a9cda6"/><path d="M13.3,89.3l.2.7v.1l-.1.1h-.1c-.1,0-.1,0-.2-.1l-.1-.7v-.1l.1-.1h.1C13.2,89.1,13.3,89.2,13.3,89.3Z" fill="#a9cda6"/><path d="M17.3,89.2h.1l.1.1v.1l-.2.7c0,.1-.1.1-.2.1H17V90l.2-.7C17.2,89.2,17.3,89.1,17.3,89.2Z" fill="#a9cda6"/></g><g id="roughgrass_bd-33" data-name="roughgrass_bd" style="isolation:isolate"><path d="M3.4,88.6v.1l-.1.1H3l-.3-.5v-.1l.1-.1h.3Z" fill="#a9cda6"/><path d="M5.7,88.1h0a1.7265,1.7265,0,0,0-.4-.3c-.1-.2.1-.7.1-.7v-.7A1.432,1.432,0,0,1,5.7,88.1Z" fill="#a9cda6"/><path d="M5.7,88.1c.1.1.2.1.2.4H5.6C5.6,88.3,5.6,88.2,5.7,88.1Z" fill="#a9cda6"/><path d="M7.8,87.2l-.5.5a2.1644,2.1644,0,0,0-.3.6v.2a.4829.4829,0,0,1-.4,0,2.18,2.18,0,0,0,.1-.6s0-1.1.5-1.2c0,0,.4-.2.1.1a1.67,1.67,0,0,0-.3.9C7.1,87.6,7.4,87.2,7.8,87.2Z" fill="#a9cda6"/><path d="M9.8,88.2v.1l-.3.4c0,.1-.1.1-.2,0H9.2l-.1-.1v-.1l.3-.5c0-.1.1-.1.2,0l.2.2Z" fill="#a9cda6"/><path d="M4.4,87.7l.2.7v.1l-.1.1H4.4c-.1,0-.1,0-.2-.1L4,87.9v-.1l.1-.1h.1C4.3,87.6,4.4,87.6,4.4,87.7Z" fill="#a9cda6"/><path d="M8.4,87.6h.1l.1.1v.1l-.2.7c0,.1-.1.1-.2.1H8.1L8,88.5v-.1l.2-.7C8.2,87.6,8.3,87.6,8.4,87.6Z" fill="#a9cda6"/></g></svg>