<svg id="Layer_1" data-name="Layer 1" xmlns="http://www.w3.org/2000/svg" width="33.8667mm" height="33.8667mm" viewBox="0 0 96 96"><g id="marsh_bd"><g id="Marsh_FC"><path d="M13.7,78.4c.1.1,0,.2-.1.2H11.2a.2.2,0,1,1,0-.4h1.6a.0979.0979,0,0,0-.1-.1h0c-.1-.1-.1-.1,0-.2l.1-.1.2.2v.2h.2c0-.2,0-.3-.1-.4a.0979.0979,0,0,0-.1-.1.1385.1385,0,0,1,0-.2h.1c.1.1.1.2.2.2v.1a.3674.3674,0,0,0,.1.3C13.6,78.2,13.6,78.3,13.7,78.4Zm3,.9c0,.1-.1.1-.2.1H12.6a.125.125,0,1,1,0-.2h3.9C16.6,79.2,16.7,79.2,16.7,79.3Zm-2.3-.8a2.0577,2.0577,0,0,0-.5-.9s-.2-.2.2-.1a1.1057,1.1057,0,0,1,.4.5s0-.8.5-.9c0,0,.3-.1.1.1a1.0474,1.0474,0,0,0-.3.6,1.4093,1.4093,0,0,1,.5-.3s.3-.1,0,.1l-.4.4a.31.31,0,0,0-.1.2l-.2.2C14.6,78.6,14.6,78.6,14.4,78.5Zm1.1-.1c0-.1.1-.2.1-.3V78a.3674.3674,0,0,1,.1-.3.0979.0979,0,0,1,.1-.1.1875.1875,0,0,1,.3,0h.1c-.1.1-.2.2-.2.3v.2a.2151.2151,0,0,0,.2.2h0c0-.1,0-.2.1-.2V78a.1875.1875,0,0,1,.3,0l.1.1c-.1,0-.1.1-.2.1h0a.3491.3491,0,0,0,.2.1H18a.2.2,0,0,1,0,.4H15.6A.3674.3674,0,0,1,15.5,78.4Z" fill="#95cdc7"/></g></g><g id="roughgrass_bd"><g id="RoughGrass_FC"><path d="M17.1,74.6v.1l-.1.1h-.3l-.3-.5v-.1l.1-.1h.3Z" fill="#a9cda6"/><path d="M19.4,74.1h0a1.7265,1.7265,0,0,0-.4-.3c-.1-.2.1-.7.1-.7v-.7A1.432,1.432,0,0,1,19.4,74.1Z" fill="#a9cda6"/><path d="M19.4,74.1c.1.1.2.1.2.4h-.3C19.3,74.4,19.4,74.2,19.4,74.1Z" fill="#a9cda6"/><path d="M21.6,73.2l-.5.5a2.1644,2.1644,0,0,0-.3.6v.2a.4829.4829,0,0,1-.4,0,2.18,2.18,0,0,0,.1-.6s0-1.1.5-1.2c0,0,.4-.2.1.1a1.67,1.67,0,0,0-.3.9A.8514.8514,0,0,1,21.6,73.2Z" fill="#a9cda6"/><path d="M23.6,74.3v.1l-.3.4c0,.1-.1.1-.2,0H23l-.1-.1v-.1l.3-.5c0-.1.1-.1.2,0l.2.2Z" fill="#a9cda6"/><path d="M18.1,73.7l.2.7v.1l-.1.1h-.1c-.1,0-.1,0-.2-.1l-.2-.7v-.1l.1-.1h.1A.3491.3491,0,0,1,18.1,73.7Z" fill="#a9cda6"/><path d="M22.1,73.7h.1l.1.1v.1l-.2.7c0,.1-.1.1-.2.1h-.1l-.1-.1v-.1l.2-.7C22,73.7,22,73.6,22.1,73.7Z" fill="#a9cda6"/></g></g><g id="roughgrass_bd-2" data-name="roughgrass_bd" style="isolation:isolate"><g id="RoughGrass_FC-2" data-name="RoughGrass_FC"><path d="M8.1,73.1v.1l-.1.1H7.7l-.3-.5v-.1l.1-.1h.3Z" fill="#a9cda6"/><path d="M10.5,72.5h0a1.7265,1.7265,0,0,0-.4-.3c-.1-.2.1-.7.1-.7v-.7A1.6318,1.6318,0,0,1,10.5,72.5Z" fill="#a9cda6"/><path d="M10.4,72.6c.1.1.2.1.2.4h-.3C10.3,72.8,10.4,72.7,10.4,72.6Z" fill="#a9cda6"/><path d="M12.6,71.7l-.5.5a2.1644,2.1644,0,0,0-.3.6V73a.4829.4829,0,0,1-.4,0,2.18,2.18,0,0,0,.1-.6s0-1.1.5-1.2c0,0,.4-.2.1.1a1.67,1.67,0,0,0-.3.9C11.8,72.1,12.2,71.6,12.6,71.7Z" fill="#a9cda6"/><path d="M14.6,72.7v.1l-.3.4c0,.1-.1.1-.2,0H14l-.1-.1V73l.3-.5c0-.1.1-.1.2,0l.2.2Z" fill="#a9cda6"/><path d="M9.1,72.2l.2.7V73l-.1.1H9.1c-.1,0-.1,0-.2-.1l-.2-.7v-.1l.1-.1h.1C9,72.1,9.1,72.1,9.1,72.2Z" fill="#a9cda6"/><path d="M13.1,72.1h.1l.1.1v.1l-.2.7c0,.1-.1.1-.2.1h-.1v-.2l.2-.7A.0979.0979,0,0,1,13.1,72.1Z" fill="#a9cda6"/></g></g><g id="marsh_bd-2" data-name="marsh_bd" style="isolation:isolate"><g id="Marsh_FC-2" data-name="Marsh_FC"><path d="M50.6,67.7c.1.1,0,.2-.1.2H48.1a.2.2,0,0,1,0-.4h1.6a.0979.0979,0,0,0-.1-.1h0c-.1-.1-.1-.1,0-.2l.1-.1.2.2v.2h.2c0-.2,0-.3-.1-.4a.0979.0979,0,0,0-.1-.1.1385.1385,0,0,1,0-.2H50c.1.1.1.2.2.2v.1a.3674.3674,0,0,0,.1.3C50.5,67.5,50.5,67.6,50.6,67.7Zm3,.9c0,.1-.1.1-.2.1H49.5a.125.125,0,1,1,0-.2h3.9C53.5,68.5,53.6,68.5,53.6,68.6Zm-2.4-.8a3.0764,3.0764,0,0,0-.4-.9s-.2-.2.2-.1a1.1057,1.1057,0,0,1,.4.5s0-.8.5-.9c0,0,.3-.1.1.1a1.0474,1.0474,0,0,0-.3.6,1.4093,1.4093,0,0,1,.5-.3s.3-.1,0,.1l-.4.4a.31.31,0,0,0-.1.2l-.2.2C51.5,67.9,51.5,67.9,51.2,67.8Zm1.2-.1c0-.1.1-.2.1-.3v-.1a.3674.3674,0,0,1,.1-.3.0979.0979,0,0,1,.1-.1.1875.1875,0,0,1,.3,0h.1c-.1.1-.2.2-.2.3v.2a.2151.2151,0,0,0,.2.2h0c0-.1,0-.2.1-.2v-.1a.1875.1875,0,0,1,.3,0l.1.1c-.1,0-.1.1-.2.1h0a.3491.3491,0,0,0,.2.1H55a.2.2,0,0,1,0,.4H52.6C52.4,67.9,52.3,67.8,52.4,67.7Z" fill="#95cdc7"/></g></g><g id="roughgrass_bd-3" data-name="roughgrass_bd" style="isolation:isolate"><g id="RoughGrass_FC-3" data-name="RoughGrass_FC"><path d="M54,63.9V64l-.1.1h-.3l-.3-.5v-.1l.1-.1h.3Z" fill="#a9cda6"/><path d="M56.3,63.4h0a1.7265,1.7265,0,0,0-.4-.3c-.1-.2.1-.7.1-.7v-.7A1.432,1.432,0,0,1,56.3,63.4Z" fill="#a9cda6"/><path d="M56.3,63.4c.1.1.2.1.2.4h-.3A.6012.6012,0,0,1,56.3,63.4Z" fill="#a9cda6"/><path d="M58.4,62.5,58,63a2.1644,2.1644,0,0,0-.3.6v.2a.4829.4829,0,0,1-.4,0,2.18,2.18,0,0,0,.1-.6s0-1.1.5-1.2c0,0,.4-.2.1.1a1.67,1.67,0,0,0-.3.9A.8083.8083,0,0,1,58.4,62.5Z" fill="#a9cda6"/><path d="M60.4,63.6v.1l-.3.4c0,.1-.1.1-.2,0h-.1l-.1-.1v-.1l.3-.5c0-.1.1-.1.2,0l.2.2Z" fill="#a9cda6"/><path d="M55,63l.2.7v.1l-.1.2H55c-.1,0-.1,0-.2-.1l-.2-.7v-.1l.1-.1h.1A.1385.1385,0,0,1,55,63Z" fill="#a9cda6"/><path d="M59,63h.1l.1.1v.1l-.2.7c0,.1-.1.1-.2.1h-.1l-.1-.1v-.1l.2-.7C58.8,63,58.9,62.9,59,63Z" fill="#a9cda6"/></g></g><g id="roughgrass_bd-4" data-name="roughgrass_bd" style="isolation:isolate"><g id="RoughGrass_FC-4" data-name="RoughGrass_FC"><path d="M45,62.4v.1l-.1.1h-.3l-.3-.5V62l.1-.1h.3Z" fill="#a9cda6"/><path d="M47.3,61.8h0a1.7265,1.7265,0,0,0-.4-.3c-.1-.2.1-.7.1-.7v-.7C47.8,61.1,47.3,61.8,47.3,61.8Z" fill="#a9cda6"/><path d="M47.3,61.9c.1.1.2.1.2.4h-.3C47.2,62.1,47.3,62,47.3,61.9Z" fill="#a9cda6"/><path d="M49.5,61l-.5.4a2.1644,2.1644,0,0,0-.3.6v.2a.4829.4829,0,0,1-.4,0,2.18,2.18,0,0,0,.1-.6s0-1.1.5-1.2c0,0,.4-.2.1.1a1.67,1.67,0,0,0-.3.9A1.08,1.08,0,0,1,49.5,61Z" fill="#a9cda6"/><path d="M51.5,62v.1l-.3.4c0,.1-.1.1-.2,0h-.1l-.1-.1v-.1l.3-.5c0-.1.1-.1.2,0l.2.2Z" fill="#a9cda6"/><path d="M46,61.5l.2.7v.1l-.1.1H46c-.1,0-.1,0-.2-.1l-.2-.7v-.1l.1-.1h.1C45.9,61.4,46,61.4,46,61.5Z" fill="#a9cda6"/><path d="M50,61.4h.1l.1.1v.1l-.2.8c0,.1-.1.1-.2.1h-.1l-.1-.1v-.1l.2-.7C49.9,61.4,49.9,61.4,50,61.4Z" fill="#a9cda6"/></g></g><g id="marsh_bd-3" data-name="marsh_bd" style="isolation:isolate"><g id="Marsh_FC-3" data-name="Marsh_FC"><path d="M9.2,50.1c.1.1,0,.2-.1.2H6.8a.2.2,0,0,1,0-.4H8.4a.0979.0979,0,0,0-.1-.1h0c-.1-.1-.1-.1,0-.2l.1-.1.2.2v.2h.2c0-.2,0-.3-.1-.4a.0979.0979,0,0,0-.1-.1.1385.1385,0,0,1,0-.2h.1c.2.1.3.1.3.2v.1a.3674.3674,0,0,0,.1.3C9.1,49.9,9.2,50,9.2,50.1Zm3.1.9c0,.1-.1.1-.2.1H8.2a.125.125,0,1,1,0-.2h3.9C12.2,50.9,12.3,50.9,12.3,51Zm-2.4-.8a2.0577,2.0577,0,0,0-.5-.9s-.2-.2.2-.1a1.1057,1.1057,0,0,1,.4.5s0-.8.5-.9c0,0,.3-.1.1.1a1.0474,1.0474,0,0,0-.3.6,1.4093,1.4093,0,0,1,.5-.3s.3-.1,0,.1l-.4.4a.31.31,0,0,0-.1.2l-.2.2C10.1,50.3,10.1,50.3,9.9,50.2Zm1.1-.1c0-.1.1-.2.1-.3v-.1a.3674.3674,0,0,1,.1-.3.0979.0979,0,0,1,.1-.1.1875.1875,0,0,1,.3,0h.1c-.1.1-.2.2-.2.3v.2a.2151.2151,0,0,0,.2.2h0c0-.1,0-.2.1-.2v-.1a.1875.1875,0,0,1,.3,0l.1.1c-.1,0-.1.1-.2.1h0a.3491.3491,0,0,0,.2.1h1.5a.2.2,0,0,1,0,.4H11.3C11,50.2,11,50.2,11,50.1Z" fill="#95cdc7"/></g></g><g id="roughgrass_bd-5" data-name="roughgrass_bd" style="isolation:isolate"><g id="RoughGrass_FC-5" data-name="RoughGrass_FC"><path d="M12.6,46.3v.1l-.1.1h-.3l-.2-.4V46l.1-.1h.3Z" fill="#a9cda6"/><path d="M15,45.8h0a1.7265,1.7265,0,0,0-.4-.3c-.1-.2.1-.7.1-.7v-.7A1.65,1.65,0,0,1,15,45.8Z" fill="#a9cda6"/><path d="M14.9,45.8c.1.1.2.1.2.4h-.3C14.8,46,14.9,45.9,14.9,45.8Z" fill="#a9cda6"/><path d="M17.1,44.9l-.5.5a2.1644,2.1644,0,0,0-.3.6v.2a.4829.4829,0,0,1-.4,0,2.18,2.18,0,0,0,.1-.6s0-1.1.5-1.2c0,0,.4-.2.1.1a1.67,1.67,0,0,0-.3.9A1.0092,1.0092,0,0,1,17.1,44.9Z" fill="#a9cda6"/><path d="M19.1,46v.1l-.3.4c0,.1-.1.1-.2,0h-.1l-.1-.1v-.1l.3-.5c0-.1.1-.1.2,0l.2.2Z" fill="#a9cda6"/><path d="M13.6,45.4l.2.7v.1l-.1.1h-.1c-.1,0-.1,0-.2-.1l-.2-.7v-.1l.1-.1h.1A.3491.3491,0,0,1,13.6,45.4Z" fill="#a9cda6"/><path d="M17.6,45.3h.1l.1.1v.1l-.2.7c0,.1-.1.1-.2.1h-.1l-.1-.1v-.1l.2-.7A.3491.3491,0,0,0,17.6,45.3Z" fill="#a9cda6"/></g></g><g id="marsh_bd-4" data-name="marsh_bd" style="isolation:isolate"><g id="Marsh_FC-4" data-name="Marsh_FC"><path d="M5.7,43.9c.1.1,0,.2-.1.2H3.2a.2.2,0,0,1,0-.4H4.8a.0979.0979,0,0,0-.1-.1h0c-.1-.1-.1-.1,0-.2l.1-.1c.1.2.2.2.2.3v.2h.2c0-.2,0-.3-.1-.4a.0979.0979,0,0,0-.1-.1.1385.1385,0,0,1,0-.2h.1c.1.1.1.2.2.2s0,.1,0,.1a.3674.3674,0,0,0,.1.3C5.6,43.7,5.6,43.9,5.7,43.9Zm3,.9c0,.1-.1.1-.2.1H4.6a.3491.3491,0,0,1-.2-.1.3491.3491,0,0,1,.2-.1H8.5A.3491.3491,0,0,1,8.7,44.8ZM6.3,44a2.0577,2.0577,0,0,0-.5-.9s-.2-.2.2-.1a1.1057,1.1057,0,0,1,.4.5s0-.8.5-.9c0,0,.3-.1.1.1a1.0474,1.0474,0,0,0-.3.6,1.4093,1.4093,0,0,1,.5-.3s.3-.1,0,.1l-.4.4a.31.31,0,0,0-.1.2l-.2.2C6.6,44.1,6.6,44.1,6.3,44Zm1.2-.1c0-.1.1-.2.1-.3v-.1a.3674.3674,0,0,1,.1-.3.0979.0979,0,0,1,.1-.1.1875.1875,0,0,1,.3,0h.1c-.1.1-.2.2-.2.3v.2a.2151.2151,0,0,0,.2.2h0c0-.1,0-.2.1-.2v-.1a.1875.1875,0,0,1,.3,0l.1.1c-.1,0-.1.1-.2.1h0a.3491.3491,0,0,0,.2.1h1.5a.2.2,0,0,1,0,.4H7.6C7.5,44.1,7.4,44,7.5,43.9Z" fill="#95cdc7"/></g></g><g id="marsh_bd-5" data-name="marsh_bd" style="isolation:isolate"><g id="Marsh_FC-5" data-name="Marsh_FC"><path d="M18.1,29c.1.1,0,.2-.1.2H15.6a.2.2,0,0,1,0-.4h1.6a.0979.0979,0,0,0-.1-.1h0c-.1-.1-.1-.1,0-.2l.1-.1.2.2v.2h.2c0-.2,0-.3-.1-.4a.0979.0979,0,0,0-.1-.1.1385.1385,0,0,1,0-.2h.1c.1.1.1.2.2.2v.1a.3674.3674,0,0,0,.1.3Q18.1,28.85,18.1,29Zm3.1.9c0,.1-.1.1-.2.1H17.1a.3491.3491,0,0,1-.2-.1c0-.1.1-.1.2-.1H21C21.1,29.7,21.2,29.8,21.2,29.9Zm-2.4-.8a2.0577,2.0577,0,0,0-.5-.9s-.2-.2.2-.1a1.1057,1.1057,0,0,1,.4.5s0-.8.5-.9c0,0,.3-.1.1.1a1.0474,1.0474,0,0,0-.3.6,1.4093,1.4093,0,0,1,.5-.3s.3-.1,0,.1l-.4.4a.31.31,0,0,0-.1.2L19,29C19,29.2,19,29.2,18.8,29.1Zm1.1-.1c0-.1.1-.2.1-.3v-.1a.3674.3674,0,0,1,.1-.3.0979.0979,0,0,1,.1-.1.1875.1875,0,0,1,.3,0h.1c-.1.1-.2.2-.2.3v.2a.2151.2151,0,0,0,.2.2h0c0-.1,0-.2.1-.2v-.1a.1875.1875,0,0,1,.3,0l.1.1c-.1,0-.1.1-.2.1h0a.3491.3491,0,0,0,.2.1h1.5a.2.2,0,1,1,0,.4H20C19.9,29.1,19.9,29.1,19.9,29Z" fill="#95cdc7"/></g></g><g id="roughgrass_bd-6" data-name="roughgrass_bd" style="isolation:isolate"><g id="RoughGrass_FC-6" data-name="RoughGrass_FC"><path d="M21.5,25.2v.1l-.1.1h-.3l-.2-.4v-.1l.1-.1h.3Z" fill="#a9cda6"/><path d="M23.9,24.7h0c-.1,0-.1-.1,0,0a1.7265,1.7265,0,0,0-.4-.3c-.1-.2.1-.7.1-.7V23A1.65,1.65,0,0,1,23.9,24.7Z" fill="#a9cda6"/><path d="M23.9,24.7c.1.1.2.1.2.4h-.3C23.7,24.9,23.8,24.8,23.9,24.7Z" fill="#a9cda6"/><path d="M26,23.8l-.5.5a2.1644,2.1644,0,0,0-.3.6v.2a.4829.4829,0,0,1-.4,0,2.18,2.18,0,0,0,.1-.6s0-1.1.5-1.2c0,0,.4-.2.1.1a1.67,1.67,0,0,0-.3.9A1.0092,1.0092,0,0,1,26,23.8Z" fill="#a9cda6"/><path d="M28,24.9V25l-.3.4c0,.1-.1.1-.2,0h-.1l-.1-.1v-.1l.3-.5c0-.1.1-.1.2,0l.2.2Z" fill="#a9cda6"/><path d="M22.5,24.3l.2.7v.1l-.1.1h-.1c-.1,0-.1,0-.2-.1l-.2-.7v-.1l.1-.1h.1A.3491.3491,0,0,1,22.5,24.3Z" fill="#a9cda6"/><path d="M26.6,24.2h.1l.1.1v.1l-.2.7c0,.1-.1.1-.2.1h-.1l-.1-.1V25l.2-.7A.3491.3491,0,0,1,26.6,24.2Z" fill="#a9cda6"/></g></g><g id="roughgrass_bd-7" data-name="roughgrass_bd" style="isolation:isolate"><g id="RoughGrass_FC-7" data-name="RoughGrass_FC"><path d="M12.6,23.7v.1l-.1.1h-.3l-.3-.5v-.1l.1-.1h.3Z" fill="#a9cda6"/><path d="M14.9,23.1h0a1.7265,1.7265,0,0,0-.4-.3c-.1-.2.1-.7.1-.7v-.7A1.432,1.432,0,0,1,14.9,23.1Z" fill="#a9cda6"/><path d="M14.9,23.1c.1.1.2.1.2.4h-.3A.7559.7559,0,0,1,14.9,23.1Z" fill="#a9cda6"/><path d="M17,22.3l-.5.5a2.1644,2.1644,0,0,0-.3.6v.2a.4829.4829,0,0,1-.4,0,2.18,2.18,0,0,0,.1-.6s0-1.1.5-1.2c0,0,.4-.2.1.1a1.67,1.67,0,0,0-.3.9C16.3,22.6,16.6,22.2,17,22.3Z" fill="#a9cda6"/><path d="M19,23.3v.1l-.3.4c0,.1-.1.1-.2,0h-.1l-.1-.1v-.1l.3-.5c0-.1.1-.1.2,0l.2.2Z" fill="#a9cda6"/><path d="M13.6,22.8l.2.7v.1l-.1.1h-.1c-.1,0-.1,0-.2-.1l-.2-.7v-.1l.1-.1h.1C13.5,22.7,13.6,22.7,13.6,22.8Z" fill="#a9cda6"/><path d="M17.6,22.7h.1l.1.1v.1l-.2.7c0,.1-.1.1-.2.1h-.1l-.1-.1v-.1l.2-.7C17.4,22.7,17.5,22.7,17.6,22.7Z" fill="#a9cda6"/></g></g><g id="marsh_bd-6" data-name="marsh_bd" style="isolation:isolate"><g id="Marsh_FC-6" data-name="Marsh_FC"><path d="M49.1,9.1c.1.1,0,.2-.1.2H46.6a.2.2,0,0,1,0-.4h1.6a.0979.0979,0,0,0-.1-.1h0c-.1-.1-.1-.1,0-.2l.1-.1.2.2v.2h.2c0-.2,0-.3-.1-.4a.0979.0979,0,0,0-.1-.1.1385.1385,0,0,1,0-.2h.1c.1.1.1.2.2.2v.1a.3674.3674,0,0,0,.1.3A.7467.7467,0,0,1,49.1,9.1Zm3.1.9c0,.1-.1.1-.2.1H48.1a.3491.3491,0,0,1-.2-.1c0-.1.1-.1.2-.1H52A.3491.3491,0,0,1,52.2,10Zm-2.4-.8a3.0764,3.0764,0,0,0-.4-.9s-.2-.2.2-.1a1.1057,1.1057,0,0,1,.4.5s0-.8.5-.9c0,0,.3-.1.1.1a1.0474,1.0474,0,0,0-.3.6,1.4093,1.4093,0,0,1,.5-.3s.3-.1,0,.1l-.4.4a.31.31,0,0,0-.1.2l-.2.2C50,9.3,50,9.4,49.8,9.2Zm1.1-.1c.1,0,.1-.2.1-.3V8.7a.3674.3674,0,0,1,.1-.3l.1-.1a.1875.1875,0,0,1,.3,0h.1c-.1.1-.2.2-.2.3v.2a.2151.2151,0,0,0,.2.2h0c0-.1,0-.2.1-.2V8.7a.1875.1875,0,0,1,.3,0v.1c-.1,0-.1.1-.2.1h0A.3491.3491,0,0,0,52,9h1.4a.2.2,0,0,1,0,.4H51A.3674.3674,0,0,1,50.9,9.1Z" fill="#95cdc7"/></g></g><g id="roughgrass_bd-8" data-name="roughgrass_bd" style="isolation:isolate"><g id="RoughGrass_FC-8" data-name="RoughGrass_FC"><path d="M52.5,5.4v.1l-.1.1h-.3l-.3-.5V5l.2-.1h.3Z" fill="#a9cda6"/><path d="M54.9,4.8h0a1.7265,1.7265,0,0,0-.4-.3c-.1-.2.1-.7.1-.7V3.1A1.6318,1.6318,0,0,1,54.9,4.8Z" fill="#a9cda6"/><path d="M54.8,4.9q.15,0,.3.3h-.3C54.7,5.1,54.8,5,54.8,4.9Z" fill="#a9cda6"/><path d="M57,4l-.5.5a2.1644,2.1644,0,0,0-.3.6v.2a.4829.4829,0,0,1-.4,0,2.18,2.18,0,0,0,.1-.6s0-1.1.5-1.2c0,0,.4-.2.1.1a1.67,1.67,0,0,0-.3.9C56.2,4.4,56.6,3.9,57,4Z" fill="#a9cda6"/><path d="M59,5v.1l-.3.4c0,.1-.1.1-.2,0h-.1l-.1-.1V5.3l.3-.5c0-.1.1-.1.2,0L59,5Z" fill="#a9cda6"/><path d="M53.5,4.5l.2.7v.1l-.1.1h-.1c-.1,0-.1,0-.2-.1l-.2-.7V4.5l.1-.1h.1C53.4,4.4,53.5,4.4,53.5,4.5Z" fill="#a9cda6"/><path d="M57.5,4.4h.1l.1.1v.1l-.2.7c0,.1-.1.1-.2.1h-.1l-.1-.1V5.2l.2-.7A.31.31,0,0,1,57.5,4.4Z" fill="#a9cda6"/></g></g><g id="roughgrass_bd-9" data-name="roughgrass_bd" style="isolation:isolate"><g id="RoughGrass_FC-9" data-name="RoughGrass_FC"><path d="M43.6,3.8v.1l-.1.1h-.3l-.3-.5V3.4h.4Z" fill="#a9cda6"/><path d="M45.9,3.3h0a1.7265,1.7265,0,0,0-.4-.3c-.1-.2.1-.7.1-.7V1.6A1.432,1.432,0,0,1,45.9,3.3Z" fill="#a9cda6"/><path d="M45.9,3.3c.1.1.2.1.2.4h-.3C45.8,3.5,45.8,3.4,45.9,3.3Z" fill="#a9cda6"/><path d="M48,2.4l-.5.5a2.1644,2.1644,0,0,0-.3.6v.2a.4829.4829,0,0,1-.4,0,2.18,2.18,0,0,0,.1-.6s0-1.1.5-1.2c0,0,.4-.2.1.1a1.67,1.67,0,0,0-.3.9C47.3,2.8,47.6,2.4,48,2.4Z" fill="#a9cda6"/><path d="M50,3.5v.1l-.3.4c0,.1-.1.1-.2,0h-.1V3.9l.3-.5c0-.1.1-.1.2,0l.1.1Z" fill="#a9cda6"/><path d="M44.6,2.9l.2.7v.1l-.1.1h-.1c-.1,0-.1,0-.2-.1L44.2,3h0l.1-.1h.1C44.5,2.8,44.5,2.9,44.6,2.9Z" fill="#a9cda6"/><path d="M48.6,2.8h.1l.1.2v.1l-.2.7c0,.1-.1.1-.2.1h-.1l-.1-.1V3.7l.2-.7A.2151.2151,0,0,1,48.6,2.8Z" fill="#a9cda6"/></g></g><g id="marsh_bd-7" data-name="marsh_bd" style="isolation:isolate"><g id="Marsh_FC-7" data-name="Marsh_FC"><path d="M71.8,25.5c.1.1,0,.2-.1.2H69.3a.2.2,0,1,1,0-.4H71a.0979.0979,0,0,0-.1-.1h0c-.1-.1-.1-.1,0-.2l.1-.1.2.2v.2h.2c0-.2,0-.3-.1-.4a.0979.0979,0,0,0-.1-.1.1385.1385,0,0,1,0-.2h.1c.1.1.1.2.2.2v.1a.3674.3674,0,0,0,.1.3C71.7,25.2,71.7,25.4,71.8,25.5Zm3,.8c0,.1-.1.1-.2.1H70.7a.3491.3491,0,0,1-.2-.1.3491.3491,0,0,1,.2-.1h3.9C74.8,26.2,74.8,26.3,74.8,26.3Zm-2.3-.7a3.0764,3.0764,0,0,0-.4-.9s-.2-.2.2-.1a1.1057,1.1057,0,0,1,.4.5s0-.8.5-.9c0,0,.3-.1.1.1a1.0474,1.0474,0,0,0-.3.6,1.4093,1.4093,0,0,1,.5-.3s.3-.1,0,.1l-.5.5a.31.31,0,0,0-.1.2l-.2.2C72.7,25.7,72.7,25.7,72.5,25.6Zm1.1-.1c0-.1.1-.2.1-.3v-.1a.3674.3674,0,0,1,.1-.3.0979.0979,0,0,1,.1-.1.1875.1875,0,0,1,.3,0h.1c-.1.1-.2.2-.2.3v.2a.2151.2151,0,0,0,.2.2h0c0-.1,0-.2.1-.2v-.1a.1875.1875,0,0,1,.3,0l.1.1c-.1,0-.1.1-.2.1h0a.3491.3491,0,0,0,.2.1h1.4a.2.2,0,1,1,0,.4H73.8C73.6,25.6,73.6,25.5,73.6,25.5Z" fill="#95cdc7"/></g></g><g id="roughgrass_bd-10" data-name="roughgrass_bd" style="isolation:isolate"><g id="RoughGrass_FC-10" data-name="RoughGrass_FC"><path d="M75.2,21.7v.1l-.1.1h-.3l-.3-.5v-.1l.1-.1h.3Z" fill="#a9cda6"/><path d="M77.5,21.2h0a1.7265,1.7265,0,0,0-.4-.3c-.1-.2.1-.7.1-.7v-.7A1.432,1.432,0,0,1,77.5,21.2Z" fill="#a9cda6"/><path d="M77.5,21.2c.1.1.2.1.2.4h-.3C77.4,21.4,77.5,21.3,77.5,21.2Z" fill="#a9cda6"/><path d="M79.7,20.3l-.5.5a2.1644,2.1644,0,0,0-.3.6v.2a.4829.4829,0,0,1-.4,0,2.18,2.18,0,0,0,.1-.6s0-1.1.5-1.2c0,0,.4-.2.1.1a1.67,1.67,0,0,0-.3.9A.8514.8514,0,0,1,79.7,20.3Z" fill="#a9cda6"/><path d="M81.7,21.3v.1l-.3.4c0,.1-.1.1-.2,0H81v-.1l.3-.5c0-.1.1-.1.2,0l.2.1Z" fill="#a9cda6"/><path d="M76.2,20.8l.2.7v.1l-.1.1h-.1c-.1,0-.1,0-.2-.1l-.1-.6v-.1l.1-.1h.1C76.1,20.7,76.2,20.7,76.2,20.8Z" fill="#a9cda6"/><path d="M80.2,20.7h.1l.1.1V21l-.2.7c0,.1-.1.1-.2.1h-.1l-.1-.1v-.1l.2-.7C80.1,20.7,80.2,20.7,80.2,20.7Z" fill="#a9cda6"/></g></g><g id="marsh_bd-8" data-name="marsh_bd" style="isolation:isolate"><g id="Marsh_FC-8" data-name="Marsh_FC"><path d="M68.2,19.3c.1.1,0,.2-.1.2H65.7a.2.2,0,0,1,0-.4h1.6a.0979.0979,0,0,0-.1-.1h0c-.1-.1-.1-.1,0-.2l.1-.1.2.2v.2h.2c0-.2,0-.3-.1-.4a.0979.0979,0,0,0-.1-.1.1385.1385,0,0,1,0-.2h.1c.1.1.1.2.2.2v.1a.3674.3674,0,0,0,.1.3Q68.2,19.15,68.2,19.3Zm3.1.9c0,.1-.1.1-.2.1H67.2a.3491.3491,0,0,1-.2-.1c0-.1.1-.1.2-.1h3.9C71.2,20.1,71.3,20.1,71.3,20.2Zm-2.4-.8a3.0764,3.0764,0,0,0-.4-.9s-.2-.2.2-.1a1.1057,1.1057,0,0,1,.4.5s0-.8.5-.9c0,0,.3-.1.1.1a1.0474,1.0474,0,0,0-.3.6,1.4093,1.4093,0,0,1,.5-.3s.3-.1,0,.1l-.4.4a.31.31,0,0,0-.1.2l-.2.2C69.1,19.5,69.1,19.5,68.9,19.4Zm1.2-.1c0-.1.1-.2.1-.3v-.1a.3674.3674,0,0,1,.1-.3.0979.0979,0,0,1,.1-.1.1875.1875,0,0,1,.3,0h.1c-.1.1-.2.2-.2.3V19a.2151.2151,0,0,0,.2.2h0c0-.1,0-.2.1-.2v-.1a.1875.1875,0,0,1,.3,0l.1.1c-.3,0-.3,0-.4.1h0a.3491.3491,0,0,0,.2.1h1.4a.2.2,0,1,1,0,.4H70.1C70.1,19.5,70,19.4,70.1,19.3Z" fill="#95cdc7"/></g></g><g id="marsh_bd-9" data-name="marsh_bd" style="isolation:isolate"><g id="Marsh_FC-9" data-name="Marsh_FC"><path d="M83,8.5c.1.1,0,.2-.1.2H80.5a.2.2,0,0,1,0-.4h1.6a.0979.0979,0,0,0-.1-.1h0c0-.1,0-.2.1-.2l.1-.1.2.2v.2h.2c0-.2,0-.3-.1-.4a.0979.0979,0,0,0-.1-.1.1385.1385,0,0,1,0-.2h.1c.1.1.1.2.2.2v.1a.3674.3674,0,0,0,.1.3C82.9,8.2,82.9,8.4,83,8.5Zm3,.8c0,.1-.1.1-.2.1H81.9a.3491.3491,0,0,1-.2-.1.3491.3491,0,0,1,.2-.1h3.9A.3491.3491,0,0,1,86,9.3Zm-2.3-.7a3.0764,3.0764,0,0,0-.4-.9s-.2-.2.2-.1a1.1057,1.1057,0,0,1,.4.5s0-.8.5-.9c0,0,.3-.1.1.1a1.0474,1.0474,0,0,0-.3.6,1.4093,1.4093,0,0,1,.5-.3s.3-.1,0,.1l-.4.4a.31.31,0,0,0-.1.2l-.2.2C83.9,8.7,83.9,8.7,83.7,8.6Zm1.1-.1c0-.1.1-.2.1-.3V8.1a.3674.3674,0,0,1,.1-.3.0979.0979,0,0,1,.1-.1.1875.1875,0,0,1,.3,0h.1c-.1.1-.2.2-.2.3v.2a.2151.2151,0,0,0,.2.2h0c0-.1,0-.2.1-.2V8.1c-.1-.1.1-.1.1-.1l.1.1c-.1,0-.1.1-.2.1h0a.3491.3491,0,0,0,.2.1h1.4a.2.2,0,1,1,0,.4H84.8C84.8,8.6,84.7,8.5,84.8,8.5Z" fill="#95cdc7"/></g></g><g id="roughgrass_bd-11" data-name="roughgrass_bd" style="isolation:isolate"><g id="RoughGrass_FC-11" data-name="RoughGrass_FC"><path d="M86.4,4.7v.1l-.1.1H86l-.3-.5V4.3l.1-.1h.3Z" fill="#a9cda6"/><path d="M88.7,4.1h0a1.7265,1.7265,0,0,0-.4-.3c-.1-.2.1-.7.1-.7V2.4C89.2,3.4,88.7,4.1,88.7,4.1Z" fill="#a9cda6"/><path d="M88.7,4.2c.1.1.2.1.2.4h-.3C88.6,4.4,88.6,4.3,88.7,4.2Z" fill="#a9cda6"/><path d="M90.8,3.3l-.5.5a2.1644,2.1644,0,0,0-.3.6v.2a.4829.4829,0,0,1-.4,0,2.18,2.18,0,0,0,.1-.6s0-1.1.5-1.2c0,0,.4-.2.1.1a1.67,1.67,0,0,0-.3.9C90.1,3.7,90.4,3.3,90.8,3.3Z" fill="#a9cda6"/><path d="M92.9,4.3v.1l-.3.4c0,.1-.1.1-.2,0h-.1l-.1-.1V4.6l.3-.5c0-.1.1-.1.2,0l.2.2Z" fill="#a9cda6"/><path d="M87.4,3.8l.2.7v.1l-.1.1h-.1c-.1,0-.1,0-.2-.1L87,4V3.8l.1-.1h.1C87.3,3.7,87.4,3.7,87.4,3.8Z" fill="#a9cda6"/><path d="M91.4,3.7h.1l.1.1V4l-.2.7c0,.1-.1.1-.2.1h-.1L91,4.6V4.5l.2-.7C91.3,3.7,91.3,3.7,91.4,3.7Z" fill="#a9cda6"/></g></g><g id="marsh_bd-10" data-name="marsh_bd" style="isolation:isolate"><g id="Marsh_FC-10" data-name="Marsh_FC"><path d="M79.4,2.3c.1.1,0,.2-.1.2H77a.2151.2151,0,0,1-.2-.2.2151.2151,0,0,1,.2-.2h1.6a.0979.0979,0,0,0-.1-.1h0c-.1-.1-.1-.1,0-.2l.1-.1.2.2v.2H79V1.8a.0979.0979,0,0,0-.1-.1.1385.1385,0,0,1,0-.2H79c.1.1.1.2.2.2v.1a.3674.3674,0,0,0,.1.3A.3491.3491,0,0,1,79.4,2.3Zm3.1.9c0,.1-.1.1-.2.1H78.4a.3491.3491,0,0,1-.2-.1c0-.1.1-.1.2-.1h3.9C82.4,3.1,82.5,3.1,82.5,3.2Zm-2.4-.8a3.0764,3.0764,0,0,0-.4-.9s-.2-.2.2-.1a1.1057,1.1057,0,0,1,.4.5s0-.8.5-.9c0,0,.3-.1.1.1a1.0474,1.0474,0,0,0-.3.6,1.4093,1.4093,0,0,1,.5-.3s.3-.1,0,.1l-.4.4a.31.31,0,0,0-.1.2l-.2.2C80.3,2.5,80.3,2.5,80.1,2.4Zm1.1-.1c0-.1.1-.2.1-.3V1.9a.3674.3674,0,0,1,.1-.3l.1-.1a.1875.1875,0,0,1,.3,0h.1c-.1.1-.2.2-.2.3V2a.2151.2151,0,0,0,.2.2h0c0-.1,0-.2.1-.2V1.9a.1875.1875,0,0,1,.3,0l.1.1c-.1,0-.1.1-.2.1h0a.3491.3491,0,0,0,.2.1h1.4a.2151.2151,0,0,1,.2.2.2151.2151,0,0,1-.2.2H81.4C81.2,2.5,81.2,2.4,81.2,2.3Z" fill="#95cdc7"/></g></g><g id="marsh_bd-11" data-name="marsh_bd" style="isolation:isolate"><g id="Marsh_FC-11" data-name="Marsh_FC"><path d="M72.8,45.5c.1.1,0,.2-.1.2H70.3a.2.2,0,1,1,0-.4H72a.0979.0979,0,0,0-.1-.1h0c-.1-.1-.1-.1,0-.2H72l.2.2v.2h.2c0-.2,0-.3-.1-.4a.0979.0979,0,0,0-.1-.1.1385.1385,0,0,1,0-.2h.1c.1.1.1.2.2.2V45a.3674.3674,0,0,0,.1.3A.2151.2151,0,0,1,72.8,45.5Zm3,.9c0,.1-.1.1-.2.1H71.7a.3491.3491,0,0,1-.2-.1c0-.1.1-.1.2-.1h3.9C75.8,46.3,75.8,46.3,75.8,46.4Zm-2.3-.8a3.0764,3.0764,0,0,0-.4-.9s-.2-.2.2-.1a1.1057,1.1057,0,0,1,.4.5s0-.8.5-.9c0,0,.3-.1.1.1a1.0474,1.0474,0,0,0-.3.6,1.4093,1.4093,0,0,1,.5-.3s.3-.1,0,.1l-.5.6a.31.31,0,0,0-.1.2l-.2.2Zm1.1-.1c0-.1.1-.2.1-.3v-.1a.3674.3674,0,0,1,.1-.3.0979.0979,0,0,1,.1-.1.1875.1875,0,0,1,.3,0h.1c-.1.1-.2.2-.2.3v.2a.2151.2151,0,0,0,.2.2h0c0-.1,0-.2.1-.2v-.1a.1875.1875,0,0,1,.3,0l.1.1c-.1,0-.1.1-.2.1h0a.3491.3491,0,0,0,.2.1h1.4a.2.2,0,0,1,0,.4H74.8C74.6,45.6,74.6,45.6,74.6,45.5Z" fill="#95cdc7"/></g></g><g id="roughgrass_bd-12" data-name="roughgrass_bd" style="isolation:isolate"><g id="RoughGrass_FC-12" data-name="RoughGrass_FC"><path d="M76.2,41.7v.1l-.1.1h-.3l-.3-.5v-.1l.1-.1h.3Z" fill="#a9cda6"/><path d="M78.5,41.2h0a1.7265,1.7265,0,0,0-.4-.3c-.1-.2.1-.7.1-.7v-.7A1.432,1.432,0,0,1,78.5,41.2Z" fill="#a9cda6"/><path d="M78.5,41.2c.1.1.2.1.2.4h-.3C78.4,41.4,78.5,41.3,78.5,41.2Z" fill="#a9cda6"/><path d="M80.7,40.3l-.5.5a2.1644,2.1644,0,0,0-.3.6v.2a.4829.4829,0,0,1-.4,0,2.18,2.18,0,0,0,.1-.6s0-1.1.5-1.2c0,0,.4-.2.1.1a1.67,1.67,0,0,0-.3.9A.8514.8514,0,0,1,80.7,40.3Z" fill="#a9cda6"/><path d="M82.7,41.4v.1l-.3.4c0,.1-.1.1-.2,0H82v-.1l.3-.5c0-.1.1-.1.2,0l.2.1Z" fill="#a9cda6"/><path d="M77.2,40.8l.2.7v.1l-.1.1h-.1c-.1,0-.1,0-.2-.1l-.1-.6v-.1l.1-.1h.1C77.1,40.7,77.2,40.8,77.2,40.8Z" fill="#a9cda6"/><path d="M81.2,40.7h.1l.1.1V41l-.2.7c0,.1-.1.1-.2.1h-.1l-.1-.1v-.1l.2-.7Z" fill="#a9cda6"/></g></g><g id="roughgrass_bd-13" data-name="roughgrass_bd" style="isolation:isolate"><g id="RoughGrass_FC-13" data-name="RoughGrass_FC"><path d="M67.2,40.2v.1l-.1.1h-.3l-.3-.5v-.1l.1-.1h.3Z" fill="#a9cda6"/><path d="M69.6,39.6h0a1.7265,1.7265,0,0,0-.4-.3c-.1-.2.1-.7.1-.7v-.7A1.6318,1.6318,0,0,1,69.6,39.6Z" fill="#a9cda6"/><path d="M69.6,39.7c.1.1.2.1.2.4h-.3C69.4,39.9,69.5,39.8,69.6,39.7Z" fill="#a9cda6"/><path d="M71.7,38.8l-.5.5a2.1644,2.1644,0,0,0-.3.6v.2a.4829.4829,0,0,1-.4,0,2.18,2.18,0,0,0,.1-.6s0-1.1.5-1.2c0,0,.4-.2.1.1a1.67,1.67,0,0,0-.3.9C71,39.2,71.3,38.7,71.7,38.8Z" fill="#a9cda6"/><path d="M73.7,39.8v.1l-.3.4c0,.1-.1.1-.2,0H73v-.1l.3-.5c0-.1.1-.1.2,0l.2.1Z" fill="#a9cda6"/><path d="M68.3,39.3l.2.7v.1l-.1.1h-.1c-.1,0-.1,0-.2-.1l-.2-.7v-.1l.1-.1h.1C68.2,39.2,68.2,39.2,68.3,39.3Z" fill="#a9cda6"/><path d="M72.3,39.2h.1l.1.1v.1l-.2.7c0,.1-.1.1-.2.1H72l-.1-.1V40l.2-.7C72.1,39.2,72.2,39.2,72.3,39.2Z" fill="#a9cda6"/></g></g><g id="marsh_bd-12" data-name="marsh_bd" style="isolation:isolate"><g id="Marsh_FC-12" data-name="Marsh_FC"><path d="M83.5,69.6c.1.1,0,.2-.1.2H81a.2.2,0,0,1,0-.4h1.6a.0979.0979,0,0,0-.1-.1h0c-.1-.1-.1-.1,0-.2l.1-.1.2.2v.2H83c0-.2,0-.3-.1-.4H83a.1385.1385,0,0,1,0-.2h.1c.1.1.1.2.2.2v.1a.3674.3674,0,0,0,.1.3A.31.31,0,0,0,83.5,69.6Zm3,.9c0,.1-.1.1-.2.1H82.4a.125.125,0,1,1,0-.2h3.9C86.4,70.4,86.5,70.4,86.5,70.5Zm-2.3-.8a3.0764,3.0764,0,0,0-.4-.9s-.2-.2.2-.1a1.1057,1.1057,0,0,1,.4.5s0-.8.5-.9c0,0,.3-.1.1.1a1.0474,1.0474,0,0,0-.3.6,1.4093,1.4093,0,0,1,.5-.3s.3-.1,0,.1l-.4.4a.31.31,0,0,0-.1.2l-.2.2C84.4,69.8,84.4,69.8,84.2,69.7Zm1.1-.1c0-.1.1-.2.1-.3v-.1a.3674.3674,0,0,1,.1-.3l.1-.1a.1875.1875,0,0,1,.3,0H86c-.1.1-.2.2-.2.3v.2a.2151.2151,0,0,0,.2.2h0c0-.1,0-.2.1-.2v-.1a.1875.1875,0,0,1,.3,0l.1.1c-.1,0-.1.1-.2.1h0a.3491.3491,0,0,0,.2.1h1.4a.2.2,0,1,1,0,.4H85.5C85.3,69.8,85.3,69.7,85.3,69.6Z" fill="#95cdc7"/></g></g><g id="roughgrass_bd-14" data-name="roughgrass_bd" style="isolation:isolate"><g id="RoughGrass_FC-14" data-name="RoughGrass_FC"><path d="M86.9,65.9V66l-.1.1h-.3l-.3-.5v-.1l.1-.1h.3Z" fill="#a9cda6"/><path d="M89.2,65.3h0a.7467.7467,0,0,1-.3-.3c-.1-.2.1-.7.1-.7v-.7A1.5084,1.5084,0,0,1,89.2,65.3Z" fill="#a9cda6"/><path d="M89.2,65.3c.1.1.2.1.2.4h-.3A.7559.7559,0,0,1,89.2,65.3Z" fill="#a9cda6"/><path d="M91.4,64.5l-.5.5a2.1644,2.1644,0,0,0-.3.6v.2a.4829.4829,0,0,1-.4,0,2.18,2.18,0,0,0,.1-.6s0-1.1.5-1.2c0,0,.4-.2.1.1a1.67,1.67,0,0,0-.3.9A.6508.6508,0,0,1,91.4,64.5Z" fill="#a9cda6"/><path d="M93.4,65.5v.1l-.4.5c0,.1-.1.1-.2,0h-.1v-.2l.3-.5c0-.1.1-.1.2,0l.2.1Z" fill="#a9cda6"/><path d="M87.9,65l.2.7v.1l-.1.1h-.1c-.1,0-.1,0-.2-.1l-.2-.7V65l.1-.1h.1C87.8,64.9,87.9,64.9,87.9,65Z" fill="#a9cda6"/><path d="M91.9,64.9H92l.1.1v.1l-.2.7c0,.1-.1.1-.2.1h-.1l-.1-.1v-.1l.2-.7C91.8,64.9,91.8,64.9,91.9,64.9Z" fill="#a9cda6"/></g></g><g id="marsh_bd-13" data-name="marsh_bd" style="isolation:isolate"><g id="Marsh_FC-13" data-name="Marsh_FC"><path d="M79.9,63.5c.1.1,0,.2-.1.2H77.4a.2.2,0,0,1,0-.4H79a.0979.0979,0,0,0-.1-.1h0c-.1-.1-.1-.1,0-.2l.1-.1.2.2v.2h.2c0-.2,0-.3-.1-.4a.0979.0979,0,0,0-.1-.1.1385.1385,0,0,1,0-.2h.1c.1.1.1.2.2.2v.1a.3674.3674,0,0,0,.1.3Q79.9,63.35,79.9,63.5Zm3.1.9c0,.1-.1.1-.2.1H78.9a.125.125,0,1,1,0-.2h3.9C82.9,64.2,83,64.3,83,64.4Zm-2.4-.8a3.0764,3.0764,0,0,0-.4-.9s-.2-.2.2-.1a1.1057,1.1057,0,0,1,.4.5s0-.8.5-.9c0,0,.3-.1.1.1a1.0474,1.0474,0,0,0-.3.6,1.4093,1.4093,0,0,1,.5-.3s.3-.1,0,.1l-.4.4a.31.31,0,0,0-.1.2l-.2.2C80.8,63.7,80.8,63.7,80.6,63.6Zm1.1-.1c0-.1.1-.2.1-.3v-.1a.3674.3674,0,0,1,.1-.3.0979.0979,0,0,1,.1-.1.1875.1875,0,0,1,.3,0h.1c-.1.1-.2.2-.2.3v.2a.2151.2151,0,0,0,.2.2h0c0-.1,0-.2.1-.2v-.1a.1875.1875,0,0,1,.3,0l.1.1c-.1,0-.1.1-.2.1h0a.3491.3491,0,0,0,.2.1h1.4a.2.2,0,1,1,0,.4H81.9C81.7,63.6,81.7,63.6,81.7,63.5Z" fill="#95cdc7"/></g></g><g id="marsh_bd-14" data-name="marsh_bd" style="isolation:isolate"><g id="Marsh_FC-14" data-name="Marsh_FC"><path d="M57.1,91.1c.1.1,0,.2-.1.2H54.6a.2.2,0,1,1,0-.4h1.6a.0979.0979,0,0,0-.1-.1h0c-.1-.1-.1-.1,0-.2l.1-.1.2.2v.2h.2c0-.2,0-.3-.1-.4a.0979.0979,0,0,0-.1-.1.1385.1385,0,0,1,0-.2h.1c.1.1.1.2.2.2v.1a.3674.3674,0,0,0,.1.3C57,90.9,57,91,57.1,91.1Zm3,.9c0,.1-.1.1-.2.1H56a.125.125,0,1,1,0-.2h3.9C60,91.9,60.1,91.9,60.1,92Zm-2.4-.8a3.0764,3.0764,0,0,0-.4-.9s-.2-.2.2-.1a1.1057,1.1057,0,0,1,.4.5s0-.8.5-.9c0,0,.3-.1.1.1a1.0474,1.0474,0,0,0-.3.6,1.4093,1.4093,0,0,1,.5-.3s.3-.1,0,.1l-.4.4a.31.31,0,0,0-.1.2l-.2.2C58,91.3,58,91.3,57.7,91.2Zm1.2-.1c0-.1.1-.2.1-.3v-.1a.3674.3674,0,0,1,.1-.3.0979.0979,0,0,1,.1-.1.1875.1875,0,0,1,.3,0h.1c-.1.1-.2.2-.2.3v.2a.2151.2151,0,0,0,.2.2h0c0-.1,0-.2.1-.2v-.1a.1875.1875,0,0,1,.3,0l.1.1c-.1,0-.1.1-.2.1h0a.3491.3491,0,0,0,.2.1h1.4a.2.2,0,0,1,0,.4H59C58.9,91.3,58.8,91.2,58.9,91.1Z" fill="#95cdc7"/></g></g><g id="roughgrass_bd-15" data-name="roughgrass_bd" style="isolation:isolate"><g id="RoughGrass_FC-15" data-name="RoughGrass_FC"><path d="M60.5,87.4v.1l-.1.1h-.3l-.3-.5V87l.1-.1h.3Z" fill="#a9cda6"/><path d="M62.8,86.8h0a1.7265,1.7265,0,0,0-.4-.3c-.1-.2.1-.7.1-.7v-.7A1.432,1.432,0,0,1,62.8,86.8Z" fill="#a9cda6"/><path d="M62.8,86.8c.1.1.2.1.2.4h-.3A.7559.7559,0,0,1,62.8,86.8Z" fill="#a9cda6"/><path d="M64.9,86l-.5.5a2.1644,2.1644,0,0,0-.3.6v.2a.4829.4829,0,0,1-.4,0,2.18,2.18,0,0,0,.1-.6s0-1.1.5-1.2c0,0,.4-.2.1.1a1.67,1.67,0,0,0-.3.9C64.2,86.3,64.5,85.9,64.9,86Z" fill="#a9cda6"/><path d="M66.9,87v.1l-.3.4c0,.1-.1.1-.2,0h-.1l-.1-.1v-.1l.3-.5c0-.1.1-.1.2,0l.2.2Z" fill="#a9cda6"/><path d="M61.5,86.5l.2.7v.1l-.1.1h-.1c-.1,0-.1,0-.2-.1l-.2-.7v-.1l.1-.1h.1C61.4,86.4,61.5,86.4,61.5,86.5Z" fill="#a9cda6"/><path d="M65.5,86.4h.1l.1.1v.1l-.2.7c0,.1-.1.1-.2.1h-.1l-.1-.1v-.1l.2-.7C65.3,86.4,65.4,86.4,65.5,86.4Z" fill="#a9cda6"/></g></g><g id="marsh_bd-15" data-name="marsh_bd" style="isolation:isolate"><g id="Marsh_FC-15" data-name="Marsh_FC"><path d="M53.5,85c.1.1,0,.2-.1.2H51a.2.2,0,0,1,0-.4h1.6a.0979.0979,0,0,0-.1-.1h0c-.1-.1-.1-.1,0-.2l.1-.1.2.2v.2H53c0-.2,0-.3-.1-.4a.0979.0979,0,0,0-.1-.1.1385.1385,0,0,1,0-.2h.1c.1.1.1.2.2.2v.1a.3674.3674,0,0,0,.1.3C53.4,84.8,53.4,84.9,53.5,85Zm3,.9c0,.1-.1.1-.2.1H52.4a.125.125,0,1,1,0-.2h3.9C56.5,85.7,56.5,85.8,56.5,85.9Zm-2.3-.8a3.0764,3.0764,0,0,0-.4-.9s-.2-.2.2-.1a1.1057,1.1057,0,0,1,.4.5s0-.8.5-.9c0,0,.3-.1.1.1a1.0474,1.0474,0,0,0-.3.6,1.4093,1.4093,0,0,1,.5-.3s.3-.1,0,.1l-.4.4a.31.31,0,0,0-.1.2l-.2.2C54.4,85.2,54.4,85.2,54.2,85.1Zm1.1-.1c0-.1.1-.2.1-.3v-.1a.3674.3674,0,0,1,.1-.3.0979.0979,0,0,1,.1-.1.1875.1875,0,0,1,.3,0H56c-.1.1-.2.2-.2.3v.2a.2151.2151,0,0,0,.2.2h0c0-.1,0-.2.1-.2v-.1a.1875.1875,0,0,1,.3,0l.1.1c-.1,0-.1.1-.2.1h0a.3491.3491,0,0,0,.2.1h1.4a.2.2,0,0,1,0,.4H55.5C55.3,85.1,55.3,85.1,55.3,85Z" fill="#95cdc7"/></g></g><g id="marsh_bd-16" data-name="marsh_bd" style="isolation:isolate"><g id="Marsh_FC-16" data-name="Marsh_FC"><path d="M8.8,94c.1.1,0,.2-.1.2H6.4a.2.2,0,1,1,0-.4H8a.0979.0979,0,0,0-.1-.1h0c-.1-.1-.1-.1,0-.2l.1-.1.2.2v.2h.2c0-.2,0-.3-.1-.4a.0979.0979,0,0,0-.1-.1.1385.1385,0,0,1,0-.2h.1c.1.1.1.2.2.2s0,.1,0,.1a.3674.3674,0,0,0,.1.3C8.7,93.8,8.8,93.9,8.8,94Zm3.1.9c0,.1-.1.1-.2.1H7.8a.125.125,0,1,1,0-.2h3.9C11.8,94.8,11.9,94.8,11.9,94.9Zm-2.4-.8a2.0577,2.0577,0,0,0-.5-.9s-.2-.2.2-.1a1.1057,1.1057,0,0,1,.4.5s0-.8.5-.9c0,0,.3-.1.1.1a1.0474,1.0474,0,0,0-.3.6,1.4093,1.4093,0,0,1,.5-.3s.3-.1,0,.1l-.4.4a.5845.5845,0,0,1-.1.4l-.2.2C9.8,94.2,9.8,94.2,9.5,94.1Zm1.2-.1c0-.1.1-.2.1-.3v-.1a.3674.3674,0,0,1,.1-.3.0979.0979,0,0,1,.1-.1.1875.1875,0,0,1,.3,0h.1c-.1.1-.2.2-.2.3v.2a.2151.2151,0,0,0,.2.2h0c0-.1,0-.2.1-.2v-.1a.1875.1875,0,0,1,.3,0l.1.1c-.1,0-.1.1-.2.1h0a.3491.3491,0,0,0,.2.1h1.5a.2.2,0,0,1,0,.4H11Q10.55,94.15,10.7,94Z" fill="#95cdc7"/></g></g><g id="roughgrass_bd-16" data-name="roughgrass_bd" style="isolation:isolate"><g id="RoughGrass_FC-16" data-name="RoughGrass_FC"><path d="M12.3,90.2v.1l-.1.1h-.3l-.3-.4v-.1l.1-.1H12Z" fill="#a9cda6"/><path d="M14.6,89.7h0a1.7265,1.7265,0,0,0-.4-.3c-.1-.2.1-.7.1-.7V88A1.432,1.432,0,0,1,14.6,89.7Z" fill="#a9cda6"/><path d="M14.6,89.7c.1.1.2.1.2.4h-.3A.6012.6012,0,0,1,14.6,89.7Z" fill="#a9cda6"/><path d="M16.7,88.8l-.5.5a2.1644,2.1644,0,0,0-.3.6v.2a.4829.4829,0,0,1-.4,0,2.18,2.18,0,0,0,.1-.6s0-1.1.5-1.2c0,0,.4-.2.1.1a1.67,1.67,0,0,0-.3.9C16,89.2,16.3,88.8,16.7,88.8Z" fill="#a9cda6"/><path d="M18.7,89.9V90l-.3.4c0,.1-.1.1-.2,0h-.1l-.1-.1v-.1l.3-.5c0-.1.1-.1.2,0l.2.2Z" fill="#a9cda6"/><path d="M13.3,89.3l.2.7v.1l-.1.1h-.1c-.1,0-.1,0-.2-.1l-.2-.7v-.1l.1-.1h.1C13.2,89.2,13.2,89.3,13.3,89.3Z" fill="#a9cda6"/><path d="M17.3,89.3h.1l.1.1v.1l-.2.7c0,.1-.1.1-.2.1H17l-.1-.1v-.1l.2-.7C17.1,89.3,17.2,89.2,17.3,89.3Z" fill="#a9cda6"/></g></g><g id="marsh_bd-17" data-name="marsh_bd" style="isolation:isolate"><g id="Marsh_FC-17" data-name="Marsh_FC"><path d="M5.3,87.8c.1.1,0,.2-.1.2H2.8a.2.2,0,0,1,0-.4H4.4a.0979.0979,0,0,0-.1-.1h0c-.1-.1-.1-.1,0-.2l.1-.1.2.2v.2h.2c0-.2,0-.3-.1-.4a.0979.0979,0,0,0-.1-.1.1385.1385,0,0,1,0-.2h.1a.68.68,0,0,1,.4.3v.1a.3674.3674,0,0,0,.1.3S5.2,87.8,5.3,87.8Zm3,.9c0,.1-.1.1-.2.1H4.2a.125.125,0,1,1,0-.2H8.1A.3491.3491,0,0,1,8.3,88.7ZM6,88a2.0577,2.0577,0,0,0-.5-.9s-.2-.2.2-.1a1.1057,1.1057,0,0,1,.4.5s0-.8.5-.9c0,0,.3-.1.1.1a1.0474,1.0474,0,0,0-.3.6,1.4093,1.4093,0,0,1,.5-.3s.3-.1,0,.1l-.4.4a.31.31,0,0,0-.1.2l-.2.2C6.2,88.1,6.2,88.1,6,88Zm1.1-.2c0-.1.1-.2.1-.3v-.1a.3674.3674,0,0,1,.1-.3.0979.0979,0,0,1,.1-.1h.4c-.1.1-.2.2-.2.3v.2a.2151.2151,0,0,0,.2.2h0c0-.1,0-.2.1-.2v-.1a.1875.1875,0,0,1,.3,0l.1.1c-.1,0-.1.1-.2.1h0a.3491.3491,0,0,0,.2.1H9.8a.2.2,0,0,1,0,.4H7.2A.3674.3674,0,0,1,7.1,87.8Z" fill="#95cdc7"/></g></g></svg>