<svg id="Layer_1" data-name="Layer 1" xmlns="http://www.w3.org/2000/svg" width="33.8667mm" height="33.8667mm" viewBox="0 0 96 96"><g id="roughgrass_bd"><g id="RoughGrass_FC"><path d="M12.2,79.2v.1l-.1.1h-.3l-.3-.5v-.1l.1-.1h.3Z" fill="#6bbe66"/><path d="M14.5,78.6h0a1.7265,1.7265,0,0,0-.4-.3c-.1-.2.1-.7.1-.7v-.7A1.432,1.432,0,0,1,14.5,78.6Z" fill="#6bbe66"/><path d="M14.5,78.6c.1.1.2.1.2.4h-.3A.7559.7559,0,0,1,14.5,78.6Z" fill="#6bbe66"/><path d="M16.6,77.8l-.5.5a2.1644,2.1644,0,0,0-.3.6v.2a.4829.4829,0,0,1-.4,0,2.18,2.18,0,0,0,.1-.6s0-1.1.5-1.2c0,0,.4-.2.1.1a1.67,1.67,0,0,0-.3.9C15.9,78.1,16.2,77.7,16.6,77.8Z" fill="#6bbe66"/><path d="M18.6,78.8v.1l-.3.4c0,.1-.1.1-.2,0H18v-.1l.3-.5c0-.1.1-.1.2,0l.1.1Z" fill="#6bbe66"/><path d="M13.2,78.3l.2.7v.1l-.1.1h-.1c-.1,0-.1,0-.2-.1l-.2-.7v-.1l.1-.1H13C13.1,78.2,13.2,78.2,13.2,78.3Z" fill="#6bbe66"/><path d="M17.2,78.2h.1l.1.1v.1l-.2.7c0,.1-.1.1-.2.1h-.1l-.1-.1V79l.2-.7C17,78.2,17.1,78.2,17.2,78.2Z" fill="#6bbe66"/></g></g><g id="boulder_bd"><path d="M17.8,74.8a.3491.3491,0,0,0-.1.2.2151.2151,0,0,0,.2.2h2c.3,0,.7-.1,1-.1h.9a2.4828,2.4828,0,0,1,.9.1.5845.5845,0,0,0,.4-.1s-.1-.2-.2-.2a.3491.3491,0,0,1-.2-.1,1.4385,1.4385,0,0,1,.2-.3c.1-.1.1-.3.2-.4a4.3311,4.3311,0,0,0,.1-.5v-.5c0-.1-.1-.3-.1-.4-.1-.1-.2-.2-.2-.3-.1-.1-.2-.2-.3-.2s-.2-.1-.3-.1h-.4a.6012.6012,0,0,0-.4.1c-.1,0-.3.1-.4.1s-.2.1-.3.2a1.4385,1.4385,0,0,0-.3.2,3.0749,3.0749,0,0,0-1.4.8l-.3.3h0a.3491.3491,0,0,1-.2.1c-.1.1-.3.2-.4.3a1.4385,1.4385,0,0,0-.2.3C17.8,74.7,17.8,74.8,17.8,74.8Zm.3-.1h0c0-.1.1-.2.2-.3s.2-.2.3-.2a.0979.0979,0,0,0,.1-.1h0a.3491.3491,0,0,0,.2.1c.1.1.2.1.3.2.1,0,.3.1.4.1H20a.2151.2151,0,0,0,.2-.2c0-.1-.1-.1-.2-.1h-.3a.3674.3674,0,0,1-.3-.1c-.1,0-.2-.1-.3-.2-.2-.2.1-.5.3-.6a2.2344,2.2344,0,0,1,1.2-.7c.1,0,.1,0,.1.1s.1.2.1.3.3.3.4.1c0-.1-.2-.2-.2-.2v-.4l.1-.1a.3491.3491,0,0,1,.2-.1c.1,0,.2-.1.3-.1a.3674.3674,0,0,0,.3-.1h.3c.1,0,.2.1.3.1a.2151.2151,0,0,1,.2.2l.2.2c0,.1.1.2.1.3v.4a.6012.6012,0,0,1-.1.4.7581.7581,0,0,1-.2.4c-.1.1-.1.2-.2.3s-.1.1-.2.1H20.9c-.3,0-.7.1-1,.1H18.8A.9794.9794,0,0,1,18.1,74.7Z" fill="#9a9a90"/></g><g id="boulder_bd-2" data-name="boulder_bd" style="isolation:isolate"><path d="M8.9,73.2a.3491.3491,0,0,0-.1.2.2151.2151,0,0,0,.2.2h2c.3,0,.7-.1,1-.1h.9a2.4828,2.4828,0,0,1,.9.1.5845.5845,0,0,0,.4-.1s-.1-.2-.2-.2a.3491.3491,0,0,1-.2-.1,1.4385,1.4385,0,0,1,.2-.3c.1-.1.1-.3.2-.4a4.3311,4.3311,0,0,0,.1-.5v-.5c0-.1-.1-.3-.1-.4-.1-.1-.2-.2-.2-.3-.1-.1-.2-.2-.3-.2s-.2-.1-.3-.1H13a.6012.6012,0,0,0-.4.1c-.1,0-.3.1-.4.1s-.2.1-.3.2a1.4385,1.4385,0,0,0-.3.2,3.0749,3.0749,0,0,0-1.4.8.7467.7467,0,0,0-.3.3h0a.3491.3491,0,0,1-.2.1c-.1.1-.3.2-.4.3-.3.2-.4.4-.4.5Zm.3,0h0c0-.1.1-.2.2-.3s.2-.2.3-.2a.0979.0979,0,0,0,.1-.1h0a.3491.3491,0,0,0,.2.1c.1.1.2.1.3.2.1,0,.3.1.4.1h.4a.2151.2151,0,0,0,.2-.2c0-.1-.1-.1-.2-.1h-.3a.3674.3674,0,0,1-.3-.1c-.1,0-.2-.1-.3-.2-.2-.2.1-.5.3-.6a2.2344,2.2344,0,0,1,1.2-.7c.1,0,.1,0,.1.1s.1.2.1.3.3.3.4.1c0-.1-.2-.2-.2-.2V71l.1-.1a.3491.3491,0,0,1,.2-.1c.1,0,.2-.1.3-.1a.3674.3674,0,0,0,.3-.1h.3c.1,0,.2.1.3.1a.2151.2151,0,0,1,.2.2l.2.2c0,.1.1.2.1.3v.4a.6012.6012,0,0,1-.1.4.7581.7581,0,0,1-.2.4c-.1.1-.1.2-.2.3s-.1.1-.2.1H12c-.3,0-.7.1-1,.1H9.9A4.1839,4.1839,0,0,1,9.2,73.2Z" fill="#9a9a90"/></g><g id="roughgrass_bd-2" data-name="roughgrass_bd" style="isolation:isolate"><g id="RoughGrass_FC-2" data-name="RoughGrass_FC"><path d="M49,68.5v.1l-.1.1h-.3l-.3-.5v-.1l.1-.1h.3Z" fill="#6bbe66"/><path d="M51.3,68h0c0-.1-.1-.1,0,0a1.7265,1.7265,0,0,0-.4-.3A3.5483,3.5483,0,0,1,51,67v-.7A1.432,1.432,0,0,1,51.3,68Z" fill="#6bbe66"/><path d="M51.3,68c.1.1.2.1.2.4h-.3C51.2,68.2,51.2,68.1,51.3,68Z" fill="#6bbe66"/><path d="M53.4,67.1l-.4.4a2.1644,2.1644,0,0,0-.3.6v.2a.4829.4829,0,0,1-.4,0,2.18,2.18,0,0,0,.1-.6s0-1.1.5-1.2c0,0,.4-.2.1.1a1.67,1.67,0,0,0-.3.9A1.0233,1.0233,0,0,1,53.4,67.1Z" fill="#6bbe66"/><path d="M55.4,68.1v.1l-.3.4c0,.1-.1.1-.2,0h-.1l-.1-.1v-.1l.3-.5c0-.1.1-.1.2,0l.2.2Z" fill="#6bbe66"/><path d="M50,67.6l.2.7v.1l-.1.1H50c-.1,0-.1,0-.2-.1l-.2-.7v-.1l.1-.1h.1C49.9,67.5,49.9,67.5,50,67.6Z" fill="#6bbe66"/><path d="M54,67.5h.1l.1.1v.1l-.2.7c0,.1-.1.1-.2.1h-.1l-.1-.1v-.1l.2-.7C53.8,67.5,53.9,67.5,54,67.5Z" fill="#6bbe66"/></g></g><g id="boulder_bd-3" data-name="boulder_bd" style="isolation:isolate"><path d="M54.6,64.1a.3491.3491,0,0,0-.1.2.2151.2151,0,0,0,.2.2h2c.3,0,.7-.1,1-.1h.9a2.4828,2.4828,0,0,1,.9.1.5845.5845,0,0,0,.4-.1s-.1-.2-.2-.2a.3491.3491,0,0,1-.2-.1,1.4385,1.4385,0,0,1,.2-.3c.1-.1.1-.3.2-.4a4.3311,4.3311,0,0,0,.1-.5v-.5c0-.1-.1-.3-.1-.4-.1-.1-.2-.2-.2-.3-.1-.1-.2-.2-.3-.2s-.2-.1-.3-.1h-.4a.6012.6012,0,0,0-.4.1c-.1,0-.3.1-.4.1s-.2.1-.3.2a1.4385,1.4385,0,0,0-.3.2,3.0749,3.0749,0,0,0-1.4.8l-.3.3h0a.3491.3491,0,0,1-.2.1c-.1.1-.3.2-.4.3a1.4385,1.4385,0,0,0-.2.3C54.6,64,54.6,64.1,54.6,64.1Zm.3,0h0c0-.1.1-.2.2-.3s.2-.2.3-.2a.0979.0979,0,0,0,.1-.1h0a.3491.3491,0,0,0,.2.1c.1.1.2.1.3.2.1,0,.3.1.4.1h.4a.2151.2151,0,0,0,.2-.2c0-.1-.1-.1-.2-.1h-.3a.3674.3674,0,0,1-.3-.1c-.1,0-.2-.1-.3-.2-.2-.2.1-.5.3-.6a2.2344,2.2344,0,0,1,1.2-.7c.1,0,.1,0,.1.1s.1.2.1.3a.3161.3161,0,0,0,.5.1c0-.1-.2-.2-.2-.2v-.4l.1-.1a.3491.3491,0,0,1,.2-.1c.1,0,.2-.1.3-.1a.3674.3674,0,0,0,.3-.1h.3c.1,0,.2.1.3.1a.2151.2151,0,0,1,.2.2l.2.2c0,.1.1.2.1.3v.4a.6012.6012,0,0,1-.1.4.7581.7581,0,0,1-.2.4c-.1.1-.1.2-.2.3-.2.2-.3.2-.3.2H57.7c-.3,0-.7.1-1,.1H54.9Z" fill="#9a9a90"/></g><g id="boulder_bd-4" data-name="boulder_bd" style="isolation:isolate"><path d="M45.6,62.5a.3491.3491,0,0,0-.1.2.2151.2151,0,0,0,.2.2h2c.3,0,.7-.1,1-.1h.9a2.4828,2.4828,0,0,1,.9.1.5845.5845,0,0,0,.4-.1.2151.2151,0,0,0-.2-.2.3491.3491,0,0,1-.2-.1,1.4385,1.4385,0,0,1,.2-.3c.1-.1.1-.3.2-.4a4.3311,4.3311,0,0,0,.1-.5v-.5c0-.1-.1-.3-.1-.4-.1-.1-.2-.2-.2-.3-.1-.1-.2-.2-.3-.2s-.2-.1-.3-.1h-.4a.6012.6012,0,0,0-.4.1c-.1,0-.3.1-.4.1s-.2.1-.3.2a1.4385,1.4385,0,0,0-.3.2,3.0749,3.0749,0,0,0-1.4.8l-.3.3h0a.3491.3491,0,0,1-.2.1c-.1.1-.3.2-.4.3a1.4385,1.4385,0,0,0-.2.3C45.7,62.5,45.7,62.5,45.6,62.5Zm.4,0h0c0-.1.1-.2.2-.3s.2-.2.3-.2a.0979.0979,0,0,0,.1-.1h0a.3491.3491,0,0,0,.2.1c.1.1.2.1.3.2.1,0,.3.1.4.1h.4a.2151.2151,0,0,0,.2-.2c0-.1-.1-.1-.2-.1h-.3a.3674.3674,0,0,1-.3-.1c-.1,0-.2-.1-.3-.2-.2-.2.1-.5.3-.6a2.2344,2.2344,0,0,1,1.2-.7c.1,0,.1,0,.1.1s.1.2.1.3.3.3.4.1c0-.1-.2-.2-.2-.2v-.4l.1-.1a.3491.3491,0,0,1,.2-.1c.1,0,.2-.1.3-.1a.3674.3674,0,0,0,.3-.1c.1-.1.2,0,.3,0s.2.1.3.1a.2151.2151,0,0,1,.2.2l.2.2c0,.1.1.2.1.3v.4a.6012.6012,0,0,1-.1.4.7581.7581,0,0,1-.2.4c-.1.1-.1.2-.2.3s-.1.1-.2.1H48.8c-.3,0-.7.1-1,.1H46.7A4.1839,4.1839,0,0,1,46,62.5Z" fill="#9a9a90"/></g><g id="roughgrass_bd-3" data-name="roughgrass_bd" style="isolation:isolate"><g id="RoughGrass_FC-3" data-name="RoughGrass_FC"><path d="M7.7,50.9V51l-.1.1H7.3L7,50.6v-.1l.1-.1h.3Z" fill="#6bbe66"/><path d="M10,50.4h0a1.7265,1.7265,0,0,0-.4-.3c-.1-.2.1-.7.1-.7v-.7A1.432,1.432,0,0,1,10,50.4Z" fill="#6bbe66"/><path d="M10,50.4c.1.1.2.1.2.4H9.9C9.9,50.6,10,50.5,10,50.4Z" fill="#6bbe66"/><path d="M12.2,49.5l-.5.5a2.1644,2.1644,0,0,0-.3.6v.2a.4829.4829,0,0,1-.4,0,2.18,2.18,0,0,0,.1-.6s0-1.1.5-1.2c0,0,.4-.2.1.1a1.67,1.67,0,0,0-.3.9A.8514.8514,0,0,1,12.2,49.5Z" fill="#6bbe66"/><path d="M14.2,50.6v.1l-.3.4c0,.1-.1.1-.2,0h-.1l-.1-.1v-.1l.3-.5c0-.1.1-.1.2,0l.2.2Z" fill="#6bbe66"/><path d="M8.7,50l.2.7v.1l-.1.2H8.7c-.1,0-.1,0-.2-.1l-.2-.7v-.1l.1-.1h.1A.1385.1385,0,0,1,8.7,50Z" fill="#6bbe66"/><path d="M12.7,49.9h.1l.1.1v.1l-.2.7c0,.1-.1.1-.2.1h-.1l-.1-.1v-.1l.2-.7C12.6,50,12.6,49.9,12.7,49.9Z" fill="#6bbe66"/></g></g><g id="boulder_bd-5" data-name="boulder_bd" style="isolation:isolate"><path d="M13.3,46.5a.3491.3491,0,0,0-.1.2.2151.2151,0,0,0,.2.2h2c.3,0,.7-.1,1-.1h.9a2.4828,2.4828,0,0,1,.9.1.5845.5845,0,0,0,.4-.1.2151.2151,0,0,0-.2-.2.3491.3491,0,0,1-.2-.1,1.4385,1.4385,0,0,1,.2-.3c.1-.1.1-.3.2-.4a4.3311,4.3311,0,0,0,.1-.5v-.5c0-.1-.1-.3-.1-.4-.1-.1-.2-.2-.2-.3-.1-.1-.2-.2-.3-.2s-.2-.1-.3-.1h-.4a.6012.6012,0,0,0-.4.1c-.1,0-.3.1-.4.1s-.2.1-.3.2a1.4385,1.4385,0,0,0-.3.2,3.0749,3.0749,0,0,0-1.4.8l-.3.3h0a.3491.3491,0,0,1-.2.1c-.1.1-.3.2-.4.3a1.4385,1.4385,0,0,0-.2.3C13.4,46.5,13.4,46.5,13.3,46.5Zm.4,0h0c0-.1.1-.2.2-.3s.2-.2.3-.2a.0979.0979,0,0,0,.1-.1h0a.3491.3491,0,0,0,.2.1c.1.1.2.2.3.2s.3.1.4.1h.4a.2151.2151,0,0,0,.2-.2c0-.1-.1-.1-.2-.1h-.3a.3674.3674,0,0,1-.3-.1c-.1,0-.2-.1-.3-.2-.2-.2.1-.5.3-.6a2.2344,2.2344,0,0,1,1.2-.7c.1,0,.1,0,.1.1s.1.2.1.3.3.3.4.1c0-.1-.2-.2-.2-.2v-.4l.1-.1a.3491.3491,0,0,1,.2-.1c.1,0,.2-.1.3-.1a.3674.3674,0,0,0,.3-.1h.3c.1,0,.2.1.3.1a.2151.2151,0,0,1,.2.2l.2.2c0,.1.1.2.1.3v.4a.6012.6012,0,0,1-.1.4.7581.7581,0,0,1-.2.4c-.1.1-.1.2-.2.3s-.1.1-.2.1H16.5c-.3,0-.7.1-1,.1H14.4A4.1839,4.1839,0,0,1,13.7,46.5Z" fill="#9a9a90"/></g><g id="roughgrass_bd-4" data-name="roughgrass_bd" style="isolation:isolate"><g id="RoughGrass_FC-4" data-name="RoughGrass_FC"><path d="M4.2,44.8v.1l-.1.1H3.8l-.3-.5v-.1l.1-.1h.3Z" fill="#6bbe66"/><path d="M6.5,44.2h0a1.7265,1.7265,0,0,0-.4-.3c-.1-.2.1-.7.1-.7v-.7A1.6318,1.6318,0,0,1,6.5,44.2Z" fill="#6bbe66"/><path d="M6.5,44.3c.1.1.2.1.2.4H6.4C6.3,44.5,6.4,44.4,6.5,44.3Z" fill="#6bbe66"/><path d="M8.6,43.4l-.5.5a2.1644,2.1644,0,0,0-.3.6v.2a.4829.4829,0,0,1-.4,0,2.18,2.18,0,0,0,.1-.6s0-1.1.5-1.2c0,0,.4-.2.1.1a1.67,1.67,0,0,0-.3.9C7.9,43.8,8.2,43.4,8.6,43.4Z" fill="#6bbe66"/><path d="M10.6,44.4v.1l-.3.5c0,.1-.1.1-.2,0H10l-.1-.1v-.1l.3-.5c0-.1.1-.1.2,0l.2.1Z" fill="#6bbe66"/><path d="M5.2,43.9l.2.7v.1l-.1.1H5.2c-.1,0-.1,0-.2-.1L4.8,44v-.1l.1-.1H5C5.1,43.8,5.1,43.8,5.2,43.9Z" fill="#6bbe66"/><path d="M9.2,43.8h.1l.1.1V44l-.2.7c0,.1-.1.1-.2.1H8.9l-.1-.1v-.1l.2-.7C9,43.8,9.1,43.8,9.2,43.8Z" fill="#6bbe66"/></g></g><g id="roughgrass_bd-5" data-name="roughgrass_bd" style="isolation:isolate"><g id="RoughGrass_FC-5" data-name="RoughGrass_FC"><path d="M16.6,29.9V30l-.1.1h-.3l-.2-.5v-.1l.1-.1h.3Z" fill="#6bbe66"/><path d="M18.9,29.3h0a1.7265,1.7265,0,0,0-.4-.3c-.1-.2.1-.7.1-.7v-.7A1.432,1.432,0,0,1,18.9,29.3Z" fill="#6bbe66"/><path d="M18.9,29.3c.1.1.2.1.2.4h-.3A.7559.7559,0,0,1,18.9,29.3Z" fill="#6bbe66"/><path d="M21,28.5l-.5.5a2.1644,2.1644,0,0,0-.3.6v.2a.4829.4829,0,0,1-.4,0,2.18,2.18,0,0,0,.1-.6s0-1.1.5-1.2c0,0,.4-.2.1.1a1.67,1.67,0,0,0-.3.9C20.3,28.8,20.6,28.4,21,28.5Z" fill="#6bbe66"/><path d="M23,29.5v.1l-.3.4c0,.1-.1.1-.2,0h-.1v-.1l.3-.5c0-.1.1-.1.2,0l.1.1Z" fill="#6bbe66"/><path d="M17.6,29l.2.7v.1l-.1.1h-.1c-.1,0-.1,0-.2-.1l-.2-.7V29l.1-.1h.1C17.5,28.9,17.6,28.9,17.6,29Z" fill="#6bbe66"/><path d="M21.6,28.9h.1l.1.1v.1l-.2.7c0,.1-.1.1-.2.1h-.1l-.1-.1v-.1l.2-.7C21.5,28.9,21.5,28.9,21.6,28.9Z" fill="#6bbe66"/></g></g><g id="boulder_bd-6" data-name="boulder_bd" style="isolation:isolate"><path d="M22.2,25.5a.3491.3491,0,0,0-.1.2.2151.2151,0,0,0,.2.2h2c.3,0,.7-.1,1-.1h.9a2.4828,2.4828,0,0,1,.9.1.5845.5845,0,0,0,.4-.1.2151.2151,0,0,0-.2-.2.3491.3491,0,0,1-.2-.1,1.4385,1.4385,0,0,1,.2-.3c.1-.1.1-.3.2-.4a4.3311,4.3311,0,0,0,.1-.5v-.5c0-.1-.1-.3-.1-.4-.1-.1-.2-.2-.2-.3a1.4385,1.4385,0,0,0-.3-.2c-.1,0-.2-.1-.3-.1h-.4a.6012.6012,0,0,0-.4.1c-.1,0-.3.1-.4.1s-.2.1-.3.2a1.4385,1.4385,0,0,0-.3.2,3.0749,3.0749,0,0,0-1.4.8l-.3.3h0a.3491.3491,0,0,1-.2.1c-.1.1-.3.2-.4.3a1.4385,1.4385,0,0,0-.2.3A1.2376,1.2376,0,0,1,22.2,25.5Zm.4-.1h0c0-.1.1-.2.2-.3s.2-.2.3-.2a.0979.0979,0,0,0,.1-.1h0a.3491.3491,0,0,0,.2.1c.1.1.2.2.3.2s.3.1.4.1h.4a.2151.2151,0,0,0,.2-.2c0-.1-.1-.1-.2-.1h-.3a.3674.3674,0,0,1-.3-.1c-.1,0-.2-.1-.3-.2-.2-.2.1-.5.3-.6a2.2344,2.2344,0,0,1,1.2-.7c.1,0,.1,0,.1.1s.1.2.1.3.3.3.4.1c0-.1-.2-.2-.2-.2v-.4l.1-.1a.3491.3491,0,0,1,.2-.1c.1,0,.2-.1.3-.1a.3674.3674,0,0,0,.3-.1h.3c.1,0,.2.1.3.1a.2151.2151,0,0,1,.2.2l.2.2c0,.1.1.2.1.3V24a.6012.6012,0,0,1-.1.4.7581.7581,0,0,1-.2.4c-.1.1-.1.2-.2.3s-.1.1-.2.1H25.4c-.3,0-.7.1-1,.1H23.3C22.8,25.5,22.6,25.4,22.6,25.4Z" fill="#9a9a90"/></g><g id="boulder_bd-7" data-name="boulder_bd" style="isolation:isolate"><path d="M13.3,23.9a.3491.3491,0,0,0-.1.2.2151.2151,0,0,0,.2.2h2c.3,0,.7-.1,1-.1h.9a2.4828,2.4828,0,0,1,.9.1.5845.5845,0,0,0,.4-.1.2151.2151,0,0,0-.2-.2.3491.3491,0,0,1-.2-.1,1.4385,1.4385,0,0,1,.2-.3c.1-.1.1-.3.2-.4a4.3311,4.3311,0,0,0,.1-.5v-.5c0-.1-.1-.3-.1-.4-.1-.1-.2-.2-.2-.3-.1-.1-.2-.2-.3-.2s-.2-.1-.3-.1h-.4a.6012.6012,0,0,0-.4.1c-.1,0-.3.1-.4.1s-.2.1-.3.2a1.4385,1.4385,0,0,0-.3.2,3.0749,3.0749,0,0,0-1.4.8l-.3.3h0a.3491.3491,0,0,1-.2.1c-.1.1-.3.2-.4.3a1.4385,1.4385,0,0,0-.2.3C13.3,23.8,13.3,23.9,13.3,23.9Zm.3,0h0c0-.1.1-.2.2-.3s.2-.2.3-.2a.0979.0979,0,0,0,.1-.1h0a.3491.3491,0,0,0,.2.1c.1.1.2.2.3.2s.3.1.4.1h.4a.2151.2151,0,0,0,.2-.2c0-.1-.1-.1-.2-.1h-.3a.3674.3674,0,0,1-.3-.1c-.1,0-.2-.1-.3-.2-.2-.2.1-.5.3-.6.1,0,.5-.5,1.1-.5.1,0,.1,0,.1.1s.1.2.1.3.3.3.4.1c0-.1-.2-.2-.2-.2v-.4l.1-.1a.3491.3491,0,0,1,.2-.1c.1,0,.2-.1.3-.1a.3674.3674,0,0,0,.3-.1h.3c.1,0,.2.1.3.1a.2151.2151,0,0,1,.2.2l.2.2c0,.1.1.2.1.3v.4a.6012.6012,0,0,1-.1.4.7581.7581,0,0,1-.2.4c-.1.1-.1.2-.2.3s-.1.1-.2.1H16.3c-.3,0-.7.1-1,.1H14.2A2.1422,2.1422,0,0,0,13.6,23.9Z" fill="#9a9a90"/></g><g id="roughgrass_bd-6" data-name="roughgrass_bd" style="isolation:isolate"><g id="RoughGrass_FC-6" data-name="RoughGrass_FC"><path d="M47.5,10.1v.1l-.1.1h-.3l-.3-.5V9.7l.1-.1h.3Z" fill="#6bbe66"/><path d="M49.8,9.5h0a1.7265,1.7265,0,0,0-.4-.3c-.1-.2.1-.7.1-.7V7.8A1.432,1.432,0,0,1,49.8,9.5Z" fill="#6bbe66"/><path d="M49.8,9.5c.1.1.2.1.2.4h-.3C49.7,9.8,49.8,9.7,49.8,9.5Z" fill="#6bbe66"/><path d="M52,8.7l-.5.5a2.1644,2.1644,0,0,0-.3.6V10a.4829.4829,0,0,1-.4,0,2.18,2.18,0,0,0,.1-.6s0-1.1.5-1.2c0,0,.4-.2.1.1a1.67,1.67,0,0,0-.3.9A.6508.6508,0,0,1,52,8.7Z" fill="#6bbe66"/><path d="M54,9.7v.1l-.3.4c0,.1-.1.1-.2,0h-.1l-.1-.1V10l.3-.5c0-.1.1-.1.2,0l.2.2Z" fill="#6bbe66"/><path d="M48.5,9.2l.2.7V10l-.1.1h-.1c-.1,0-.1,0-.2-.1l-.2-.7V9.2l.1-.1h.1C48.4,9.1,48.5,9.1,48.5,9.2Z" fill="#6bbe66"/><path d="M52.5,9.1h.1l.1.1v.1l-.2.7c0,.1-.1.1-.2.1h-.1l-.1-.1V9.9l.2-.7A.31.31,0,0,1,52.5,9.1Z" fill="#6bbe66"/></g></g><g id="boulder_bd-8" data-name="boulder_bd" style="isolation:isolate"><path d="M53.2,5.7a.3491.3491,0,0,0-.1.2c0,.1,0,.1.1.1h2c.3,0,.7-.1,1-.1h.9A2.4828,2.4828,0,0,1,58,6a.5845.5845,0,0,0,.4-.1s-.1-.2-.2-.2a.3491.3491,0,0,1-.2-.1,1.4385,1.4385,0,0,1,.2-.3c.1-.1.1-.3.2-.4a4.3311,4.3311,0,0,0,.1-.5V3.9c0-.1-.1-.3-.1-.4-.1-.1-.2-.2-.2-.3-.1-.1-.2-.2-.3-.2s-.2-.1-.3-.1h-.4a.6012.6012,0,0,0-.4.1c-.1,0-.3.1-.4.1s-.2.1-.3.2a1.4385,1.4385,0,0,0-.3.2,3.0749,3.0749,0,0,0-1.4.8l-.3.3h0a.3491.3491,0,0,1-.2.1c-.1.1-.3.2-.4.3a1.4385,1.4385,0,0,0-.2.3A1.5769,1.5769,0,0,0,53.2,5.7Zm.3-.1h0c0-.1.1-.2.2-.3s.2-.2.3-.2a.0979.0979,0,0,0,.1-.1h0a.3491.3491,0,0,0,.2.1c.1.1.2.2.3.2s.3.1.4.1h.4a.2151.2151,0,0,0,.2-.2c0-.1-.1-.1-.2-.1h-.3a.3674.3674,0,0,1-.3-.1c-.1,0-.2-.1-.3-.2-.2-.2.1-.5.3-.6A2.2344,2.2344,0,0,1,56,3.5c.1,0,.1,0,.1.1s.1.2.1.3a.3161.3161,0,0,0,.5.1c0-.1-.2-.2-.2-.2V3.4l.1-.1a.3491.3491,0,0,1,.2-.1c.1,0,.2-.1.3-.1a.3674.3674,0,0,0,.3-.1h.3c.1,0,.2.1.3.1a.2151.2151,0,0,1,.2.2l.2.2c0,.1.1.2.1.3v.4a.6012.6012,0,0,1-.1.4.7581.7581,0,0,1-.2.4c-.1.1-.1.2-.2.3s-.1.1-.2.1H56.4c-.3,0-.7.1-1,.1H54.3C53.7,5.7,53.5,5.6,53.5,5.6Z" fill="#9a9a90"/></g><g id="boulder_bd-9" data-name="boulder_bd" style="isolation:isolate"><path d="M44.2,4.1a.3491.3491,0,0,0-.1.2.2151.2151,0,0,0,.2.2h2c.3,0,.7-.1,1-.1h.9a2.4828,2.4828,0,0,1,.9.1.5845.5845,0,0,0,.4-.1s-.1-.2-.2-.2a.3491.3491,0,0,1-.2-.1,1.4385,1.4385,0,0,1,.2-.3c.1-.1.1-.3.2-.4a4.3311,4.3311,0,0,0,.1-.5V2.4c0-.1-.1-.3-.1-.4-.1-.1-.2-.2-.2-.3-.1-.1-.2-.2-.3-.2s-.2-.1-.3-.1h-.4a.6012.6012,0,0,0-.4.1c-.1,0-.3.1-.4.1s-.2.1-.3.2a1.4385,1.4385,0,0,0-.3.2,3.0749,3.0749,0,0,0-1.4.8l-.3.3h0a.3491.3491,0,0,1-.2.1c-.1.1-.3.2-.4.3a1.4385,1.4385,0,0,0-.2.3Zm.3,0h0c0-.1.1-.2.2-.3s.2-.2.3-.2a.0979.0979,0,0,0,.1-.1h0a.3491.3491,0,0,0,.2.1c.1.1.2.2.3.2A.7581.7581,0,0,0,46,4h.4a.2151.2151,0,0,0,.2-.2c0-.1-.1-.1-.2-.1h-.3a.3674.3674,0,0,1-.3-.1c-.1,0-.2-.1-.3-.2-.2-.2.1-.5.3-.6A2.2344,2.2344,0,0,1,47,2.1c.1,0,.1,0,.1.1s.1.2.1.3.3.3.4.1c0-.1-.2-.2-.2-.2V2l.1-.1a.3491.3491,0,0,1,.2-.1c.1,0,.2-.1.3-.1a.3674.3674,0,0,0,.3-.1h.3c.1,0,.2.1.3.1a.2151.2151,0,0,1,.2.2l.2.2c0,.1.1.2.1.3v.4a.6012.6012,0,0,1-.1.4.7581.7581,0,0,1-.2.4c-.1.1-.1.2-.2.3a.31.31,0,0,1-.2.1H47.3c-.3,0-.7.1-1,.1H44.5Z" fill="#9a9a90"/></g><g id="roughgrass_bd-7" data-name="roughgrass_bd" style="isolation:isolate"><g id="RoughGrass_FC-7" data-name="RoughGrass_FC"><path d="M70.2,26.4v.1l-.1.1h-.3l-.3-.5V26l.1-.1h.3Z" fill="#6bbe66"/><path d="M72.5,25.8h0a1.7265,1.7265,0,0,0-.4-.3c-.1-.2.1-.7.1-.7v-.7A1.65,1.65,0,0,1,72.5,25.8Z" fill="#6bbe66"/><path d="M72.5,25.8c.1.1.2.1.2.4h-.3C72.3,26.1,72.4,26,72.5,25.8Z" fill="#6bbe66"/><path d="M74.6,24.9l-.5.5a2.1644,2.1644,0,0,0-.3.6v.2a.4829.4829,0,0,1-.4,0,2.18,2.18,0,0,0,.1-.6s0-1.1.5-1.2c0,0,.4-.2.1.1a1.67,1.67,0,0,0-.3.9C73.9,25.3,74.2,24.9,74.6,24.9Z" fill="#6bbe66"/><path d="M76.6,26v.1l-.3.4c0,.1-.1.1-.2,0H76l-.1-.1v-.1l.3-.5c0-.1.1-.1.2,0l.2.2Z" fill="#6bbe66"/><path d="M71.2,25.5l.2.7v.1l-.1.1h-.1c-.1,0-.1,0-.2-.1l-.2-.7v-.1l.1-.1H71C71.1,25.3,71.1,25.4,71.2,25.5Z" fill="#6bbe66"/><path d="M75.2,25.4h.1l.1.1v.1l-.2.7c0,.1-.1.1-.2.1h-.1l-.1-.1v-.1l.2-.7C75,25.4,75.1,25.3,75.2,25.4Z" fill="#6bbe66"/></g></g><g id="boulder_bd-10" data-name="boulder_bd" style="isolation:isolate"><path d="M75.8,21.9a.3491.3491,0,0,0-.1.2.2151.2151,0,0,0,.2.2h2c.3,0,.7-.1,1-.1h.9a2.4828,2.4828,0,0,1,.9.1.5845.5845,0,0,0,.4-.1.2151.2151,0,0,0-.2-.2.3491.3491,0,0,1-.2-.1,1.4385,1.4385,0,0,1,.2-.3c.1-.1.1-.3.2-.4a4.3311,4.3311,0,0,0,.1-.5v-.5c0-.1-.1-.3-.1-.4-.1-.1-.2-.2-.2-.3-.1-.1-.2-.2-.3-.2s-.2-.1-.3-.1h-.4a.6012.6012,0,0,0-.4.1c-.1,0-.3.1-.4.1s-.2.1-.3.2a1.4385,1.4385,0,0,0-.3.2,3.0749,3.0749,0,0,0-1.4.8l-.3.3h0a.3491.3491,0,0,1-.2.1c-.1.1-.3.2-.4.3a1.4385,1.4385,0,0,0-.2.3Zm.3,0h0c0-.1.1-.2.2-.3s.2-.2.3-.2a.0979.0979,0,0,0,.1-.1h0a.3491.3491,0,0,0,.2.1c.1.1.2.2.3.2s.3.1.4.1H78a.2151.2151,0,0,0,.2-.2c0-.1-.1-.1-.2-.1h-.3a.3674.3674,0,0,1-.3-.1c-.1,0-.2-.1-.3-.2-.2-.2.1-.5.3-.6a2.2344,2.2344,0,0,1,1.2-.7c.1,0,.1,0,.1.1s.1.2.1.3a.3161.3161,0,0,0,.5.1c0-.1-.2-.2-.2-.2v-.4l.1-.1a.3491.3491,0,0,1,.2-.1c.1,0,.2-.1.3-.1a.3674.3674,0,0,0,.3-.1h.3c.1,0,.2.1.3.1a.2151.2151,0,0,1,.2.2l.2.2c0,.1.1.2.1.3v.4a.6012.6012,0,0,1-.1.4.7581.7581,0,0,1-.2.4c-.1.1-.1.2-.2.3s-.1.1-.2.1H79c-.3,0-.7.1-1,.1H76.9A4.5306,4.5306,0,0,1,76.1,21.9Z" fill="#9a9a90"/></g><g id="roughgrass_bd-8" data-name="roughgrass_bd" style="isolation:isolate"><g id="RoughGrass_FC-8" data-name="RoughGrass_FC"><path d="M66.6,20.2v.1l-.1.1h-.3L66,20v-.1l.1-.1h.3Z" fill="#6bbe66"/><path d="M68.9,19.7h0a1.7265,1.7265,0,0,0-.4-.3c-.1-.2.1-.7.1-.7V18A1.432,1.432,0,0,1,68.9,19.7Z" fill="#6bbe66"/><path d="M68.9,19.7c.1.1.2.1.2.4h-.3C68.8,19.9,68.8,19.8,68.9,19.7Z" fill="#6bbe66"/><path d="M71,18.8l-.5.5a2.1644,2.1644,0,0,0-.3.6v.2a.4829.4829,0,0,1-.4,0,2.18,2.18,0,0,0,.1-.6s0-1.1.5-1.2c0,0,.4-.2.1.1a1.67,1.67,0,0,0-.3.9C70.3,19.2,70.6,18.8,71,18.8Z" fill="#6bbe66"/><path d="M73,19.8v.1l-.3.4c0,.1-.1.1-.2,0h-.1l-.1-.1v-.1l.3-.5c0-.1.1-.1.2,0l.2.2Z" fill="#6bbe66"/><path d="M67.6,19.3l.2.7v.1l-.1.1h-.1c-.1,0-.1,0-.2-.1l-.2-.7v-.1l.1-.1h.1C67.5,19.2,67.6,19.2,67.6,19.3Z" fill="#6bbe66"/><path d="M71.6,19.2h.1l.1.1v.1l-.2.7c0,.1-.1.1-.2.1h-.1l-.1-.1V20l.2-.7C71.5,19.2,71.5,19.2,71.6,19.2Z" fill="#6bbe66"/></g></g><g id="roughgrass_bd-9" data-name="roughgrass_bd" style="isolation:isolate"><g id="RoughGrass_FC-9" data-name="RoughGrass_FC"><path d="M81.3,9.4v.1l-.1.1h-.3l-.3-.5V9l.1-.1H81Z" fill="#6bbe66"/><path d="M83.6,8.8h0a1.7265,1.7265,0,0,0-.4-.3c-.1-.2.1-.7.1-.7V7.1C84.1,8.1,83.6,8.8,83.6,8.8Z" fill="#6bbe66"/><path d="M83.6,8.9c.1.1.2.1.2.4h-.3C83.5,9.1,83.6,9,83.6,8.9Z" fill="#6bbe66"/><path d="M85.8,8l-.5.5a2.1644,2.1644,0,0,0-.3.6v.2a.4829.4829,0,0,1-.4,0,2.18,2.18,0,0,0,.1-.6s0-1.1.5-1.2c0,0,.4-.2.1.1a1.67,1.67,0,0,0-.3.9A.8514.8514,0,0,1,85.8,8Z" fill="#6bbe66"/><path d="M87.8,9v.1l-.3.4c0,.1-.1.1-.2,0h-.1l-.1-.1V9.3l.3-.5c0-.1.1-.1.2,0l.2.2Z" fill="#6bbe66"/><path d="M82.3,8.5l.2.7v.1l-.1.1h-.1c-.1,0-.1,0-.2-.1L82,8.7V8.4h.1C82.2,8.4,82.3,8.4,82.3,8.5Z" fill="#6bbe66"/><path d="M86.3,8.4h.1l.1.1v.1l-.2.7c0,.1-.1.1-.2.1H86l-.1-.1V9.2l.2-.7C86.2,8.4,86.2,8.4,86.3,8.4Z" fill="#6bbe66"/></g></g><g id="boulder_bd-11" data-name="boulder_bd" style="isolation:isolate"><path d="M86.9,5a.3491.3491,0,0,0-.1.2.2151.2151,0,0,0,.2.2h2c.3,0,.7-.1,1-.1h.9a2.4828,2.4828,0,0,1,.9.1.5845.5845,0,0,0,.4-.1s0-.3-.1-.3a.3491.3491,0,0,1-.2-.1,1.4385,1.4385,0,0,1,.2-.3c.1-.1.1-.3.2-.4a4.3311,4.3311,0,0,0,.1-.5V3.2c0-.1-.1-.3-.1-.4-.2,0-.3-.1-.3-.2-.1-.1-.2-.2-.3-.2s-.2-.1-.3-.1H91a.6012.6012,0,0,0-.4.1c-.1,0-.3.1-.4.1s-.2.1-.3.2a1.4385,1.4385,0,0,0-.3.2,3.0749,3.0749,0,0,0-1.4.8c-.1,0-.2.2-.2.2h0a.3491.3491,0,0,1-.2.1c-.1.1-.3.2-.4.3a2.22,2.22,0,0,0-.4.5C87,4.9,87,5,86.9,5Zm.4,0h0c0-.1.1-.2.2-.3s.2-.2.3-.2a.0979.0979,0,0,0,.1-.1h0a.3491.3491,0,0,0,.2.1c.1.1.2.2.3.2s.3.1.4.1h.4a.2151.2151,0,0,0,.2-.2c0-.1-.1-.1-.2-.1h-.3a.3674.3674,0,0,1-.3-.1c-.1,0-.2-.1-.3-.2-.2-.2.1-.5.3-.6a2.2344,2.2344,0,0,1,1.2-.7c.1,0,.1,0,.1.1s.1.2.1.3a.3161.3161,0,0,0,.5.1c0-.1-.2-.2-.2-.2V2.8l.1-.1a.3491.3491,0,0,1,.2-.1c.1,0,.2-.1.3-.1a.3674.3674,0,0,0,.3-.1h.3c.1,0,.2.1.3.1a.2151.2151,0,0,1,.2.2c-.2.1-.1.2,0,.3,0,.1.1.2.1.3v.4a.6012.6012,0,0,1-.1.4.7581.7581,0,0,1-.2.4c-.1.1-.1.2-.2.3s-.1.1-.2.1H90A3.4019,3.4019,0,0,1,89,5H87.3Z" fill="#9a9a90"/></g><g id="roughgrass_bd-10" data-name="roughgrass_bd" style="isolation:isolate"><g id="RoughGrass_FC-10" data-name="RoughGrass_FC"><path d="M77.8,3.2v.1l-.1.1h-.3L77.1,3V2.9l.1-.1h.3Z" fill="#6bbe66"/><path d="M80.1,2.7h0a1.7265,1.7265,0,0,0-.4-.3c-.1-.2.1-.7.1-.7V1A1.65,1.65,0,0,1,80.1,2.7Z" fill="#6bbe66"/><path d="M80.1,2.7c.1.1.2.1.2.4H80C79.9,3,80,2.9,80.1,2.7Z" fill="#6bbe66"/><path d="M82.2,1.8l-.5.5a2.1644,2.1644,0,0,0-.3.6v.2a.4829.4829,0,0,1-.4,0,2.18,2.18,0,0,0,.1-.6s0-1.1.5-1.2c0,0,.4-.2.1.1a1.67,1.67,0,0,0-.3.9C81.5,2.2,81.8,1.8,82.2,1.8Z" fill="#6bbe66"/><path d="M84.2,2.9V3l-.3.4c0,.1-.1.1-.2,0h-.1l-.1-.1V3.2l.3-.5c0-.1.1-.1.2,0l.2.2Z" fill="#6bbe66"/><path d="M78.8,2.4l.2.7v.1l-.1.1h-.1c-.1,0-.1,0-.2-.1l-.2-.7V2.4l.1-.1h.1C78.7,2.2,78.7,2.3,78.8,2.4Z" fill="#6bbe66"/><path d="M82.8,2.3h.1l.1.1v.1l-.2.7c0,.1-.1.1-.2.1h-.1l-.1-.1V3.1l.2-.7C82.6,2.3,82.7,2.2,82.8,2.3Z" fill="#6bbe66"/></g></g><g id="roughgrass_bd-11" data-name="roughgrass_bd" style="isolation:isolate"><g id="RoughGrass_FC-11" data-name="RoughGrass_FC"><path d="M71.2,46.3v.1l-.1.1h-.3l-.3-.5v-.1l.1-.1h.3Z" fill="#6bbe66"/><path d="M73.5,45.8h0a1.7265,1.7265,0,0,0-.4-.3c-.1-.2.1-.7.1-.7v-.7A1.65,1.65,0,0,1,73.5,45.8Z" fill="#6bbe66"/><path d="M73.5,45.8c.1.1.2.1.2.4h-.3C73.3,46.1,73.4,46,73.5,45.8Z" fill="#6bbe66"/><path d="M75.6,44.9l-.5.5a2.1644,2.1644,0,0,0-.3.6v.2a.4829.4829,0,0,1-.4,0,2.18,2.18,0,0,0,.1-.6s0-1.1.5-1.2c0,0,.4-.2.1.1a1.67,1.67,0,0,0-.3.9C74.9,45.3,75.2,44.9,75.6,44.9Z" fill="#6bbe66"/><path d="M77.6,46v.1l-.3.4c0,.1-.1.1-.2,0H77l-.1-.1v-.1l.3-.5c0-.1.1-.1.2,0l.2.2Z" fill="#6bbe66"/><path d="M72.2,45.5l.2.7v.1l-.1.1h-.1c-.1,0-.1,0-.2-.1l-.2-.7v-.1l.1-.1H72C72.1,45.3,72.1,45.4,72.2,45.5Z" fill="#6bbe66"/><path d="M76.2,45.4h.1l.1.1v.1l-.2.7c0,.1-.1.1-.2.1h-.1l-.1-.1v-.1l.2-.7C76,45.4,76.1,45.3,76.2,45.4Z" fill="#6bbe66"/></g></g><g id="boulder_bd-12" data-name="boulder_bd" style="isolation:isolate"><path d="M76.8,41.9a.3491.3491,0,0,0-.1.2.2151.2151,0,0,0,.2.2h2c.3,0,.7-.1,1-.1h.9a2.4828,2.4828,0,0,1,.9.1.5845.5845,0,0,0,.4-.1s-.1-.2-.2-.2a.3491.3491,0,0,1-.2-.1,1.4385,1.4385,0,0,1,.2-.3c.1-.1.1-.3.2-.4a4.3311,4.3311,0,0,0,.1-.5v-.5c0-.1-.1-.3-.1-.4-.1-.1-.2-.2-.2-.3-.1-.1-.2-.2-.3-.2s-.2-.1-.3-.1h-.4a.6012.6012,0,0,0-.4.1c-.1,0-.3.1-.4.1s-.2.1-.3.2a1.4385,1.4385,0,0,0-.3.2,3.0749,3.0749,0,0,0-1.4.8l-.3.3h0a.3491.3491,0,0,1-.2.1c-.1.1-.3.2-.4.3a1.4385,1.4385,0,0,0-.2.3Zm.3,0h0c0-.1.1-.2.2-.3s.2-.2.3-.2a.0979.0979,0,0,0,.1-.1h0a.3491.3491,0,0,0,.2.1c.1.1.2.2.3.2s.3.1.4.1H79a.2151.2151,0,0,0,.2-.2c0-.1-.1-.1-.2-.1h-.3a.3674.3674,0,0,1-.3-.1c-.1,0-.2-.1-.3-.2-.2-.2.1-.5.3-.6a2.2344,2.2344,0,0,1,1.2-.7c.1,0,.1,0,.1.1s.1.2.1.3a.3161.3161,0,0,0,.5.1c0-.1-.2-.2-.2-.2v-.4l.1-.1a.3491.3491,0,0,1,.2-.1c.1,0,.2-.1.3-.1a.3674.3674,0,0,0,.3-.1c.1-.1.2,0,.3,0s.2.1.3.1a.2151.2151,0,0,1,.2.2l.2.2c0,.1.1.2.1.3v.4a.6012.6012,0,0,1-.1.4.7581.7581,0,0,1-.2.4c-.1.1-.1.2-.2.3s-.1.1-.2.1H80c-.3,0-.7.1-1,.1H77.9A4.5306,4.5306,0,0,1,77.1,41.9Z" fill="#9a9a90"/></g><g id="boulder_bd-13" data-name="boulder_bd" style="isolation:isolate"><path d="M67.8,40.4a.3491.3491,0,0,0-.1.2.2151.2151,0,0,0,.2.2h2c.3,0,.7-.1,1-.1h.9a2.4828,2.4828,0,0,1,.9.1.5845.5845,0,0,0,.4-.1.2151.2151,0,0,0-.2-.2.3491.3491,0,0,1-.2-.1,1.4385,1.4385,0,0,1,.2-.3c.1-.1.1-.3.2-.4a4.3311,4.3311,0,0,0,.1-.5v-.5c0-.1-.1-.3-.1-.4-.1-.1-.2-.2-.2-.3-.1-.1-.2-.2-.3-.2s-.2-.1-.3-.1h-.4a.6012.6012,0,0,0-.4.1c-.1,0-.3.1-.4.1s-.2.1-.3.2-.2.1-.3.2a3.0749,3.0749,0,0,0-1.4.8l-.3.3h0a.3491.3491,0,0,1-.2.1c-.1.1-.3.2-.4.3a1.4385,1.4385,0,0,0-.2.3C67.9,40.3,67.9,40.4,67.8,40.4Zm.4,0h0c0-.1.1-.2.2-.3s.2-.2.3-.2a.0979.0979,0,0,0,.1-.1h0a.3491.3491,0,0,0,.2.1c.1.1.2.2.3.2s.3.1.4.1h.4a.2151.2151,0,0,0,.2-.2c0-.1-.1-.1-.2-.1h-.3a.3674.3674,0,0,1-.3-.1c-.1,0-.2-.1-.3-.2-.2-.2.1-.5.3-.6a2.2344,2.2344,0,0,1,1.2-.7c.1,0,.1,0,.1.1s.1.2.1.3a.3161.3161,0,0,0,.5.1c0-.1-.2-.2-.2-.2v-.4l.1-.1a.3491.3491,0,0,1,.2-.1c.1,0,.2-.1.3-.1a.3674.3674,0,0,0,.3-.1c.1-.1.2,0,.3,0s.2.1.3.1a.2151.2151,0,0,1,.2.2l.2.2c0,.1.1.2.1.3V39a.6012.6012,0,0,1-.1.4.7581.7581,0,0,1-.2.4c-.1.1-.1.2-.2.3s-.1.1-.2.1H71.1c-.3,0-.7.1-1,.1H69A5.9512,5.9512,0,0,1,68.2,40.4Z" fill="#9a9a90"/></g><g id="roughgrass_bd-12" data-name="roughgrass_bd" style="isolation:isolate"><g id="RoughGrass_FC-12" data-name="RoughGrass_FC"><path d="M81.8,70.4v.1l-.1.1h-.3l-.3-.5V70l.1-.1h.3Z" fill="#6bbe66"/><path d="M84.1,69.9h0a1.7265,1.7265,0,0,0-.4-.3c-.1-.2.1-.7.1-.7v-.7A1.432,1.432,0,0,1,84.1,69.9Z" fill="#6bbe66"/><path d="M84.1,69.9c.1.1.2.1.2.4H84C84,70.1,84.1,70,84.1,69.9Z" fill="#6bbe66"/><path d="M86.3,69l-.5.5a2.1644,2.1644,0,0,0-.3.6v.2a.4829.4829,0,0,1-.4,0,2.18,2.18,0,0,0,.1-.6s0-1.1.5-1.2c0,0,.4-.2.1.1a1.67,1.67,0,0,0-.3.9A.8514.8514,0,0,1,86.3,69Z" fill="#6bbe66"/><path d="M88.3,70.1v.1l-.3.4c0,.1-.1.1-.2,0h-.1l-.1-.1v-.1l.3-.5c0-.1.1-.1.2,0l.2.2Z" fill="#6bbe66"/><path d="M82.8,69.5l.2.7v.3h-.1c-.1,0-.1,0-.2-.1l-.2-.7v-.1l.1-.1h.1C82.7,69.4,82.8,69.5,82.8,69.5Z" fill="#6bbe66"/><path d="M86.8,69.4h.1l.1.1v.1l-.2.7c0,.1-.1.1-.2.1h-.1l-.1-.1v-.1l.2-.7A.3491.3491,0,0,0,86.8,69.4Z" fill="#6bbe66"/></g></g><g id="boulder_bd-14" data-name="boulder_bd" style="isolation:isolate"><path d="M87.4,66a.3491.3491,0,0,0-.1.2.2151.2151,0,0,0,.2.2h2c.3,0,.7-.1,1-.1h.9a2.4828,2.4828,0,0,1,.9.1.5845.5845,0,0,0,.4-.1s0-.3-.1-.3a.3491.3491,0,0,1-.2-.1,1.4385,1.4385,0,0,1,.2-.3c.1-.1.1-.3.2-.4a4.3311,4.3311,0,0,0,.1-.5v-.5c0-.1-.1-.3-.1-.4-.1-.1-.2-.2-.2-.3-.1-.1-.2-.2-.3-.2s-.2-.1-.3-.1h-.4a.6012.6012,0,0,0-.4.1c-.1,0-.3.1-.4.1s-.2.1-.3.2a1.4385,1.4385,0,0,0-.3.2,3.0749,3.0749,0,0,0-1.4.8l-.3.3h0a.3491.3491,0,0,1-.2.1c-.1.1-.3.2-.4.3a1.4385,1.4385,0,0,0-.2.3C87.5,65.9,87.5,66,87.4,66Zm.4,0h0c0-.1.1-.2.2-.3s.2-.2.3-.2a.0979.0979,0,0,0,.1-.1h0a.3491.3491,0,0,0,.2.1c.1.1.2.1.3.2.1,0,.3.1.4.1h.4a.2151.2151,0,0,0,.2-.2c0-.1-.1-.1-.2-.1h-.3a.3674.3674,0,0,1-.3-.1c-.1,0-.2-.1-.3-.2-.2-.2.1-.5.3-.6a2.2344,2.2344,0,0,1,1.2-.7c.1,0,.1,0,.1.1s.1.2.1.3a.3161.3161,0,0,0,.5.1c0-.1-.2-.2-.2-.2v-.4l.1-.1a.3491.3491,0,0,1,.2-.1c.1,0,.2-.1.3-.1a.3674.3674,0,0,0,.3-.1H92c.1,0,.2.1.3.1a.2151.2151,0,0,1,.2.2l.2.2c0,.1.1.2.1.3v.4a.6012.6012,0,0,1-.1.4.7581.7581,0,0,1-.2.4c-.1.1-.1.2-.2.3s-.1.1-.2.1H90.7c-.3,0-.7.1-1,.1H88.6A5.9512,5.9512,0,0,1,87.8,66Z" fill="#9a9a90"/></g><g id="roughgrass_bd-13" data-name="roughgrass_bd" style="isolation:isolate"><g id="RoughGrass_FC-13" data-name="RoughGrass_FC"><path d="M78.3,64.3v.1l-.1.1h-.3l-.3-.5v-.1l.1-.1H78Z" fill="#6bbe66"/><path d="M80.6,63.7h0a1.7265,1.7265,0,0,0-.4-.3c-.1-.2.1-.7.1-.7V62C81.1,63,80.6,63.7,80.6,63.7Z" fill="#6bbe66"/><path d="M80.6,63.8c.1.1.2.1.2.4h-.3C80.5,64,80.5,63.9,80.6,63.8Z" fill="#6bbe66"/><path d="M82.7,62.9l-.5.5a2.1644,2.1644,0,0,0-.3.6v.2a.4829.4829,0,0,1-.4,0,2.18,2.18,0,0,0,.1-.6s0-1.1.5-1.2c0,0,.4-.2.1.1a1.67,1.67,0,0,0-.3.9C82,63.3,82.3,62.8,82.7,62.9Z" fill="#6bbe66"/><path d="M84.7,63.9V64l-.3.4c0,.1-.1.1-.2,0H84v-.1l.3-.5c0-.1.1-.1.2,0l.2.1Z" fill="#6bbe66"/><path d="M79.3,63.4l.2.7v.1l-.1.1h-.1c-.1,0-.1,0-.2-.1l-.2-.7v-.1l.1-.1h.1C79.2,63.3,79.2,63.3,79.3,63.4Z" fill="#6bbe66"/><path d="M83.3,63.3h.1l.1.1v.1l-.2.7c0,.1-.1.1-.2.1H83l-.1-.1v-.1l.2-.7C83.1,63.3,83.2,63.3,83.3,63.3Z" fill="#6bbe66"/></g></g><g id="roughgrass_bd-14" data-name="roughgrass_bd" style="isolation:isolate"><g id="RoughGrass_FC-14" data-name="RoughGrass_FC"><path d="M55.5,91.9V92l-.1.1h-.3l-.3-.5v-.1l.1-.1h.3Z" fill="#6bbe66"/><path d="M57.8,91.3h0a1.7265,1.7265,0,0,0-.4-.3c-.1-.2.1-.7.1-.7v-.7A1.6318,1.6318,0,0,1,57.8,91.3Z" fill="#6bbe66"/><path d="M57.8,91.4c.1.1.2.1.2.4h-.3C57.6,91.6,57.7,91.5,57.8,91.4Z" fill="#6bbe66"/><path d="M59.9,90.5l-.5.5a2.1644,2.1644,0,0,0-.3.6v.2a.4829.4829,0,0,1-.4,0,2.18,2.18,0,0,0,.1-.6s0-1.1.5-1.2c0,0,.4-.2.1.1a1.67,1.67,0,0,0-.3.9C59.2,90.9,59.5,90.4,59.9,90.5Z" fill="#6bbe66"/><path d="M61.9,91.5v.1l-.3.4c0,.1-.1.1-.2,0h-.2v-.1l.3-.5c0-.1.1-.1.2,0l.2.1Z" fill="#6bbe66"/><path d="M56.5,91l.2.7v.1l-.1.1h-.1c-.1,0-.1,0-.2-.1l-.2-.7V91l.1-.1h.1C56.4,90.9,56.4,90.9,56.5,91Z" fill="#6bbe66"/><path d="M60.5,90.9h.1l.1.1v.1l-.2.7c0,.1-.1.1-.2.1h-.1l-.1-.1v-.1l.2-.7C60.3,90.9,60.4,90.9,60.5,90.9Z" fill="#6bbe66"/></g></g><g id="boulder_bd-15" data-name="boulder_bd" style="isolation:isolate"><path d="M61.1,87.5a.3491.3491,0,0,0-.1.2.2151.2151,0,0,0,.2.2h2c.3,0,.7-.1,1-.1h.9a2.4828,2.4828,0,0,1,.9.1.5845.5845,0,0,0,.4-.1s-.1-.2-.2-.2a.3491.3491,0,0,1-.2-.1,1.4385,1.4385,0,0,1,.2-.3c.1-.1.1-.3.2-.4a4.3311,4.3311,0,0,0,.1-.5v-.5c0-.1-.1-.3-.1-.4-.1-.1-.2-.2-.2-.3-.1-.1-.2-.2-.3-.2s-.2-.1-.3-.1h-.4a.6012.6012,0,0,0-.4.1c-.1,0-.3.1-.4.1s-.2.1-.3.2a1.4385,1.4385,0,0,0-.3.2,3.0749,3.0749,0,0,0-1.4.8l-.3.3h0a.3491.3491,0,0,1-.2.1c-.1.1-.3.2-.4.3a1.4385,1.4385,0,0,0-.2.3C61.1,87.4,61.1,87.5,61.1,87.5Zm.3-.1h0c0-.1.1-.2.2-.3s.2-.2.3-.2a.0979.0979,0,0,0,.1-.1h0a.3491.3491,0,0,0,.2.1c.1.1.2.1.3.2.1,0,.3.1.4.1h.4a.2151.2151,0,0,0,.2-.2c0-.1-.1-.1-.2-.1H63a.3674.3674,0,0,1-.3-.1c-.1,0-.2-.1-.3-.2-.2-.2.1-.5.3-.6a2.2344,2.2344,0,0,1,1.2-.7c.1,0,.1,0,.1.1s.1.2.1.3a.3161.3161,0,0,0,.5.1c0-.1-.2-.2-.2-.2v-.4l.1-.1a.3491.3491,0,0,1,.2-.1c.1,0,.2-.1.3-.1a.3674.3674,0,0,0,.3-.1c.1-.1.2,0,.3,0s.2.1.3.1a.2151.2151,0,0,1,.2.2l.2.2c0,.1.1.2.1.3V86a.6012.6012,0,0,1-.1.4.7581.7581,0,0,1-.2.4c-.1.1-.1.2-.2.3s-.1.1-.2.1H64.3c-.3,0-.7.1-1,.1H62.2A1.2559,1.2559,0,0,1,61.4,87.4Z" fill="#9a9a90"/></g><g id="roughgrass_bd-15" data-name="roughgrass_bd" style="isolation:isolate"><g id="RoughGrass_FC-15" data-name="RoughGrass_FC"><path d="M51.9,85.7v.1l-.1.1h-.3l-.3-.5v-.1l.1-.1h.3Z" fill="#6bbe66"/><path d="M54.2,85.2h0a1.7265,1.7265,0,0,0-.4-.3c-.1-.2.1-.7.1-.7v-.7A1.432,1.432,0,0,1,54.2,85.2Z" fill="#6bbe66"/><path d="M54.2,85.2c.1.1.2.1.2.4h-.3A.6012.6012,0,0,1,54.2,85.2Z" fill="#6bbe66"/><path d="M56.3,84.3l-.5.5a2.1644,2.1644,0,0,0-.3.6v.2a.4829.4829,0,0,1-.4,0,2.18,2.18,0,0,0,.1-.6s0-1.1.5-1.2c0,0,.4-.2.1.1a1.67,1.67,0,0,0-.3.9C55.6,84.7,55.9,84.3,56.3,84.3Z" fill="#6bbe66"/><path d="M58.3,85.4v.1l-.3.4c0,.1-.1.1-.2,0h-.1l-.1-.1v-.1l.3-.5c0-.1.1-.1.2,0l.2.2Z" fill="#6bbe66"/><path d="M52.9,84.8l.2.7v.1l-.1.2h-.1c-.1,0-.1,0-.2-.1l-.2-.7v-.1l.1-.1h.1A.1385.1385,0,0,1,52.9,84.8Z" fill="#6bbe66"/><path d="M56.9,84.8H57l.1.1V85l-.2.7c0,.1-.1.1-.2.1h-.1l-.1-.1v-.1l.2-.7C56.8,84.8,56.8,84.7,56.9,84.8Z" fill="#6bbe66"/></g></g><g id="roughgrass_bd-16" data-name="roughgrass_bd" style="isolation:isolate"><g id="RoughGrass_FC-16" data-name="RoughGrass_FC"><path d="M7.3,94.7v.1l-.1.1H6.9l-.3-.5v-.1l.1-.1H7Z" fill="#6bbe66"/><path d="M9.7,94.2h0a1.7265,1.7265,0,0,0-.4-.3c-.1-.2.1-.7.1-.7v-.7A1.65,1.65,0,0,1,9.7,94.2Z" fill="#6bbe66"/><path d="M9.7,94.2c.1.1.2.1.2.4H9.6C9.5,94.5,9.6,94.4,9.7,94.2Z" fill="#6bbe66"/><path d="M11.8,93.3l-.5.5a2.1644,2.1644,0,0,0-.3.6v.2a.4829.4829,0,0,1-.4,0,2.18,2.18,0,0,0,.1-.6s0-1.1.5-1.2c0,0,.4-.2.1.1a1.67,1.67,0,0,0-.3.9A1.0092,1.0092,0,0,1,11.8,93.3Z" fill="#6bbe66"/><path d="M13.8,94.4v.1l-.3.4c0,.1-.1.1-.2,0h-.1l-.1-.1v-.1l.3-.5c0-.1.1-.1.2,0l.2.2Z" fill="#6bbe66"/><path d="M8.4,93.9l.2.7v.1l-.1.1H8.4c-.1,0-.1,0-.2-.1L8,94v-.1l.1-.1h.1C8.3,93.7,8.3,93.8,8.4,93.9Z" fill="#6bbe66"/><path d="M12.3,93.8h.1l.1.1V94l-.2.7c0,.1-.1.1-.2.1H12v-.2l.2-.7C12.2,93.8,12.3,93.7,12.3,93.8Z" fill="#6bbe66"/></g></g><g id="boulder_bd-16" data-name="boulder_bd" style="isolation:isolate"><path d="M13,90.3a.3491.3491,0,0,0-.1.2.2151.2151,0,0,0,.2.2h2c.3,0,.7-.1,1-.1H17a2.4828,2.4828,0,0,1,.9.1.5845.5845,0,0,0,.4-.1.2151.2151,0,0,0-.2-.2.3491.3491,0,0,1-.2-.1,1.4385,1.4385,0,0,1,.2-.3c.1-.1.1-.3.2-.4a4.3311,4.3311,0,0,0,.1-.5v-.5c0-.1-.1-.3-.1-.4-.1-.1-.2-.2-.2-.3-.1-.1-.2-.2-.3-.2s-.2-.1-.3-.1h-.4a.6012.6012,0,0,0-.4.1c-.1,0-.3.1-.4.1s-.2.1-.3.2a1.4385,1.4385,0,0,0-.3.2,3.0749,3.0749,0,0,0-1.4.8l-.3.3h0a.3491.3491,0,0,1-.2.1c-.1.1-.3.2-.4.3-.3.3-.4.4-.4.5Zm.3,0h0c0-.1.1-.2.2-.3s.2-.2.3-.2a.0979.0979,0,0,0,.1-.1h0a.3491.3491,0,0,0,.2.1c.1.1.2.1.3.2.1,0,.3.1.4.1h.4a.2151.2151,0,0,0,.2-.2c0-.1-.1-.1-.2-.1h-.3a.3674.3674,0,0,1-.3-.1c-.1,0-.2-.1-.3-.2-.2-.2.1-.5.3-.6a2.2344,2.2344,0,0,1,1.2-.7c.1,0,.1,0,.1.1s.1.2.1.3.3.3.4.1c0-.1-.2-.2-.2-.2v-.4l.1-.1a.3491.3491,0,0,1,.2-.1c.1,0,.2-.1.3-.1a.3674.3674,0,0,0,.3-.1h.3c.1,0,.2.1.3.1a.2151.2151,0,0,1,.2.2l.2.2c0,.1.1.2.1.3v.4a.6012.6012,0,0,1-.1.4.7581.7581,0,0,1-.2.4c-.1.1-.1.2-.2.3s-.1.1-.2.1H16.1c-.3,0-.7.1-1,.1H14A3.1967,3.1967,0,0,1,13.3,90.3Z" fill="#9a9a90"/></g><g id="roughgrass_bd-17" data-name="roughgrass_bd" style="isolation:isolate"><g id="RoughGrass_FC-17" data-name="RoughGrass_FC"><path d="M3.8,88.6v.1l-.1.1H3.4l-.3-.5v-.1l.1-.1h.3Z" fill="#6bbe66"/><path d="M6.1,88.1h0a1.7265,1.7265,0,0,0-.4-.3c-.1-.2.1-.7.1-.7v-.7A1.432,1.432,0,0,1,6.1,88.1Z" fill="#6bbe66"/><path d="M6.1,88.1c.1.1.2.1.2.4H6C6,88.3,6,88.2,6.1,88.1Z" fill="#6bbe66"/><path d="M8.2,87.2l-.5.5a2.1644,2.1644,0,0,0-.3.6v.2a.4829.4829,0,0,1-.4,0,2.18,2.18,0,0,0,.1-.6s0-1.1.5-1.2c0,0,.4-.2.1.1a1.67,1.67,0,0,0-.3.9C7.5,87.6,7.8,87.2,8.2,87.2Z" fill="#6bbe66"/><path d="M10.2,88.2v.1l-.3.4c0,.1-.1.1-.2,0H9.6l-.1-.1v-.1l.3-.5c0-.1.1-.1.2,0l.2.2Z" fill="#6bbe66"/><path d="M4.8,87.7l.2.7v.1l-.1.1H4.8c-.1,0-.1,0-.2-.1l-.2-.7v-.1l.1-.1h.1C4.7,87.6,4.8,87.6,4.8,87.7Z" fill="#6bbe66"/><path d="M8.8,87.6h.1l.1.1v.1l-.2.7c0,.1-.1.1-.2.1H8.5l-.1-.1v-.1l.2-.7C8.6,87.6,8.7,87.6,8.8,87.6Z" fill="#6bbe66"/></g></g></svg>