<svg id="Layer_1" data-name="Layer 1" xmlns="http://www.w3.org/2000/svg" width="33.8667mm" height="33.8667mm" viewBox="0 0 96 96"><g id="heath_bd"><g id="Heath_FC"><path d="M11.8,79.5c-.1,0-.1,0-.1-.1l-.4-.7v-.1a.0979.0979,0,0,1,.1-.1l.1-.1h.1l.1.1.4.7v.1l-.1.1-.2.1Z" fill="#a9cda6"/><path d="M13.3,79.2c-.1,0-.1,0-.2-.1l-.4-1.3c0-.1,0-.2.1-.2l.1-.1H13l.1.1.4,1.3V79l-.1.1c0,.1,0,.1-.1.1Z" fill="#a9cda6"/><path d="M14.9,76.9l.2,1.8v.1l-.2.2h-.2a.2151.2151,0,0,1-.2-.2L14.3,77l.1-.1.2-.1h.1C14.8,76.8,14.8,76.8,14.9,76.9Z" fill="#a9cda6"/><path d="M16.1,79.2H16l-.1-.1V79l.4-1.3.1-.1h.3l.1.1c.1,0,.1.1.1.2l-.4,1.3c-.2-.1-.2,0-.4,0Z" fill="#a9cda6"/><path d="M17.7,79.5h0l-.2-.1-.1-.1v-.1l.4-.7.1-.1H18l.1.1c.1,0,.1.1.1.2l-.4.7Z" fill="#a9cda6"/></g></g><g id="scrub_bd"><g id="Scrub_FC"><g id="Deleted_Symbol_1" data-name="Deleted Symbol 1"><path d="M17,75.5c-.1,0-.1,0-.1-.1l-.3-1c0-.1,0-.1.1-.2l.2-.1H17a.0979.0979,0,0,1,.1.1l.3,1c0,.1,0,.1-.1.2-.2.1-.2.1-.3.1Z" fill="#a9cda6"/><path d="M18.9,75.3a.0979.0979,0,0,1-.1-.1v-1c0-.1,0-.1-.1-.1h-.1a.31.31,0,0,0-.2.1h-.1c-.1,0-.1,0-.1-.1l-.2-.3v-.2a1.69,1.69,0,0,1,.5-.2.52.52,0,0,1,.4.2.6012.6012,0,0,1,.1.4v1a.0979.0979,0,0,1-.1.1h0Z" fill="#a9cda6"/><path d="M23.2,75.4H23c-.1,0-.1-.1-.1-.2l.3-1a.0979.0979,0,0,1,.1-.1h.3c.1,0,.1.1.1.2l-.3,1c-.1.1-.1.1-.2.1Z" fill="#a9cda6"/><path d="M21,75.2a.3674.3674,0,0,1-.3-.1,16.7048,16.7048,0,0,0-.7-2.4.31.31,0,0,1-.1-.2c.1,0,.2.1.3.1,0,0,.4.2.6,1.2l.1.2c0-.1.1-2.1.8-2.4a.3491.3491,0,0,0,.2-.1.31.31,0,0,1-.1.2,4.6025,4.6025,0,0,0-.5,1.6v.2a1.3807,1.3807,0,0,1,.9-.7h.1s0,.1-.2.2a6.5246,6.5246,0,0,0-.9,1.6v.5A.3491.3491,0,0,1,21,75.2Z" fill="#a9cda6"/></g></g></g><g id="scrub_bd-2" data-name="scrub_bd" style="isolation:isolate"><g id="Scrub_FC-2" data-name="Scrub_FC"><g id="Deleted_Symbol_1-2" data-name="Deleted Symbol 1"><path d="M8.1,74a.0979.0979,0,0,1-.1-.1l-.3-1c0-.1,0-.1.1-.2l.2-.1h.1a.0979.0979,0,0,1,.1.1l.3,1c0,.1,0,.1-.1.2a.438.438,0,0,0-.3.1Z" fill="#a9cda6"/><path d="M9.9,73.7a.0979.0979,0,0,1-.1-.1v-1c0-.1,0-.1-.1-.1H9.6a.31.31,0,0,0-.2.1H9.3c-.1,0-.1,0-.1-.1l-.1-.1v-.2a1.69,1.69,0,0,1,.5-.2.52.52,0,0,1,.4.2.6012.6012,0,0,1,.1.4v1a.0979.0979,0,0,1-.1.1Z" fill="#a9cda6"/><path d="M14.3,73.8h-.2c-.1,0-.1-.1-.1-.2l.3-1a.0979.0979,0,0,1,.1-.1h.3c.1,0,.1.1.1.2l-.3,1a.31.31,0,0,1-.2.1Z" fill="#a9cda6"/><path d="M12,73.6a.3674.3674,0,0,1-.3-.1,16.7048,16.7048,0,0,0-.7-2.4v-.2c.1,0,.2.1.3.1,0,0,.4.2.6,1.2l.1.2c0-.1.1-2.1.8-2.4a.3491.3491,0,0,0,.2-.1.31.31,0,0,1-.1.2,4.6025,4.6025,0,0,0-.5,1.6V72a1.3807,1.3807,0,0,1,.9-.7h.1s0,.1-.2.2a6.5246,6.5246,0,0,0-.9,1.6v.5Z" fill="#a9cda6"/></g></g></g><g id="heath_bd-2" data-name="heath_bd" style="isolation:isolate"><g id="Heath_FC-2" data-name="Heath_FC"><path d="M48.5,68.8c-.1,0-.1,0-.1-.1L48,68v-.1a.0979.0979,0,0,1,.1-.1l.1-.1h.1l.1.1.4.7v.1l-.1.1-.2.1Z" fill="#a9cda6"/><path d="M50,68.5c-.1,0-.1,0-.2-.1l-.4-1.3c0-.1,0-.2.1-.2l.1-.1h.1l.1.1.4,1.3v.1l-.1.1c0,.1,0,.1-.1.1Z" fill="#a9cda6"/><path d="M51.6,66.3l.2,1.8v.1l-.1.1h-.2a.2151.2151,0,0,1-.2-.2L51,66.3l.1-.1.2-.1h.1A.2151.2151,0,0,1,51.6,66.3Z" fill="#a9cda6"/><path d="M52.9,68.5h-.1l-.1-.1v-.1l.4-1.3.1-.1h.2l.1.1c.1,0,.1.1.1.2l-.4,1.3Z" fill="#a9cda6"/><path d="M54.4,68.8h0l-.2-.1-.1-.1v-.1l.4-.7.1-.1h.1l.1.1c.1,0,.1.1.1.2l-.4.7A.0979.0979,0,0,1,54.4,68.8Z" fill="#a9cda6"/></g></g><g id="scrub_bd-3" data-name="scrub_bd" style="isolation:isolate"><g id="Scrub_FC-3" data-name="Scrub_FC"><g id="Deleted_Symbol_1-3" data-name="Deleted Symbol 1"><path d="M53.7,64.9c-.1,0-.1,0-.1-.1l-.3-1c0-.1,0-.1.1-.2l.2-.1h.1a.0979.0979,0,0,1,.1.1l.3,1c0,.1,0,.1-.1.2-.2,0-.2,0-.3.1Z" fill="#a9cda6"/><path d="M55.6,64.6a.0979.0979,0,0,1-.1-.1V63.4h-.1a.31.31,0,0,0-.2.1h-.1c-.1,0-.1,0-.1-.1l-.1-.1v-.2a1.69,1.69,0,0,1,.5-.2.52.52,0,0,1,.4.2.6012.6012,0,0,1,.1.4v1a.0979.0979,0,0,1-.1.1Z" fill="#a9cda6"/><path d="M59.9,64.7h-.2c-.1,0-.1-.1-.1-.2l.3-1a.0979.0979,0,0,1,.1-.1h.3c.1,0,.1.1.1.2l-.3,1c-.1.1-.1.1-.2.1Z" fill="#a9cda6"/><path d="M57.7,64.5a.3674.3674,0,0,1-.3-.1,16.7048,16.7048,0,0,0-.7-2.4.3491.3491,0,0,0-.1-.2c.1,0,.2.1.3.1,0,0,.4.2.6,1.2l.1.2c0-.1.1-2.1.8-2.4a.3491.3491,0,0,0,.2-.1.31.31,0,0,1-.1.2,4.6025,4.6025,0,0,0-.5,1.6v.2a1.3807,1.3807,0,0,1,.9-.7H59s0,.1-.2.2a6.5246,6.5246,0,0,0-.9,1.6v.5C57.9,64.5,57.8,64.5,57.7,64.5Z" fill="#a9cda6"/></g></g></g><g id="scrub_bd-4" data-name="scrub_bd" style="isolation:isolate"><g id="Scrub_FC-4" data-name="Scrub_FC"><g id="Deleted_Symbol_1-4" data-name="Deleted Symbol 1"><path d="M44.8,63.3c-.1,0-.1,0-.1-.1l-.3-1c0-.1,0-.1.1-.2l.2-.1h.1a.0979.0979,0,0,1,.1.1l.3,1c0,.1,0,.1-.1.2a.774.774,0,0,1-.3.1Z" fill="#a9cda6"/><path d="M46.6,63.1a.0979.0979,0,0,1-.1-.1V62c0-.1,0-.1-.1-.1h-.1a.31.31,0,0,0-.2.1H46c-.1,0-.1,0-.1-.1l-.1-.1v-.2a1.69,1.69,0,0,1,.5-.2.52.52,0,0,1,.4.2.6012.6012,0,0,1,.1.4v1a.0979.0979,0,0,1-.1.1Z" fill="#a9cda6"/><path d="M51,63.2h-.2c-.1,0-.1-.1-.1-.2l.3-1a.0979.0979,0,0,1,.1-.1h.3c.1,0,.1.1.1.2l-.3,1a.31.31,0,0,1-.2.1Z" fill="#a9cda6"/><path d="M48.7,63a.3674.3674,0,0,1-.3-.1,16.7048,16.7048,0,0,0-.7-2.4.31.31,0,0,1-.1-.2c.1,0,.2.1.3.1,0,0,.4.2.6,1.2l.1.2c0-.1.1-2.1.8-2.4a.3491.3491,0,0,0,.2-.1.31.31,0,0,1-.1.2,4.6025,4.6025,0,0,0-.5,1.6v.2a1.3807,1.3807,0,0,1,.9-.7H50s0,.1-.2.2a6.5246,6.5246,0,0,0-.9,1.6v.5S48.9,63,48.7,63Z" fill="#a9cda6"/></g></g></g><g id="heath_bd-3" data-name="heath_bd" style="isolation:isolate"><g id="Heath_FC-3" data-name="Heath_FC"><path d="M7.3,51.3c-.1,0-.1,0-.1-.1l-.4-.7v-.1a.0979.0979,0,0,1,.1-.1h.2l.1.1.4.6v.1l-.1.1-.2.1Z" fill="#a9cda6"/><path d="M8.8,51c-.1,0-.1,0-.2-.1l-.4-1.3c0-.1,0-.2.1-.2l.1-.1h.1l.1.1L9,50.7V51Z" fill="#a9cda6"/><path d="M10.4,48.8l.2,1.8v.1l-.1.1h-.2a.2151.2151,0,0,1-.2-.2l-.2-1.9.1-.1.2-.1h.1C10.3,48.6,10.4,48.7,10.4,48.8Z" fill="#a9cda6"/><path d="M11.7,51h-.1l-.1-.1v-.1l.4-1.3.1-.1h.3l.1.1c.1,0,.1.1.1.2L12.1,51Z" fill="#a9cda6"/><path d="M13.2,51.3h0l-.2-.1V51l.4-.7.1-.1h.1l.1.1c.1,0,.1.1.1.2l-.4.7C13.3,51.3,13.3,51.3,13.2,51.3Z" fill="#a9cda6"/></g></g><g id="scrub_bd-5" data-name="scrub_bd" style="isolation:isolate"><g id="Scrub_FC-5" data-name="Scrub_FC"><g id="Deleted_Symbol_1-5" data-name="Deleted Symbol 1"><path d="M12.6,47.3c-.1,0-.1,0-.1-.1l-.3-1c0-.1,0-.1.1-.2l.2-.1h.1a.0979.0979,0,0,1,.1.1l.3,1c0,.1,0,.1-.1.2a.774.774,0,0,1-.3.1Z" fill="#a9cda6"/><path d="M14.4,47.1a.0979.0979,0,0,1-.1-.1V46c0-.1,0-.1-.1-.1h-.1a.31.31,0,0,0-.2.1h-.1c-.1,0-.1,0-.1-.1l-.1-.1v-.2a1.69,1.69,0,0,1,.5-.2.52.52,0,0,1,.4.2.6012.6012,0,0,1,.1.4v1a.0979.0979,0,0,1-.1.1Z" fill="#a9cda6"/><path d="M18.7,47.2h-.2c-.1,0-.1-.1-.1-.2l.3-1a.0979.0979,0,0,1,.1-.1h.3c.1,0,.1.1.1.2l-.3,1c0,.1-.1.1-.2.1Z" fill="#a9cda6"/><path d="M16.5,47a.3674.3674,0,0,1-.3-.1,16.7048,16.7048,0,0,0-.7-2.4.31.31,0,0,1-.1-.2c.1,0,.2.1.3.1,0,0,.4.2.6,1.2l.1.2c0-.1.1-2.1.8-2.4a.3491.3491,0,0,0,.2-.1.31.31,0,0,1-.1.2,4.6025,4.6025,0,0,0-.5,1.6v.2a1.3807,1.3807,0,0,1,.9-.7h.1s0,.1-.2.2a6.5246,6.5246,0,0,0-.9,1.6v.5A.3491.3491,0,0,1,16.5,47Z" fill="#a9cda6"/></g></g></g><g id="heath_bd-4" data-name="heath_bd" style="isolation:isolate"><g id="Heath_FC-4" data-name="Heath_FC"><path d="M3.8,45.2c-.1,0-.1,0-.1-.1l-.4-.7v-.1a.0979.0979,0,0,1,.1-.1l.1-.1h.1l.1.1.3.7v.2l-.2.1Z" fill="#a9cda6"/><path d="M5.3,44.9c-.1,0-.1,0-.2-.1l-.4-1.3c0-.1,0-.2.1-.2l.1-.1H5l.1.1.4,1.3v.1l-.1.1a.0979.0979,0,0,1-.1.1Z" fill="#a9cda6"/><path d="M6.9,42.6l.2,1.8v.1l-.1.1H6.8a.2151.2151,0,0,1-.2-.2l-.2-1.9.1-.1.2-.1h.1C6.8,42.5,6.8,42.5,6.9,42.6Z" fill="#a9cda6"/><path d="M8.1,44.9H8l-.1-.1v-.1l.4-1.3.1-.1h.3l.1.1c.1,0,.1.1.1.2l-.4,1.3c-.2-.1-.2,0-.4,0Z" fill="#a9cda6"/><path d="M9.7,45.2h0l-.2-.1L9.4,45v-.1l.4-.7.1-.1H10l.1.1c.1,0,.1.1.1.2l-.4.7Z" fill="#a9cda6"/></g></g><g id="heath_bd-5" data-name="heath_bd" style="isolation:isolate"><g id="Heath_FC-5" data-name="Heath_FC"><path d="M16.2,30.3c-.1,0-.1,0-.1-.1l-.4-.7v-.1a.0979.0979,0,0,1,.1-.1l.1-.1H16l.1.1.4.7v.1l-.1.1-.2.1Z" fill="#a9cda6"/><path d="M17.7,30c-.1,0-.1,0-.2-.1l-.4-1.3c0-.1,0-.2.1-.2l.1-.1h.1l.1.1.4,1.3v.1l-.1.1c0,.1,0,.1-.1.1Z" fill="#a9cda6"/><path d="M19.3,27.8l.2,1.8v.1l-.1.1h-.2a.2151.2151,0,0,1-.2-.2l-.2-1.9.1-.1.2-.1h.1C19.2,27.6,19.3,27.7,19.3,27.8Z" fill="#a9cda6"/><path d="M20.6,30h-.1l-.1-.1v-.1l.4-1.3.1-.1h.3l.1.1c.1,0,.1.1.1.2L21,30c-.3-.1-.3,0-.4,0Z" fill="#a9cda6"/><path d="M22.1,30.3h0l-.2-.1-.1-.1V30l.4-.7.1-.1h.1l.1.1c.1,0,.1.1.1.2l-.4.7Z" fill="#a9cda6"/></g></g><g id="scrub_bd-6" data-name="scrub_bd" style="isolation:isolate"><g id="Scrub_FC-6" data-name="Scrub_FC"><g id="Deleted_Symbol_1-6" data-name="Deleted Symbol 1"><path d="M21.4,26.3c-.1,0-.1,0-.1-.1l-.3-1c0-.1,0-.1.1-.2l.2-.1h.1a.0979.0979,0,0,1,.1.1l.3,1c0,.1,0,.1-.1.2-.2.1-.2.1-.3.1Z" fill="#a9cda6"/><path d="M23.3,26.1a.0979.0979,0,0,1-.1-.1V25c0-.1,0-.1-.1-.1H23a.31.31,0,0,0-.2.1h-.1c-.1,0-.1,0-.1-.1l-.1-.1v-.2a1.69,1.69,0,0,1,.5-.2.52.52,0,0,1,.4.2.6012.6012,0,0,1,.1.4v1a.0979.0979,0,0,1-.1.1Z" fill="#a9cda6"/><path d="M27.6,26.2h-.2c-.1,0-.1-.1-.1-.2l.3-1a.0979.0979,0,0,1,.1-.1H28c.1,0,.1.1.1.2l-.3,1c-.1.1-.1.1-.2.1Z" fill="#a9cda6"/><path d="M25.4,26a.3674.3674,0,0,1-.3-.1,16.7048,16.7048,0,0,0-.7-2.4.31.31,0,0,1-.1-.2c.1,0,.2.1.3.1,0,0,.4.2.6,1.2l.1.2c0-.1.1-2.1.8-2.4a.3491.3491,0,0,0,.2-.1.31.31,0,0,1-.1.2,4.6025,4.6025,0,0,0-.5,1.6v.2a1.3807,1.3807,0,0,1,.9-.7h.1s0,.1-.2.2a6.5246,6.5246,0,0,0-.9,1.6v.5A.3491.3491,0,0,1,25.4,26Z" fill="#a9cda6"/></g></g></g><g id="scrub_bd-7" data-name="scrub_bd" style="isolation:isolate"><g id="Scrub_FC-7" data-name="Scrub_FC"><g id="Deleted_Symbol_1-7" data-name="Deleted Symbol 1"><path d="M12.5,24.8c-.1,0-.1,0-.1-.1l-.3-1c0-.1,0-.1.1-.2l.2-.1h.1a.0979.0979,0,0,1,.1.1l.3,1c0,.1,0,.1-.1.2a.438.438,0,0,0-.3.1Z" fill="#a9cda6"/><path d="M14.3,24.5a.0979.0979,0,0,1-.1-.1v-1c0-.1,0-.1-.1-.1H14a.31.31,0,0,0-.2.1h-.1c-.1,0-.1,0-.1-.1l-.1-.1V23a1.69,1.69,0,0,1,.5-.2.52.52,0,0,1,.4.2.6012.6012,0,0,1,.1.4v1a.0979.0979,0,0,1-.1.1Z" fill="#a9cda6"/><path d="M18.7,24.7h-.2c-.1,0-.1-.1-.1-.2l.3-1a.0979.0979,0,0,1,.1-.1h.3c.1,0,.1.1.1.2l-.3,1c-.1,0-.1.1-.2.1Z" fill="#a9cda6"/><path d="M16.5,24.4a.3674.3674,0,0,1-.3-.1,16.7048,16.7048,0,0,0-.7-2.4.31.31,0,0,1-.1-.2c.1,0,.2.1.3.1,0,0,.4.2.6,1.2l.1.2c0-.1.1-2.1.8-2.4a.3491.3491,0,0,0,.2-.1.31.31,0,0,1-.1.2,4.6025,4.6025,0,0,0-.5,1.6v.2a1.3807,1.3807,0,0,1,.9-.7h.1s0,.1-.2.2a6.5246,6.5246,0,0,0-.9,1.6v.5C16.7,24.4,16.6,24.4,16.5,24.4Z" fill="#a9cda6"/></g></g></g><g id="heath_bd-6" data-name="heath_bd" style="isolation:isolate"><g id="Heath_FC-6" data-name="Heath_FC"><path d="M47,10.5c-.1,0-.1,0-.1-.1l-.4-.7V9.6a.0979.0979,0,0,1,.1-.1l.1-.1h.1l.1.1.4.7v.1l-.1.1-.2.1Z" fill="#a9cda6"/><path d="M48.5,10.2c-.1,0-.1,0-.2-.1l-.4-1.3c0-.1,0-.2.1-.2l.1-.1h.1l.1.1.4,1.3V10l-.1.1c.1.1,0,.1-.1.1Z" fill="#a9cda6"/><path d="M50.1,8l.2,1.8v.1l-.1.1H50a.2151.2151,0,0,1-.2-.2L49.6,8l.1-.1.2-.1H50A.3491.3491,0,0,1,50.1,8Z" fill="#a9cda6"/><path d="M51.4,10.2h-.1l-.1-.1V10l.4-1.3.1-.1H52c.1,0,.1.1.1.2l-.4,1.3a.3674.3674,0,0,1-.3.1Z" fill="#a9cda6"/><path d="M52.9,10.5h0l-.2-.1-.1-.1v-.1l.4-.7.1-.1h.1l.1.1c.1,0,.1.1.1.2l-.4.7C53.1,10.5,53,10.5,52.9,10.5Z" fill="#a9cda6"/></g></g><g id="scrub_bd-8" data-name="scrub_bd" style="isolation:isolate"><g id="Scrub_FC-8" data-name="Scrub_FC"><g id="Deleted_Symbol_1-8" data-name="Deleted Symbol 1"><path d="M52.3,6.6c-.1,0-.1,0-.1-.1l-.3-1c0-.1,0-.1.1-.2l.2-.1h.1a.0979.0979,0,0,1,.1.1l.3,1c0,.1,0,.1-.1.2-.2,0-.3,0-.3.1Z" fill="#a9cda6"/><path d="M54.1,6.3a.0979.0979,0,0,1-.1-.1V5.1h-.1a.31.31,0,0,0-.2.1h-.1c-.1,0-.1,0-.1-.1L53.4,5V4.8a1.69,1.69,0,0,1,.5-.2.52.52,0,0,1,.4.2.6012.6012,0,0,1,.1.4v1a.0979.0979,0,0,1-.1.1Z" fill="#a9cda6"/><path d="M58.5,6.4h-.2c-.1,0-.1-.1-.1-.2l.3-1a.0979.0979,0,0,1,.1-.1h.3c.1,0,.1.1.1.2l-.3,1a.31.31,0,0,1-.2.1Z" fill="#a9cda6"/><path d="M56.2,6.2a.3674.3674,0,0,1-.3-.1,16.7048,16.7048,0,0,0-.7-2.4.3491.3491,0,0,0-.1-.2c.1,0,.2.1.3.1,0,0,.4.2.6,1.2l.1.2c0-.1.1-2.1.8-2.4a.3491.3491,0,0,0,.2-.1.31.31,0,0,1-.1.2,4.6025,4.6025,0,0,0-.5,1.6v.2a1.3807,1.3807,0,0,1,.9-.7h.1s0,.1-.2.2a6.5246,6.5246,0,0,0-.9,1.6v.5C56.4,6.2,56.4,6.2,56.2,6.2Z" fill="#a9cda6"/></g></g></g><g id="scrub_bd-9" data-name="scrub_bd" style="isolation:isolate"><g id="Scrub_FC-9" data-name="Scrub_FC"><g id="Deleted_Symbol_1-9" data-name="Deleted Symbol 1"><path d="M43.3,5c-.1,0-.1,0-.1-.1l-.3-1c0-.1,0-.1.1-.2l.2-.1h.1a.0979.0979,0,0,1,.1.1l.3,1c0,.1,0,.1-.1.2a.3674.3674,0,0,1-.3.1Z" fill="#a9cda6"/><path d="M45.2,4.8a.0979.0979,0,0,1-.1-.1v-1c0-.1,0-.1-.1-.1h-.1a.31.31,0,0,0-.2.1h-.1c-.1,0-.1,0-.1-.1l-.1-.1V3.3c.2-.3.3-.3.5-.3a.52.52,0,0,1,.4.2.6012.6012,0,0,1,.1.4v1a.0979.0979,0,0,1-.1.1h-.1Z" fill="#a9cda6"/><path d="M49.5,4.9h-.2c-.1,0-.1-.1-.1-.2l.3-1a.0979.0979,0,0,1,.1-.1h.3a.31.31,0,0,1,.1.2l-.3,1c0,.1-.1.1-.2.1Z" fill="#a9cda6"/><path d="M47.3,4.7a.3674.3674,0,0,1-.3-.1,16.7048,16.7048,0,0,0-.7-2.4.31.31,0,0,1-.1-.2c.1,0,.2.1.3.1,0,0,.4.2.6,1.2l.1.2c0-.1.1-2.1.8-2.4a.3491.3491,0,0,0,.2-.1.31.31,0,0,1-.1.2,4.6025,4.6025,0,0,0-.5,1.6V3a1.3807,1.3807,0,0,1,.9-.7h.1s0,.1-.2.2a6.5246,6.5246,0,0,0-.9,1.6v.5A.3491.3491,0,0,1,47.3,4.7Z" fill="#a9cda6"/></g></g></g><g id="heath_bd-7" data-name="heath_bd" style="isolation:isolate"><g id="Heath_FC-7" data-name="Heath_FC"><path d="M69.6,26.8c-.1,0-.1,0-.1-.1l-.4-.7v-.1a.0979.0979,0,0,1,.1-.1l.1-.1h.1l.1.1.4.7v.1l-.1.1-.2.1Z" fill="#a9cda6"/><path d="M71.1,26.5c-.1,0-.1,0-.2-.1L70.5,25c0-.1,0-.2.1-.2l.1-.1h.1l.1.1.4,1.3v.1l-.1.1c0,.2,0,.2-.1.2Z" fill="#a9cda6"/><path d="M72.7,24.2l.2,1.8v.1l-.1.1h-.2a.2151.2151,0,0,1-.2-.2l-.2-1.9.1-.1.2-.1h.1C72.6,24.1,72.7,24.1,72.7,24.2Z" fill="#a9cda6"/><path d="M74,26.5h-.1l-.1-.1v-.1l.4-1.3.1-.1h.2l.1.1c.1,0,.1.1.1.2l-.4,1.3c-.1-.1-.2,0-.3,0Z" fill="#a9cda6"/><path d="M75.5,26.8h0l-.2-.1-.1-.1v-.1l.4-.7.1-.1h.1l.1.1c.1,0,.1.1.1.2l-.4.7A.0979.0979,0,0,1,75.5,26.8Z" fill="#a9cda6"/></g></g><g id="scrub_bd-10" data-name="scrub_bd" style="isolation:isolate"><g id="Scrub_FC-10" data-name="Scrub_FC"><g id="Deleted_Symbol_1-10" data-name="Deleted Symbol 1"><path d="M74.9,22.8c-.1,0-.1,0-.1-.1l-.3-1c0-.1,0-.1.1-.2l.2-.1h.1a.0979.0979,0,0,1,.1.1l.3,1c0,.1,0,.1-.1.2a.774.774,0,0,1-.3.1Z" fill="#a9cda6"/><path d="M76.7,22.6a.0979.0979,0,0,1-.1-.1V21.4h-.1a.31.31,0,0,0-.2.1h-.1c-.1,0-.1,0-.1-.1l-.1-.1v-.2a1.69,1.69,0,0,1,.5-.2.52.52,0,0,1,.4.2.6012.6012,0,0,1,.1.4v1a.0979.0979,0,0,1-.1.1Z" fill="#a9cda6"/><path d="M81,22.7h-.2c-.1,0-.1-.1-.1-.2l.3-1a.0979.0979,0,0,1,.1-.1h.3c.1,0,.1.1.1.2l-.3,1c0,.1-.1.1-.2.1Z" fill="#a9cda6"/><path d="M78.8,22.5a.3674.3674,0,0,1-.3-.1,16.7048,16.7048,0,0,0-.7-2.4.3491.3491,0,0,0-.1-.2c.1,0,.2.1.3.1,0,0,.4.2.6,1.2l.1.2c0-.1.1-2.1.8-2.4a.3491.3491,0,0,0,.2-.1.31.31,0,0,1-.1.2,4.6025,4.6025,0,0,0-.5,1.6v.2a1.3807,1.3807,0,0,1,.9-.7h.1s0,.1-.2.2a6.5246,6.5246,0,0,0-.9,1.6v.5A.3491.3491,0,0,1,78.8,22.5Z" fill="#a9cda6"/></g></g></g><g id="heath_bd-8" data-name="heath_bd" style="isolation:isolate"><g id="Heath_FC-8" data-name="Heath_FC"><path d="M66.1,20.6c-.1,0-.1,0-.1-.1l-.4-.7v-.1a.0979.0979,0,0,1,.1-.1l.1-.1h.1l.1.1.4.7v.1l-.1.1-.2.1Z" fill="#a9cda6"/><path d="M67.6,20.4c-.1,0-.1,0-.2-.1L67,18.9c0-.1,0-.2.1-.2l.1-.1h.1l.1.1.4,1.3v.1l-.1.1c0,.1-.1.1-.1.2Z" fill="#a9cda6"/><path d="M69.2,18.1l.2,1.8V20l-.1.1h-.2a.2151.2151,0,0,1-.2-.2L68.7,18l.1-.1.2-.1h.1C69.1,18,69.1,18,69.2,18.1Z" fill="#a9cda6"/><path d="M70.4,20.4h-.1l-.1-.1v-.1l.4-1.3.1-.1h.2l.1.1c.1,0,.1.1.1.2l-.4,1.3c-.1-.1-.1,0-.3,0Z" fill="#a9cda6"/><path d="M72,20.6h0l-.2-.1-.1-.1v-.1l.4-.7.1-.1h.1l.1.1c.1,0,.1.1.1.2l-.4.7A.0979.0979,0,0,1,72,20.6Z" fill="#a9cda6"/></g></g><g id="heath_bd-9" data-name="heath_bd" style="isolation:isolate"><g id="Heath_FC-9" data-name="Heath_FC"><path d="M80.7,9.8c-.1,0-.1,0-.1-.1L80.2,9V8.9a.0979.0979,0,0,1,.1-.1l.1-.1h.1l.1.1.4.8v.1l-.1.1Z" fill="#a9cda6"/><path d="M82.2,9.6c-.1,0-.1,0-.2-.1l-.4-1.3c0-.1,0-.2.1-.2l.1-.1h.1l.2.1.4,1.3v.1l-.1.1a.31.31,0,0,0-.2.1Z" fill="#a9cda6"/><path d="M83.8,7.3,84,9.2v.1l-.1.1h-.2a.2151.2151,0,0,1-.2-.2l-.2-1.9.1-.1.2-.1h.1C83.8,7.2,83.8,7.2,83.8,7.3Z" fill="#a9cda6"/><path d="M85.1,9.6H85l-.1-.1V9.4l.4-1.3.1-.1h.2l.1.1c.1,0,.1.1.1.2l-.4,1.3c-.1-.1-.2,0-.3,0Z" fill="#a9cda6"/><path d="M86.7,9.8h0l-.2-.1-.1-.1V9.5l.4-.7.1-.1H87l.1.1c.1,0,.1.1.1.2l-.4.7A.0979.0979,0,0,1,86.7,9.8Z" fill="#a9cda6"/></g></g><g id="scrub_bd-11" data-name="scrub_bd" style="isolation:isolate"><g id="Scrub_FC-11" data-name="Scrub_FC"><g id="Deleted_Symbol_1-11" data-name="Deleted Symbol 1"><path d="M86,5.9c-.1,0-.1,0-.1-.1l-.3-1c0-.1,0-.1.1-.2l.2-.1H86a.0979.0979,0,0,1,.1.1l.3,1c0,.1,0,.1-.1.2a.774.774,0,0,1-.3.1Z" fill="#a9cda6"/><path d="M87.8,5.6a.0979.0979,0,0,1-.1-.1V4.4h-.1a.31.31,0,0,0-.2.1h-.1c-.1,0-.1,0-.1-.1L87,4.2V4a1.69,1.69,0,0,1,.5-.2.52.52,0,0,1,.4.2.6012.6012,0,0,1,.1.4v1a.0979.0979,0,0,1-.1.1C88,5.6,87.8,5.6,87.8,5.6Z" fill="#a9cda6"/><path d="M92.2,5.8H92c-.1,0-.1-.1-.1-.2l.3-1a.0979.0979,0,0,1,.1-.1h.3c.1,0,.1.1.1.2l-.3,1a.3491.3491,0,0,0-.2.1Z" fill="#a9cda6"/><path d="M89.9,5.5a.3674.3674,0,0,1-.3-.1A16.7048,16.7048,0,0,0,88.9,3a.3491.3491,0,0,0-.1-.2c.1,0,.2.1.3.1,0,0,.4.2.6,1.2l.1.2c0-.1.1-2.1.8-2.4a.3491.3491,0,0,0,.2-.1.31.31,0,0,1-.1.2,4.6025,4.6025,0,0,0-.5,1.6v.2a1.3807,1.3807,0,0,1,.9-.7h.1s0,.1-.2.2a6.5246,6.5246,0,0,0-.9,1.6v.5C90.1,5.5,90.1,5.5,89.9,5.5Z" fill="#a9cda6"/></g></g></g><g id="heath_bd-10" data-name="heath_bd" style="isolation:isolate"><g id="Heath_FC-10" data-name="Heath_FC"><path d="M77.2,3.7c-.1,0-.1,0-.1-.1L76.7,3V2.9a.0979.0979,0,0,1,.1-.1l.1-.1H77l.1.1.4.7v.1l-.1.1Z" fill="#a9cda6"/><path d="M78.7,3.4c-.1,0-.1,0-.2-.1L78.1,2c0-.1,0-.2.1-.2l.1-.1h.1l.1.1L79,3.2v.1l-.1.1Z" fill="#a9cda6"/><path d="M80.3,1.2,80.5,3v.1l-.1.1h-.2A.2151.2151,0,0,1,80,3l-.2-1.9.1-.1h.2A.2151.2151,0,0,1,80.3,1.2Z" fill="#a9cda6"/><path d="M81.6,3.4h-.1l-.1-.1V3.2l.4-1.3.1-.1h.2l.1.1c.1,0,.1.1.1.2l-.4,1.3Z" fill="#a9cda6"/><path d="M83.1,3.7h0l-.2-.1-.1-.1V3.4l.4-.7.1-.1h.1l.1.1c.1,0,.1.1.1.2l-.4.7C83.2,3.7,83.2,3.7,83.1,3.7Z" fill="#a9cda6"/></g></g><g id="heath_bd-11" data-name="heath_bd" style="isolation:isolate"><g id="Heath_FC-11" data-name="Heath_FC"><path d="M70.6,46.7c-.1,0-.1,0-.1-.1l-.4-.7v-.1a.0979.0979,0,0,1,.1-.1l.1-.1h.1l.1.1.4.7v.1l-.1.1-.2.1Z" fill="#a9cda6"/><path d="M72.1,46.4c-.1,0-.1,0-.2-.1L71.5,45c0-.1,0-.2.1-.2l.1-.1h.1l.1.1.4,1.3v.1l-.1.1c0,.1,0,.1-.1.1Z" fill="#a9cda6"/><path d="M73.7,44.2l.2,1.8v.1l-.1.1h-.2a.2151.2151,0,0,1-.2-.2l-.2-1.9.1-.1.2-.1h.1C73.6,44,73.7,44.1,73.7,44.2Z" fill="#a9cda6"/><path d="M75,46.4h-.1l-.1-.1v-.1l.4-1.3.1-.1h.2l.1.1c.1,0,.1.1.1.2l-.4,1.3Z" fill="#a9cda6"/><path d="M76.5,46.7h0l-.2-.1-.1-.1v-.1l.4-.7.1-.1h.1l.1.1c.1,0,.1.1.1.2l-.4.7C76.6,46.7,76.6,46.7,76.5,46.7Z" fill="#a9cda6"/></g></g><g id="scrub_bd-12" data-name="scrub_bd" style="isolation:isolate"><g id="Scrub_FC-12" data-name="Scrub_FC"><g id="Deleted_Symbol_1-12" data-name="Deleted Symbol 1"><path d="M75.9,42.7c-.1,0-.1,0-.1-.1l-.3-1c0-.1,0-.1.1-.2l.2-.1h.1a.0979.0979,0,0,1,.1.1l.3,1c0,.1,0,.1-.1.2a.774.774,0,0,1-.3.1Z" fill="#a9cda6"/><path d="M77.7,42.5a.0979.0979,0,0,1-.1-.1V41.3h-.1a.31.31,0,0,0-.2.1h-.1c-.1,0-.1,0-.1-.1l-.1-.1V41a1.69,1.69,0,0,1,.5-.2.52.52,0,0,1,.4.2.6012.6012,0,0,1,.1.4v1a.0979.0979,0,0,1-.1.1Z" fill="#a9cda6"/><path d="M82,42.6h-.2c-.1,0-.1-.1-.1-.2l.3-1a.0979.0979,0,0,1,.1-.1h.3c.1,0,.1.1.1.2l-.3,1c0,.1-.1.1-.2.1Z" fill="#a9cda6"/><path d="M79.8,42.4a.3674.3674,0,0,1-.3-.1,16.7048,16.7048,0,0,0-.7-2.4.3491.3491,0,0,0-.1-.2c.1,0,.2.1.3.1,0,0,.4.2.6,1.2l.1.2c0-.1.1-2.1.8-2.4a.3491.3491,0,0,0,.2-.1.31.31,0,0,1-.1.2,4.6025,4.6025,0,0,0-.5,1.6v.2A1.3807,1.3807,0,0,1,81,40h.1s0,.1-.2.2a6.5246,6.5246,0,0,0-.9,1.6v.5C80,42.4,79.9,42.4,79.8,42.4Z" fill="#a9cda6"/></g></g></g><g id="scrub_bd-13" data-name="scrub_bd" style="isolation:isolate"><g id="Scrub_FC-13" data-name="Scrub_FC"><g id="Deleted_Symbol_1-13" data-name="Deleted Symbol 1"><path d="M66.9,41.2c-.1,0-.1,0-.1-.1l-.3-1c0-.1,0-.1.1-.2l.2-.1h.1a.0979.0979,0,0,1,.1.1l.3,1c0,.1,0,.1-.1.2-.2.1-.2.1-.3.1Z" fill="#a9cda6"/><path d="M68.8,41a.0979.0979,0,0,1-.1-.1V39.8h-.1a.31.31,0,0,0-.2.1h-.1c-.1,0-.1,0-.1-.1l-.1-.1v-.2a1.69,1.69,0,0,1,.5-.2.52.52,0,0,1,.4.2.6012.6012,0,0,1,.1.4v1a.0979.0979,0,0,1-.1.1Z" fill="#a9cda6"/><path d="M73.1,41.1h-.2c-.1,0-.1-.1-.1-.2l.3-1a.0979.0979,0,0,1,.1-.1h.3c.1,0,.1.1.1.2l-.3,1c-.1.1-.1.1-.2.1Z" fill="#a9cda6"/><path d="M70.9,40.9a.3674.3674,0,0,1-.3-.1,16.7048,16.7048,0,0,0-.7-2.4.3491.3491,0,0,0-.1-.2c.1,0,.2.1.3.1,0,0,.4.2.6,1.2l.1.2c0-.1.1-2.1.8-2.4a.3491.3491,0,0,0,.2-.1.31.31,0,0,1-.1.2,4.6025,4.6025,0,0,0-.5,1.6v.2a1.3807,1.3807,0,0,1,.9-.7h.1s0,.1-.2.2a6.5246,6.5246,0,0,0-.9,1.6v.5A.3491.3491,0,0,1,70.9,40.9Z" fill="#a9cda6"/></g></g></g><g id="heath_bd-12" data-name="heath_bd" style="isolation:isolate"><g id="Heath_FC-12" data-name="Heath_FC"><path d="M81.3,70.7c-.1,0-.1,0-.1-.1l-.5-.6v-.1a.0979.0979,0,0,1,.1-.1l.1-.1H81l.1.1.4.7v.1l-.1.1Z" fill="#a9cda6"/><path d="M82.7,70.5c-.1,0-.1,0-.2-.1L82.2,69c0-.1,0-.2.1-.2l.1-.1h.1l.1.1.4,1.3v.1l-.1.1c0,.1-.1.1-.2.2Z" fill="#a9cda6"/><path d="M84.3,68.2l.2,1.8v.1l-.1.1h-.2A.2151.2151,0,0,1,84,70l-.2-1.9.1-.1h.2C84.3,68.1,84.3,68.1,84.3,68.2Z" fill="#a9cda6"/><path d="M85.6,70.4h-.1l-.1-.1v-.1l.4-1.3.1-.1h.2l.1.1c.1,0,.1.1.1.2l-.4,1.3c-.1,0-.1.1-.3,0Z" fill="#a9cda6"/><path d="M87.2,70.7H87l-.1-.1v-.1l.4-.7.1-.1h.1l.1.1c.1,0,.1.1.1.2l-.4.7Z" fill="#a9cda6"/></g></g><g id="scrub_bd-14" data-name="scrub_bd" style="isolation:isolate"><g id="Scrub_FC-14" data-name="Scrub_FC"><g id="Deleted_Symbol_1-14" data-name="Deleted Symbol 1"><path d="M86.5,66.8c-.1,0-.1,0-.1-.1l-.3-1c0-.1,0-.1.1-.2l.2-.1h.1a.0979.0979,0,0,1,.1.1l.3,1c0,.1,0,.1-.1.2a.774.774,0,0,1-.3.1Z" fill="#a9cda6"/><path d="M88.3,66.5a.0979.0979,0,0,1-.1-.1V65.3h-.1a.31.31,0,0,0-.2.1h-.1c-.1,0-.1,0-.1-.1l-.1-.1V65a1.69,1.69,0,0,1,.5-.2.52.52,0,0,1,.4.2.6012.6012,0,0,1,.1.4v1a.0979.0979,0,0,1-.1.1Z" fill="#a9cda6"/><path d="M92.7,66.7h-.2c-.1,0-.1-.1-.1-.2l.3-1a.0979.0979,0,0,1,.1-.1h.3c.1,0,.1.1.1.2l-.3,1c-.1,0-.1.1-.2.1Z" fill="#a9cda6"/><path d="M90.5,66.4a.3674.3674,0,0,1-.3-.1,16.7048,16.7048,0,0,0-.7-2.4.3491.3491,0,0,0-.1-.2c.1,0,.2.1.3.1,0,0,.4.2.6,1.2l.1.2c0-.1.1-2.1.8-2.4a.3491.3491,0,0,0,.2-.1.31.31,0,0,1-.1.2,4.6025,4.6025,0,0,0-.5,1.6v.2a1.3807,1.3807,0,0,1,.9-.7h.1s0,.1-.2.2a6.5246,6.5246,0,0,0-.9,1.6v.5C90.7,66.4,90.6,66.4,90.5,66.4Z" fill="#a9cda6"/></g></g></g><g id="heath_bd-13" data-name="heath_bd" style="isolation:isolate"><g id="Heath_FC-13" data-name="Heath_FC"><path d="M77.7,64.6c-.1,0-.1,0-.1-.1l-.4-.7v-.1a.0979.0979,0,0,1,.1-.1l.1-.1h.1l.1.1.4.7v.1l-.1.1-.2.1Z" fill="#a9cda6"/><path d="M79.2,64.3c-.1,0-.1,0-.2-.1l-.4-1.3c0-.1,0-.2.1-.2l.1-.1h.1l.1.1.4,1.3v.1l-.1.1c0,.1,0,.1-.1.1Z" fill="#a9cda6"/><path d="M80.8,62.1l.2,1.8V64l-.1.1h-.2a.2151.2151,0,0,1-.2-.2L80.3,62l.1-.1.2-.1h.1C80.7,61.9,80.8,62,80.8,62.1Z" fill="#a9cda6"/><path d="M82.1,64.3H82l-.1-.1v-.1l.4-1.3.1-.1h.2l.1.1c.1,0,.1.1.1.2l-.4,1.3Z" fill="#a9cda6"/><path d="M83.6,64.6h0l-.2-.1-.1-.1v-.1l.4-.7.1-.1h.1l.1.1c.1,0,.1.1.1.2l-.4.7C83.7,64.6,83.7,64.6,83.6,64.6Z" fill="#a9cda6"/></g></g><g id="heath_bd-14" data-name="heath_bd" style="isolation:isolate"><g id="Heath_FC-14" data-name="Heath_FC"><path d="M55,92.1c-.1,0-.1,0-.1-.1l-.4-.7v-.1a.0979.0979,0,0,1,.1-.1l.1-.1h.1l.1.1.4.7v.1l-.1.1-.2.1Z" fill="#a9cda6"/><path d="M56.4,91.9c-.1,0-.1,0-.2-.1l-.4-1.3c0-.1,0-.2.1-.2l.1-.1h.1l.1.1.4,1.3v.1l-.1.1c.1,0,0,0-.1.1Z" fill="#a9cda6"/><path d="M58,89.6l.2,1.8v.1l-.1.1h-.2a.2151.2151,0,0,1-.2-.2l-.2-1.9.1-.1.2-.1h.1C58,89.5,58,89.5,58,89.6Z" fill="#a9cda6"/><path d="M59.3,91.9h-.1l-.1-.1v-.1l.4-1.3.1-.1h.2l.1.1c.1,0,.1.1.1.2l-.4,1.3c-.1-.1-.2,0-.3,0Z" fill="#a9cda6"/><path d="M60.9,92.1h0l-.2-.1h-.1v-.1l.4-.7.1-.1h.1l.1.1c.1,0,.1.1.1.2l-.4.7Z" fill="#a9cda6"/></g></g><g id="scrub_bd-15" data-name="scrub_bd" style="isolation:isolate"><g id="Scrub_FC-15" data-name="Scrub_FC"><g id="Deleted_Symbol_1-15" data-name="Deleted Symbol 1"><path d="M60.2,88.2c-.1,0-.1,0-.1-.1l-.3-1c0-.1,0-.1.1-.2l.2-.1h.1a.0979.0979,0,0,1,.1.1l.3,1c0,.1,0,.1-.1.2a.774.774,0,0,1-.3.1Z" fill="#a9cda6"/><path d="M62,87.9a.0979.0979,0,0,1-.1-.1V86.7h-.1a.31.31,0,0,0-.2.1h-.1c-.1,0-.1,0-.1-.1l-.1-.1v-.2a1.69,1.69,0,0,1,.5-.2.52.52,0,0,1,.4.2.6012.6012,0,0,1,.1.4v1a.0979.0979,0,0,1-.1.1Z" fill="#a9cda6"/><path d="M66.4,88.1h-.2c-.1,0-.1-.1-.1-.2l.3-1a.0979.0979,0,0,1,.1-.1h.3c.1,0,.1.1.1.2l-.3,1a.3491.3491,0,0,0-.2.1Z" fill="#a9cda6"/><path d="M64.1,87.8a.3674.3674,0,0,1-.3-.1,16.7048,16.7048,0,0,0-.7-2.4.3491.3491,0,0,0-.1-.2c.1,0,.2.1.3.1,0,0,.4.2.6,1.2l.1.2c0-.1.1-2.1.8-2.4a.3491.3491,0,0,0,.2-.1.31.31,0,0,1-.1.2,4.6025,4.6025,0,0,0-.5,1.6v.2a1.3807,1.3807,0,0,1,.9-.7h.1s0,.1-.2.2a6.5246,6.5246,0,0,0-.9,1.6v.5C64.3,87.8,64.3,87.8,64.1,87.8Z" fill="#a9cda6"/></g></g></g><g id="heath_bd-15" data-name="heath_bd" style="isolation:isolate"><g id="Heath_FC-15" data-name="Heath_FC"><path d="M51.4,86c-.1,0-.1,0-.1-.1l-.4-.7v-.1A.0979.0979,0,0,1,51,85h.1l.1.1.4.7v.1l-.1.1Z" fill="#a9cda6"/><path d="M52.9,85.7c-.1,0-.1,0-.2-.1l-.4-1.3c0-.1,0-.2.1-.2l.1-.1h.1l.1.1.4,1.3v.1l-.1.1c0,.1,0,.1-.1.1Z" fill="#a9cda6"/><path d="M54.5,83.5l.2,1.8v.1l-.1.1h-.2a.2151.2151,0,0,1-.2-.2L54,83.5l.1-.1.2-.1h.1A.3491.3491,0,0,1,54.5,83.5Z" fill="#a9cda6"/><path d="M55.8,85.7h-.1l-.1-.1v-.1l.4-1.3.1-.1h.2l.1.1c.1,0,.1.1.1.2L56,85.6c0,.1-.1.1-.2.1Z" fill="#a9cda6"/><path d="M57.3,86h0l-.2-.1-.1-.1v-.1l.4-.7.1-.1h.1l.1.1c.1,0,.1.1.1.2l-.4.7C57.4,86,57.4,86,57.3,86Z" fill="#a9cda6"/></g></g><g id="heath_bd-16" data-name="heath_bd" style="isolation:isolate"><g id="Heath_FC-16" data-name="Heath_FC"><path d="M7,95c-.1,0-.1,0-.1-.1l-.4-.7v-.1a.0979.0979,0,0,1,.1-.1h.2l.4.7v.1l-.1.1L7,95Z" fill="#a9cda6"/><path d="M8.4,94.7c-.1,0-.1,0-.2-.1l-.4-1.3c0-.1,0-.2.1-.2l.2-.1h.1l.1.1.4,1.3v.1l-.1.1c0,.1-.1.1-.2.1Z" fill="#a9cda6"/><path d="M10,92.5l.2,1.8v.1l-.1.1H9.9a.2151.2151,0,0,1-.2-.2l-.2-1.9.1-.1.2-.1h.1A.3674.3674,0,0,1,10,92.5Z" fill="#a9cda6"/><path d="M11.3,94.7h-.1l-.1-.1v-.1l.4-1.3.1-.1h.3l.1.1c.1,0,.1.1.1.2l-.4,1.3Z" fill="#a9cda6"/><path d="M12.9,95h0l-.2-.1-.1-.1v-.1L13,94l.1-.1h.1l.1.1c.1,0,.1.1.1.2l-.4.7A.0979.0979,0,0,1,12.9,95Z" fill="#a9cda6"/></g></g><g id="scrub_bd-16" data-name="scrub_bd" style="isolation:isolate"><g id="Scrub_FC-16" data-name="Scrub_FC"><g id="Deleted_Symbol_1-16" data-name="Deleted Symbol 1"><path d="M12.2,91c-.1,0-.1,0-.1-.1l-.3-1c0-.1,0-.1.1-.2l.2-.1h.1a.0979.0979,0,0,1,.1.1l.3,1c0,.1,0,.1-.1.2a.774.774,0,0,1-.3.1Z" fill="#a9cda6"/><path d="M14,90.8a.0979.0979,0,0,1-.1-.1v-1c0-.1,0-.1-.1-.1h-.1a.31.31,0,0,0-.2.1h-.1c-.1,0-.1,0-.1-.1l-.1-.1v-.2a1.69,1.69,0,0,1,.5-.2.52.52,0,0,1,.4.2.6012.6012,0,0,1,.1.4v1a.0979.0979,0,0,1-.1.1Z" fill="#a9cda6"/><path d="M18.4,90.9h-.2c-.1,0-.1-.1-.1-.2l.3-1a.0979.0979,0,0,1,.1-.1h.3c.1,0,.1.1.1.2l-.3,1a.31.31,0,0,1-.2.1Z" fill="#a9cda6"/><path d="M16.2,90.7a.3674.3674,0,0,1-.3-.1,16.7048,16.7048,0,0,0-.7-2.4.31.31,0,0,1-.1-.2c.1,0,.2.1.3.1,0,0,.4.2.6,1.2l.1.2c0-.1.1-2.1.8-2.4a.3491.3491,0,0,0,.2-.1.31.31,0,0,1-.1.2,4.6025,4.6025,0,0,0-.5,1.6V89a1.3807,1.3807,0,0,1,.9-.7h.1s0,.1-.2.2a6.5246,6.5246,0,0,0-.9,1.6v.5C16.4,90.7,16.3,90.7,16.2,90.7Z" fill="#a9cda6"/></g></g></g><g id="heath_bd-17" data-name="heath_bd" style="isolation:isolate"><g id="Heath_FC-17" data-name="Heath_FC"><path d="M3.4,88.9c-.1,0-.1,0-.1-.1l-.4-.7V88a.0979.0979,0,0,1,.1-.1v-.1h.1l.1.1.4.7v.1l-.1.1-.1.1Z" fill="#a9cda6"/><path d="M4.9,88.6c-.1,0-.1,0-.2-.1l-.4-1.3c0-.1,0-.2.1-.2l.1-.1h.1l.2.1.4,1.3v.1l-.1.1c-.1.1-.1.1-.2.1Z" fill="#a9cda6"/><path d="M6.5,86.3l.2,1.8v.1l-.1.1H6.4a.2151.2151,0,0,1-.2-.2L6,86.4v-.2l.2-.1h.1Z" fill="#a9cda6"/><path d="M7.8,88.6H7.7l-.1-.1v-.1L7.9,87l.1-.1h.3l.1.1c.1,0,.1.1.1.2L8,88.5a.3491.3491,0,0,1-.2.1Z" fill="#a9cda6"/><path d="M9.3,88.9h0l-.2-.1L9,88.7v-.1l.4-.7.1-.1h.1l.1.1c.1,0,.1.1.1.2l-.4.7A.0979.0979,0,0,1,9.3,88.9Z" fill="#a9cda6"/></g></g></svg>