<svg id="Layer_1" data-name="Layer 1" xmlns="http://www.w3.org/2000/svg" width="33.8667mm" height="33.8667mm" viewBox="0 0 96 96"><g id="scrub_bd"><g id="Scrub_FC"><g id="Deleted_Symbol_1" data-name="Deleted Symbol 1"><path d="M11.9,79.6c-.1,0-.1,0-.1-.1l-.3-1c0-.1,0-.1.1-.2l.2-.1h.1a.0979.0979,0,0,1,.1.1l.3,1c0,.1,0,.1-.1.2a.438.438,0,0,0-.3.1Z" fill="#a9cda6"/><path d="M13.7,79.3a.0979.0979,0,0,1-.1-.1V78.1h-.1a.31.31,0,0,0-.2.1h-.1c-.1,0-.1,0-.1-.1L13,78v-.2a1.69,1.69,0,0,1,.5-.2.52.52,0,0,1,.4.2.6012.6012,0,0,1,.1.4v1a.0979.0979,0,0,1-.1.1Z" fill="#a9cda6"/><path d="M18,79.5h-.2c-.1,0-.1-.1-.1-.2l.3-1a.0979.0979,0,0,1,.1-.1h.3c.1,0,.1.1.1.2l-.3,1c-.1,0-.1.1-.2.1Z" fill="#a9cda6"/><path d="M15.8,79.2a.3674.3674,0,0,1-.3-.1,9.2783,9.2783,0,0,0-.7-2.4.3491.3491,0,0,0-.1-.2c.1,0,.2.1.3.1,0,0,.4.2.6,1.2l.1.2c0-.1.1-2.1.8-2.4a.3491.3491,0,0,0,.2-.1.31.31,0,0,1-.1.2,4.6025,4.6025,0,0,0-.5,1.6v.2a1.3807,1.3807,0,0,1,.9-.7h.1s0,.1-.2.2a6.5246,6.5246,0,0,0-.9,1.6v.5C16,79.2,15.9,79.2,15.8,79.2Z" fill="#a9cda6"/></g></g></g><g id="roughgrass_bd"><g id="RoughGrass_FC"><path d="M17.4,74v.1l-.1.1H17l-.3-.4v-.1l.1-.1h.3Z" fill="#a9cda6"/><path d="M19.7,73.5h0l-.3-.3c-.1-.2.1-.7.1-.7v-.7A1.5084,1.5084,0,0,1,19.7,73.5Z" fill="#a9cda6"/><path d="M19.7,73.5c.1.1.2.1.2.3h-.3A1.0073,1.0073,0,0,0,19.7,73.5Z" fill="#a9cda6"/><path d="M21.8,72.6l-.5.5a2.1644,2.1644,0,0,0-.3.6v.2a.4829.4829,0,0,1-.4,0,2.18,2.18,0,0,0,.1-.6s0-1,.5-1.2c0,0,.4-.2.1.1a1.67,1.67,0,0,0-.3.9C21.1,73,21.4,72.6,21.8,72.6Z" fill="#a9cda6"/><path d="M23.8,73.7v.1l-.3.4c0,.1-.1.1-.2,0h-.1l-.1-.1V74l.3-.5c0-.1.1-.1.2,0l.2.2Z" fill="#a9cda6"/><path d="M18.4,73.2l.2.7V74l-.1.1h-.1c-.1,0-.1,0-.2-.1l-.2-.7v-.1l.1-.1h.1C18.3,73,18.4,73.1,18.4,73.2Z" fill="#a9cda6"/><path d="M22.4,73.1h.1l.1.1v.1l-.2.7c0,.1-.1.1-.2.1h-.1L22,74v-.1l.2-.7C22.2,73.1,22.3,73,22.4,73.1Z" fill="#a9cda6"/></g></g><g id="heath_bd"><g id="Heath_FC"><path d="M8.5,72.9c-.1,0-.1,0-.1-.1L8,72.1V72a.0979.0979,0,0,1,.1-.1l.1-.1h.1l.1.1.4.7v.1l-.1.1-.2.1Z" fill="#a9cda6"/><path d="M10,72.6c-.1,0-.1,0-.2-.1l-.4-1.3c0-.1,0-.2.1-.2l.1-.1h.1l.2.1.4,1.3v.1l-.1.1c-.1.1-.1.1-.2.1Z" fill="#a9cda6"/><path d="M11.6,70.4l.2,1.8v.1l-.1.1h-.2a.2151.2151,0,0,1-.2-.2L11,70.4v-.1l.2-.1h.1C11.5,70.2,11.5,70.3,11.6,70.4Z" fill="#a9cda6"/><path d="M12.8,72.6h-.1l-.1-.1v-.1L13,71v-.1h.2l.1.1c.1,0,.1.1.1.2L13,72.5s0,.1-.2.1Z" fill="#a9cda6"/><path d="M14.4,72.9h0l-.2-.1-.1-.1v-.1l.4-.7.1-.1h.1l.1.1c.1,0,.1.1.1.2l-.4.7Z" fill="#a9cda6"/></g></g><g id="scrub_bd-2" data-name="scrub_bd" style="isolation:isolate"><g id="Scrub_FC-2" data-name="Scrub_FC"><g id="Deleted_Symbol_1-2" data-name="Deleted Symbol 1"><path d="M48.3,69c-.1,0-.1,0-.1-.1l-.3-1c0-.1,0-.1.1-.2l.2-.1h.1a.0979.0979,0,0,1,.1.1l.3,1c0,.1,0,.1-.1.2-.2.1-.2.1-.3.1Z" fill="#a9cda6"/><path d="M50.2,68.7a.0979.0979,0,0,1-.1-.1V67.5H50a.31.31,0,0,0-.2.1h-.1c-.1,0-.1,0-.1-.1l-.1-.1v-.2A1.69,1.69,0,0,1,50,67a.52.52,0,0,1,.4.2.6012.6012,0,0,1,.1.4v1a.0979.0979,0,0,1-.1.1Z" fill="#a9cda6"/><path d="M54.5,68.9h-.2c-.1,0-.1-.1-.1-.2l.3-1a.0979.0979,0,0,1,.1-.1h.3c.1,0,.1.1.1.2l-.3,1a.3491.3491,0,0,0-.2.1Z" fill="#a9cda6"/><path d="M52.3,68.7a.3674.3674,0,0,1-.3-.1,16.7048,16.7048,0,0,0-.7-2.4.3491.3491,0,0,0-.1-.2c.1,0,.2.1.3.1,0,0,.4.2.6,1.2l.1.2c0-.1.1-2.1.8-2.4a.3491.3491,0,0,0,.2-.1.31.31,0,0,1-.1.2,4.6025,4.6025,0,0,0-.5,1.6V67a1.3807,1.3807,0,0,1,.9-.7h.1s0,.1-.2.2a6.5246,6.5246,0,0,0-.9,1.6v.5A.3491.3491,0,0,1,52.3,68.7Z" fill="#a9cda6"/></g></g></g><g id="roughgrass_bd-2" data-name="roughgrass_bd" style="isolation:isolate"><g id="RoughGrass_FC-2" data-name="RoughGrass_FC"><path d="M53.9,63.5v.1l-.1.1h-.3l-.3-.4v-.1l.1-.1h.3Z" fill="#a9cda6"/><path d="M56.2,62.9h0a1.7265,1.7265,0,0,0-.4-.3c-.1-.2.1-.7.1-.7v-.7A1.432,1.432,0,0,1,56.2,62.9Z" fill="#a9cda6"/><path d="M56.2,62.9c.1.1.2.1.2.3h-.3A.774.774,0,0,1,56.2,62.9Z" fill="#a9cda6"/><path d="M58.3,62.1l-.5.5a2.1644,2.1644,0,0,0-.3.6v.2a.4829.4829,0,0,1-.4,0,2.18,2.18,0,0,0,.1-.6s0-1,.5-1.2c0,0,.4-.2.1.1a1.67,1.67,0,0,0-.3.9C57.6,62.4,57.9,62,58.3,62.1Z" fill="#a9cda6"/><path d="M60.3,63.1v.1l-.3.4c0,.1-.1.1-.2,0h-.1l-.1-.1v-.1l.3-.5c0-.1.1-.1.2,0l.2.2Z" fill="#a9cda6"/><path d="M54.9,62.6l.2.7v.1l-.1.1h-.1c-.1,0-.1,0-.2-.1l-.2-.7v-.1l.1-.1h.1C54.8,62.4,54.9,62.5,54.9,62.6Z" fill="#a9cda6"/><path d="M58.9,62.5H59l.1.1v.1l-.2.7c0,.1-.1.1-.2.1h-.1l-.1-.1v-.1l.2-.7C58.7,62.5,58.8,62.4,58.9,62.5Z" fill="#a9cda6"/></g></g><g id="heath_bd-2" data-name="heath_bd" style="isolation:isolate"><g id="Heath_FC-2" data-name="Heath_FC"><path d="M45,62.3c-.1,0-.1,0-.1-.1l-.4-.7v-.1a.0979.0979,0,0,1,.1-.1l.1-.1h.1l.1.1.4.7v.1l-.1.1-.2.1Z" fill="#a9cda6"/><path d="M46.4,62c-.1,0-.1,0-.2-.1l-.4-1.3c0-.1,0-.2.1-.2l.1-.1h.1l.1.1.4,1.3V62Z" fill="#a9cda6"/><path d="M48,59.8l.2,1.8v.1l-.1.1h-.2a.2151.2151,0,0,1-.2-.2l-.2-1.9v-.1l.2-.1h.1C47.9,59.6,48,59.7,48,59.8Z" fill="#a9cda6"/><path d="M49.3,62h-.1l-.1-.1v-.1l.4-1.3.1-.1h.2l.1.1c.1,0,.1.1.1.2L49.6,62Z" fill="#a9cda6"/><path d="M50.8,62.3h0l-.2-.1-.1-.1V62l.4-.7.1-.1h.1l.1.1c.1,0,.1.1.1.2l-.3.7C50.9,62.3,50.9,62.3,50.8,62.3Z" fill="#a9cda6"/></g></g><g id="scrub_bd-3" data-name="scrub_bd" style="isolation:isolate"><g id="Scrub_FC-3" data-name="Scrub_FC"><g id="Deleted_Symbol_1-3" data-name="Deleted Symbol 1"><path d="M7.4,51.6c-.1,0-.1,0-.1-.1l-.3-1c0-.1,0-.1.1-.2l.2-.1h.1a.0979.0979,0,0,1,.1.1l.3,1c0,.1,0,.1-.1.2-.2.1-.2.1-.3.1Z" fill="#a9cda6"/><path d="M9.3,51.3a.0979.0979,0,0,1-.1-.1V50.1L9,50a.31.31,0,0,0-.2.1H8.7c-.1,0-.1,0-.1-.1l-.1-.1v-.2a1.69,1.69,0,0,1,.5-.2.52.52,0,0,1,.4.2.6012.6012,0,0,1,.1.4v1a.0979.0979,0,0,1-.1.1H9.3Z" fill="#a9cda6"/><path d="M13.6,51.5h-.2c-.1,0-.1-.1-.1-.2l.3-1a.0979.0979,0,0,1,.1-.1H14c.1,0,.1.1.1.2l-.3,1c-.1,0-.1.1-.2.1Z" fill="#a9cda6"/><path d="M11.4,51.2a.3674.3674,0,0,1-.3-.1,9.2783,9.2783,0,0,0-.7-2.4.3491.3491,0,0,0-.1-.2c.1,0,.2.1.3.1,0,0,.4.2.6,1.2l.1.2c0-.1.1-2.1.8-2.4a.3491.3491,0,0,0,.2-.1.31.31,0,0,1-.1.2,4.6025,4.6025,0,0,0-.5,1.6v.2a1.3807,1.3807,0,0,1,.9-.7h.1s0,.1-.2.2a6.5246,6.5246,0,0,0-.9,1.6v.5C11.6,51.2,11.5,51.2,11.4,51.2Z" fill="#a9cda6"/></g></g></g><g id="roughgrass_bd-3" data-name="roughgrass_bd" style="isolation:isolate"><g id="RoughGrass_FC-3" data-name="RoughGrass_FC"><path d="M13,46v.1l-.1.1h-.3l-.3-.4v-.1l.1-.1h.3Z" fill="#a9cda6"/><path d="M15.3,45.5h0l-.3-.3c-.1-.2.1-.7.1-.7v-.7A1.5084,1.5084,0,0,1,15.3,45.5Z" fill="#a9cda6"/><path d="M15.3,45.5c.1.1.2.1.2.3h-.3A.774.774,0,0,1,15.3,45.5Z" fill="#a9cda6"/><path d="M17.4,44.6l-.4.5a2.1644,2.1644,0,0,0-.3.6v.2a.4829.4829,0,0,1-.4,0,2.18,2.18,0,0,0,.1-.6s0-1,.5-1.2c0,0,.4-.2.1.1a1.67,1.67,0,0,0-.3.9A.8083.8083,0,0,1,17.4,44.6Z" fill="#a9cda6"/><path d="M19.4,45.7v.1l-.3.4c0,.1-.1.1-.2,0h-.1l-.1-.1V46l.3-.5c0-.1.1-.1.2,0l.2.2Z" fill="#a9cda6"/><path d="M14,45.2l.2.7V46l-.1.1H14c-.1,0-.1,0-.2-.1l-.2-.7v-.1l.1-.1h.1C13.9,45,14,45.1,14,45.2Z" fill="#a9cda6"/><path d="M18,45.1h.1l.1.1v.1l-.3.7c0,.1-.1.1-.2.1h-.1v-.2l.2-.7C17.8,45.1,17.9,45,18,45.1Z" fill="#a9cda6"/></g></g><g id="heath_bd-3" data-name="heath_bd" style="isolation:isolate"><g id="Heath_FC-3" data-name="Heath_FC"><path d="M4.1,44.9c-.1,0-.1,0-.1-.1l-.4-.7V44a.0979.0979,0,0,1,.1-.1l.1-.1h.1l.1.1.4.7v.1l-.1.1-.2.1Z" fill="#a9cda6"/><path d="M5.5,44.6c-.1,0-.1,0-.2-.1L5,43.2c0-.1,0-.2.1-.2l.1-.1h.1l.1.1.4,1.3v.1l-.1.1c0,.1-.1.1-.2.1Z" fill="#a9cda6"/><path d="M7.1,42.4l.2,1.8v.1l-.1.1H7a.2151.2151,0,0,1-.2-.2l-.2-1.9v-.1l.2-.1h.1C7,42.2,7.1,42.3,7.1,42.4Z" fill="#a9cda6"/><path d="M8.4,44.6H8.3l-.1-.1v-.1L8.6,43v-.1h.2l.1.1c.1,0,.2.1.1.2l-.4,1.3a.3491.3491,0,0,1-.2.1Z" fill="#a9cda6"/><path d="M9.9,44.9h0l-.2-.1-.1-.1v-.1l.4-.7.1-.1h.1l.1.1c.1,0,.1.1.1.2l-.4.7A.0979.0979,0,0,1,9.9,44.9Z" fill="#a9cda6"/></g></g><g id="scrub_bd-4" data-name="scrub_bd" style="isolation:isolate"><g id="Scrub_FC-4" data-name="Scrub_FC"><g id="Deleted_Symbol_1-4" data-name="Deleted Symbol 1"><path d="M16.2,30.7c-.1,0-.1,0-.1-.1l-.3-1c0-.1,0-.1.1-.2l.2-.1h.1a.0979.0979,0,0,1,.1.1l.3,1c0,.1,0,.1-.1.2a.3674.3674,0,0,1-.3.1Z" fill="#a9cda6"/><path d="M18.1,30.5a.0979.0979,0,0,1-.1-.1V29.3h-.1a.31.31,0,0,0-.2.1h-.1c-.1,0-.1,0-.1-.1l-.1-.1V29a1.69,1.69,0,0,1,.5-.2.52.52,0,0,1,.4.2.6012.6012,0,0,1,.1.4v1a.0979.0979,0,0,1-.1.1Z" fill="#a9cda6"/><path d="M22.4,30.6h-.2c-.1,0-.1-.1-.1-.2l.3-1a.0979.0979,0,0,1,.1-.1h.3c.1,0,.1.1.1.2l-.3,1c-.1.1-.1.1-.2.1Z" fill="#a9cda6"/><path d="M20.2,30.4a.3674.3674,0,0,1-.3-.1,9.2783,9.2783,0,0,0-.7-2.4.3491.3491,0,0,0-.1-.2c.1,0,.2.1.3.1,0,0,.4.2.6,1.2l.1.2c0-.1.1-2.1.8-2.4a.3491.3491,0,0,0,.2-.1.31.31,0,0,1-.1.2,4.6025,4.6025,0,0,0-.5,1.6v.2a1.3807,1.3807,0,0,1,.9-.7h.1s0,.1-.2.2a6.5246,6.5246,0,0,0-.9,1.6v.5A.3491.3491,0,0,1,20.2,30.4Z" fill="#a9cda6"/></g></g></g><g id="roughgrass_bd-4" data-name="roughgrass_bd" style="isolation:isolate"><g id="RoughGrass_FC-4" data-name="RoughGrass_FC"><path d="M21.8,25.2v.1l-.1.1h-.3l-.3-.4v-.1l.1-.1h.3Z" fill="#a9cda6"/><path d="M24.1,24.6h0l-.3-.3c-.1-.2.1-.7.1-.7v-.7A1.4785,1.4785,0,0,1,24.1,24.6Z" fill="#a9cda6"/><path d="M24.1,24.6c.1.1.2.1.2.3h-.1L24,25A.7559.7559,0,0,1,24.1,24.6Z" fill="#a9cda6"/><path d="M26.2,23.8l-.5.5a2.1644,2.1644,0,0,0-.3.6v.2a.4829.4829,0,0,1-.4,0,2.18,2.18,0,0,0,.1-.6s0-1,.5-1.2c0,0,.4-.2.1.1a1.67,1.67,0,0,0-.3.9C25.5,24.1,25.8,23.7,26.2,23.8Z" fill="#a9cda6"/><path d="M28.2,24.8v.1l-.3.4c0,.1-.1.1-.2,0h-.1l-.1-.1v-.1l.3-.5c0-.1.1-.1.2,0l.2.2Z" fill="#a9cda6"/><path d="M22.8,24.3l.2.7v.1l-.1.1h-.1c-.1,0-.1,0-.2-.1l-.2-.7v-.1l.1-.1h.1C22.7,24.2,22.8,24.2,22.8,24.3Z" fill="#a9cda6"/><path d="M26.8,24.2h.1l.1.1v.1l-.2.7c0,.1-.1.1-.2.1h-.1l-.1-.1V25l.2-.7C26.6,24.2,26.7,24.2,26.8,24.2Z" fill="#a9cda6"/></g></g><g id="heath_bd-4" data-name="heath_bd" style="isolation:isolate"><g id="Heath_FC-4" data-name="Heath_FC"><path d="M12.9,24c-.1,0-.1,0-.1-.1l-.4-.7v-.1a.0979.0979,0,0,1,.1-.1l.1-.1h.1l.1.1.4.7v.1l-.1.1-.2.1Z" fill="#a9cda6"/><path d="M14.4,23.7c-.1,0-.1,0-.2-.1l-.4-1.3c0-.1,0-.2.1-.2L14,22h.1l.1.1.4,1.3v.1l-.1.1a.0979.0979,0,0,1-.1.1Z" fill="#a9cda6"/><path d="M15.9,21.5l.2,1.8v.1l-.1.1h-.2a.2151.2151,0,0,1-.2-.2l-.2-1.9v-.1l.2-.1h.1C15.9,21.3,15.9,21.4,15.9,21.5Z" fill="#a9cda6"/><path d="M17.2,23.7h-.1l-.1-.1v-.1l.4-1.3v-.1h.2l.1.1c.1,0,.1.1.1.2l-.4,1.3Z" fill="#a9cda6"/><path d="M18.7,24h0l-.2-.1-.1-.1v-.1l.4-.7h.3l.1.1c.1,0,.1.1.1.2l-.4.7Z" fill="#a9cda6"/></g></g><g id="scrub_bd-5" data-name="scrub_bd" style="isolation:isolate"><g id="Scrub_FC-5" data-name="Scrub_FC"><g id="Deleted_Symbol_1-5" data-name="Deleted Symbol 1"><path d="M46.9,11.1c-.1,0-.1,0-.1-.1l-.3-1c0-.1,0-.1.1-.2l.2-.1h.1a.0979.0979,0,0,1,.1.1l.3,1c0,.1,0,.1-.1.2-.2.1-.2.1-.3.1Z" fill="#a9cda6"/><path d="M48.7,10.8a.0979.0979,0,0,1-.1-.1V9.6h-.1a.31.31,0,0,0-.2.1h-.1c-.1,0-.1,0-.1-.1L48,9.5V9.3a.5359.5359,0,0,1,.4-.3.52.52,0,0,1,.4.2.5505.5505,0,0,1,.2.5v1a.0979.0979,0,0,1-.1.1Z" fill="#a9cda6"/><path d="M53,11h-.2c-.1,0-.1-.1-.1-.2l.3-1a.0979.0979,0,0,1,.1-.1h.3c.1,0,.1.1.1.2l-.3,1a.3491.3491,0,0,1-.2.1Z" fill="#a9cda6"/><path d="M50.8,10.7a.3674.3674,0,0,1-.3-.1,16.7048,16.7048,0,0,0-.7-2.4.3491.3491,0,0,0-.1-.2c.1,0,.2.1.3.1,0,0,.4.2.6,1.2l.1.2c0-.1.1-2.1.8-2.4a.3491.3491,0,0,0,.2-.1.31.31,0,0,1-.1.2,4.6025,4.6025,0,0,0-.5,1.6V9a1.3807,1.3807,0,0,1,.9-.7h.1s0,.1-.2.2a6.5246,6.5246,0,0,0-.9,1.6v.5C51,10.7,50.9,10.7,50.8,10.7Z" fill="#a9cda6"/></g></g></g><g id="roughgrass_bd-5" data-name="roughgrass_bd" style="isolation:isolate"><g id="RoughGrass_FC-5" data-name="RoughGrass_FC"><path d="M52.5,5.5v.1l-.1.1h-.3l-.3-.4V5.2l.1-.1h.3Z" fill="#a9cda6"/><path d="M54.8,5h0a1.7265,1.7265,0,0,0-.4-.3,1.1041,1.1041,0,0,1,.1-.7V3.3A1.65,1.65,0,0,1,54.8,5Z" fill="#a9cda6"/><path d="M54.8,5c.1.1.2.1.2.3h-.3C54.6,5.3,54.7,5.2,54.8,5Z" fill="#a9cda6"/><path d="M56.9,4.1l-.5.5a2.1644,2.1644,0,0,0-.3.6v.2a.4829.4829,0,0,1-.4,0,2.18,2.18,0,0,0,.1-.6s0-1,.5-1.2c0,0,.4-.2.1.1a1.67,1.67,0,0,0-.3.9A.8514.8514,0,0,1,56.9,4.1Z" fill="#a9cda6"/><path d="M58.9,5.2v.1l-.3.4c0,.1-.1.1-.2,0h-.1l-.1-.1V5.5l.3-.5c0-.1.1-.1.2,0l.2.2Z" fill="#a9cda6"/><path d="M53.5,4.7l.2.7v.1l-.1.1h-.1c-.1,0-.1,0-.2-.1l-.2-.7V4.7l.1-.1h.1C53.4,4.5,53.4,4.6,53.5,4.7Z" fill="#a9cda6"/><path d="M57.4,4.6h.1l.1.1v.1l-.2.7c0,.1-.1.1-.2.1h-.1L57,5.5V5.4l.2-.7C57.3,4.6,57.4,4.5,57.4,4.6Z" fill="#a9cda6"/></g></g><g id="heath_bd-5" data-name="heath_bd" style="isolation:isolate"><g id="Heath_FC-5" data-name="Heath_FC"><path d="M43.5,4.4c-.1,0-.1,0-.1-.1L43,3.6V3.5a.0979.0979,0,0,1,.1-.1l.1-.1h.1l.1.1.4.7v.1l-.1.1-.2.1Z" fill="#a9cda6"/><path d="M45,4.1c-.1,0-.1,0-.2-.1l-.4-1.3c0-.1,0-.2.1-.2l.1-.1h.1l.1.1.4,1.3V4c-.1.1-.1.1-.2.1Z" fill="#a9cda6"/><path d="M46.6,1.9l.2,1.8v.1l-.1.1h-.2a.2151.2151,0,0,1-.2-.2l-.2-1.9V1.7l.2-.1h.1C46.5,1.7,46.6,1.8,46.6,1.9Z" fill="#a9cda6"/><path d="M47.9,4.1h-.1L47.6,4V3.9L48,2.5V2.4h.2l.1.1c.1,0,.1.1.1.2L48.1,4a.3491.3491,0,0,1-.2.1Z" fill="#a9cda6"/><path d="M49.4,4.4h0l-.2-.1-.1-.1V4.1l.4-.7.1-.1h.1l.1.1c.1,0,.1.1.1.2l-.4.7A.0979.0979,0,0,1,49.4,4.4Z" fill="#a9cda6"/></g></g><g id="scrub_bd-6" data-name="scrub_bd" style="isolation:isolate"><g id="Scrub_FC-6" data-name="Scrub_FC"><g id="Deleted_Symbol_1-6" data-name="Deleted Symbol 1"><path d="M69.3,27.2c-.1,0-.1,0-.1-.1l-.3-1c0-.1,0-.1.1-.2l.2-.1h.1a.0979.0979,0,0,1,.1.1l.3,1c0,.1,0,.1-.1.2-.2.1-.2.1-.3.1Z" fill="#a9cda6"/><path d="M71.2,27a.0979.0979,0,0,1-.1-.1V25.8H71a.31.31,0,0,0-.2.1h-.1c-.1,0-.1,0-.1-.1l-.1-.1v-.2a1.69,1.69,0,0,1,.5-.2.52.52,0,0,1,.4.2.6012.6012,0,0,1,.1.4v1a.0979.0979,0,0,1-.1.1Z" fill="#a9cda6"/><path d="M75.5,27.1h-.2c-.1,0-.1-.1-.1-.2l.3-1a.0979.0979,0,0,1,.1-.1h.3c.1,0,.1.1.1.2l-.3,1a.31.31,0,0,1-.2.1Z" fill="#a9cda6"/><path d="M73.3,26.9a.3674.3674,0,0,1-.3-.1,16.7048,16.7048,0,0,0-.7-2.4.3491.3491,0,0,0-.1-.2c.1,0,.2.1.3.1,0,0,.4.2.6,1.2l.1.2c0-.1.1-2.1.8-2.4a.3491.3491,0,0,0,.2-.1.31.31,0,0,1-.1.2,4.6025,4.6025,0,0,0-.5,1.6v.2a1.3807,1.3807,0,0,1,.9-.7h.1s0,.1-.2.2a6.5246,6.5246,0,0,0-.9,1.6v.5A.3491.3491,0,0,1,73.3,26.9Z" fill="#a9cda6"/></g></g></g><g id="roughgrass_bd-6" data-name="roughgrass_bd" style="isolation:isolate"><g id="RoughGrass_FC-6" data-name="RoughGrass_FC"><path d="M74.9,21.7v.1l-.1.1h-.3l-.3-.4v-.1l.1-.1h.3Z" fill="#a9cda6"/><path d="M77.2,21.1h0a1.7265,1.7265,0,0,0-.4-.3c-.1-.2.1-.7.1-.7v-.7C77.7,20.4,77.2,21.1,77.2,21.1Z" fill="#a9cda6"/><path d="M77.2,21.2c.1.1.2.1.2.3h-.3A.3674.3674,0,0,1,77.2,21.2Z" fill="#a9cda6"/><path d="M79.3,20.3l-.5.5a2.1644,2.1644,0,0,0-.3.6v.2a.4829.4829,0,0,1-.4,0,2.18,2.18,0,0,0,.1-.6s0-1,.5-1.2c0,0,.4-.2.1.1a1.67,1.67,0,0,0-.3.9C78.6,20.7,78.9,20.3,79.3,20.3Z" fill="#a9cda6"/><path d="M81.3,21.3v.1l-.3.4c0,.1-.1.1-.2,0h-.1l-.1-.1v-.1l.3-.5c0-.1.1-.1.2,0l.2.2Z" fill="#a9cda6"/><path d="M75.9,20.8l.2.7v.1l-.1.1h-.1c-.1,0-.1,0-.2-.1l-.2-.6v-.1l.1-.1h.1C75.8,20.7,75.9,20.7,75.9,20.8Z" fill="#a9cda6"/><path d="M79.9,20.7H80l.1.1V21l-.2.7c0,.1-.1.1-.2.1h-.1l-.1-.1v-.1l.2-.7C79.7,20.7,79.8,20.7,79.9,20.7Z" fill="#a9cda6"/></g></g><g id="heath_bd-6" data-name="heath_bd" style="isolation:isolate"><g id="Heath_FC-6" data-name="Heath_FC"><path d="M66,20.5c-.1,0-.1,0-.1-.1l-.4-.7v-.1a.0979.0979,0,0,1,.1-.1l.1-.1h.1l.1.1.4.7v.1l-.1.1-.2.1Z" fill="#a9cda6"/><path d="M67.4,20.2c-.1,0-.1,0-.2-.1l-.4-1.3c0-.1,0-.2.1-.2l.1-.1h.1l.1.1.4,1.3V20l-.1.1c.1.1,0,.1-.1.1Z" fill="#a9cda6"/><path d="M69,18l.2,1.8v.1l-.1.1h-.2a.2151.2151,0,0,1-.2-.2L68.5,18l.1-.1.2-.1h.1C68.9,17.9,69,17.9,69,18Z" fill="#a9cda6"/><path d="M70.3,20.2h-.1l-.1-.1V20l.4-1.3.1-.1h.2l.1.1c.1,0,.1.1.1.2l-.4,1.3Z" fill="#a9cda6"/><path d="M71.8,20.5h0l-.2-.1-.1-.1v-.1l.4-.7.1-.1h.1l.1.1c.1,0,.1.1.1.2l-.3.7C71.9,20.5,71.9,20.5,71.8,20.5Z" fill="#a9cda6"/></g></g><g id="scrub_bd-7" data-name="scrub_bd" style="isolation:isolate"><g id="Scrub_FC-7" data-name="Scrub_FC"><g id="Deleted_Symbol_1-7" data-name="Deleted Symbol 1"><path d="M80.4,10.4c-.1,0-.1,0-.1-.1l-.3-1c0-.1,0-.1.1-.2l.2-.1h.1a.0979.0979,0,0,1,.1.1l.3,1c0,.1,0,.1-.1.2a.774.774,0,0,1-.3.1Z" fill="#a9cda6"/><path d="M82.2,10.2a.0979.0979,0,0,1-.1-.1V9H82a.31.31,0,0,0-.2.1h-.1c-.1,0-.1,0-.1-.1l-.1-.1V8.7a1.69,1.69,0,0,1,.5-.2.52.52,0,0,1,.4.2.6012.6012,0,0,1,.1.4v1a.0979.0979,0,0,1-.1.1Z" fill="#a9cda6"/><path d="M86.5,10.3h-.2c-.1,0-.1-.1-.1-.2l.3-1a.0979.0979,0,0,1,.1-.1h.3a.31.31,0,0,1,.1.2l-.3,1c0,.1-.1.1-.2.1Z" fill="#a9cda6"/><path d="M84.3,10.1A.3674.3674,0,0,1,84,10a16.7048,16.7048,0,0,0-.7-2.4.3491.3491,0,0,0-.1-.2c.1,0,.2.1.3.1,0,0,.4.2.6,1.2l.1.3c0-.1.1-2.1.8-2.4a.3491.3491,0,0,0,.2-.1.31.31,0,0,1-.1.2,4.6025,4.6025,0,0,0-.5,1.6v.2a1.3807,1.3807,0,0,1,.9-.7h.1s0,.1-.2.2a6.5246,6.5246,0,0,0-.9,1.6v.5C84.5,10,84.4,10.1,84.3,10.1Z" fill="#a9cda6"/></g></g></g><g id="roughgrass_bd-7" data-name="roughgrass_bd" style="isolation:isolate"><g id="RoughGrass_FC-7" data-name="RoughGrass_FC"><path d="M86,4.9V5l-.1.1h-.3l-.3-.4V4.6l.1-.1h.3Z" fill="#a9cda6"/><path d="M88.2,4.3h0L87.9,4c-.1-.2.1-.7.1-.7V2.6A1.4785,1.4785,0,0,1,88.2,4.3Z" fill="#a9cda6"/><path d="M88.2,4.3c.1.1.2.1.2.3h-.3A.438.438,0,0,0,88.2,4.3Z" fill="#a9cda6"/><path d="M90.4,3.5l-.5.5a2.1644,2.1644,0,0,0-.3.6v.2a.4829.4829,0,0,1-.4,0,2.18,2.18,0,0,0,.1-.6s0-1,.5-1.2c0,0,.4-.2.1.1a1.67,1.67,0,0,0-.3.9A.73.73,0,0,1,90.4,3.5Z" fill="#a9cda6"/><path d="M92.3,4.5v.1l-.3.5c0,.1-.1.1-.2,0h-.1V4.9l.3-.5c0-.1.1-.1.2,0l.1.1Z" fill="#a9cda6"/><path d="M87,4l.2.7v.1l-.1.1H87c-.1,0-.1,0-.2-.1l-.2-.7V4l.1-.1h.1C86.9,3.9,86.9,3.9,87,4Z" fill="#a9cda6"/><path d="M90.9,3.9H91l.1.1v.1l-.2.7c0,.1-.1.1-.2.1h-.1l-.1-.1V4.7l.2-.7C90.8,3.9,90.8,3.9,90.9,3.9Z" fill="#a9cda6"/></g></g><g id="heath_bd-7" data-name="heath_bd" style="isolation:isolate"><g id="Heath_FC-7" data-name="Heath_FC"><path d="M77,3.7c-.1,0-.1,0-.1-.1l-.4-.7V2.8a.0979.0979,0,0,1,.1-.1l.1-.1h.1l.1.1.4.7v.1l-.1.1-.2.1Z" fill="#a9cda6"/><path d="M78.5,3.4c-.1,0-.1,0-.2-.1L77.9,2c0-.1,0-.2.1-.2l.1-.1h.1l.1.1.4,1.3v.1l-.1.1c0,.1,0,.1-.1.1Z" fill="#a9cda6"/><path d="M80.1,1.2,80.3,3v.1l-.1.1H80a.2151.2151,0,0,1-.2-.2l-.2-1.9.1-.1h.2A.2151.2151,0,0,1,80.1,1.2Z" fill="#a9cda6"/><path d="M81.4,3.4h-.1l-.1-.1V3.2l.4-1.3.1-.1h.2l.1.1V2l-.4,1.3c-.1.1-.1.1-.2.1Z" fill="#a9cda6"/><path d="M82.9,3.7h0l-.2-.1-.1-.1V3.4l.4-.7.1-.1h.1l.1.1c.1,0,.1.1.1.2l-.4.7A.0979.0979,0,0,1,82.9,3.7Z" fill="#a9cda6"/></g></g><g id="scrub_bd-8" data-name="scrub_bd" style="isolation:isolate"><g id="Scrub_FC-8" data-name="Scrub_FC"><g id="Deleted_Symbol_1-8" data-name="Deleted Symbol 1"><path d="M70.3,47c-.1,0-.1,0-.1-.1l-.3-1c0-.1,0-.1.1-.2l.2-.1h.1a.0979.0979,0,0,1,.1.1l.3,1c0,.1,0,.1-.1.2-.2.1-.2.1-.3.1Z" fill="#a9cda6"/><path d="M72.2,46.8a.0979.0979,0,0,1-.1-.1V45.6H72a.31.31,0,0,0-.2.1h-.1c-.1,0-.1,0-.1-.1l-.1-.1v-.2a1.69,1.69,0,0,1,.5-.2.52.52,0,0,1,.4.2.6012.6012,0,0,1,.1.4v1a.0979.0979,0,0,1-.1.1Z" fill="#a9cda6"/><path d="M76.5,46.9h-.2c-.1,0-.1-.1-.1-.2l.3-1a.0979.0979,0,0,1,.1-.1h.3c.1,0,.1.1.1.2l-.3,1a.31.31,0,0,1-.2.1Z" fill="#a9cda6"/><path d="M74.3,46.7a.3674.3674,0,0,1-.3-.1,16.7048,16.7048,0,0,0-.7-2.4.3491.3491,0,0,0-.1-.2c.1,0,.2.1.3.1,0,0,.4.2.6,1.2l.1.2c0-.1.1-2.1.8-2.4a.3491.3491,0,0,0,.2-.1.31.31,0,0,1-.1.2,4.6025,4.6025,0,0,0-.5,1.6V45a1.3807,1.3807,0,0,1,.9-.7h.1s0,.1-.2.2a6.5246,6.5246,0,0,0-.9,1.6v.5A.3491.3491,0,0,1,74.3,46.7Z" fill="#a9cda6"/></g></g></g><g id="roughgrass_bd-8" data-name="roughgrass_bd" style="isolation:isolate"><g id="RoughGrass_FC-8" data-name="RoughGrass_FC"><path d="M75.9,41.5v.1l-.1.1h-.3l-.3-.4v-.1l.1-.1h.3Z" fill="#a9cda6"/><path d="M78.2,41h0c0-.1-.1-.1,0,0a1.7265,1.7265,0,0,0-.4-.3c-.1-.2.1-.7.1-.7v-.7A1.432,1.432,0,0,1,78.2,41Z" fill="#a9cda6"/><path d="M78.2,41c.1.1.2.1.2.3h-.3A.3674.3674,0,0,1,78.2,41Z" fill="#a9cda6"/><path d="M80.3,40.1l-.5.5a2.1644,2.1644,0,0,0-.3.6v.2a.4829.4829,0,0,1-.4,0,2.18,2.18,0,0,0,.1-.6s0-1,.5-1.2c0,0,.4-.2.1.1a1.67,1.67,0,0,0-.3.9C79.6,40.5,79.9,40.1,80.3,40.1Z" fill="#a9cda6"/><path d="M82.3,41.1v.1l-.3.4c0,.1-.1.1-.2,0h-.1l-.1-.1v-.1l.3-.5c0-.1.1-.1.2,0l.2.2Z" fill="#a9cda6"/><path d="M76.9,40.6l.2.7v.1l-.1.1h-.1c-.1,0-.1,0-.2-.1l-.2-.7v-.1l.1-.1h.1C76.8,40.5,76.9,40.5,76.9,40.6Z" fill="#a9cda6"/><path d="M80.8,40.5h.1l.1.1v.1l-.2.7c0,.1-.1.1-.2.1h-.1l-.1-.1v-.1l.2-.7A.31.31,0,0,1,80.8,40.5Z" fill="#a9cda6"/></g></g><g id="heath_bd-8" data-name="heath_bd" style="isolation:isolate"><g id="Heath_FC-8" data-name="Heath_FC"><path d="M67,40.3c-.1,0-.1,0-.1-.1l-.4-.7v-.1a.0979.0979,0,0,1,.1-.1l.1-.1h.1l.1.1.4.7v.1l-.1.1-.2.1Z" fill="#a9cda6"/><path d="M68.4,40c-.1,0-.1,0-.2-.1l-.4-1.3c0-.1,0-.2.1-.2l.1-.1h.1l.1.1.4,1.3V40Z" fill="#a9cda6"/><path d="M70,37.8l.2,1.8v.1l-.1.1h-.2a.2151.2151,0,0,1-.2-.2l-.2-1.9.1-.1.2-.1h.1C69.9,37.7,70,37.7,70,37.8Z" fill="#a9cda6"/><path d="M71.3,40h-.1l-.1-.1v-.1l.4-1.3.1-.1h.2l.1.1c.1,0,.1.1.1.2L71.6,40Z" fill="#a9cda6"/><path d="M72.8,40.3h0l-.2-.1-.1-.1V40l.4-.7.1-.1h.1l.1.1c.1,0,.1.1.1.2l-.3.8Z" fill="#a9cda6"/></g></g><g id="scrub_bd-9" data-name="scrub_bd" style="isolation:isolate"><g id="Scrub_FC-9" data-name="Scrub_FC"><g id="Deleted_Symbol_1-9" data-name="Deleted Symbol 1"><path d="M80.9,70.9c-.1,0-.1,0-.1-.1l-.3-1c0-.1,0-.1.1-.2l.2-.1h.1a.0979.0979,0,0,1,.1.1l.3,1c0,.1,0,.1-.1.2a.774.774,0,0,1-.3.1Z" fill="#a9cda6"/><path d="M82.7,70.7a.0979.0979,0,0,1-.1-.1V69.5h-.1a.31.31,0,0,0-.2.1h-.1c-.1,0-.1,0-.1-.1l-.1-.1v-.2a1.69,1.69,0,0,1,.5-.2.52.52,0,0,1,.4.2.6012.6012,0,0,1,.1.4v1a.0979.0979,0,0,1-.1.1Z" fill="#a9cda6"/><path d="M87,70.8h-.2c-.1,0-.1-.1-.1-.2l.3-1a.0979.0979,0,0,1,.1-.1h.3c.1,0,.1.1.1.2l-.3,1c0,.1-.1.1-.2.1Z" fill="#a9cda6"/><path d="M84.8,70.6a.3674.3674,0,0,1-.3-.1,16.7048,16.7048,0,0,0-.7-2.4.3491.3491,0,0,0-.1-.2c.1,0,.2.1.3.1,0,0,.4.2.6,1.2l.1.2c0-.1.1-2.1.8-2.4a.3491.3491,0,0,0,.2-.1.31.31,0,0,1-.1.2,4.6025,4.6025,0,0,0-.5,1.6V69a1.3807,1.3807,0,0,1,.9-.7h.1s0,.1-.2.2a6.5246,6.5246,0,0,0-.9,1.6v.5C85,70.5,84.9,70.6,84.8,70.6Z" fill="#a9cda6"/></g></g></g><g id="roughgrass_bd-9" data-name="roughgrass_bd" style="isolation:isolate"><g id="RoughGrass_FC-9" data-name="RoughGrass_FC"><path d="M86.5,65.4v.1l-.1.1h-.3l-.3-.4v-.1l.1-.1h.3Z" fill="#a9cda6"/><path d="M88.8,64.8h0a1.7265,1.7265,0,0,0-.4-.3c-.1-.2.1-.7.1-.7v-.7A1.6318,1.6318,0,0,1,88.8,64.8Z" fill="#a9cda6"/><path d="M88.7,64.8c.1.1.2.1.2.3h-.3A.438.438,0,0,0,88.7,64.8Z" fill="#a9cda6"/><path d="M90.9,64l-.5.5a2.1644,2.1644,0,0,0-.3.6v.2a.4829.4829,0,0,1-.4,0,2.18,2.18,0,0,0,.1-.6s0-1,.5-1.2c0,0,.4-.2.1.1a1.67,1.67,0,0,0-.3.9A.73.73,0,0,1,90.9,64Z" fill="#a9cda6"/><path d="M92.8,65v.1l-.3.4c0,.1-.1.1-.2,0h-.1l-.1-.1v-.1l.3-.5c0-.1.1-.1.2,0l.2.2Z" fill="#a9cda6"/><path d="M87.5,64.5l.2.7v.1l-.1.1h-.1c-.1,0-.1,0-.2-.1l-.2-.7v-.1l.1-.1h.1C87.4,64.4,87.4,64.4,87.5,64.5Z" fill="#a9cda6"/><path d="M91.4,64.4h.1l.1.1v.1l-.2.7c0,.1-.1.1-.2.1h-.1l-.1-.1v-.1l.2-.7C91.3,64.4,91.3,64.4,91.4,64.4Z" fill="#a9cda6"/></g></g><g id="heath_bd-9" data-name="heath_bd" style="isolation:isolate"><g id="Heath_FC-9" data-name="Heath_FC"><path d="M77.5,64.2c-.1,0-.1,0-.1-.1l-.4-.7v-.1a.0979.0979,0,0,1,.1-.1l.1-.1h.1l.1.1.4.7V64l-.1.1-.2.1Z" fill="#a9cda6"/><path d="M79,63.9c-.1,0-.1,0-.2-.1l-.4-1.3c0-.1,0-.2.1-.2l.1-.1h.1l.1.1.4,1.3v.1l-.1.1c0,.1,0,.1-.1.1Z" fill="#a9cda6"/><path d="M80.6,61.7l.2,1.8v.1l-.1.1h-.2a.2151.2151,0,0,1-.2-.2l-.2-1.9.1-.1.2-.1h.1C80.5,61.5,80.6,61.6,80.6,61.7Z" fill="#a9cda6"/><path d="M81.9,63.9h-.1l-.1-.1v-.1l.4-1.3.1-.1h.2l.1.1c.1,0,.1.1.1.2l-.4,1.3Z" fill="#a9cda6"/><path d="M83.4,64.2h0l-.2-.1-.1-.1v-.1l.4-.7.1-.1h.1l.1.1c.1,0,.1.1.1.2l-.4.7A.0979.0979,0,0,1,83.4,64.2Z" fill="#a9cda6"/></g></g><g id="scrub_bd-10" data-name="scrub_bd" style="isolation:isolate"><g id="Scrub_FC-10" data-name="Scrub_FC"><g id="Deleted_Symbol_1-10" data-name="Deleted Symbol 1"><path d="M54.8,92.2c-.1,0-.1,0-.1-.1l-.3-1c0-.1,0-.1.1-.2l.2-.1h.1a.0979.0979,0,0,1,.1.1l.3,1c0,.1,0,.1-.1.2a.438.438,0,0,0-.3.1Z" fill="#a9cda6"/><path d="M56.6,91.9a.0979.0979,0,0,1-.1-.1V90.7h-.1a.31.31,0,0,0-.2.1h-.1c-.1,0-.1,0-.1-.1l-.1-.1v-.2a1.69,1.69,0,0,1,.5-.2.52.52,0,0,1,.4.2.6012.6012,0,0,1,.1.4v1a.0979.0979,0,0,1-.1.1Z" fill="#a9cda6"/><path d="M60.9,92h-.2c-.1,0-.1-.1-.1-.2l.3-1a.0979.0979,0,0,1,.1-.1h.3c.1,0,.1.1.1.2L61,92s0,.1-.1,0Z" fill="#a9cda6"/><path d="M58.7,91.8a.3674.3674,0,0,1-.3-.1,16.7048,16.7048,0,0,0-.7-2.4.3491.3491,0,0,0-.1-.2c.1,0,.2.1.3.1,0,0,.4.2.6,1.2l.1.2c0-.1.1-2.1.8-2.4a.3491.3491,0,0,0,.2-.1.31.31,0,0,1-.1.2,4.6025,4.6025,0,0,0-.5,1.6v.2a1.3807,1.3807,0,0,1,.9-.7H60s0,.1-.2.2a6.5246,6.5246,0,0,0-.9,1.6v.5C58.9,91.8,58.8,91.8,58.7,91.8Z" fill="#a9cda6"/></g></g></g><g id="roughgrass_bd-10" data-name="roughgrass_bd" style="isolation:isolate"><g id="RoughGrass_FC-10" data-name="RoughGrass_FC"><path d="M60.3,86.6v.1l-.1.1h-.3l-.3-.4v-.1l.1-.1H60Z" fill="#a9cda6"/><path d="M62.6,86.1h0a1.7265,1.7265,0,0,0-.4-.3c-.1-.2.1-.7.1-.7v-.7A1.432,1.432,0,0,1,62.6,86.1Z" fill="#a9cda6"/><path d="M62.6,86.1c.1.1.2.1.2.3h-.3A.3674.3674,0,0,1,62.6,86.1Z" fill="#a9cda6"/><path d="M64.7,85.2l-.5.5a2.1644,2.1644,0,0,0-.3.6v.2a.4829.4829,0,0,1-.4,0,2.18,2.18,0,0,0,.1-.6s0-1,.5-1.2c0,0,.4-.2.1.1a1.67,1.67,0,0,0-.3.9C64,85.6,64.3,85.2,64.7,85.2Z" fill="#a9cda6"/><path d="M66.7,86.3v.1l-.3.4c0,.1-.1.1-.2,0h-.1l-.1-.1v-.1l.3-.5c0-.1.1-.1.2,0l.2.2Z" fill="#a9cda6"/><path d="M61.3,85.7l.2.7v.1l-.1.1h-.1c-.1,0-.1,0-.2-.1l-.1-.6v-.1l.1-.1h.1C61.2,85.6,61.3,85.7,61.3,85.7Z" fill="#a9cda6"/><path d="M65.3,85.7h.1l.1.1v.1l-.2.7c0,.1-.1.1-.2.1H65l-.1-.1v-.1l.2-.7C65.1,85.7,65.2,85.6,65.3,85.7Z" fill="#a9cda6"/></g></g><g id="heath_bd-10" data-name="heath_bd" style="isolation:isolate"><g id="Heath_FC-10" data-name="Heath_FC"><path d="M51.4,85.5c-.1,0-.1,0-.1-.1l-.4-.7v-.1a.0979.0979,0,0,1,.1-.1l.1-.1h.1l.1.1.4.7v.1l-.1.1-.2.1Z" fill="#a9cda6"/><path d="M52.9,85.2c-.1,0-.1,0-.2-.1l-.4-1.3c0-.1,0-.2.1-.2l.1-.1h.1l.1.1.4,1.3V85l-.1.1a.0979.0979,0,0,1-.1.1Z" fill="#a9cda6"/><path d="M54.4,83l.2,1.8v.1l-.1.1h-.2a.2151.2151,0,0,1-.2-.2L53.9,83l.1-.1.2-.1h.1C54.4,82.8,54.4,82.9,54.4,83Z" fill="#a9cda6"/><path d="M55.7,85.2h-.1l-.1-.2v-.1l.4-1.3.1-.1h.2l.1.1c.1,0,.1.1.1.2L56,85.1c-.1,0-.1.1-.3.1Z" fill="#a9cda6"/><path d="M57.3,85.5h0l-.2-.1-.1-.1v-.1l.4-.7.1-.1h.1l.1.1c.1,0,.1.1.1.2l-.4.7Z" fill="#a9cda6"/></g></g><g id="scrub_bd-11" data-name="scrub_bd" style="isolation:isolate"><g id="Scrub_FC-11" data-name="Scrub_FC"><g id="Deleted_Symbol_1-11" data-name="Deleted Symbol 1"><path d="M7.1,95c-.1,0-.1,0-.2-.1l-.3-1c0-.1,0-.1.1-.2l.2-.1H7a.0979.0979,0,0,1,.1.1l.3,1c0,.1,0,.1-.1.2a.31.31,0,0,1-.2.1Z" fill="#a9cda6"/><path d="M8.9,94.8a.0979.0979,0,0,1-.1-.1V93.6H8.7a.31.31,0,0,0-.2.1H8.4c-.1,0-.1,0-.1-.1l-.1-.1v-.2c.1-.3.2-.3.4-.3s.3,0,.4.2a.6012.6012,0,0,1,.1.4v1a.0979.0979,0,0,1-.1.1H8.9Z" fill="#a9cda6"/><path d="M13.2,94.9H13c-.1,0-.1-.1-.1-.2l.3-1a.0979.0979,0,0,1,.1-.1h.3c.1,0,.1.1.1.2l-.3,1c-.1.1-.1.1-.2.1Z" fill="#a9cda6"/><path d="M11,94.7a.3674.3674,0,0,1-.3-.1,9.2783,9.2783,0,0,0-.7-2.4.3491.3491,0,0,0-.1-.2c.1,0,.2.1.3.1,0,0,.4.2.6,1.2l.1.2c0-.1.1-2.1.8-2.4a.3491.3491,0,0,0,.2-.1.31.31,0,0,1-.1.2,4.6025,4.6025,0,0,0-.5,1.6V93a1.3807,1.3807,0,0,1,.9-.7h.1s0,.1-.2.2a6.5246,6.5246,0,0,0-.9,1.6v.5A.3491.3491,0,0,1,11,94.7Z" fill="#a9cda6"/></g></g></g><g id="roughgrass_bd-11" data-name="roughgrass_bd" style="isolation:isolate"><g id="RoughGrass_FC-11" data-name="RoughGrass_FC"><path d="M12.6,89.5v.1l-.1.1h-.3l-.2-.5v-.1l.1-.1h.3Z" fill="#a9cda6"/><path d="M14.9,88.9h0l-.3-.3c-.1-.2.1-.7.1-.7v-.7A1.4785,1.4785,0,0,1,14.9,88.9Z" fill="#a9cda6"/><path d="M14.9,88.9c.1.1.2.1.2.3h-.3A.438.438,0,0,0,14.9,88.9Z" fill="#a9cda6"/><path d="M17,88.1l-.5.5a2.1644,2.1644,0,0,0-.3.6v.2a.4829.4829,0,0,1-.4,0,2.18,2.18,0,0,0,.1-.6s0-1,.5-1.2c0,0,.4-.2.1.1a1.67,1.67,0,0,0-.3.9C16.3,88.4,16.6,88,17,88.1Z" fill="#a9cda6"/><path d="M19,89.1v.1l-.3.4c0,.1-.1.1-.2,0h-.1l-.1-.1v-.1l.3-.5c0-.1.1-.1.2,0l.2.2Z" fill="#a9cda6"/><path d="M13.6,88.6l.2.7v.1l-.1.1h-.1c-.1,0-.1,0-.2-.1l-.2-.7v-.1l.1-.1h.1C13.5,88.5,13.6,88.5,13.6,88.6Z" fill="#a9cda6"/><path d="M17.6,88.5h.1l.1.1v.1l-.2.7c0,.1-.1.1-.2.1h-.1l-.1-.1v-.1l.2-.7C17.4,88.5,17.5,88.5,17.6,88.5Z" fill="#a9cda6"/></g></g><g id="heath_bd-11" data-name="heath_bd" style="isolation:isolate"><g id="Heath_FC-11" data-name="Heath_FC"><path d="M3.7,88.3c-.1,0-.1,0-.1-.1l-.4-.7v-.1a.0979.0979,0,0,1,.1-.1l.1-.1h.1l.1.1.3.7v.1l-.1.1-.1.1Z" fill="#a9cda6"/><path d="M5.2,88c-.1,0-.2,0-.2-.1l-.4-1.3c0-.1,0-.2.1-.2l.1-.1h.1l.1.1.4,1.3V88Z" fill="#a9cda6"/><path d="M6.8,85.8,7,87.6v.1l-.1.1H6.7a.2151.2151,0,0,1-.2-.2l-.2-1.9v-.1l.2-.1h.1C6.7,85.6,6.8,85.7,6.8,85.8Z" fill="#a9cda6"/><path d="M8,88H7.9l-.1-.1v-.1l.4-1.3v-.1h.2l.1.1c.1,0,.1.1.1.2L8.2,88Z" fill="#a9cda6"/><path d="M9.6,88.3h0l-.2-.1-.1-.1V88l.4-.7.1-.1h.1l.1.1c.1,0,.1.1.1.2l-.4.7A.0979.0979,0,0,1,9.6,88.3Z" fill="#a9cda6"/></g></g></svg>