<svg id="Layer_1" data-name="Layer 1" xmlns="http://www.w3.org/2000/svg" width="33.8667mm" height="33.8667mm" viewBox="0 0 96 96"><g id="Deleted_Symbol_8" data-name="Deleted Symbol 8"><g id="Deleted_Symbol_4" data-name="Deleted Symbol 4"><path d="M3.4,6.5A.4333.4333,0,0,1,3,6.3l.1-.9H2.5a5.6385,5.6385,0,0,1-.7-.1A1.2851,1.2851,0,0,1,1,3.9a1.7457,1.7457,0,0,1,.9-1.1,1.3841,1.3841,0,0,1,.7-1.3,1.1355,1.1355,0,0,1,.8-.3,1.2922,1.2922,0,0,1,.8.2,1.2068,1.2068,0,0,1,.6,1.4,1.7038,1.7038,0,0,1,.7.4,1.3252,1.3252,0,0,1,0,1.7,1.7458,1.7458,0,0,1-1.2.4H3.8v1a.7581.7581,0,0,1-.4.2Zm0-4.8a1.2683,1.2683,0,0,0-.6.1.9338.9338,0,0,0-.4,1V3a.0979.0979,0,0,1-.1.1,1.226,1.226,0,0,0-.8.9c0,.2,0,.7.4.9a3.536,3.536,0,0,0,.6.1h.2a.6012.6012,0,0,0,.4-.1.4938.4938,0,0,1,.3-.1.438.438,0,0,1,.3.1,1.2683,1.2683,0,0,0,.6.1,1.2087,1.2087,0,0,0,.9-.3c0-.1.5-.6,0-1.1,0-.1-.2-.2-.7-.3-.1-.2-.2-.2-.2-.3V2.8a.7543.7543,0,0,0-.4-1A1.2133,1.2133,0,0,0,3.4,1.7Z" fill="#6bbe66"/></g></g><g id="Deleted_Symbol_8-2" data-name="Deleted Symbol 8"><g id="Deleted_Symbol_4-2" data-name="Deleted Symbol 4"><path d="M28.9,6.5a.4333.4333,0,0,1-.4-.2l.1-.9H28a5.6385,5.6385,0,0,1-.7-.1c-.8-.2-.8-1-.8-1.4a1.7457,1.7457,0,0,1,.9-1.1A1.1921,1.1921,0,0,1,28,1.5a1.1355,1.1355,0,0,1,.8-.3,1.2922,1.2922,0,0,1,.8.2,1.2068,1.2068,0,0,1,.6,1.4,2.6629,2.6629,0,0,1,.8.4,1.3252,1.3252,0,0,1,0,1.7,1.594,1.594,0,0,1-1.2.4h-.5v1a.7581.7581,0,0,1-.4.2Zm-.1-4.8a1.4213,1.4213,0,0,0-.6.2.9338.9338,0,0,0-.4,1v.2a.0979.0979,0,0,1-.1.1c-.2,0-.6.2-.8.8,0,.2,0,.7.4.9a3.536,3.536,0,0,0,.6.1h.2a.6012.6012,0,0,0,.4-.1.4938.4938,0,0,1,.3-.1.438.438,0,0,1,.3.1,1.2683,1.2683,0,0,0,.6.1,1.2087,1.2087,0,0,0,.9-.3c0-.1.5-.6,0-1.1,0-.1-.2-.2-.7-.3a.0979.0979,0,0,1-.1-.1V3a.7543.7543,0,0,0-.4-1Q29.4,1.7,28.8,1.7Z" fill="#6bbe66"/></g></g><g id="Deleted_Symbol_8-3" data-name="Deleted Symbol 8"><g id="Deleted_Symbol_4-3" data-name="Deleted Symbol 4"><path d="M54.4,6.5a.4333.4333,0,0,1-.4-.2l.1-.9h-.6a5.6385,5.6385,0,0,1-.7-.1A1.1773,1.1773,0,0,1,52,3.9a1.7457,1.7457,0,0,1,.9-1.1,1.1921,1.1921,0,0,1,.6-1.3,1.1355,1.1355,0,0,1,.8-.3,1.2922,1.2922,0,0,1,.8.2,1.2068,1.2068,0,0,1,.6,1.4,1.7038,1.7038,0,0,1,.7.4,1.3252,1.3252,0,0,1,0,1.7,1.594,1.594,0,0,1-1.2.4h-.5v1c0,.1-.2.2-.3.2Zm-.1-4.8a1.4213,1.4213,0,0,0-.6.2.9338.9338,0,0,0-.4,1v.2a.0979.0979,0,0,1-.1.1c-.2,0-.6.2-.8.8,0,.2,0,.7.4.9a3.536,3.536,0,0,0,.6.1h.2a.6012.6012,0,0,0,.4-.1.4938.4938,0,0,1,.3-.1.438.438,0,0,1,.3.1,1.2683,1.2683,0,0,0,.6.1,1.1021,1.1021,0,0,0,.9-.3c0-.1.5-.6,0-1.1-.1-.1-.2-.2-.7-.3a.0979.0979,0,0,1-.1-.1V3a.7543.7543,0,0,0-.4-1C54.9,1.8,54.6,1.7,54.3,1.7Z" fill="#6bbe66"/></g></g><g id="Deleted_Symbol_8-4" data-name="Deleted Symbol 8"><g id="Deleted_Symbol_4-4" data-name="Deleted Symbol 4"><path d="M79.9,6.5a.4333.4333,0,0,1-.4-.2l.1-.9H79a5.6385,5.6385,0,0,1-.7-.1c-.8-.2-.8-1-.8-1.4a1.7457,1.7457,0,0,1,.9-1.1A1.1921,1.1921,0,0,1,79,1.5a1.1355,1.1355,0,0,1,.8-.3,1.2922,1.2922,0,0,1,.8.2,1.2068,1.2068,0,0,1,.6,1.4,1.7038,1.7038,0,0,1,.7.4,1.3252,1.3252,0,0,1,0,1.7,1.594,1.594,0,0,1-1.2.4h-.5v1c0,.1-.2.2-.3.2Zm-.1-4.8a1.4213,1.4213,0,0,0-.6.2.9338.9338,0,0,0-.4,1v.2a.0979.0979,0,0,1-.1.1c-.2,0-.6.2-.8.8,0,.2,0,.7.4.9a3.536,3.536,0,0,0,.6.1h.2a.6012.6012,0,0,0,.4-.1.4938.4938,0,0,1,.3-.1.438.438,0,0,1,.3.1,1.2683,1.2683,0,0,0,.6.1,1.1021,1.1021,0,0,0,.9-.3c0-.1.5-.6,0-1.1-.1-.1-.2-.2-.7-.3a.0979.0979,0,0,1-.1-.1V3a.7543.7543,0,0,0-.4-1C80.4,1.8,80.1,1.7,79.8,1.7Z" fill="#6bbe66"/></g></g><g id="Deleted_Symbol_8-5" data-name="Deleted Symbol 8"><g id="Deleted_Symbol_4-5" data-name="Deleted Symbol 4"><path d="M16.1,19.1a.4333.4333,0,0,1-.4-.2l.1-.9h-.6a5.6385,5.6385,0,0,1-.7-.1c-.8-.2-.8-1-.8-1.4a1.7457,1.7457,0,0,1,.9-1.1,1.1921,1.1921,0,0,1,.6-1.3,1.1355,1.1355,0,0,1,.8-.3,1.2922,1.2922,0,0,1,.8.2,1.2068,1.2068,0,0,1,.6,1.4,1.7038,1.7038,0,0,1,.7.4,1.3252,1.3252,0,0,1,0,1.7A1.29,1.29,0,0,1,17,18h-.5v1a.6012.6012,0,0,1-.4.1Zm0-4.8a1.4213,1.4213,0,0,0-.6.2.9338.9338,0,0,0-.4,1v.2a.0979.0979,0,0,1-.1.1c-.2,0-.6.2-.8.8,0,.2,0,.7.4.9a3.536,3.536,0,0,0,.6.1h.2a.6012.6012,0,0,0,.4-.1.4938.4938,0,0,1,.3-.1.438.438,0,0,1,.3.1,1.2683,1.2683,0,0,0,.6.1,1.2087,1.2087,0,0,0,.9-.3c0-.1.5-.6,0-1.1,0-.1-.2-.2-.7-.3a.0979.0979,0,0,1-.1-.1v-.2a.7543.7543,0,0,0-.4-1C16.7,14.4,16.4,14.3,16.1,14.3Z" fill="#6bbe66"/></g></g><g id="Deleted_Symbol_8-6" data-name="Deleted Symbol 8"><g id="Deleted_Symbol_4-6" data-name="Deleted Symbol 4"><path d="M41.6,19.1a.4333.4333,0,0,1-.4-.2l.1-.9h-.6a5.6385,5.6385,0,0,1-.7-.1c-.8-.2-.8-1-.8-1.4a1.7457,1.7457,0,0,1,.9-1.1,1.1921,1.1921,0,0,1,.6-1.3,1.1355,1.1355,0,0,1,.8-.3,1.2922,1.2922,0,0,1,.8.2,1.2068,1.2068,0,0,1,.6,1.4,1.7038,1.7038,0,0,1,.7.4,1.3252,1.3252,0,0,1,0,1.7,1.29,1.29,0,0,1-1.1.5H42v1a.6012.6012,0,0,1-.4.1Zm0-4.8a1.4213,1.4213,0,0,0-.6.2.9338.9338,0,0,0-.4,1v.2a.0979.0979,0,0,1-.1.1c-.2,0-.6.2-.8.8,0,.2,0,.7.4.9a3.536,3.536,0,0,0,.6.1h.2a.6012.6012,0,0,0,.4-.1.4938.4938,0,0,1,.3-.1.438.438,0,0,1,.3.1,1.2683,1.2683,0,0,0,.6.1,1.2087,1.2087,0,0,0,.9-.3c0-.1.5-.6,0-1.1,0-.1-.2-.2-.7-.3a.0979.0979,0,0,1-.1-.1v-.2a.7543.7543,0,0,0-.4-1A.6047.6047,0,0,0,41.6,14.3Z" fill="#6bbe66"/></g></g><g id="Deleted_Symbol_8-7" data-name="Deleted Symbol 8"><g id="Deleted_Symbol_4-7" data-name="Deleted Symbol 4"><path d="M67.1,19.1a.4333.4333,0,0,1-.4-.2l.1-.9h-.6a5.6385,5.6385,0,0,1-.7-.1c-.8-.2-.8-1-.8-1.4a1.7457,1.7457,0,0,1,.9-1.1,1.1921,1.1921,0,0,1,.6-1.3,1.1355,1.1355,0,0,1,.8-.3,1.2922,1.2922,0,0,1,.8.2,1.2068,1.2068,0,0,1,.6,1.4,1.7038,1.7038,0,0,1,.7.4,1.3252,1.3252,0,0,1,0,1.7A1.29,1.29,0,0,1,68,18h-.5v1a.6012.6012,0,0,1-.4.1Zm0-4.8a1.4213,1.4213,0,0,0-.6.2.9338.9338,0,0,0-.4,1v.2a.0979.0979,0,0,1-.1.1c-.2,0-.6.2-.8.8,0,.2,0,.7.4.9a3.536,3.536,0,0,0,.6.1h.2a.6012.6012,0,0,0,.4-.1.4938.4938,0,0,1,.3-.1.438.438,0,0,1,.3.1,1.2683,1.2683,0,0,0,.6.1,1.1021,1.1021,0,0,0,.9-.3c0-.1.5-.6,0-1.1-.1-.1-.2-.2-.7-.3a.0979.0979,0,0,1-.1-.1v-.2a.7543.7543,0,0,0-.4-1A.6047.6047,0,0,0,67.1,14.3Z" fill="#6bbe66"/></g></g><g id="Deleted_Symbol_8-8" data-name="Deleted Symbol 8"><g id="Deleted_Symbol_4-8" data-name="Deleted Symbol 4"><path d="M92.6,19.1a.4333.4333,0,0,1-.4-.2l.1-.9h-.6a5.6385,5.6385,0,0,1-.7-.1c-.8-.2-.8-1-.8-1.4a1.7457,1.7457,0,0,1,.9-1.1,1.1921,1.1921,0,0,1,.6-1.3,1.1355,1.1355,0,0,1,.8-.3,1.2922,1.2922,0,0,1,.8.2,1.2068,1.2068,0,0,1,.6,1.4,1.7038,1.7038,0,0,1,.7.4,1.3252,1.3252,0,0,1,0,1.7,1.29,1.29,0,0,1-1.1.5H93v1a.6012.6012,0,0,1-.4.1Zm0-4.8a1.4213,1.4213,0,0,0-.6.2.9338.9338,0,0,0-.4,1v.2a.0979.0979,0,0,1-.1.1c-.2,0-.6.2-.8.8,0,.2,0,.7.4.9a3.536,3.536,0,0,0,.6.1h.2a.6012.6012,0,0,0,.4-.1.4938.4938,0,0,1,.3-.1.438.438,0,0,1,.3.1,1.2683,1.2683,0,0,0,.6.1,1.1021,1.1021,0,0,0,.9-.3c0-.1.5-.6,0-1.1-.1-.1-.2-.2-.7-.3a.0979.0979,0,0,1-.1-.1v-.2a.7543.7543,0,0,0-.4-1A.6047.6047,0,0,0,92.6,14.3Z" fill="#6bbe66"/></g></g><g id="Deleted_Symbol_8-9" data-name="Deleted Symbol 8"><g id="Deleted_Symbol_4-9" data-name="Deleted Symbol 4"><path d="M3.4,31.7a.4333.4333,0,0,1-.4-.2l.1-.9H2.5a5.6385,5.6385,0,0,1-.7-.1c-.8-.2-.8-1-.8-1.4A1.7457,1.7457,0,0,1,1.9,28a1.1921,1.1921,0,0,1,.6-1.3,1.1355,1.1355,0,0,1,.8-.3,1.2922,1.2922,0,0,1,.8.2A1.2068,1.2068,0,0,1,4.7,28a1.7038,1.7038,0,0,1,.7.4,1.3252,1.3252,0,0,1,0,1.7,1.594,1.594,0,0,1-1.2.4H3.7v1c0,.2-.2.2-.3.2Zm0-4.8a1.4213,1.4213,0,0,0-.6.2.9338.9338,0,0,0-.4,1v.2a.0979.0979,0,0,1-.1.1c-.2,0-.6.2-.8.8,0,.2,0,.7.4.9a3.536,3.536,0,0,0,.6.1h.2a.6012.6012,0,0,0,.4-.1.4938.4938,0,0,1,.3-.1.438.438,0,0,1,.3.1,1.2683,1.2683,0,0,0,.6.1,1.2087,1.2087,0,0,0,.9-.3c0-.1.5-.6,0-1.1,0-.1-.2-.2-.7-.3a.0979.0979,0,0,1-.1-.1v-.2a.7543.7543,0,0,0-.4-1A.6047.6047,0,0,0,3.4,26.9Z" fill="#6bbe66"/></g></g><g id="Deleted_Symbol_8-10" data-name="Deleted Symbol 8"><g id="Deleted_Symbol_4-10" data-name="Deleted Symbol 4"><path d="M28.9,31.7a.4333.4333,0,0,1-.4-.2l.1-.9H28a5.6385,5.6385,0,0,1-.7-.1c-.8-.2-.8-1-.8-1.4a1.7457,1.7457,0,0,1,.9-1.1,1.1921,1.1921,0,0,1,.6-1.3,1.1355,1.1355,0,0,1,.8-.3,1.2922,1.2922,0,0,1,.8.2,1.2068,1.2068,0,0,1,.6,1.4,1.7038,1.7038,0,0,1,.7.4,1.3252,1.3252,0,0,1,0,1.7,1.594,1.594,0,0,1-1.2.4h-.5v1c0,.2-.2.2-.3.2Zm-.1-4.8a1.4213,1.4213,0,0,0-.6.2.9338.9338,0,0,0-.4,1v.2a.0979.0979,0,0,1-.1.1c-.2,0-.6.2-.8.8,0,.2,0,.7.4.9a3.536,3.536,0,0,0,.6.1h.2a.6012.6012,0,0,0,.4-.1.4938.4938,0,0,1,.3-.1.438.438,0,0,1,.3.1,1.2683,1.2683,0,0,0,.6.1,1.2087,1.2087,0,0,0,.9-.3c0-.1.5-.6,0-1.1,0-.1-.2-.2-.7-.3a.0979.0979,0,0,1-.1-.1v-.2a.7543.7543,0,0,0-.4-1Q29.4,26.9,28.8,26.9Z" fill="#6bbe66"/></g></g><g id="Deleted_Symbol_8-11" data-name="Deleted Symbol 8"><g id="Deleted_Symbol_4-11" data-name="Deleted Symbol 4"><path d="M54.4,31.7a.4333.4333,0,0,1-.4-.2l.1-.9h-.6a5.6385,5.6385,0,0,1-.7-.1c-.8-.2-.8-1-.8-1.4a1.7457,1.7457,0,0,1,.9-1.1,1.1921,1.1921,0,0,1,.6-1.3,1.1355,1.1355,0,0,1,.8-.3,1.2922,1.2922,0,0,1,.8.2,1.2068,1.2068,0,0,1,.6,1.4,1.7038,1.7038,0,0,1,.7.4,1.3252,1.3252,0,0,1,0,1.7,1.594,1.594,0,0,1-1.2.4h-.5v1c0,.2-.2.2-.3.2Zm-.1-4.8a1.4213,1.4213,0,0,0-.6.2.9338.9338,0,0,0-.4,1v.2a.0979.0979,0,0,1-.1.1c-.2,0-.6.2-.8.8,0,.2,0,.7.4.9a3.536,3.536,0,0,0,.6.1h.2a.6012.6012,0,0,0,.4-.1.4938.4938,0,0,1,.3-.1.438.438,0,0,1,.3.1,1.2683,1.2683,0,0,0,.6.1,1.1021,1.1021,0,0,0,.9-.3c0-.1.5-.6,0-1.1-.1-.1-.2-.2-.7-.3a.0979.0979,0,0,1-.1-.1v-.2a.7543.7543,0,0,0-.4-1C54.9,27,54.6,26.9,54.3,26.9Z" fill="#6bbe66"/></g></g><g id="Deleted_Symbol_8-12" data-name="Deleted Symbol 8"><g id="Deleted_Symbol_4-12" data-name="Deleted Symbol 4"><path d="M79.9,31.7a.4333.4333,0,0,1-.4-.2l.1-.9H79a5.6385,5.6385,0,0,1-.7-.1c-.8-.2-.8-1-.8-1.4a1.7457,1.7457,0,0,1,.9-1.1,1.1921,1.1921,0,0,1,.6-1.3,1.1355,1.1355,0,0,1,.8-.3,1.2922,1.2922,0,0,1,.8.2,1.2068,1.2068,0,0,1,.6,1.4,1.7038,1.7038,0,0,1,.7.4,1.3252,1.3252,0,0,1,0,1.7,1.594,1.594,0,0,1-1.2.4h-.5v1c0,.2-.2.2-.3.2Zm-.1-4.8a1.4213,1.4213,0,0,0-.6.2.9338.9338,0,0,0-.4,1v.2a.0979.0979,0,0,1-.1.1c-.2,0-.6.2-.8.8,0,.2,0,.7.4.9a3.536,3.536,0,0,0,.6.1h.2a.6012.6012,0,0,0,.4-.1.4938.4938,0,0,1,.3-.1.438.438,0,0,1,.3.1,1.2683,1.2683,0,0,0,.6.1,1.1021,1.1021,0,0,0,.9-.3c0-.1.5-.6,0-1.1-.1-.1-.2-.2-.7-.3a.0979.0979,0,0,1-.1-.1v-.2a.7543.7543,0,0,0-.4-1C80.4,27,80.1,26.9,79.8,26.9Z" fill="#6bbe66"/></g></g><g id="Deleted_Symbol_8-13" data-name="Deleted Symbol 8"><g id="Deleted_Symbol_4-13" data-name="Deleted Symbol 4"><path d="M16.1,44.3a.4333.4333,0,0,1-.4-.2l.1-.9h-.6a5.6385,5.6385,0,0,1-.7-.1c-.8-.2-.8-1-.8-1.4a1.7457,1.7457,0,0,1,.9-1.1,1.1921,1.1921,0,0,1,.6-1.3A1.1355,1.1355,0,0,1,16,39a1.2922,1.2922,0,0,1,.8.2,1.2068,1.2068,0,0,1,.6,1.4,1.7038,1.7038,0,0,1,.7.4,1.3252,1.3252,0,0,1,0,1.7,1.594,1.594,0,0,1-1.2.4h-.5v1c0,.2-.2.2-.3.2Zm0-4.8a1.4213,1.4213,0,0,0-.6.2.9338.9338,0,0,0-.4,1v.2a.0979.0979,0,0,1-.1.1c-.2,0-.6.2-.8.8,0,.2,0,.7.4.9a3.536,3.536,0,0,0,.6.1h.2a.6012.6012,0,0,0,.4-.1.4938.4938,0,0,1,.3-.1.438.438,0,0,1,.3.1,1.2683,1.2683,0,0,0,.6.1,1.2087,1.2087,0,0,0,.9-.3c0-.1.5-.6,0-1.1,0-.1-.2-.2-.7-.3a.0979.0979,0,0,1-.1-.1v-.2a.7543.7543,0,0,0-.4-1C16.7,39.7,16.4,39.5,16.1,39.5Z" fill="#6bbe66"/></g></g><g id="Deleted_Symbol_8-14" data-name="Deleted Symbol 8"><g id="Deleted_Symbol_4-14" data-name="Deleted Symbol 4"><path d="M41.6,44.3a.4333.4333,0,0,1-.4-.2l.1-.9h-.6a5.6385,5.6385,0,0,1-.7-.1c-.8-.2-.8-1-.8-1.4a1.7457,1.7457,0,0,1,.9-1.1,1.1921,1.1921,0,0,1,.6-1.3,1.1355,1.1355,0,0,1,.8-.3,1.2922,1.2922,0,0,1,.8.2,1.2068,1.2068,0,0,1,.6,1.4,1.7038,1.7038,0,0,1,.7.4,1.3252,1.3252,0,0,1,0,1.7,1.594,1.594,0,0,1-1.2.4h-.5v1c0,.2-.2.2-.3.2Zm0-4.8a1.4213,1.4213,0,0,0-.6.2.9338.9338,0,0,0-.4,1v.2a.0979.0979,0,0,1-.1.1c-.2,0-.6.2-.8.8,0,.2,0,.7.4.9a3.536,3.536,0,0,0,.6.1h.2a.6012.6012,0,0,0,.4-.1.4938.4938,0,0,1,.3-.1.438.438,0,0,1,.3.1,1.2683,1.2683,0,0,0,.6.1,1.2087,1.2087,0,0,0,.9-.3c0-.1.5-.6,0-1.1,0-.1-.2-.2-.7-.3a.0979.0979,0,0,1-.1-.1v-.2a.7543.7543,0,0,0-.4-1A.8547.8547,0,0,0,41.6,39.5Z" fill="#6bbe66"/></g></g><g id="Deleted_Symbol_8-15" data-name="Deleted Symbol 8"><g id="Deleted_Symbol_4-15" data-name="Deleted Symbol 4"><path d="M67.1,44.3a.4333.4333,0,0,1-.4-.2l.1-.9h-.6a5.6385,5.6385,0,0,1-.7-.1c-.8-.2-.8-1-.8-1.4a1.7457,1.7457,0,0,1,.9-1.1,1.1921,1.1921,0,0,1,.6-1.3A1.1355,1.1355,0,0,1,67,39a1.2922,1.2922,0,0,1,.8.2,1.2068,1.2068,0,0,1,.6,1.4,1.7038,1.7038,0,0,1,.7.4,1.3252,1.3252,0,0,1,0,1.7,1.594,1.594,0,0,1-1.2.4h-.5v1c0,.2-.2.2-.3.2Zm0-4.8a1.4213,1.4213,0,0,0-.6.2.9338.9338,0,0,0-.4,1v.2a.0979.0979,0,0,1-.1.1c-.2,0-.6.2-.8.8,0,.2,0,.7.4.9a3.536,3.536,0,0,0,.6.1h.2a.6012.6012,0,0,0,.4-.1.4938.4938,0,0,1,.3-.1.438.438,0,0,1,.3.1,1.2683,1.2683,0,0,0,.6.1,1.1021,1.1021,0,0,0,.9-.3c0-.1.5-.6,0-1.1-.1-.1-.2-.2-.7-.3a.0979.0979,0,0,1-.1-.1v-.2a.7543.7543,0,0,0-.4-1A.8547.8547,0,0,0,67.1,39.5Z" fill="#6bbe66"/></g></g><g id="Deleted_Symbol_8-16" data-name="Deleted Symbol 8"><g id="Deleted_Symbol_4-16" data-name="Deleted Symbol 4"><path d="M92.6,44.3a.4333.4333,0,0,1-.4-.2l.1-.9h-.6a5.6385,5.6385,0,0,1-.7-.1c-.8-.2-.8-1-.8-1.4a1.7457,1.7457,0,0,1,.9-1.1,1.1921,1.1921,0,0,1,.6-1.3,1.1355,1.1355,0,0,1,.8-.3,1.2922,1.2922,0,0,1,.8.2,1.2068,1.2068,0,0,1,.6,1.4,1.7038,1.7038,0,0,1,.7.4,1.3252,1.3252,0,0,1,0,1.7,1.594,1.594,0,0,1-1.2.4h-.5v1c0,.2-.2.2-.3.2Zm0-4.8a1.4213,1.4213,0,0,0-.6.2.9338.9338,0,0,0-.4,1v.2a.0979.0979,0,0,1-.1.1c-.2,0-.6.2-.8.8,0,.2,0,.7.4.9a3.536,3.536,0,0,0,.6.1h.2a.6012.6012,0,0,0,.4-.1.4938.4938,0,0,1,.3-.1.438.438,0,0,1,.3.1,1.2683,1.2683,0,0,0,.6.1,1.1021,1.1021,0,0,0,.9-.3c0-.1.5-.6,0-1.1-.1-.1-.2-.2-.7-.3a.0979.0979,0,0,1-.1-.1v-.2a.7543.7543,0,0,0-.4-1A.8547.8547,0,0,0,92.6,39.5Z" fill="#6bbe66"/></g></g><g id="Deleted_Symbol_8-17" data-name="Deleted Symbol 8"><g id="Deleted_Symbol_4-17" data-name="Deleted Symbol 4"><path d="M3.4,56.9a.4333.4333,0,0,1-.4-.2l.1-.9H2.5a5.6385,5.6385,0,0,1-.7-.1A1.1743,1.1743,0,0,1,1,54.4a1.7457,1.7457,0,0,1,.9-1.1A1.1921,1.1921,0,0,1,2.5,52a1.1355,1.1355,0,0,1,.8-.3,1.2922,1.2922,0,0,1,.8.2,1.2068,1.2068,0,0,1,.6,1.4,1.7038,1.7038,0,0,1,.7.4,1.3252,1.3252,0,0,1,0,1.7,1.594,1.594,0,0,1-1.2.4H3.7v1c0,.1-.2.1-.3.1Zm0-4.8a1.4213,1.4213,0,0,0-.6.2.9338.9338,0,0,0-.4,1v.2a.0979.0979,0,0,1-.1.1c-.2,0-.6.2-.8.8,0,.2,0,.7.4.9a3.536,3.536,0,0,0,.6.1h.2a.6012.6012,0,0,0,.4-.1.4938.4938,0,0,1,.3-.1.438.438,0,0,1,.3.1,1.2683,1.2683,0,0,0,.6.1,1.2087,1.2087,0,0,0,.9-.3c0-.1.5-.6,0-1.1,0-.1-.2-.2-.7-.3a.0979.0979,0,0,1-.1-.1v-.2a.7543.7543,0,0,0-.4-1A.8547.8547,0,0,0,3.4,52.1Z" fill="#6bbe66"/></g></g><g id="Deleted_Symbol_8-18" data-name="Deleted Symbol 8"><g id="Deleted_Symbol_4-18" data-name="Deleted Symbol 4"><path d="M28.9,56.9a.4333.4333,0,0,1-.4-.2l.1-.9H28a5.6385,5.6385,0,0,1-.7-.1c-.8-.2-.8-1-.8-1.4a1.7457,1.7457,0,0,1,.9-1.1,1.1921,1.1921,0,0,1,.6-1.3,1.1355,1.1355,0,0,1,.8-.3,1.2922,1.2922,0,0,1,.8.2,1.2068,1.2068,0,0,1,.6,1.4,1.7038,1.7038,0,0,1,.7.4,1.3252,1.3252,0,0,1,0,1.7,1.594,1.594,0,0,1-1.2.4h-.5v1c0,.2-.2.2-.3.2Zm-.1-4.8a1.4213,1.4213,0,0,0-.6.2.9338.9338,0,0,0-.4,1v.2a.0979.0979,0,0,1-.1.1c-.2,0-.6.2-.8.8,0,.2,0,.7.4.9a3.536,3.536,0,0,0,.6.1h.2a.6012.6012,0,0,0,.4-.1.4938.4938,0,0,1,.3-.1.438.438,0,0,1,.3.1,1.2683,1.2683,0,0,0,.6.1,1.2087,1.2087,0,0,0,.9-.3c0-.1.5-.6,0-1.1,0-.1-.2-.2-.7-.3a.0979.0979,0,0,1-.1-.1v-.2a.7543.7543,0,0,0-.4-1C29.4,52.3,29.2,52.1,28.8,52.1Z" fill="#6bbe66"/></g></g><g id="Deleted_Symbol_8-19" data-name="Deleted Symbol 8"><g id="Deleted_Symbol_4-19" data-name="Deleted Symbol 4"><path d="M54.4,56.9a.4333.4333,0,0,1-.4-.2l.1-.9h-.6a5.6385,5.6385,0,0,1-.7-.1c-.8-.2-.8-1-.8-1.4a1.7457,1.7457,0,0,1,.9-1.1,1.1921,1.1921,0,0,1,.6-1.3,1.1355,1.1355,0,0,1,.8-.3,1.2922,1.2922,0,0,1,.8.2,1.2068,1.2068,0,0,1,.6,1.4,1.7038,1.7038,0,0,1,.7.4,1.3252,1.3252,0,0,1,0,1.7,1.594,1.594,0,0,1-1.2.4h-.5v1c0,.2-.2.2-.3.2Zm-.1-4.8a1.4213,1.4213,0,0,0-.6.2.9338.9338,0,0,0-.4,1v.2a.0979.0979,0,0,1-.1.1c-.2,0-.6.2-.8.8,0,.2,0,.7.4.9a3.536,3.536,0,0,0,.6.1h.2a.6012.6012,0,0,0,.4-.1.4938.4938,0,0,1,.3-.1.438.438,0,0,1,.3.1,1.2683,1.2683,0,0,0,.6.1,1.1021,1.1021,0,0,0,.9-.3c0-.1.5-.6,0-1.1-.1-.1-.2-.2-.7-.3a.0979.0979,0,0,1-.1-.1v-.2a.7543.7543,0,0,0-.4-1C54.9,52.3,54.6,52.1,54.3,52.1Z" fill="#6bbe66"/></g></g><g id="Deleted_Symbol_8-20" data-name="Deleted Symbol 8"><g id="Deleted_Symbol_4-20" data-name="Deleted Symbol 4"><path d="M79.9,56.9a.4333.4333,0,0,1-.4-.2l.1-.9H79a5.6385,5.6385,0,0,1-.7-.1c-.8-.2-.8-1-.8-1.4a1.7457,1.7457,0,0,1,.9-1.1,1.1921,1.1921,0,0,1,.6-1.3,1.1355,1.1355,0,0,1,.8-.3,1.2922,1.2922,0,0,1,.8.2,1.2068,1.2068,0,0,1,.6,1.4,1.7038,1.7038,0,0,1,.7.4,1.3252,1.3252,0,0,1,0,1.7,1.594,1.594,0,0,1-1.2.4h-.5v1c0,.2-.2.2-.3.2Zm-.1-4.8a1.4213,1.4213,0,0,0-.6.2.9338.9338,0,0,0-.4,1v.2a.0979.0979,0,0,1-.1.1c-.2,0-.6.2-.8.8,0,.2,0,.7.4.9a3.536,3.536,0,0,0,.6.1h.2a.6012.6012,0,0,0,.4-.1.4938.4938,0,0,1,.3-.1.438.438,0,0,1,.3.1,1.2683,1.2683,0,0,0,.6.1,1.1021,1.1021,0,0,0,.9-.3c0-.1.5-.6,0-1.1-.1-.1-.2-.2-.7-.3a.0979.0979,0,0,1-.1-.1v-.2a.7543.7543,0,0,0-.4-1C80.4,52.3,80.1,52.1,79.8,52.1Z" fill="#6bbe66"/></g></g><g id="Deleted_Symbol_8-21" data-name="Deleted Symbol 8"><g id="Deleted_Symbol_4-21" data-name="Deleted Symbol 4"><path d="M16.1,69.6a.4333.4333,0,0,1-.4-.2l.1-.9h-.6a5.6385,5.6385,0,0,1-.7-.1c-.8-.2-.8-1-.8-1.4a1.7457,1.7457,0,0,1,.9-1.1,1.1921,1.1921,0,0,1,.6-1.3,1.1355,1.1355,0,0,1,.8-.3,1.2922,1.2922,0,0,1,.8.2,1.2068,1.2068,0,0,1,.6,1.4,1.7038,1.7038,0,0,1,.7.4,1.3252,1.3252,0,0,1,0,1.7,1.594,1.594,0,0,1-1.2.4h-.5v1c0,.1-.2.2-.3.2Zm0-4.8a1.4213,1.4213,0,0,0-.6.2.9338.9338,0,0,0-.4,1v.2a.0979.0979,0,0,1-.1.1c-.2,0-.6.2-.8.8,0,.2,0,.7.4.9a3.536,3.536,0,0,0,.6.1h.2a.6012.6012,0,0,0,.4-.1.4938.4938,0,0,1,.3-.1.438.438,0,0,1,.3.1,1.2683,1.2683,0,0,0,.6.1,1.2087,1.2087,0,0,0,.9-.3c0-.1.5-.6,0-1.1,0-.1-.2-.2-.7-.3a.0979.0979,0,0,1-.1-.1v-.2a.7543.7543,0,0,0-.4-1C16.7,64.9,16.4,64.8,16.1,64.8Z" fill="#6bbe66"/></g></g><g id="Deleted_Symbol_8-22" data-name="Deleted Symbol 8"><g id="Deleted_Symbol_4-22" data-name="Deleted Symbol 4"><path d="M41.6,69.6a.4333.4333,0,0,1-.4-.2l.1-.9h-.6a5.6385,5.6385,0,0,1-.7-.1c-.8-.2-.8-1-.8-1.4a1.7457,1.7457,0,0,1,.9-1.1,1.1921,1.1921,0,0,1,.6-1.3,1.1355,1.1355,0,0,1,.8-.3,1.2922,1.2922,0,0,1,.8.2,1.2068,1.2068,0,0,1,.6,1.4,1.7038,1.7038,0,0,1,.7.4,1.3252,1.3252,0,0,1,0,1.7,1.594,1.594,0,0,1-1.2.4h-.5v1c0,.1-.2.2-.3.2Zm0-4.8a1.4213,1.4213,0,0,0-.6.2.9338.9338,0,0,0-.4,1v.2a.0979.0979,0,0,1-.1.1c-.2,0-.6.2-.8.8,0,.2,0,.7.4.9a3.536,3.536,0,0,0,.6.1h.2a.6012.6012,0,0,0,.4-.1.4938.4938,0,0,1,.3-.1.438.438,0,0,1,.3.1,1.2683,1.2683,0,0,0,.6.1,1.2087,1.2087,0,0,0,.9-.3c0-.1.5-.6,0-1.1,0-.1-.2-.2-.7-.3a.0979.0979,0,0,1-.1-.1v-.2a.7543.7543,0,0,0-.4-1A.6047.6047,0,0,0,41.6,64.8Z" fill="#6bbe66"/></g></g><g id="Deleted_Symbol_8-23" data-name="Deleted Symbol 8"><g id="Deleted_Symbol_4-23" data-name="Deleted Symbol 4"><path d="M67.1,69.6a.4333.4333,0,0,1-.4-.2l.1-.9h-.6a5.6385,5.6385,0,0,1-.7-.1c-.8-.2-.8-1-.8-1.4a1.7457,1.7457,0,0,1,.9-1.1,1.1921,1.1921,0,0,1,.6-1.3,1.1355,1.1355,0,0,1,.8-.3,1.2922,1.2922,0,0,1,.8.2,1.2068,1.2068,0,0,1,.6,1.4,1.7038,1.7038,0,0,1,.7.4,1.3252,1.3252,0,0,1,0,1.7,1.594,1.594,0,0,1-1.2.4h-.5v1c0,.1-.2.2-.3.2Zm0-4.8a1.4213,1.4213,0,0,0-.6.2.9338.9338,0,0,0-.4,1v.2a.0979.0979,0,0,1-.1.1c-.2,0-.6.2-.8.8,0,.2,0,.7.4.9a3.536,3.536,0,0,0,.6.1h.2a.6012.6012,0,0,0,.4-.1.4938.4938,0,0,1,.3-.1.438.438,0,0,1,.3.1,1.2683,1.2683,0,0,0,.6.1,1.1021,1.1021,0,0,0,.9-.3c0-.1.5-.6,0-1.1-.1-.1-.2-.2-.7-.3a.0979.0979,0,0,1-.1-.1v-.2a.7543.7543,0,0,0-.4-1A.6047.6047,0,0,0,67.1,64.8Z" fill="#6bbe66"/></g></g><g id="Deleted_Symbol_8-24" data-name="Deleted Symbol 8"><g id="Deleted_Symbol_4-24" data-name="Deleted Symbol 4"><path d="M92.6,69.6a.4333.4333,0,0,1-.4-.2l.1-.9h-.6a5.6385,5.6385,0,0,1-.7-.1c-.8-.2-.8-1-.8-1.4a1.7457,1.7457,0,0,1,.9-1.1,1.1921,1.1921,0,0,1,.6-1.3,1.1355,1.1355,0,0,1,.8-.3,1.2922,1.2922,0,0,1,.8.2,1.2068,1.2068,0,0,1,.6,1.4,1.7038,1.7038,0,0,1,.7.4,1.3252,1.3252,0,0,1,0,1.7,1.594,1.594,0,0,1-1.2.4h-.5v1c0,.1-.2.2-.3.2Zm0-4.8a1.4213,1.4213,0,0,0-.6.2.9338.9338,0,0,0-.4,1v.2a.0979.0979,0,0,1-.1.1c-.2,0-.6.2-.8.8,0,.2,0,.7.4.9a3.536,3.536,0,0,0,.6.1h.2a.6012.6012,0,0,0,.4-.1.4938.4938,0,0,1,.3-.1.438.438,0,0,1,.3.1,1.2683,1.2683,0,0,0,.6.1,1.1021,1.1021,0,0,0,.9-.3c0-.1.5-.6,0-1.1-.1-.1-.2-.2-.7-.3a.0979.0979,0,0,1-.1-.1v-.2a.7543.7543,0,0,0-.4-1A.6047.6047,0,0,0,92.6,64.8Z" fill="#6bbe66"/></g></g><g id="Deleted_Symbol_8-25" data-name="Deleted Symbol 8"><g id="Deleted_Symbol_4-25" data-name="Deleted Symbol 4"><path d="M3.4,82.2A.4333.4333,0,0,1,3,82l.1-1H2.5a5.6385,5.6385,0,0,1-.7-.1C1,80.7,1,80,1,79.6a1.7457,1.7457,0,0,1,.9-1.1,1.1921,1.1921,0,0,1,.6-1.3,1.1355,1.1355,0,0,1,.8-.3,1.2922,1.2922,0,0,1,.8.2,1.2068,1.2068,0,0,1,.6,1.4,1.7038,1.7038,0,0,1,.7.4,1.3252,1.3252,0,0,1,0,1.7,1.3658,1.3658,0,0,1-1.1.4H3.8v1a.3992.3992,0,0,1-.4.2Zm0-4.8a1.4213,1.4213,0,0,0-.6.2.9338.9338,0,0,0-.4,1v.2a.0979.0979,0,0,1-.1.1c-.2,0-.6.2-.8.8,0,.2,0,.7.4.9a3.536,3.536,0,0,0,.6.1h.2a.6012.6012,0,0,0,.4-.1.4938.4938,0,0,1,.3-.1.438.438,0,0,1,.3.1,1.2683,1.2683,0,0,0,.6.1,1.2087,1.2087,0,0,0,.9-.3c0-.1.5-.6,0-1.1,0-.1-.2-.2-.7-.3a.0979.0979,0,0,1-.1-.1v-.2a.7543.7543,0,0,0-.4-1A.6047.6047,0,0,0,3.4,77.4Z" fill="#6bbe66"/></g></g><g id="Deleted_Symbol_8-26" data-name="Deleted Symbol 8"><g id="Deleted_Symbol_4-26" data-name="Deleted Symbol 4"><path d="M28.9,82.2a.4333.4333,0,0,1-.4-.2l.1-.9H28a5.6385,5.6385,0,0,1-.7-.1c-.8-.2-.8-1-.8-1.4a1.7457,1.7457,0,0,1,.9-1.1,1.1921,1.1921,0,0,1,.6-1.3,1.1355,1.1355,0,0,1,.8-.3,1.2922,1.2922,0,0,1,.8.2,1.2068,1.2068,0,0,1,.6,1.4,1.7038,1.7038,0,0,1,.7.4,1.3252,1.3252,0,0,1,0,1.7,1.594,1.594,0,0,1-1.2.4h-.5v1c0,.2-.2.2-.3.2Zm-.1-4.8a1.4213,1.4213,0,0,0-.6.2.9338.9338,0,0,0-.4,1v.2a.0979.0979,0,0,1-.1.1c-.2,0-.6.2-.8.8,0,.2,0,.7.4.9a3.536,3.536,0,0,0,.6.1h.2a.6012.6012,0,0,0,.4-.1.4938.4938,0,0,1,.3-.1.438.438,0,0,1,.3.1,1.2683,1.2683,0,0,0,.6.1,1.2087,1.2087,0,0,0,.9-.3c0-.1.5-.6,0-1.1,0-.1-.2-.2-.7-.3a.0979.0979,0,0,1-.1-.1v-.2a.7543.7543,0,0,0-.4-1Q29.4,77.4,28.8,77.4Z" fill="#6bbe66"/></g></g><g id="Deleted_Symbol_8-27" data-name="Deleted Symbol 8"><g id="Deleted_Symbol_4-27" data-name="Deleted Symbol 4"><path d="M54.4,82.2A.4333.4333,0,0,1,54,82l.1-.9h-.6a5.6385,5.6385,0,0,1-.7-.1c-.8-.2-.8-1-.8-1.4a1.7457,1.7457,0,0,1,.9-1.1,1.1921,1.1921,0,0,1,.6-1.3,1.1355,1.1355,0,0,1,.8-.3,1.2922,1.2922,0,0,1,.8.2,1.2068,1.2068,0,0,1,.6,1.4,1.7038,1.7038,0,0,1,.7.4,1.3252,1.3252,0,0,1,0,1.7,1.594,1.594,0,0,1-1.2.4h-.5v1c0,.2-.2.2-.3.2Zm-.1-4.8a1.4213,1.4213,0,0,0-.6.2.9338.9338,0,0,0-.4,1v.2a.0979.0979,0,0,1-.1.1c-.2,0-.6.2-.8.8,0,.2,0,.7.4.9a3.536,3.536,0,0,0,.6.1h.2a.6012.6012,0,0,0,.4-.1.4938.4938,0,0,1,.3-.1.438.438,0,0,1,.3.1,1.2683,1.2683,0,0,0,.6.1,1.1021,1.1021,0,0,0,.9-.3c0-.1.5-.6,0-1.1-.1-.1-.2-.2-.7-.3a.0979.0979,0,0,1-.1-.1v-.2a.7543.7543,0,0,0-.4-1C54.9,77.5,54.6,77.4,54.3,77.4Z" fill="#6bbe66"/></g></g><g id="Deleted_Symbol_8-28" data-name="Deleted Symbol 8"><g id="Deleted_Symbol_4-28" data-name="Deleted Symbol 4"><path d="M79.9,82.2a.4333.4333,0,0,1-.4-.2l.1-.9H79a5.6385,5.6385,0,0,1-.7-.1c-.8-.2-.8-1-.8-1.4a1.7457,1.7457,0,0,1,.9-1.1,1.1921,1.1921,0,0,1,.6-1.3,1.1355,1.1355,0,0,1,.8-.3,1.2922,1.2922,0,0,1,.8.2,1.2068,1.2068,0,0,1,.6,1.4,1.7038,1.7038,0,0,1,.7.4,1.3252,1.3252,0,0,1,0,1.7,1.594,1.594,0,0,1-1.2.4h-.5v1c0,.2-.2.2-.3.2Zm-.1-4.8a1.4213,1.4213,0,0,0-.6.2.9338.9338,0,0,0-.4,1v.2a.0979.0979,0,0,1-.1.1c-.2,0-.6.2-.8.8,0,.2,0,.7.4.9a3.536,3.536,0,0,0,.6.1h.2a.6012.6012,0,0,0,.4-.1.4938.4938,0,0,1,.3-.1.438.438,0,0,1,.3.1,1.2683,1.2683,0,0,0,.6.1,1.1021,1.1021,0,0,0,.9-.3c0-.1.5-.6,0-1.1-.1-.1-.2-.2-.7-.3a.0979.0979,0,0,1-.1-.1v-.2a.7543.7543,0,0,0-.4-1C80.4,77.5,80.1,77.4,79.8,77.4Z" fill="#6bbe66"/></g></g><g id="Deleted_Symbol_8-29" data-name="Deleted Symbol 8"><g id="Deleted_Symbol_4-29" data-name="Deleted Symbol 4"><path d="M16.1,94.8a.4333.4333,0,0,1-.4-.2l.1-.9h-.6a5.6385,5.6385,0,0,1-.7-.1c-.8-.2-.8-1-.8-1.4a1.7457,1.7457,0,0,1,.9-1.1,1.1921,1.1921,0,0,1,.6-1.3,1.1355,1.1355,0,0,1,.8-.3,1.2922,1.2922,0,0,1,.8.2,1.2068,1.2068,0,0,1,.6,1.4,1.7038,1.7038,0,0,1,.7.4,1.3252,1.3252,0,0,1,0,1.7,1.594,1.594,0,0,1-1.2.4h-.5v1c0,.2-.2.2-.3.2Zm0-4.8a1.4213,1.4213,0,0,0-.6.2.9338.9338,0,0,0-.4,1v.2a.0979.0979,0,0,1-.1.1c-.2,0-.6.2-.8.8,0,.2,0,.7.4.9a3.536,3.536,0,0,0,.6.1h.2a.6012.6012,0,0,0,.4-.1.4938.4938,0,0,1,.3-.1.438.438,0,0,1,.3.1,1.2683,1.2683,0,0,0,.6.1,1.2087,1.2087,0,0,0,.9-.3c0-.1.5-.6,0-1.1,0-.1-.2-.2-.7-.3a.0979.0979,0,0,1-.1-.1v-.2a.7543.7543,0,0,0-.4-1C16.7,90.1,16.4,90,16.1,90Z" fill="#6bbe66"/></g></g><g id="Deleted_Symbol_8-30" data-name="Deleted Symbol 8"><g id="Deleted_Symbol_4-30" data-name="Deleted Symbol 4"><path d="M41.6,94.8a.4333.4333,0,0,1-.4-.2l.1-.9h-.6a5.6385,5.6385,0,0,1-.7-.1c-.8-.2-.8-1-.8-1.4a1.7457,1.7457,0,0,1,.9-1.1,1.1921,1.1921,0,0,1,.6-1.3,1.1355,1.1355,0,0,1,.8-.3,1.2922,1.2922,0,0,1,.8.2,1.2068,1.2068,0,0,1,.6,1.4,1.7038,1.7038,0,0,1,.7.4,1.3252,1.3252,0,0,1,0,1.7,1.594,1.594,0,0,1-1.2.4h-.5v1c0,.2-.2.2-.3.2Zm0-4.8a1.4213,1.4213,0,0,0-.6.2.9338.9338,0,0,0-.4,1v.2a.0979.0979,0,0,1-.1.1c-.2,0-.6.2-.8.8,0,.2,0,.7.4.9a3.536,3.536,0,0,0,.6.1h.2a.6012.6012,0,0,0,.4-.1.4938.4938,0,0,1,.3-.1.438.438,0,0,1,.3.1,1.2683,1.2683,0,0,0,.6.1,1.2087,1.2087,0,0,0,.9-.3c0-.1.5-.6,0-1.1,0-.1-.2-.2-.7-.3a.0979.0979,0,0,1-.1-.1v-.2a.7543.7543,0,0,0-.4-1A.6047.6047,0,0,0,41.6,90Z" fill="#6bbe66"/></g></g><g id="Deleted_Symbol_8-31" data-name="Deleted Symbol 8"><g id="Deleted_Symbol_4-31" data-name="Deleted Symbol 4"><path d="M67.1,94.8a.4333.4333,0,0,1-.4-.2l.1-.9h-.6a5.6385,5.6385,0,0,1-.7-.1c-.8-.2-.8-1-.8-1.4a1.7457,1.7457,0,0,1,.9-1.1,1.1921,1.1921,0,0,1,.6-1.3,1.1355,1.1355,0,0,1,.8-.3,1.2922,1.2922,0,0,1,.8.2,1.2068,1.2068,0,0,1,.6,1.4,1.7038,1.7038,0,0,1,.7.4,1.3252,1.3252,0,0,1,0,1.7,1.594,1.594,0,0,1-1.2.4h-.5v1c0,.2-.2.2-.3.2Zm0-4.8a1.4213,1.4213,0,0,0-.6.2.9338.9338,0,0,0-.4,1v.2a.0979.0979,0,0,1-.1.1c-.2,0-.6.2-.8.8,0,.2,0,.7.4.9a3.536,3.536,0,0,0,.6.1h.2a.6012.6012,0,0,0,.4-.1.4938.4938,0,0,1,.3-.1.438.438,0,0,1,.3.1,1.2683,1.2683,0,0,0,.6.1,1.1021,1.1021,0,0,0,.9-.3c0-.1.5-.6,0-1.1-.1-.1-.2-.2-.7-.3a.0979.0979,0,0,1-.1-.1v-.2a.7543.7543,0,0,0-.4-1A.6047.6047,0,0,0,67.1,90Z" fill="#6bbe66"/></g></g><g id="Deleted_Symbol_8-32" data-name="Deleted Symbol 8"><g id="Deleted_Symbol_4-32" data-name="Deleted Symbol 4"><path d="M92.6,94.8a.4333.4333,0,0,1-.4-.2l.1-.9h-.6a5.6385,5.6385,0,0,1-.7-.1c-.8-.2-.8-1-.8-1.4a1.7457,1.7457,0,0,1,.9-1.1,1.1921,1.1921,0,0,1,.6-1.3,1.1355,1.1355,0,0,1,.8-.3,1.2922,1.2922,0,0,1,.8.2,1.2068,1.2068,0,0,1,.6,1.4,1.7038,1.7038,0,0,1,.7.4,1.3252,1.3252,0,0,1,0,1.7,1.594,1.594,0,0,1-1.2.4h-.5v1c0,.2-.2.2-.3.2Zm0-4.8a1.4213,1.4213,0,0,0-.6.2.9338.9338,0,0,0-.4,1v.2a.0979.0979,0,0,1-.1.1c-.2,0-.6.2-.8.8,0,.2,0,.7.4.9a3.536,3.536,0,0,0,.6.1h.2a.6012.6012,0,0,0,.4-.1.4938.4938,0,0,1,.3-.1.438.438,0,0,1,.3.1,1.2683,1.2683,0,0,0,.6.1,1.1021,1.1021,0,0,0,.9-.3c0-.1.5-.6,0-1.1-.1-.1-.2-.2-.7-.3a.0979.0979,0,0,1-.1-.1v-.2a.7543.7543,0,0,0-.4-1A.6047.6047,0,0,0,92.6,90Z" fill="#6bbe66"/></g></g></svg>