<svg id="Layer_1" data-name="Layer 1" xmlns="http://www.w3.org/2000/svg" width="33.8667mm" height="33.8667mm" viewBox="0 0 96 96"><g id="roughgrass_bd"><g id="RoughGrass_FC"><path d="M11.8,79.2v.1l-.1.1h-.3l-.3-.5v-.1l.1-.1h.3Z" fill="#a9cda6"/><path d="M14.1,78.6h0a1.7265,1.7265,0,0,0-.4-.3c-.1-.2.1-.7.1-.7v-.7C14.6,77.9,14.1,78.6,14.1,78.6Z" fill="#a9cda6"/><path d="M14.1,78.7c.1.1.2.1.2.4h-.1L14,79A.3674.3674,0,0,1,14.1,78.7Z" fill="#a9cda6"/><path d="M16.2,77.8l-.5.5a2.1644,2.1644,0,0,0-.3.6v.2a.4829.4829,0,0,1-.4,0,2.18,2.18,0,0,0,.1-.6s0-1.1.5-1.2c0,0,.4-.2.1.1a1.67,1.67,0,0,0-.3.9C15.5,78.2,15.8,77.7,16.2,77.8Z" fill="#a9cda6"/><path d="M18.2,78.8v.1l-.3.4c0,.1-.1.1-.2,0h-.1l-.1-.1v-.1l.3-.5c0-.1.1-.1.2,0l.2.2Z" fill="#a9cda6"/><path d="M12.8,78.3l.2.7v.1l-.1.1h-.1c-.1,0-.1,0-.2-.1l-.2-.7v-.1l.1-.1h.1C12.7,78.2,12.8,78.2,12.8,78.3Z" fill="#a9cda6"/><path d="M16.8,78.2h.1l.1.1v.1l-.2.7c0,.1-.1.1-.2.1h-.1l-.1-.1V79l.2-.7C16.6,78.2,16.7,78.2,16.8,78.2Z" fill="#a9cda6"/></g></g><g id="scrub_bd"><g id="Scrub_FC"><g id="Deleted_Symbol_1" data-name="Deleted Symbol 1"><path d="M17,75.6c-.1,0-.1,0-.1-.1l-.3-1c0-.1,0-.1.1-.2l.2-.1H17a.0979.0979,0,0,1,.1.1l.3,1c0,.1,0,.1-.1.2a.774.774,0,0,1-.3.1Z" fill="#a9cda6"/><path d="M18.8,75.3a.0979.0979,0,0,1-.1-.1v-1c0-.1,0-.1-.1-.1h-.1a.31.31,0,0,0-.2.1h-.1c-.1,0-.1,0-.1-.1l-.1-.2v-.2a1.69,1.69,0,0,1,.5-.2.52.52,0,0,1,.4.2.6012.6012,0,0,1,.1.4v1a.0979.0979,0,0,1-.1.1h-.1Z" fill="#a9cda6"/><path d="M23.2,75.5H23c-.1,0-.1-.1-.1-.2l.3-1a.0979.0979,0,0,1,.1-.1h.3c.1,0,.1.1.1.2l-.3,1a.3491.3491,0,0,0-.2.1Z" fill="#a9cda6"/><path d="M20.9,75.2a.3674.3674,0,0,1-.3-.1,16.7048,16.7048,0,0,0-.7-2.4.31.31,0,0,1-.1-.2c.1,0,.2.1.3.1,0,0,.4.2.6,1.2l.1.2c0-.1.1-2.1.8-2.4a.3491.3491,0,0,0,.2-.1.31.31,0,0,1-.1.2,4.6025,4.6025,0,0,0-.5,1.6v.2a1.3807,1.3807,0,0,1,.9-.7h.1s0,.1-.2.2a6.5246,6.5246,0,0,0-.9,1.6v.5C21.1,75.2,21.1,75.2,20.9,75.2Z" fill="#a9cda6"/></g></g></g><g id="scrub_bd-2" data-name="scrub_bd" style="isolation:isolate"><g id="Scrub_FC-2" data-name="Scrub_FC"><g id="Deleted_Symbol_1-2" data-name="Deleted Symbol 1"><path d="M8,74c-.1,0-.1,0-.1-.1l-.3-1c0-.1,0-.1.1-.2l.2-.1H8v.2l.3,1c0,.1,0,.1-.1.2Z" fill="#a9cda6"/><path d="M9.9,73.8a.0979.0979,0,0,1-.1-.1v-1c0-.1,0-.1-.1-.1H9.6a.31.31,0,0,0-.2.1H9.3c-.1,0-.1,0-.1-.1L9,72.4v-.2a.7347.7347,0,0,1,.6-.2.52.52,0,0,1,.4.2.6012.6012,0,0,1,.1.4v1a.0979.0979,0,0,1-.1.1H9.9Z" fill="#a9cda6"/><path d="M14.2,73.9H14c-.1,0-.1-.1-.1-.2l.3-1a.0979.0979,0,0,1,.1-.1h.3c.1,0,.1.1.1.2l-.3,1c0,.1-.1.1-.2.1Z" fill="#a9cda6"/><path d="M12,73.7a.3674.3674,0,0,1-.3-.1,16.7048,16.7048,0,0,0-.7-2.4.31.31,0,0,1-.1-.2c.1,0,.2.1.3.1,0,0,.4.2.6,1.2l.1.2c0-.1.1-2.1.8-2.4a.3491.3491,0,0,0,.2-.1.31.31,0,0,1-.1.2,4.6025,4.6025,0,0,0-.5,1.6V72a1.3807,1.3807,0,0,1,.9-.7h.1s0,.1-.2.2a6.5246,6.5246,0,0,0-.9,1.6v.5A.3491.3491,0,0,1,12,73.7Z" fill="#a9cda6"/></g></g></g><g id="roughgrass_bd-2" data-name="roughgrass_bd" style="isolation:isolate"><g id="RoughGrass_FC-2" data-name="RoughGrass_FC"><path d="M48.6,68.5v.1l-.1.1h-.3l-.3-.5v-.1L48,68h.3Z" fill="#a9cda6"/><path d="M50.9,68h0c-.1,0-.1-.1,0,0a1.7265,1.7265,0,0,0-.4-.3c-.1-.2.1-.7.1-.7v-.7A1.65,1.65,0,0,1,50.9,68Z" fill="#a9cda6"/><path d="M50.9,68c.1.1.2.1.2.4h-.3C50.7,68.2,50.8,68.1,50.9,68Z" fill="#a9cda6"/><path d="M53,67.1l-.5.5a2.1644,2.1644,0,0,0-.3.6v.2a.4829.4829,0,0,1-.4,0,2.18,2.18,0,0,0,.1-.6s0-1.1.5-1.2c0,0,.4-.2.1.1a1.67,1.67,0,0,0-.3.9C52.3,67.5,52.6,67.1,53,67.1Z" fill="#a9cda6"/><path d="M55,68.1v.1l-.3.4c0,.1-.1.1-.2,0h-.1l-.1-.1v-.1l.3-.5c0-.1.1-.1.2,0l.2.2Z" fill="#a9cda6"/><path d="M49.6,67.6l.2.7v.1l-.1.1h-.1c-.1,0-.1,0-.2-.1l-.2-.7v-.1l.1-.1h.1C49.5,67.5,49.5,67.5,49.6,67.6Z" fill="#a9cda6"/><path d="M53.6,67.5h.1l.1.1v.1l-.2.7c0,.1-.1.1-.2.1h-.1l-.1-.1v-.1l.2-.7C53.4,67.5,53.5,67.5,53.6,67.5Z" fill="#a9cda6"/></g></g><g id="scrub_bd-3" data-name="scrub_bd" style="isolation:isolate"><g id="Scrub_FC-3" data-name="Scrub_FC"><g id="Deleted_Symbol_1-3" data-name="Deleted Symbol 1"><path d="M53.7,64.9c-.1,0-.1,0-.1-.1l-.3-1c0-.1,0-.1.1-.2l.2-.1h.1a.0979.0979,0,0,1,.1.1l.3,1c0,.1,0,.1-.1.2a.3674.3674,0,0,1-.3.1Z" fill="#a9cda6"/><path d="M55.6,64.7a.0979.0979,0,0,1-.1-.1V63.5h-.1a.31.31,0,0,0-.2.1h-.1c-.1,0-.1,0-.1-.1l-.1-.1v-.2a1.69,1.69,0,0,1,.5-.2.52.52,0,0,1,.4.2.6012.6012,0,0,1,.1.4v1a.0979.0979,0,0,1-.1.1Z" fill="#a9cda6"/><path d="M59.9,64.8h-.2c-.1,0-.1-.1-.1-.2l.3-1a.0979.0979,0,0,1,.1-.1h.3c.1,0,.1.1.1.2l-.3,1c0,.1-.1.1-.2.1Z" fill="#a9cda6"/><path d="M57.7,64.6a.3674.3674,0,0,1-.3-.1,16.7048,16.7048,0,0,0-.7-2.4.3491.3491,0,0,0-.1-.2c.1,0,.2.1.3.1,0,0,.4.2.6,1.2l.1.2c0-.1.1-2.1.8-2.4a.3491.3491,0,0,0,.2-.1.31.31,0,0,1-.1.2,4.6025,4.6025,0,0,0-.5,1.6V63a1.3807,1.3807,0,0,1,.9-.7H59s0,.1-.2.2a6.5246,6.5246,0,0,0-.9,1.6v.5C57.9,64.5,57.8,64.6,57.7,64.6Z" fill="#a9cda6"/></g></g></g><g id="scrub_bd-4" data-name="scrub_bd" style="isolation:isolate"><g id="Scrub_FC-4" data-name="Scrub_FC"><g id="Deleted_Symbol_1-4" data-name="Deleted Symbol 1"><path d="M44.8,63.4c-.1,0-.1,0-.1-.1l-.3-1c0-.1,0-.1.1-.2l.2-.1h.1a.0979.0979,0,0,1,.1.1l.3,1c0,.1,0,.1-.1.2a.438.438,0,0,0-.3.1Z" fill="#a9cda6"/><path d="M46.7,63.1a.0979.0979,0,0,1-.1-.1V62c0-.1,0-.1-.1-.1h-.1a.31.31,0,0,0-.2.1h-.1c-.1,0-.1,0-.1-.1l-.1-.1v-.2a1.69,1.69,0,0,1,.5-.2.52.52,0,0,1,.4.2.6012.6012,0,0,1,.1.4v1a.0979.0979,0,0,1-.1.1Z" fill="#a9cda6"/><path d="M51,63.2h-.2c-.1,0-.1-.1-.1-.2l.3-1a.0979.0979,0,0,1,.1-.1h.3c.1,0,.1.1.1.2l-.3,1c-.1.1-.1.2-.2.1Z" fill="#a9cda6"/><path d="M48.8,63a.3674.3674,0,0,1-.3-.1,16.7048,16.7048,0,0,0-.7-2.4.31.31,0,0,1-.1-.2c.1,0,.2.1.3.1,0,0,.4.2.6,1.2l.1.2c0-.1.1-2.1.8-2.4a.3491.3491,0,0,0,.2-.1.31.31,0,0,1-.1.2,4.6025,4.6025,0,0,0-.5,1.6v.2a1.3807,1.3807,0,0,1,.9-.7h.1s0,.1-.2.2a6.5246,6.5246,0,0,0-.9,1.6v.5C49,63,48.9,63,48.8,63Z" fill="#a9cda6"/></g></g></g><g id="roughgrass_bd-3" data-name="roughgrass_bd" style="isolation:isolate"><g id="RoughGrass_FC-3" data-name="RoughGrass_FC"><path d="M7.3,51v.1l-.1.1H6.9l-.3-.5v-.1l.1-.1H7Z" fill="#a9cda6"/><path d="M9.6,50.4h0a1.7265,1.7265,0,0,0-.4-.3c-.1-.2.1-.7.1-.7v-.7A1.432,1.432,0,0,1,9.6,50.4Z" fill="#a9cda6"/><path d="M9.6,50.4c.1.1.2.1.2.4H9.5C9.5,50.7,9.6,50.6,9.6,50.4Z" fill="#a9cda6"/><path d="M11.8,49.5l-.5.5a2.1644,2.1644,0,0,0-.3.6v.2a.4829.4829,0,0,1-.4,0,2.18,2.18,0,0,0,.1-.6s0-1.1.5-1.2c0,0,.4-.2.1.1a1.67,1.67,0,0,0-.3.9A.8514.8514,0,0,1,11.8,49.5Z" fill="#a9cda6"/><path d="M13.8,50.6v.1l-.3.4c0,.1-.1.1-.2,0h-.1l-.1-.1v-.1l.3-.5c0-.1.1-.1.2,0l.2.2Z" fill="#a9cda6"/><path d="M8.3,50.1l.2.7V51H8.4c-.1,0-.1,0-.2-.1L8,50.2v-.1l.1-.1h.1C8.2,49.9,8.3,50,8.3,50.1Z" fill="#a9cda6"/><path d="M12.3,50h.1l.1.1v.1l-.2.7c0,.1-.1.1-.2.1H12l-.1-.1v-.1l.2-.7C12.2,50,12.3,49.9,12.3,50Z" fill="#a9cda6"/></g></g><g id="scrub_bd-5" data-name="scrub_bd" style="isolation:isolate"><g id="Scrub_FC-5" data-name="Scrub_FC"><g id="Deleted_Symbol_1-5" data-name="Deleted Symbol 1"><path d="M12.5,47.3c-.1,0-.1,0-.1-.1l-.3-1c0-.1,0-.1.1-.2l.2-.1h.1a.0979.0979,0,0,1,.1.1l.3,1c0,.1,0,.1-.1.2-.2.1-.2.1-.3.1Z" fill="#a9cda6"/><path d="M14.4,47.1a.0979.0979,0,0,1-.1-.1V46c0-.1,0-.1-.1-.1h-.1a.31.31,0,0,0-.2.1h-.1c-.1,0-.1,0-.1-.1l-.1-.1v-.2a1.69,1.69,0,0,1,.5-.2.52.52,0,0,1,.4.2.6012.6012,0,0,1,.1.4v1a.0979.0979,0,0,1-.1.1Z" fill="#a9cda6"/><path d="M18.7,47.2h-.2c-.1,0-.1-.1-.1-.2l.3-1a.0979.0979,0,0,1,.1-.1h.3c.1,0,.1.1.1.2l-.3,1c-.1.1-.1.1-.2.1Z" fill="#a9cda6"/><path d="M16.5,47a.3674.3674,0,0,1-.3-.1,16.7048,16.7048,0,0,0-.7-2.4.31.31,0,0,1-.1-.2c.1,0,.2.1.3.1,0,0,.4.2.6,1.2l.1.2c0-.1.1-2.1.8-2.4a.3491.3491,0,0,0,.2-.1.31.31,0,0,1-.1.2,4.6025,4.6025,0,0,0-.5,1.6v.2a1.3807,1.3807,0,0,1,.9-.7h.1s0,.1-.2.2a6.5246,6.5246,0,0,0-.9,1.6v.5C16.7,47,16.6,47,16.5,47Z" fill="#a9cda6"/></g></g></g><g id="roughgrass_bd-4" data-name="roughgrass_bd" style="isolation:isolate"><g id="RoughGrass_FC-4" data-name="RoughGrass_FC"><path d="M3.8,44.8v.1l-.1.1H3.4l-.3-.5v-.1l.1-.1h.3Z" fill="#a9cda6"/><path d="M6.1,44.3h0a1.7265,1.7265,0,0,0-.4-.3c-.1-.2.1-.7.1-.7v-.7A1.432,1.432,0,0,1,6.1,44.3Z" fill="#a9cda6"/><path d="M6.1,44.3c.1.1.2.1.2.4H6C6,44.5,6,44.4,6.1,44.3Z" fill="#a9cda6"/><path d="M8.2,43.4l-.5.5a2.1644,2.1644,0,0,0-.3.6v.2a.4829.4829,0,0,1-.4,0,2.18,2.18,0,0,0,.1-.6s0-1.1.5-1.2c0,0,.4-.2.1.1a1.67,1.67,0,0,0-.3.9C7.5,43.8,7.8,43.4,8.2,43.4Z" fill="#a9cda6"/><path d="M10.2,44.5v.1l-.3.4c0,.1-.1.1-.2,0H9.6l-.1-.1v-.1l.3-.5c0-.1.1-.1.2,0l.2.2Z" fill="#a9cda6"/><path d="M4.8,43.9l.2.7v.1l-.1.1H4.8c-.1,0-.1,0-.2-.1L4.4,44h0l.1-.1h.1A.1385.1385,0,0,1,4.8,43.9Z" fill="#a9cda6"/><path d="M8.8,43.8h.1L9,44v.1l-.2.7c0,.1-.1.1-.2.1H8.5l-.1-.1v-.1l.2-.7A.2151.2151,0,0,1,8.8,43.8Z" fill="#a9cda6"/></g></g><g id="roughgrass_bd-5" data-name="roughgrass_bd" style="isolation:isolate"><g id="RoughGrass_FC-5" data-name="RoughGrass_FC"><path d="M16.2,29.9V30l-.1.1h-.3l-.3-.5v-.1l.1-.1h.3Z" fill="#a9cda6"/><path d="M18.5,29.4h0a1.7265,1.7265,0,0,0-.4-.3c-.1-.2.1-.7.1-.7v-.7A1.432,1.432,0,0,1,18.5,29.4Z" fill="#a9cda6"/><path d="M18.5,29.4c.1.1.2.1.2.4h-.3C18.4,29.6,18.5,29.5,18.5,29.4Z" fill="#a9cda6"/><path d="M20.7,28.5l-.5.5a2.1644,2.1644,0,0,0-.3.6v.2a.4829.4829,0,0,1-.4,0,2.18,2.18,0,0,0,.1-.6s0-1.1.5-1.2c0,0,.4-.2.1.1a1.67,1.67,0,0,0-.3.9A.8514.8514,0,0,1,20.7,28.5Z" fill="#a9cda6"/><path d="M22.7,29.5v.1l-.3.4c0,.1-.1.1-.2,0H22v-.1l.3-.5c0-.1.1-.1.2,0l.2.1Z" fill="#a9cda6"/><path d="M17.2,29l.2.7v.1l-.1.1h-.1c-.1,0-.1,0-.2-.1l-.2-.7V29l.1-.1H17C17.1,28.9,17.2,28.9,17.2,29Z" fill="#a9cda6"/><path d="M21.2,28.9h.1l.1.1v.1l-.2.7c0,.1-.1.1-.2.1h-.1l-.1-.1v-.1L21,29C21.1,28.9,21.1,28.9,21.2,28.9Z" fill="#a9cda6"/></g></g><g id="scrub_bd-6" data-name="scrub_bd" style="isolation:isolate"><g id="Scrub_FC-6" data-name="Scrub_FC"><g id="Deleted_Symbol_1-6" data-name="Deleted Symbol 1"><path d="M21.4,26.3c-.1,0-.1,0-.1-.1l-.3-1c0-.1,0-.1.1-.2l.2-.1h.1a.0979.0979,0,0,1,.1.1l.3,1c0,.1,0,.1-.1.2a.774.774,0,0,1-.3.1Z" fill="#a9cda6"/><path d="M23.3,26a.0979.0979,0,0,1-.1-.1v-1c0-.1,0-.1-.1-.1H23a.31.31,0,0,0-.2.1h-.1c-.1,0-.1,0-.1-.1l-.1-.1v-.2a1.69,1.69,0,0,1,.5-.2.52.52,0,0,1,.4.2.6012.6012,0,0,1,.1.4v1a.0979.0979,0,0,1-.1.1Z" fill="#a9cda6"/><path d="M27.6,26.2h-.2c-.1,0-.1-.1-.1-.2l.3-1a.0979.0979,0,0,1,.1-.1H28c.1,0,.1.1.1.2l-.3,1c-.1,0-.1.1-.2.1Z" fill="#a9cda6"/><path d="M25.4,26a.3674.3674,0,0,1-.3-.1,16.7048,16.7048,0,0,0-.7-2.4.31.31,0,0,1-.1-.2c.1,0,.2.1.3.1,0,0,.4.2.6,1.2l.1.2c0-.1.1-2.1.8-2.4a.3491.3491,0,0,0,.2-.1.31.31,0,0,1-.1.2,4.6025,4.6025,0,0,0-.5,1.6v.2a1.3807,1.3807,0,0,1,.9-.7h.1s0,.1-.2.2a6.5246,6.5246,0,0,0-.9,1.6v.5A.3491.3491,0,0,1,25.4,26Z" fill="#a9cda6"/></g></g></g><g id="scrub_bd-7" data-name="scrub_bd" style="isolation:isolate"><g id="Scrub_FC-7" data-name="Scrub_FC"><g id="Deleted_Symbol_1-7" data-name="Deleted Symbol 1"><path d="M12.4,24.8c-.1,0-.1,0-.1-.1l-.3-1c0-.1,0-.1.1-.2l.2-.1h.1a.0979.0979,0,0,1,.1.1l.3,1c0,.1,0,.1-.1.2a.3674.3674,0,0,0-.3.1Z" fill="#a9cda6"/><path d="M14.3,24.5a.0979.0979,0,0,1-.1-.1v-1c0-.1,0-.1-.1-.1H14a.31.31,0,0,0-.2.1h-.1c-.1,0-.1,0-.1-.1l-.1-.1V23a1.69,1.69,0,0,1,.5-.2.52.52,0,0,1,.4.2.6012.6012,0,0,1,.1.4v1a.0979.0979,0,0,1-.1.1Z" fill="#a9cda6"/><path d="M18.6,24.6h-.2c-.1,0-.1-.1-.1-.2l.3-1a.0979.0979,0,0,1,.1-.1H19c.1,0,.1.1.1.2l-.3,1c0,.1-.1.1-.2.1Z" fill="#a9cda6"/><path d="M16.4,24.4a.3674.3674,0,0,1-.3-.1,16.7048,16.7048,0,0,0-.7-2.4.31.31,0,0,1-.1-.2c.1,0,.2.1.3.1,0,0,.4.2.6,1.2l.1.2c0-.1.1-2.1.8-2.4a.3491.3491,0,0,0,.2-.1.31.31,0,0,1-.1.2,4.6025,4.6025,0,0,0-.5,1.6v.2a1.3807,1.3807,0,0,1,.9-.7h.1s0,.1-.2.2a6.5246,6.5246,0,0,0-.9,1.6v.5C16.6,24.4,16.5,24.4,16.4,24.4Z" fill="#a9cda6"/></g></g></g><g id="roughgrass_bd-6" data-name="roughgrass_bd" style="isolation:isolate"><g id="RoughGrass_FC-6" data-name="RoughGrass_FC"><path d="M47.1,10.1v.1l-.1.1h-.3l-.3-.5V9.7l.1-.1h.3Z" fill="#a9cda6"/><path d="M49.4,9.6h0a1.7265,1.7265,0,0,0-.4-.3,1.9727,1.9727,0,0,1,.2-.7V7.9A1.5084,1.5084,0,0,1,49.4,9.6Z" fill="#a9cda6"/><path d="M49.4,9.6c.1.1.2.1.2.4h-.3C49.3,9.8,49.4,9.7,49.4,9.6Z" fill="#a9cda6"/><path d="M51.6,8.7l-.5.5a2.1644,2.1644,0,0,0-.3.6V10a.4829.4829,0,0,1-.4,0,2.18,2.18,0,0,0,.1-.6s0-1.1.5-1.2c0,0,.4-.2.1.1a1.67,1.67,0,0,0-.3.9A.8514.8514,0,0,1,51.6,8.7Z" fill="#a9cda6"/><path d="M53.6,9.8v.1l-.3.4c0,.1-.1.1-.2,0H53l-.1-.1v-.1l.3-.5c0-.1.1-.1.2,0l.2.2Z" fill="#a9cda6"/><path d="M48.1,9.2l.2.7V10l-.1.1h-.1c-.1,0-.1,0-.2-.1l-.2-.7h0l.1-.1h.1A.1385.1385,0,0,1,48.1,9.2Z" fill="#a9cda6"/><path d="M52.1,9.1h.1l.1.1v.1l-.2.7c0,.1-.1.1-.2.1h-.1l-.1-.1V9.9l.2-.7C52,9.2,52,9.1,52.1,9.1Z" fill="#a9cda6"/></g></g><g id="scrub_bd-8" data-name="scrub_bd" style="isolation:isolate"><g id="Scrub_FC-8" data-name="Scrub_FC"><g id="Deleted_Symbol_1-8" data-name="Deleted Symbol 1"><path d="M52.3,6.5c-.1,0-.1,0-.1-.1l-.3-1c0-.1,0-.1.1-.2l.2-.1h.1a.0979.0979,0,0,1,.1.1l.3,1c0,.1,0,.1-.1.2-.2.1-.2.1-.3.1Z" fill="#a9cda6"/><path d="M54.2,6.3a.0979.0979,0,0,1-.1-.1v-1L54,5h-.1a.31.31,0,0,0-.2.1h-.1c-.1,0-.1,0-.1-.1l-.1-.1V4.7a1.69,1.69,0,0,1,.5-.2.52.52,0,0,1,.4.2.6012.6012,0,0,1,.1.4v1a.0979.0979,0,0,1-.1.1A.0979.0979,0,0,1,54.2,6.3Z" fill="#a9cda6"/><path d="M58.5,6.4h-.2c-.1,0-.1-.1-.1-.2l.3-1a.0979.0979,0,0,1,.1-.1h.3c.1,0,.1.1.1.2l-.3,1c-.1.1-.1.1-.2.1Z" fill="#a9cda6"/><path d="M56.3,6.2a.3674.3674,0,0,1-.3-.1,16.7048,16.7048,0,0,0-.7-2.4.3491.3491,0,0,0-.1-.2c.1,0,.2.1.3.1,0,0,.4.2.6,1.2l.1.2s.1-2,.8-2.4a.3491.3491,0,0,0,.2-.1.31.31,0,0,1-.1.2,4.6025,4.6025,0,0,0-.5,1.6v.2a1.3807,1.3807,0,0,1,.9-.7h.1s0,.1-.2.2a6.5246,6.5246,0,0,0-.9,1.6v.5A.3491.3491,0,0,1,56.3,6.2Z" fill="#a9cda6"/></g></g></g><g id="scrub_bd-9" data-name="scrub_bd" style="isolation:isolate"><g id="Scrub_FC-9" data-name="Scrub_FC"><g id="Deleted_Symbol_1-9" data-name="Deleted Symbol 1"><path d="M43.4,5c-.1,0-.1,0-.1-.1l-.3-1c0-.1,0-.1.1-.2l.2-.1h.1a.0979.0979,0,0,1,.1.1l.3,1c0,.1,0,.1-.1.2a.438.438,0,0,0-.3.1Z" fill="#a9cda6"/><path d="M45.2,4.7a.0979.0979,0,0,1-.1-.1v-1c0-.1,0-.1-.1-.1h-.1a.31.31,0,0,0-.2.1h-.1c-.1,0-.1,0-.1-.1l-.1-.1V3.2a1.69,1.69,0,0,1,.5-.2.52.52,0,0,1,.4.2.6012.6012,0,0,1,.1.4v1a.0979.0979,0,0,1-.1.1Z" fill="#a9cda6"/><path d="M49.5,4.9h-.2c-.1,0-.1-.1-.1-.2l.3-1a.0979.0979,0,0,1,.1-.1h.3c.1,0,.1.1.1.2l-.3,1a.3491.3491,0,0,1-.2.1Z" fill="#a9cda6"/><path d="M47.3,4.6a.3674.3674,0,0,1-.3-.1,16.7048,16.7048,0,0,0-.7-2.4.31.31,0,0,1-.1-.2c.1,0,.2.1.3.1,0,0,.4.2.6,1.2l.1.2c0-.1.1-2.1.8-2.4a.3491.3491,0,0,0,.2-.1.31.31,0,0,1-.1.2,4.6025,4.6025,0,0,0-.5,1.6V3a1.3807,1.3807,0,0,1,.9-.7h.1s0,.1-.2.2a6.5246,6.5246,0,0,0-.9,1.6v.5Z" fill="#a9cda6"/></g></g></g><g id="roughgrass_bd-7" data-name="roughgrass_bd" style="isolation:isolate"><g id="RoughGrass_FC-7" data-name="RoughGrass_FC"><path d="M69.7,26.4v.1l-.1.1h-.3l-.3-.5V26l.1-.1h.3Z" fill="#a9cda6"/><path d="M72.1,25.8h0a1.7265,1.7265,0,0,0-.4-.3c-.1-.2.1-.7.1-.7v-.7A1.6318,1.6318,0,0,1,72.1,25.8Z" fill="#a9cda6"/><path d="M72,25.9c.1.1.2.1.2.4h-.3C71.9,26.1,72,26,72,25.9Z" fill="#a9cda6"/><path d="M74.2,25l-.5.5a2.1644,2.1644,0,0,0-.3.6v.2a.4829.4829,0,0,1-.4,0,2.18,2.18,0,0,0,.1-.6s0-1.1.5-1.2c0,0,.4-.2.1.1a1.67,1.67,0,0,0-.3.9A.8514.8514,0,0,1,74.2,25Z" fill="#a9cda6"/><path d="M76.2,26v.1l-.3.4c0,.1-.1.1-.2,0h-.1l-.1-.1v-.1l.3-.5c0-.1.1-.1.2,0l.2.2Z" fill="#a9cda6"/><path d="M70.7,25.5l.2.7v.1l-.1.1h-.1c-.1,0-.1,0-.2-.1l-.2-.7v-.1l.1-.1h.1C70.6,25.4,70.7,25.4,70.7,25.5Z" fill="#a9cda6"/><path d="M74.7,25.4h.1l.1.1v.1l-.2.7c0,.1-.1.1-.2.1h-.1l-.1-.1v-.1l.2-.7A.31.31,0,0,1,74.7,25.4Z" fill="#a9cda6"/></g></g><g id="scrub_bd-10" data-name="scrub_bd" style="isolation:isolate"><g id="Scrub_FC-10" data-name="Scrub_FC"><g id="Deleted_Symbol_1-10" data-name="Deleted Symbol 1"><path d="M74.9,22.8c-.1,0-.1,0-.1-.1l-.3-1c0-.1,0-.1.1-.2l.2-.1h.1a.0979.0979,0,0,1,.1.1l.3,1c0,.1,0,.1-.1.2-.2.1-.2.1-.3.1Z" fill="#a9cda6"/><path d="M76.8,22.5a.0979.0979,0,0,1-.1-.1V21.3h-.1a.31.31,0,0,0-.2.1h-.1c-.1,0-.1,0-.1-.1l-.1-.1V21a1.69,1.69,0,0,1,.5-.2.52.52,0,0,1,.4.2.6012.6012,0,0,1,.1.4v1a.0979.0979,0,0,1-.1.1Z" fill="#a9cda6"/><path d="M81.1,22.7h-.2c-.1,0-.1-.1-.1-.2l.3-1a.0979.0979,0,0,1,.1-.1h.3c.1,0,.1.1.1.2l-.3,1c-.1,0-.1.1-.2.1Z" fill="#a9cda6"/><path d="M78.9,22.4a.3674.3674,0,0,1-.3-.1,16.7048,16.7048,0,0,0-.7-2.4.3491.3491,0,0,0-.1-.2c.1,0,.2.1.3.1,0,0,.4.2.6,1.2l.1.2c0-.1.1-2.1.8-2.4a.3491.3491,0,0,0,.2-.1.31.31,0,0,1-.1.2,4.6025,4.6025,0,0,0-.5,1.6v.2a1.3807,1.3807,0,0,1,.9-.7h.1s0,.1-.2.2a6.5246,6.5246,0,0,0-.9,1.6v.5C79.1,22.4,79,22.4,78.9,22.4Z" fill="#a9cda6"/></g></g></g><g id="roughgrass_bd-8" data-name="roughgrass_bd" style="isolation:isolate"><g id="RoughGrass_FC-8" data-name="RoughGrass_FC"><path d="M66.2,20.3v.1l-.1.1h-.3l-.2-.5v-.1l.1-.1H66Z" fill="#a9cda6"/><path d="M68.5,19.7h0a1.7265,1.7265,0,0,0-.4-.3c-.1-.2.1-.7.1-.7V18A1.432,1.432,0,0,1,68.5,19.7Z" fill="#a9cda6"/><path d="M68.5,19.7c.1.1.2.1.2.4h-.3A.7559.7559,0,0,1,68.5,19.7Z" fill="#a9cda6"/><path d="M70.6,18.8l-.5.5a2.1644,2.1644,0,0,0-.3.6v.2a.4829.4829,0,0,1-.4,0,2.18,2.18,0,0,0,.1-.6s0-1.1.5-1.2c0,0,.4-.2.1.1a1.67,1.67,0,0,0-.3.9C69.9,19.2,70.2,18.8,70.6,18.8Z" fill="#a9cda6"/><path d="M72.6,19.9V20l-.3.4c0,.1-.1.1-.2,0H72v-.1l.3-.5c0-.1.1-.1.2,0l.1.1Z" fill="#a9cda6"/><path d="M67.2,19.4l.2.7v.1l-.1.1h-.1c-.1,0-.1,0-.2-.1l-.2-.7v-.1l.1-.1H67C67.1,19.2,67.2,19.3,67.2,19.4Z" fill="#a9cda6"/><path d="M71.2,19.3h.1l.1.1v.1l-.2.7c0,.1-.1.1-.2.1h-.1l-.1-.1v-.1l.2-.7C71,19.3,71.1,19.2,71.2,19.3Z" fill="#a9cda6"/></g></g><g id="roughgrass_bd-9" data-name="roughgrass_bd" style="isolation:isolate"><g id="RoughGrass_FC-9" data-name="RoughGrass_FC"><path d="M80.9,9.4v.1l-.1.1h-.3l-.3-.5V9h.4Z" fill="#a9cda6"/><path d="M83.2,8.9h0a1.7265,1.7265,0,0,0-.4-.3,1.9727,1.9727,0,0,1,.2-.7V7.2A1.5084,1.5084,0,0,1,83.2,8.9Z" fill="#a9cda6"/><path d="M83.2,8.9c.1.1.2.1.2.4h-.3C83.1,9.1,83.1,9,83.2,8.9Z" fill="#a9cda6"/><path d="M85.3,8l-.5.5a2.1644,2.1644,0,0,0-.3.6v.2a.4829.4829,0,0,1-.4,0,2.18,2.18,0,0,0,.1-.6s0-1.1.5-1.2c0,0,.4-.2.1.1a1.67,1.67,0,0,0-.3.9C84.6,8.4,84.9,8,85.3,8Z" fill="#a9cda6"/><path d="M87.3,9.1v.1l-.3.4c0,.1-.1.1-.2,0h-.1l-.1-.1V9.4L87,9c0-.1.1-.1.2,0l.1.1Z" fill="#a9cda6"/><path d="M81.9,8.5l.2.7v.1l-.1.2h-.1c-.1,0-.1,0-.2-.1l-.2-.7V8.6l.1-.1h.1A.1385.1385,0,0,1,81.9,8.5Z" fill="#a9cda6"/><path d="M85.9,8.5H86l.1.1v.1l-.2.7c0,.1-.1.1-.2.1h-.1l-.1-.1V9.3l.2-.7C85.7,8.5,85.8,8.4,85.9,8.5Z" fill="#a9cda6"/></g></g><g id="scrub_bd-11" data-name="scrub_bd" style="isolation:isolate"><g id="Scrub_FC-11" data-name="Scrub_FC"><g id="Deleted_Symbol_1-11" data-name="Deleted Symbol 1"><path d="M86.1,5.8c-.1,0-.1,0-.1-.1l-.3-1c0-.1,0-.1.1-.2l.2-.1h.1a.31.31,0,0,0-.1.2l.3,1c0,.1,0,.1-.1.2Z" fill="#a9cda6"/><path d="M87.9,5.6a.0979.0979,0,0,1-.1-.1V4.4h-.1a.31.31,0,0,0-.2.1h-.1c-.1,0-.1,0-.1-.1l-.1-.1V4.1a1.69,1.69,0,0,1,.5-.2.52.52,0,0,1,.4.2.6012.6012,0,0,1,.1.4v1a.0979.0979,0,0,1-.1.1Z" fill="#a9cda6"/><path d="M92.3,5.7h-.2c-.1,0-.1-.1-.1-.2l.3-1a.0979.0979,0,0,1,.1-.1h.3c.1,0,.1.1.1.2l-.3,1a.31.31,0,0,1-.2.1Z" fill="#a9cda6"/><path d="M90,5.5a.3674.3674,0,0,1-.3-.1A16.7048,16.7048,0,0,0,89,3a.3491.3491,0,0,0-.1-.2c.1,0,.2.1.3.1,0,0,.4.2.6,1.2l.2.3c0-.1.1-2.1.8-2.4a.3491.3491,0,0,0,.2-.1.31.31,0,0,1-.1.2,4.6025,4.6025,0,0,0-.5,1.6v.2a1.3807,1.3807,0,0,1,.9-.7h.1s0,.1-.2.2A6.5246,6.5246,0,0,0,90.3,5v.5C90.2,5.4,90.2,5.5,90,5.5Z" fill="#a9cda6"/></g></g></g><g id="roughgrass_bd-10" data-name="roughgrass_bd" style="isolation:isolate"><g id="RoughGrass_FC-10" data-name="RoughGrass_FC"><path d="M77.3,3.3v.1l-.1.1h-.3L76.7,3V2.9l.1-.1h.3Z" fill="#a9cda6"/><path d="M79.7,2.7h0a1.7265,1.7265,0,0,0-.4-.3c-.1-.2.1-.7.1-.7V1A1.6318,1.6318,0,0,1,79.7,2.7Z" fill="#a9cda6"/><path d="M79.6,2.8c.1.1.2.1.2.4h-.3C79.5,3,79.6,2.9,79.6,2.8Z" fill="#a9cda6"/><path d="M81.8,1.9l-.5.5A2.1644,2.1644,0,0,0,81,3v.2a.4829.4829,0,0,1-.4,0,2.18,2.18,0,0,0,.1-.6s0-1.1.5-1.2c0,0,.4-.2.1.1a1.67,1.67,0,0,0-.3.9A.8514.8514,0,0,1,81.8,1.9Z" fill="#a9cda6"/><path d="M83.8,2.9V3l-.3.4c0,.1-.1.1-.2,0h-.1l-.1-.1V3.2l.3-.5c0-.1.1-.1.2,0l.2.2Z" fill="#a9cda6"/><path d="M78.3,2.4l.2.7v.1l-.1.1h-.1c-.1,0-.1,0-.2-.1L78,2.6V2.4l.1-.1h.1A.0979.0979,0,0,1,78.3,2.4Z" fill="#a9cda6"/><path d="M82.3,2.3h.1l.1.1v.1l-.2.7c0,.1-.1.1-.2.1H82V3.1l.2-.7A.0979.0979,0,0,1,82.3,2.3Z" fill="#a9cda6"/></g></g><g id="roughgrass_bd-11" data-name="roughgrass_bd" style="isolation:isolate"><g id="RoughGrass_FC-11" data-name="RoughGrass_FC"><path d="M70.7,46.4v.1l-.1.1h-.3l-.3-.5V46l.1-.1h.3Z" fill="#a9cda6"/><path d="M73.1,45.8h0a1.7265,1.7265,0,0,0-.4-.3c-.1-.2.1-.7.1-.7v-.7A1.65,1.65,0,0,1,73.1,45.8Z" fill="#a9cda6"/><path d="M73,45.8c.1.1.2.1.2.4h-.3C72.9,46.1,73,46,73,45.8Z" fill="#a9cda6"/><path d="M75.2,45l-.5.5a2.1644,2.1644,0,0,0-.3.6v.2a.4829.4829,0,0,1-.4,0,2.18,2.18,0,0,0,.1-.6s0-1.1.5-1.2c0,0,.4-.2.1.1a1.67,1.67,0,0,0-.3.9A.7137.7137,0,0,1,75.2,45Z" fill="#a9cda6"/><path d="M77.2,46v.1l-.3.4c0,.1-.1.1-.2,0h-.1l-.1-.1v-.1l.3-.5c0-.1.1-.1.2,0l.2.2Z" fill="#a9cda6"/><path d="M71.7,45.5l.2.7v.1l-.1.1h-.1c-.1,0-.1,0-.2-.1l-.2-.7v-.1l.1-.1h.1C71.7,45.4,71.7,45.4,71.7,45.5Z" fill="#a9cda6"/><path d="M75.7,45.4h.1l.1.1v.1l-.2.7c0,.1-.1.1-.2.1h-.1l-.1-.1v-.1l.2-.7A.31.31,0,0,1,75.7,45.4Z" fill="#a9cda6"/></g></g><g id="scrub_bd-12" data-name="scrub_bd" style="isolation:isolate"><g id="Scrub_FC-12" data-name="Scrub_FC"><g id="Deleted_Symbol_1-12" data-name="Deleted Symbol 1"><path d="M75.9,42.8c-.1,0-.1,0-.1-.1l-.3-1c0-.1,0-.1.1-.2l.2-.1h.1a.0979.0979,0,0,1,.1.1l.3,1c0,.1,0,.1-.1.2-.2,0-.2.1-.3.1Z" fill="#a9cda6"/><path d="M77.8,42.5a.0979.0979,0,0,1-.1-.1V41.3h-.1a.31.31,0,0,0-.2.1h-.1c-.1,0-.1,0-.1-.1l-.1-.1V41a1.69,1.69,0,0,1,.5-.2.52.52,0,0,1,.4.2.6012.6012,0,0,1,.1.4v1a.0979.0979,0,0,1-.1.1Z" fill="#a9cda6"/><path d="M82.1,42.6h-.2c-.1,0-.1-.1-.1-.2l.3-1a.0979.0979,0,0,1,.1-.1h.3c.1,0,.1.1.1.2l-.3,1c-.1.1-.1.1-.2.1Z" fill="#a9cda6"/><path d="M79.9,42.4a.3674.3674,0,0,1-.3-.1,16.7048,16.7048,0,0,0-.7-2.4.3491.3491,0,0,0-.1-.2c.1,0,.2.1.3.1,0,0,.4.2.6,1.2l.1.2c0-.1.1-2.1.8-2.4a.3491.3491,0,0,0,.2-.1.31.31,0,0,1-.1.2,4.6025,4.6025,0,0,0-.5,1.6v.2a1.3807,1.3807,0,0,1,.9-.7h.1s0,.1-.2.2a6.5246,6.5246,0,0,0-.9,1.6v.5C80.1,42.4,80,42.4,79.9,42.4Z" fill="#a9cda6"/></g></g></g><g id="scrub_bd-13" data-name="scrub_bd" style="isolation:isolate"><g id="Scrub_FC-13" data-name="Scrub_FC"><g id="Deleted_Symbol_1-13" data-name="Deleted Symbol 1"><path d="M67,41.2c-.1,0-.1,0-.1-.1l-.3-1c0-.1,0-.1.1-.2l.2-.1H67a.0979.0979,0,0,1,.1.1l.3,1c0,.1,0,.1-.1.2a.774.774,0,0,1-.3.1Z" fill="#a9cda6"/><path d="M68.8,41a.0979.0979,0,0,1-.1-.1V39.8h-.1a.31.31,0,0,0-.2.1h-.1c-.1,0-.1,0-.1-.1l-.2-.2v-.2a1.69,1.69,0,0,1,.5-.2.52.52,0,0,1,.4.2.6012.6012,0,0,1,.1.4v1a.0979.0979,0,0,1-.1.1h-.1Z" fill="#a9cda6"/><path d="M73.2,41.1H73c-.1,0-.1-.1-.1-.2l.3-1a.0979.0979,0,0,1,.1-.1h.3c.1,0,.1.1.1.2l-.3,1a.31.31,0,0,1-.2.1Z" fill="#a9cda6"/><path d="M70.9,40.9a.3674.3674,0,0,1-.3-.1,16.7048,16.7048,0,0,0-.7-2.4.3491.3491,0,0,0-.1-.2c.1,0,.2.1.3.1,0,0,.4.2.6,1.2l.1.2c0-.1.1-2.1.8-2.4a.3491.3491,0,0,0,.2-.1.31.31,0,0,1-.1.2,4.6025,4.6025,0,0,0-.5,1.6v.2a1.3807,1.3807,0,0,1,.9-.7h.1s0,.1-.2.2a6.5246,6.5246,0,0,0-.9,1.6v.5S71.1,40.9,70.9,40.9Z" fill="#a9cda6"/></g></g></g><g id="roughgrass_bd-12" data-name="roughgrass_bd" style="isolation:isolate"><g id="RoughGrass_FC-12" data-name="RoughGrass_FC"><path d="M81.4,70.4v.1l-.1.1H81l-.3-.5V70l.1-.1h.3Z" fill="#a9cda6"/><path d="M83.7,69.9h0a1.7265,1.7265,0,0,0-.4-.3c-.1-.2.1-.7.1-.7v-.7A1.432,1.432,0,0,1,83.7,69.9Z" fill="#a9cda6"/><path d="M83.7,69.9c.1.1.2.1.2.4h-.3A.7559.7559,0,0,1,83.7,69.9Z" fill="#a9cda6"/><path d="M85.8,69l-.5.5a2.1644,2.1644,0,0,0-.3.6v.2a.4829.4829,0,0,1-.4,0,2.18,2.18,0,0,0,.1-.6s0-1.1.5-1.2c0,0,.4-.2.1.1a1.67,1.67,0,0,0-.3.9C85.1,69.4,85.4,69,85.8,69Z" fill="#a9cda6"/><path d="M87.8,70.1v.1l-.3.4c0,.1-.1.1-.2,0h-.1l-.1-.1v-.1l.3-.5c0-.1.1-.1.2,0l.2.2Z" fill="#a9cda6"/><path d="M82.4,69.6l.2.7v.1l-.1.1h-.1c-.1,0-.1,0-.2-.1l-.2-.7v-.1l.1-.1h.1C82.3,69.4,82.4,69.5,82.4,69.6Z" fill="#a9cda6"/><path d="M86.4,69.5h.1l.1.1v.1l-.2.7c0,.1-.1.1-.2.1h-.1l-.1-.1v-.1l.2-.7C86.2,69.5,86.3,69.4,86.4,69.5Z" fill="#a9cda6"/></g></g><g id="scrub_bd-14" data-name="scrub_bd" style="isolation:isolate"><g id="Scrub_FC-14" data-name="Scrub_FC"><g id="Deleted_Symbol_1-14" data-name="Deleted Symbol 1"><path d="M86.6,66.8c-.1,0-.1,0-.1-.1l-.3-1c0-.1,0-.1.1-.2l.2-.1h.1a.0979.0979,0,0,1,.1.1l.3,1c0,.1,0,.1-.1.2a.774.774,0,0,1-.3.1Z" fill="#a9cda6"/><path d="M88.4,66.6a.0979.0979,0,0,1-.1-.1V65.4h-.1a.31.31,0,0,0-.2.1h-.1c-.1,0-.1,0-.1-.1l-.1-.1v-.2a1.69,1.69,0,0,1,.5-.2.52.52,0,0,1,.4.2.6012.6012,0,0,1,.1.4v1a.0979.0979,0,0,1-.1.1Z" fill="#a9cda6"/><path d="M92.8,66.7h-.2c-.1,0-.1-.1-.1-.2l.3-1a.0979.0979,0,0,1,.1-.1h.3c.1,0,.1.1.1.2l-.3,1a.31.31,0,0,1-.2.1Z" fill="#a9cda6"/><path d="M90.5,66.5a.3674.3674,0,0,1-.3-.1,16.7048,16.7048,0,0,0-.7-2.4.3491.3491,0,0,0-.1-.2c.1,0,.2.1.3.1,0,0,.4.2.6,1.2l.1.2c0-.1.1-2.1.8-2.4a.3491.3491,0,0,0,.2-.1.31.31,0,0,1-.1.2,4.6025,4.6025,0,0,0-.5,1.6v.2a1.3807,1.3807,0,0,1,.9-.7h.1s0,.1-.2.2a6.5246,6.5246,0,0,0-.9,1.6v.5C90.8,66.4,90.7,66.5,90.5,66.5Z" fill="#a9cda6"/></g></g></g><g id="roughgrass_bd-13" data-name="roughgrass_bd" style="isolation:isolate"><g id="RoughGrass_FC-13" data-name="RoughGrass_FC"><path d="M77.8,64.3v.1l-.1.1h-.3l-.3-.5v-.1l.1-.1h.3Z" fill="#a9cda6"/><path d="M80.2,63.8h0a1.7265,1.7265,0,0,0-.4-.3c-.1-.2.1-.7.1-.7v-.7A1.65,1.65,0,0,1,80.2,63.8Z" fill="#a9cda6"/><path d="M80.2,63.8c.1.1.2.1.2.4h-.3C80,64,80.1,63.9,80.2,63.8Z" fill="#a9cda6"/><path d="M82.3,62.9l-.5.5a2.1644,2.1644,0,0,0-.3.6v.2a.4829.4829,0,0,1-.4,0,2.18,2.18,0,0,0,.1-.6s0-1.1.5-1.2c0,0,.4-.2.1.1a1.67,1.67,0,0,0-.3.9A1.0092,1.0092,0,0,1,82.3,62.9Z" fill="#a9cda6"/><path d="M84.3,63.9V64l-.3.5c0,.1-.1.1-.2,0h-.1l-.1-.1v-.1l.3-.5c0-.1.1-.1.2,0l.2.1Z" fill="#a9cda6"/><path d="M78.9,63.4l.2.7v.1l-.1.1h-.1c-.1,0-.1,0-.2-.1l-.2-.7v-.1l.1-.1h.1C78.8,63.3,78.8,63.3,78.9,63.4Z" fill="#a9cda6"/><path d="M82.8,63.3h.1l.1.1v.1l-.2.7c0,.1-.1.1-.2.1h-.1l-.1-.1v-.1l.2-.7A.31.31,0,0,1,82.8,63.3Z" fill="#a9cda6"/></g></g><g id="roughgrass_bd-14" data-name="roughgrass_bd" style="isolation:isolate"><g id="RoughGrass_FC-14" data-name="RoughGrass_FC"><path d="M55,91.9v.2h-.3l-.3-.5v-.1l.1-.1h.3Z" fill="#a9cda6"/><path d="M57.4,91.3h0A1.8658,1.8658,0,0,1,57,91c-.1-.2.1-.7.1-.7v-.7A1.6318,1.6318,0,0,1,57.4,91.3Z" fill="#a9cda6"/><path d="M57.4,91.4c.1.1.2.1.2.4h-.3C57.2,91.6,57.3,91.5,57.4,91.4Z" fill="#a9cda6"/><path d="M59.5,90.5l-.5.4a2.1644,2.1644,0,0,0-.3.6v.2a.4829.4829,0,0,1-.4,0,2.18,2.18,0,0,0,.1-.6s0-1.1.5-1.2c0,0,.4-.2.1.1a1.67,1.67,0,0,0-.3.9S59.1,90.4,59.5,90.5Z" fill="#a9cda6"/><path d="M61.5,91.5v.1l-.3.4c0,.1-.1.1-.2,0h-.2v-.1l.3-.5c0-.1.1-.1.2,0l.2.1Z" fill="#a9cda6"/><path d="M56.1,91l.2.7v.1l-.1.1h-.1c-.1,0-.1,0-.2-.1l-.2-.7V91l.1-.1h.1C56,90.9,56,90.9,56.1,91Z" fill="#a9cda6"/><path d="M60,90.9h.1l.1.1v.1l-.2.7c0,.1-.1.1-.2.1h-.1l-.1-.1v-.1l.2-.7A.31.31,0,0,1,60,90.9Z" fill="#a9cda6"/></g></g><g id="scrub_bd-15" data-name="scrub_bd" style="isolation:isolate"><g id="Scrub_FC-15" data-name="Scrub_FC"><g id="Deleted_Symbol_1-15" data-name="Deleted Symbol 1"><path d="M60.2,88.3c-.1,0-.1,0-.1-.1l-.3-1c0-.1,0-.1.1-.2h.2a.0979.0979,0,0,1,.1.1l.3,1c0,.1,0,.1-.1.2Z" fill="#a9cda6"/><path d="M62.1,88a.0979.0979,0,0,1-.1-.1V86.8h-.1a.31.31,0,0,0-.2.1h-.1c-.1,0-.1,0-.1-.1l-.1-.1v-.2a1.69,1.69,0,0,1,.5-.2.52.52,0,0,1,.4.2.6012.6012,0,0,1,.1.4v1a.0979.0979,0,0,1-.1.1Z" fill="#a9cda6"/><path d="M66.4,88.2h-.2c-.1,0-.1-.1-.1-.2l.3-1a.0979.0979,0,0,1,.1-.1h.3c.1,0,.1.1.1.2l-.3,1c-.1,0-.1.1-.2.1Z" fill="#a9cda6"/><path d="M64.2,87.9a.3674.3674,0,0,1-.3-.1,16.7048,16.7048,0,0,0-.7-2.4.3491.3491,0,0,0-.1-.2c.1,0,.2.1.3.1,0,0,.4.2.6,1.2l.1.2c0-.1.1-2.1.8-2.4a.3491.3491,0,0,0,.2-.1.31.31,0,0,1-.1.2,4.6025,4.6025,0,0,0-.5,1.6v.2a1.3807,1.3807,0,0,1,.9-.7h.1s0,.1-.2.2a6.5246,6.5246,0,0,0-.9,1.6v.5C64.4,87.9,64.3,87.9,64.2,87.9Z" fill="#a9cda6"/></g></g></g><g id="roughgrass_bd-15" data-name="roughgrass_bd" style="isolation:isolate"><g id="RoughGrass_FC-15" data-name="RoughGrass_FC"><path d="M51.5,85.7v.1l-.1.1h-.3l-.3-.5v-.1l.1-.1h.3Z" fill="#a9cda6"/><path d="M53.8,85.2h0a1.7265,1.7265,0,0,0-.4-.3c-.1-.2.1-.7.1-.7v-.7A1.432,1.432,0,0,1,53.8,85.2Z" fill="#a9cda6"/><path d="M53.8,85.2c.1.1.2.1.2.4h-.3A.7559.7559,0,0,1,53.8,85.2Z" fill="#a9cda6"/><path d="M55.9,84.3l-.5.5a2.1644,2.1644,0,0,0-.3.6v.2a.4829.4829,0,0,1-.4,0,2.18,2.18,0,0,0,.1-.6s0-1.1.5-1.2c0,0,.4-.2.1.1a1.67,1.67,0,0,0-.3.9C55.2,84.7,55.5,84.3,55.9,84.3Z" fill="#a9cda6"/><path d="M57.9,85.4v.1l-.3.4c0,.1-.1.1-.2,0h-.1l-.1-.1v-.1l.3-.5c0-.1.1-.1.2,0l.2.2Z" fill="#a9cda6"/><path d="M52.5,84.9l.2.7v.1l-.1.1h-.1c-.1,0-.1,0-.2-.1l-.2-.7v-.1l.1-.1h.1C52.4,84.7,52.5,84.8,52.5,84.9Z" fill="#a9cda6"/><path d="M56.5,84.8h.1l.1.1V85l-.2.7c0,.1-.1.1-.2.1h-.1l-.1-.1v-.1l.2-.7C56.3,84.8,56.4,84.7,56.5,84.8Z" fill="#a9cda6"/></g></g><g id="roughgrass_bd-16" data-name="roughgrass_bd" style="isolation:isolate"><g id="RoughGrass_FC-16" data-name="RoughGrass_FC"><path d="M7,94.7v.1l-.1.1H6.6l-.3-.5v-.1l.1-.1h.3Z" fill="#a9cda6"/><path d="M9.3,94.2h0a1.7265,1.7265,0,0,0-.4-.3,1.1041,1.1041,0,0,1,.1-.7v-.7A1.65,1.65,0,0,1,9.3,94.2Z" fill="#a9cda6"/><path d="M9.3,94.2c.1.1.2.1.2.4H9.2C9.1,94.5,9.2,94.4,9.3,94.2Z" fill="#a9cda6"/><path d="M11.4,93.3l-.5.5a2.1644,2.1644,0,0,0-.3.6v.2a.4829.4829,0,0,1-.4,0,2.18,2.18,0,0,0,.1-.6s0-1.1.5-1.2c0,0,.4-.2.1.1a1.67,1.67,0,0,0-.3.9C10.7,93.7,11,93.3,11.4,93.3Z" fill="#a9cda6"/><path d="M13.4,94.4v.1l-.3.4c0,.1-.1.1-.2,0h-.1l-.1-.1v-.1l.3-.5c0-.1.1-.1.2,0l.2.2Z" fill="#a9cda6"/><path d="M8,93.9l.2.7v.1l-.1.1H8c-.1,0-.1,0-.2-.1L7.6,94v-.1l.1-.1h.1C7.9,93.7,7.9,93.8,8,93.9Z" fill="#a9cda6"/><path d="M12,93.8h.1l.1.1V94l-.2.7c0,.1-.1.1-.2.1h-.1l-.1-.1v-.1l.2-.7C11.8,93.8,11.9,93.7,12,93.8Z" fill="#a9cda6"/></g></g><g id="scrub_bd-16" data-name="scrub_bd" style="isolation:isolate"><g id="Scrub_FC-16" data-name="Scrub_FC"><g id="Deleted_Symbol_1-16" data-name="Deleted Symbol 1"><path d="M12.1,91.1c-.1,0-.1,0-.1-.1l-.3-1c0-.1,0-.1.1-.2l.2-.1h.1a.0979.0979,0,0,1,.1.1l.3,1c0,.1,0,.1-.1.2a.3674.3674,0,0,1-.3.1Z" fill="#a9cda6"/><path d="M14,90.9a.0979.0979,0,0,1-.1-.1v-1c0-.1,0-.1-.1-.1h-.1a.31.31,0,0,0-.2.1h-.1c-.1,0-.1,0-.1-.1l-.1-.1v-.2a1.69,1.69,0,0,1,.5-.2.52.52,0,0,1,.4.2.6012.6012,0,0,1,.1.4v1a.0979.0979,0,0,1-.1.1Z" fill="#a9cda6"/><path d="M18.3,91h-.2c-.1,0-.1-.1-.1-.2l.3-1a.0979.0979,0,0,1,.1-.1h.3c.1,0,.1.1.1.2l-.3,1c0,.1-.1.1-.2.1Z" fill="#a9cda6"/><path d="M16.1,90.8a.3674.3674,0,0,1-.3-.1,16.7048,16.7048,0,0,0-.7-2.4.31.31,0,0,1-.1-.2c.1,0,.2.1.3.1,0,0,.4.2.6,1.2l.1.2c0-.1.1-2.1.8-2.4a.3491.3491,0,0,0,.2-.1.31.31,0,0,1-.1.2,4.6025,4.6025,0,0,0-.5,1.6v.2a1.3807,1.3807,0,0,1,.9-.7h.1s0,.1-.2.2a6.5246,6.5246,0,0,0-.9,1.6v.5C16.3,90.8,16.2,90.8,16.1,90.8Z" fill="#a9cda6"/></g></g></g><g id="roughgrass_bd-17" data-name="roughgrass_bd" style="isolation:isolate"><g id="RoughGrass_FC-17" data-name="RoughGrass_FC"><path d="M3.4,88.6v.1l-.1.1H3l-.3-.5v-.1l.1-.1h.3Z" fill="#a9cda6"/><path d="M5.7,88.1h0a1.7265,1.7265,0,0,0-.4-.3c-.1-.2.1-.7.1-.7v-.7A1.432,1.432,0,0,1,5.7,88.1Z" fill="#a9cda6"/><path d="M5.7,88.1c.1.1.2.1.2.4H5.6C5.6,88.3,5.7,88.2,5.7,88.1Z" fill="#a9cda6"/><path d="M7.9,87.2l-.5.5a2.1644,2.1644,0,0,0-.3.6v.2a.4829.4829,0,0,1-.4,0,2.18,2.18,0,0,0,.1-.6s0-1.1.5-1.2c0,0,.4-.2.1.1a1.67,1.67,0,0,0-.3.9A.8514.8514,0,0,1,7.9,87.2Z" fill="#a9cda6"/><path d="M9.9,88.2v.1l-.3.4c0,.1-.1.1-.2,0H9.3l-.1-.1v-.1l.3-.5c0-.1.1-.1.2,0l.2.2Z" fill="#a9cda6"/><path d="M4.4,87.7l.2.7v.1l-.1.1H4.4c-.1,0-.1,0-.2-.1L4,87.8v-.1l.1-.1h.1C4.3,87.6,4.4,87.6,4.4,87.7Z" fill="#a9cda6"/><path d="M8.4,87.6h.1l.1.1v.1l-.2.7c0,.1-.1.1-.2.1H8v-.1l.2-.7C8.3,87.6,8.3,87.6,8.4,87.6Z" fill="#a9cda6"/></g></g></svg>