<svg id="Layer_1" data-name="Layer 1" xmlns="http://www.w3.org/2000/svg" width="33.8667mm" height="33.8667mm" viewBox="0 0 96 96"><g id="scrub_bd"><g id="Scrub_FC"><g id="Deleted_Symbol_1" data-name="Deleted Symbol 1"><path d="M12.9,79.8c-.1,0-.1,0-.1-.1l-.3-1c0-.1,0-.1.1-.2l.2-.1h.1a.0979.0979,0,0,1,.1.1l.3,1c0,.1,0,.1-.1.2a.774.774,0,0,1-.3.1Z" fill="#a9cda5"/><path d="M14.7,79.6a.0979.0979,0,0,1-.1-.1V78.4h-.1a.31.31,0,0,0-.2.1h-.1c-.1,0-.1,0-.1-.1l-.1-.1v-.2c.2-.1.3-.2.5-.2a.52.52,0,0,1,.4.2.6012.6012,0,0,1,.1.4v1a.0979.0979,0,0,1-.1.1Z" fill="#a9cda5"/><path d="M18.9,79.7h-.2c-.1,0-.1-.1-.1-.2l.3-1a.0979.0979,0,0,1,.1-.1h.3c.1,0,.1.1.1.2l-.3,1c-.1.1-.1.1-.2.1Z" fill="#a9cda5"/><path d="M16.7,79.5a.3674.3674,0,0,1-.3-.1,7.8942,7.8942,0,0,0-.7-2.3.3491.3491,0,0,0-.1-.2c.1,0,.2.1.3.1,0,0,.4.2.6,1.2l.1.2c0-.1.1-2,.8-2.4a.3491.3491,0,0,0,.2-.1.31.31,0,0,1-.1.2,3.5548,3.5548,0,0,0-.4,1.6v.2a1.3807,1.3807,0,0,1,.9-.7h.1s0,.1-.2.2a6.69,6.69,0,0,0-.9,1.5v.5C16.9,79.5,16.9,79.5,16.7,79.5Z" fill="#a9cda5"/></g></g></g><g id="coniferoustree_bd"><g id="ConiferousTree_FC"><g id="Deleted_Symbol" data-name="Deleted Symbol"><path d="M23,75.8c-.8-.1-1.6-1.5-1.6-1.5l.1,2.2c-.1.3-.6.1-.6.1v-2A3.7145,3.7145,0,0,1,19.4,76c-.3,0-.1-.2-.1-.2,1.4-1.4,1.5-1.9,1.5-1.9a4.8858,4.8858,0,0,0,.1-1.6c-.7,1-1.2,1.1-1.2,1.1h-.2c-.1-.1.1-.3.1-.3a1.7556,1.7556,0,0,1,.5-.4h0a2.722,2.722,0,0,0,.8-1.2l.2-1s0-.1.1,0l.1,1.1a9.19,9.19,0,0,0,1.2,1.6c.1.1-.1.1-.1.1-.6-.1-1.1-.9-1.1-.9l.1,1.7A5.7617,5.7617,0,0,0,23,75.7C23.3,75.6,23,75.8,23,75.8Zm-3.3-2.9Zm.2-.1c-.1.1-.1.1-.2.1C19.8,72.9,19.8,72.8,19.9,72.8Zm.1-.2-.1.1A.0979.0979,0,0,0,20,72.6Zm.1-.1-.1.1A.0979.0979,0,0,0,20.1,72.5Zm0,0Zm.1-.1Z" fill="#a9cda5"/></g></g></g><g id="nonconiferoustree_bd"><g id="NonConiferousTree_FC"><g id="Deleted_Symbol_2" data-name="Deleted Symbol 2"><path d="M15.2,72.3a1.11,1.11,0,0,1-1.1,1.1,1.4213,1.4213,0,0,1-.6-.2.752.752,0,0,1-.7.5,3.7463,3.7463,0,0,0,.1.8h0c0,.1-.1.1-.1.2-.1,0-.1.1-.2.1s-.1,0-.2-.1c-.1,0-.1-.1-.1-.2v-.9a2.092,2.092,0,0,1-.6-.4,1.1355,1.1355,0,0,1-.8.3,1.11,1.11,0,0,1-1.1-1.1,1.05,1.05,0,0,1,.5-.9v-.3a1.17,1.17,0,0,1,.8-1.1V70a1.0324,1.0324,0,0,1,1.1-1.1,1.0879,1.0879,0,0,1,1.1.9h.1a1.11,1.11,0,0,1,1.1,1.1v.2A1.5249,1.5249,0,0,1,15.2,72.3Zm-.4,0c0-.3-.3-.7-.6-.7H14v-.2c0-.1.1-.2.1-.3a.7133.7133,0,0,0-.8-.7h-.2l-.2.1h-.1v-.4a.7133.7133,0,0,0-.8-.7.6835.6835,0,0,0-.7.7v.2h0v.3H11a.6611.6611,0,0,0-.6.7.3674.3674,0,0,0,.1.3h0l.1.1v.1h-.2a.752.752,0,0,0-.5.7.7728.7728,0,0,0,.7.8.7549.7549,0,0,0,.7-.4.31.31,0,0,1,.1-.2v0l.1.2h0a.74.74,0,0,0,1.4,0h0l.1-.2v-.1l.1.1.2.2a.7638.7638,0,0,0,.5.2C14.5,73,14.8,72.7,14.8,72.3Z" fill="#a9cda5"/></g></g></g><g id="scrub_bd-2" data-name="scrub_bd" style="isolation:isolate"><g id="Scrub_FC-2" data-name="Scrub_FC"><g id="Deleted_Symbol_1-2" data-name="Deleted Symbol 1"><path d="M48.7,69.4c-.1,0-.1,0-.1-.1l-.3-1c0-.1,0-.1.1-.2l.2-.1h.1a.0979.0979,0,0,1,.1.1l.3,1c0,.1,0,.1-.1.2-.2.1-.2.1-.3.1Z" fill="#a9cda5"/><path d="M50.5,69.2a.0979.0979,0,0,1-.1-.1V68h-.1a.31.31,0,0,0-.2.1H50c-.1,0-.1,0-.1-.1l-.1-.1v-.2c.2-.1.3-.2.5-.2a.52.52,0,0,1,.4.2.6012.6012,0,0,1,.1.4v1a.0979.0979,0,0,1-.1.1Z" fill="#a9cda5"/><path d="M54.8,69.3h-.2c-.1,0-.1-.1-.1-.2l.3-1a.0979.0979,0,0,1,.1-.1h.3c.1,0,.1.1.1.2l-.3,1a.31.31,0,0,1-.2.1Z" fill="#a9cda5"/><path d="M52.6,69.1a.3674.3674,0,0,1-.3-.1,7.8942,7.8942,0,0,0-.7-2.3.3491.3491,0,0,0-.1-.2c.1,0,.2.1.3.1,0,0,.4.2.6,1.2l.1.2c0-.1.1-2,.8-2.4a.3491.3491,0,0,0,.2-.1.31.31,0,0,1-.1.2,3.5548,3.5548,0,0,0-.4,1.6v.2a1.3807,1.3807,0,0,1,.9-.7H54s0,.1-.2.2a6.69,6.69,0,0,0-.9,1.5V69A.3674.3674,0,0,1,52.6,69.1Z" fill="#a9cda5"/></g></g></g><g id="coniferoustree_bd-2" data-name="coniferoustree_bd" style="isolation:isolate"><g id="ConiferousTree_FC-2" data-name="ConiferousTree_FC"><g id="Deleted_Symbol-2" data-name="Deleted Symbol"><path d="M58.8,65.4c-.8-.1-1.6-1.5-1.6-1.5l.1,2.2c-.1.3-.6.1-.6.1v-2a3.7145,3.7145,0,0,1-1.5,1.4c-.3,0-.1-.2-.1-.2,1.4-1.4,1.5-1.9,1.5-1.9a4.8858,4.8858,0,0,0,.1-1.6c-.7,1-1.2,1.1-1.2,1.1h-.2c-.1-.1.1-.3.1-.3a1.7556,1.7556,0,0,1,.5-.4h0a2.722,2.722,0,0,0,.8-1.2l.2-1s0-.1.1,0l.1,1.1a9.19,9.19,0,0,0,1.2,1.6c.1.1-.1.1-.1.1-.6-.1-1.1-.9-1.1-.9l.1,1.7a5.7617,5.7617,0,0,0,1.6,1.6C59.2,65.2,58.8,65.4,58.8,65.4Zm-3.2-2.9Zm.1-.1c-.1.1-.1.1-.2.1A.3491.3491,0,0,0,55.7,62.4Zm.2-.2-.1.1Zm.1-.1-.1.1Zm0,0Zm.1-.1Z" fill="#a9cda5"/></g></g></g><g id="nonconiferoustree_bd-2" data-name="nonconiferoustree_bd" style="isolation:isolate"><g id="NonConiferousTree_FC-2" data-name="NonConiferousTree_FC"><g id="Deleted_Symbol_2-2" data-name="Deleted Symbol 2"><path d="M51,61.9A1.11,1.11,0,0,1,49.9,63a1.4213,1.4213,0,0,1-.6-.2.752.752,0,0,1-.7.5,3.7463,3.7463,0,0,0,.1.8h0c0,.1-.1.1-.1.2-.1,0-.1.1-.2.1s-.1,0-.2-.1c-.1,0-.1-.1-.1-.2v-.9a2.092,2.092,0,0,1-.6-.4,1.1355,1.1355,0,0,1-.8.3A1.11,1.11,0,0,1,45.6,62a1.05,1.05,0,0,1,.5-.9v-.3a1.17,1.17,0,0,1,.8-1.1v-.1A1.0324,1.0324,0,0,1,48,58.5a1.0879,1.0879,0,0,1,1.1.9h.1a1.11,1.11,0,0,1,1.1,1.1v.2A1.5249,1.5249,0,0,1,51,61.9Zm-.4,0c0-.3-.3-.7-.6-.7h-.2V61c0-.1.1-.2.1-.3a.7133.7133,0,0,0-.8-.7h-.2l-.2.1h-.1v-.4a.7133.7133,0,0,0-.8-.7.6835.6835,0,0,0-.7.7v.2h0v.3h-.3a.6611.6611,0,0,0-.6.7.3674.3674,0,0,0,.1.3h0l.1.1v.1h-.2a.752.752,0,0,0-.5.7.7728.7728,0,0,0,.7.8.7549.7549,0,0,0,.7-.4.31.31,0,0,1,.1-.2v0l.1.2h0a.74.74,0,0,0,1.4,0h0l.1-.2v-.1l.1.1.2.2a.7638.7638,0,0,0,.5.2C50.3,62.6,50.6,62.3,50.6,61.9Z" fill="#a9cda5"/></g></g></g><g id="scrub_bd-3" data-name="scrub_bd" style="isolation:isolate"><g id="Scrub_FC-3" data-name="Scrub_FC"><g id="Deleted_Symbol_1-3" data-name="Deleted Symbol 1"><path d="M8.5,52.3c-.1,0-.1,0-.1-.1l-.3-1c0-.1,0-.1.1-.2h.2a.0979.0979,0,0,1,.1.1l.3,1c0,.1,0,.1-.1.2Z" fill="#a9cda5"/><path d="M10.3,52.1a.0979.0979,0,0,1-.1-.1V50.9h-.1a.31.31,0,0,0-.2.1H9.8c-.1,0-.1,0-.1-.1l-.1-.1v-.2c.2-.1.3-.2.5-.2a.52.52,0,0,1,.4.2.6012.6012,0,0,1,.1.4v1a.0979.0979,0,0,1-.1.1Z" fill="#a9cda5"/><path d="M14.6,52.2h-.2c-.1,0-.1-.1-.1-.2l.3-1a.0979.0979,0,0,1,.1-.1H15c.1,0,.1.1.1.2l-.3,1a.31.31,0,0,1-.2.1Z" fill="#a9cda5"/><path d="M12.4,52a.3674.3674,0,0,1-.3-.1,7.8942,7.8942,0,0,0-.7-2.3.3491.3491,0,0,0-.1-.2c.1,0,.2.1.3.1,0,0,.4.2.6,1.2l.1.2c0-.1.1-2,.8-2.4a.3491.3491,0,0,0,.2-.1.31.31,0,0,1-.1.2,3.5548,3.5548,0,0,0-.4,1.6v.2a1.3807,1.3807,0,0,1,.9-.7h.1s0,.1-.2.2a6.69,6.69,0,0,0-.9,1.5v.5C12.6,51.9,12.5,52,12.4,52Z" fill="#a9cda5"/></g></g></g><g id="coniferoustree_bd-3" data-name="coniferoustree_bd" style="isolation:isolate"><g id="ConiferousTree_FC-3" data-name="ConiferousTree_FC"><g id="Deleted_Symbol-3" data-name="Deleted Symbol"><path d="M18.6,48.3c-.8-.1-1.6-1.5-1.6-1.5l.1,2.2c-.1.3-.6,0-.6,0V47A3.7145,3.7145,0,0,1,15,48.4c-.3,0-.1-.2-.1-.2,1.4-1.4,1.5-1.9,1.5-1.9a4.8858,4.8858,0,0,0,.1-1.6c-.7,1-1.2,1.1-1.2,1.1h-.2c-.1-.1.1-.3.1-.3a1.7556,1.7556,0,0,1,.5-.4h0a2.722,2.722,0,0,0,.8-1.2l.2-1s0-.1.1,0l.1,1.1a9.19,9.19,0,0,0,1.2,1.6c.1.1-.1.1-.1.1-.6-.1-1.1-.9-1.1-.9l.1,1.7a5.7617,5.7617,0,0,0,1.6,1.6C19,48.1,18.6,48.3,18.6,48.3Zm-3.2-2.9Zm.1-.2c-.1.1-.1.1-.2.1C15.4,45.3,15.5,45.3,15.5,45.2Zm.2-.1-.1.1Zm.1-.1-.1.1Zm0,0Zm.1-.1Z" fill="#a9cda5"/></g></g></g><g id="nonconiferoustree_bd-3" data-name="nonconiferoustree_bd" style="isolation:isolate"><g id="NonConiferousTree_FC-3" data-name="NonConiferousTree_FC"><g id="Deleted_Symbol_2-3" data-name="Deleted Symbol 2"><path d="M10.8,44.8a1.11,1.11,0,0,1-1.1,1.1,1.4213,1.4213,0,0,1-.6-.2.752.752,0,0,1-.7.5,3.7463,3.7463,0,0,0,.1.8h0c0,.1-.1.1-.1.2-.1,0-.1.1-.2.1s-.1,0-.2-.1c-.1,0-.1-.1-.1-.2v-.9a2.092,2.092,0,0,1-.6-.4,1.1355,1.1355,0,0,1-.8.3,1.11,1.11,0,0,1-1.1-1.1,1.05,1.05,0,0,1,.5-.9v-.3a1.17,1.17,0,0,1,.8-1.1v-.1a1.0324,1.0324,0,0,1,1.1-1.1,1.0879,1.0879,0,0,1,1.1.9H9a1.11,1.11,0,0,1,1.1,1.1v.2A1.5249,1.5249,0,0,1,10.8,44.8Zm-.4,0c0-.3-.3-.7-.6-.7H9.6v-.2c0-.1.1-.2.1-.3a.7133.7133,0,0,0-.8-.7H8.7l-.2.1H8.4v-.4a.7133.7133,0,0,0-.8-.7.6835.6835,0,0,0-.7.7v.2h0v.3H6.8a.6611.6611,0,0,0-.6.7.3674.3674,0,0,0,.1.3h0l.1.1v.1H6.2a.752.752,0,0,0-.5.7.7728.7728,0,0,0,.7.8.7549.7549,0,0,0,.7-.4.31.31,0,0,1,.1-.2v0l.1.2h0a.74.74,0,0,0,1.4,0h0l.1-.2v-.1H9l.2.2a.7638.7638,0,0,0,.5.2A.6835.6835,0,0,0,10.4,44.8Z" fill="#a9cda5"/></g></g></g><g id="scrub_bd-4" data-name="scrub_bd" style="isolation:isolate"><g id="Scrub_FC-4" data-name="Scrub_FC"><g id="Deleted_Symbol_1-4" data-name="Deleted Symbol 1"><path d="M17.2,31.8c-.1,0-.1,0-.1-.1l-.3-1c0-.1,0-.1.1-.2l.2-.1h.1a.0979.0979,0,0,1,.1.1l.3,1c0,.1,0,.1-.1.2a.774.774,0,0,1-.3.1Z" fill="#a9cda5"/><path d="M19,31.5a.0979.0979,0,0,1-.1-.1V30.3h-.1a.31.31,0,0,0-.2.1h-.1c-.1,0-.1,0-.1-.1l-.1-.1V30c.2-.1.3-.2.5-.2a.52.52,0,0,1,.4.2.6012.6012,0,0,1,.1.4v1a.0979.0979,0,0,1-.1.1Z" fill="#a9cda5"/><path d="M23.2,31.7H23c-.1,0-.1-.1-.1-.2l.3-1a.0979.0979,0,0,1,.1-.1h.3c.1,0,.1.1.1.2l-.3,1c-.1,0-.1.1-.2.1Z" fill="#a9cda5"/><path d="M21.1,31.5a.3674.3674,0,0,1-.3-.1,7.8942,7.8942,0,0,0-.7-2.3.3491.3491,0,0,0-.1-.2c.1,0,.2.1.3.1,0,0,.4.2.6,1.2l.1.2c0-.1.1-2,.8-2.4a.3491.3491,0,0,0,.2-.1.31.31,0,0,1-.1.2,3.5548,3.5548,0,0,0-.4,1.6v.2a1.3807,1.3807,0,0,1,.9-.7h.1s0,.1-.2.2a6.69,6.69,0,0,0-.9,1.5v.5C21.3,31.4,21.2,31.5,21.1,31.5Z" fill="#a9cda5"/></g></g></g><g id="coniferoustree_bd-4" data-name="coniferoustree_bd" style="isolation:isolate"><g id="ConiferousTree_FC-4" data-name="ConiferousTree_FC"><g id="Deleted_Symbol-4" data-name="Deleted Symbol"><path d="M27.3,27.7c-.8-.1-1.6-1.5-1.6-1.5l.1,2.2c-.1.3-.6.1-.6.1v-2a3.7145,3.7145,0,0,1-1.5,1.4c-.3,0-.1-.2-.1-.2,1.4-1.4,1.5-1.9,1.5-1.9a4.8858,4.8858,0,0,0,.1-1.6c-.7,1-1.2,1.1-1.2,1.1h-.2c-.1-.1.1-.3.1-.3a1.7556,1.7556,0,0,1,.5-.4h0a2.722,2.722,0,0,0,.8-1.2l.2-1s0-.1.1,0l.1,1.1a9.19,9.19,0,0,0,1.2,1.6c.1.1-.1.1-.1.1-.6-.1-1.1-.9-1.1-.9l.1,1.7a5.7617,5.7617,0,0,0,1.6,1.6C27.6,27.5,27.3,27.7,27.3,27.7ZM24,24.9Zm.2-.2c-.1.1-.1.1-.2.1C24.1,24.8,24.1,24.8,24.2,24.7Zm.1-.1-.1.1Zm.1-.1-.1.1A.0979.0979,0,0,0,24.4,24.5Zm0,0Zm.2-.1Z" fill="#a9cda5"/></g></g></g><g id="nonconiferoustree_bd-4" data-name="nonconiferoustree_bd" style="isolation:isolate"><g id="NonConiferousTree_FC-4" data-name="NonConiferousTree_FC"><g id="Deleted_Symbol_2-4" data-name="Deleted Symbol 2"><path d="M19.5,24.2a1.11,1.11,0,0,1-1.1,1.1,1.4213,1.4213,0,0,1-.6-.2.752.752,0,0,1-.7.5,3.7463,3.7463,0,0,0,.1.8h0c0,.1-.1.1-.1.2-.1,0-.1.1-.2.1s-.1,0-.2-.1c-.1,0-.1-.1-.1-.2v-.9a2.092,2.092,0,0,1-.6-.4,1.1355,1.1355,0,0,1-.8.3,1.11,1.11,0,0,1-1.1-1.1,1.05,1.05,0,0,1,.5-.9v-.3a1.17,1.17,0,0,1,.8-1.1v-.1a1.0324,1.0324,0,0,1,1.1-1.1,1.0879,1.0879,0,0,1,1.1.9h.1a1.11,1.11,0,0,1,1.1,1.1V23A1.9062,1.9062,0,0,1,19.5,24.2Zm-.4,0c0-.3-.3-.7-.6-.7h-.2v-.2c0-.1.1-.2.1-.3a.7133.7133,0,0,0-.8-.7h-.2l-.2.1h-.1V22a.7133.7133,0,0,0-.8-.7.6835.6835,0,0,0-.7.7v.2h0v.3h-.3a.6611.6611,0,0,0-.6.7.3674.3674,0,0,0,.1.3h0l.1.1v.1h-.2a.752.752,0,0,0-.5.7.7728.7728,0,0,0,.7.8.7549.7549,0,0,0,.7-.4.31.31,0,0,1,.1-.2v0l.1.2h0a.74.74,0,0,0,1.4,0h0l.1-.2v-.1l.1.1.2.2a.7638.7638,0,0,0,.5.2C18.8,25,19.1,24.7,19.1,24.2Z" fill="#a9cda5"/></g></g></g><g id="scrub_bd-5" data-name="scrub_bd" style="isolation:isolate"><g id="Scrub_FC-5" data-name="Scrub_FC"><g id="Deleted_Symbol_1-5" data-name="Deleted Symbol 1"><path d="M47.3,12.5c-.1,0-.1,0-.1-.1l-.3-1c0-.1,0-.1.1-.2l.2-.1h.1a.0979.0979,0,0,1,.1.1l.3,1c0,.1,0,.1-.1.2-.2.1-.2.1-.3.1Z" fill="#a9cda5"/><path d="M49.1,12.3a.0979.0979,0,0,1-.1-.1V11.1h-.1a.31.31,0,0,0-.2.1h-.1c-.1,0-.1,0-.1-.1l-.1-.1v-.2c.2-.1.3-.2.5-.2a.52.52,0,0,1,.4.2.6012.6012,0,0,1,.1.4v1a.0979.0979,0,0,1-.1.1Z" fill="#a9cda5"/><path d="M53.3,12.4h-.2c-.1,0-.1-.1-.1-.2l.3-1a.0979.0979,0,0,1,.1-.1h.3c.1,0,.1.1.1.2l-.3,1c0,.1-.1.1-.2.1Z" fill="#a9cda5"/><path d="M51.2,12.2a.3674.3674,0,0,1-.3-.1,7.8942,7.8942,0,0,0-.7-2.3.3491.3491,0,0,0-.1-.2c.1,0,.2.1.3.1,0,0,.4.2.6,1.2l.1.2c0-.1.1-2,.8-2.4a.3491.3491,0,0,0,.2-.1.31.31,0,0,1-.1.2,3.5548,3.5548,0,0,0-.4,1.6v.2a1.3807,1.3807,0,0,1,.9-.7h.1s0,.1-.2.2a6.69,6.69,0,0,0-.9,1.5v.5C51.4,12.1,51.3,12.2,51.2,12.2Z" fill="#a9cda5"/></g></g></g><g id="coniferoustree_bd-5" data-name="coniferoustree_bd" style="isolation:isolate"><g id="ConiferousTree_FC-5" data-name="ConiferousTree_FC"><g id="Deleted_Symbol-5" data-name="Deleted Symbol"><path d="M57.4,8.4c-.8-.1-1.6-1.5-1.6-1.5l.1,2.2c-.1.3-.6.1-.6.1v-2a3.7145,3.7145,0,0,1-1.5,1.4c-.3,0-.1-.2-.1-.2,1.4-1.4,1.5-1.9,1.5-1.9a4.8858,4.8858,0,0,0,.1-1.6c-.7,1-1.2,1.1-1.2,1.1h-.2c-.1-.1.1-.3.1-.3a1.7556,1.7556,0,0,1,.5-.4h0A3.94,3.94,0,0,0,55.4,4l.2-1s0-.1.1,0l.1,1A9.19,9.19,0,0,0,57,5.6c.1.1-.1.1-.1.1-.6-.1-1.1-.9-1.1-.9l.1,1.7a5.7617,5.7617,0,0,0,1.6,1.6C57.8,8.2,57.4,8.4,57.4,8.4ZM54.2,5.6Zm.1-.2c-.1.1-.1.1-.2.1C54.2,5.5,54.3,5.5,54.3,5.4Zm.2-.1-.1.1A.0979.0979,0,0,1,54.5,5.3Zm.1-.1-.1.1A.0979.0979,0,0,1,54.6,5.2Zm0,0Zm.1-.1Z" fill="#a9cda5"/></g></g></g><g id="nonconiferoustree_bd-5" data-name="nonconiferoustree_bd" style="isolation:isolate"><g id="NonConiferousTree_FC-5" data-name="NonConiferousTree_FC"><g id="Deleted_Symbol_2-5" data-name="Deleted Symbol 2"><path d="M49.6,5a1.11,1.11,0,0,1-1.1,1.1,1.4213,1.4213,0,0,1-.6-.2.752.752,0,0,1-.7.5,3.7463,3.7463,0,0,0,.1.8h0c0,.1-.1.1-.1.2-.1,0-.1.1-.2.1s-.1,0-.2-.1c-.1,0-.1-.1-.1-.2V6.3a2.092,2.092,0,0,1-.6-.4,1.1355,1.1355,0,0,1-.8.3,1.11,1.11,0,0,1-1.1-1.1,1.05,1.05,0,0,1,.5-.9V3.9a1.17,1.17,0,0,1,.8-1.1V2.7a1.1355,1.1355,0,0,1,.3-.8,1.1355,1.1355,0,0,1,.8-.3,1.0879,1.0879,0,0,1,1.1.9h.1a1.11,1.11,0,0,1,1.1,1.1v.2A1.5249,1.5249,0,0,1,49.6,5Zm-.4,0c0-.3-.3-.7-.6-.7h-.2V4.1c0-.1.1-.2.1-.3a.7133.7133,0,0,0-.8-.7h-.2l-.2.1h-.1V2.8a.7133.7133,0,0,0-.8-.7.6835.6835,0,0,0-.7.7V3h0v.3h-.3A.7629.7629,0,0,0,45,4a.3674.3674,0,0,0,.1.3h0l.1.1v.1H45a.752.752,0,0,0-.5.7.7728.7728,0,0,0,.7.8.7549.7549,0,0,0,.7-.4.31.31,0,0,1,.1-.2v0l.1.2h0a.74.74,0,0,0,1.4,0h0l.1-.2V5.3l.1.1.2.2a.7638.7638,0,0,0,.5.2C48.9,5.7,49.2,5.4,49.2,5Z" fill="#a9cda5"/></g></g></g><g id="scrub_bd-6" data-name="scrub_bd" style="isolation:isolate"><g id="Scrub_FC-6" data-name="Scrub_FC"><g id="Deleted_Symbol_1-6" data-name="Deleted Symbol 1"><path d="M69.4,28.4c-.1,0-.1,0-.1-.1l-.3-1c0-.1,0-.1.1-.2l.2-.1h.1a.0979.0979,0,0,1,.1.1l.3,1c0,.1,0,.1-.1.2a.438.438,0,0,0-.3.1Z" fill="#a9cda5"/><path d="M71.2,28.1a.0979.0979,0,0,1-.1-.1V26.9H71a.31.31,0,0,0-.2.1h-.1c-.1,0-.1,0-.1-.1l-.1-.1v-.2c.2-.1.3-.2.5-.2a.52.52,0,0,1,.4.2.6012.6012,0,0,1,.1.4v1a.0979.0979,0,0,1-.1.1Z" fill="#a9cda5"/><path d="M75.4,28.2h-.2c-.1,0-.1-.1-.1-.2l.3-1a.0979.0979,0,0,1,.1-.1h.3c.1,0,.1.1.1.2l-.3,1c-.1.1-.1.2-.2.1Z" fill="#a9cda5"/><path d="M73.2,28a.3674.3674,0,0,1-.3-.1,7.8942,7.8942,0,0,0-.7-2.3.3491.3491,0,0,0-.1-.2c.1,0,.2.1.3.1,0,0,.4.2.6,1.2l.1.2c0-.1.1-2,.8-2.4a.3491.3491,0,0,0,.2-.1.31.31,0,0,1-.1.2,3.5548,3.5548,0,0,0-.4,1.6v.2a1.3807,1.3807,0,0,1,.9-.7h.1s0,.1-.2.2a6.69,6.69,0,0,0-.9,1.5v.5C73.4,28,73.4,28,73.2,28Z" fill="#a9cda5"/></g></g></g><g id="coniferoustree_bd-6" data-name="coniferoustree_bd" style="isolation:isolate"><g id="ConiferousTree_FC-6" data-name="ConiferousTree_FC"><g id="Deleted_Symbol-6" data-name="Deleted Symbol"><path d="M79.5,24.3c-.8-.1-1.6-1.5-1.6-1.5L78,25c-.1.3-.6.1-.6.1v-2a3.7145,3.7145,0,0,1-1.5,1.4c-.3,0-.1-.2-.1-.2,1.4-1.4,1.5-1.9,1.5-1.9a4.8858,4.8858,0,0,0,.1-1.6c-.7,1-1.2,1.1-1.2,1.1H76c-.1-.1.1-.3.1-.3a1.7556,1.7556,0,0,1,.5-.4h0a2.722,2.722,0,0,0,.8-1.2l.2-1s0-.1.1,0l.1,1.1A9.19,9.19,0,0,0,79,21.7c.1.1-.1.1-.1.1-.6-.1-1.1-.9-1.1-.9l.1,1.7a5.7617,5.7617,0,0,0,1.6,1.6C79.8,24.1,79.5,24.3,79.5,24.3Zm-3.3-2.9Zm.2-.1c-.1.1-.1.1-.2.1C76.3,21.4,76.3,21.3,76.4,21.3Zm.1-.1-.1.1Zm.1-.1-.1.1A.0979.0979,0,0,1,76.6,21.1Zm0,0Zm.1-.2Z" fill="#a9cda5"/></g></g></g><g id="nonconiferoustree_bd-6" data-name="nonconiferoustree_bd" style="isolation:isolate"><g id="NonConiferousTree_FC-6" data-name="NonConiferousTree_FC"><g id="Deleted_Symbol_2-6" data-name="Deleted Symbol 2"><path d="M71.7,20.8a1.11,1.11,0,0,1-1.1,1.1,1.4213,1.4213,0,0,1-.6-.2.752.752,0,0,1-.7.5,3.7463,3.7463,0,0,0,.1.8h0c0,.1-.1.1-.1.2-.1,0-.1.1-.2.1s-.1,0-.2-.1c-.1,0-.1-.1-.1-.2v-.9a2.092,2.092,0,0,1-.6-.4,1.1355,1.1355,0,0,1-.8.3,1.11,1.11,0,0,1-1.1-1.1,1.05,1.05,0,0,1,.5-.9v-.3a1.17,1.17,0,0,1,.8-1.1v-.1a1.0324,1.0324,0,0,1,1.1-1.1,1.0879,1.0879,0,0,1,1.1.9h.1A1.11,1.11,0,0,1,71,19.4v.2C71.4,20,71.7,20.3,71.7,20.8Zm-.4,0c0-.3-.3-.7-.6-.7h-.2v-.2c0-.1.1-.2.1-.3a.7133.7133,0,0,0-.8-.7h-.2l-.2.1h-.1v-.4a.7133.7133,0,0,0-.8-.7.6835.6835,0,0,0-.7.7v.2h0v.3h-.3a.6611.6611,0,0,0-.6.7.3674.3674,0,0,0,.1.3h0l.1.1v.1h-.2a.752.752,0,0,0-.5.7.7728.7728,0,0,0,.7.8.7549.7549,0,0,0,.7-.4.31.31,0,0,1,.1-.2v0l.1.2h0a.74.74,0,0,0,1.4,0h0l.1-.2v-.1l.1.1.2.2a.7638.7638,0,0,0,.5.2A.915.915,0,0,0,71.3,20.8Z" fill="#a9cda5"/></g></g></g><g id="scrub_bd-7" data-name="scrub_bd" style="isolation:isolate"><g id="Scrub_FC-7" data-name="Scrub_FC"><g id="Deleted_Symbol_1-7" data-name="Deleted Symbol 1"><path d="M80.2,11.8c-.1,0-.1,0-.1-.1l-.3-1c0-.1,0-.1.1-.2l.2-.1h.1a.0979.0979,0,0,1,.1.1l.3,1c0,.1,0,.1-.1.2-.2.1-.2.1-.3.1Z" fill="#a9cda5"/><path d="M82.1,11.6a.0979.0979,0,0,1-.1-.1V10.4h-.1a.31.31,0,0,0-.2.1h-.1c-.1,0-.1,0-.1-.1l-.1-.1v-.2c.2-.1.3-.2.5-.2a.52.52,0,0,1,.4.2.6012.6012,0,0,1,.1.4v1a.0979.0979,0,0,1-.1.1Z" fill="#a9cda5"/><path d="M86.3,11.7h-.2c-.1,0-.1-.1-.1-.2l.3-1a.0979.0979,0,0,1,.1-.1h.3c.1,0,.1.1.1.2l-.3,1c-.1.1-.1.1-.2.1Z" fill="#a9cda5"/><path d="M84.1,11.5a.3674.3674,0,0,1-.3-.1,7.8942,7.8942,0,0,0-.7-2.3.3491.3491,0,0,0-.1-.2c.1,0,.2.1.3.1,0,0,.4.2.6,1.2l.1.2c0-.1.1-2,.8-2.4H85a.31.31,0,0,1-.1.2,3.5548,3.5548,0,0,0-.4,1.6V10a1.3807,1.3807,0,0,1,.9-.7h.1s0,.1-.2.2a6.69,6.69,0,0,0-.9,1.5v.5Z" fill="#a9cda5"/></g></g></g><g id="coniferoustree_bd-7" data-name="coniferoustree_bd" style="isolation:isolate"><g id="ConiferousTree_FC-7" data-name="ConiferousTree_FC"><g id="Deleted_Symbol-7" data-name="Deleted Symbol"><path d="M90.3,7.8c-.8-.1-1.6-1.5-1.6-1.5l.1,2.2c-.1.3-.6.1-.6.1v-2A3.7145,3.7145,0,0,1,86.7,8c-.3,0-.1-.2-.1-.2,1.4-1.4,1.5-1.9,1.5-1.9a4.8858,4.8858,0,0,0,.1-1.6c-.7,1-1.2,1.1-1.2,1.1h-.2a.7651.7651,0,0,1,.2-.5,1.7556,1.7556,0,0,1,.5-.4h0a2.722,2.722,0,0,0,.8-1.2l.2-1s0-.1.1,0l.1,1.1A9.19,9.19,0,0,0,89.9,5h-.1c-.6-.1-1.1-.9-1.1-.9l.1,1.7a5.7617,5.7617,0,0,0,1.6,1.6C90.7,7.6,90.3,7.8,90.3,7.8ZM87.1,4.9Zm.1-.1c-.1.1-.1.1-.2.1A.3491.3491,0,0,0,87.2,4.8Zm.2-.2-.1.1Zm.1-.1-.1.1Zm0,0Zm.1-.1Z" fill="#a9cda5"/></g></g></g><g id="nonconiferoustree_bd-7" data-name="nonconiferoustree_bd" style="isolation:isolate"><g id="NonConiferousTree_FC-7" data-name="NonConiferousTree_FC"><g id="Deleted_Symbol_2-7" data-name="Deleted Symbol 2"><path d="M82.5,4.3a1.11,1.11,0,0,1-1.1,1.1,1.4213,1.4213,0,0,1-.6-.2.752.752,0,0,1-.7.5,3.7463,3.7463,0,0,0,.1.8h0c0,.1-.1.1-.1.2-.1,0-.1.1-.2.1s-.1,0-.2-.1c-.1,0-.1-.1-.1-.2V5.6a2.092,2.092,0,0,1-.6-.4,1.1355,1.1355,0,0,1-.8.3,1.11,1.11,0,0,1-1.1-1.1,1.05,1.05,0,0,1,.5-.9V3.2a1.17,1.17,0,0,1,.8-1.1V2a1.1355,1.1355,0,0,1,.3-.8,1.5491,1.5491,0,0,1,.8-.2,1.0879,1.0879,0,0,1,1.1.9h.1A1.11,1.11,0,0,1,81.8,3v.2A1.23,1.23,0,0,1,82.5,4.3Zm-.4,0c0-.3-.3-.7-.6-.7h-.2V3.4c0-.1.1-.2.1-.3a.7133.7133,0,0,0-.8-.7h-.2l-.2.1h-.1V2.1a.7133.7133,0,0,0-.8-.7.6835.6835,0,0,0-.7.7v.2h0v.3h-.3a.6611.6611,0,0,0-.6.7.3674.3674,0,0,0,.1.3h0l.1.1v.1h-.2a.752.752,0,0,0-.5.7.7728.7728,0,0,0,.7.8.7549.7549,0,0,0,.7-.4.31.31,0,0,1,.1-.2v0l.1.2h0a.74.74,0,0,0,1.4,0h0l.1-.2V4.6l.1.1.2.2c.4,0,.6.1.8.1A.6835.6835,0,0,0,82.1,4.3Z" fill="#a9cda5"/></g></g></g><g id="scrub_bd-8" data-name="scrub_bd" style="isolation:isolate"><g id="Scrub_FC-8" data-name="Scrub_FC"><g id="Deleted_Symbol_1-8" data-name="Deleted Symbol 1"><path d="M70.3,47.8c-.1,0-.1,0-.1-.1l-.3-1c0-.1,0-.1.1-.2l.2-.1h.1a.0979.0979,0,0,1,.1.1l.3,1c0,.1,0,.1-.1.2a.3674.3674,0,0,1-.3.1Z" fill="#a9cda5"/><path d="M72.2,47.6a.0979.0979,0,0,1-.1-.1V46.4H72a.31.31,0,0,0-.2.1h-.1c-.1,0-.1,0-.1-.1l-.1-.1v-.2c.2-.1.3-.2.5-.2a.52.52,0,0,1,.4.2.6012.6012,0,0,1,.1.4v1a.0979.0979,0,0,1-.1.1Z" fill="#a9cda5"/><path d="M76.4,47.7h-.2c-.1,0-.1-.1-.1-.2l.3-1a.0979.0979,0,0,1,.1-.1h.3c.1,0,.1.1.1.2l-.3,1c-.1.1-.1.1-.2.1Z" fill="#a9cda5"/><path d="M74.2,47.5a.3674.3674,0,0,1-.3-.1,7.8942,7.8942,0,0,0-.7-2.3.3491.3491,0,0,0-.1-.2c.1,0,.2.1.3.1,0,0,.4.2.6,1.2l.1.2c0-.1.1-2,.8-2.4a.3491.3491,0,0,0,.2-.1.31.31,0,0,1-.1.2,3.5548,3.5548,0,0,0-.4,1.6v.2a1.3807,1.3807,0,0,1,.9-.7h.1s0,.1-.2.2a6.69,6.69,0,0,0-.9,1.5v.5A.3674.3674,0,0,1,74.2,47.5Z" fill="#a9cda5"/></g></g></g><g id="coniferoustree_bd-8" data-name="coniferoustree_bd" style="isolation:isolate"><g id="ConiferousTree_FC-8" data-name="ConiferousTree_FC"><g id="Deleted_Symbol-8" data-name="Deleted Symbol"><path d="M80.4,43.8c-.8-.1-1.6-1.5-1.6-1.5l.1,2.2c-.1.3-.6.1-.6.1v-2A3.7145,3.7145,0,0,1,76.8,44c-.3,0-.1-.2-.1-.2,1.4-1.4,1.5-1.9,1.5-1.9a4.8858,4.8858,0,0,0,.1-1.6c-.7,1-1.2,1.1-1.2,1.1h-.2c-.1-.1.1-.3.1-.3a1.7556,1.7556,0,0,1,.5-.4h0a2.722,2.722,0,0,0,.8-1.2l.2-1s0-.1.1,0l.1,1.1a9.19,9.19,0,0,0,1.2,1.6c.1.1-.1.1-.1.1-.6-.1-1.1-.9-1.1-.9l.1,1.7a5.7617,5.7617,0,0,0,1.6,1.6C80.8,43.6,80.4,43.8,80.4,43.8Zm-3.2-2.9Zm.1-.1c-.1.1-.1.1-.2.1A.3491.3491,0,0,0,77.3,40.8Zm.2-.2-.1.1Zm.1,0-.1.1A.0979.0979,0,0,1,77.6,40.6Zm0,0Zm.1-.2Z" fill="#a9cda5"/></g></g></g><g id="nonconiferoustree_bd-8" data-name="nonconiferoustree_bd" style="isolation:isolate"><g id="NonConiferousTree_FC-8" data-name="NonConiferousTree_FC"><g id="Deleted_Symbol_2-8" data-name="Deleted Symbol 2"><path d="M72.6,40.3a1.11,1.11,0,0,1-1.1,1.1,1.4213,1.4213,0,0,1-.6-.2.752.752,0,0,1-.7.5,3.7463,3.7463,0,0,0,.1.8h0c0,.1-.1.1-.1.2-.1,0-.1.1-.2.1s-.1,0-.2-.1c-.1,0-.1-.1-.1-.2v-.9a2.092,2.092,0,0,1-.6-.4,1.1355,1.1355,0,0,1-.8.3,1.11,1.11,0,0,1-1.1-1.1,1.05,1.05,0,0,1,.5-.9v-.3a1.17,1.17,0,0,1,.8-1.1V38a1.0324,1.0324,0,0,1,1.1-1.1,1.0879,1.0879,0,0,1,1.1.9h.1a1.11,1.11,0,0,1,1.1,1.1v.2A1.5249,1.5249,0,0,1,72.6,40.3Zm-.3,0c0-.3-.3-.7-.6-.7h-.2v-.2c0-.1.1-.2.1-.3a.7133.7133,0,0,0-.8-.7h-.2l-.2.1h-.1v-.4a.7133.7133,0,0,0-.8-.7.6835.6835,0,0,0-.7.7v.2h0v.3h-.3a.6611.6611,0,0,0-.6.7.3674.3674,0,0,0,.1.3h0l.1.1v.1h-.2a.752.752,0,0,0-.5.7.7728.7728,0,0,0,.7.8.7549.7549,0,0,0,.7-.4.31.31,0,0,1,.1-.2v0l.1.2h0a.74.74,0,0,0,1.4,0h0l.1-.2v-.1l.1.1.2.2a.7638.7638,0,0,0,.5.2C71.9,41,72.3,40.7,72.3,40.3Z" fill="#a9cda5"/></g></g></g><g id="scrub_bd-9" data-name="scrub_bd" style="isolation:isolate"><g id="Scrub_FC-9" data-name="Scrub_FC"><g id="Deleted_Symbol_1-9" data-name="Deleted Symbol 1"><path d="M80.7,71.3c-.1,0-.1,0-.1-.1l-.3-1c0-.1,0-.1.1-.2l.2-.1h.1a.0979.0979,0,0,1,.1.1l.3,1c0,.1,0,.1-.1.2-.2.1-.2.1-.3.1Z" fill="#a9cda5"/><path d="M82.5,71.1a.0979.0979,0,0,1-.1-.1V69.9h-.1a.31.31,0,0,0-.2.1H82c-.1,0-.1,0-.1-.1l-.1-.1v-.2c.2-.1.3-.2.5-.2a.52.52,0,0,1,.4.2.6012.6012,0,0,1,.1.4v1a.0979.0979,0,0,1-.1.1Z" fill="#a9cda5"/><path d="M86.8,71.2h-.2c-.1,0-.1-.1-.1-.2l.3-1a.0979.0979,0,0,1,.1-.1h.3c.1,0,.1.1.1.2l-.3,1c-.1.1-.1.1-.2.1Z" fill="#a9cda5"/><path d="M84.6,71a.3674.3674,0,0,1-.3-.1,7.8942,7.8942,0,0,0-.7-2.3.3491.3491,0,0,0-.1-.2c.1,0,.2.1.3.1,0,0,.4.2.6,1.2l.1.2c0-.1.1-2,.8-2.4a.3491.3491,0,0,0,.2-.1.31.31,0,0,1-.1.2,3.5548,3.5548,0,0,0-.4,1.6v.2a1.3807,1.3807,0,0,1,.9-.7H86s0,.1-.2.2a6.69,6.69,0,0,0-.9,1.5v.5C84.8,70.9,84.7,71,84.6,71Z" fill="#a9cda5"/></g></g></g><g id="coniferoustree_bd-9" data-name="coniferoustree_bd" style="isolation:isolate"><g id="ConiferousTree_FC-9" data-name="ConiferousTree_FC"><g id="Deleted_Symbol-9" data-name="Deleted Symbol"><path d="M90.8,67.3c-.8-.1-1.6-1.5-1.6-1.5l.1,2.2c-.1.3-.6.1-.6.1v-2a3.7145,3.7145,0,0,1-1.5,1.4c-.3,0-.1-.2-.1-.2,1.4-1.4,1.5-1.9,1.5-1.9a4.8858,4.8858,0,0,0,.1-1.6c-.7,1-1.2,1.1-1.2,1.1h-.2c-.1-.1.1-.3.1-.3a1.7556,1.7556,0,0,1,.5-.4h0a2.722,2.722,0,0,0,.8-1.2l.2-1s0-.1.1,0l.1,1.1a9.19,9.19,0,0,0,1.2,1.6c.1.1-.1.1-.1.1-.6-.1-1.1-.9-1.1-.9l.1,1.7a5.7617,5.7617,0,0,0,1.6,1.6C91.2,67.1,90.8,67.3,90.8,67.3Zm-3.2-2.9Zm.1-.2c-.1.1-.1.1-.2.1C87.6,64.3,87.7,64.3,87.7,64.2Zm.2-.1-.1.1ZM88,64l-.1.1A.0979.0979,0,0,1,88,64Zm0,0Zm.1-.1Z" fill="#a9cda5"/></g></g></g><g id="nonconiferoustree_bd-9" data-name="nonconiferoustree_bd" style="isolation:isolate"><g id="NonConiferousTree_FC-9" data-name="NonConiferousTree_FC"><g id="Deleted_Symbol_2-9" data-name="Deleted Symbol 2"><path d="M83,63.8a1.11,1.11,0,0,1-1.1,1.1,1.4213,1.4213,0,0,1-.6-.2.752.752,0,0,1-.7.5,3.7463,3.7463,0,0,0,.1.8h0c0,.1-.1.1-.1.2-.1,0-.1.1-.2.1s-.1,0-.2-.1c-.1,0-.1-.1-.1-.2v-.9a2.092,2.092,0,0,1-.6-.4,1.1355,1.1355,0,0,1-.8.3,1.11,1.11,0,0,1-1.1-1.1,1.05,1.05,0,0,1,.5-.9v-.3a1.17,1.17,0,0,1,.8-1.1v-.1A1.0324,1.0324,0,0,1,80,60.4a1.0879,1.0879,0,0,1,1.1.9h.1a1.11,1.11,0,0,1,1.1,1.1v.2A1.5249,1.5249,0,0,1,83,63.8Zm-.4,0c0-.3-.3-.7-.6-.7h-.2v-.2c0-.1.1-.2.1-.3a.7133.7133,0,0,0-.8-.7h-.2l-.2.1h-.1v-.4a.7133.7133,0,0,0-.8-.7.6835.6835,0,0,0-.7.7v.2h0v.3h-.3a.6611.6611,0,0,0-.6.7.3674.3674,0,0,0,.1.3h0l.1.1v.1h-.2a1.4453,1.4453,0,0,0-.2.7.7728.7728,0,0,0,.7.8.7549.7549,0,0,0,.7-.4.31.31,0,0,1,.1-.2v0l.1.2h0a.74.74,0,0,0,1.4,0h0l.1-.2v-.1l.1.1.2.2a.7638.7638,0,0,0,.5.2A.8485.8485,0,0,0,82.6,63.8Z" fill="#a9cda5"/></g></g></g><g id="scrub_bd-10" data-name="scrub_bd" style="isolation:isolate"><g id="Scrub_FC-10" data-name="Scrub_FC"><g id="Deleted_Symbol_1-10" data-name="Deleted Symbol 1"><path d="M55,92.2c-.1,0-.1,0-.1-.1l-.3-1c0-.1,0-.1.1-.2l.2-.1H55V91l.3,1c0,.1,0,.1-.1.2Z" fill="#a9cda5"/><path d="M56.9,92a.0979.0979,0,0,1-.1-.1V90.8h-.1a.31.31,0,0,0-.2.1h-.1c-.1,0-.1,0-.1-.1l-.3-.2v-.2c.2-.1.3-.2.5-.2a.52.52,0,0,1,.4.2.6012.6012,0,0,1,.1.4v1a.0979.0979,0,0,1-.1.1h0Z" fill="#a9cda5"/><path d="M61.1,92.1h-.2c-.1,0-.1-.1-.1-.2l.3-1a.0979.0979,0,0,1,.1-.1h.3c.1,0,.1.1.1.2l-.3,1c-.1.1-.1.1-.2.1Z" fill="#a9cda5"/><path d="M58.9,91.9a.3674.3674,0,0,1-.3-.1,7.8942,7.8942,0,0,0-.7-2.3.3491.3491,0,0,0-.1-.2c.1,0,.2.1.3.1,0,0,.4.2.6,1.2l.1.2c0-.1.1-2,.8-2.4a.3491.3491,0,0,0,.2-.1.31.31,0,0,1-.1.2,3.5548,3.5548,0,0,0-.4,1.6v.2a1.3807,1.3807,0,0,1,.9-.7h.1s0,.1-.2.2a6.69,6.69,0,0,0-.9,1.5v.5C59.1,91.8,59,91.9,58.9,91.9Z" fill="#a9cda5"/></g></g></g><g id="coniferoustree_bd-10" data-name="coniferoustree_bd" style="isolation:isolate"><g id="ConiferousTree_FC-10" data-name="ConiferousTree_FC"><g id="Deleted_Symbol-10" data-name="Deleted Symbol"><path d="M65.1,88.2c-.8-.1-1.6-1.5-1.6-1.5l.1,2.2c-.1.3-.6.1-.6.1V87a3.7145,3.7145,0,0,1-1.5,1.4c-.3,0-.1-.2-.1-.2,1.4-1.4,1.5-1.9,1.5-1.9a4.8858,4.8858,0,0,0,.1-1.6c-.7,1-1.2,1.1-1.2,1.1h-.2c-.1-.1.1-.3.1-.3a1.7556,1.7556,0,0,1,.5-.4h0a2.722,2.722,0,0,0,.8-1.2l.2-1s0-.1.1,0l.1,1.1a9.19,9.19,0,0,0,1.2,1.6c.1.1-.1.1-.1.1-.6-.1-1.1-.9-1.1-.9l.1,1.7a5.7617,5.7617,0,0,0,1.6,1.6C65.5,88,65.1,88.2,65.1,88.2Zm-3.2-2.9Zm.1-.2c-.1.1-.1.1-.2.1C61.9,85.2,62,85.2,62,85.1Zm.2-.1-.1.1Zm.1-.1-.1.1Zm0,0Zm.1-.1Z" fill="#a9cda5"/></g></g></g><g id="nonconiferoustree_bd-10" data-name="nonconiferoustree_bd" style="isolation:isolate"><g id="NonConiferousTree_FC-10" data-name="NonConiferousTree_FC"><g id="Deleted_Symbol_2-10" data-name="Deleted Symbol 2"><path d="M57.3,84.7a1.11,1.11,0,0,1-1.1,1.1,1.4213,1.4213,0,0,1-.6-.2.752.752,0,0,1-.7.5,3.7463,3.7463,0,0,0,.1.8h0c0,.1-.1.1-.1.2-.1,0-.1.1-.2.1s-.1,0-.2-.1c-.1,0-.1-.1-.1-.2V86a2.092,2.092,0,0,1-.6-.4,1.1355,1.1355,0,0,1-.8.3,1.11,1.11,0,0,1-1.1-1.1,1.05,1.05,0,0,1,.5-.9v-.3a1.17,1.17,0,0,1,.8-1.1v-.1a1.0324,1.0324,0,0,1,1.1-1.1,1.0879,1.0879,0,0,1,1.1.9h.1a1.11,1.11,0,0,1,1.1,1.1v.2A1.5249,1.5249,0,0,1,57.3,84.7Zm-.3,0c0-.3-.3-.7-.6-.7h-.2v-.2c0-.1.1-.2.1-.3a.7133.7133,0,0,0-.8-.7h-.2l-.2.1H55v-.4a.7133.7133,0,0,0-.8-.7.6835.6835,0,0,0-.7.7v.2h0V83h-.3a.6611.6611,0,0,0-.6.7.3674.3674,0,0,0,.1.3h0l.1.1v.1h-.2a.752.752,0,0,0-.5.7.7728.7728,0,0,0,.7.8.7549.7549,0,0,0,.7-.4.31.31,0,0,1,.1-.2v0l.1.2h0a.74.74,0,0,0,1.4,0h0l.1-.2V85l.1.1.2.2a.7638.7638,0,0,0,.5.2C56.6,85.4,57,85.1,57,84.7Z" fill="#a9cda5"/></g></g></g><g id="scrub_bd-11" data-name="scrub_bd" style="isolation:isolate"><g id="Scrub_FC-11" data-name="Scrub_FC"><g id="Deleted_Symbol_1-11" data-name="Deleted Symbol 1"><path d="M8.2,95c-.1,0-.1,0-.1-.1l-.3-1c0-.1,0-.1.1-.2h.2a.0979.0979,0,0,1,.1.1l.3,1c0,.1,0,.1-.1.2Z" fill="#a9cda5"/><path d="M10,94.8a.0979.0979,0,0,1-.1-.1V93.6H9.8a.31.31,0,0,0-.2.1H9.5c-.1,0-.1,0-.1-.1l-.1-.1v-.2c0-.2.2-.3.4-.3a.52.52,0,0,1,.4.2.6012.6012,0,0,1,.1.4v1a.0979.0979,0,0,1-.1.1H10Z" fill="#a9cda5"/><path d="M14.2,94.9H14c-.1,0-.1-.1-.1-.2l.3-1a.0979.0979,0,0,1,.1-.1h.3c.1,0,.1.1.1.2l-.3,1c-.1.1-.1.1-.2.1Z" fill="#a9cda5"/><path d="M12,94.7a.3674.3674,0,0,1-.3-.1,7.8942,7.8942,0,0,0-.7-2.3.3491.3491,0,0,0-.1-.2c.1,0,.2.1.3.1,0,0,.4.2.6,1.2l.1.2c0-.1.1-2,.8-2.4a.3491.3491,0,0,0,.2-.1.31.31,0,0,1-.1.2,3.5548,3.5548,0,0,0-.4,1.6v.2a1.3807,1.3807,0,0,1,.9-.7h.1s0,.1-.2.2a6.69,6.69,0,0,0-.9,1.5v.5C12.2,94.6,12.1,94.7,12,94.7Z" fill="#a9cda5"/></g></g></g><g id="coniferoustree_bd-11" data-name="coniferoustree_bd" style="isolation:isolate"><g id="ConiferousTree_FC-11" data-name="ConiferousTree_FC"><g id="Deleted_Symbol-11" data-name="Deleted Symbol"><path d="M18.3,90.9c-.8-.1-1.6-1.5-1.6-1.5l.1,2.2c-.1.3-.6.1-.6.1v-2a3.7145,3.7145,0,0,1-1.5,1.4c-.3,0-.1-.2-.1-.2C16,89.5,16.1,89,16.1,89a4.8858,4.8858,0,0,0,.1-1.6c-.7,1-1.2,1.1-1.2,1.1h-.2c-.1-.1.1-.3.1-.3a1.7556,1.7556,0,0,1,.5-.4h0a2.722,2.722,0,0,0,.8-1.2l.2-1s0-.1.1,0l.1,1.1a9.19,9.19,0,0,0,1.2,1.6c.1.1-.1.1-.1.1-.6-.1-1.1-.9-1.1-.9l.1,1.7a5.7617,5.7617,0,0,0,1.6,1.6C18.6,90.8,18.3,90.9,18.3,90.9ZM15,88.1Zm.2-.2c-.1.1-.2.1-.2.2Zm.1-.1-.1.1Zm.1-.1-.1.1Zm0,0Zm.1-.1Z" fill="#a9cda5"/></g></g></g><g id="nonconiferoustree_bd-11" data-name="nonconiferoustree_bd" style="isolation:isolate"><g id="NonConiferousTree_FC-11" data-name="NonConiferousTree_FC"><g id="Deleted_Symbol_2-11" data-name="Deleted Symbol 2"><path d="M10.5,87.5a1.11,1.11,0,0,1-1.1,1.1,1.4213,1.4213,0,0,1-.6-.2.752.752,0,0,1-.7.5,3.7463,3.7463,0,0,0,.1.8h0c0,.1-.1.1-.1.2-.2.1-.2.1-.3.1s-.1,0-.2-.1c-.1,0-.1-.1-.1-.2v-.9a2.092,2.092,0,0,1-.6-.4,1.1355,1.1355,0,0,1-.8.3A1.11,1.11,0,0,1,5,87.6a1.05,1.05,0,0,1,.5-.9v-.3a1.17,1.17,0,0,1,.8-1.1v-.1a1.0324,1.0324,0,0,1,1.1-1.1,1.0879,1.0879,0,0,1,1.1.9h.1a1.11,1.11,0,0,1,1.1,1.1v.2A1.4108,1.4108,0,0,1,10.5,87.5Zm-.4,0c0-.3-.3-.7-.6-.7H9.3v-.2c0-.1.1-.2.1-.3a.7133.7133,0,0,0-.8-.7H8.4l-.2.1H8.1v-.4a.7133.7133,0,0,0-.8-.7.6835.6835,0,0,0-.7.7v.2h0v.3H6.5a.6611.6611,0,0,0-.6.7.3674.3674,0,0,0,.1.3H6l.1.1V87H5.9a.752.752,0,0,0-.5.7.7728.7728,0,0,0,.7.8.7549.7549,0,0,0,.7-.4.31.31,0,0,1,.1-.2v0l.1.2H7a.74.74,0,0,0,1.4,0h0l.1-.2v-.1l.1.1.2.2a.7638.7638,0,0,0,.5.2C9.7,88.2,10.1,87.9,10.1,87.5Z" fill="#a9cda5"/></g></g></g></svg>