<svg id="Layer_1" data-name="Layer 1" xmlns="http://www.w3.org/2000/svg" width="33.8667mm" height="33.8667mm" viewBox="0 0 96 96"><g id="Deleted_Symbol_8" data-name="Deleted Symbol 8"><g id="Deleted_Symbol_4" data-name="Deleted Symbol 4"><path d="M3.2,6.3a.4333.4333,0,0,1-.4-.2l.1-.9H2.3a5.6385,5.6385,0,0,1-.7-.1C.8,4.9.8,4.1.8,3.7a1.7457,1.7457,0,0,1,.9-1.1,1.5767,1.5767,0,0,1,.6-1.3A1.6129,1.6129,0,0,1,3.2,1a1.8839,1.8839,0,0,1,.8.2,1.2068,1.2068,0,0,1,.6,1.4,1.7038,1.7038,0,0,1,.7.4,1.3252,1.3252,0,0,1,0,1.7,1.594,1.594,0,0,1-1.2.4H3.6v1a.3992.3992,0,0,1-.4.2Zm0-4.8a1.2683,1.2683,0,0,0-.6.1.9338.9338,0,0,0-.4,1v.2a.3491.3491,0,0,1-.1.2.9171.9171,0,0,0-.8.8c0,.2,0,.7.4.9a3.536,3.536,0,0,0,.6.1h.2a.6012.6012,0,0,0,.4-.1.3552.3552,0,0,1,.3-.2.438.438,0,0,1,.3.1,1.2683,1.2683,0,0,0,.6.1A1.1021,1.1021,0,0,0,5,4.4c0-.1.5-.6,0-1.1,0-.1-.2-.2-.7-.3a.0979.0979,0,0,1-.1-.1V2.7a.7543.7543,0,0,0-.4-1A.8454.8454,0,0,0,3.2,1.5Z" fill="#a9cda6"/></g></g><g id="Deleted_Symbol_8-2" data-name="Deleted Symbol 8"><g id="Deleted_Symbol_4-2" data-name="Deleted Symbol 4"><path d="M28.8,6.3a.4333.4333,0,0,1-.4-.2l.1-.9h-.6a5.6385,5.6385,0,0,1-.7-.1c-.8-.2-.8-1-.8-1.4a1.7457,1.7457,0,0,1,.9-1.1,1.1921,1.1921,0,0,1,.6-1.3,1.6129,1.6129,0,0,1,.9-.3,1.2922,1.2922,0,0,1,.8.2,1.2068,1.2068,0,0,1,.6,1.4,1.7038,1.7038,0,0,1,.7.4,1.3252,1.3252,0,0,1,0,1.7,1.594,1.594,0,0,1-1.2.4h-.5v1a.3992.3992,0,0,1-.4.2Zm0-4.8a1.4213,1.4213,0,0,0-.6.2.9338.9338,0,0,0-.4,1v.2a.0979.0979,0,0,1-.1.1.9171.9171,0,0,0-.8.8c0,.2,0,.7.4.9a3.536,3.536,0,0,0,.6.1h.2a.6012.6012,0,0,0,.4-.1.4938.4938,0,0,1,.3-.1.438.438,0,0,1,.3.1,1.2683,1.2683,0,0,0,.6.1,1.1021,1.1021,0,0,0,.9-.3c0-.1.5-.6,0-1.1,0-.1-.2-.2-.7-.3a.0979.0979,0,0,1-.1-.1V2.8a.7543.7543,0,0,0-.4-1A.6047.6047,0,0,0,28.8,1.5Z" fill="#a9cda6"/></g></g><g id="Deleted_Symbol_8-3" data-name="Deleted Symbol 8"><g id="Deleted_Symbol_4-3" data-name="Deleted Symbol 4"><path d="M54.4,6.3a.4333.4333,0,0,1-.4-.2l.1-.9h-.6a5.6385,5.6385,0,0,1-.7-.1A1.2851,1.2851,0,0,1,52,3.7a1.7457,1.7457,0,0,1,.9-1.1,1.1921,1.1921,0,0,1,.6-1.3,1.6129,1.6129,0,0,1,.9-.3,1.2922,1.2922,0,0,1,.8.2,1.2068,1.2068,0,0,1,.6,1.4,1.7038,1.7038,0,0,1,.7.4,1.3252,1.3252,0,0,1,0,1.7,1.594,1.594,0,0,1-1.2.4h-.5v1a.3992.3992,0,0,1-.4.2Zm0-4.8a1.4213,1.4213,0,0,0-.6.2.9338.9338,0,0,0-.4,1v.2a.0979.0979,0,0,1-.1.1.9171.9171,0,0,0-.8.8c0,.2,0,.7.4.9a3.536,3.536,0,0,0,.6.1h.2a.6012.6012,0,0,0,.4-.1.4938.4938,0,0,1,.3-.1.438.438,0,0,1,.3.1,1.2683,1.2683,0,0,0,.6.1,1.1021,1.1021,0,0,0,.9-.3c0-.1.5-.6,0-1.1-.1-.1-.2-.2-.7-.3a.0979.0979,0,0,1-.1-.1V2.8a.7543.7543,0,0,0-.4-1A.6047.6047,0,0,0,54.4,1.5Z" fill="#a9cda6"/></g></g><g id="Deleted_Symbol_8-4" data-name="Deleted Symbol 8"><g id="Deleted_Symbol_4-4" data-name="Deleted Symbol 4"><path d="M80,6.3a.4333.4333,0,0,1-.4-.2l.1-.9h-.6a5.6385,5.6385,0,0,1-.7-.1c-.8-.2-.8-1-.8-1.4a1.7457,1.7457,0,0,1,.9-1.1,1.1921,1.1921,0,0,1,.6-1.3A1.6129,1.6129,0,0,1,80,1a1.2922,1.2922,0,0,1,.8.2,1.2068,1.2068,0,0,1,.6,1.4,1.7038,1.7038,0,0,1,.7.4,1.3252,1.3252,0,0,1,0,1.7,1.594,1.594,0,0,1-1.2.4h-.5v1a.3992.3992,0,0,1-.4.2Zm0-4.8a1.4213,1.4213,0,0,0-.6.2.9338.9338,0,0,0-.4,1v.2l-.1.1a.9171.9171,0,0,0-.8.8c0,.2,0,.7.4.9a3.536,3.536,0,0,0,.6.1h.2a.6012.6012,0,0,0,.4-.1.3552.3552,0,0,1,.3-.2.438.438,0,0,1,.3.1,1.2683,1.2683,0,0,0,.6.1,1.1021,1.1021,0,0,0,.9-.3c0-.1.5-.6,0-1.1-.1-.1-.2-.2-.8-.3a.0979.0979,0,0,1-.1-.1V2.7a.7543.7543,0,0,0-.4-1C80.5,1.6,80.3,1.5,80,1.5Z" fill="#a9cda6"/></g></g><g id="Deleted_Symbol_8-5" data-name="Deleted Symbol 8"><g id="Deleted_Symbol_4-5" data-name="Deleted Symbol 4"><path d="M16,19a.4333.4333,0,0,1-.4-.2l.1-.9h-.6a5.6385,5.6385,0,0,1-.7-.1c-.8-.2-.8-1-.8-1.4a1.7457,1.7457,0,0,1,.9-1.1,1.1921,1.1921,0,0,1,.6-1.3,1.1355,1.1355,0,0,1,.8-.3,1.2922,1.2922,0,0,1,.8.2,1.2068,1.2068,0,0,1,.6,1.4,1.7038,1.7038,0,0,1,.7.4,1.3252,1.3252,0,0,1,0,1.7,1.594,1.594,0,0,1-1.2.4h-.5v1c0,.1-.2.2-.3.2Zm0-4.9a1.4213,1.4213,0,0,0-.6.2.9338.9338,0,0,0-.4,1v.2a.0979.0979,0,0,1-.1.1.9171.9171,0,0,0-.8.8c0,.2,0,.7.4.9a3.536,3.536,0,0,0,.6.1h.2a.6012.6012,0,0,0,.4-.1.4938.4938,0,0,1,.3-.1.438.438,0,0,1,.3.1,1.2683,1.2683,0,0,0,.6.1,1.1021,1.1021,0,0,0,.9-.3c0-.1.5-.6,0-1.1,0-.1-.2-.2-.7-.3a.0979.0979,0,0,1-.1-.1v-.2a.7543.7543,0,0,0-.4-1A.8547.8547,0,0,0,16,14.1Z" fill="#a9cda6"/></g></g><g id="Deleted_Symbol_8-6" data-name="Deleted Symbol 8"><g id="Deleted_Symbol_4-6" data-name="Deleted Symbol 4"><path d="M41.6,19a.4333.4333,0,0,1-.4-.2l.1-.9h-.6a5.6385,5.6385,0,0,1-.7-.1c-.8-.2-.8-1-.8-1.4a1.7457,1.7457,0,0,1,.9-1.1,1.1921,1.1921,0,0,1,.6-1.3,1.1355,1.1355,0,0,1,.8-.3,1.2922,1.2922,0,0,1,.8.2,1.2068,1.2068,0,0,1,.6,1.4,1.7038,1.7038,0,0,1,.7.4,1.3252,1.3252,0,0,1,0,1.7,1.594,1.594,0,0,1-1.2.4h-.5v1c0,.1-.2.2-.3.2Zm0-4.9a1.4213,1.4213,0,0,0-.6.2.9338.9338,0,0,0-.4,1v.2a.0979.0979,0,0,1-.1.1.9171.9171,0,0,0-.8.8c0,.2,0,.7.4.9a3.536,3.536,0,0,0,.6.1h.2a.6012.6012,0,0,0,.4-.1.4938.4938,0,0,1,.3-.1.438.438,0,0,1,.3.1,1.2683,1.2683,0,0,0,.6.1,1.1021,1.1021,0,0,0,.9-.3c0-.1.5-.6,0-1.1,0-.1-.2-.2-.7-.3a.0979.0979,0,0,1-.1-.1v-.2a.7543.7543,0,0,0-.4-1A.8547.8547,0,0,0,41.6,14.1Z" fill="#a9cda6"/></g></g><g id="Deleted_Symbol_8-7" data-name="Deleted Symbol 8"><g id="Deleted_Symbol_4-7" data-name="Deleted Symbol 4"><path d="M67.2,19a.4333.4333,0,0,1-.4-.2l.1-.9h-.6a5.6385,5.6385,0,0,1-.7-.1c-.8-.2-.8-1-.8-1.4a1.7457,1.7457,0,0,1,.9-1.1,1.1921,1.1921,0,0,1,.6-1.3,1.1355,1.1355,0,0,1,.8-.3,1.2922,1.2922,0,0,1,.8.2,1.2068,1.2068,0,0,1,.6,1.4,1.7038,1.7038,0,0,1,.7.4,1.3252,1.3252,0,0,1,0,1.7,1.594,1.594,0,0,1-1.2.4h-.5v1c0,.1-.2.2-.3.2Zm0-4.9a1.4213,1.4213,0,0,0-.6.2.9338.9338,0,0,0-.4,1v.2a.0979.0979,0,0,1-.1.1.9171.9171,0,0,0-.8.8c0,.2,0,.7.4.9a3.536,3.536,0,0,0,.6.1h.2a.6012.6012,0,0,0,.4-.1.4938.4938,0,0,1,.3-.1.438.438,0,0,1,.3.1,1.2683,1.2683,0,0,0,.6.1,1.1021,1.1021,0,0,0,.9-.3c0-.1.5-.6,0-1.1-.1-.1-.2-.2-.7-.3a.0979.0979,0,0,1-.1-.1v-.2a.7543.7543,0,0,0-.4-1A.8547.8547,0,0,0,67.2,14.1Z" fill="#a9cda6"/></g></g><g id="Deleted_Symbol_8-8" data-name="Deleted Symbol 8"><g id="Deleted_Symbol_4-8" data-name="Deleted Symbol 4"><path d="M92.8,19a.4333.4333,0,0,1-.4-.2l.1-.9h-.6a5.6385,5.6385,0,0,1-.7-.1c-.8-.2-.8-1-.8-1.4a1.7457,1.7457,0,0,1,.9-1.1,1.1921,1.1921,0,0,1,.6-1.3,1.1355,1.1355,0,0,1,.8-.3,1.2922,1.2922,0,0,1,.8.2,1.2068,1.2068,0,0,1,.6,1.4,1.7038,1.7038,0,0,1,.7.4,1.3252,1.3252,0,0,1,0,1.7,1.594,1.594,0,0,1-1.2.4h-.5v1c0,.1-.2.2-.3.2Zm0-4.9a1.4213,1.4213,0,0,0-.6.2.9338.9338,0,0,0-.4,1v.2a.0979.0979,0,0,1-.1.1.9171.9171,0,0,0-.8.8c0,.2,0,.7.4.9a3.536,3.536,0,0,0,.6.1h.2a.6012.6012,0,0,0,.4-.1.4938.4938,0,0,1,.3-.1.438.438,0,0,1,.3.1,1.2683,1.2683,0,0,0,.6.1,1.1021,1.1021,0,0,0,.9-.3c0-.1.5-.6,0-1.1-.1-.1-.2-.2-.7-.3a.0979.0979,0,0,1-.1-.1v-.2a.7543.7543,0,0,0-.4-1A.8547.8547,0,0,0,92.8,14.1Z" fill="#a9cda6"/></g></g><g id="Deleted_Symbol_8-9" data-name="Deleted Symbol 8"><g id="Deleted_Symbol_4-9" data-name="Deleted Symbol 4"><path d="M3.2,31.6a.4333.4333,0,0,1-.4-.2l.1-.9H2.3a5.6385,5.6385,0,0,1-.7-.1c-.8-.2-.8-1-.8-1.4a1.7457,1.7457,0,0,1,.9-1.1,1.1921,1.1921,0,0,1,.6-1.3,1.1355,1.1355,0,0,1,.8-.3,1.2922,1.2922,0,0,1,.8.2,1.2068,1.2068,0,0,1,.6,1.4,1.7038,1.7038,0,0,1,.7.4,1.3252,1.3252,0,0,1,0,1.7,1.594,1.594,0,0,1-1.2.4H3.5v1c0,.2-.2.2-.3.2Zm0-4.8a1.4213,1.4213,0,0,0-.6.2.9338.9338,0,0,0-.4,1v.2a.0979.0979,0,0,1-.1.1.9171.9171,0,0,0-.8.8c0,.2,0,.7.4.9a3.536,3.536,0,0,0,.6.1h.2a.6012.6012,0,0,0,.4-.1.4938.4938,0,0,1,.3-.1.438.438,0,0,1,.3.1h.6a1.1021,1.1021,0,0,0,.9-.3c0-.1.5-.6,0-1.1,0-.1-.2-.2-.7-.3a.0979.0979,0,0,1-.1-.1V28a.7543.7543,0,0,0-.4-1C3.7,27,3.5,26.8,3.2,26.8Z" fill="#a9cda6"/></g></g><g id="Deleted_Symbol_8-10" data-name="Deleted Symbol 8"><g id="Deleted_Symbol_4-10" data-name="Deleted Symbol 4"><path d="M28.8,31.6a.4333.4333,0,0,1-.4-.2l.1-.9h-.6a5.6385,5.6385,0,0,1-.7-.1c-.8-.2-.8-1-.8-1.4a1.7457,1.7457,0,0,1,.9-1.1,1.1921,1.1921,0,0,1,.6-1.3,1.1355,1.1355,0,0,1,.8-.3,1.2922,1.2922,0,0,1,.8.2,1.2068,1.2068,0,0,1,.6,1.4,1.7038,1.7038,0,0,1,.7.4,1.3252,1.3252,0,0,1,0,1.7,1.594,1.594,0,0,1-1.2.4h-.5v1c0,.2-.2.2-.3.2Zm0-4.8a1.4213,1.4213,0,0,0-.6.2.9338.9338,0,0,0-.4,1v.2a.0979.0979,0,0,1-.1.1.9171.9171,0,0,0-.8.8c0,.2,0,.7.4.9a3.536,3.536,0,0,0,.6.1h.2a.6012.6012,0,0,0,.4-.1.4938.4938,0,0,1,.3-.1.438.438,0,0,1,.3.1,1.2683,1.2683,0,0,0,.6.1,1.1021,1.1021,0,0,0,.9-.3c0-.1.5-.6,0-1.1,0-.1-.2-.2-.7-.3a.0979.0979,0,0,1-.1-.1v-.2a.7543.7543,0,0,0-.4-1A.8547.8547,0,0,0,28.8,26.8Z" fill="#a9cda6"/></g></g><g id="Deleted_Symbol_8-11" data-name="Deleted Symbol 8"><g id="Deleted_Symbol_4-11" data-name="Deleted Symbol 4"><path d="M54.4,31.6a.4333.4333,0,0,1-.4-.2l.1-.9h-.6a5.6385,5.6385,0,0,1-.7-.1c-.8-.2-.8-1-.8-1.4a1.7457,1.7457,0,0,1,.9-1.1,1.1921,1.1921,0,0,1,.6-1.3,1.1355,1.1355,0,0,1,.8-.3,1.2922,1.2922,0,0,1,.8.2,1.2068,1.2068,0,0,1,.6,1.4,1.7038,1.7038,0,0,1,.7.4,1.3252,1.3252,0,0,1,0,1.7,1.594,1.594,0,0,1-1.2.4h-.5v1c0,.2-.2.2-.3.2Zm0-4.8a1.4213,1.4213,0,0,0-.6.2.9338.9338,0,0,0-.4,1v.2a.0979.0979,0,0,1-.1.1.9171.9171,0,0,0-.8.8c0,.2,0,.7.4.9a3.536,3.536,0,0,0,.6.1h.2a.6012.6012,0,0,0,.4-.1.4938.4938,0,0,1,.3-.1.438.438,0,0,1,.3.1,1.2683,1.2683,0,0,0,.6.1,1.1021,1.1021,0,0,0,.9-.3c0-.1.5-.6,0-1.1-.1-.1-.2-.2-.7-.3a.0979.0979,0,0,1-.1-.1v-.2a.7543.7543,0,0,0-.4-1A.8547.8547,0,0,0,54.4,26.8Z" fill="#a9cda6"/></g></g><g id="Deleted_Symbol_8-12" data-name="Deleted Symbol 8"><g id="Deleted_Symbol_4-12" data-name="Deleted Symbol 4"><path d="M80,31.6a.4333.4333,0,0,1-.4-.2l.1-.9h-.6a5.6385,5.6385,0,0,1-.7-.1c-.8-.2-.8-1-.8-1.4a1.7457,1.7457,0,0,1,.9-1.1,1.1921,1.1921,0,0,1,.6-1.3,1.1355,1.1355,0,0,1,.8-.3,1.2922,1.2922,0,0,1,.8.2,1.2068,1.2068,0,0,1,.6,1.4,1.7038,1.7038,0,0,1,.7.4A1.3252,1.3252,0,0,1,82,30a1.594,1.594,0,0,1-1.2.4h-.5v1c0,.2-.2.2-.3.2Zm0-4.8a1.4213,1.4213,0,0,0-.6.2.9338.9338,0,0,0-.4,1v.2a.0979.0979,0,0,1-.1.1.9171.9171,0,0,0-.8.8c0,.2,0,.7.4.9a3.536,3.536,0,0,0,.6.1h.2a.6012.6012,0,0,0,.4-.1.4938.4938,0,0,1,.3-.1.438.438,0,0,1,.3.1,1.2683,1.2683,0,0,0,.6.1,1.1021,1.1021,0,0,0,.9-.3c0-.1.5-.6,0-1.1-.1-.1-.2-.2-.7-.3a.0979.0979,0,0,1-.1-.1v-.2a.7543.7543,0,0,0-.4-1A.8547.8547,0,0,0,80,26.8Z" fill="#a9cda6"/></g></g><g id="Deleted_Symbol_8-13" data-name="Deleted Symbol 8"><g id="Deleted_Symbol_4-13" data-name="Deleted Symbol 4"><path d="M16,44.3a.4333.4333,0,0,1-.4-.2l.1-.9h-.6a5.6385,5.6385,0,0,1-.7-.1c-.8-.2-.8-1-.8-1.4a1.7457,1.7457,0,0,1,.9-1.1,1.1921,1.1921,0,0,1,.6-1.3,1.1355,1.1355,0,0,1,.8-.3,1.2922,1.2922,0,0,1,.8.2,1.2068,1.2068,0,0,1,.6,1.4,1.7038,1.7038,0,0,1,.7.4,1.3252,1.3252,0,0,1,0,1.7,1.594,1.594,0,0,1-1.2.4h-.5v1c0,.2-.2.2-.3.2Zm0-4.8a1.4213,1.4213,0,0,0-.6.2.9338.9338,0,0,0-.4,1v.2a.0979.0979,0,0,1-.1.1.9171.9171,0,0,0-.8.8c0,.2,0,.7.4.9a3.536,3.536,0,0,0,.6.1h.2a.6012.6012,0,0,0,.4-.1.4938.4938,0,0,1,.3-.1.438.438,0,0,1,.3.1,1.2683,1.2683,0,0,0,.6.1,1.1021,1.1021,0,0,0,.9-.3c0-.1.5-.6,0-1.1,0-.1-.2-.2-.7-.3A.0979.0979,0,0,1,17,41v-.2a.7543.7543,0,0,0-.4-1A.6047.6047,0,0,0,16,39.5Z" fill="#a9cda6"/></g></g><g id="Deleted_Symbol_8-14" data-name="Deleted Symbol 8"><g id="Deleted_Symbol_4-14" data-name="Deleted Symbol 4"><path d="M41.6,44.3a.4333.4333,0,0,1-.4-.2l.1-.9h-.6a5.6385,5.6385,0,0,1-.7-.1c-.8-.2-.8-1-.8-1.4a1.7457,1.7457,0,0,1,.9-1.1,1.1921,1.1921,0,0,1,.6-1.3,1.1355,1.1355,0,0,1,.8-.3,1.2922,1.2922,0,0,1,.8.2,1.2068,1.2068,0,0,1,.6,1.4,1.7038,1.7038,0,0,1,.7.4,1.3252,1.3252,0,0,1,0,1.7,1.594,1.594,0,0,1-1.2.4h-.5v1c0,.2-.2.2-.3.2Zm0-4.8a1.4213,1.4213,0,0,0-.6.2.9338.9338,0,0,0-.4,1v.2a.0979.0979,0,0,1-.1.1.9171.9171,0,0,0-.8.8c0,.2,0,.7.4.9a3.536,3.536,0,0,0,.6.1h.2a.6012.6012,0,0,0,.4-.1.4938.4938,0,0,1,.3-.1.438.438,0,0,1,.3.1,1.2683,1.2683,0,0,0,.6.1,1.1021,1.1021,0,0,0,.9-.3c0-.1.5-.6,0-1.1,0-.1-.2-.2-.7-.3a.0979.0979,0,0,1-.1-.1v-.2a.7543.7543,0,0,0-.4-1A.6047.6047,0,0,0,41.6,39.5Z" fill="#a9cda6"/></g></g><g id="Deleted_Symbol_8-15" data-name="Deleted Symbol 8"><g id="Deleted_Symbol_4-15" data-name="Deleted Symbol 4"><path d="M67.2,44.3a.4333.4333,0,0,1-.4-.2l.1-.9h-.6a5.6385,5.6385,0,0,1-.7-.1c-.8-.2-.8-1-.8-1.4a1.7457,1.7457,0,0,1,.9-1.1,1.1921,1.1921,0,0,1,.6-1.3,1.1355,1.1355,0,0,1,.8-.3,1.2922,1.2922,0,0,1,.8.2,1.2068,1.2068,0,0,1,.6,1.4,1.7038,1.7038,0,0,1,.7.4,1.3252,1.3252,0,0,1,0,1.7,1.594,1.594,0,0,1-1.2.4h-.5v1c0,.2-.2.2-.3.2Zm0-4.8a1.4213,1.4213,0,0,0-.6.2.9338.9338,0,0,0-.4,1v.2a.0979.0979,0,0,1-.1.1.9171.9171,0,0,0-.8.8c0,.2,0,.7.4.9a3.536,3.536,0,0,0,.6.1h.2a.6012.6012,0,0,0,.4-.1.4938.4938,0,0,1,.3-.1.438.438,0,0,1,.3.1,1.2683,1.2683,0,0,0,.6.1,1.1021,1.1021,0,0,0,.9-.3c0-.1.5-.6,0-1.1-.1-.1-.2-.2-.7-.3a.0979.0979,0,0,1-.1-.1v-.2a.7543.7543,0,0,0-.4-1A.6047.6047,0,0,0,67.2,39.5Z" fill="#a9cda6"/></g></g><g id="Deleted_Symbol_8-16" data-name="Deleted Symbol 8"><g id="Deleted_Symbol_4-16" data-name="Deleted Symbol 4"><path d="M92.8,44.3a.4333.4333,0,0,1-.4-.2l.1-.9h-.6a5.6385,5.6385,0,0,1-.7-.1c-.8-.2-.8-1-.8-1.4a1.7457,1.7457,0,0,1,.9-1.1,1.1921,1.1921,0,0,1,.6-1.3,1.1355,1.1355,0,0,1,.8-.3,1.2922,1.2922,0,0,1,.8.2,1.2068,1.2068,0,0,1,.6,1.4,1.7038,1.7038,0,0,1,.7.4,1.3252,1.3252,0,0,1,0,1.7,1.594,1.594,0,0,1-1.2.4h-.5v1c0,.2-.2.2-.3.2Zm0-4.8a1.4213,1.4213,0,0,0-.6.2.9338.9338,0,0,0-.4,1v.2a.0979.0979,0,0,1-.1.1.9171.9171,0,0,0-.8.8c0,.2,0,.7.4.9a3.536,3.536,0,0,0,.6.1h.2a.6012.6012,0,0,0,.4-.1.4938.4938,0,0,1,.3-.1.438.438,0,0,1,.3.1,1.2683,1.2683,0,0,0,.6.1,1.1021,1.1021,0,0,0,.9-.3c0-.1.5-.6,0-1.1-.1-.1-.2-.2-.7-.3a.0979.0979,0,0,1-.1-.1v-.2a.7543.7543,0,0,0-.4-1A.6047.6047,0,0,0,92.8,39.5Z" fill="#a9cda6"/></g></g><g id="Deleted_Symbol_8-17" data-name="Deleted Symbol 8"><g id="Deleted_Symbol_4-17" data-name="Deleted Symbol 4"><path d="M3.2,57a.4333.4333,0,0,1-.4-.2l.1-.9H2.3a5.6385,5.6385,0,0,1-.7-.1c-.8-.2-.8-1-.8-1.4a1.7457,1.7457,0,0,1,.9-1.1A1.1921,1.1921,0,0,1,2.3,52a1.1355,1.1355,0,0,1,.8-.3,1.2922,1.2922,0,0,1,.8.2,1.2068,1.2068,0,0,1,.6,1.4,1.7038,1.7038,0,0,1,.7.4,1.3252,1.3252,0,0,1,0,1.7,1.594,1.594,0,0,1-1.2.4H3.5v1c0,.2-.2.2-.3.2Zm0-4.8a1.4213,1.4213,0,0,0-.6.2.9338.9338,0,0,0-.4,1v.2a.0979.0979,0,0,1-.1.1.9171.9171,0,0,0-.8.8c0,.2,0,.7.4.9a3.536,3.536,0,0,0,.6.1h.2a.6012.6012,0,0,0,.4-.1.4938.4938,0,0,1,.3-.1.438.438,0,0,1,.3.1,1.2683,1.2683,0,0,0,.6.1,1.1021,1.1021,0,0,0,.9-.3c0-.1.5-.6,0-1.1,0-.1-.2-.2-.7-.3a.0979.0979,0,0,1-.1-.1v-.2a.7543.7543,0,0,0-.4-1A.6047.6047,0,0,0,3.2,52.2Z" fill="#a9cda6"/></g></g><g id="Deleted_Symbol_8-18" data-name="Deleted Symbol 8"><g id="Deleted_Symbol_4-18" data-name="Deleted Symbol 4"><path d="M28.8,57a.4333.4333,0,0,1-.4-.2l.1-.9h-.6a5.6385,5.6385,0,0,1-.7-.1c-.8-.2-.8-1-.8-1.4a1.7457,1.7457,0,0,1,.9-1.1,1.1921,1.1921,0,0,1,.6-1.3,1.1355,1.1355,0,0,1,.8-.3,1.2922,1.2922,0,0,1,.8.2,1.2068,1.2068,0,0,1,.6,1.4,1.7038,1.7038,0,0,1,.7.4,1.3252,1.3252,0,0,1,0,1.7,1.594,1.594,0,0,1-1.2.4h-.5v1c0,.2-.2.2-.3.2Zm0-4.8a1.4213,1.4213,0,0,0-.6.2.9338.9338,0,0,0-.4,1v.2a.0979.0979,0,0,1-.1.1.9171.9171,0,0,0-.8.8c0,.2,0,.7.4.9a3.536,3.536,0,0,0,.6.1h.2a.6012.6012,0,0,0,.4-.1.4938.4938,0,0,1,.3-.1.438.438,0,0,1,.3.1,1.2683,1.2683,0,0,0,.6.1,1.1021,1.1021,0,0,0,.9-.3c0-.1.5-.6,0-1.1,0-.1-.2-.2-.7-.3a.0979.0979,0,0,1-.1-.1v-.2a.7543.7543,0,0,0-.4-1A.6047.6047,0,0,0,28.8,52.2Z" fill="#a9cda6"/></g></g><g id="Deleted_Symbol_8-19" data-name="Deleted Symbol 8"><g id="Deleted_Symbol_4-19" data-name="Deleted Symbol 4"><path d="M54.4,57a.4333.4333,0,0,1-.4-.2l.1-.9h-.6a5.6385,5.6385,0,0,1-.7-.1c-.8-.2-.8-1-.8-1.4a1.7457,1.7457,0,0,1,.9-1.1,1.1921,1.1921,0,0,1,.6-1.3,1.1355,1.1355,0,0,1,.8-.3,1.2922,1.2922,0,0,1,.8.2,1.2068,1.2068,0,0,1,.6,1.4,1.7038,1.7038,0,0,1,.7.4,1.3252,1.3252,0,0,1,0,1.7,1.594,1.594,0,0,1-1.2.4h-.5v1c0,.2-.2.2-.3.2Zm0-4.8a1.4213,1.4213,0,0,0-.6.2.9338.9338,0,0,0-.4,1v.2a.0979.0979,0,0,1-.1.1.9171.9171,0,0,0-.8.8c0,.2,0,.7.4.9a3.536,3.536,0,0,0,.6.1h.2a.6012.6012,0,0,0,.4-.1.4938.4938,0,0,1,.3-.1.438.438,0,0,1,.3.1,1.2683,1.2683,0,0,0,.6.1,1.1021,1.1021,0,0,0,.9-.3c0-.1.5-.6,0-1.1-.1-.1-.2-.2-.7-.3a.0979.0979,0,0,1-.1-.1v-.2a.7543.7543,0,0,0-.4-1A.6047.6047,0,0,0,54.4,52.2Z" fill="#a9cda6"/></g></g><g id="Deleted_Symbol_8-20" data-name="Deleted Symbol 8"><g id="Deleted_Symbol_4-20" data-name="Deleted Symbol 4"><path d="M80,57a.4333.4333,0,0,1-.4-.2l.1-.9h-.6a5.6385,5.6385,0,0,1-.7-.1c-.8-.2-.8-1-.8-1.4a1.7457,1.7457,0,0,1,.9-1.1,1.1921,1.1921,0,0,1,.6-1.3,1.1355,1.1355,0,0,1,.8-.3,1.2922,1.2922,0,0,1,.8.2,1.2068,1.2068,0,0,1,.6,1.4,1.7038,1.7038,0,0,1,.7.4,1.3252,1.3252,0,0,1,0,1.7,1.594,1.594,0,0,1-1.2.4h-.5v1c0,.2-.2.2-.3.2Zm0-4.8a1.4213,1.4213,0,0,0-.6.2.9338.9338,0,0,0-.4,1v.2a.0979.0979,0,0,1-.1.1.9171.9171,0,0,0-.8.8c0,.2,0,.7.4.9a3.536,3.536,0,0,0,.6.1h.2a.6012.6012,0,0,0,.4-.1.4938.4938,0,0,1,.3-.1.438.438,0,0,1,.3.1,1.2683,1.2683,0,0,0,.6.1,1.1021,1.1021,0,0,0,.9-.3c0-.1.5-.6,0-1.1-.1-.1-.2-.2-.7-.3a.0979.0979,0,0,1-.1-.1v-.2a.7543.7543,0,0,0-.4-1A.6047.6047,0,0,0,80,52.2Z" fill="#a9cda6"/></g></g><g id="Deleted_Symbol_8-21" data-name="Deleted Symbol 8"><g id="Deleted_Symbol_4-21" data-name="Deleted Symbol 4"><path d="M16,69.7a.4333.4333,0,0,1-.4-.2l.1-.9h-.6a5.6385,5.6385,0,0,1-.7-.1c-.8-.2-.8-1-.8-1.4a1.7457,1.7457,0,0,1,.9-1.1,1.1921,1.1921,0,0,1,.6-1.3,1.1355,1.1355,0,0,1,.8-.3,1.2922,1.2922,0,0,1,.8.2,1.2068,1.2068,0,0,1,.6,1.4,1.7038,1.7038,0,0,1,.7.4,1.3252,1.3252,0,0,1,0,1.7,1.594,1.594,0,0,1-1.2.4h-.5v1c0,.1-.2.2-.3.2Zm0-4.9a1.4213,1.4213,0,0,0-.6.2.9338.9338,0,0,0-.4,1v.2a.0979.0979,0,0,1-.1.1.9171.9171,0,0,0-.8.8c0,.2,0,.7.4.9a3.536,3.536,0,0,0,.6.1h.2a.6012.6012,0,0,0,.4-.1.4938.4938,0,0,1,.3-.1.438.438,0,0,1,.3.1,1.2683,1.2683,0,0,0,.6.1,1.1021,1.1021,0,0,0,.9-.3c0-.1.5-.6,0-1.1,0-.1-.2-.2-.7-.3a.0979.0979,0,0,1-.1-.1v-.2a.7543.7543,0,0,0-.4-1A.8547.8547,0,0,0,16,64.8Z" fill="#a9cda6"/></g></g><g id="Deleted_Symbol_8-22" data-name="Deleted Symbol 8"><g id="Deleted_Symbol_4-22" data-name="Deleted Symbol 4"><path d="M41.6,69.7a.4333.4333,0,0,1-.4-.2l.1-.9h-.6a5.6385,5.6385,0,0,1-.7-.1c-.8-.2-.8-1-.8-1.4a1.7457,1.7457,0,0,1,.9-1.1,1.1921,1.1921,0,0,1,.6-1.3,1.1355,1.1355,0,0,1,.8-.3,1.2922,1.2922,0,0,1,.8.2,1.2068,1.2068,0,0,1,.6,1.4,1.7038,1.7038,0,0,1,.7.4,1.3252,1.3252,0,0,1,0,1.7,1.594,1.594,0,0,1-1.2.4h-.5v1c0,.1-.2.2-.3.2Zm0-4.9a1.4213,1.4213,0,0,0-.6.2.9338.9338,0,0,0-.4,1v.2a.0979.0979,0,0,1-.1.1.9171.9171,0,0,0-.8.8c0,.2,0,.7.4.9a3.536,3.536,0,0,0,.6.1h.2a.6012.6012,0,0,0,.4-.1.4938.4938,0,0,1,.3-.1.438.438,0,0,1,.3.1,1.2683,1.2683,0,0,0,.6.1,1.1021,1.1021,0,0,0,.9-.3c0-.1.5-.6,0-1.1,0-.1-.2-.2-.7-.3a.0979.0979,0,0,1-.1-.1v-.2a.7543.7543,0,0,0-.4-1A.8547.8547,0,0,0,41.6,64.8Z" fill="#a9cda6"/></g></g><g id="Deleted_Symbol_8-23" data-name="Deleted Symbol 8"><g id="Deleted_Symbol_4-23" data-name="Deleted Symbol 4"><path d="M67.2,69.7a.4333.4333,0,0,1-.4-.2l.1-.9h-.6a5.6385,5.6385,0,0,1-.7-.1c-.8-.2-.8-1-.8-1.4a1.7457,1.7457,0,0,1,.9-1.1,1.1921,1.1921,0,0,1,.6-1.3,1.1355,1.1355,0,0,1,.8-.3,1.2922,1.2922,0,0,1,.8.2,1.2068,1.2068,0,0,1,.6,1.4,1.7038,1.7038,0,0,1,.7.4,1.3252,1.3252,0,0,1,0,1.7,1.594,1.594,0,0,1-1.2.4h-.5v1c0,.1-.2.2-.3.2Zm0-4.9a1.4213,1.4213,0,0,0-.6.2.9338.9338,0,0,0-.4,1v.2a.0979.0979,0,0,1-.1.1.9171.9171,0,0,0-.8.8c0,.2,0,.7.4.9a3.536,3.536,0,0,0,.6.1h.2a.6012.6012,0,0,0,.4-.1.4938.4938,0,0,1,.3-.1.438.438,0,0,1,.3.1,1.2683,1.2683,0,0,0,.6.1,1.1021,1.1021,0,0,0,.9-.3c0-.1.5-.6,0-1.1-.1-.1-.2-.2-.7-.3a.0979.0979,0,0,1-.1-.1v-.2a.7543.7543,0,0,0-.4-1A.8547.8547,0,0,0,67.2,64.8Z" fill="#a9cda6"/></g></g><g id="Deleted_Symbol_8-24" data-name="Deleted Symbol 8"><g id="Deleted_Symbol_4-24" data-name="Deleted Symbol 4"><path d="M92.8,69.7a.4333.4333,0,0,1-.4-.2l.1-.9h-.6a5.6385,5.6385,0,0,1-.7-.1c-.8-.2-.8-1-.8-1.4a1.7457,1.7457,0,0,1,.9-1.1,1.1921,1.1921,0,0,1,.6-1.3,1.1355,1.1355,0,0,1,.8-.3,1.2922,1.2922,0,0,1,.8.2,1.2068,1.2068,0,0,1,.6,1.4,1.7038,1.7038,0,0,1,.7.4,1.3252,1.3252,0,0,1,0,1.7,1.594,1.594,0,0,1-1.2.4h-.5v1c0,.1-.2.2-.3.2Zm0-4.9a1.4213,1.4213,0,0,0-.6.2.9338.9338,0,0,0-.4,1v.2a.0979.0979,0,0,1-.1.1.9171.9171,0,0,0-.8.8c0,.2,0,.7.4.9a3.536,3.536,0,0,0,.6.1h.2a.6012.6012,0,0,0,.4-.1.4938.4938,0,0,1,.3-.1.438.438,0,0,1,.3.1,1.2683,1.2683,0,0,0,.6.1,1.1021,1.1021,0,0,0,.9-.3c0-.1.5-.6,0-1.1-.1-.1-.2-.2-.7-.3a.0979.0979,0,0,1-.1-.1v-.2a.7543.7543,0,0,0-.4-1A.8547.8547,0,0,0,92.8,64.8Z" fill="#a9cda6"/></g></g><g id="Deleted_Symbol_8-25" data-name="Deleted Symbol 8"><g id="Deleted_Symbol_4-25" data-name="Deleted Symbol 4"><path d="M3.2,82.3a.4333.4333,0,0,1-.4-.2l.1-.9H2.3a5.6385,5.6385,0,0,1-.7-.1c-.8-.2-.8-1-.8-1.4a1.7457,1.7457,0,0,1,.9-1.1,1.1921,1.1921,0,0,1,.6-1.3,1.6129,1.6129,0,0,1,.9-.3,1.2922,1.2922,0,0,1,.8.2,1.2068,1.2068,0,0,1,.6,1.4,1.7038,1.7038,0,0,1,.7.4,1.3252,1.3252,0,0,1,0,1.7,1.656,1.656,0,0,1-1.2.5H3.6v1a.6012.6012,0,0,1-.4.1Zm0-4.8a1.4213,1.4213,0,0,0-.6.2.9338.9338,0,0,0-.4,1v.2a.0979.0979,0,0,1-.1.1.9171.9171,0,0,0-.8.8c0,.2,0,.7.4.9a3.536,3.536,0,0,0,.6.1h.2a.6012.6012,0,0,0,.4-.1.4938.4938,0,0,1,.3-.1.438.438,0,0,1,.3.1,1.2683,1.2683,0,0,0,.6.1,1.1021,1.1021,0,0,0,.9-.3c0-.1.5-.6,0-1.1,0-.1-.2-.2-.7-.3a.0979.0979,0,0,1-.1-.1v-.2a.7543.7543,0,0,0-.4-1A.6047.6047,0,0,0,3.2,77.5Z" fill="#a9cda6"/></g></g><g id="Deleted_Symbol_8-26" data-name="Deleted Symbol 8"><g id="Deleted_Symbol_4-26" data-name="Deleted Symbol 4"><path d="M28.8,82.3a.4333.4333,0,0,1-.4-.2l.1-.9h-.6a5.6385,5.6385,0,0,1-.7-.1c-.8-.2-.8-1-.8-1.4a1.7457,1.7457,0,0,1,.9-1.1,1.1921,1.1921,0,0,1,.6-1.3,1.1355,1.1355,0,0,1,.8-.3,1.2922,1.2922,0,0,1,.8.2,1.2068,1.2068,0,0,1,.6,1.4,1.7038,1.7038,0,0,1,.7.4,1.3252,1.3252,0,0,1,0,1.7,1.594,1.594,0,0,1-1.2.4h-.5v1c0,.2-.2.2-.3.2Zm0-4.8a1.4213,1.4213,0,0,0-.6.2.9338.9338,0,0,0-.4,1v.2a.0979.0979,0,0,1-.1.1.9171.9171,0,0,0-.8.8c0,.2,0,.7.4.9a3.536,3.536,0,0,0,.6.1h.2a.6012.6012,0,0,0,.4-.1.4938.4938,0,0,1,.3-.1.438.438,0,0,1,.3.1,1.2683,1.2683,0,0,0,.6.1,1.1021,1.1021,0,0,0,.9-.3c0-.1.5-.6,0-1.1,0-.1-.2-.2-.7-.3a.0979.0979,0,0,1-.1-.1v-.2a.7543.7543,0,0,0-.4-1A.6047.6047,0,0,0,28.8,77.5Z" fill="#a9cda6"/></g></g><g id="Deleted_Symbol_8-27" data-name="Deleted Symbol 8"><g id="Deleted_Symbol_4-27" data-name="Deleted Symbol 4"><path d="M54.4,82.3a.4333.4333,0,0,1-.4-.2l.1-.9h-.6a5.6385,5.6385,0,0,1-.7-.1c-.8-.2-.8-1-.8-1.4a1.7457,1.7457,0,0,1,.9-1.1,1.1921,1.1921,0,0,1,.6-1.3,1.1355,1.1355,0,0,1,.8-.3,1.2922,1.2922,0,0,1,.8.2,1.2068,1.2068,0,0,1,.6,1.4,1.7038,1.7038,0,0,1,.7.4,1.3252,1.3252,0,0,1,0,1.7,1.594,1.594,0,0,1-1.2.4h-.5v1c0,.2-.2.2-.3.2Zm0-4.8a1.4213,1.4213,0,0,0-.6.2.9338.9338,0,0,0-.4,1v.2a.0979.0979,0,0,1-.1.1.9171.9171,0,0,0-.8.8c0,.2,0,.7.4.9a3.536,3.536,0,0,0,.6.1h.2a.6012.6012,0,0,0,.4-.1.4938.4938,0,0,1,.3-.1.438.438,0,0,1,.3.1,1.2683,1.2683,0,0,0,.6.1,1.1021,1.1021,0,0,0,.9-.3c0-.1.5-.6,0-1.1-.1-.1-.2-.2-.7-.3a.0979.0979,0,0,1-.1-.1v-.2a.7543.7543,0,0,0-.4-1A.6047.6047,0,0,0,54.4,77.5Z" fill="#a9cda6"/></g></g><g id="Deleted_Symbol_8-28" data-name="Deleted Symbol 8"><g id="Deleted_Symbol_4-28" data-name="Deleted Symbol 4"><path d="M80,82.3a.4333.4333,0,0,1-.4-.2l.1-.9h-.6a5.6385,5.6385,0,0,1-.7-.1c-.8-.2-.8-1-.8-1.4a1.7457,1.7457,0,0,1,.9-1.1,1.1921,1.1921,0,0,1,.6-1.3,1.1355,1.1355,0,0,1,.8-.3,1.2922,1.2922,0,0,1,.8.2,1.2068,1.2068,0,0,1,.6,1.4,1.7038,1.7038,0,0,1,.7.4,1.3252,1.3252,0,0,1,0,1.7,1.594,1.594,0,0,1-1.2.4h-.5v1c0,.2-.2.2-.3.2Zm0-4.8a1.4213,1.4213,0,0,0-.6.2.9338.9338,0,0,0-.4,1v.2a.0979.0979,0,0,1-.1.1.9171.9171,0,0,0-.8.8c0,.2,0,.7.4.9a3.536,3.536,0,0,0,.6.1h.2a.6012.6012,0,0,0,.4-.1.4938.4938,0,0,1,.3-.1.438.438,0,0,1,.3.1,1.2683,1.2683,0,0,0,.6.1,1.1021,1.1021,0,0,0,.9-.3c0-.1.5-.6,0-1.1-.1-.1-.2-.2-.7-.3A.0979.0979,0,0,1,81,79v-.2a.7543.7543,0,0,0-.4-1A.6047.6047,0,0,0,80,77.5Z" fill="#a9cda6"/></g></g><g id="Deleted_Symbol_8-29" data-name="Deleted Symbol 8"><g id="Deleted_Symbol_4-29" data-name="Deleted Symbol 4"><path d="M16,95a.4333.4333,0,0,1-.4-.2l.1-.9h-.6a5.6385,5.6385,0,0,1-.7-.1c-.8-.2-.8-1-.8-1.4a1.7457,1.7457,0,0,1,.9-1.1,1.1921,1.1921,0,0,1,.6-1.3,1.1355,1.1355,0,0,1,.8-.3,1.2922,1.2922,0,0,1,.8.2,1.2068,1.2068,0,0,1,.6,1.4,1.7038,1.7038,0,0,1,.7.4,1.3252,1.3252,0,0,1,0,1.7,1.594,1.594,0,0,1-1.2.4h-.5v1c0,.2-.2.2-.3.2Zm0-4.8a1.4213,1.4213,0,0,0-.6.2.9338.9338,0,0,0-.4,1v.2a.0979.0979,0,0,1-.1.1.9171.9171,0,0,0-.8.8c0,.2,0,.7.4.9a3.536,3.536,0,0,0,.6.1h.2a.6012.6012,0,0,0,.4-.1.4938.4938,0,0,1,.3-.1.438.438,0,0,1,.3.1,1.2683,1.2683,0,0,0,.6.1,1.1021,1.1021,0,0,0,.9-.3c0-.1.5-.6,0-1.1,0-.1-.2-.2-.7-.3a.0979.0979,0,0,1-.1-.1v-.2a.7543.7543,0,0,0-.4-1A.6047.6047,0,0,0,16,90.2Z" fill="#a9cda6"/></g></g><g id="Deleted_Symbol_8-30" data-name="Deleted Symbol 8"><g id="Deleted_Symbol_4-30" data-name="Deleted Symbol 4"><path d="M41.6,95a.4333.4333,0,0,1-.4-.2l.1-.9h-.6a5.6385,5.6385,0,0,1-.7-.1c-.8-.2-.8-1-.8-1.4a1.7457,1.7457,0,0,1,.9-1.1,1.1921,1.1921,0,0,1,.6-1.3,1.1355,1.1355,0,0,1,.8-.3,1.2922,1.2922,0,0,1,.8.2,1.2068,1.2068,0,0,1,.6,1.4,1.7038,1.7038,0,0,1,.7.4,1.3252,1.3252,0,0,1,0,1.7,1.594,1.594,0,0,1-1.2.4h-.5v1c0,.2-.2.2-.3.2Zm0-4.8a1.4213,1.4213,0,0,0-.6.2.9338.9338,0,0,0-.4,1v.2a.0979.0979,0,0,1-.1.1.9171.9171,0,0,0-.8.8c0,.2,0,.7.4.9a3.536,3.536,0,0,0,.6.1h.2a.6012.6012,0,0,0,.4-.1.4938.4938,0,0,1,.3-.1.438.438,0,0,1,.3.1,1.2683,1.2683,0,0,0,.6.1,1.1021,1.1021,0,0,0,.9-.3c0-.1.5-.6,0-1.1,0-.1-.2-.2-.7-.3a.0979.0979,0,0,1-.1-.1v-.2a.7543.7543,0,0,0-.4-1A.6047.6047,0,0,0,41.6,90.2Z" fill="#a9cda6"/></g></g><g id="Deleted_Symbol_8-31" data-name="Deleted Symbol 8"><g id="Deleted_Symbol_4-31" data-name="Deleted Symbol 4"><path d="M67.2,95a.4333.4333,0,0,1-.4-.2l.1-.9h-.6a5.6385,5.6385,0,0,1-.7-.1c-.8-.2-.8-1-.8-1.4a1.7457,1.7457,0,0,1,.9-1.1,1.1921,1.1921,0,0,1,.6-1.3,1.1355,1.1355,0,0,1,.8-.3,1.2922,1.2922,0,0,1,.8.2,1.2068,1.2068,0,0,1,.6,1.4,1.7038,1.7038,0,0,1,.7.4,1.3252,1.3252,0,0,1,0,1.7,1.594,1.594,0,0,1-1.2.4h-.5v1c0,.2-.2.2-.3.2Zm0-4.8a1.4213,1.4213,0,0,0-.6.2.9338.9338,0,0,0-.4,1v.2a.0979.0979,0,0,1-.1.1.9171.9171,0,0,0-.8.8c0,.2,0,.7.4.9a3.536,3.536,0,0,0,.6.1h.2a.6012.6012,0,0,0,.4-.1.4938.4938,0,0,1,.3-.1.438.438,0,0,1,.3.1,1.2683,1.2683,0,0,0,.6.1,1.1021,1.1021,0,0,0,.9-.3c0-.1.5-.6,0-1.1-.1-.1-.2-.2-.7-.3a.0979.0979,0,0,1-.1-.1v-.2a.7543.7543,0,0,0-.4-1A.6047.6047,0,0,0,67.2,90.2Z" fill="#a9cda6"/></g></g><g id="Deleted_Symbol_8-32" data-name="Deleted Symbol 8"><g id="Deleted_Symbol_4-32" data-name="Deleted Symbol 4"><path d="M92.8,95a.4333.4333,0,0,1-.4-.2l.1-.9h-.6a5.6385,5.6385,0,0,1-.7-.1c-.8-.2-.8-1-.8-1.4a1.7457,1.7457,0,0,1,.9-1.1,1.1921,1.1921,0,0,1,.6-1.3,1.1355,1.1355,0,0,1,.8-.3,1.2922,1.2922,0,0,1,.8.2,1.2068,1.2068,0,0,1,.6,1.4,1.7038,1.7038,0,0,1,.7.4,1.3252,1.3252,0,0,1,0,1.7,1.594,1.594,0,0,1-1.2.4h-.5v1c0,.2-.2.2-.3.2Zm0-4.8a1.4213,1.4213,0,0,0-.6.2.9338.9338,0,0,0-.4,1v.2a.0979.0979,0,0,1-.1.1.9171.9171,0,0,0-.8.8c0,.2,0,.7.4.9a3.536,3.536,0,0,0,.6.1h.2a.6012.6012,0,0,0,.4-.1.4938.4938,0,0,1,.3-.1.438.438,0,0,1,.3.1,1.2683,1.2683,0,0,0,.6.1,1.1021,1.1021,0,0,0,.9-.3c0-.1.5-.6,0-1.1-.1-.1-.2-.2-.7-.3a.0979.0979,0,0,1-.1-.1v-.2a.7543.7543,0,0,0-.4-1A.6047.6047,0,0,0,92.8,90.2Z" fill="#a9cda6"/></g></g></svg>