<svg id="Layer_1" data-name="Layer 1" xmlns="http://www.w3.org/2000/svg" width="33.8667mm" height="33.8667mm" viewBox="0 0 96 96"><g id="scrub_bd"><g id="Scrub_FC"><g id="Deleted_Symbol_1" data-name="Deleted Symbol 1"><path d="M11.6,79.6c-.1,0-.1,0-.1-.1l-.3-1c0-.1,0-.1.1-.2l.2-.1h.1a.0979.0979,0,0,1,.1.1l.3,1c0,.1,0,.1-.1.2a.774.774,0,0,1-.3.1Z" fill="#a9cda6"/><path d="M13.4,79.4a.0979.0979,0,0,1-.1-.1V78.2h-.1a.31.31,0,0,0-.2.1h-.1c-.1,0-.1,0-.1-.1l-.3-.2v-.2c.2-.1.3-.2.5-.2a.52.52,0,0,1,.4.2.6012.6012,0,0,1,.1.4v1a.0979.0979,0,0,1-.1.1h0Z" fill="#a9cda6"/><path d="M17.7,79.5h-.2c-.1,0-.1-.1-.1-.2l.3-1a.0979.0979,0,0,1,.1-.1h.3c.1,0,.1.1.1.2l-.3,1c-.1.1-.1.1-.2.1Z" fill="#a9cda6"/><path d="M15.5,79.3a.3674.3674,0,0,1-.3-.1,9.2783,9.2783,0,0,0-.7-2.4.3491.3491,0,0,0-.1-.2c.1,0,.2.1.3.1,0,0,.4.2.6,1.2l.1.2c0-.1.1-2.1.8-2.4a.3491.3491,0,0,0,.2-.1.31.31,0,0,1-.1.2,4.6025,4.6025,0,0,0-.5,1.6v.2a1.3807,1.3807,0,0,1,.9-.7h.1s0,.1-.2.2a6.5246,6.5246,0,0,0-.9,1.6v.5A.3491.3491,0,0,1,15.5,79.3Z" fill="#a9cda6"/></g></g></g><g id="roughgrass_bd"><g id="RoughGrass_FC"><path d="M17.1,74.1v.1l-.1.1h-.3l-.3-.4v-.1l.1-.1h.3Z" fill="#a9cda6"/><path d="M19.4,73.5h0l-.3-.3c-.1-.2.1-.7.1-.7v-.7A1.4785,1.4785,0,0,1,19.4,73.5Z" fill="#a9cda6"/><path d="M19.4,73.6c.1.1.2.1.2.3h-.3A.3674.3674,0,0,1,19.4,73.6Z" fill="#a9cda6"/><path d="M21.5,72.7l-.5.4a2.1644,2.1644,0,0,0-.3.6v.2a.4829.4829,0,0,1-.4,0,2.18,2.18,0,0,0,.1-.6s0-1,.5-1.2c0,0,.4-.2.1.1a1.67,1.67,0,0,0-.3.9C20.8,73.1,21.1,72.7,21.5,72.7Z" fill="#a9cda6"/><path d="M23.5,73.7v.1l-.3.4c0,.1-.1.1-.2,0h-.1l-.1-.1V74l.3-.5c0-.1.1-.1.2,0l.2.2Z" fill="#a9cda6"/><path d="M18.1,73.2l.2.7V74l-.1.1h-.1c-.1,0-.1,0-.2-.1l-.2-.7v-.1l.1-.1h.1C18,73.1,18.1,73.1,18.1,73.2Z" fill="#a9cda6"/><path d="M22.1,73.1h.1l.1.1v.1L22,74c0,.1-.1.1-.2.1h-.1v-.2l.2-.7C21.9,73.1,22,73.1,22.1,73.1Z" fill="#a9cda6"/></g></g><g id="boulder_bd"><path d="M8.5,72.7a.3491.3491,0,0,0-.1.2.2151.2151,0,0,0,.2.2h2c.3,0,.7-.1,1-.1h.9a2.7686,2.7686,0,0,1,.9.1.5845.5845,0,0,0,.4-.1.2151.2151,0,0,0-.2-.2.3491.3491,0,0,1-.2-.1,1.4385,1.4385,0,0,1,.2-.3c.1-.1.1-.3.2-.4a4.3311,4.3311,0,0,0,.1-.5V71c0-.1-.1-.3-.1-.4-.1-.1-.2-.2-.2-.3-.1-.1-.2-.2-.3-.2s-.2-.1-.3-.1h-.4c-.1,0-.3,0-.3.1-.1,0-.3.1-.4.1s-.2.1-.3.2a1.0073,1.0073,0,0,1-.3.1,3.0749,3.0749,0,0,0-1.4.8l-.3.3h0a.3491.3491,0,0,1-.2.1,3.0788,3.0788,0,0,0-.6.6c-.1.1-.2.2-.2.3Zm.3,0h0c0-.1.1-.2.2-.3s.2-.2.3-.2a.0979.0979,0,0,0,.1-.1h0a.3491.3491,0,0,0,.2.1c.1.1.2.1.3.2.1,0,.3.1.4.1h.4c.1,0,.2-.1.1-.2,0-.1-.1-.1-.2-.1h-.3a.3674.3674,0,0,1-.3-.1.2151.2151,0,0,1-.2-.2c-.2-.2.1-.5.3-.6a2.2344,2.2344,0,0,1,1.2-.7c.1,0,.1,0,.1.1s.1.2.1.3.3.3.4.1c0-.1-.2-.2-.2-.2v-.4l.1-.1a.3491.3491,0,0,1,.2-.1c.1,0,.2-.1.3-.1a.3674.3674,0,0,0,.3-.1h.3c.1,0,.2.1.3.1a.2151.2151,0,0,1,.2.2l.2.2c0,.1.1.2.1.3v.4a.6012.6012,0,0,1-.1.4.7581.7581,0,0,1-.2.4c-.1.1-.1.2-.2.3s-.1.1-.2.1H11.6c-.3,0-.7.1-1,.1H9.5A3.1967,3.1967,0,0,1,8.8,72.7Z" fill="#bebeb4"/></g><g id="scrub_bd-2" data-name="scrub_bd" style="isolation:isolate"><g id="Scrub_FC-2" data-name="Scrub_FC"><g id="Deleted_Symbol_1-2" data-name="Deleted Symbol 1"><path d="M47.9,69c-.1,0-.1,0-.1-.1l-.3-1c0-.1,0-.1.1-.2l.2-.1h.1a.0979.0979,0,0,1,.1.1l.3,1c0,.1,0,.1-.1.2a.3674.3674,0,0,1-.3.1Z" fill="#a9cda6"/><path d="M49.8,68.8a.0979.0979,0,0,1-.1-.1V67.6h-.1a.31.31,0,0,0-.2.1h-.1c-.1,0-.1,0-.1-.1l-.1-.1v-.2c.2-.1.3-.2.5-.2a.52.52,0,0,1,.4.2.6012.6012,0,0,1,.1.4v1a.0979.0979,0,0,1-.1.1Z" fill="#a9cda6"/><path d="M54.1,68.9h-.2c-.1,0-.1-.1-.1-.2l.3-1a.0979.0979,0,0,1,.1-.1h.3c.1,0,.1.1.1.2l-.3,1c-.1.1-.1.1-.2.1Z" fill="#a9cda6"/><path d="M51.9,68.7a.3674.3674,0,0,1-.3-.1,9.2783,9.2783,0,0,0-.7-2.4.3491.3491,0,0,0-.1-.2c.1,0,.2.1.3.1,0,0,.4.2.6,1.2l.1.2c0-.1.1-2.1.8-2.4a.3491.3491,0,0,0,.2-.1.31.31,0,0,1-.1.2,3.5548,3.5548,0,0,0-.4,1.6V67a1.3807,1.3807,0,0,1,.9-.7h.1s0,.1-.2.2a6.5246,6.5246,0,0,0-.9,1.6v.5A.3674.3674,0,0,1,51.9,68.7Z" fill="#a9cda6"/></g></g></g><g id="roughgrass_bd-2" data-name="roughgrass_bd" style="isolation:isolate"><g id="RoughGrass_FC-2" data-name="RoughGrass_FC"><path d="M53.5,63.5v.1l-.1.1h-.3l-.3-.4v-.1l.1-.1h.3Z" fill="#a9cda6"/><path d="M55.8,63h0l-.3-.3c-.1-.2.1-.7.1-.7v-.7A1.5084,1.5084,0,0,1,55.8,63Z" fill="#a9cda6"/><path d="M55.8,63c.1.1.2.1.2.3h-.3A.3674.3674,0,0,1,55.8,63Z" fill="#a9cda6"/><path d="M57.9,62.1l-.4.4a2.1644,2.1644,0,0,0-.3.6v.2a.4829.4829,0,0,1-.4,0,2.18,2.18,0,0,0,.1-.6s0-1,.5-1.2c0,0,.4-.2.1.1a1.67,1.67,0,0,0-.3.9A1.0233,1.0233,0,0,1,57.9,62.1Z" fill="#a9cda6"/><path d="M59.9,63.2v.1l-.3.4c0,.1-.1.1-.2,0h-.1l-.1-.1v-.1l.3-.5c0-.1.1-.1.2,0l.2.2Z" fill="#a9cda6"/><path d="M54.5,62.6l.2.7v.1l-.1.1h-.1c-.1,0-.1,0-.2-.1l-.2-.7v-.1l.1-.1h.1A.3491.3491,0,0,1,54.5,62.6Z" fill="#a9cda6"/><path d="M58.4,62.5h.1l.1.1v.1l-.2.7c0,.1-.1.1-.2.1h-.1l-.1-.1v-.1l.2-.7A.3491.3491,0,0,0,58.4,62.5Z" fill="#a9cda6"/></g></g><g id="boulder_bd-2" data-name="boulder_bd" style="isolation:isolate"><path d="M44.9,62.2a.3491.3491,0,0,0-.1.2.2151.2151,0,0,0,.2.2h2c.3,0,.7-.1,1-.1h.9a2.7686,2.7686,0,0,1,.9.1.5845.5845,0,0,0,.4-.1.2151.2151,0,0,0-.2-.2.3491.3491,0,0,1-.2-.1,1.4385,1.4385,0,0,1,.2-.3c.1-.1.1-.3.2-.4a4.3311,4.3311,0,0,0,.1-.5v-.5c0-.1-.1-.3-.1-.4-.1-.1-.2-.2-.2-.3-.1-.1-.2-.2-.3-.2s-.2-.1-.3-.1H49c-.1,0-.3,0-.3.1-.1,0-.3.1-.4.1s-.2.1-.3.2a1.0073,1.0073,0,0,1-.3.1,3.0749,3.0749,0,0,0-1.4.8l-.3.3h0a.3491.3491,0,0,1-.2.1c-.1.1-.3.2-.4.3a1.7306,1.7306,0,0,0-.5.5Zm.3,0h0c0-.1.1-.2.2-.3s.2-.2.3-.2a.0979.0979,0,0,0,.1-.1h0a.3491.3491,0,0,0,.2.1c.1.1.2.1.3.2.1,0,.3.1.4.1h.4c.1,0,.2-.1.1-.2,0-.1-.1-.1-.2-.1h-.3a.3674.3674,0,0,1-.3-.1.2151.2151,0,0,1-.2-.2c-.2-.2.1-.5.3-.6a2.2344,2.2344,0,0,1,1.2-.7c.1,0,.1,0,.1.1s.1.2.1.3.3.3.4.1c0-.1-.2-.2-.2-.2V60l.1-.1a.3491.3491,0,0,1,.2-.1c.1,0,.2-.1.3-.1a.3674.3674,0,0,0,.3-.1h.3c.1,0,.2.1.3.1a.2151.2151,0,0,1,.2.2l.2.2c0,.1.1.2.1.3v.4a.6012.6012,0,0,1-.1.4.7581.7581,0,0,1-.2.4c-.1.1-.1.2-.2.3s-.1.1-.2.1H48c-.3,0-.7.1-1,.1H45.9A4.1839,4.1839,0,0,1,45.2,62.2Z" fill="#bebeb4"/></g><g id="scrub_bd-3" data-name="scrub_bd" style="isolation:isolate"><g id="Scrub_FC-3" data-name="Scrub_FC"><g id="Deleted_Symbol_1-3" data-name="Deleted Symbol 1"><path d="M7.1,51.7c-.1,0-.1,0-.1-.1l-.3-1c0-.1,0-.1.1-.2l.2-.1h.1a.0979.0979,0,0,1,.1.1l.3,1c0,.1,0,.1-.1.2-.2,0-.2.1-.3.1Z" fill="#a9cda6"/><path d="M9,51.4a.0979.0979,0,0,1-.1-.1V50.2H8.8a.31.31,0,0,0-.2.1H8.5c-.1,0-.1,0-.1-.1L8.1,50v-.2c.2-.1.3-.2.5-.2a.52.52,0,0,1,.4.2.6012.6012,0,0,1,.1.4v1a.0979.0979,0,0,1-.1.1H9Z" fill="#a9cda6"/><path d="M13.3,51.6h-.2c-.1,0-.1-.1-.1-.2l.3-1a.0979.0979,0,0,1,.1-.1h.3c.1,0,.1.1.1.2l-.3,1a.3491.3491,0,0,0-.2.1Z" fill="#a9cda6"/><path d="M11.1,51.3a.3674.3674,0,0,1-.3-.1,9.2783,9.2783,0,0,0-.7-2.4.3491.3491,0,0,0-.1-.2c.1,0,.2.1.3.1,0,0,.4.2.6,1.2l.1.2c0-.1.1-2.1.8-2.4a.3491.3491,0,0,0,.2-.1.31.31,0,0,1-.1.2,4.6025,4.6025,0,0,0-.5,1.6v.2a1.3807,1.3807,0,0,1,.9-.7h.1s0,.1-.2.2a6.5246,6.5246,0,0,0-.9,1.6v.5C11.3,51.3,11.2,51.3,11.1,51.3Z" fill="#a9cda6"/></g></g></g><g id="roughgrass_bd-3" data-name="roughgrass_bd" style="isolation:isolate"><g id="RoughGrass_FC-3" data-name="RoughGrass_FC"><path d="M12.7,46.2v.1l-.1.1h-.3L12,46v-.1l.1-.1h.3Z" fill="#a9cda6"/><path d="M15,45.6h0l-.3-.3c-.1-.2.1-.7.1-.7v-.7A1.5084,1.5084,0,0,1,15,45.6Z" fill="#a9cda6"/><path d="M15,45.6c.1.1.2.1.2.3h-.3A.774.774,0,0,1,15,45.6Z" fill="#a9cda6"/><path d="M17.1,44.8l-.5.4a2.1644,2.1644,0,0,0-.3.6V46a.4829.4829,0,0,1-.4,0,2.18,2.18,0,0,0,.1-.6s0-1,.5-1.2c0,0,.4-.2.1.1a1.67,1.67,0,0,0-.3.9C16.4,45.1,16.7,44.7,17.1,44.8Z" fill="#a9cda6"/><path d="M19.1,45.8v.1l-.3.4c0,.1-.1.1-.2,0h-.1l-.1-.1v-.1l.3-.5c0-.1.1-.1.2,0l.2.2Z" fill="#a9cda6"/><path d="M13.7,45.3l.2.7v.1l-.1.1h-.1c-.1,0-.1,0-.2-.1l-.2-.7v-.1l.1-.1h.1C13.6,45.1,13.7,45.2,13.7,45.3Z" fill="#a9cda6"/><path d="M17.6,45.2h.1l.1.1v.1l-.2.7c0,.1-.1.1-.2.1h-.1l-.1-.1V46l.2-.7C17.5,45.2,17.6,45.1,17.6,45.2Z" fill="#a9cda6"/></g></g><g id="boulder_bd-3" data-name="boulder_bd" style="isolation:isolate"><path d="M4.1,44.8A.3491.3491,0,0,0,4,45a.2151.2151,0,0,0,.2.2h2c.3,0,.7-.1,1-.1h.9a2.7686,2.7686,0,0,1,.9.1.5845.5845,0,0,0,.4-.1.2151.2151,0,0,0-.2-.2c-.2-.1-.2-.2-.2-.2a1.4385,1.4385,0,0,1,.2-.3c.1-.1.1-.3.2-.4a4.3311,4.3311,0,0,0,.1-.5V43c0-.1-.1-.3-.1-.4-.1-.1-.2-.2-.2-.3-.1-.1-.2-.2-.3-.2s-.2-.1-.3-.1H8.2c-.1,0-.3,0-.3.1-.1,0-.3.1-.4.1s-.2.1-.3.2a1.0073,1.0073,0,0,1-.3.1,3.0749,3.0749,0,0,0-1.4.8l-.3.3h0a.3491.3491,0,0,1-.2.1c-.1.1-.3.2-.4.3a1.4385,1.4385,0,0,0-.2.3C4.1,44.7,4.1,44.8,4.1,44.8Zm.3,0h0c0-.1.1-.2.2-.3s.2-.2.3-.2a.0979.0979,0,0,0,.1-.1H5a.3491.3491,0,0,0,.2.1c.1.1.2.1.3.2.1,0,.3.1.4.1h.4c.1,0,.2-.1.1-.2,0-.1-.1-.1-.2-.1H5.9a.3674.3674,0,0,1-.3-.1.2151.2151,0,0,1-.2-.2c-.2-.2.1-.5.3-.6a2.2344,2.2344,0,0,1,1.2-.7c.1,0,.1,0,.1.1s.1.2.1.3.3.3.4.1c0-.1-.2-.2-.2-.2v-.4l.1-.1a.3491.3491,0,0,1,.2-.1c.1,0,.2-.1.3-.1a.3674.3674,0,0,0,.3-.1h.3c.1,0,.2.1.3.1a.2151.2151,0,0,1,.2.2c-.1.2,0,.3,0,.3,0,.1.1.2.1.3v.4a.6012.6012,0,0,1-.1.4.6012.6012,0,0,1-.1.4c-.1.1-.1.2-.2.3s-.1.1-.2.1H7.1c-.3,0-.7.1-1,.1H4.4Z" fill="#bebeb4"/></g><g id="scrub_bd-4" data-name="scrub_bd" style="isolation:isolate"><g id="Scrub_FC-4" data-name="Scrub_FC"><g id="Deleted_Symbol_1-4" data-name="Deleted Symbol 1"><path d="M15.9,30.8c-.1,0-.1,0-.1-.1l-.3-1c0-.1,0-.1.1-.2l.2-.1h.1a.0979.0979,0,0,1,.1.1l.3,1c0,.1,0,.1-.1.2-.2.1-.2.1-.3.1Z" fill="#a9cda6"/><path d="M17.8,30.6a.0979.0979,0,0,1-.1-.1V29.4h-.1a.31.31,0,0,0-.2.1h-.1c-.1,0-.1,0-.1-.1l-.1-.1v-.2c.2-.1.3-.2.5-.2a.52.52,0,0,1,.4.2.6012.6012,0,0,1,.1.4v1a.0979.0979,0,0,1-.1.1Z" fill="#a9cda6"/><path d="M22.1,30.7h-.2c-.1,0-.1-.1-.1-.2l.3-1a.0979.0979,0,0,1,.1-.1h.3c.1,0,.1.1.1.2l-.3,1a.31.31,0,0,1-.2.1Z" fill="#a9cda6"/><path d="M19.9,30.5a.3674.3674,0,0,1-.3-.1,9.2783,9.2783,0,0,0-.7-2.4.3491.3491,0,0,0-.1-.2c.1,0,.2.1.3.1,0,0,.4.2.6,1.2l.1.2c0-.1.1-2.1.8-2.4a.3491.3491,0,0,0,.2-.1.31.31,0,0,1-.1.2,4.6025,4.6025,0,0,0-.5,1.6v.2a1.3807,1.3807,0,0,1,.9-.7h.1s0,.1-.2.2a6.5246,6.5246,0,0,0-.9,1.6v.5C20.1,30.5,20,30.5,19.9,30.5Z" fill="#a9cda6"/></g></g></g><g id="roughgrass_bd-4" data-name="roughgrass_bd" style="isolation:isolate"><g id="RoughGrass_FC-4" data-name="RoughGrass_FC"><path d="M21.5,25.3v.1l-.1.1h-.3l-.3-.4V25l.1-.1h.3Z" fill="#a9cda6"/><path d="M23.8,24.8h0c-.1,0-.1-.1,0,0l-.3-.3c-.1-.2.1-.7.1-.7v-.7A1.7646,1.7646,0,0,1,23.8,24.8Z" fill="#a9cda6"/><path d="M23.8,24.8c.1.1.2.1.2.3h-.3C23.6,25,23.7,24.9,23.8,24.8Z" fill="#a9cda6"/><path d="M25.9,23.9l-.5.4a2.1644,2.1644,0,0,0-.3.6v.2a.4829.4829,0,0,1-.4,0,2.18,2.18,0,0,0,.1-.6s0-1,.5-1.2c0,0,.4-.2.1.1a1.67,1.67,0,0,0-.3.9A1.3965,1.3965,0,0,1,25.9,23.9Z" fill="#a9cda6"/><path d="M27.9,25v.1l-.3.4c0,.1-.1.1-.2,0h-.1l-.1-.1v-.1l.3-.5c0-.1.1-.1.2,0l.2.2Z" fill="#a9cda6"/><path d="M22.5,24.4l.2.7v.1l-.1.1h-.1c-.1,0-.1,0-.2-.1l-.2-.7v-.1l.1-.1h.1A.3491.3491,0,0,1,22.5,24.4Z" fill="#a9cda6"/><path d="M26.4,24.3h.1l.1.1v.1l-.2.7c0,.1-.1.1-.2.1h-.1l-.1-.1v-.1l.2-.7A.3491.3491,0,0,0,26.4,24.3Z" fill="#a9cda6"/></g></g><g id="boulder_bd-4" data-name="boulder_bd" style="isolation:isolate"><path d="M12.9,24a.3491.3491,0,0,0-.1.2.2151.2151,0,0,0,.2.2h2c.3,0,.7-.1,1-.1h.9a2.7686,2.7686,0,0,1,.9.1.5845.5845,0,0,0,.4-.1.2151.2151,0,0,0-.2-.2.3491.3491,0,0,1-.2-.1,1.4385,1.4385,0,0,1,.2-.3c.1-.1.1-.3.2-.4a4.3311,4.3311,0,0,0,.1-.5v-.5c0-.1-.1-.3-.1-.4-.1-.1-.2-.2-.2-.3-.1-.1-.2-.2-.3-.2s-.2-.1-.3-.1H17c-.1,0-.3,0-.3.1-.1,0-.3.1-.4.1s-.2.1-.3.2a1.0073,1.0073,0,0,1-.3.1,3.0749,3.0749,0,0,0-1.4.8l-.3.3h0a.3491.3491,0,0,1-.2.1c-.1.1-.3.2-.4.3a1.4385,1.4385,0,0,0-.2.3C12.9,23.9,12.9,24,12.9,24Zm.3-.1h0c0-.1.1-.2.2-.3s.2-.2.3-.2a.0979.0979,0,0,0,.1-.1h0a.3491.3491,0,0,0,.2.1c.1.1.2.1.3.2.1,0,.3.1.4.1h.4c.1,0,.2-.1.1-.2,0-.1-.1-.1-.2-.1h-.3a.3674.3674,0,0,1-.3-.1.2151.2151,0,0,1-.2-.2c-.2-.2.1-.5.3-.6a2.2344,2.2344,0,0,1,1.2-.7c.1,0,.1,0,.1.1s.1.2.1.3.3.3.4.1c0-.1-.2-.2-.2-.2v-.4l.1-.1a.3491.3491,0,0,1,.2-.1c.1,0,.2-.1.3-.1a.3674.3674,0,0,0,.3-.1h.3c.1,0,.2.1.3.1a.2151.2151,0,0,1,.2.2l.2.2c0,.1.1.2.1.3v.4a.6012.6012,0,0,1-.1.4.7581.7581,0,0,1-.2.4c-.1.1-.1.2-.2.3s-.1.1-.2.1H16c-.3,0-.7.1-1,.1H13.9C13.4,24,13.2,23.9,13.2,23.9Z" fill="#bebeb4"/></g><g id="scrub_bd-5" data-name="scrub_bd" style="isolation:isolate"><g id="Scrub_FC-5" data-name="Scrub_FC"><g id="Deleted_Symbol_1-5" data-name="Deleted Symbol 1"><path d="M46.5,11.3c-.1,0-.1,0-.1-.1l-.3-1c0-.1,0-.1.1-.2l.2-.1h.1a.0979.0979,0,0,1,.1.1l.3,1c0,.1,0,.1-.1.2-.2,0-.2,0-.3.1Z" fill="#a9cda6"/><path d="M48.4,11a.0979.0979,0,0,1-.1-.1V9.8h-.1a.31.31,0,0,0-.2.1h-.1c-.1,0-.1,0-.1-.1l-.1-.1V9.5c.2-.1.3-.2.5-.2a.52.52,0,0,1,.4.2.6012.6012,0,0,1,.1.4v1a.0979.0979,0,0,1-.1.1Z" fill="#a9cda6"/><path d="M52.6,11.1h-.2c-.1,0-.1-.1-.1-.2l.3-1a.0979.0979,0,0,1,.1-.1H53c.1,0,.1.1.1.2l-.3,1c0,.1-.1.1-.2.1Z" fill="#a9cda6"/><path d="M50.5,10.9a.3674.3674,0,0,1-.3-.1,9.2783,9.2783,0,0,0-.7-2.4.3491.3491,0,0,0-.1-.2c.1,0,.2.1.3.1,0,0,.4.2.6,1.2l.1.2c0-.1.1-2.1.8-2.4a.3491.3491,0,0,0,.2-.1.31.31,0,0,1-.1.2A3.5548,3.5548,0,0,0,50.9,9v.2a1.3807,1.3807,0,0,1,.9-.7h.1s0,.1-.2.2a6.5246,6.5246,0,0,0-.9,1.6v.5C50.6,10.9,50.6,10.9,50.5,10.9Z" fill="#a9cda6"/></g></g></g><g id="roughgrass_bd-5" data-name="roughgrass_bd" style="isolation:isolate"><g id="RoughGrass_FC-5" data-name="RoughGrass_FC"><path d="M52.1,5.7v.1l-.1.1h-.3l-.3-.4V5.4l.1-.1h.3Z" fill="#a9cda6"/><path d="M54.4,5.2h0a1.7265,1.7265,0,0,0-.4-.3c-.1-.2.1-.7.1-.7V3.5A1.65,1.65,0,0,1,54.4,5.2Z" fill="#a9cda6"/><path d="M54.4,5.2c.1.1.2.1.2.3h-.3C54.2,5.4,54.3,5.3,54.4,5.2Z" fill="#a9cda6"/><path d="M56.5,4.3l-.5.5a2.1644,2.1644,0,0,0-.3.6v.2a.4829.4829,0,0,1-.4,0,2.18,2.18,0,0,0,.1-.6s0-1,.5-1.2c0,0,.4-.2.1.1a1.67,1.67,0,0,0-.3.9A.8514.8514,0,0,1,56.5,4.3Z" fill="#a9cda6"/><path d="M58.4,5.4v.1l-.3.4A.0979.0979,0,0,1,58,6h-.1l-.1-.1V5.8l.3-.5c0-.1.1-.1.2,0l.1.1Z" fill="#a9cda6"/><path d="M53.1,4.9l.2.7v.1l-.1.1h-.1c-.1,0-.1,0-.2-.1L52.7,5V4.9l.1-.1h.1C53,4.7,53,4.8,53.1,4.9Z" fill="#a9cda6"/><path d="M57,4.8h.1l.1.1V5l-.2.7c0,.1-.1.1-.2.1h-.1l-.1-.1V5.6l.2-.7C56.9,4.8,57,4.7,57,4.8Z" fill="#a9cda6"/></g></g><g id="boulder_bd-5" data-name="boulder_bd" style="isolation:isolate"><path d="M43.4,4.4a.3491.3491,0,0,0-.1.2.2151.2151,0,0,0,.2.2h2c.3,0,.7-.1,1-.1h.9a2.7686,2.7686,0,0,1,.9.1.5845.5845,0,0,0,.4-.1.2151.2151,0,0,0-.2-.2.3491.3491,0,0,1-.2-.1,1.4385,1.4385,0,0,1,.2-.3c.1-.1.1-.3.2-.4a4.3311,4.3311,0,0,0,.1-.5V2.7c0-.1-.1-.3-.1-.4-.1-.1-.2-.2-.2-.3-.1-.1-.2-.2-.3-.2s-.2-.1-.3-.1h-.4c-.1,0-.3,0-.3.1-.1,0-.3.1-.4.1s-.2.1-.3.2a1.0073,1.0073,0,0,1-.3.1,3.0749,3.0749,0,0,0-1.4.8l-.3.3h0a.3491.3491,0,0,1-.2.1c-.1.1-.3.2-.4.3a1.4385,1.4385,0,0,0-.2.3C43.5,4.3,43.5,4.4,43.4,4.4Zm.4,0h0c0-.1.1-.2.2-.3a.2151.2151,0,0,1,.2-.2.0979.0979,0,0,0,.1-.1h0a.3491.3491,0,0,0,.2.1c.1.1.2.1.3.2.1,0,.3.1.4.1h.4c.1,0,.2-.1.1-.2,0-.1-.1-.1-.2-.1h-.3c-.1,0-.2.1-.3,0a.2151.2151,0,0,1-.2-.2c-.2-.2.1-.5.3-.6a2.2344,2.2344,0,0,1,1.2-.7c.1,0,.1,0,.1.1s.1.2.1.3.3.3.4.1c0-.1-.2-.2-.2-.2V2.3l.1-.1a.3491.3491,0,0,1,.2-.1c.1,0,.2-.1.3-.1a.3674.3674,0,0,0,.3-.1c.1-.1.2,0,.3,0,0,.1.1.1.2.2a.2151.2151,0,0,1,.2.2l.2.2c0,.1.1.2.1.3v.4a.6012.6012,0,0,1-.1.4.7581.7581,0,0,1-.2.4c-.1.1-.1.2-.2.3s-.1.1-.2.1H46.4c-.3,0-.7.1-1,.1H44.3A1.75,1.75,0,0,0,43.8,4.4Z" fill="#bebeb4"/></g><g id="scrub_bd-6" data-name="scrub_bd" style="isolation:isolate"><g id="Scrub_FC-6" data-name="Scrub_FC"><g id="Deleted_Symbol_1-6" data-name="Deleted Symbol 1"><path d="M68.9,27.4c-.1,0-.1,0-.1-.1l-.3-1c0-.1,0-.1.1-.2l.2-.1h.1a.0979.0979,0,0,1,.1.1l.3,1c0,.1,0,.1-.1.2-.2,0-.2,0-.3.1Z" fill="#a9cda6"/><path d="M70.7,27.1a.0979.0979,0,0,1-.1-.1V25.9h-.1a.31.31,0,0,0-.2.1h-.1c-.1,0-.1,0-.1-.1l-.1-.1v-.2c.2-.1.3-.2.5-.2a.52.52,0,0,1,.4.2c.1.1.1.2.1.4v1a.0979.0979,0,0,1-.1.1Z" fill="#a9cda6"/><path d="M75,27.2h-.2c-.1,0-.1-.1-.1-.2l.3-1a.0979.0979,0,0,1,.1-.1h.3c.1,0,.1.1.1.2l-.3,1c0,.1-.1.1-.2.1Z" fill="#a9cda6"/><path d="M72.8,27a.3674.3674,0,0,1-.3-.1,9.2783,9.2783,0,0,0-.7-2.4.3491.3491,0,0,0-.1-.2c.1,0,.2.1.3.1,0,0,.4.2.6,1.2l.1.2c0-.1.1-2.1.8-2.4a.3491.3491,0,0,0,.2-.1.31.31,0,0,1-.1.2,3.5548,3.5548,0,0,0-.4,1.6v.2a1.3807,1.3807,0,0,1,.9-.7h.1s0,.1-.2.2a6.5246,6.5246,0,0,0-.9,1.6v.5A.3674.3674,0,0,1,72.8,27Z" fill="#a9cda6"/></g></g></g><g id="roughgrass_bd-6" data-name="roughgrass_bd" style="isolation:isolate"><g id="RoughGrass_FC-6" data-name="RoughGrass_FC"><path d="M74.5,21.8v.1l-.1.1h-.3l-.3-.4v-.1l.1-.1h.3Z" fill="#a9cda6"/><path d="M76.7,21.3h0l-.3-.3c-.1-.2.1-.7.1-.7v-.7A1.5084,1.5084,0,0,1,76.7,21.3Z" fill="#a9cda6"/><path d="M76.7,21.3c.1.1.2.1.2.3h-.3A.438.438,0,0,0,76.7,21.3Z" fill="#a9cda6"/><path d="M78.9,20.4l-.4.4a2.1644,2.1644,0,0,0-.3.6v.2a.4829.4829,0,0,1-.4,0,2.18,2.18,0,0,0,.1-.6s0-1,.5-1.2c0,0,.4-.2.1.1a1.67,1.67,0,0,0-.3.9C78.1,20.8,78.4,20.4,78.9,20.4Z" fill="#a9cda6"/><path d="M80.8,21.5v.1l-.3.4c0,.1-.1.1-.2,0h-.1v-.1l.3-.5c0-.1.1-.1.2,0l.1.1Z" fill="#a9cda6"/><path d="M75.5,21l.2.7v.1l-.1.1h-.1c-.1,0-.1,0-.2-.1l-.2-.7V21l.1-.1h.1C75.4,20.8,75.4,20.9,75.5,21Z" fill="#a9cda6"/><path d="M79.4,20.9h.1l.1.1v.1l-.2.7c0,.1-.1.1-.2.1h-.1l-.1-.1v-.1l.2-.7C79.3,20.9,79.3,20.8,79.4,20.9Z" fill="#a9cda6"/></g></g><g id="boulder_bd-6" data-name="boulder_bd" style="isolation:isolate"><path d="M65.8,20.5a.3491.3491,0,0,0-.1.2.2151.2151,0,0,0,.2.2h2c.3,0,.7-.1,1-.1h.9a2.7686,2.7686,0,0,1,.9.1.5845.5845,0,0,0,.4-.1.2151.2151,0,0,0-.2-.2.3491.3491,0,0,1-.2-.1,1.4385,1.4385,0,0,1,.2-.3c.1-.1.1-.3.2-.4a4.3311,4.3311,0,0,0,.1-.5v-.5c0-.1-.1-.3-.1-.4-.1-.1-.2-.2-.2-.3-.1-.1-.2-.2-.3-.2s-.2-.1-.3-.1h-.4c-.1,0-.3,0-.3.1-.1,0-.3.1-.4.1s-.2.1-.3.2a1.0073,1.0073,0,0,1-.3.1,3.0749,3.0749,0,0,0-1.4.8l-.3.3h0a.3491.3491,0,0,1-.2.1c-.1.1-.3.2-.4.3a1.4385,1.4385,0,0,0-.2.3A2.9585,2.9585,0,0,1,65.8,20.5Zm.3,0h0c0-.1.1-.2.2-.3s.2-.2.3-.2a.0979.0979,0,0,0,.1-.1h0a.3491.3491,0,0,0,.2.1c.1.1.2.1.3.2.1,0,.3.1.4.1H68a.2151.2151,0,0,0,.2-.2c0-.1-.1-.1-.2-.1h-.3a.3674.3674,0,0,1-.3-.1c-.1,0-.2-.1-.3-.2-.2-.2.1-.5.3-.6a2.2344,2.2344,0,0,1,1.2-.7c.1,0,.1,0,.1.1s.1.2.1.3.3.3.4.1c0-.1-.2-.2-.2-.2v-.4l.1-.1a.3491.3491,0,0,1,.2-.1c.1,0,.2-.1.3-.1a.3674.3674,0,0,0,.3-.1h.3c.1,0,.2.1.3.1a.2151.2151,0,0,1,.2.2l.2.2c0,.1.1.2.1.3v.4a.6012.6012,0,0,1-.1.4.7581.7581,0,0,1-.2.4c-.1.1-.1.2-.2.3s-.1.1-.2.1H68.9c-.3,0-.7.1-1,.1H66.8A3.1967,3.1967,0,0,1,66.1,20.5Z" fill="#bebeb4"/></g><g id="scrub_bd-7" data-name="scrub_bd" style="isolation:isolate"><g id="Scrub_FC-7" data-name="Scrub_FC"><g id="Deleted_Symbol_1-7" data-name="Deleted Symbol 1"><path d="M79.9,10.6c-.1,0-.1,0-.1-.1l-.3-1c0-.1,0-.1.1-.2l.2-.1h.1a.0979.0979,0,0,1,.1.1l.3,1c0,.1,0,.1-.1.2-.2.1-.2.1-.3.1Z" fill="#a9cda6"/><path d="M81.8,10.3a.0979.0979,0,0,1-.1-.1V9.1h-.1a.31.31,0,0,0-.2.1h-.1c-.1,0-.1,0-.1-.1L81.1,9V8.8c.2-.1.3-.2.5-.2a.52.52,0,0,1,.4.2c0,.1.1.2.1.4v1a.0979.0979,0,0,1-.1.1Z" fill="#a9cda6"/><path d="M86.1,10.5h-.2c-.1,0-.1-.1-.1-.2l.3-1a.0979.0979,0,0,1,.1-.1h.3c.1,0,.1.1.1.2l-.3,1a.3491.3491,0,0,0-.2.1Z" fill="#a9cda6"/><path d="M83.9,10.2a.3674.3674,0,0,1-.3-.1,9.2783,9.2783,0,0,0-.7-2.4.3491.3491,0,0,0-.1-.2c.1,0,.2.1.3.1,0,0,.4.2.6,1.2l.1.2c0-.1.1-2.1.8-2.4a.3491.3491,0,0,0,.2-.1.31.31,0,0,1-.1.2,3.5548,3.5548,0,0,0-.4,1.6v.2a1.3807,1.3807,0,0,1,.9-.7h.1s0,.1-.2.2a6.5246,6.5246,0,0,0-.9,1.6v.5A.3674.3674,0,0,1,83.9,10.2Z" fill="#a9cda6"/></g></g></g><g id="roughgrass_bd-7" data-name="roughgrass_bd" style="isolation:isolate"><g id="RoughGrass_FC-7" data-name="RoughGrass_FC"><path d="M85.5,5.1v.1l-.1.1h-.3l-.3-.4V4.8l.1-.1h.3Z" fill="#a9cda6"/><path d="M87.8,4.5h0l-.3-.3c-.1-.2.1-.7.1-.7V2.8A1.7646,1.7646,0,0,1,87.8,4.5Z" fill="#a9cda6"/><path d="M87.8,4.5c0,.1.2.2.2.4h-.3A.7559.7559,0,0,1,87.8,4.5Z" fill="#a9cda6"/><path d="M89.9,3.7l-.4.4a2.1644,2.1644,0,0,0-.3.6v.2a.4829.4829,0,0,1-.4,0,2.18,2.18,0,0,0,.1-.6s0-1,.5-1.2c0,0,.4-.2.1.1a1.67,1.67,0,0,0-.3.9A.628.628,0,0,1,89.9,3.7Z" fill="#a9cda6"/><path d="M91.9,4.7v.1l-.3.4c0,.1-.1.1-.2,0h-.1l-.1-.1V5l.3-.5c0-.1.1-.1.2,0l.2.2Z" fill="#a9cda6"/><path d="M86.5,4.2l.2.7V5l-.1.1h-.1c-.1,0-.1,0-.2-.1l-.2-.7V4.2l.1-.1h.1C86.4,4.1,86.5,4.1,86.5,4.2Z" fill="#a9cda6"/><path d="M90.4,4.1h.1l.1.1v.1l-.2.7c0,.1-.1.1-.2.1h-.1V4.9l.2-.7A.0979.0979,0,0,1,90.4,4.1Z" fill="#a9cda6"/></g></g><g id="boulder_bd-7" data-name="boulder_bd" style="isolation:isolate"><path d="M76.9,3.7a.3491.3491,0,0,0-.1.2.2151.2151,0,0,0,.2.2h2A3.4019,3.4019,0,0,1,80,4h.9a2.7686,2.7686,0,0,1,.9.1c.2-.1.4-.1.4-.2a.2151.2151,0,0,0-.2-.2.3491.3491,0,0,1-.2-.1,1.4385,1.4385,0,0,1,.2-.3c0-.1.1-.3.1-.4a4.3311,4.3311,0,0,0,.1-.5V1.9c0-.1-.1-.3-.1-.4-.1-.1-.2-.2-.2-.3-.1-.1-.2-.2-.3-.2s-.2-.1-.3-.1h-.4c-.1,0-.3,0-.3.1-.1,0-.3.1-.4.1s-.2.1-.3.2a1.0073,1.0073,0,0,1-.3.1,3.0749,3.0749,0,0,0-1.4.8l-.3.3h0a.3491.3491,0,0,1-.2.1c-.1.1-.3.2-.4.3a1.4385,1.4385,0,0,0-.2.3A1.6157,1.6157,0,0,0,76.9,3.7Zm.3,0h0c0-.1.1-.2.2-.3s.2-.2.3-.2a.0979.0979,0,0,0,.1-.1h0a.3491.3491,0,0,0,.2.1c.1.1.2.1.3.2.1,0,.3.1.4.1h.4a.2151.2151,0,0,0,.2-.2c0-.1-.1-.1-.2-.1h-.3a.3674.3674,0,0,1-.3-.1c-.1,0-.2-.1-.3-.2-.2-.2.1-.5.3-.6a2.2344,2.2344,0,0,1,1.2-.7c.1,0,.1,0,.1.1s.1.2.1.3.3.3.4.1c0-.1-.2-.2-.2-.2V1.5l.1-.1a.3491.3491,0,0,1,.2-.1c.1,0,.2-.1.3-.1a.3674.3674,0,0,0,.3-.1h.3c.1,0,.2.1.3.1a.2151.2151,0,0,1,.2.2l.2.2c0,.1.1.2.1.3v.4a.6012.6012,0,0,1-.1.4.7581.7581,0,0,1-.2.4c-.1.1-.1.2-.2.3s-.1.1-.2.1H80c-.3,0-.7.1-1,.1H77.9A4.1839,4.1839,0,0,1,77.2,3.7Z" fill="#bebeb4"/></g><g id="scrub_bd-8" data-name="scrub_bd" style="isolation:isolate"><g id="Scrub_FC-8" data-name="Scrub_FC"><g id="Deleted_Symbol_1-8" data-name="Deleted Symbol 1"><path d="M69.9,47.1c-.1,0-.1,0-.1-.1l-.3-1c0-.1,0-.1.1-.2l.2-.1h.1a.0979.0979,0,0,1,.1.1l.3,1c0,.1,0,.1-.1.2a.774.774,0,0,1-.3.1Z" fill="#a9cda6"/><path d="M71.7,46.9a.0979.0979,0,0,1-.1-.1V45.7h-.1a.31.31,0,0,0-.2.1h-.1c-.1,0-.1,0-.1-.1l-.1-.1v-.2c.2-.1.3-.2.5-.2a.52.52,0,0,1,.4.2.6012.6012,0,0,1,.1.4v1a.0979.0979,0,0,1-.1.1Z" fill="#a9cda6"/><path d="M76,47h-.2c-.1,0-.1-.1-.1-.2l.3-1a.0979.0979,0,0,1,.1-.1h.3c.1,0,.1.1.1.2l-.3,1c0,.1-.1.1-.2.1Z" fill="#a9cda6"/><path d="M73.8,46.8a.3674.3674,0,0,1-.3-.1,9.2783,9.2783,0,0,0-.7-2.4.3491.3491,0,0,0-.1-.2c.1,0,.2.1.3.1,0,0,.4.2.6,1.2l.1.2c0-.1.1-2.1.8-2.4a.3491.3491,0,0,0,.2-.1.31.31,0,0,1-.1.2,3.5548,3.5548,0,0,0-.4,1.6v.2a1.3807,1.3807,0,0,1,.9-.7h.1s0,.1-.2.2a6.5246,6.5246,0,0,0-.9,1.6v.5C74,46.7,73.9,46.8,73.8,46.8Z" fill="#a9cda6"/></g></g></g><g id="roughgrass_bd-8" data-name="roughgrass_bd" style="isolation:isolate"><g id="RoughGrass_FC-8" data-name="RoughGrass_FC"><path d="M75.5,41.6v.1l-.1.1h-.3l-.3-.4v-.1l.1-.1h.3Z" fill="#a9cda6"/><path d="M77.7,41.1h0l-.3-.3c-.1-.2.1-.7.1-.7v-.7A1.5084,1.5084,0,0,1,77.7,41.1Z" fill="#a9cda6"/><path d="M77.7,41.1c.1.1.2.1.2.3h-.3C77.6,41.3,77.7,41.2,77.7,41.1Z" fill="#a9cda6"/><path d="M79.8,40.2l-.4.4a2.1644,2.1644,0,0,0-.3.6v.2a.4829.4829,0,0,1-.4,0,2.18,2.18,0,0,0,.1-.6s0-1,.5-1.2c0,0,.4-.2.1.1a1.67,1.67,0,0,0-.3.9A1.0233,1.0233,0,0,1,79.8,40.2Z" fill="#a9cda6"/><path d="M81.8,41.2v.1l-.3.4c0,.1-.1.1-.2,0h-.1l-.1-.1v-.1l.3-.5c0-.1.1-.1.2,0l.2.2Z" fill="#a9cda6"/><path d="M76.4,40.7l.2.7v.1l-.1.1h-.1c-.1,0-.1,0-.2-.1l-.2-.7v-.1l.1-.1h.1C76.4,40.6,76.4,40.6,76.4,40.7Z" fill="#a9cda6"/><path d="M80.4,40.6h.1l.1.1v.1l-.2.7c0,.1-.1.1-.2.1H80v-.1l.2-.7C80.3,40.6,80.3,40.6,80.4,40.6Z" fill="#a9cda6"/></g></g><g id="boulder_bd-8" data-name="boulder_bd" style="isolation:isolate"><path d="M66.8,40.3a.3491.3491,0,0,0-.1.2.2151.2151,0,0,0,.2.2h2c.3,0,.7-.1,1-.1h.9a2.7686,2.7686,0,0,1,.9.1.5845.5845,0,0,0,.4-.1.2151.2151,0,0,0-.2-.2.3491.3491,0,0,1-.2-.1,1.4385,1.4385,0,0,1,.2-.3c.1-.1.1-.3.2-.4a4.3311,4.3311,0,0,0,.1-.5v-.5c0-.1-.1-.3-.1-.4-.1-.1-.2-.2-.2-.3-.1-.1-.2-.2-.3-.2s-.2-.1-.3-.1h-.4c-.1,0-.3,0-.3.1-.1,0-.3.1-.4.1s-.2.1-.3.2a.3674.3674,0,0,1-.3.1,3.0749,3.0749,0,0,0-1.4.8l-.3.3h0a.3491.3491,0,0,1-.2.1c-.1.1-.3.2-.4.3a1.4385,1.4385,0,0,0-.2.3A2.9585,2.9585,0,0,1,66.8,40.3Zm.3-.1h0c0-.1.1-.2.2-.3s.2-.2.3-.2a.0979.0979,0,0,0,.1-.1h0a.3491.3491,0,0,0,.2.1c.1.1.2.1.3.2.1,0,.3.1.4.1H69a.2151.2151,0,0,0,.2-.2c0-.1-.1-.1-.2-.1h-.3a.3674.3674,0,0,1-.3-.1c-.1,0-.2-.1-.3-.2-.2-.2.1-.5.3-.6a2.2344,2.2344,0,0,1,1.2-.7c.1,0,.1,0,.1.1s.1.2.1.3.3.3.4.1c0-.1-.2-.2-.2-.2V38l.1-.1a.3491.3491,0,0,1,.2-.1c.1,0,.2-.1.3-.1a.3674.3674,0,0,0,.3-.1h.3c.1,0,.2.1.3.1a.2151.2151,0,0,1,.2.2l.2.2c0,.1.1.2.1.3v.4a.6012.6012,0,0,1-.1.4.7581.7581,0,0,1-.2.4c-.1.1-.1.2-.2.3s-.1.1-.2.1H69.9c-.3,0-.7.1-1,.1H67.8A.9794.9794,0,0,1,67.1,40.2Z" fill="#bebeb4"/></g><g id="scrub_bd-9" data-name="scrub_bd" style="isolation:isolate"><g id="Scrub_FC-9" data-name="Scrub_FC"><g id="Deleted_Symbol_1-9" data-name="Deleted Symbol 1"><path d="M80.4,71c-.1,0-.1,0-.1-.1l-.3-1c0-.1,0-.1.1-.2l.2-.1h.1a.0979.0979,0,0,1,.1.1l.3,1c0,.1,0,.1-.1.2-.2,0-.2,0-.3.1Z" fill="#a9cda6"/><path d="M82.3,70.7a.0979.0979,0,0,1-.1-.1V69.5h-.1a.31.31,0,0,0-.2.1h-.1c-.1,0-.1,0-.1-.1l-.1-.1v-.2c.2-.1.3-.2.5-.2a.52.52,0,0,1,.4.2.6012.6012,0,0,1,.1.4v1a.0979.0979,0,0,1-.1.1Z" fill="#a9cda6"/><path d="M86.6,70.8h-.2c-.1,0-.1-.1-.1-.2l.3-1a.0979.0979,0,0,1,.1-.1H87c.1,0,.1.1.1.2l-.3,1a.31.31,0,0,1-.2.1Z" fill="#a9cda6"/><path d="M84.4,70.6a.3674.3674,0,0,1-.3-.1,9.2783,9.2783,0,0,0-.7-2.4.3491.3491,0,0,0-.1-.2c.1,0,.2.1.3.1,0,0,.4.2.6,1.2l.1.2c0-.1.1-2.1.8-2.4a.3491.3491,0,0,0,.2-.1.31.31,0,0,1-.1.2,3.5548,3.5548,0,0,0-.4,1.6V69a1.3807,1.3807,0,0,1,.9-.7h.1s0,.1-.2.2a6.5246,6.5246,0,0,0-.9,1.6v.5Z" fill="#a9cda6"/></g></g></g><g id="roughgrass_bd-9" data-name="roughgrass_bd" style="isolation:isolate"><g id="RoughGrass_FC-9" data-name="RoughGrass_FC"><path d="M86,65.4v.1l-.1.1h-.3l-.3-.4v-.1l.1-.1h.3Z" fill="#a9cda6"/><path d="M88.3,64.9h0l-.3-.3c-.1-.2.1-.7.1-.7v-.7A1.7646,1.7646,0,0,1,88.3,64.9Z" fill="#a9cda6"/><path d="M88.3,64.9c.1.1.2.1.2.3h-.3A.3674.3674,0,0,1,88.3,64.9Z" fill="#a9cda6"/><path d="M90.4,64l-.4.4a2.1644,2.1644,0,0,0-.3.6v.2a.4829.4829,0,0,1-.4,0,2.18,2.18,0,0,0,.1-.6s0-1,.5-1.2c0,0,.4-.2.1.1a1.67,1.67,0,0,0-.3.9A1.0233,1.0233,0,0,1,90.4,64Z" fill="#a9cda6"/><path d="M92.4,65.1v.1l-.4.4c0,.1-.1.1-.2,0h-.1l-.1-.1v-.1L92,65c0-.1.1-.1.2,0l.2.1Z" fill="#a9cda6"/><path d="M87,64.5l.2.7v.1l-.1.1H87c-.1,0-.1,0-.2-.1l-.2-.7v-.1l.1-.1h.1A.3491.3491,0,0,1,87,64.5Z" fill="#a9cda6"/><path d="M90.9,64.5H91l.1.1v.1l-.2.7c0,.1-.1.1-.2.1h-.1l-.1-.1v-.1l.2-.7C90.8,64.5,90.9,64.4,90.9,64.5Z" fill="#a9cda6"/></g></g><g id="boulder_bd-9" data-name="boulder_bd" style="isolation:isolate"><path d="M77.4,64.1a.3491.3491,0,0,0-.1.2.2151.2151,0,0,0,.2.2h2c.3,0,.7-.1,1-.1h.9a2.7686,2.7686,0,0,1,.9.1.5845.5845,0,0,0,.4-.1.2151.2151,0,0,0-.2-.2.3491.3491,0,0,1-.2-.1,1.4385,1.4385,0,0,1,.2-.3c.1-.1.1-.3.2-.4a4.3311,4.3311,0,0,0,.1-.5v-.5c0-.1-.1-.3-.1-.4-.1-.1-.2-.2-.2-.3-.1-.1-.2-.2-.3-.2s-.2-.1-.3-.1h-.4c-.1,0-.3,0-.3.1-.1,0-.3.1-.4.1s-.2.1-.3.2a.3674.3674,0,0,1-.3.1,3.0749,3.0749,0,0,0-1.4.8l-.3.3h0a.3491.3491,0,0,1-.2.1c-.1.1-.3.2-.4.3s-.2.2-.2.3C77.4,64,77.4,64.1,77.4,64.1Zm.3,0h0c0-.1.1-.2.2-.3s.2-.2.3-.2a.0979.0979,0,0,0,.1-.1h0a.3491.3491,0,0,0,.2.1c.1.1.2.1.3.2.1,0,.3.1.4.1h.4a.2151.2151,0,0,0,.2-.2c0-.1-.1-.1-.2-.1h-.3a.3674.3674,0,0,1-.3-.1c-.1,0-.2-.1-.3-.2-.2-.2.1-.5.3-.6a2.2344,2.2344,0,0,1,1.2-.7c.1,0,.1,0,.1.1s.1.2.1.3.3.3.4.1c0-.1-.2-.2-.2-.2v-.4l.1-.1a.3491.3491,0,0,1,.2-.1c.1,0,.2-.1.3-.1a.3674.3674,0,0,0,.3-.1h.3c.1,0,.2.1.3.1a.2151.2151,0,0,1,.2.2l.2.2c0,.1.1.2.1.3v.4a.6012.6012,0,0,1-.1.4.7581.7581,0,0,1-.2.4c-.1.1-.1.2-.2.3-.2.2-.2.2-.3.2H80.4c-.3,0-.7.1-1,.1H77.7Z" fill="#bebeb4"/></g><g id="scrub_bd-10" data-name="scrub_bd" style="isolation:isolate"><g id="Scrub_FC-10" data-name="Scrub_FC"><g id="Deleted_Symbol_1-10" data-name="Deleted Symbol 1"><path d="M54.4,92.2c-.1,0-.1,0-.1-.1l-.3-1c0-.1,0-.1.1-.2l.2-.1h.1a.0979.0979,0,0,1,.1.1l.3,1c0,.1,0,.1-.1.2a.438.438,0,0,0-.3.1Z" fill="#a9cda6"/><path d="M56.2,91.9a.0979.0979,0,0,1-.1-.1V90.7H56a.31.31,0,0,0-.2.1h-.1c-.1,0-.1,0-.1-.1l-.1-.1v-.2c.2-.1.3-.2.5-.2a.52.52,0,0,1,.4.2.6012.6012,0,0,1,.1.4v1a.0979.0979,0,0,1-.1.1Z" fill="#a9cda6"/><path d="M60.5,92.1h-.2c-.1,0-.1-.1-.1-.2l.3-1a.0979.0979,0,0,1,.1-.1h.3c.1,0,.1.1.1.2l-.3,1c-.1,0-.1.1-.2.1Z" fill="#a9cda6"/><path d="M58.3,91.8a.3674.3674,0,0,1-.3-.1,9.2783,9.2783,0,0,0-.7-2.4.3491.3491,0,0,0-.1-.2c.1,0,.2.1.3.1,0,0,.4.2.6,1.2l.1.2c0-.1.1-2.1.8-2.4a.3491.3491,0,0,0,.2-.1.31.31,0,0,1-.1.2,3.5548,3.5548,0,0,0-.4,1.6v.2a1.3807,1.3807,0,0,1,.9-.7h.1s0,.1-.2.2a6.5246,6.5246,0,0,0-.9,1.6v.5A.3674.3674,0,0,1,58.3,91.8Z" fill="#a9cda6"/></g></g></g><g id="roughgrass_bd-10" data-name="roughgrass_bd" style="isolation:isolate"><g id="RoughGrass_FC-10" data-name="RoughGrass_FC"><path d="M59.9,86.7v.1l-.1.1h-.3l-.3-.4v-.1l.1-.1h.3Z" fill="#a9cda6"/><path d="M62.2,86.1h0l-.3-.3c-.1-.2.1-.7.1-.7v-.7A1.5084,1.5084,0,0,1,62.2,86.1Z" fill="#a9cda6"/><path d="M62.2,86.1c.1.1.2.1.2.3h-.3A.774.774,0,0,1,62.2,86.1Z" fill="#a9cda6"/><path d="M64.3,85.2l-.4.4a2.1644,2.1644,0,0,0-.3.6v.2a.4829.4829,0,0,1-.4,0,2.18,2.18,0,0,0,.1-.6s0-1,.5-1.2c0,0,.4-.2.1.1a1.67,1.67,0,0,0-.3.9A1.0233,1.0233,0,0,1,64.3,85.2Z" fill="#a9cda6"/><path d="M66.3,86.3v.1l-.3.4c0,.1-.1.1-.2,0h-.1l-.1-.1v-.1l.3-.5c0-.1.1-.1.2,0l.2.2Z" fill="#a9cda6"/><path d="M60.9,85.8l.2.7v.1l-.1.1h-.1c-.1,0-.1,0-.2-.1l-.2-.7v-.1l.1-.1h.1C60.8,85.6,60.9,85.7,60.9,85.8Z" fill="#a9cda6"/><path d="M64.9,85.7H65l.1.1v.1l-.2.7c0,.1-.1.1-.2.1h-.1l-.1-.1v-.1l.2-.7C64.7,85.7,64.8,85.6,64.9,85.7Z" fill="#a9cda6"/></g></g><g id="boulder_bd-10" data-name="boulder_bd" style="isolation:isolate"><path d="M51.3,85.3a.3491.3491,0,0,0-.1.2.2151.2151,0,0,0,.2.2h2c.3,0,.7-.1,1-.1h.9a2.7686,2.7686,0,0,1,.9.1.5845.5845,0,0,0,.4-.1s-.1-.2-.2-.2a.3491.3491,0,0,1-.2-.1,1.4385,1.4385,0,0,1,.2-.3c.1-.1.1-.3.2-.4a4.3311,4.3311,0,0,0,.1-.5v-.5c0-.1-.1-.3-.1-.4-.1-.1-.2-.2-.2-.3-.1-.1-.2-.2-.3-.2s-.2-.1-.3-.1h-.4c-.1,0-.3,0-.3.1-.1,0-.3.1-.4.1s-.2.1-.3.2a.3674.3674,0,0,1-.3.1,3.0749,3.0749,0,0,0-1.4.8l-.3.3h0a.3491.3491,0,0,1-.2.1c-.1.1-.3.2-.4.3s-.2.2-.2.3C51.3,85.2,51.3,85.3,51.3,85.3Zm.3,0h0c0-.1.1-.2.2-.3s.2-.2.3-.2a.0979.0979,0,0,0,.1-.1h0a.3491.3491,0,0,0,.2.1c.1.1.2.1.3.2.1,0,.3.1.4.1h.4a.2151.2151,0,0,0,.2-.2c0-.1-.1-.1-.2-.1h-.3a.3674.3674,0,0,1-.3-.1c-.1,0-.2-.1-.3-.2-.2-.2.1-.5.3-.6a2.2344,2.2344,0,0,1,1.2-.7c.1,0,.1,0,.1.1s.1.2.1.3.3.3.4.1c0-.1-.2-.2-.2-.2v-.4l.1-.1a.3491.3491,0,0,1,.2-.1c.1,0,.2-.1.3-.1a.3674.3674,0,0,0,.3-.1c.1-.1.2,0,.3,0s.2.1.3.1a.2151.2151,0,0,1,.2.2l.2.2c0,.1.1.2.1.3v.4a.6012.6012,0,0,1-.1.4.7581.7581,0,0,1-.2.4c-.1.1-.1.2-.2.3s-.1.1-.2.1H54.4c-.3,0-.7.1-1,.1H52.3A3.1967,3.1967,0,0,1,51.6,85.3Z" fill="#bebeb4"/></g><g id="scrub_bd-11" data-name="scrub_bd" style="isolation:isolate"><g id="Scrub_FC-11" data-name="Scrub_FC"><g id="Deleted_Symbol_1-11" data-name="Deleted Symbol 1"><path d="M6.8,95c-.1,0-.1,0-.1-.1l-.3-1c0-.1,0-.1.1-.2l.2-.1h.1a.0979.0979,0,0,1,.1.1l.3,1c0,.1,0,.1-.1.2a.774.774,0,0,1-.3.1Z" fill="#a9cda6"/><path d="M8.6,94.8a.0979.0979,0,0,1-.1-.1V93.6H8.4a.31.31,0,0,0-.2.1H8.1c-.1,0-.1,0-.1-.1l-.1-.1v-.2a.3731.3731,0,0,1,.4-.3.52.52,0,0,1,.4.2.6012.6012,0,0,1,.1.4v1a.0979.0979,0,0,1-.1.1H8.6Z" fill="#a9cda6"/><path d="M12.9,94.9h-.2c-.1,0-.1-.1-.1-.2l.3-1a.0979.0979,0,0,1,.1-.1h.3c.1,0,.1.1.1.2l-.3,1c-.1.1-.1.1-.2.1Z" fill="#a9cda6"/><path d="M10.7,94.7a.3674.3674,0,0,1-.3-.1,9.2783,9.2783,0,0,0-.7-2.4.3491.3491,0,0,0-.1-.2c.1,0,.2.1.3.1,0,0,.4.2.6,1.2l.1.2c0-.1.1-2.1.8-2.4a.3491.3491,0,0,0,.2-.1.31.31,0,0,1-.1.2,4.6025,4.6025,0,0,0-.5,1.6V93a1.3807,1.3807,0,0,1,.9-.7H12s0,.1-.2.2a6.5246,6.5246,0,0,0-.9,1.6v.5A.3491.3491,0,0,1,10.7,94.7Z" fill="#a9cda6"/></g></g></g><g id="roughgrass_bd-11" data-name="roughgrass_bd" style="isolation:isolate"><g id="RoughGrass_FC-11" data-name="RoughGrass_FC"><path d="M12.3,89.5v.1l-.1.1h-.3l-.3-.4v-.1l.1-.1H12Z" fill="#a9cda6"/><path d="M14.6,88.9h0l-.3-.3c-.1-.2.1-.7.1-.7v-.7A1.4785,1.4785,0,0,1,14.6,88.9Z" fill="#a9cda6"/><path d="M14.6,89c.1.1.2.1.2.3h-.3A.3674.3674,0,0,1,14.6,89Z" fill="#a9cda6"/><path d="M16.7,88.1l-.5.4a2.1644,2.1644,0,0,0-.3.6v.2a.4829.4829,0,0,1-.4,0,2.18,2.18,0,0,0,.1-.6s0-1,.5-1.2c0,0,.4-.2.1.1a1.67,1.67,0,0,0-.3.9C16,88.5,16.3,88.1,16.7,88.1Z" fill="#a9cda6"/><path d="M18.7,89.1v.1l-.3.4c0,.1-.1.1-.2,0H18v-.1l.3-.5c0-.1.1-.1.2,0l.2.1Z" fill="#a9cda6"/><path d="M13.3,88.6l.2.7v.1l-.1.1h-.1c-.1,0-.1,0-.2-.1l-.1-.6v-.1l.1-.1h.1C13.2,88.5,13.3,88.5,13.3,88.6Z" fill="#a9cda6"/><path d="M17.3,88.5h.1l.1.1v.1l-.2.7c0,.1-.1.1-.2.1H17l-.1-.1v-.1l.2-.7C17.1,88.5,17.2,88.5,17.3,88.5Z" fill="#a9cda6"/></g></g><g id="boulder_bd-11" data-name="boulder_bd" style="isolation:isolate"><path d="M3.7,88.1a.3491.3491,0,0,0-.1.2.2151.2151,0,0,0,.2.2h2c.3,0,.7-.1,1-.1h.9a2.7686,2.7686,0,0,1,.9.1.5845.5845,0,0,0,.4-.1s-.1-.2-.2-.2a.2151.2151,0,0,1-.2-.2c0-.1.1-.2.2-.3s.1-.3.2-.4a.6012.6012,0,0,1,.1-.4c.1-.1,0-.3,0-.5-.1-.1-.1-.3-.2-.4s-.2-.2-.2-.3c-.1-.1-.2-.2-.3-.2s-.2-.1-.3-.1H7.7c-.1,0-.3,0-.3.1-.1,0-.3.1-.4.1s-.2.1-.3.2a1.0073,1.0073,0,0,1-.3.1,3.0749,3.0749,0,0,0-1.4.8l-.3.3h0a.3491.3491,0,0,1-.2.1c-.1.1-.3.2-.4.3s-.2.2-.2.3Zm.3,0H4c0-.1.1-.2.2-.3s.2-.2.3-.2a.0979.0979,0,0,0,.1-.1h0a.3491.3491,0,0,0,.2.1c.1.1.2.1.3.2a.3992.3992,0,0,0,.4.2h.4a.3491.3491,0,0,0,.1-.2c0-.1-.1-.1-.2-.1H5.5a.3674.3674,0,0,1-.3-.1.2151.2151,0,0,1-.2-.2c-.2-.2.1-.5.3-.6a2.2344,2.2344,0,0,1,1.2-.7c.1,0,.1,0,.1.1s.1.2.1.3.3.3.4.1c0-.1-.2-.2-.2-.2V86l.1-.1a.3491.3491,0,0,1,.2-.1c.1,0,.2-.1.3-.1a.3674.3674,0,0,0,.3-.1h.3c.1,0,.2.1.3.1a.2151.2151,0,0,1,.2.2l.2.2c0,.1.1.2.1.3v.4a.6012.6012,0,0,1-.1.4.7581.7581,0,0,1-.2.4c-.1.1-.1.2-.2.3s-.1.1-.2.1H6.8c-.3,0-.7.1-1,.1H4Z" fill="#bebeb4"/></g></svg>