<svg id="Layer_1" data-name="Layer 1" xmlns="http://www.w3.org/2000/svg" width="33.8667mm" height="33.8667mm" viewBox="0 0 96 96"><g id="coniferoustree_bd"><g id="ConiferousTree_FC"><g id="Deleted_Symbol" data-name="Deleted Symbol"><path d="M17.4,79.3c-.8-.1-1.6-1.5-1.6-1.5l.1,2.1c-.1.3-.6.1-.6.1V78a3.0819,3.0819,0,0,1-1.5,1.3c-.3,0-.1-.2-.1-.2,1.4-1.4,1.5-1.9,1.5-1.9a4.8858,4.8858,0,0,0,.1-1.6c-.7,1-1.2,1.1-1.2,1.1h-.2c-.1-.1.1-.3.1-.3a1.7556,1.7556,0,0,1,.5-.4h0a2.722,2.722,0,0,0,.8-1.2l.2-1s0-.1.1,0l.1,1a8.2294,8.2294,0,0,0,1.1,1.5c.1.1,0,.1,0,.1-.5-.1-1.1-.9-1.1-.9l.1,1.6a5.8543,5.8543,0,0,0,1.5,1.6C17.8,79.1,17.4,79.3,17.4,79.3Zm-3.2-2.9Zm.2-.1c-.1.1-.1.1-.2.1C14.3,76.4,14.3,76.3,14.4,76.3Zm.1-.1-.1.1Zm.1-.1-.1.1Zm0,0Zm.2-.2c0,.1-.1.1,0,0C14.7,76,14.8,76,14.8,75.9Z" fill="#a9cda6"/></g></g></g><g id="nonconiferoustree_bd"><g id="NonConiferousTree_FC"><g id="Deleted_Symbol_2" data-name="Deleted Symbol 2"><path d="M23.5,72.9A1.11,1.11,0,0,1,22.4,74a1.4213,1.4213,0,0,1-.6-.2c-.1.3-.4.4-.7.5a3.7463,3.7463,0,0,0,.1.8h0c0,.1-.1.1-.1.2-.1,0-.1.1-.2.1h-.2c-.1,0-.1-.1-.1-.2v-.8A2.092,2.092,0,0,1,20,74a1.1355,1.1355,0,0,1-.8.3,1.11,1.11,0,0,1-1.1-1.1,1.05,1.05,0,0,1,.5-.9V72a.9738.9738,0,0,1,.8-1v-.1a1.0324,1.0324,0,0,1,1.1-1.1,1.0879,1.0879,0,0,1,1.1.9h.1a1.11,1.11,0,0,1,1.1,1.1V72A.876.876,0,0,1,23.5,72.9Zm-.4,0a.8579.8579,0,0,0-.6-.7h-.2V72c0-.1.1-.2.1-.3a.6835.6835,0,0,0-.7-.7h-.2l-.2.1h-.1v-.4a.7.7,0,1,0-1.4,0v.2h0v.3h-.3a.6611.6611,0,0,0-.6.7.3674.3674,0,0,0,.1.3h0l.1.1v.1h-.2a.67.67,0,0,0-.4.7.6835.6835,0,0,0,.7.7.5483.5483,0,0,0,.6-.4.31.31,0,0,1,.1-.2v0l.1.2h0a.7385.7385,0,0,0,.6.5.752.752,0,0,0,.7-.5h0l.1-.2v-.1l.1.1.2.2a.7638.7638,0,0,0,.5.2C22.8,73.6,23.1,73.3,23.1,72.9Z" fill="#a9cda6"/></g></g></g><g id="nonconiferoustree_bd-2" data-name="nonconiferoustree_bd" style="isolation:isolate"><g id="NonConiferousTree_FC-2" data-name="NonConiferousTree_FC"><g id="Deleted_Symbol_2-2" data-name="Deleted Symbol 2"><path d="M14.9,71.4a1.11,1.11,0,0,1-1.1,1.1,1.4213,1.4213,0,0,1-.6-.2c-.1.3-.4.4-.7.5a3.7463,3.7463,0,0,0,.1.8h0c0,.1-.1.1-.1.2-.1,0-.1.1-.2.1h-.2c-.1,0-.1-.1-.1-.2v-.8a2.092,2.092,0,0,1-.6-.4,1.1355,1.1355,0,0,1-.8.3,1.11,1.11,0,0,1-1.1-1.1,1.05,1.05,0,0,1,.5-.9v-.3a.9738.9738,0,0,1,.8-1v-.1a1.0324,1.0324,0,0,1,1.1-1.1,1.0879,1.0879,0,0,1,1.1.9h.1a1.11,1.11,0,0,1,1.1,1.1v.2A.9605.9605,0,0,1,14.9,71.4Zm-.3,0a.8579.8579,0,0,0-.6-.7h-.2v-.2c0-.1.1-.2.1-.3a.6835.6835,0,0,0-.7-.7H13l-.2.1h-.1v-.4a.7.7,0,1,0-1.4,0v.2h0v.3H11a.6611.6611,0,0,0-.6.7.3674.3674,0,0,0,.1.3h0l.1.1v.1h-.2a.67.67,0,0,0-.4.7.6835.6835,0,0,0,.7.7.5483.5483,0,0,0,.6-.4.31.31,0,0,1,.1-.2v0l.1.2h0a.7385.7385,0,0,0,.6.5.752.752,0,0,0,.7-.5h0l.1-.2v-.1l.1.1.2.2a.7638.7638,0,0,0,.5.2A.7478.7478,0,0,0,14.6,71.4Z" fill="#a9cda6"/></g></g></g><g id="coniferoustree_bd-2" data-name="coniferoustree_bd" style="isolation:isolate"><g id="ConiferousTree_FC-2" data-name="ConiferousTree_FC"><g id="Deleted_Symbol-2" data-name="Deleted Symbol"><path d="M52.7,69c-.8-.1-1.6-1.5-1.6-1.5l.1,2.1c-.1.3-.6.1-.6.1v-2A3.0819,3.0819,0,0,1,49.1,69c-.3,0-.1-.2-.1-.2,1.4-1.4,1.5-1.9,1.5-1.9a4.8858,4.8858,0,0,0,.1-1.6c-.7,1-1.2,1.1-1.2,1.1h-.2c-.1-.1.1-.3.1-.3a1.7556,1.7556,0,0,1,.5-.4h0a2.722,2.722,0,0,0,.8-1.2l.2-1s0-.1.1,0l.1,1A8.2294,8.2294,0,0,0,52.1,66c.1.1,0,.1,0,.1-.5-.1-1.1-.9-1.1-.9l.1,1.6a5.8543,5.8543,0,0,0,1.5,1.6C53.1,68.8,52.7,69,52.7,69Zm-3.2-2.8Zm.2-.1c-.1.1-.1.1-.2.1C49.6,66.1,49.6,66.1,49.7,66.1Zm.1-.2-.1.1A.0979.0979,0,0,0,49.8,65.9Zm.1-.1-.1.1A.0979.0979,0,0,0,49.9,65.8Zm0,0Zm.1-.1Z" fill="#a9cda6"/></g></g></g><g id="nonconiferoustree_bd-3" data-name="nonconiferoustree_bd" style="isolation:isolate"><g id="NonConiferousTree_FC-3" data-name="NonConiferousTree_FC"><g id="Deleted_Symbol_2-3" data-name="Deleted Symbol 2"><path d="M58.8,62.7a1.11,1.11,0,0,1-1.1,1.1,1.4213,1.4213,0,0,1-.6-.2c-.1.3-.4.4-.7.5a3.7463,3.7463,0,0,0,.1.8h0c0,.1,0,.1-.1.2-.1,0-.1.1-.2.1H56c-.1,0-.1-.1-.1-.2v-.8a2.092,2.092,0,0,1-.6-.4,1.1355,1.1355,0,0,1-.8.3A1.11,1.11,0,0,1,53.4,63a1.05,1.05,0,0,1,.5-.9v-.3a.9738.9738,0,0,1,.8-1v-.1a1.0324,1.0324,0,0,1,1.1-1.1,1.0879,1.0879,0,0,1,1.1.9H57a1.11,1.11,0,0,1,1.1,1.1v.2A.8079.8079,0,0,1,58.8,62.7Zm-.4,0a.8579.8579,0,0,0-.6-.7h-.1v-.2c0-.1.1-.2.1-.3a.6835.6835,0,0,0-.7-.7h-.2l-.2.1h-.1v-.4a.7.7,0,0,0-1.4,0v.2h0V61h-.3a.6611.6611,0,0,0-.6.7.3674.3674,0,0,0,.1.3h0l.1.1v.1h-.2a.67.67,0,0,0-.4.7.6835.6835,0,0,0,.7.7.5483.5483,0,0,0,.6-.4.31.31,0,0,1,.1-.2v0l.1.2h0a.7385.7385,0,0,0,.6.5.752.752,0,0,0,.7-.5h0l.1-.2v-.1l.2.1.2.2a.7638.7638,0,0,0,.5.2A.6835.6835,0,0,0,58.4,62.7Z" fill="#a9cda6"/></g></g></g><g id="nonconiferoustree_bd-4" data-name="nonconiferoustree_bd" style="isolation:isolate"><g id="NonConiferousTree_FC-4" data-name="NonConiferousTree_FC"><g id="Deleted_Symbol_2-4" data-name="Deleted Symbol 2"><path d="M50.2,61.2a1.11,1.11,0,0,1-1.1,1.1,1.4213,1.4213,0,0,1-.6-.2c-.1.3-.4.4-.7.5a3.7463,3.7463,0,0,0,.1.8h0c0,.1-.1.1-.1.2-.1,0-.1.1-.2.1h-.2c-.1,0-.1-.1-.1-.2v-.8a2.092,2.092,0,0,1-.6-.4,1.1355,1.1355,0,0,1-.8.3,1.11,1.11,0,0,1-1.1-1.1,1.05,1.05,0,0,1,.5-.9v-.3a.9738.9738,0,0,1,.8-1v-.1a1.0324,1.0324,0,0,1,1.1-1.1,1.0879,1.0879,0,0,1,1.1.9h.1a1.11,1.11,0,0,1,1.1,1.1v.2A.8079.8079,0,0,1,50.2,61.2Zm-.4,0a.8579.8579,0,0,0-.6-.7h-.1v-.2c0-.1.1-.2.1-.3a.6835.6835,0,0,0-.7-.7h-.2l-.2.1H48V59a.7.7,0,1,0-1.4,0v.2h0v.3h-.3a.6611.6611,0,0,0-.6.7.3674.3674,0,0,0,.1.3h0l.1.1v.1h-.2a.67.67,0,0,0-.4.7.6835.6835,0,0,0,.7.7.5483.5483,0,0,0,.6-.4.31.31,0,0,1,.1-.2v0l.1.2h0a.7385.7385,0,0,0,.6.5.752.752,0,0,0,.7-.5h0l.1-.2v-.1l.1.1.2.2a.7638.7638,0,0,0,.5.2A.7133.7133,0,0,0,49.8,61.2Z" fill="#a9cda6"/></g></g></g><g id="coniferoustree_bd-3" data-name="coniferoustree_bd" style="isolation:isolate"><g id="ConiferousTree_FC-3" data-name="ConiferousTree_FC"><g id="Deleted_Symbol-3" data-name="Deleted Symbol"><path d="M13.2,52.2c-.8-.1-1.6-1.5-1.6-1.5l.1,2.1c-.1.3-.6.1-.6.1v-2a3.0819,3.0819,0,0,1-1.5,1.3c-.3,0-.1-.2-.1-.2,1.4-1.4,1.5-1.9,1.5-1.9a4.8858,4.8858,0,0,0,.1-1.6c-.7,1-1.2,1.1-1.2,1.1H9.7c-.1-.1.1-.3.1-.3a1.7556,1.7556,0,0,1,.5-.4h0a2.722,2.722,0,0,0,.8-1.2l.2-1s0-.1.1,0l.1,1a8.2294,8.2294,0,0,0,1.1,1.5c.1.1,0,.1,0,.1-.5-.1-1.1-.9-1.1-.9l.1,1.6a5.8543,5.8543,0,0,0,1.5,1.6C13.5,52,13.2,52.2,13.2,52.2ZM9.9,49.4Zm.2-.2c-.1.1-.1.1-.2.1C10,49.3,10.1,49.3,10.1,49.2Zm.1-.1-.1.1Zm.1-.1-.1.1Zm0,0Zm.2-.1Z" fill="#a9cda6"/></g></g></g><g id="nonconiferoustree_bd-5" data-name="nonconiferoustree_bd" style="isolation:isolate"><g id="NonConiferousTree_FC-5" data-name="NonConiferousTree_FC"><g id="Deleted_Symbol_2-5" data-name="Deleted Symbol 2"><path d="M19.2,45.8a1.11,1.11,0,0,1-1.1,1.1,1.4213,1.4213,0,0,1-.6-.2c-.1.3-.4.4-.7.5a3.7463,3.7463,0,0,0,.1.8h0c0,.1-.1.1-.1.2-.1,0-.1.1-.2.1h-.2c-.1,0-.1-.1-.1-.2v-.8a2.092,2.092,0,0,1-.6-.4,1.1355,1.1355,0,0,1-.8.3,1.11,1.11,0,0,1-1.1-1.1,1.05,1.05,0,0,1,.5-.9v-.3a.9738.9738,0,0,1,.8-1v-.1a1.0324,1.0324,0,0,1,1.1-1.1,1.0879,1.0879,0,0,1,1.1.9h.1a1.11,1.11,0,0,1,1.1,1.1v.2A.9605.9605,0,0,1,19.2,45.8Zm-.3,0a.8579.8579,0,0,0-.6-.7h-.2v-.2c0-.1.1-.2.1-.3a.6835.6835,0,0,0-.7-.7h-.2l-.2.1H17v-.4a.7.7,0,0,0-1.4,0v.2h0v.3h-.3a.6611.6611,0,0,0-.6.7.3674.3674,0,0,0,.1.3h0l.1.1v.1h-.2a.67.67,0,0,0-.4.7.6835.6835,0,0,0,.7.7.5483.5483,0,0,0,.6-.4.31.31,0,0,1,.1-.2v0l.1.2h0a.7385.7385,0,0,0,.6.5.752.752,0,0,0,.7-.5h0l.1-.2V46l.1.1.2.2a.7638.7638,0,0,0,.5.2A.7478.7478,0,0,0,18.9,45.8Z" fill="#a9cda6"/></g></g></g><g id="coniferoustree_bd-4" data-name="coniferoustree_bd" style="isolation:isolate"><g id="ConiferousTree_FC-4" data-name="ConiferousTree_FC"><g id="Deleted_Symbol-4" data-name="Deleted Symbol"><path d="M9.7,46.3c-.8-.1-1.6-1.5-1.6-1.5l.1,2.1c-.1.4-.5.1-.5.1V45a3.0819,3.0819,0,0,1-1.5,1.3c-.3,0-.1-.2-.1-.2,1.4-1.4,1.5-1.9,1.5-1.9a4.8858,4.8858,0,0,0,.1-1.6c-.7,1-1.2,1.1-1.2,1.1H6.3c-.1-.1.1-.3.1-.3a1.7556,1.7556,0,0,1,.5-.4h0a2.722,2.722,0,0,0,.8-1.2l.2-1s0-.1.1,0l.1,1a8.2294,8.2294,0,0,0,1.1,1.5c.1.1,0,.1,0,.1-.5-.1-1.1-.9-1.1-.9l.1,1.6a5.8543,5.8543,0,0,0,1.5,1.6C10.1,46.1,9.7,46.3,9.7,46.3ZM6.5,43.5Zm.2-.2c-.1.1-.1.1-.2.1C6.6,43.4,6.7,43.4,6.7,43.3Zm.1-.1-.1.1Zm.1-.1-.1.1A.0979.0979,0,0,0,6.9,43.1Zm0,0Zm.2-.1Z" fill="#a9cda6"/></g></g></g><g id="coniferoustree_bd-5" data-name="coniferoustree_bd" style="isolation:isolate"><g id="ConiferousTree_FC-5" data-name="ConiferousTree_FC"><g id="Deleted_Symbol-5" data-name="Deleted Symbol"><path d="M21.7,32c-.8-.1-1.6-1.5-1.6-1.5l.1,2.1c-.1.3-.6.1-.6.1v-2A3.0819,3.0819,0,0,1,18.1,32c-.3,0-.1-.2-.1-.2,1.4-1.4,1.5-1.9,1.5-1.9a4.8858,4.8858,0,0,0,.1-1.6c-.7,1-1.2,1.1-1.2,1.1h-.2c-.1-.1.1-.3.1-.3a1.7556,1.7556,0,0,1,.5-.4h0a2.722,2.722,0,0,0,.8-1.2l.2-1s0-.1.1,0l.1,1A8.2294,8.2294,0,0,0,21.1,29c.1.1,0,.1,0,.1-.5-.1-1.1-.9-1.1-.9l.1,1.6a5.8543,5.8543,0,0,0,1.5,1.6C22,31.8,21.7,32,21.7,32Zm-3.2-2.8Zm.1-.2c-.1.1-.1.1-.2.1C18.5,29.1,18.6,29.1,18.6,29Zm.2-.1-.1.1A.0979.0979,0,0,1,18.8,28.9Zm.1-.1-.1.1A.0979.0979,0,0,1,18.9,28.8Zm0,0Zm.1-.1Z" fill="#a9cda6"/></g></g></g><g id="nonconiferoustree_bd-6" data-name="nonconiferoustree_bd" style="isolation:isolate"><g id="NonConiferousTree_FC-6" data-name="NonConiferousTree_FC"><g id="Deleted_Symbol_2-6" data-name="Deleted Symbol 2"><path d="M27.8,25.6a1.11,1.11,0,0,1-1.1,1.1,1.4213,1.4213,0,0,1-.6-.2c-.1.3-.4.4-.7.5a3.7463,3.7463,0,0,0,.1.8h0c0,.1-.1.1-.1.2-.1,0-.1.1-.2.1H25c-.1,0-.1-.1-.1-.2v-.8a2.092,2.092,0,0,1-.6-.4,1.1355,1.1355,0,0,1-.8.3,1.11,1.11,0,0,1-1.1-1.1,1.05,1.05,0,0,1,.5-.9v-.3a.9738.9738,0,0,1,.8-1v-.1a1.0324,1.0324,0,0,1,1.1-1.1,1.0879,1.0879,0,0,1,1.1.9H26a1.11,1.11,0,0,1,1.1,1.1v.2A.9605.9605,0,0,1,27.8,25.6Zm-.4,0a.8579.8579,0,0,0-.6-.7h-.2v-.2c0-.1.1-.2.1-.3a.6835.6835,0,0,0-.7-.7h-.2l-.2.1h-.1v-.4a.7.7,0,1,0-1.4,0v.2h0v.3h-.3a.6611.6611,0,0,0-.6.7.3674.3674,0,0,0,.1.3h0l.1.1v.1h-.2a.67.67,0,0,0-.4.7.6835.6835,0,0,0,.7.7.5483.5483,0,0,0,.6-.4.31.31,0,0,1,.1-.2v0l.1.2h0a.7385.7385,0,0,0,.6.5.752.752,0,0,0,.7-.5h0l.1-.2v-.1l.3.2.2.2a.7638.7638,0,0,0,.5.2A.7728.7728,0,0,0,27.4,25.6Z" fill="#a9cda6"/></g></g></g><g id="nonconiferoustree_bd-7" data-name="nonconiferoustree_bd" style="isolation:isolate"><g id="NonConiferousTree_FC-7" data-name="NonConiferousTree_FC"><g id="Deleted_Symbol_2-7" data-name="Deleted Symbol 2"><path d="M19.2,24.1a1.11,1.11,0,0,1-1.1,1.1,1.4213,1.4213,0,0,1-.6-.2c-.1.3-.4.4-.7.5a3.7463,3.7463,0,0,0,.1.8h0c0,.1-.1.1-.1.2-.1,0-.1.1-.2.1h-.2c-.1,0-.1-.1-.1-.2v-.8a2.092,2.092,0,0,1-.6-.4,1.1355,1.1355,0,0,1-.8.3,1.11,1.11,0,0,1-1.1-1.1,1.05,1.05,0,0,1,.5-.9v-.3a.9738.9738,0,0,1,.8-1v-.1A1.0324,1.0324,0,0,1,16.2,21a1.0879,1.0879,0,0,1,1.1.9h.1A1.11,1.11,0,0,1,18.5,23v.2A.9605.9605,0,0,1,19.2,24.1Zm-.4,0a.8579.8579,0,0,0-.6-.7H18v-.2c0-.1.1-.2.1-.3a.6835.6835,0,0,0-.7-.7h-.2l-.2.1h-.1V22h0a.7.7,0,1,0-1.4,0v.2h0v.3h-.3a.6611.6611,0,0,0-.6.7.3674.3674,0,0,0,.1.3h0l.1.1v.1h-.2a.67.67,0,0,0-.4.7.6835.6835,0,0,0,.7.7.5483.5483,0,0,0,.6-.4.31.31,0,0,1,.1-.2v0l.1.2h0a.7385.7385,0,0,0,.6.5.752.752,0,0,0,.7-.5h0l.1-.2v-.1l.1.1.2.2a.7638.7638,0,0,0,.5.2C18.5,24.9,18.8,24.6,18.8,24.1Z" fill="#a9cda6"/></g></g></g><g id="coniferoustree_bd-6" data-name="coniferoustree_bd" style="isolation:isolate"><g id="ConiferousTree_FC-6" data-name="ConiferousTree_FC"><g id="Deleted_Symbol-6" data-name="Deleted Symbol"><path d="M51.3,13c-.8-.1-1.6-1.5-1.6-1.5l.1,2.1c-.1.3-.6.1-.6.1v-2A3.0819,3.0819,0,0,1,47.7,13c-.3,0-.1-.2-.1-.2,1.4-1.4,1.5-1.9,1.5-1.9a4.8858,4.8858,0,0,0,.1-1.6c-.7,1-1.2,1.1-1.2,1.1h-.2c-.1-.1.1-.3.1-.3a1.7556,1.7556,0,0,1,.5-.4h0a2.722,2.722,0,0,0,.8-1.2l.2-1s0-.1.1,0l.1,1A8.2294,8.2294,0,0,0,50.7,10c.1.1,0,.1,0,.1-.5-.1-1.1-.9-1.1-.9l.1,1.6a5.8543,5.8543,0,0,0,1.5,1.6C51.7,12.8,51.3,13,51.3,13Zm-3.2-2.8Zm.2-.2c-.1.1-.1.1-.2.1C48.2,10.1,48.2,10.1,48.3,10Zm.1-.1-.1.1Zm.1-.1-.1.1A.0979.0979,0,0,0,48.5,9.8Zm0,0Zm.1-.1Z" fill="#a9cda6"/></g></g></g><g id="nonconiferoustree_bd-8" data-name="nonconiferoustree_bd" style="isolation:isolate"><g id="NonConiferousTree_FC-8" data-name="NonConiferousTree_FC"><g id="Deleted_Symbol_2-8" data-name="Deleted Symbol 2"><path d="M57.4,6.6a1.11,1.11,0,0,1-1.1,1.1,1.4213,1.4213,0,0,1-.6-.2,1.0573,1.0573,0,0,1-.7.6,3.7463,3.7463,0,0,0,.1.8h0c0,.1-.1.1-.1.2-.1,0-.1.1-.2.1h-.2c-.1,0-.1-.1-.1-.2V8.2a2.092,2.092,0,0,1-.6-.4,1.8839,1.8839,0,0,1-.8.2A1.11,1.11,0,0,1,52,6.9a1.05,1.05,0,0,1,.5-.9V5.7a.9738.9738,0,0,1,.8-1V4.6a1.1355,1.1355,0,0,1,.3-.8,1.1355,1.1355,0,0,1,.8-.3,1.0879,1.0879,0,0,1,1.1.9h.1a1.11,1.11,0,0,1,1.1,1.1v.2A.9605.9605,0,0,1,57.4,6.6Zm-.4,0a.8579.8579,0,0,0-.6-.7h-.1V5.7c0-.1.1-.2.1-.3a.6835.6835,0,0,0-.7-.7h-.2l-.2.1h-.1V4.5h0a.7.7,0,0,0-1.4,0v.2h0V5h-.3a.6611.6611,0,0,0-.6.7A.3674.3674,0,0,0,53,6h0l.1.1v.1h-.2a.67.67,0,0,0-.4.7.6835.6835,0,0,0,.7.7.5483.5483,0,0,0,.6-.4.31.31,0,0,1,.1-.2V7l.1.2h0a.7385.7385,0,0,0,.6.5.752.752,0,0,0,.7-.5h0l.1-.2V6.9l.2.1.2.2a.7638.7638,0,0,0,.5.2A.7133.7133,0,0,0,57,6.6Z" fill="#a9cda6"/></g></g></g><g id="nonconiferoustree_bd-9" data-name="nonconiferoustree_bd" style="isolation:isolate"><g id="NonConiferousTree_FC-9" data-name="NonConiferousTree_FC"><g id="Deleted_Symbol_2-9" data-name="Deleted Symbol 2"><path d="M48.8,5.2a1.11,1.11,0,0,1-1.1,1.1,1.4213,1.4213,0,0,1-.6-.2c-.1.3-.4.4-.7.5a3.7463,3.7463,0,0,0,.1.8h0c0,.1-.1.1-.1.2-.1,0-.1.1-.2.1H46c-.1,0-.1-.1-.1-.2V6.7a2.092,2.092,0,0,1-.6-.4,1.1355,1.1355,0,0,1-.8.3,1.11,1.11,0,0,1-1.1-1.1,1.05,1.05,0,0,1,.5-.9V4.3a.9738.9738,0,0,1,.8-1V3.2a1.1355,1.1355,0,0,1,.3-.8,1.1355,1.1355,0,0,1,.8-.3,1.0879,1.0879,0,0,1,1.1.9H47a1.11,1.11,0,0,1,1.1,1.1v.2A.8079.8079,0,0,1,48.8,5.2Zm-.3,0a.8579.8579,0,0,0-.6-.7h-.2V4.3c0-.1.1-.2.1-.3a.6835.6835,0,0,0-.7-.7h-.2l-.2.1h-.1V3a.7.7,0,1,0-1.4,0v.2h0v.3h-.3a.6611.6611,0,0,0-.6.7.3674.3674,0,0,0,.1.3h0l.1.1v.1h-.2a.67.67,0,0,0-.4.7.6835.6835,0,0,0,.7.7.5483.5483,0,0,0,.6-.4.31.31,0,0,1,.1-.2v0l.1.2h0a.7385.7385,0,0,0,.6.5.752.752,0,0,0,.7-.5h0l.1-.2V5.4l.2.1.2.2a.7638.7638,0,0,0,.5.2A.7728.7728,0,0,0,48.5,5.2Z" fill="#a9cda6"/></g></g></g><g id="coniferoustree_bd-7" data-name="coniferoustree_bd" style="isolation:isolate"><g id="ConiferousTree_FC-7" data-name="ConiferousTree_FC"><g id="Deleted_Symbol-7" data-name="Deleted Symbol"><path d="M73,28.6c-.8-.1-1.6-1.5-1.6-1.5l.1,2.1c-.1.3-.6.1-.6.1v-2a3.0819,3.0819,0,0,1-1.5,1.3c-.3,0-.1-.2-.1-.2,1.4-1.4,1.5-1.9,1.5-1.9A3.1179,3.1179,0,0,0,71,25c-.7,1-1.2,1.1-1.2,1.1h-.2c-.1-.1.1-.3.1-.3a1.7556,1.7556,0,0,1,.5-.4h0a2.722,2.722,0,0,0,.8-1.2l.2-1s0-.1.1,0l.1,1a8.2294,8.2294,0,0,0,1.1,1.5c.1.1,0,.1,0,.1-.5-.1-1.1-.9-1.1-.9l.1,1.6A5.8543,5.8543,0,0,0,73,28.1C73.4,28.4,73,28.6,73,28.6Zm-3.2-2.8Zm.2-.2c-.1.1-.1.1-.2.1C69.9,25.7,69.9,25.7,70,25.6Zm.1-.1-.1.1A.0979.0979,0,0,0,70.1,25.5Zm.1-.1-.1.1C70.2,25.5,70.2,25.5,70.2,25.4Zm0,0Zm.1-.1Z" fill="#a9cda6"/></g></g></g><g id="nonconiferoustree_bd-10" data-name="nonconiferoustree_bd" style="isolation:isolate"><g id="NonConiferousTree_FC-10" data-name="NonConiferousTree_FC"><g id="Deleted_Symbol_2-10" data-name="Deleted Symbol 2"><path d="M79.1,22.3A1.11,1.11,0,0,1,78,23.4a1.4213,1.4213,0,0,1-.6-.2c-.1.3-.4.4-.7.5a3.7463,3.7463,0,0,0,.1.8h0c0,.1,0,.1-.1.2-.1,0-.1.1-.2.1h-.2c-.1,0-.1-.1-.1-.2v-.8a2.092,2.092,0,0,1-.6-.4,1.1355,1.1355,0,0,1-.8.3,1.11,1.11,0,0,1-1.1-1.1,1.05,1.05,0,0,1,.5-.9v-.3a.9738.9738,0,0,1,.8-1v-.1a1.0324,1.0324,0,0,1,1.1-1.1,1.0879,1.0879,0,0,1,1.1.9h.1a1.11,1.11,0,0,1,1.1,1.1v.2A.8079.8079,0,0,1,79.1,22.3Zm-.4,0a.8579.8579,0,0,0-.6-.7H78v-.2c0-.1.1-.2.1-.3a.6835.6835,0,0,0-.7-.7h-.2l-.2.1h-.1v-.4a.7.7,0,0,0-1.4,0v.2h0v.3h-.3a.6611.6611,0,0,0-.6.7.3674.3674,0,0,0,.1.3h0l.1.1v.1h-.2a.67.67,0,0,0-.4.7.6835.6835,0,0,0,.7.7.5483.5483,0,0,0,.6-.4.31.31,0,0,1,.1-.2v0l.1.2h0a.7385.7385,0,0,0,.6.5.752.752,0,0,0,.7-.5h0l.1-.2v-.1l.1.1.2.2a.7638.7638,0,0,0,.5.2A.7133.7133,0,0,0,78.7,22.3Z" fill="#a9cda6"/></g></g></g><g id="coniferoustree_bd-8" data-name="coniferoustree_bd" style="isolation:isolate"><g id="ConiferousTree_FC-8" data-name="ConiferousTree_FC"><g id="Deleted_Symbol-8" data-name="Deleted Symbol"><path d="M69.6,22.7c-.8-.1-1.6-1.5-1.6-1.5l.1,2.1c-.1.3-.6.1-.6.1v-2A3.0819,3.0819,0,0,1,66,22.7c-.3,0-.1-.2-.1-.2,1.4-1.4,1.5-1.9,1.5-1.9a4.8858,4.8858,0,0,0,.1-1.6c-.7,1-1.2,1.1-1.2,1.1h-.2c-.1-.1.1-.3.1-.3a1.7556,1.7556,0,0,1,.5-.4h0a2.722,2.722,0,0,0,.8-1.2l.2-1s0-.1.1,0l.1,1A8.2294,8.2294,0,0,0,69,19.7c.1.1,0,.1,0,.1-.5-.1-1.1-.9-1.1-.9l.1,1.6a5.8543,5.8543,0,0,0,1.5,1.6C70,22.5,69.6,22.7,69.6,22.7Zm-3.2-2.8Zm.2-.1c-.1.1-.1.1-.2.1C66.5,19.8,66.5,19.8,66.6,19.8Zm.1-.2-.1.1A.0979.0979,0,0,0,66.7,19.6Zm.1-.1-.1.1A.0979.0979,0,0,0,66.8,19.5Zm0,0Zm.1-.1Z" fill="#a9cda6"/></g></g></g><g id="coniferoustree_bd-9" data-name="coniferoustree_bd" style="isolation:isolate"><g id="ConiferousTree_FC-9" data-name="ConiferousTree_FC"><g id="Deleted_Symbol-9" data-name="Deleted Symbol"><path d="M83.7,12.3c-.8-.1-1.6-1.5-1.6-1.5l.1,2.1c-.1.3-.6.1-.6.1V11a3.0819,3.0819,0,0,1-1.5,1.3c-.3,0-.1-.2-.1-.2,1.4-1.4,1.5-1.9,1.5-1.9a4.8858,4.8858,0,0,0,.1-1.6c-.7,1-1.2,1.1-1.2,1.1h-.2c-.1-.1.1-.3.1-.3a1.7556,1.7556,0,0,1,.5-.4h0a2.722,2.722,0,0,0,.8-1.2l.2-1s0-.1.1,0l.1,1a8.2294,8.2294,0,0,0,1.1,1.5c.1.1,0,.1,0,.1-.5-.1-1.1-.9-1.1-.9l.1,1.6a5.8543,5.8543,0,0,0,1.5,1.6C84.1,12.1,83.7,12.3,83.7,12.3ZM80.5,9.5Zm.2-.1c-.1.1-.1.1-.2.1C80.6,9.5,80.6,9.4,80.7,9.4Zm.1-.1-.1.1A.0979.0979,0,0,1,80.8,9.3Zm.1-.1-.1.1A.0979.0979,0,0,1,80.9,9.2Zm0,0ZM81,9Z" fill="#a9cda6"/></g></g></g><g id="nonconiferoustree_bd-11" data-name="nonconiferoustree_bd" style="isolation:isolate"><g id="NonConiferousTree_FC-11" data-name="NonConiferousTree_FC"><g id="Deleted_Symbol_2-11" data-name="Deleted Symbol 2"><path d="M89.8,6a1.11,1.11,0,0,1-1.1,1.1,1.4213,1.4213,0,0,1-.6-.2c-.1.3-.4.4-.7.5a3.7463,3.7463,0,0,0,.1.8h0c0,.1,0,.1-.1.2-.1,0-.1.1-.2.1H87c-.1,0-.1-.1-.1-.2V7.5a2.092,2.092,0,0,1-.6-.4,1.1355,1.1355,0,0,1-.8.3,1.11,1.11,0,0,1-1.1-1.1,1.05,1.05,0,0,1,.5-.9V5.1a.9738.9738,0,0,1,.8-1V4a1.1355,1.1355,0,0,1,.3-.8,1.1355,1.1355,0,0,1,.8-.3,1.0879,1.0879,0,0,1,1.1.9H88a1.11,1.11,0,0,1,1.1,1.1v.2A.8079.8079,0,0,1,89.8,6Zm-.4,0a.8579.8579,0,0,0-.6-.7h-.1V5.1c0-.1.1-.2.1-.3a.6835.6835,0,0,0-.7-.7h-.2l-.2.1h-.1V3.8a.7.7,0,1,0-1.4,0V4h0v.3h-.3a.6611.6611,0,0,0-.6.7.3674.3674,0,0,0,.1.3h0l.1.1v.1h-.2a1.02,1.02,0,0,0-.5.8.6835.6835,0,0,0,.7.7.5483.5483,0,0,0,.6-.4.31.31,0,0,1,.1-.2v0l.1.2h0a.7385.7385,0,0,0,.6.5.752.752,0,0,0,.7-.5h0l.1-.2V6.3H88l.2.2a.7638.7638,0,0,0,.5.2A.6835.6835,0,0,0,89.4,6Z" fill="#a9cda6"/></g></g></g><g id="coniferoustree_bd-10" data-name="coniferoustree_bd" style="isolation:isolate"><g id="ConiferousTree_FC-10" data-name="ConiferousTree_FC"><g id="Deleted_Symbol-10" data-name="Deleted Symbol"><path d="M80.3,6.5C79.6,6.3,78.7,5,78.7,5l.1,2.1c-.1.3-.6.1-.6.1v-2a3.0819,3.0819,0,0,1-1.5,1.3c-.3,0-.1-.2-.1-.2,1.4-1.4,1.5-1.9,1.5-1.9a4.8858,4.8858,0,0,0,.1-1.6c-.7,1-1.2,1.1-1.2,1.1h-.2c-.1-.1.1-.3.1-.3a1.7556,1.7556,0,0,1,.5-.4h0A2.5584,2.5584,0,0,0,78.3,2l.2-1s0-.1.1,0l.1,1a8.2294,8.2294,0,0,0,1.1,1.5c.1.1,0,.1,0,.1-.5-.1-1.1-.9-1.1-.9l.1,1.6a5.8543,5.8543,0,0,0,1.5,1.6C80.7,6.3,80.3,6.5,80.3,6.5ZM77.1,3.6Zm.2-.1c-.1.1-.1.1-.2.1C77.2,3.6,77.2,3.5,77.3,3.5Zm.1-.1-.1.1A.0979.0979,0,0,1,77.4,3.4Zm.1-.1-.1.1A.0979.0979,0,0,1,77.5,3.3Zm0,0Zm.1-.2Z" fill="#a9cda6"/></g></g></g><g id="coniferoustree_bd-11" data-name="coniferoustree_bd" style="isolation:isolate"><g id="ConiferousTree_FC-11" data-name="ConiferousTree_FC"><g id="Deleted_Symbol-11" data-name="Deleted Symbol"><path d="M74,47.8c-.8-.1-1.6-1.5-1.6-1.5l.1,2.1c-.1.3-.6.1-.6.1v-2a3.0819,3.0819,0,0,1-1.5,1.3c-.3,0-.1-.2-.1-.2,1.4-1.4,1.5-1.9,1.5-1.9a4.8858,4.8858,0,0,0,.1-1.6c-.7,1-1.2,1.1-1.2,1.1h-.2c-.1-.1.1-.3.1-.3a1.7556,1.7556,0,0,1,.5-.4h0a2.722,2.722,0,0,0,.8-1.2l.2-1s0-.1.1,0l.1,1a8.2294,8.2294,0,0,0,1.1,1.5c.1.1,0,.1,0,.1-.5-.1-1.1-.9-1.1-.9l.1,1.6a5.8543,5.8543,0,0,0,1.5,1.6C74.3,47.6,74,47.8,74,47.8ZM70.8,45Zm.1-.2c-.1.1-.1.1-.2.1C70.8,44.9,70.9,44.9,70.9,44.8Zm.2-.1-.1.1A.0979.0979,0,0,1,71.1,44.7Zm.1-.1-.1.1C71.1,44.6,71.1,44.6,71.2,44.6Zm0,0Zm.1-.1Z" fill="#a9cda6"/></g></g></g><g id="nonconiferoustree_bd-12" data-name="nonconiferoustree_bd" style="isolation:isolate"><g id="NonConiferousTree_FC-12" data-name="NonConiferousTree_FC"><g id="Deleted_Symbol_2-12" data-name="Deleted Symbol 2"><path d="M80.1,41.4A1.11,1.11,0,0,1,79,42.5a1.4213,1.4213,0,0,1-.6-.2c-.1.3-.4.4-.7.5a3.7463,3.7463,0,0,0,.1.8h0c0,.1,0,.1-.1.2-.1,0-.1.1-.2.1h-.2c-.1,0-.1-.1-.1-.2v-.8a2.092,2.092,0,0,1-.6-.4,1.1355,1.1355,0,0,1-.8.3,1.11,1.11,0,0,1-1.1-1.1,1.05,1.05,0,0,1,.5-.9v-.3a.9738.9738,0,0,1,.8-1v-.1a1.0324,1.0324,0,0,1,1.1-1.1,1.0879,1.0879,0,0,1,1.1.9h.1a1.11,1.11,0,0,1,1.1,1.1v.2A.9605.9605,0,0,1,80.1,41.4Zm-.4,0a.8579.8579,0,0,0-.6-.7H79v-.2c0-.1.1-.2.1-.3a.6835.6835,0,0,0-.7-.7h-.2l-.2.1h-.1v-.4a.7.7,0,0,0-1.4,0v.2h0v.3h-.3a.6611.6611,0,0,0-.6.7.3674.3674,0,0,0,.1.3h0l.1.1v.1h-.2a.67.67,0,0,0-.4.7.6835.6835,0,0,0,.7.7.5483.5483,0,0,0,.6-.4.31.31,0,0,1,.1-.2v0l.1.2h0a.7385.7385,0,0,0,.6.5.752.752,0,0,0,.7-.5h0l.1-.2v-.1l.1.1.2.2a.7638.7638,0,0,0,.5.2A.6658.6658,0,0,0,79.7,41.4Z" fill="#a9cda6"/></g></g></g><g id="nonconiferoustree_bd-13" data-name="nonconiferoustree_bd" style="isolation:isolate"><g id="NonConiferousTree_FC-13" data-name="NonConiferousTree_FC"><g id="Deleted_Symbol_2-13" data-name="Deleted Symbol 2"><path d="M71.5,39.9A1.11,1.11,0,0,1,70.4,41a1.4213,1.4213,0,0,1-.6-.2c-.1.3-.4.4-.7.5a3.7463,3.7463,0,0,0,.1.8h0c0,.1,0,.1-.1.2-.1,0-.1.1-.2.1h-.2c-.1,0-.1-.1-.1-.2v-.8A2.092,2.092,0,0,1,68,41a1.1355,1.1355,0,0,1-.8.3,1.11,1.11,0,0,1-1.1-1.1,1.05,1.05,0,0,1,.5-.9V39a.9738.9738,0,0,1,.8-1v-.1a1.0324,1.0324,0,0,1,1.1-1.1,1.0879,1.0879,0,0,1,1.1.9h.1a1.11,1.11,0,0,1,1.1,1.1V39A.9605.9605,0,0,1,71.5,39.9Zm-.4,0a.8579.8579,0,0,0-.6-.7h-.1V39c0-.1.1-.2.1-.3a.6835.6835,0,0,0-.7-.7h-.2l-.2.1h-.1v-.4a.7.7,0,1,0-1.4,0v.2h0v.3h-.3a.6611.6611,0,0,0-.6.7.3674.3674,0,0,0,.1.3h0l.1.1v.1H67a.67.67,0,0,0-.4.7.6835.6835,0,0,0,.7.7.5483.5483,0,0,0,.6-.4.31.31,0,0,1,.1-.2v0l.1.2h0a.7385.7385,0,0,0,.6.5.752.752,0,0,0,.7-.5h0l.1-.2v-.1l.1.1.2.2a.7638.7638,0,0,0,.5.2C70.8,40.7,71.1,40.4,71.1,39.9Z" fill="#a9cda6"/></g></g></g><g id="coniferoustree_bd-12" data-name="coniferoustree_bd" style="isolation:isolate"><g id="ConiferousTree_FC-12" data-name="ConiferousTree_FC"><g id="Deleted_Symbol-12" data-name="Deleted Symbol"><path d="M84.2,70.9c-.8-.1-1.6-1.5-1.6-1.5l.1,2.1c-.1.3-.6.1-.6.1v-2a3.0819,3.0819,0,0,1-1.5,1.3c-.3,0-.1-.2-.1-.2,1.4-1.4,1.5-1.9,1.5-1.9a4.8858,4.8858,0,0,0,.1-1.6c-.7,1-1.2,1.1-1.2,1.1h-.2c-.1-.1.1-.3.1-.3a1.7556,1.7556,0,0,1,.5-.4h0a2.722,2.722,0,0,0,.8-1.2l.2-1s0-.1.1,0l.1,1a8.2294,8.2294,0,0,0,1.1,1.5c.1.1,0,.1,0,.1-.5-.1-1.1-.9-1.1-.9l.1,1.6a5.8543,5.8543,0,0,0,1.5,1.6C84.6,70.7,84.2,70.9,84.2,70.9ZM81,68.1Zm.2-.2c-.1.1-.2.1-.2.2C81.1,68,81.1,67.9,81.2,67.9Zm.1-.1-.1.1Zm.1-.1-.1.1A.0979.0979,0,0,1,81.4,67.7Zm0,0Zm.1-.1Z" fill="#a9cda6"/></g></g></g><g id="nonconiferoustree_bd-14" data-name="nonconiferoustree_bd" style="isolation:isolate"><g id="NonConiferousTree_FC-14" data-name="NonConiferousTree_FC"><g id="Deleted_Symbol_2-14" data-name="Deleted Symbol 2"><path d="M90.3,64.5a1.11,1.11,0,0,1-1.1,1.1,1.4213,1.4213,0,0,1-.6-.2c-.1.3-.4.4-.7.5a3.7463,3.7463,0,0,0,.1.8h0c0,.1,0,.1-.1.2-.1,0-.1.1-.2.1h-.2c-.1,0-.1-.1-.1-.2V66a2.092,2.092,0,0,1-.6-.4,1.1355,1.1355,0,0,1-.8.3,1.11,1.11,0,0,1-1.1-1.1,1.05,1.05,0,0,1,.5-.9v-.3a.9738.9738,0,0,1,.8-1v-.1a1.0324,1.0324,0,0,1,1.1-1.1,1.0879,1.0879,0,0,1,1.1.9h.1a1.11,1.11,0,0,1,1.1,1.1v.2A.876.876,0,0,1,90.3,64.5Zm-.4,0a.8579.8579,0,0,0-.6-.7h-.1v-.2c0-.1.1-.2.1-.3a.6835.6835,0,0,0-.7-.7h-.2l-.2.1h-.1v-.4a.7.7,0,1,0-1.4,0v.2h0v.3h-.3a.6611.6611,0,0,0-.6.7.3674.3674,0,0,0,.1.3h0l.1.1V64h-.2a.67.67,0,0,0-.4.7.6835.6835,0,0,0,.7.7.5483.5483,0,0,0,.6-.4.31.31,0,0,1,.1-.2v0l.1.2h0a.7385.7385,0,0,0,.6.5.752.752,0,0,0,.7-.5h0l.1-.2v-.1l.1.1.2.2a.7638.7638,0,0,0,.5.2A.7133.7133,0,0,0,89.9,64.5Z" fill="#a9cda6"/></g></g></g><g id="coniferoustree_bd-13" data-name="coniferoustree_bd" style="isolation:isolate"><g id="ConiferousTree_FC-13" data-name="ConiferousTree_FC"><g id="Deleted_Symbol-13" data-name="Deleted Symbol"><path d="M80.8,65c-.8-.1-1.6-1.5-1.6-1.5l.1,2.1c-.1.3-.6.1-.6.1v-2A3.0819,3.0819,0,0,1,77.2,65c-.3,0-.1-.2-.1-.2,1.4-1.4,1.5-1.9,1.5-1.9a4.8858,4.8858,0,0,0,.1-1.6c-.7,1-1.2,1.1-1.2,1.1h-.2c-.1-.1.1-.3.1-.3a1.7556,1.7556,0,0,1,.5-.4h0a2.722,2.722,0,0,0,.8-1.2l.2-1s0-.1.1,0l.1,1A8.2294,8.2294,0,0,0,80.2,62c.1.1,0,.1,0,.1-.5-.1-1.1-.9-1.1-.9l.1,1.6a5.8543,5.8543,0,0,0,1.5,1.6C81.1,64.8,80.8,65,80.8,65Zm-3.2-2.8Zm.2-.2c-.1.1-.1.1-.2.1C77.7,62.1,77.7,62.1,77.8,62Zm.1-.1-.1.1Zm.1-.1-.1.1Zm0,0Zm.1-.1Z" fill="#a9cda6"/></g></g></g><g id="coniferoustree_bd-14" data-name="coniferoustree_bd" style="isolation:isolate"><g id="ConiferousTree_FC-14" data-name="ConiferousTree_FC"><g id="Deleted_Symbol-14" data-name="Deleted Symbol"><path d="M58.9,91.4c-.8-.1-1.6-1.5-1.6-1.5l.1,2.1c-.1.3-.6.1-.6.1v-2a3.0819,3.0819,0,0,1-1.5,1.3c-.3,0-.1-.2-.1-.2,1.4-1.4,1.5-1.9,1.5-1.9a4.8858,4.8858,0,0,0,.1-1.6c-.7,1-1.2,1.1-1.2,1.1h-.2c-.1-.1.1-.3.1-.3a1.7556,1.7556,0,0,1,.5-.4h0a2.722,2.722,0,0,0,.8-1.2l.2-1s0-.1.1,0l.1,1a8.2294,8.2294,0,0,0,1.1,1.5c.1.1,0,.1,0,.1-.5-.1-1.1-.9-1.1-.9l.1,1.6a5.8543,5.8543,0,0,0,1.5,1.6C59.3,91.2,58.9,91.4,58.9,91.4Zm-3.2-2.8Zm.2-.1c-.1.1-.1.1-.2.1C55.8,88.6,55.8,88.5,55.9,88.5Zm.1-.2-.1.1A.0979.0979,0,0,0,56,88.3Zm.1,0-.1.1Zm0,0Zm.2-.2c-.1,0-.1.1,0,0C56.2,88.2,56.2,88.1,56.3,88.1Z" fill="#a9cda6"/></g></g></g><g id="nonconiferoustree_bd-15" data-name="nonconiferoustree_bd" style="isolation:isolate"><g id="NonConiferousTree_FC-15" data-name="NonConiferousTree_FC"><g id="Deleted_Symbol_2-15" data-name="Deleted Symbol 2"><path d="M65,85.1a1.11,1.11,0,0,1-1.1,1.1,1.4213,1.4213,0,0,1-.6-.2c-.1.3-.4.4-.7.5a3.7463,3.7463,0,0,0,.1.8h0c0,.1,0,.1-.1.2-.1,0-.1.1-.2.1h-.2c-.1,0-.1-.1-.1-.2v-.8a2.092,2.092,0,0,1-.6-.4,1.1355,1.1355,0,0,1-.8.3,1.11,1.11,0,0,1-1.1-1.1,1.05,1.05,0,0,1,.5-.9v-.3a.9738.9738,0,0,1,.8-1v-.1A1.0324,1.0324,0,0,1,62,82a1.0879,1.0879,0,0,1,1.1.9h.1A1.11,1.11,0,0,1,64.3,84v.2A.8079.8079,0,0,1,65,85.1Zm-.4,0a.8579.8579,0,0,0-.6-.7h-.1v-.2c0-.1.1-.2.1-.3a.6835.6835,0,0,0-.7-.7h-.2l-.2.1h-.1v-.4a.7.7,0,1,0-1.4,0v.2h0v.3h-.3a.6611.6611,0,0,0-.6.7.3674.3674,0,0,0,.1.3h0l.1.1v.1h-.2a.67.67,0,0,0-.4.7.6835.6835,0,0,0,.7.7.5483.5483,0,0,0,.6-.4.31.31,0,0,1,.1-.2v0l.1.2h0a.7385.7385,0,0,0,.6.5.752.752,0,0,0,.7-.5h0l.1-.2v-.1l.1.1.2.2a.7638.7638,0,0,0,.5.2A.7133.7133,0,0,0,64.6,85.1Z" fill="#a9cda6"/></g></g></g><g id="coniferoustree_bd-15" data-name="coniferoustree_bd" style="isolation:isolate"><g id="ConiferousTree_FC-15" data-name="ConiferousTree_FC"><g id="Deleted_Symbol-15" data-name="Deleted Symbol"><path d="M55.5,85.6c-.8-.1-1.6-1.5-1.6-1.5l.1,2.1c-.1.3-.6.1-.6.1v-2a3.0819,3.0819,0,0,1-1.5,1.3c-.3,0-.1-.2-.1-.2,1.4-1.4,1.5-1.9,1.5-1.9a4.8858,4.8858,0,0,0,.1-1.6c-.7,1-1.2,1.1-1.2,1.1H52c-.1-.1.1-.3.1-.3a1.7556,1.7556,0,0,1,.5-.4h0a2.722,2.722,0,0,0,.8-1.2l.2-1s0-.1.1,0l.1,1a8.2294,8.2294,0,0,0,1.1,1.5c.1.1,0,.1,0,.1-.5-.1-1.1-.9-1.1-.9l.1,1.6A5.8543,5.8543,0,0,0,55.4,85C55.9,85.4,55.5,85.6,55.5,85.6Zm-3.2-2.9Zm.2-.1c-.1.1-.1.1-.2.1C52.4,82.7,52.4,82.6,52.5,82.6Zm.1-.1-.1.1A.0979.0979,0,0,1,52.6,82.5Zm.1-.1-.1.1A.0979.0979,0,0,1,52.7,82.4Zm0,0Zm.1-.2Z" fill="#a9cda6"/></g></g></g><g id="coniferoustree_bd-16" data-name="coniferoustree_bd" style="isolation:isolate"><g id="ConiferousTree_FC-16" data-name="ConiferousTree_FC"><g id="Deleted_Symbol-16" data-name="Deleted Symbol"><path d="M12.8,94.2c-.8-.1-1.6-1.5-1.6-1.5l.1,2.1c-.1.3-.6.1-.6.1v-2a3.0819,3.0819,0,0,1-1.5,1.3c-.3,0-.1-.2-.1-.2,1.4-1.4,1.5-1.9,1.5-1.9a4.8858,4.8858,0,0,0,.1-1.6c-.7,1-1.2,1.1-1.2,1.1H9.3c-.1-.1.1-.3.1-.3a1.7556,1.7556,0,0,1,.5-.4h0a2.722,2.722,0,0,0,.8-1.2l.2-1s0-.1.1,0l.1,1a8.2294,8.2294,0,0,0,1.1,1.5c.1.1,0,.1,0,.1-.5-.1-1.1-.9-1.1-.9l.1,1.6a5.8543,5.8543,0,0,0,1.5,1.6C13.1,94,12.8,94.2,12.8,94.2ZM9.6,91.4Zm.2-.2c-.1.1-.1.1-.2.1C9.7,91.3,9.7,91.3,9.8,91.2Zm.1-.1-.1.1A.0979.0979,0,0,1,9.9,91.1ZM10,91l-.1.1Zm0,0Zm.1-.1Z" fill="#a9cda6"/></g></g></g><g id="nonconiferoustree_bd-16" data-name="nonconiferoustree_bd" style="isolation:isolate"><g id="NonConiferousTree_FC-16" data-name="NonConiferousTree_FC"><g id="Deleted_Symbol_2-16" data-name="Deleted Symbol 2"><path d="M18.9,87.8a1.11,1.11,0,0,1-1.1,1.1,1.4213,1.4213,0,0,1-.6-.2c-.1.3-.4.4-.7.5a3.7463,3.7463,0,0,0,.1.8h0c0,.1-.1.1-.1.2-.1,0-.1.1-.2.1h-.2c-.1,0-.1-.1-.1-.2v-.8a2.092,2.092,0,0,1-.6-.4,1.1355,1.1355,0,0,1-.8.3,1.11,1.11,0,0,1-1.1-1.1,1.05,1.05,0,0,1,.5-.9v-.3a.9738.9738,0,0,1,.8-1v-.1a1.0324,1.0324,0,0,1,1.1-1.1,1.0879,1.0879,0,0,1,1.1.9h.1a1.11,1.11,0,0,1,1.1,1.1v.2A.9605.9605,0,0,1,18.9,87.8Zm-.4,0a.8579.8579,0,0,0-.6-.7h-.2v-.2c0-.1.1-.2.1-.3a.6835.6835,0,0,0-.7-.7h-.2l-.2.1h-.1v-.4a.7.7,0,0,0-1.4,0v.2h0v.3h-.3a.6611.6611,0,0,0-.6.7.3674.3674,0,0,0,.1.3h0l.1.1v.1h-.2a.67.67,0,0,0-.4.7.6835.6835,0,0,0,.7.7.5483.5483,0,0,0,.6-.4.31.31,0,0,1,.1-.2v0l.1.2h0a.7385.7385,0,0,0,.6.5.752.752,0,0,0,.7-.5h0l.1-.2V88l.1.1.2.2a.7638.7638,0,0,0,.5.2A.7069.7069,0,0,0,18.5,87.8Z" fill="#a9cda6"/></g></g></g><g id="coniferoustree_bd-17" data-name="coniferoustree_bd" style="isolation:isolate"><g id="ConiferousTree_FC-17" data-name="ConiferousTree_FC"><g id="Deleted_Symbol-17" data-name="Deleted Symbol"><path d="M9.4,88.3c-.8-.1-1.6-1.5-1.6-1.5l.1,2.1c-.1.4-.6.1-.6.1V87a3.0819,3.0819,0,0,1-1.5,1.3c-.3,0-.1-.2-.1-.2,1.4-1.4,1.5-1.9,1.5-1.9a4.8858,4.8858,0,0,0,.1-1.6c-.7,1-1.2,1.1-1.2,1.1H5.9c-.1-.1.1-.3.1-.3a1.7556,1.7556,0,0,1,.5-.4h0a2.722,2.722,0,0,0,.8-1.2l.2-1s0-.1.1,0l.1,1a8.2294,8.2294,0,0,0,1.1,1.5c.1.1,0,.1,0,.1-.5-.1-1.1-.9-1.1-.9l.1,1.6a5.8543,5.8543,0,0,0,1.5,1.6C9.7,88.1,9.4,88.3,9.4,88.3ZM6.2,85.5Zm.1-.2c-.1.1-.1.1-.2.1C6.3,85.4,6.3,85.4,6.3,85.3Zm.2-.1-.1.1A.0979.0979,0,0,1,6.5,85.2Zm.1-.1-.1.1Zm0,0Zm.1-.1Z" fill="#a9cda6"/></g></g></g></svg>