<svg id="Layer_1" data-name="Layer 1" xmlns="http://www.w3.org/2000/svg" width="33.8667mm" height="33.8667mm" viewBox="0 0 96 96"><g id="scrub_bd"><g id="Scrub_FC"><g id="Deleted_Symbol_1" data-name="Deleted Symbol 1"><path d="M12.6,79.7c-.1,0-.1,0-.1-.1l-.3-1c0-.1,0-.1.1-.2l.2-.1h.1a.0979.0979,0,0,1,.1.1l.3,1c0,.1,0,.1-.1.2-.2.1-.2.1-.3.1Z" fill="#a9cda6"/><path d="M14.4,79.5a.0979.0979,0,0,1-.1-.1V78.3h-.1a.31.31,0,0,0-.2.1h-.1c-.1,0-.1,0-.1-.1l-.1-.1V78c.2-.1.3-.2.5-.2a.52.52,0,0,1,.4.2.6012.6012,0,0,1,.1.4v1a.0979.0979,0,0,1-.1.1Z" fill="#a9cda6"/><path d="M18.7,79.6h-.2c-.1,0-.1-.1-.1-.2l.3-1a.0979.0979,0,0,1,.1-.1h.3c.1,0,.1.1.1.2l-.3,1c-.1.1-.1.1-.2.1Z" fill="#a9cda6"/><path d="M16.5,79.4a.3674.3674,0,0,1-.3-.1,9.2783,9.2783,0,0,0-.7-2.4.3491.3491,0,0,0-.1-.2c.1,0,.2.1.3.1,0,0,.4.2.6,1.2l.1.2c0-.1.1-2.1.8-2.4a.3491.3491,0,0,0,.2-.1.31.31,0,0,1-.1.2,3.5548,3.5548,0,0,0-.4,1.6v.2a1.3807,1.3807,0,0,1,.9-.7h.1s0,.1-.2.2a6.69,6.69,0,0,0-.9,1.5v.5C16.7,79.3,16.6,79.4,16.5,79.4Z" fill="#a9cda6"/></g></g></g><g id="nonconiferoustree_bd"><g id="NonConiferousTree_FC"><g id="Deleted_Symbol_2" data-name="Deleted Symbol 2"><path d="M23.7,73.6a1.11,1.11,0,0,1-1.1,1.1,1.4213,1.4213,0,0,1-.6-.2.752.752,0,0,1-.7.5,3.7463,3.7463,0,0,0,.1.8h0c0,.1-.1.1-.1.2-.1,0-.1.1-.2.1h-.2c-.1,0-.1-.1-.1-.2V75a2.092,2.092,0,0,1-.6-.4,1.1355,1.1355,0,0,1-.8.3,1.11,1.11,0,0,1-1.1-1.1.9374.9374,0,0,1,.5-.9v-.3a1.17,1.17,0,0,1,.8-1.1v-.1a1.0324,1.0324,0,0,1,1.1-1.1,1.09,1.09,0,0,1,1.1,1h.1a1.2007,1.2007,0,0,1,1.2,1.1v.2A1.3261,1.3261,0,0,1,23.7,73.6Zm-.4,0c0-.3-.3-.7-.6-.7h-.2v-.2c0-.1.1-.2.1-.3a.7133.7133,0,0,0-.8-.7h-.2l-.2.1h-.1v-.4a.7133.7133,0,0,0-.8-.7.6835.6835,0,0,0-.7.7v.2h0v.3h-.3a.6611.6611,0,0,0-.6.7.3674.3674,0,0,0,.1.3h0l.1.1v.1h-.2a.752.752,0,0,0-.5.7.7728.7728,0,0,0,.7.8.7549.7549,0,0,0,.7-.4.31.31,0,0,1,.1-.2v0l.1.2h0a.74.74,0,0,0,1.4,0h0l.1-.2v-.1l.1.1.2.2a.7638.7638,0,0,0,.5.2C23,74.4,23.3,74.1,23.3,73.6Z" fill="#a9cda6"/></g></g></g><g id="nonconiferoustree_bd-2" data-name="nonconiferoustree_bd" style="isolation:isolate"><g id="NonConiferousTree_FC-2" data-name="NonConiferousTree_FC"><g id="Deleted_Symbol_2-2" data-name="Deleted Symbol 2"><path d="M14.9,72.1a1.11,1.11,0,0,1-1.1,1.1,1.4213,1.4213,0,0,1-.6-.2.752.752,0,0,1-.7.5,3.7463,3.7463,0,0,0,.1.8h0c0,.1-.1.1-.1.2-.1,0-.1.1-.2.1h-.2c-.1,0-.1-.1-.1-.2v-.9a2.092,2.092,0,0,1-.6-.4,1.1355,1.1355,0,0,1-.8.3,1.11,1.11,0,0,1-1.1-1.1.9374.9374,0,0,1,.5-.9v-.3a1.17,1.17,0,0,1,.8-1.1v-.1a1.0324,1.0324,0,0,1,1.1-1.1,1.09,1.09,0,0,1,1.1,1h.1a1.2007,1.2007,0,0,1,1.2,1.1v.2A1.3261,1.3261,0,0,1,14.9,72.1Zm-.4,0c0-.3-.3-.7-.6-.7h-.2v-.2c0-.1.1-.2.1-.3a.7133.7133,0,0,0-.8-.7h-.2l-.2.1h-.1v-.4a.7133.7133,0,0,0-.8-.7.6835.6835,0,0,0-.7.7v.2h0v.3h-.3a.6611.6611,0,0,0-.6.7.3674.3674,0,0,0,.1.3h0l.1.1v.1h-.2a.752.752,0,0,0-.5.7.7728.7728,0,0,0,.7.8.7549.7549,0,0,0,.7-.4.31.31,0,0,1,.1-.2v0l.1.2h0a.74.74,0,0,0,1.4,0h0l.1-.2v-.1l.1.1.2.2a.7638.7638,0,0,0,.5.2C14.2,72.9,14.5,72.6,14.5,72.1Z" fill="#a9cda6"/></g></g></g><g id="scrub_bd-2" data-name="scrub_bd" style="isolation:isolate"><g id="Scrub_FC-2" data-name="Scrub_FC"><g id="Deleted_Symbol_1-2" data-name="Deleted Symbol 1"><path d="M48.7,69.2c-.1,0-.1,0-.1-.1l-.3-1c0-.1,0-.1.1-.2l.2-.1h.1a.0979.0979,0,0,1,.1.1l.3,1c0,.1,0,.1-.1.2-.2.1-.2.1-.3.1Z" fill="#a9cda6"/><path d="M50.5,69a.0979.0979,0,0,1-.1-.1V67.8h-.1a.31.31,0,0,0-.2.1H50c-.1,0-.1,0-.1-.1l-.1-.1v-.2c.2-.1.3-.2.5-.2a.52.52,0,0,1,.4.2.6012.6012,0,0,1,.1.4v1a.0979.0979,0,0,1-.1.1Z" fill="#a9cda6"/><path d="M54.8,69.1h-.2c-.1,0-.1-.1-.1-.2l.3-1a.0979.0979,0,0,1,.1-.1h.3c.1,0,.1.1.1.2L55,69c-.1.1-.1.1-.2.1Z" fill="#a9cda6"/><path d="M52.6,68.9a.3674.3674,0,0,1-.3-.1,9.2783,9.2783,0,0,0-.7-2.4.3491.3491,0,0,0-.1-.2c.1,0,.2.1.3.1,0,0,.4.2.6,1.2l.1.2c0-.1.1-2.1.8-2.4a.3491.3491,0,0,0,.2-.1.31.31,0,0,1-.1.2A3.5548,3.5548,0,0,0,53,67v.2a1.3807,1.3807,0,0,1,.9-.7H54s0,.1-.2.2a6.69,6.69,0,0,0-.9,1.5v.5C52.8,68.9,52.7,68.9,52.6,68.9Z" fill="#a9cda6"/></g></g></g><g id="nonconiferoustree_bd-3" data-name="nonconiferoustree_bd" style="isolation:isolate"><g id="NonConiferousTree_FC-3" data-name="NonConiferousTree_FC"><g id="Deleted_Symbol_2-3" data-name="Deleted Symbol 2"><path d="M59.8,63.2a1.11,1.11,0,0,1-1.1,1.1,1.4213,1.4213,0,0,1-.6-.2.752.752,0,0,1-.7.5,3.7463,3.7463,0,0,0,.1.8h0c0,.1-.1.1-.1.2-.1,0-.1.1-.2.1H57c-.1,0-.1-.1-.1-.2v-.9a2.092,2.092,0,0,1-.6-.4,1.1355,1.1355,0,0,1-.8.3,1.11,1.11,0,0,1-1.1-1.1.9374.9374,0,0,1,.5-.9v-.3a1.17,1.17,0,0,1,.8-1.1V61a1.0324,1.0324,0,0,1,1.1-1.1,1.09,1.09,0,0,1,1.1,1H58A1.2007,1.2007,0,0,1,59.2,62v.2A1.0538,1.0538,0,0,1,59.8,63.2Zm-.4,0c0-.3-.3-.7-.6-.7h-.2v-.2c0-.1.1-.2.1-.3a.7133.7133,0,0,0-.8-.7h-.2l-.2.1h-.1V61a.7133.7133,0,0,0-.8-.7.6835.6835,0,0,0-.7.7v.2h0v.3h-.1a.6611.6611,0,0,0-.6.7.3674.3674,0,0,0,.1.3h0l.1.1v.1h-.2a.752.752,0,0,0-.5.7.7728.7728,0,0,0,.7.8.7549.7549,0,0,0,.7-.4.31.31,0,0,1,.1-.2v0l.1.2h0a.74.74,0,0,0,1.4,0h0l.1-.2v-.1l.1.1.2.2a.7638.7638,0,0,0,.5.2C59.1,63.9,59.4,63.6,59.4,63.2Z" fill="#a9cda6"/></g></g></g><g id="nonconiferoustree_bd-4" data-name="nonconiferoustree_bd" style="isolation:isolate"><g id="NonConiferousTree_FC-4" data-name="NonConiferousTree_FC"><g id="Deleted_Symbol_2-4" data-name="Deleted Symbol 2"><path d="M51,61.7a1.11,1.11,0,0,1-1.1,1.1,1.4213,1.4213,0,0,1-.6-.2.752.752,0,0,1-.7.5,3.7463,3.7463,0,0,0,.1.8h0c0,.1-.1.1-.1.2-.1,0-.1.1-.2.1h-.2c-.1,0-.1-.1-.1-.2v-.9a2.092,2.092,0,0,1-.6-.4,1.1355,1.1355,0,0,1-.8.3,1.11,1.11,0,0,1-1.1-1.1.9374.9374,0,0,1,.5-.9v-.3a1.17,1.17,0,0,1,.8-1.1v-.1A1.0324,1.0324,0,0,1,48,58.4a1.09,1.09,0,0,1,1.1,1h.1a1.2007,1.2007,0,0,1,1.2,1.1v.2A1.0538,1.0538,0,0,1,51,61.7Zm-.4,0c0-.3-.3-.7-.6-.7h-.2v-.2c0-.1.1-.2.1-.3a.7133.7133,0,0,0-.8-.7h-.2l-.2.1h-.1v-.4a.7133.7133,0,0,0-.8-.7.6835.6835,0,0,0-.7.7v.2h0V60h-.3a.6611.6611,0,0,0-.6.7.3674.3674,0,0,0,.1.3h0l.1.1v.1h-.2a.752.752,0,0,0-.5.7.7728.7728,0,0,0,.7.8.7549.7549,0,0,0,.7-.4.31.31,0,0,1,.1-.2v0l.1.2h0a.74.74,0,0,0,1.4,0h0l.1-.2V62l.1.1.2.2a.7638.7638,0,0,0,.5.2C50.3,62.4,50.6,62.1,50.6,61.7Z" fill="#a9cda6"/></g></g></g><g id="scrub_bd-3" data-name="scrub_bd" style="isolation:isolate"><g id="Scrub_FC-3" data-name="Scrub_FC"><g id="Deleted_Symbol_1-3" data-name="Deleted Symbol 1"><path d="M8.2,52c-.1,0-.1,0-.1-.1l-.3-1c0-.1,0-.1.1-.2h.2a.0979.0979,0,0,1,.1.1l.3,1c0,.1,0,.1-.1.2Z" fill="#a9cda6"/><path d="M10,51.8a.0979.0979,0,0,1-.1-.1V50.6H9.8a.31.31,0,0,0-.2.1H9.5c-.1,0-.1,0-.1-.1l-.1-.1v-.2a.5359.5359,0,0,1,.4-.3.52.52,0,0,1,.4.2.6012.6012,0,0,1,.1.4v1a.0979.0979,0,0,1-.1.1H10Z" fill="#a9cda6"/><path d="M14.3,51.9h-.2c-.1,0-.1-.1-.1-.2l.3-1a.0979.0979,0,0,1,.1-.1h.3c.1,0,.1.1.1.2l-.3,1c-.1.1-.1.1-.2.1Z" fill="#a9cda6"/><path d="M12.1,51.7a.3674.3674,0,0,1-.3-.1,9.2783,9.2783,0,0,0-.7-2.4A.3491.3491,0,0,0,11,49c.1,0,.2.1.3.1,0,0,.4.2.6,1.2l.1.2c0-.1.1-2.1.8-2.4A.3491.3491,0,0,0,13,48a.31.31,0,0,1-.1.2,3.5548,3.5548,0,0,0-.4,1.6V50a1.3807,1.3807,0,0,1,.9-.7h.1s0,.1-.2.2a6.69,6.69,0,0,0-.9,1.5v.5C12.3,51.6,12.2,51.7,12.1,51.7Z" fill="#a9cda6"/></g></g></g><g id="nonconiferoustree_bd-5" data-name="nonconiferoustree_bd" style="isolation:isolate"><g id="NonConiferousTree_FC-5" data-name="NonConiferousTree_FC"><g id="Deleted_Symbol_2-5" data-name="Deleted Symbol 2"><path d="M19.3,45.9A1.11,1.11,0,0,1,18.2,47a1.4213,1.4213,0,0,1-.6-.2.752.752,0,0,1-.7.5,3.7463,3.7463,0,0,0,.1.8h0c0,.1-.1.1-.1.2-.1,0-.1.1-.2.1h-.2c-.1,0-.1-.1-.1-.2v-.9a2.092,2.092,0,0,1-.6-.4,1.1355,1.1355,0,0,1-.8.3,1.11,1.11,0,0,1-1.1-1.1.9374.9374,0,0,1,.5-.9v-.3a1.17,1.17,0,0,1,.8-1.1v-.1a1.0324,1.0324,0,0,1,1.1-1.1,1.09,1.09,0,0,1,1.1,1h.1a1.2007,1.2007,0,0,1,1.2,1.1v.2A1.3261,1.3261,0,0,1,19.3,45.9Zm-.4,0c0-.3-.3-.7-.6-.7h-.2V45c0-.1.1-.2.1-.3a.7133.7133,0,0,0-.8-.7h-.2l-.2.1h-.1v-.4a.7133.7133,0,0,0-.8-.7.6835.6835,0,0,0-.7.7v.2h0v.3h-.3a.6611.6611,0,0,0-.6.7.3674.3674,0,0,0,.1.3h0l.1.1v.1h-.2a.752.752,0,0,0-.5.7.7728.7728,0,0,0,.7.8.7549.7549,0,0,0,.7-.4.31.31,0,0,1,.1-.2v0l.1.2h0a.74.74,0,0,0,1.4,0h0l.1-.2v-.1l.1.1.2.2a.7638.7638,0,0,0,.5.2C18.6,46.7,18.9,46.4,18.9,45.9Z" fill="#a9cda6"/></g></g></g><g id="scrub_bd-4" data-name="scrub_bd" style="isolation:isolate"><g id="Scrub_FC-4" data-name="Scrub_FC"><g id="Deleted_Symbol_1-4" data-name="Deleted Symbol 1"><path d="M4.7,46c-.1,0-.1,0-.1-.1l-.3-1c0-.1,0-.1.1-.2l.2-.1h.1a.0979.0979,0,0,1,.1.1l.3,1c0,.1,0,.1-.1.2-.2.1-.2.1-.3.1Z" fill="#a9cda6"/><path d="M6.6,45.7a.0979.0979,0,0,1-.1-.1V44.5H6.4a.31.31,0,0,0-.2.1H6.1c-.1,0-.1,0-.1-.1l-.1-.1v-.2c0-.2.2-.2.4-.2a.52.52,0,0,1,.4.2.6012.6012,0,0,1,.1.4v1a.0979.0979,0,0,1-.1.1Z" fill="#a9cda6"/><path d="M10.8,45.9h-.2c-.1,0-.1-.1-.1-.2l.3-1a.0979.0979,0,0,1,.1-.1h.3c.1,0,.1.1.1.2l-.3,1c-.1,0-.1.1-.2.1Z" fill="#a9cda6"/><path d="M8.6,45.6a.3674.3674,0,0,1-.3-.1,7.8942,7.8942,0,0,0-.7-2.3.3491.3491,0,0,0-.1-.2c.1,0,.2.1.3.1,0,0,.4.2.6,1.2l.1.2c0-.1.1-2.1.8-2.4a.3491.3491,0,0,0,.2-.1.31.31,0,0,1-.1.2A3.5548,3.5548,0,0,0,9,43.8V44a1.3807,1.3807,0,0,1,.9-.7H10s0,.1-.2.2A6.69,6.69,0,0,0,8.9,45v.5C8.8,45.6,8.8,45.6,8.6,45.6Z" fill="#a9cda6"/></g></g></g><g id="scrub_bd-5" data-name="scrub_bd" style="isolation:isolate"><g id="Scrub_FC-5" data-name="Scrub_FC"><g id="Deleted_Symbol_1-5" data-name="Deleted Symbol 1"><path d="M16.9,31.3c-.1,0-.1,0-.1-.1l-.3-1c0-.1,0-.1.1-.2l.2-.1h.1a.0979.0979,0,0,1,.1.1l.3,1c0,.1,0,.1-.1.2a.3674.3674,0,0,1-.3.1Z" fill="#a9cda6"/><path d="M18.8,31.1a.0979.0979,0,0,1-.1-.1V29.9h-.1a.31.31,0,0,0-.2.1h-.1c-.1,0-.1,0-.1-.1l-.1-.1v-.2c.2-.1.3-.2.5-.2a.52.52,0,0,1,.4.2V31a.0979.0979,0,0,1-.1.1Z" fill="#a9cda6"/><path d="M23,31.2h-.2c-.1,0-.1-.1-.1-.2l.3-1a.0979.0979,0,0,1,.1-.1h.3c.1,0,.1.1.1.2l-.3,1c0,.1-.1.1-.2.1Z" fill="#a9cda6"/><path d="M20.8,31a.3674.3674,0,0,1-.3-.1,7.8942,7.8942,0,0,0-.7-2.3.3491.3491,0,0,0-.1-.2c.1,0,.2.1.3.1,0,0,.4.2.6,1.2l.1.2c0-.1.1-2.1.8-2.4a.3491.3491,0,0,0,.2-.1.31.31,0,0,1-.1.2,3.5548,3.5548,0,0,0-.4,1.6v.2a1.3807,1.3807,0,0,1,.9-.7h.1s0,.1-.2.2a6.69,6.69,0,0,0-.9,1.5v.5C21,31,21,31,20.8,31Z" fill="#a9cda6"/></g></g></g><g id="nonconiferoustree_bd-6" data-name="nonconiferoustree_bd" style="isolation:isolate"><g id="NonConiferousTree_FC-6" data-name="NonConiferousTree_FC"><g id="Deleted_Symbol_2-6" data-name="Deleted Symbol 2"><path d="M28,25.3a1.11,1.11,0,0,1-1.1,1.1,1.4213,1.4213,0,0,1-.6-.2.752.752,0,0,1-.7.5,3.7463,3.7463,0,0,0,.1.8h0c0,.1-.1.1-.1.2-.1,0-.1.1-.2.1h-.2c-.1,0-.1-.1-.1-.2v-.9a2.092,2.092,0,0,1-.6-.4,1.1355,1.1355,0,0,1-.8.3,1.11,1.11,0,0,1-1.1-1.1.9374.9374,0,0,1,.5-.9v-.3a1.17,1.17,0,0,1,.8-1.1v-.1A1.0324,1.0324,0,0,1,25,22a1.09,1.09,0,0,1,1.1,1h.1a1.2007,1.2007,0,0,1,1.2,1.1v.2A1.0538,1.0538,0,0,1,28,25.3Zm-.3,0c0-.3-.3-.7-.6-.7h-.2v-.2c0-.1.1-.2.1-.3a.7133.7133,0,0,0-.8-.7H26l-.2.1h-.1v-.4a.7133.7133,0,0,0-.8-.7.6835.6835,0,0,0-.7.7v.2h0v.3h-.3a.6611.6611,0,0,0-.6.7.3674.3674,0,0,0,.1.3h0l.1.1v.1h-.2a.752.752,0,0,0-.5.7.7728.7728,0,0,0,.7.8.7549.7549,0,0,0,.7-.4.31.31,0,0,1,.1-.2v0l.1.2h0a.74.74,0,0,0,1.4,0h0l.1-.2v-.1l.1.1.2.2a.7638.7638,0,0,0,.5.2C27.3,26,27.7,25.7,27.7,25.3Z" fill="#a9cda6"/></g></g></g><g id="nonconiferoustree_bd-7" data-name="nonconiferoustree_bd" style="isolation:isolate"><g id="NonConiferousTree_FC-7" data-name="NonConiferousTree_FC"><g id="Deleted_Symbol_2-7" data-name="Deleted Symbol 2"><path d="M19.3,23.7a1.11,1.11,0,0,1-1.1,1.1,1.4213,1.4213,0,0,1-.6-.2.752.752,0,0,1-.7.5,3.7463,3.7463,0,0,0,.1.8h0c0,.1-.1.1-.1.2-.1,0-.1.1-.2.1h-.2c-.1,0-.1-.1-.1-.2v-.9a2.092,2.092,0,0,1-.6-.4,1.1355,1.1355,0,0,1-.8.3,1.11,1.11,0,0,1-1.1-1.1.9374.9374,0,0,1,.5-.9v-.3a1.17,1.17,0,0,1,.8-1.1v-.1a1.0324,1.0324,0,0,1,1.1-1.1,1.09,1.09,0,0,1,1.1,1h.1a1.2007,1.2007,0,0,1,1.2,1.1v.2A1.3261,1.3261,0,0,1,19.3,23.7Zm-.4,0c0-.3-.3-.7-.6-.7H18v-.2c0-.1.1-.2.1-.3a.7133.7133,0,0,0-.8-.7h-.2l-.2.1h-.1v-.4a.7133.7133,0,0,0-.8-.7.6835.6835,0,0,0-.7.7v.2h0V22H15a.6611.6611,0,0,0-.6.7.3674.3674,0,0,0,.1.3h0l.1.1v.1h-.2a.752.752,0,0,0-.5.7.7728.7728,0,0,0,.7.8.7549.7549,0,0,0,.7-.4.31.31,0,0,1,.1-.2v0l.1.2h0a.74.74,0,0,0,1.4,0h0l.1-.2V24l.1.1.2.2a.7638.7638,0,0,0,.5.2C18.5,24.5,18.9,24.2,18.9,23.7Z" fill="#a9cda6"/></g></g></g><g id="scrub_bd-6" data-name="scrub_bd" style="isolation:isolate"><g id="Scrub_FC-6" data-name="Scrub_FC"><g id="Deleted_Symbol_1-6" data-name="Deleted Symbol 1"><path d="M47.3,11.9c-.1,0-.1,0-.1-.1l-.3-1c0-.1,0-.1.1-.2l.2-.1h.1a.0979.0979,0,0,1,.1.1l.3,1c0,.1,0,.1-.1.2-.2.1-.2.1-.3.1Z" fill="#a9cda6"/><path d="M49.1,11.7a.0979.0979,0,0,1-.1-.1V10.5h-.1a.31.31,0,0,0-.2.1h-.1c-.1,0-.1,0-.1-.1l-.1-.1v-.2c.2-.1.3-.2.5-.2a.52.52,0,0,1,.4.2.6012.6012,0,0,1,.1.4v1a.0979.0979,0,0,1-.1.1Z" fill="#a9cda6"/><path d="M53.4,11.8h-.2c-.1,0-.1-.1-.1-.2l.3-1a.0979.0979,0,0,1,.1-.1h.3c.1,0,.1.1.1.2l-.3,1c-.1.1-.1.1-.2.1Z" fill="#a9cda6"/><path d="M51.2,11.6a.3674.3674,0,0,1-.3-.1,7.8942,7.8942,0,0,0-.7-2.3.3491.3491,0,0,0-.1-.2c.1,0,.2.1.3.1,0,0,.4.2.6,1.2l.1.2c0-.1.1-2.1.8-2.4a.3491.3491,0,0,0,.2-.1.31.31,0,0,1-.1.2,3.5548,3.5548,0,0,0-.4,1.6V10a1.3807,1.3807,0,0,1,.9-.7h.1s0,.1-.2.2a6.69,6.69,0,0,0-.9,1.5v.5C51.4,11.5,51.3,11.6,51.2,11.6Z" fill="#a9cda6"/></g></g></g><g id="nonconiferoustree_bd-8" data-name="nonconiferoustree_bd" style="isolation:isolate"><g id="NonConiferousTree_FC-8" data-name="NonConiferousTree_FC"><g id="Deleted_Symbol_2-8" data-name="Deleted Symbol 2"><path d="M58.4,5.8a1.11,1.11,0,0,1-1.1,1.1,1.4213,1.4213,0,0,1-.6-.2,1.3444,1.3444,0,0,1-.7.6,3.7463,3.7463,0,0,0,.1.8h0c0,.1-.1.1-.1.2-.1,0-.1.1-.2.1h-.2c-.1,0-.1-.1-.1-.2V7.3a2.092,2.092,0,0,1-.6-.4,1.1355,1.1355,0,0,1-.8.3A1.11,1.11,0,0,1,53,6.1a.9374.9374,0,0,1,.5-.9V4.9a1.17,1.17,0,0,1,.8-1.1V3.7a1.1355,1.1355,0,0,1,.3-.8,1.1355,1.1355,0,0,1,.8-.3,1.09,1.09,0,0,1,1.1,1h.1a1.2007,1.2007,0,0,1,1.2,1.1v.2A1.0128,1.0128,0,0,1,58.4,5.8Zm-.4,0c0-.3-.3-.7-.6-.7h-.2V4.9c0-.1.1-.2.1-.3a.7133.7133,0,0,0-.8-.7h-.2l-.2.1H56V3.6a.7133.7133,0,0,0-.8-.7.6835.6835,0,0,0-.7.7v.2h0v.3h-.3a.6611.6611,0,0,0-.6.7.3674.3674,0,0,0,.1.3h0l.1.1v.1h-.2a.752.752,0,0,0-.5.7.7728.7728,0,0,0,.7.8.7549.7549,0,0,0,.7-.4.31.31,0,0,1,.1-.2v0l.1.2h0c.4.4.7.6,1,.6a.752.752,0,0,0,.7-.5h0l.1-.2V6.2l.1.1.2.2a.7638.7638,0,0,0,.5.2A.876.876,0,0,0,58,5.8Z" fill="#a9cda6"/></g></g></g><g id="nonconiferoustree_bd-9" data-name="nonconiferoustree_bd" style="isolation:isolate"><g id="NonConiferousTree_FC-9" data-name="NonConiferousTree_FC"><g id="Deleted_Symbol_2-9" data-name="Deleted Symbol 2"><path d="M49.6,4.3a1.11,1.11,0,0,1-1.1,1.1,1.4213,1.4213,0,0,1-.6-.2.752.752,0,0,1-.7.5,3.7463,3.7463,0,0,0,.1.8h0c0,.1-.1.1-.1.2-.1,0-.1.1-.2.1h-.2c-.1,0-.1-.1-.1-.2V5.7a2.092,2.092,0,0,1-.6-.4,1.1355,1.1355,0,0,1-.8.3,1.11,1.11,0,0,1-1.1-1.1.9374.9374,0,0,1,.5-.9V3.3a1.17,1.17,0,0,1,.8-1.1V2.1a1.1355,1.1355,0,0,1,.3-.8.7786.7786,0,0,1,.7-.3,1.09,1.09,0,0,1,1.1,1h.1a1.2007,1.2007,0,0,1,1.2,1.1v.2A.9934.9934,0,0,1,49.6,4.3Zm-.4,0c0-.3-.3-.7-.6-.7h-.2V3.4c0-.1.1-.2.1-.3a.7133.7133,0,0,0-.8-.7h-.2l-.2.1h-.1V2.1a.7133.7133,0,0,0-.8-.7.6835.6835,0,0,0-.7.7v.2h0v.3h-.3a.9316.9316,0,0,0-.4.7.3674.3674,0,0,0,.1.3h0l.1.1v.1H45a.752.752,0,0,0-.5.7.7728.7728,0,0,0,.7.8.7549.7549,0,0,0,.7-.4.31.31,0,0,1,.1-.2v0l.1.2h0a.74.74,0,0,0,1.4,0h0l.1-.2V4.6l.1.1.2.2a.7638.7638,0,0,0,.5.2A.7887.7887,0,0,0,49.2,4.3Z" fill="#a9cda6"/></g></g></g><g id="scrub_bd-7" data-name="scrub_bd" style="isolation:isolate"><g id="Scrub_FC-7" data-name="Scrub_FC"><g id="Deleted_Symbol_1-7" data-name="Deleted Symbol 1"><path d="M69.5,27.9c-.1,0-.1,0-.1-.1l-.3-1c0-.1,0-.1.1-.2l.2-.1h.1a.0979.0979,0,0,1,.1.1l.3,1c0,.1,0,.1-.1.2-.2.1-.2.1-.3.1Z" fill="#a9cda6"/><path d="M71.3,27.6a.0979.0979,0,0,1-.1-.1V26.4h-.1a.31.31,0,0,0-.2.1h-.1c-.1,0-.1,0-.1-.1l-.1-.1v-.2c.2-.1.3-.2.5-.2a.52.52,0,0,1,.4.2.6012.6012,0,0,1,.1.4v1a.0979.0979,0,0,1-.1.1Z" fill="#a9cda6"/><path d="M75.6,27.8h-.2c-.1,0-.1-.1-.1-.2l.3-1a.0979.0979,0,0,1,.1-.1H76c.1,0,.1.1.1.2l-.3,1c-.1,0-.1.1-.2.1Z" fill="#a9cda6"/><path d="M73.4,27.6a.3674.3674,0,0,1-.3-.1,7.8942,7.8942,0,0,0-.7-2.3.3491.3491,0,0,0-.1-.2c.1,0,.2.1.3.1,0,0,.4.2.6,1.2l.1.2c0-.1.1-2.1.8-2.4a.3491.3491,0,0,0,.2-.1.31.31,0,0,1-.1.2,3.5548,3.5548,0,0,0-.4,1.6V26a1.3807,1.3807,0,0,1,.9-.7h.1s0,.1-.2.2a6.69,6.69,0,0,0-.9,1.5v.5C73.6,27.5,73.5,27.6,73.4,27.6Z" fill="#a9cda6"/></g></g></g><g id="nonconiferoustree_bd-10" data-name="nonconiferoustree_bd" style="isolation:isolate"><g id="NonConiferousTree_FC-10" data-name="NonConiferousTree_FC"><g id="Deleted_Symbol_2-10" data-name="Deleted Symbol 2"><path d="M80.6,21.8a1.11,1.11,0,0,1-1.1,1.1,1.4213,1.4213,0,0,1-.6-.2.752.752,0,0,1-.7.5,3.7463,3.7463,0,0,0,.1.8h0c0,.1-.1.1-.1.2-.1,0-.1.1-.2.1h-.2c-.1,0-.1-.1-.1-.2v-.9a2.092,2.092,0,0,1-.6-.4,1.1355,1.1355,0,0,1-.8.3A1.11,1.11,0,0,1,75.2,22a.9374.9374,0,0,1,.5-.9v-.3a1.17,1.17,0,0,1,.8-1.1v-.1a1.0324,1.0324,0,0,1,1.1-1.1,1.09,1.09,0,0,1,1.1,1h.1A1.2007,1.2007,0,0,1,80,20.6v.2A1.0538,1.0538,0,0,1,80.6,21.8Zm-.4,0c0-.3-.3-.7-.6-.7h-.2v-.2c0-.1.1-.2.1-.3a.7133.7133,0,0,0-.8-.7h-.2l-.2.1h-.1v-.4a.7133.7133,0,0,0-.8-.7.6835.6835,0,0,0-.7.7v.2h0v.3h-.3a.6611.6611,0,0,0-.6.7.3674.3674,0,0,0,.1.3h0l.1.1v.1h-.2a.752.752,0,0,0-.5.7.7728.7728,0,0,0,.7.8.7549.7549,0,0,0,.7-.4.31.31,0,0,1,.1-.2v0l.1.2h0a.74.74,0,0,0,1.4,0h0l.1-.2v-.1l.1.1.2.2a.7638.7638,0,0,0,.5.2C79.9,22.6,80.2,22.2,80.2,21.8Z" fill="#a9cda6"/></g></g></g><g id="scrub_bd-8" data-name="scrub_bd" style="isolation:isolate"><g id="Scrub_FC-8" data-name="Scrub_FC"><g id="Deleted_Symbol_1-8" data-name="Deleted Symbol 1"><path d="M66,21.9c-.1,0-.1,0-.1-.1l-.3-1c0-.1,0-.1.1-.2l.2-.1H66a.0979.0979,0,0,1,.1.1l.3,1c0,.1,0,.1-.1.2-.2,0-.2,0-.3.1Z" fill="#a9cda6"/><path d="M67.8,21.6a.0979.0979,0,0,1-.1-.1V20.4h-.1a.31.31,0,0,0-.2.1h-.1c-.1,0-.1,0-.1-.1l-.2-.2V20c.2-.1.3-.2.5-.2a.52.52,0,0,1,.4.2.6012.6012,0,0,1,.1.4v1a.0979.0979,0,0,1-.1.1C68,21.6,67.8,21.6,67.8,21.6Z" fill="#a9cda6"/><path d="M72.1,21.7h-.2c-.1,0-.1-.1-.1-.2l.3-1a.0979.0979,0,0,1,.1-.1h.3c.1,0,.1.1.1.2l-.3,1c-.1.1-.1.1-.2.1Z" fill="#a9cda6"/><path d="M69.9,21.5a.3674.3674,0,0,1-.3-.1,7.8942,7.8942,0,0,0-.7-2.3.3491.3491,0,0,0-.1-.2c.1,0,.2.1.3.1,0,0,.4.2.6,1.2l.1.2c0-.1.1-2.1.8-2.4a.3491.3491,0,0,0,.2-.1.31.31,0,0,1-.1.2,3.5548,3.5548,0,0,0-.4,1.6V20a1.3807,1.3807,0,0,1,.9-.7h.1s0,.1-.2.2a6.69,6.69,0,0,0-.9,1.5v.5Z" fill="#a9cda6"/></g></g></g><g id="scrub_bd-9" data-name="scrub_bd" style="isolation:isolate"><g id="Scrub_FC-9" data-name="Scrub_FC"><g id="Deleted_Symbol_1-9" data-name="Deleted Symbol 1"><path d="M80.5,11.2c-.1,0-.1,0-.1-.1l-.3-1c0-.1,0-.1.1-.2l.2-.1h.1a.0979.0979,0,0,1,.1.1l.3,1c0,.1,0,.1-.1.2a.774.774,0,0,1-.3.1Z" fill="#a9cda6"/><path d="M82.3,11a.0979.0979,0,0,1-.1-.1V9.8h-.1a.31.31,0,0,0-.2.1h-.1c-.1,0-.1,0-.1-.1l-.1-.1V9.5c.2-.1.3-.2.5-.2a.52.52,0,0,1,.4.2.6012.6012,0,0,1,.1.4v1a.0979.0979,0,0,1-.1.1Z" fill="#a9cda6"/><path d="M86.5,11.1h-.2c-.1,0-.1-.1-.1-.2l.3-1a.0979.0979,0,0,1,.1-.1h.3a.3674.3674,0,0,1,.1.3l-.3,1Z" fill="#a9cda6"/><path d="M84.4,10.9a.3674.3674,0,0,1-.3-.1,7.8942,7.8942,0,0,0-.7-2.3.3491.3491,0,0,0-.1-.2c.1,0,.2.1.3.1,0,0,.4.2.6,1.2l.1.2c0-.1.1-2.1.8-2.4a.3491.3491,0,0,0,.2-.1.31.31,0,0,1-.1.2,3.5548,3.5548,0,0,0-.4,1.6v.2a1.3807,1.3807,0,0,1,.9-.7h.1s0,.1-.2.2a6.69,6.69,0,0,0-.9,1.5v.5A.3674.3674,0,0,1,84.4,10.9Z" fill="#a9cda6"/></g></g></g><g id="nonconiferoustree_bd-11" data-name="nonconiferoustree_bd" style="isolation:isolate"><g id="NonConiferousTree_FC-11" data-name="NonConiferousTree_FC"><g id="Deleted_Symbol_2-11" data-name="Deleted Symbol 2"><path d="M91.6,5.2a1.11,1.11,0,0,1-1.1,1.1,1.4213,1.4213,0,0,1-.6-.2.752.752,0,0,1-.7.5,3.7463,3.7463,0,0,0,.1.8h0c0,.1-.1.1-.1.2-.1,0-.1.1-.2.1h-.2c-.1,0-.1-.1-.1-.2V6.6a2.092,2.092,0,0,1-.6-.4,1.1355,1.1355,0,0,1-.8.3,1.11,1.11,0,0,1-1.1-1.1.9374.9374,0,0,1,.5-.9V4.2a1.17,1.17,0,0,1,.8-1.1V3a1.1355,1.1355,0,0,1,.3-.8,1.1355,1.1355,0,0,1,.8-.3,1.09,1.09,0,0,1,1.1,1h.1A1.2007,1.2007,0,0,1,91,4v.2A1.2469,1.2469,0,0,1,91.6,5.2Zm-.4,0c0-.3-.3-.7-.6-.7h-.2V4.3c0-.1.1-.2.1-.3a.7133.7133,0,0,0-.8-.7h-.2l-.2.1h-.1V3a.7133.7133,0,0,0-.8-.7.6835.6835,0,0,0-.7.7v.2h0v.3h-.3a.6611.6611,0,0,0-.6.7.3674.3674,0,0,0,.1.3h0l.1.1v.1h-.2a.752.752,0,0,0-.5.7.7728.7728,0,0,0,.7.8.7549.7549,0,0,0,.7-.4.31.31,0,0,1,.1-.2v0l.1.2h0a.74.74,0,0,0,1.4,0h0l.1-.2V5.5l.1.1.2.2a.7638.7638,0,0,0,.5.2C90.8,5.9,91.2,5.6,91.2,5.2Z" fill="#a9cda6"/></g></g></g><g id="scrub_bd-10" data-name="scrub_bd" style="isolation:isolate"><g id="Scrub_FC-10" data-name="Scrub_FC"><g id="Deleted_Symbol_1-10" data-name="Deleted Symbol 1"><path d="M77,5.2c-.1,0-.1,0-.1-.1l-.3-1c0-.1,0-.1.1-.2l.2-.1H77c-.1.1-.1.2,0,.2l.3,1c0,.1,0,.1-.1.2Z" fill="#a9cda6"/><path d="M78.8,5a.0979.0979,0,0,1-.1-.1V3.8h-.1a.31.31,0,0,0-.2.1h-.1c-.1,0-.1,0-.1-.1l-.1-.1V3.5c.2-.1.3-.2.5-.2a.52.52,0,0,1,.4.2.6012.6012,0,0,1,.1.4v1L79,5Z" fill="#a9cda6"/><path d="M83,5.1h-.2c-.1,0-.1-.1-.1-.2l.3-1a.0979.0979,0,0,1,.1-.1h.3c.1,0,.1.1.1.2l-.3,1c0,.1-.1.1-.2.1Z" fill="#a9cda6"/><path d="M80.9,4.9a.3674.3674,0,0,1-.3-.1,7.8942,7.8942,0,0,0-.7-2.3.3491.3491,0,0,0-.1-.2c.1,0,.2.1.3.1,0,0,.4.2.6,1.2l.1.2c0-.1.1-2.1.8-2.4a.3491.3491,0,0,0,.2-.1.31.31,0,0,1-.1.2,3.5548,3.5548,0,0,0-.4,1.6v.2a1.3807,1.3807,0,0,1,.9-.7h.1s0,.1-.2.2a6.69,6.69,0,0,0-.9,1.5v.5C81.1,4.8,81,4.9,80.9,4.9Z" fill="#a9cda6"/></g></g></g><g id="scrub_bd-11" data-name="scrub_bd" style="isolation:isolate"><g id="Scrub_FC-11" data-name="Scrub_FC"><g id="Deleted_Symbol_1-11" data-name="Deleted Symbol 1"><path d="M70.5,47.5c-.1,0-.1,0-.1-.1l-.3-1c0-.1,0-.1.1-.2l.2-.1h.1a.0979.0979,0,0,1,.1.1l.3,1c0,.1,0,.1-.1.2a.774.774,0,0,1-.3.1Z" fill="#a9cda6"/><path d="M72.3,47.3a.0979.0979,0,0,1-.1-.1V46.1h-.1a.31.31,0,0,0-.2.1h-.1c-.1,0-.1,0-.1-.1l-.1-.1v-.2c.2-.1.3-.2.5-.2a.52.52,0,0,1,.4.2.6012.6012,0,0,1,.1.4v1a.0979.0979,0,0,1-.1.1Z" fill="#a9cda6"/><path d="M76.6,47.4h-.2c-.1,0-.1-.1-.1-.2l.3-1a.0979.0979,0,0,1,.1-.1H77c.1,0,.1.1.1.2l-.3,1c-.1.1-.1.1-.2.1Z" fill="#a9cda6"/><path d="M74.4,47.2a.3674.3674,0,0,1-.3-.1,7.8942,7.8942,0,0,0-.7-2.3.3491.3491,0,0,0-.1-.2c.1,0,.2.1.3.1,0,0,.4.2.6,1.2l.1.2c0-.1.1-2.1.8-2.4a.3491.3491,0,0,0,.2-.1.31.31,0,0,1-.1.2,3.5548,3.5548,0,0,0-.4,1.6v.2a1.3807,1.3807,0,0,1,.9-.7h.1s0,.1-.2.2a6.69,6.69,0,0,0-.9,1.5v.5C74.6,47.1,74.5,47.2,74.4,47.2Z" fill="#a9cda6"/></g></g></g><g id="nonconiferoustree_bd-12" data-name="nonconiferoustree_bd" style="isolation:isolate"><g id="NonConiferousTree_FC-12" data-name="NonConiferousTree_FC"><g id="Deleted_Symbol_2-12" data-name="Deleted Symbol 2"><path d="M81.6,41.4a1.11,1.11,0,0,1-1.1,1.1,1.4213,1.4213,0,0,1-.6-.2.752.752,0,0,1-.7.5,3.7463,3.7463,0,0,0,.1.8h0c0,.1-.1.1-.1.2-.2.2-.2.2-.3.2h-.2c-.1,0-.1-.1-.1-.2v-.9a2.092,2.092,0,0,1-.6-.4,1.1355,1.1355,0,0,1-.8.3,1.11,1.11,0,0,1-1.1-1.1.9374.9374,0,0,1,.5-.9v-.3a1.17,1.17,0,0,1,.8-1.1v-.1a1.0324,1.0324,0,0,1,1.1-1.1,1.09,1.09,0,0,1,1.1,1h.1a1.2007,1.2007,0,0,1,1.2,1.1v.2A.876.876,0,0,1,81.6,41.4Zm-.4,0c0-.3-.3-.7-.6-.7h-.2v-.2c0-.1.1-.2.1-.3a.7133.7133,0,0,0-.8-.7h-.2l-.2.1h-.1v-.4a.7133.7133,0,0,0-.8-.7.6835.6835,0,0,0-.7.7v.2h0v.3h-.3a.6611.6611,0,0,0-.6.7.3674.3674,0,0,0,.1.3h0l.1.1v.1h-.2a.752.752,0,0,0-.5.7.7728.7728,0,0,0,.7.8.7549.7549,0,0,0,.7-.4.31.31,0,0,1,.1-.2v0l.1.2h0a.74.74,0,0,0,1.4,0h0l.1-.2v-.1l.1.1.2.2a.7638.7638,0,0,0,.5.2C80.9,42.2,81.2,41.9,81.2,41.4Z" fill="#a9cda6"/></g></g></g><g id="nonconiferoustree_bd-13" data-name="nonconiferoustree_bd" style="isolation:isolate"><g id="NonConiferousTree_FC-13" data-name="NonConiferousTree_FC"><g id="Deleted_Symbol_2-13" data-name="Deleted Symbol 2"><path d="M72.8,39.9A1.11,1.11,0,0,1,71.7,41a1.4213,1.4213,0,0,1-.6-.2.752.752,0,0,1-.7.5,3.7463,3.7463,0,0,0,.1.8h0c0,.1-.1.1-.1.2-.1,0-.1.1-.2.1H70c-.1,0-.1-.1-.1-.2v-.9a2.092,2.092,0,0,1-.6-.4,1.1355,1.1355,0,0,1-.8.3,1.11,1.11,0,0,1-1.1-1.1.9374.9374,0,0,1,.5-.9v-.3a1.17,1.17,0,0,1,.8-1.1v-.1a1.0324,1.0324,0,0,1,1.1-1.1,1.09,1.09,0,0,1,1.1,1H71a1.2007,1.2007,0,0,1,1.2,1.1v.2A1.0538,1.0538,0,0,1,72.8,39.9Zm-.4,0c0-.3-.3-.7-.6-.7h-.2V39c0-.1.1-.2.1-.3a.7133.7133,0,0,0-.8-.7h-.2l-.2.1h-.1v-.4a.7133.7133,0,0,0-.8-.7.6835.6835,0,0,0-.7.7v.2h0v.3h-.1a.6611.6611,0,0,0-.6.7.3674.3674,0,0,0,.1.3h0l.1.1v.1h-.2a.752.752,0,0,0-.5.7.7728.7728,0,0,0,.7.8.7549.7549,0,0,0,.7-.4.31.31,0,0,1,.1-.2v0l.1.2h0a.74.74,0,0,0,1.4,0h0l.1-.2v-.1l.1.1.2.2a.7638.7638,0,0,0,.5.2A.7887.7887,0,0,0,72.4,39.9Z" fill="#a9cda6"/></g></g></g><g id="scrub_bd-12" data-name="scrub_bd" style="isolation:isolate"><g id="Scrub_FC-12" data-name="Scrub_FC"><g id="Deleted_Symbol_1-12" data-name="Deleted Symbol 1"><path d="M81,71.1c-.1,0-.1,0-.1-.1l-.3-1c0-.1,0-.1.1-.2l.2-.1H81a.0979.0979,0,0,1,.1.1l.3,1c0,.1,0,.1-.1.2a.774.774,0,0,1-.3.1Z" fill="#a9cda6"/><path d="M82.8,70.9a.0979.0979,0,0,1-.1-.1V69.7h-.1a.31.31,0,0,0-.2.1h-.1c-.1,0-.1,0-.1-.1l-.1-.1v-.2c.2-.1.3-.2.5-.2a.52.52,0,0,1,.4.2.6012.6012,0,0,1,.1.4v1a.0979.0979,0,0,1-.1.1Z" fill="#a9cda6"/><path d="M87,71h-.2c-.1,0-.1-.1-.1-.2l.3-1a.0979.0979,0,0,1,.1-.1h.3c.1,0,.1.1.1.2l-.3,1c0,.1-.1.1-.2.1Z" fill="#a9cda6"/><path d="M84.9,70.8a.3674.3674,0,0,1-.3-.1,9.2783,9.2783,0,0,0-.7-2.4.3491.3491,0,0,0-.1-.2c.1,0,.2.1.3.1,0,0,.4.2.6,1.2l.1.2c0-.1.1-2.1.8-2.4a.3491.3491,0,0,0,.2-.1.31.31,0,0,1-.1.2,3.5548,3.5548,0,0,0-.4,1.6v.2a1.3807,1.3807,0,0,1,.9-.7h.1s0,.1-.2.2a6.69,6.69,0,0,0-.9,1.5v.5C85.1,70.8,85,70.8,84.9,70.8Z" fill="#a9cda6"/></g></g></g><g id="nonconiferoustree_bd-14" data-name="nonconiferoustree_bd" style="isolation:isolate"><g id="NonConiferousTree_FC-14" data-name="NonConiferousTree_FC"><g id="Deleted_Symbol_2-14" data-name="Deleted Symbol 2"><path d="M92,65.1a1.11,1.11,0,0,1-1.1,1.1,1.4213,1.4213,0,0,1-.6-.2.752.752,0,0,1-.7.5,3.7463,3.7463,0,0,0,.1.8h0c0,.1-.1.1-.1.2-.1,0-.1.1-.2.1h-.2c-.1,0-.1-.1-.1-.2v-.9a2.092,2.092,0,0,1-.6-.4,1.1355,1.1355,0,0,1-.8.3,1.11,1.11,0,0,1-1.1-1.1.9374.9374,0,0,1,.5-.9v-.3a1.17,1.17,0,0,1,.8-1.1v-.1A1.0324,1.0324,0,0,1,89,61.8a1.09,1.09,0,0,1,1.1,1h.1a1.2007,1.2007,0,0,1,1.2,1.1v.2A1.0538,1.0538,0,0,1,92,65.1Zm-.3,0c0-.3-.3-.7-.6-.7h-.2v-.2c0-.1.1-.2.1-.3a.7133.7133,0,0,0-.8-.7H90l-.2.1h-.1v-.4a.7133.7133,0,0,0-.8-.7.6835.6835,0,0,0-.7.7v.2h0v.3h-.3a.6611.6611,0,0,0-.6.7.3674.3674,0,0,0,.1.3h0l.1.1v.1h-.2a.9078.9078,0,0,0-.3.7.7728.7728,0,0,0,.7.8.7549.7549,0,0,0,.7-.4.31.31,0,0,1,.1-.2v0l.1.2h0a.74.74,0,0,0,1.4,0h0l.1-.2v-.1l.1.1.2.2a.7638.7638,0,0,0,.5.2C91.3,65.8,91.7,65.5,91.7,65.1Z" fill="#a9cda6"/></g></g></g><g id="scrub_bd-13" data-name="scrub_bd" style="isolation:isolate"><g id="Scrub_FC-13" data-name="Scrub_FC"><g id="Deleted_Symbol_1-13" data-name="Deleted Symbol 1"><path d="M77.5,65.1c-.1,0-.1,0-.1-.1l-.3-1c0-.1,0-.1.1-.2l.2-.1h.1a.0979.0979,0,0,1,.1.1l.3,1c0,.1,0,.1-.1.2a.774.774,0,0,1-.3.1Z" fill="#a9cda6"/><path d="M79.3,64.9a.0979.0979,0,0,1-.1-.1V63.7h-.1a.31.31,0,0,0-.2.1h-.1c-.1,0-.1,0-.1-.1l-.1-.1v-.2c.2-.1.3-.2.5-.2a.52.52,0,0,1,.4.2.6012.6012,0,0,1,.1.4v1a.0979.0979,0,0,1-.1.1Z" fill="#a9cda6"/><path d="M83.5,65h-.2c-.1,0-.1-.1-.1-.2l.3-1a.0979.0979,0,0,1,.1-.1h.3c.1,0,.1.1.1.2l-.3,1c0,.1-.1.1-.2.1Z" fill="#a9cda6"/><path d="M81.4,64.8a.3674.3674,0,0,1-.3-.1,9.2783,9.2783,0,0,0-.7-2.4.3491.3491,0,0,0-.1-.2c.1,0,.2.1.3.1,0,0,.4.2.6,1.2l.1.2c0-.1.1-2.1.8-2.4a.3491.3491,0,0,0,.2-.1.31.31,0,0,1-.1.2,3.5548,3.5548,0,0,0-.4,1.6v.2a1.3807,1.3807,0,0,1,.9-.7h.1s0,.1-.2.2a6.69,6.69,0,0,0-.9,1.5v.5C81.6,64.7,81.5,64.8,81.4,64.8Z" fill="#a9cda6"/></g></g></g><g id="scrub_bd-14" data-name="scrub_bd" style="isolation:isolate"><g id="Scrub_FC-14" data-name="Scrub_FC"><g id="Deleted_Symbol_1-14" data-name="Deleted Symbol 1"><path d="M55.1,92.2c-.1,0-.1,0-.1-.1l-.3-1c0-.1,0-.1.1-.2l.2-.1h.1a.0979.0979,0,0,1,.1.1l.3,1c0,.1,0,.1-.1.2a.774.774,0,0,1-.3.1Z" fill="#a9cda6"/><path d="M56.9,91.9a.0979.0979,0,0,1-.1-.1V90.7h-.1a.31.31,0,0,0-.2.1h-.1c-.1,0-.1,0-.1-.1l-.1-.1v-.2c.2-.1.3-.2.5-.2a.52.52,0,0,1,.4.2.6012.6012,0,0,1,.1.4v1a.0979.0979,0,0,1-.1.1Z" fill="#a9cda6"/><path d="M61.2,92.1H61c-.1,0-.1-.1-.1-.2l.3-1a.0979.0979,0,0,1,.1-.1h.3c.1,0,.1.1.1.2l-.3,1a.3491.3491,0,0,0-.2.1Z" fill="#a9cda6"/><path d="M59,91.9a.3674.3674,0,0,1-.3-.1,9.2783,9.2783,0,0,0-.7-2.4.3491.3491,0,0,0-.1-.2c.1,0,.2.1.3.1,0,0,.4.2.6,1.2l.1.2c0-.1.1-2.1.8-2.4a.3491.3491,0,0,0,.2-.1.31.31,0,0,1-.1.2,3.5548,3.5548,0,0,0-.4,1.6v.2a1.3807,1.3807,0,0,1,.9-.7h.1s0,.1-.2.2a6.69,6.69,0,0,0-.9,1.5v.5C59.2,91.8,59.1,91.9,59,91.9Z" fill="#a9cda6"/></g></g></g><g id="nonconiferoustree_bd-15" data-name="nonconiferoustree_bd" style="isolation:isolate"><g id="NonConiferousTree_FC-15" data-name="NonConiferousTree_FC"><g id="Deleted_Symbol_2-15" data-name="Deleted Symbol 2"><path d="M66.2,86.1a1.11,1.11,0,0,1-1.1,1.1,1.4213,1.4213,0,0,1-.6-.2.752.752,0,0,1-.7.5,3.7463,3.7463,0,0,0,.1.8h0c0,.1-.1.1-.1.2-.1,0-.1.1-.2.1h-.2c-.1,0-.1-.1-.1-.2v-.9a2.092,2.092,0,0,1-.6-.4,1.1355,1.1355,0,0,1-.8.3,1.11,1.11,0,0,1-1.1-1.1.9374.9374,0,0,1,.5-.9v-.3a1.17,1.17,0,0,1,.8-1.1v-.1a1.0324,1.0324,0,0,1,1.1-1.1,1.09,1.09,0,0,1,1.1,1h.1a1.2007,1.2007,0,0,1,1.2,1.1v.2A1.1744,1.1744,0,0,1,66.2,86.1Zm-.4,0c0-.3-.3-.7-.6-.7H65v-.2c0-.1.1-.2.1-.3a.7133.7133,0,0,0-.8-.7h-.2l-.2.1h-.1v-.4a.7133.7133,0,0,0-.8-.7.6835.6835,0,0,0-.7.7v.2h0v.3H62a.6611.6611,0,0,0-.6.7.3674.3674,0,0,0,.1.3h0l.1.1v.1h-.2a.752.752,0,0,0-.5.7.7728.7728,0,0,0,.7.8.7549.7549,0,0,0,.7-.4.31.31,0,0,1,.1-.2v0l.1.2h0a.74.74,0,0,0,1.4,0h0l.1-.2v-.1l.1.1.2.2a.7638.7638,0,0,0,.5.2C65.5,86.9,65.8,86.5,65.8,86.1Z" fill="#a9cda6"/></g></g></g><g id="scrub_bd-15" data-name="scrub_bd" style="isolation:isolate"><g id="Scrub_FC-15" data-name="Scrub_FC"><g id="Deleted_Symbol_1-15" data-name="Deleted Symbol 1"><path d="M51.6,86.2c-.1,0-.1,0-.1-.1l-.3-1c0-.1,0-.1.1-.2l.2-.1h.1a.0979.0979,0,0,1,.1.1l.3,1c0,.1,0,.1-.1.2a.438.438,0,0,0-.3.1Z" fill="#a9cda6"/><path d="M53.4,85.9a.0979.0979,0,0,1-.1-.1V84.7h-.1a.31.31,0,0,0-.2.1h-.1c-.1,0-.1,0-.1-.1l-.1-.1v-.2c.2-.1.3-.2.5-.2a.52.52,0,0,1,.4.2.6012.6012,0,0,1,.1.4v1a.0979.0979,0,0,1-.1.1Z" fill="#a9cda6"/><path d="M57.7,86h-.2c-.1,0-.1-.1-.1-.2l.3-1a.0979.0979,0,0,1,.1-.1h.3c.1,0,.1.1.1.2l-.3,1c-.1.1-.1.2-.2.1Z" fill="#a9cda6"/><path d="M55.5,85.8a.3674.3674,0,0,1-.3-.1,9.2783,9.2783,0,0,0-.7-2.4.3491.3491,0,0,0-.1-.2c.1,0,.2.1.3.1,0,0,.4.2.6,1.2l.1.2c0-.1.1-2.1.8-2.4a.3491.3491,0,0,0,.2-.1.31.31,0,0,1-.1.2,3.5548,3.5548,0,0,0-.4,1.6v.2a1.3807,1.3807,0,0,1,.9-.7h.1s0,.1-.2.2a6.69,6.69,0,0,0-.9,1.5v.5C55.7,85.8,55.6,85.8,55.5,85.8Z" fill="#a9cda6"/></g></g></g><g id="scrub_bd-16" data-name="scrub_bd" style="isolation:isolate"><g id="Scrub_FC-16" data-name="Scrub_FC"><g id="Deleted_Symbol_1-16" data-name="Deleted Symbol 1"><path d="M7.9,95c-.1,0-.1,0-.1-.1l-.3-1c0-.1,0-.1.1-.2l.2-.1h.1a.0979.0979,0,0,1,.1.1l.3,1c0,.1,0,.1-.1.2a.774.774,0,0,1-.3.1Z" fill="#a9cda6"/><path d="M9.7,94.8a.0979.0979,0,0,1-.1-.1V93.6H9.5a.31.31,0,0,0-.2.1H9.2c-.1,0-.1,0-.1-.1L9,93.5v-.2c.1-.2.2-.3.4-.3a.52.52,0,0,1,.4.2.6012.6012,0,0,1,.1.4v1a.0979.0979,0,0,1-.1.1H9.7Z" fill="#a9cda6"/><path d="M13.9,94.9h-.2c-.1,0-.1-.1-.1-.2l.3-1a.0979.0979,0,0,1,.1-.1h.3c.1,0,.1.1.1.2l-.3,1c0,.1-.1.1-.2.1Z" fill="#a9cda6"/><path d="M11.8,94.7a.3674.3674,0,0,1-.3-.1,9.2783,9.2783,0,0,0-.7-2.4.3491.3491,0,0,0-.1-.2c.1,0,.2.1.3.1,0,0,.4.2.6,1.2l.1.2c0-.1.1-2.1.8-2.4a.3491.3491,0,0,0,.2-.1.31.31,0,0,1-.1.2,3.5548,3.5548,0,0,0-.4,1.6V93a1.3807,1.3807,0,0,1,.9-.7h.1s0,.1-.2.2a6.69,6.69,0,0,0-.9,1.5v.5C12,94.6,11.9,94.7,11.8,94.7Z" fill="#a9cda6"/></g></g></g><g id="nonconiferoustree_bd-16" data-name="nonconiferoustree_bd" style="isolation:isolate"><g id="NonConiferousTree_FC-16" data-name="NonConiferousTree_FC"><g id="Deleted_Symbol_2-16" data-name="Deleted Symbol 2"><path d="M19,88.9A1.11,1.11,0,0,1,17.9,90a1.4213,1.4213,0,0,1-.6-.2.752.752,0,0,1-.7.5,3.7463,3.7463,0,0,0,.1.8h0c0,.1-.1.1-.1.2-.1,0-.1.1-.2.1h-.2c-.1,0-.1-.1-.1-.2v-.9a2.092,2.092,0,0,1-.6-.4,1.1355,1.1355,0,0,1-.8.3,1.11,1.11,0,0,1-1.1-1.1.9374.9374,0,0,1,.5-.9v-.3a1.17,1.17,0,0,1,.8-1.1v-.1A1.0324,1.0324,0,0,1,16,85.6a1.09,1.09,0,0,1,1.1,1h.1a1.2007,1.2007,0,0,1,1.2,1.1v.2A1.1744,1.1744,0,0,1,19,88.9Zm-.4,0c0-.3-.3-.7-.6-.7h-.2V88c0-.1.1-.2.1-.3a.7133.7133,0,0,0-.8-.7h-.2l-.2.1h-.1v-.4a.7133.7133,0,0,0-.8-.7.6835.6835,0,0,0-.7.7v.2h0v.3h-.3a.6611.6611,0,0,0-.6.7.3674.3674,0,0,0,.1.3h0l.1.1v.1h-.2a.752.752,0,0,0-.5.7.7728.7728,0,0,0,.7.8.7549.7549,0,0,0,.7-.4.31.31,0,0,1,.1-.2v0l.1.2h0a.74.74,0,0,0,1.4,0h0l.1-.2v-.1l.1.1.2.2a.7638.7638,0,0,0,.5.2C18.2,89.7,18.6,89.4,18.6,88.9Z" fill="#a9cda6"/></g></g></g><g id="scrub_bd-17" data-name="scrub_bd" style="isolation:isolate"><g id="Scrub_FC-17" data-name="Scrub_FC"><g id="Deleted_Symbol_1-17" data-name="Deleted Symbol 1"><path d="M4.4,89c-.1,0-.1,0-.1-.1l-.3-1c0-.1,0-.1.1-.2l.2-.1h.1a.0979.0979,0,0,1,.1.1l.3,1c0,.1,0,.1-.1.2a.774.774,0,0,1-.3.1Z" fill="#a9cda6"/><path d="M6.2,88.7a.0979.0979,0,0,1-.1-.1V87.5H6a.31.31,0,0,0-.2.1H5.7c-.1,0-.1,0-.1-.1l-.1-.1v-.2c.1-.2.2-.2.4-.2a.52.52,0,0,1,.4.2.6012.6012,0,0,1,.1.4v1a.0979.0979,0,0,1-.1.1Z" fill="#a9cda6"/><path d="M10.5,88.9h-.2c-.1,0-.1-.1-.1-.2l.3-1a.0979.0979,0,0,1,.1-.1h.3c.1,0,.1.1.1.2l-.3,1a.3491.3491,0,0,0-.2.1Z" fill="#a9cda6"/><path d="M8.3,88.6a.3674.3674,0,0,1-.3-.1,9.2783,9.2783,0,0,0-.7-2.4.3491.3491,0,0,0-.1-.2c.1,0,.2.1.3.1,0,0,.4.2.6,1.2l.1.2c0-.1.1-2.1.8-2.4a.3491.3491,0,0,0,.2-.1.31.31,0,0,1-.1.2,3.5548,3.5548,0,0,0-.4,1.6v.2a1.3807,1.3807,0,0,1,.9-.7h.1s0,.1-.2.2a6.69,6.69,0,0,0-.9,1.5v.5C8.5,88.6,8.4,88.6,8.3,88.6Z" fill="#a9cda6"/></g></g></g></svg>