<svg id="Layer_1" data-name="Layer 1" xmlns="http://www.w3.org/2000/svg" width="33.8667mm" height="33.8667mm" viewBox="0 0 96 96"><g id="scrub_bd"><g id="Scrub_FC"><g id="Deleted_Symbol_1" data-name="Deleted Symbol 1"><path d="M12.5,79.7c-.1,0-.1,0-.1-.1l-.3-1c0-.1,0-.1.1-.2l.2-.1h.1a.0979.0979,0,0,1,.1.1l.3,1c0,.1,0,.1-.1.2-.2.1-.2.1-.3.1Z" fill="#a9cda6"/><path d="M14.3,79.4a.0979.0979,0,0,1-.1-.1V78.2h-.1a.31.31,0,0,0-.2.1h-.1c-.1,0-.1,0-.1-.1l-.2-.2v-.2c.2-.1.3-.2.5-.2a.52.52,0,0,1,.4.2.6012.6012,0,0,1,.1.4v1a.0979.0979,0,0,1-.1.1h-.1Z" fill="#a9cda6"/><path d="M18.6,79.6h-.2c-.1,0-.1-.1-.1-.2l.3-1a.0979.0979,0,0,1,.1-.1H19c.1,0,.1.1.1.2l-.3,1c-.1,0-.1.1-.2.1Z" fill="#a9cda6"/><path d="M16.4,79.3a.3674.3674,0,0,1-.3-.1,9.2783,9.2783,0,0,0-.7-2.4.3491.3491,0,0,0-.1-.2c.1,0,.2.1.3.1,0,0,.4.2.6,1.2l.1.2c0-.1.1-2.1.8-2.4a.3491.3491,0,0,0,.2-.1.31.31,0,0,1-.1.2,3.5548,3.5548,0,0,0-.4,1.6v.2a1.3807,1.3807,0,0,1,.9-.7h.1s0,.1-.2.2a6.69,6.69,0,0,0-.9,1.5v.5C16.6,79.3,16.5,79.3,16.4,79.3Z" fill="#a9cda6"/></g></g></g><g id="boulder_bd"><path d="M18.3,74.4a.3491.3491,0,0,0-.1.2.2151.2151,0,0,0,.2.2h2c.3,0,.7-.1,1-.1h.9a3.0849,3.0849,0,0,1,.9.1.5845.5845,0,0,0,.4-.1.2151.2151,0,0,0-.2-.2.3491.3491,0,0,1-.2-.1,1.4385,1.4385,0,0,1,.2-.3c.1-.1.1-.3.2-.4a4.3311,4.3311,0,0,0,.1-.5v-.5c0-.1-.1-.3-.1-.4-.1-.1-.2-.2-.2-.3-.1-.1-.2-.2-.3-.2s-.2-.1-.3-.1h-.4c-.1,0-.3,0-.3.1-.1,0-.3.1-.4.1s-.2.1-.3.2a1.0073,1.0073,0,0,1-.3.1,3.0749,3.0749,0,0,0-1.4.8.7467.7467,0,0,0-.3.3h0a.3491.3491,0,0,1-.2.1c-.1.1-.3.2-.4.3s-.2.2-.2.3C18.3,74.3,18.3,74.4,18.3,74.4Zm.3-.1h0c0-.1.1-.2.2-.3s.2-.2.3-.2a.0979.0979,0,0,0,.1-.1h0a.3491.3491,0,0,0,.2.1c.1.1.2.1.3.2.1,0,.3.1.4.1h.4c.1,0,.2-.1.1-.2s-.1-.1-.2-.1h-.3a.3674.3674,0,0,1-.3-.1.3491.3491,0,0,1-.2-.1c-.2-.2.1-.5.3-.6a2.2344,2.2344,0,0,1,1.2-.7c.1,0,.1,0,.1.1s.1.2.1.3.3.3.4.1c0-.1-.2-.2-.2-.2v-.3l.1-.1a.3491.3491,0,0,1,.2-.1c.1,0,.2-.1.3-.1a.3674.3674,0,0,0,.3-.1h.3c.1,0,.2.1.3.1a.2151.2151,0,0,1,.2.2l.2.2c0,.1.1.2.1.3v.4a.6012.6012,0,0,1-.1.4.7581.7581,0,0,1-.2.4c-.1.1-.1.2-.2.3s-.1.1-.2.1H21.4c-.3,0-.7.1-1,.1H19.3A1.7306,1.7306,0,0,1,18.6,74.3Z" fill="#bebeb4"/></g><g id="boulder_bd-2" data-name="boulder_bd" style="isolation:isolate"><path d="M9.5,72.8a.3491.3491,0,0,0-.1.2.2151.2151,0,0,0,.2.2h2c.3,0,.7-.1,1-.1h.9a3.0849,3.0849,0,0,1,.9.1.5845.5845,0,0,0,.4-.1s-.1-.2-.2-.2a.3491.3491,0,0,1-.2-.1,1.4385,1.4385,0,0,1,.2-.3c.1-.1.1-.3.2-.4a4.3311,4.3311,0,0,0,.1-.5v-.5c0-.1-.1-.3-.1-.4-.1-.1-.2-.2-.2-.3-.1-.1-.2-.2-.3-.2s-.2-.1-.3-.1h-.4c-.1,0-.3,0-.3.1-.1,0-.3.1-.4.1s-.2.1-.3.2a1.0073,1.0073,0,0,1-.3.1,3.0749,3.0749,0,0,0-1.4.8.7467.7467,0,0,0-.3.3h0a.3491.3491,0,0,1-.2.1c-.1.1-.3.2-.4.3s-.2.2-.2.3Zm.3,0h0c0-.1.1-.2.2-.3s.2-.2.3-.2a.0979.0979,0,0,0,.1-.1h0a.3491.3491,0,0,0,.2.1c.1.1.2.1.3.2.1,0,.3.1.4.1h.4c.1,0,.2-.1.1-.2,0-.1-.1-.1-.2-.1h-.3a.3674.3674,0,0,1-.3-.1.3491.3491,0,0,1-.2-.1c-.2-.2.1-.5.3-.6a2.2344,2.2344,0,0,1,1.2-.7c.1,0,.1,0,.1.1s.1.2.1.3.3.3.4.1c0-.1-.2-.2-.2-.2v-.3l.1-.1a.3491.3491,0,0,1,.2-.1c.1,0,.2-.1.3-.1a.3674.3674,0,0,0,.3-.1h.3c.1,0,.2.1.3.1a.2151.2151,0,0,1,.2.2l.2.2c0,.1.1.2.1.3v.4a.6012.6012,0,0,1-.1.4.7581.7581,0,0,1-.2.4c-.1.1-.1.2-.2.3s-.1.1-.2.1H12.6c-.3,0-.7.1-1,.1H10.5A4.1839,4.1839,0,0,0,9.8,72.8Z" fill="#bebeb4"/></g><g id="scrub_bd-2" data-name="scrub_bd" style="isolation:isolate"><g id="Scrub_FC-2" data-name="Scrub_FC"><g id="Deleted_Symbol_1-2" data-name="Deleted Symbol 1"><path d="M48.7,69.2c-.1,0-.1,0-.1-.1l-.3-1c0-.1,0-.1.1-.2l.2-.1h.1a.0979.0979,0,0,1,.1.1l.3,1c0,.1,0,.1-.1.2-.2,0-.2.1-.3.1Z" fill="#a9cda6"/><path d="M50.6,68.9a.0979.0979,0,0,1-.1-.1V67.7h-.1a.31.31,0,0,0-.2.1h-.1c-.1,0-.1,0-.1-.1l-.1-.1v-.2c.2-.1.3-.2.5-.2a.52.52,0,0,1,.4.2.6012.6012,0,0,1,.1.4v1a.0979.0979,0,0,1-.1.1Z" fill="#a9cda6"/><path d="M54.8,69h-.2c-.1,0-.1-.1-.1-.2l.3-1a.0979.0979,0,0,1,.1-.1h.3c.1,0,.1.1.1.2L55,69a.1385.1385,0,0,1-.2,0Z" fill="#a9cda6"/><path d="M52.7,68.8a.3674.3674,0,0,1-.3-.1,9.2783,9.2783,0,0,0-.7-2.4.3491.3491,0,0,0-.1-.2c.1,0,.2.1.3.1,0,0,.4.2.6,1.2l.1.2c0-.1.1-2.1.8-2.4a.3491.3491,0,0,0,.2-.1.31.31,0,0,1-.1.2,3.5548,3.5548,0,0,0-.4,1.6v.2a1.3807,1.3807,0,0,1,.9-.7h.1s0,.1-.2.2a6.69,6.69,0,0,0-.9,1.5v.5C52.9,68.8,52.8,68.8,52.7,68.8Z" fill="#a9cda6"/></g></g></g><g id="boulder_bd-3" data-name="boulder_bd" style="isolation:isolate"><path d="M54.5,63.8a.3491.3491,0,0,0-.1.2.2151.2151,0,0,0,.2.2h2c.3,0,.7-.1,1-.1h.9a3.0849,3.0849,0,0,1,.9.1.5845.5845,0,0,0,.4-.1.2151.2151,0,0,0-.2-.2.3491.3491,0,0,1-.2-.1,1.4385,1.4385,0,0,1,.2-.3c.1-.1.1-.3.2-.4a4.3311,4.3311,0,0,0,.1-.5v-.5c0-.1-.1-.3-.1-.4-.1-.1-.2-.2-.2-.3-.1-.1-.2-.2-.3-.2s-.2-.1-.3-.1h-.4c-.1,0-.3,0-.3.1-.1,0-.3.1-.4.1s-.2.1-.3.2a1.0073,1.0073,0,0,1-.3.1,3.0749,3.0749,0,0,0-1.4.8.7467.7467,0,0,0-.3.3h0a.3491.3491,0,0,1-.2.1c-.1.1-.3.2-.4.3s-.2.2-.2.3Zm.3,0h0c0-.1.1-.2.2-.3s.2-.2.3-.2a.0979.0979,0,0,0,.1-.1h0a.3491.3491,0,0,0,.2.1c.1.1.2.1.3.2.1,0,.3.1.4.1h.4c.1,0,.2-.1.1-.2,0-.1-.1-.1-.2-.1h-.3a.3674.3674,0,0,1-.3-.1.3491.3491,0,0,1-.2-.1c-.2-.2.1-.5.3-.6a2.2344,2.2344,0,0,1,1.2-.7c.1,0,.1,0,.1.1s.1.2.1.3.3.3.4.1c0-.1-.2-.2-.2-.2v-.3l.1-.1a.3491.3491,0,0,1,.2-.1c.1,0,.2-.1.3-.1a.3674.3674,0,0,0,.3-.1h.3c.1,0,.2.1.3.1a.2151.2151,0,0,1,.2.2l.2.2c0,.1.1.2.1.3v.4a.6012.6012,0,0,1-.1.4.7581.7581,0,0,1-.2.4c-.1.1-.1.2-.2.3s-.1.1-.2.1H57.6c-.3,0-.7.1-1,.1H55.5A3.1967,3.1967,0,0,0,54.8,63.8Z" fill="#bebeb4"/></g><g id="boulder_bd-4" data-name="boulder_bd" style="isolation:isolate"><path d="M45.7,62.3a.3491.3491,0,0,0-.1.2.2151.2151,0,0,0,.2.2h2c.3,0,.7-.1,1-.1h.9a3.0849,3.0849,0,0,1,.9.1,1.0343,1.0343,0,0,0,.4-.1.2151.2151,0,0,0-.2-.2.3491.3491,0,0,1-.2-.1,1.4385,1.4385,0,0,1,.2-.3c.1-.1.1-.3.2-.4a4.3311,4.3311,0,0,0,.1-.5v-.5c0-.1-.1-.3-.1-.4s-.3-.2-.4-.2c-.1-.1-.2-.2-.3-.2s-.2-.1-.3-.1h-.4c-.1,0-.3,0-.3.1-.1,0-.3.1-.4.1s-.2.1-.3.2a1.0073,1.0073,0,0,1-.3.1,3.0749,3.0749,0,0,0-1.4.8.7467.7467,0,0,0-.3.3h0a.3491.3491,0,0,1-.2.1c-.1.1-.3.2-.4.3s-.2.2-.2.3Zm.3,0h0c0-.1.1-.2.2-.3s.2-.2.3-.2a.0979.0979,0,0,0,.1-.1h0a.3491.3491,0,0,0,.2.1c.1.1.2.1.3.2.1,0,.3.1.4.1h.4c.1,0,.2-.1.1-.2,0-.1-.1-.1-.2-.1h-.3a.3674.3674,0,0,1-.3-.1.3491.3491,0,0,1-.2-.1c-.2-.2.1-.5.3-.6a2.2344,2.2344,0,0,1,1.2-.7c.1,0,.1,0,.1.1s.1.2.1.3.3.3.4.1c0-.1-.2-.2-.2-.2v-.3l.1-.1a.3491.3491,0,0,1,.2-.1c.1,0,.2-.1.3-.1a.3674.3674,0,0,0,.3-.1c.1-.1.2,0,.3,0s.2.1.3.1a.2151.2151,0,0,1,.2.2l.2.2c0,.1.1.2.1.3v.4a.6012.6012,0,0,1-.1.4.7581.7581,0,0,1-.2.4c-.1.1-.1.2-.2.3s-.1.1-.2.1H48.8c-.3,0-.7.1-1,.1H46.7A3.1967,3.1967,0,0,0,46,62.3Z" fill="#bebeb4"/></g><g id="scrub_bd-3" data-name="scrub_bd" style="isolation:isolate"><g id="Scrub_FC-3" data-name="Scrub_FC"><g id="Deleted_Symbol_1-3" data-name="Deleted Symbol 1"><path d="M8.1,51.9c-.1,0-.1,0-.1-.1l-.3-1c0-.1,0-.1.1-.2l.2-.1h.1a.0979.0979,0,0,1,.1.1l.3,1c0,.1,0,.1-.1.2-.2,0-.2.1-.3.1Z" fill="#a9cda6"/><path d="M9.9,51.6a.0979.0979,0,0,1-.1-.1V50.4H9.7a.31.31,0,0,0-.2.1H9.4c-.1,0-.1,0-.1-.1l-.1-.1v-.2c.2-.1.3-.2.5-.2a.52.52,0,0,1,.4.2.6012.6012,0,0,1,.1.4v1a.0979.0979,0,0,1-.1.1Z" fill="#a9cda6"/><path d="M14.2,51.7H14c-.1,0-.1-.1-.1-.2l.3-1a.0979.0979,0,0,1,.1-.1h.3c.1,0,.1.1.1.2l-.3,1c-.1.1-.1.2-.2.1Z" fill="#a9cda6"/><path d="M12,51.5a.3674.3674,0,0,1-.3-.1A9.2783,9.2783,0,0,0,11,49a.3491.3491,0,0,0-.1-.2c.1,0,.2.1.3.1,0,0,.4.2.6,1.2l.1.2c0-.1.1-2.1.8-2.4a.3491.3491,0,0,0,.2-.1.31.31,0,0,1-.1.2,3.5548,3.5548,0,0,0-.4,1.6V50a1.3807,1.3807,0,0,1,.9-.7h.1s0,.1-.2.2a6.69,6.69,0,0,0-.9,1.5v.5Z" fill="#a9cda6"/></g></g></g><g id="boulder_bd-5" data-name="boulder_bd" style="isolation:isolate"><path d="M13.9,46.6a.3491.3491,0,0,0-.1.2.2151.2151,0,0,0,.2.2h2c.3,0,.7-.1,1-.1h.9a3.0849,3.0849,0,0,1,.9.1.5845.5845,0,0,0,.4-.1.2151.2151,0,0,0-.2-.2.3491.3491,0,0,1-.2-.1,1.4385,1.4385,0,0,1,.2-.3c.1-.1.1-.3.2-.4a4.3311,4.3311,0,0,0,.1-.5v-.5c0-.1-.1-.3-.1-.4-.1-.1-.2-.2-.2-.3-.1-.1-.2-.2-.3-.2s-.2-.1-.3-.1H18c-.1,0-.3,0-.3.1-.1,0-.3.1-.4.1s-.2.1-.3.2a1.0073,1.0073,0,0,1-.3.1,3.0749,3.0749,0,0,0-1.4.8.7467.7467,0,0,0-.3.3h0a.3491.3491,0,0,1-.2.1c-.1.1-.3.2-.4.3s-.2.2-.2.3C13.9,46.5,13.9,46.5,13.9,46.6Zm.3-.1h0c0-.1.1-.2.2-.3s.2-.2.3-.2a.0979.0979,0,0,0,.1-.1h0a.3491.3491,0,0,0,.2.1c.1.1.2.1.3.2.1,0,.3.1.4.1h.4c.1,0,.2-.1.1-.2,0-.1-.1-.1-.2-.1h-.3a.3674.3674,0,0,1-.3-.1.3491.3491,0,0,1-.2-.1c-.2-.2.1-.5.3-.6a2.2344,2.2344,0,0,1,1.2-.7c.1,0,.1,0,.1.1s.1.2.1.3.3.3.4.1c0-.1-.2-.2-.2-.2v-.4l.1-.1a.3491.3491,0,0,1,.2-.1c.1,0,.2-.1.3-.1A.3674.3674,0,0,0,18,44c.1-.1.2,0,.3,0s.2.1.3.1a.2151.2151,0,0,1,.2.2l.2.2c0,.1.1.2.1.3v.4a.6012.6012,0,0,1-.1.4.7581.7581,0,0,1-.2.4c-.1.1-.1.2-.2.3s-.1.1-.2.1H17c-.3,0-.7.1-1,.1H14.2Z" fill="#bebeb4"/></g><g id="scrub_bd-4" data-name="scrub_bd" style="isolation:isolate"><g id="Scrub_FC-4" data-name="Scrub_FC"><g id="Deleted_Symbol_1-4" data-name="Deleted Symbol 1"><path d="M4.6,45.8c-.1,0-.1,0-.1-.1l-.3-1c0-.1,0-.1.1-.2l.2-.1h.1a.0979.0979,0,0,1,.1.1l.3,1c0,.1,0,.1-.1.2-.2.1-.2.1-.3.1Z" fill="#a9cda6"/><path d="M6.5,45.6a.0979.0979,0,0,1-.1-.1V44.4H6.3a.31.31,0,0,0-.2.1H6c-.1,0-.1,0-.1-.1l-.1-.1v-.2c.2-.1.3-.2.5-.2a.52.52,0,0,1,.4.2.6012.6012,0,0,1,.1.4v1a.0979.0979,0,0,1-.1.1Z" fill="#a9cda6"/><path d="M10.7,45.7h-.2c-.1,0-.1-.1-.1-.2l.3-1a.0979.0979,0,0,1,.1-.1h.3c.1,0,.1.1.1.2l-.3,1c-.1.1-.1.1-.2.1Z" fill="#a9cda6"/><path d="M8.5,45.5a.3674.3674,0,0,1-.3-.1A9.2783,9.2783,0,0,0,7.5,43a.3491.3491,0,0,0-.1-.2c.1,0,.2.1.3.1,0,0,.4.2.6,1.2l.1.2c0-.1.1-2.1.8-2.4a.3491.3491,0,0,0,.2-.1.31.31,0,0,1-.1.2,3.5548,3.5548,0,0,0-.4,1.6v.2a1.3807,1.3807,0,0,1,.9-.7h.1s0,.1-.2.2a6.69,6.69,0,0,0-.9,1.5v.5C8.7,45.4,8.6,45.5,8.5,45.5Z" fill="#a9cda6"/></g></g></g><g id="scrub_bd-5" data-name="scrub_bd" style="isolation:isolate"><g id="Scrub_FC-5" data-name="Scrub_FC"><g id="Deleted_Symbol_1-5" data-name="Deleted Symbol 1"><path d="M16.9,31.1c-.1,0-.1,0-.1-.1l-.3-1c0-.1,0-.1.1-.2l.2-.1h.1a.0979.0979,0,0,1,.1.1l.3,1c0,.1,0,.1-.1.2a.774.774,0,0,1-.3.1Z" fill="#a9cda6"/><path d="M18.7,30.9a.0979.0979,0,0,1-.1-.1V29.7h-.1a.31.31,0,0,0-.2.1h-.1c-.1,0-.1,0-.1-.1l-.1-.1v-.2c.2-.1.3-.2.5-.2a.52.52,0,0,1,.4.2.6012.6012,0,0,1,.1.4v1a.0979.0979,0,0,1-.1.1Z" fill="#a9cda6"/><path d="M23,31h-.2c-.1,0-.1-.1-.1-.2l.3-1a.0979.0979,0,0,1,.1-.1h.3c.1,0,.1.1.1.2l-.3,1a.31.31,0,0,1-.2.1Z" fill="#a9cda6"/><path d="M20.8,30.8a.3674.3674,0,0,1-.3-.1,9.2783,9.2783,0,0,0-.7-2.4.3491.3491,0,0,0-.1-.2c.1,0,.2.1.3.1,0,0,.4.2.6,1.2l.1.2c0-.1.1-2.1.8-2.4a.3491.3491,0,0,0,.2-.1.31.31,0,0,1-.1.2,3.5548,3.5548,0,0,0-.4,1.6v.2a1.3807,1.3807,0,0,1,.9-.7h.1s0,.1-.2.2a6.69,6.69,0,0,0-.9,1.5v.5C21,30.7,20.9,30.8,20.8,30.8Z" fill="#a9cda6"/></g></g></g><g id="boulder_bd-6" data-name="boulder_bd" style="isolation:isolate"><path d="M22.6,25.8a.3491.3491,0,0,0-.1.2.2151.2151,0,0,0,.2.2h2c.3,0,.7-.1,1-.1h.9a3.0849,3.0849,0,0,1,.9.1.5845.5845,0,0,0,.4-.1.2151.2151,0,0,0-.2-.2.3491.3491,0,0,1-.2-.1,1.4385,1.4385,0,0,1,.2-.3c.1-.1.1-.3.2-.4a4.3311,4.3311,0,0,0,.1-.5v-.5c0-.1-.1-.3-.1-.4-.1-.1-.2-.2-.2-.3-.1-.1-.2-.2-.3-.2s-.2-.1-.3-.1h-.4c-.1,0-.3,0-.3.1-.1,0-.3.1-.4.1s-.2.1-.3.2a1.0073,1.0073,0,0,1-.3.1,3.0749,3.0749,0,0,0-1.4.8.7467.7467,0,0,0-.3.3h0a.3491.3491,0,0,1-.2.1c-.1.1-.3.2-.4.3s-.2.2-.2.3A2.9585,2.9585,0,0,1,22.6,25.8Zm.3,0h0c0-.1.1-.2.2-.3s.2-.2.3-.2a.0979.0979,0,0,0,.1-.1h0a.3491.3491,0,0,0,.2.1c.1.1.2.1.3.2.1,0,.3.1.4.1h.4c.1,0,.2-.1.1-.2,0-.1-.1-.1-.2-.1h-.3a.3674.3674,0,0,1-.3-.1.3491.3491,0,0,1-.2-.1c-.2-.2.1-.5.3-.6a2.2344,2.2344,0,0,1,1.2-.7c.1,0,.1,0,.1.1s.1.2.1.3.3.3.4.1c0-.1-.2-.2-.2-.2v-.4l.1-.1a.3491.3491,0,0,1,.2-.1c.1,0,.2-.1.3-.1a.3674.3674,0,0,0,.3-.1H27c.1,0,.2.1.3.1a.2151.2151,0,0,1,.2.2l.2.2c0,.1.1.2.1.3v.4a.6012.6012,0,0,1-.1.4.7581.7581,0,0,1-.2.4c-.1.1-.1.2-.2.3s-.1.1-.2.1H25.7c-.3,0-.7.1-1,.1H22.9Z" fill="#bebeb4"/></g><g id="boulder_bd-7" data-name="boulder_bd" style="isolation:isolate"><path d="M13.8,24.3a.3491.3491,0,0,0-.1.2.2151.2151,0,0,0,.2.2h2c.3,0,.7-.1,1-.1h.9a3.0849,3.0849,0,0,1,.9.1.5845.5845,0,0,0,.4-.1.2151.2151,0,0,0-.2-.2.3491.3491,0,0,1-.2-.1,1.4385,1.4385,0,0,1,.2-.3c.1-.1.1-.3.2-.4a4.3311,4.3311,0,0,0,.1-.5v-.5c0-.1-.1-.3-.1-.4-.1-.1-.2-.2-.2-.3-.1-.1-.2-.2-.3-.2s-.2-.1-.3-.1h-.4c-.1,0-.3,0-.3.1-.1,0-.3.1-.4.1s-.2.1-.3.2a1.0073,1.0073,0,0,1-.3.1,3.0749,3.0749,0,0,0-1.4.8.7467.7467,0,0,0-.3.3h0a.3491.3491,0,0,1-.2.1c-.1.1-.3.2-.4.3s-.2.2-.2.3C13.8,24.2,13.8,24.3,13.8,24.3Zm.3,0h0c0-.1.1-.2.2-.3s.2-.2.3-.2a.0979.0979,0,0,0,.1-.1h0a.3491.3491,0,0,0,.2.1c.1.1.2.1.3.2.1,0,.3.1.4.1H16c.1,0,.2-.1.1-.2,0-.1-.1-.1-.2-.1h-.3a.3674.3674,0,0,1-.3-.1.3491.3491,0,0,1-.2-.1c-.2-.2.1-.5.3-.6a2.2344,2.2344,0,0,1,1.2-.7c.1,0,.1,0,.1.1s.1.2.1.3.3.3.4.1c0-.1-.2-.2-.2-.2v-.4l.1-.1a.3491.3491,0,0,1,.2-.1c.1,0,.2-.1.3-.1a.3674.3674,0,0,0,.3-.1h.3c.1,0,.2.1.3.1a.2151.2151,0,0,1,.2.2l.2.2c0,.1.1.2.1.3V23a.6012.6012,0,0,1-.1.4.7581.7581,0,0,1-.2.4c-.1.1-.1.2-.2.3s-.1.1-.2.1H16.9c-.3,0-.7.1-1,.1H14.1Z" fill="#bebeb4"/></g><g id="scrub_bd-6" data-name="scrub_bd" style="isolation:isolate"><g id="Scrub_FC-6" data-name="Scrub_FC"><g id="Deleted_Symbol_1-6" data-name="Deleted Symbol 1"><path d="M47.3,11.6c-.1,0-.1,0-.1-.1l-.3-1c0-.1,0-.1.1-.2l.2-.1h.1a.0979.0979,0,0,1,.1.1l.3,1c0,.1,0,.1-.1.2-.2.1-.2.1-.3.1Z" fill="#a9cda6"/><path d="M49.2,11.4a.0979.0979,0,0,1-.1-.1V10.2H49a.31.31,0,0,0-.2.1h-.1c-.1,0-.1,0-.1-.1l-.3-.2V9.8c.2-.1.3-.2.5-.2a.52.52,0,0,1,.4.2.6012.6012,0,0,1,.1.4v1a.0979.0979,0,0,1-.1.1C49.3,11.4,49.2,11.4,49.2,11.4Z" fill="#a9cda6"/><path d="M53.4,11.5h-.2c-.1,0-.1-.1-.1-.2l.3-1a.0979.0979,0,0,1,.1-.1h.3c.1,0,.1.1.1.2l-.3,1c-.1.1-.1.1-.2.1Z" fill="#a9cda6"/><path d="M51.2,11.3a.3674.3674,0,0,1-.3-.1,9.2783,9.2783,0,0,0-.7-2.4.3491.3491,0,0,0-.1-.2c.1,0,.2.1.3.1,0,0,.4.2.6,1.2l.1.2c0-.1.1-2.1.8-2.4a.3491.3491,0,0,0,.2-.1.31.31,0,0,1-.1.2,3.5548,3.5548,0,0,0-.4,1.6v.2a1.3807,1.3807,0,0,1,.9-.7h.1s0,.1-.2.2a6.69,6.69,0,0,0-.9,1.5v.5C51.4,11.3,51.3,11.3,51.2,11.3Z" fill="#a9cda6"/></g></g></g><g id="boulder_bd-8" data-name="boulder_bd" style="isolation:isolate"><path d="M53.1,6.3a.3491.3491,0,0,0-.1.2.2151.2151,0,0,0,.2.2h2c.3,0,.7-.1,1-.1h.9a3.0849,3.0849,0,0,1,.9.1.5845.5845,0,0,0,.4-.1.2151.2151,0,0,0-.2-.2.3491.3491,0,0,1-.2-.1,1.4385,1.4385,0,0,1,.2-.3c.1-.1.1-.3.2-.4a4.3311,4.3311,0,0,0,.1-.5V4.6c0-.1-.1-.3-.1-.4-.2-.1-.3-.2-.4-.2-.1-.1-.2-.2-.3-.2s-.2-.1-.3-.1H57c-.1,0-.3,0-.3.1-.1,0-.3.1-.4.1s-.2.1-.3.2a.3674.3674,0,0,1-.3.1,3.0749,3.0749,0,0,0-1.4.8.7467.7467,0,0,0-.3.3h0a.3491.3491,0,0,1-.2.1c-.1.1-.3.2-.4.3s-.2.2-.2.3A.774.774,0,0,0,53.1,6.3Zm.3,0h0c0-.1.1-.2.2-.3s.2-.2.3-.2a.0979.0979,0,0,0,.1-.1h0a.3491.3491,0,0,0,.2.1c.1.1.2.1.3.2.1,0,.3.1.4.1h.4c.1,0,.2-.1.1-.2,0-.1-.1-.1-.2-.1h-.3a.3674.3674,0,0,1-.3-.1.3491.3491,0,0,1-.2-.1c-.2-.2.1-.5.3-.6a2.2344,2.2344,0,0,1,1.2-.7c.1,0,.1,0,.1.1s.1.2.1.3.3.3.4.1c0-.1-.2-.2-.2-.2V4.2l.1-.1a.3491.3491,0,0,1,.2-.1c.1,0,.2-.1.3-.1a.3674.3674,0,0,0,.3-.1h.3c.1,0,.2.1.3.1a.2151.2151,0,0,1,.2.2c-.1.1,0,.2,0,.3s.1.2.1.3v.4a.6012.6012,0,0,1-.1.4.7581.7581,0,0,1-.2.4c-.1.1-.1.2-.2.3s-.1.1-.2.1H56c-.3,0-.7.1-1,.1H53.9A1.3382,1.3382,0,0,0,53.4,6.3Z" fill="#bebeb4"/></g><g id="boulder_bd-9" data-name="boulder_bd" style="isolation:isolate"><path d="M44.3,4.8a.3491.3491,0,0,0-.1.2.2151.2151,0,0,0,.2.2h2c.3,0,.7-.1,1-.1h.9a3.0849,3.0849,0,0,1,.9.1.5845.5845,0,0,0,.4-.1.2151.2151,0,0,0-.2-.2.3491.3491,0,0,1-.2-.1,1.4385,1.4385,0,0,1,.2-.3c.1-.1.1-.3.2-.4a4.3311,4.3311,0,0,0,.1-.5V3.1c0-.1-.1-.3-.1-.4-.1-.1-.2-.2-.2-.3-.1-.1-.2-.2-.3-.2s-.2-.1-.3-.1h-.4c-.1,0-.3,0-.3.1-.1,0-.3.1-.4.1s-.2.1-.3.2a1.0073,1.0073,0,0,1-.3.1,3.0749,3.0749,0,0,0-1.4.8.7467.7467,0,0,0-.3.3h0a.3491.3491,0,0,1-.2.1c-.1.1-.3.2-.4.3s-.2.2-.2.3C44.3,4.7,44.3,4.8,44.3,4.8Zm.3,0h0c0-.1.1-.2.2-.3s.2-.2.3-.2a.0979.0979,0,0,0,.1-.1h0a.3491.3491,0,0,0,.2.1c.1.1.2.1.3.2.1,0,.3.1.4.1h.4c.1,0,.2-.1.1-.2,0-.1-.1-.1-.2-.1h-.3a.3674.3674,0,0,1-.3-.1.3491.3491,0,0,1-.2-.1c-.2-.2.1-.5.3-.6A1.58,1.58,0,0,1,47,2.9V3c0,.1.1.2.1.3s.3.3.4.1c0-.1-.2-.2-.2-.2V2.8l.1-.1a.3491.3491,0,0,1,.2-.1c.1,0,.2-.1.3-.1a.3674.3674,0,0,0,.3-.1c.1-.1.2,0,.3,0s.2.1.3.1a.2151.2151,0,0,1,.2.2l.2.2c0,.1.1.2.1.3v.4a.6012.6012,0,0,1-.1.4.7581.7581,0,0,1-.2.4c-.1.1-.1.2-.2.3s-.1.1-.2.1H47.2c-.3,0-.7.1-1,.1H45.1A1.75,1.75,0,0,0,44.6,4.8Z" fill="#bebeb4"/></g><g id="scrub_bd-7" data-name="scrub_bd" style="isolation:isolate"><g id="Scrub_FC-7" data-name="Scrub_FC"><g id="Deleted_Symbol_1-7" data-name="Deleted Symbol 1"><path d="M69.6,27.7c-.1,0-.1,0-.1-.1l-.3-1c0-.1,0-.1.1-.2l.2-.1h.1a.0979.0979,0,0,1,.1.1l.3,1c0,.1,0,.1-.1.2-.2,0-.2.1-.3.1Z" fill="#a9cda6"/><path d="M71.4,27.4a.0979.0979,0,0,1-.1-.1V26.2h-.1a.31.31,0,0,0-.2.1h-.1c-.1,0-.1,0-.1-.1l-.2-.2v-.2c.2-.1.3-.2.5-.2a.52.52,0,0,1,.4.2.6012.6012,0,0,1,.1.4v1a.0979.0979,0,0,1-.1.1C71.6,27.4,71.4,27.4,71.4,27.4Z" fill="#a9cda6"/><path d="M75.7,27.5h-.2c-.1,0-.1-.1-.1-.2l.3-1a.0979.0979,0,0,1,.1-.1h.3c.1,0,.1.1.1.2l-.3,1c-.1.1-.1.2-.2.1Z" fill="#a9cda6"/><path d="M73.5,27.3a.3674.3674,0,0,1-.3-.1,9.2783,9.2783,0,0,0-.7-2.4.3491.3491,0,0,0-.1-.2c.1,0,.2.1.3.1,0,0,.4.2.6,1.2l.1.2c0-.1.1-2.1.8-2.4a.3491.3491,0,0,0,.2-.1.31.31,0,0,1-.1.2,3.5548,3.5548,0,0,0-.4,1.6v.2a1.3807,1.3807,0,0,1,.9-.7h.1s0,.1-.2.2a6.69,6.69,0,0,0-.9,1.5v.5C73.7,27.3,73.6,27.3,73.5,27.3Z" fill="#a9cda6"/></g></g></g><g id="boulder_bd-10" data-name="boulder_bd" style="isolation:isolate"><path d="M75.4,22.4a.3491.3491,0,0,0-.1.2.2151.2151,0,0,0,.2.2h2c.3,0,.7-.1,1-.1h.9a2.7686,2.7686,0,0,1,.9.1.5845.5845,0,0,0,.4-.1.2151.2151,0,0,0-.2-.2.3491.3491,0,0,1-.2-.1,1.4385,1.4385,0,0,1,.2-.3c.1-.1.1-.3.2-.4a4.3311,4.3311,0,0,0,.1-.5v-.5c0-.1-.1-.3-.1-.4-.1-.1-.2-.2-.2-.3-.1-.1-.2-.2-.3-.2s-.2-.1-.3-.1h-.4c-.1,0-.3,0-.3.1-.1,0-.3.1-.4.1s-.2.1-.3.2a1.0073,1.0073,0,0,1-.3.1,3.0749,3.0749,0,0,0-1.4.8.7467.7467,0,0,0-.3.3h0a.3491.3491,0,0,1-.2.1c-.1.1-.3.2-.4.3s-.2.2-.2.3C75.4,22.3,75.4,22.3,75.4,22.4Zm.3-.1h0c0-.1.1-.2.2-.3s.2-.2.3-.2a.0979.0979,0,0,0,.1-.1h0a.3491.3491,0,0,0,.2.1c.1.1.2.1.3.2.1,0,.3.1.4.1h.4c.1,0,.2-.1.1-.2,0-.1-.1-.1-.2-.1h-.3a.3674.3674,0,0,1-.3-.1.3491.3491,0,0,1-.2-.1c-.2-.2.1-.5.3-.6a2.2344,2.2344,0,0,1,1.2-.7c.1,0,.1,0,.1.1s.1.2.1.3.3.3.4.1c0-.1-.2-.2-.2-.2v-.4l.1-.1a.3491.3491,0,0,1,.2-.1c.1,0,.2-.1.3-.1a.3674.3674,0,0,0,.3-.1h.3c.1,0,.2.1.3.1a.2151.2151,0,0,1,.2.2l.2.2c0,.1.1.2.1.3V21a.6012.6012,0,0,1-.1.4.7581.7581,0,0,1-.2.4c-.1.1-.1.2-.2.3s-.1.1-.2.1H78.5c-.3,0-.7.1-1,.1H75.7Z" fill="#bebeb4"/></g><g id="scrub_bd-8" data-name="scrub_bd" style="isolation:isolate"><g id="Scrub_FC-8" data-name="Scrub_FC"><g id="Deleted_Symbol_1-8" data-name="Deleted Symbol 1"><path d="M66.1,21.6c-.1,0-.1,0-.1-.1l-.3-1c0-.1,0-.1.1-.2l.2-.1h.1a.0979.0979,0,0,1,.1.1l.3,1c0,.1,0,.1-.1.2-.2.1-.2.1-.3.1Z" fill="#a9cda6"/><path d="M67.9,21.4a.0979.0979,0,0,1-.1-.1V20.2h-.1a.31.31,0,0,0-.2.1h-.1c-.1,0-.1,0-.1-.1l-.2-.2v-.2c.2-.1.3-.2.5-.2a.52.52,0,0,1,.4.2.6012.6012,0,0,1,.1.4v1a.0979.0979,0,0,1-.1.1C68.1,21.4,67.9,21.4,67.9,21.4Z" fill="#a9cda6"/><path d="M72.2,21.5H72c-.1,0-.1-.1-.1-.2l.3-1a.0979.0979,0,0,1,.1-.1h.3c.1,0,.1.1.1.2l-.3,1c-.1.1-.1.1-.2.1Z" fill="#a9cda6"/><path d="M70,21.3a.3674.3674,0,0,1-.3-.1,9.2783,9.2783,0,0,0-.7-2.4.3491.3491,0,0,0-.1-.2c.1,0,.2.1.3.1,0,0,.4.2.6,1.2l.1.2c0-.1.1-2.1.8-2.4a.3491.3491,0,0,0,.2-.1.31.31,0,0,1-.1.2,3.5548,3.5548,0,0,0-.4,1.6v.2a1.3807,1.3807,0,0,1,.9-.7h.1s0,.1-.2.2a6.69,6.69,0,0,0-.9,1.5v.5C70.2,21.2,70.1,21.3,70,21.3Z" fill="#a9cda6"/></g></g></g><g id="scrub_bd-9" data-name="scrub_bd" style="isolation:isolate"><g id="Scrub_FC-9" data-name="Scrub_FC"><g id="Deleted_Symbol_1-9" data-name="Deleted Symbol 1"><path d="M80.6,11c-.1,0-.1,0-.1-.1l-.3-1c0-.1,0-.1.1-.2l.2-.1h.1a.0979.0979,0,0,1,.1.1l.3,1c0,.1,0,.1-.1.2-.2,0-.3,0-.3.1Z" fill="#a9cda6"/><path d="M82.4,10.7a.0979.0979,0,0,1-.1-.1V9.5h-.1a.31.31,0,0,0-.2.1h-.1c-.1,0-.1,0-.1-.1l-.1-.1V9.2a.5359.5359,0,0,1,.4-.3.52.52,0,0,1,.4.2.6012.6012,0,0,1,.1.4v1a.0979.0979,0,0,1-.1.1h-.1Z" fill="#a9cda6"/><path d="M86.7,10.8h-.2c-.1,0-.1-.1-.1-.2l.3-1a.0979.0979,0,0,1,.1-.1h.3c.1,0,.1.1.1.2l-.3,1c-.1.1-.1.1-.2.1Z" fill="#a9cda6"/><path d="M84.5,10.6a.3674.3674,0,0,1-.3-.1,9.2783,9.2783,0,0,0-.7-2.4.3491.3491,0,0,0-.1-.2c.1,0,.2.1.3.1,0,0,.4.2.6,1.2l.1.2c0-.1.1-2.1.8-2.4a.3491.3491,0,0,0,.2-.1.31.31,0,0,1-.1.2,3.5548,3.5548,0,0,0-.4,1.6V9a1.3807,1.3807,0,0,1,.9-.7h.1s0,.1-.2.2a6.69,6.69,0,0,0-.9,1.5v.5A.3674.3674,0,0,1,84.5,10.6Z" fill="#a9cda6"/></g></g></g><g id="boulder_bd-11" data-name="boulder_bd" style="isolation:isolate"><path d="M86.3,5.6a.3491.3491,0,0,0-.1.2.2151.2151,0,0,0,.2.2h2c.3,0,.7-.1,1-.1h.9a3.0849,3.0849,0,0,1,.9.1.5845.5845,0,0,0,.4-.1.2151.2151,0,0,0-.2-.2.3491.3491,0,0,1-.2-.1,1.4385,1.4385,0,0,1,.2-.3c.1-.1.1-.3.2-.4a4.3311,4.3311,0,0,0,.1-.5V3.9c0-.1-.1-.3-.1-.4-.1-.1-.2-.2-.2-.3-.1-.1-.2-.2-.3-.2h-.8c-.1,0-.3,0-.3.1-.1,0-.3.1-.4.1s-.2.1-.3.2a1.0073,1.0073,0,0,1-.3.1,3.0749,3.0749,0,0,0-1.4.8.7467.7467,0,0,0-.3.3h0a.3491.3491,0,0,1-.2.1c-.1.1-.3.2-.4.3s-.2.2-.2.3C86.4,5.6,86.4,5.6,86.3,5.6Zm.4,0h0c0-.1.1-.2.2-.3s.2-.2.3-.2a.0979.0979,0,0,0,.1-.1h0a.3491.3491,0,0,0,.2.1c.1.1.2.1.3.2.1,0,.3.1.4.1h.4c.1,0,.2-.1.1-.2,0-.1-.1-.1-.2-.1h-.3a.3674.3674,0,0,1-.3-.1.3491.3491,0,0,1-.2-.1c-.2-.2.1-.5.3-.6a2.2344,2.2344,0,0,1,1.2-.7c.1,0,.1,0,.1.1s.1.2.1.3.3.3.4.1c0-.1-.2-.2-.2-.2V3.5l.1-.1a.3491.3491,0,0,1,.2-.1c.1,0,.2-.1.3-.1a.3674.3674,0,0,0,.3-.1h.3c.1,0,.2.1.3.1a.2151.2151,0,0,1,.2.2l.2.2c0,.1.1.2.1.3v.4a.6012.6012,0,0,1-.1.4.7581.7581,0,0,1-.2.4.7467.7467,0,0,0-.3.3c-.1.1-.1.1-.2.1H89.4c-.3,0-.7.1-1,.1H86.7Z" fill="#bebeb4"/></g><g id="scrub_bd-10" data-name="scrub_bd" style="isolation:isolate"><g id="Scrub_FC-10" data-name="Scrub_FC"><g id="Deleted_Symbol_1-10" data-name="Deleted Symbol 1"><path d="M77.1,4.9c-.1,0-.1,0-.1-.1l-.3-1c0-.1,0-.1.1-.2l.2-.1h.1a.0979.0979,0,0,1,.1.1l.3,1c0,.1,0,.1-.1.2a.774.774,0,0,1-.3.1Z" fill="#a9cda6"/><path d="M78.9,4.7a.0979.0979,0,0,1-.1-.1V3.5h-.1a.31.31,0,0,0-.2.1h-.1c-.1,0-.1,0-.1-.1l-.1-.1V3.2c.2-.1.3-.2.5-.2a.52.52,0,0,1,.4.2.6012.6012,0,0,1,.1.4v1a.0979.0979,0,0,1-.1.1Z" fill="#a9cda6"/><path d="M83.2,4.8H83c-.1,0-.1-.1-.1-.2l.3-1a.0979.0979,0,0,1,.1-.1h.3c.1,0,.1.1.1.2l-.3,1c-.1.1-.1.1-.2.1Z" fill="#a9cda6"/><path d="M81,4.6a.3674.3674,0,0,1-.3-.1A9.2783,9.2783,0,0,0,80,2.1a.3491.3491,0,0,0-.1-.2c.1,0,.2.1.3.1,0,0,.4.2.6,1.2l.1.2c0-.1.1-2.1.8-2.4a.3491.3491,0,0,0,.2-.1.31.31,0,0,1-.1.2,3.5548,3.5548,0,0,0-.4,1.6V3a1.3807,1.3807,0,0,1,.9-.7h.1s0,.1-.2.2A6.69,6.69,0,0,0,81.3,4v.5C81.2,4.5,81.1,4.6,81,4.6Z" fill="#a9cda6"/></g></g></g><g id="scrub_bd-11" data-name="scrub_bd" style="isolation:isolate"><g id="Scrub_FC-11" data-name="Scrub_FC"><g id="Deleted_Symbol_1-11" data-name="Deleted Symbol 1"><path d="M70.6,47.3c-.1,0-.1,0-.1-.1l-.3-1c0-.1,0-.1.1-.2l.2-.1h.1a.0979.0979,0,0,1,.1.1l.3,1c0,.1,0,.1-.1.2a.774.774,0,0,1-.3.1Z" fill="#a9cda6"/><path d="M72.4,47.1a.0979.0979,0,0,1-.1-.1V45.9h-.1a.31.31,0,0,0-.2.1h-.1c-.1,0-.1,0-.1-.1l-.1-.1v-.2c.2-.1.3-.2.5-.2a.52.52,0,0,1,.4.2.6012.6012,0,0,1,.1.4v1a.0979.0979,0,0,1-.1.1Z" fill="#a9cda6"/><path d="M76.7,47.2h-.2c-.1,0-.1-.1-.1-.2l.3-1a.0979.0979,0,0,1,.1-.1h.3c.1,0,.1.1.1.2l-.3,1c-.1.1-.1.1-.2.1Z" fill="#a9cda6"/><path d="M74.5,47a.3674.3674,0,0,1-.3-.1,9.2783,9.2783,0,0,0-.7-2.4.3491.3491,0,0,0-.1-.2c.1,0,.2.1.3.1,0,0,.4.2.6,1.2l.1.2c0-.1.1-2.1.8-2.4a.3491.3491,0,0,0,.2-.1.31.31,0,0,1-.1.2,3.5548,3.5548,0,0,0-.4,1.6v.2a1.3807,1.3807,0,0,1,.9-.7h.1s0,.1-.2.2a6.69,6.69,0,0,0-.9,1.5v.5C74.7,47,74.6,47,74.5,47Z" fill="#a9cda6"/></g></g></g><g id="boulder_bd-12" data-name="boulder_bd" style="isolation:isolate"><path d="M76.3,42a.3491.3491,0,0,0-.1.2.2151.2151,0,0,0,.2.2h2c.3,0,.7-.1,1-.1h.9a3.0849,3.0849,0,0,1,.9.1.5845.5845,0,0,0,.4-.1.2151.2151,0,0,0-.2-.2.3491.3491,0,0,1-.2-.1,1.4385,1.4385,0,0,1,.2-.3c.1-.1.1-.3.2-.4a4.3311,4.3311,0,0,0,.1-.5v-.5c0-.1-.1-.3-.1-.4-.1-.1-.2-.2-.2-.3-.1-.1-.2-.2-.3-.2s-.2-.1-.3-.1h-.4c-.1,0-.3,0-.3.1-.1,0-.3.1-.4.1s-.2.1-.3.2a1.0073,1.0073,0,0,1-.3.1,3.0749,3.0749,0,0,0-1.4.8.7467.7467,0,0,0-.3.3h0a.3491.3491,0,0,1-.2.1c-.1.1-.3.2-.4.3s-.2.2-.2.3C76.4,42,76.4,42,76.3,42Zm.4,0h0c0-.1.1-.2.2-.3s.2-.2.3-.2a.0979.0979,0,0,0,.1-.1h0a.3491.3491,0,0,0,.2.1c.1.1.2.1.3.2.1,0,.3.1.4.1h.4c.1,0,.2-.1.1-.2,0-.1-.1-.1-.2-.1h-.3a.3674.3674,0,0,1-.3-.1.3491.3491,0,0,1-.2-.1c-.2-.2.1-.5.3-.6a2.2344,2.2344,0,0,1,1.2-.7c.1,0,.1,0,.1.1s.1.2.1.3.3.3.4.1c0-.1-.2-.2-.2-.2v-.4l.1-.1a.3491.3491,0,0,1,.2-.1c.1,0,.2-.1.3-.1a.3674.3674,0,0,0,.3-.1c.1-.1.2,0,.3,0s.2.1.3.1a.2151.2151,0,0,1,.2.2l.2.2c0,.1.1.2.1.3v.4a.6012.6012,0,0,1-.1.4.7581.7581,0,0,1-.2.4c-.1.1-.1.2-.2.3s-.1.1-.2.1H79.5c-.3,0-.7.1-1,.1H76.7Z" fill="#bebeb4"/></g><g id="boulder_bd-13" data-name="boulder_bd" style="isolation:isolate"><path d="M67.5,40.5a.3491.3491,0,0,0-.1.2.2151.2151,0,0,0,.2.2h2c.3,0,.7-.1,1-.1h.9a3.0849,3.0849,0,0,1,.9.1.5845.5845,0,0,0,.4-.1.2151.2151,0,0,0-.2-.2.3491.3491,0,0,1-.2-.1,1.4385,1.4385,0,0,1,.2-.3c.1-.1.1-.3.2-.4a4.3311,4.3311,0,0,0,.1-.5v-.5c0-.1-.1-.3-.1-.4-.1-.1-.2-.2-.2-.3-.1-.1-.2-.2-.3-.2s-.2-.1-.3-.1h-.4c-.1,0-.3,0-.3.1-.1,0-.3.1-.4.1s-.2.1-.3.2a1.0073,1.0073,0,0,1-.3.1,3.0749,3.0749,0,0,0-1.4.8.7467.7467,0,0,0-.3.3h0a.3491.3491,0,0,1-.2.1c-.1.1-.3.2-.4.3s-.2.2-.2.3C67.6,40.4,67.6,40.5,67.5,40.5Zm.4,0h0c0-.1.1-.2.2-.3s.2-.2.3-.2a.0979.0979,0,0,0,.1-.1h0a.3491.3491,0,0,0,.2.1c.1.1.2.1.3.2.1,0,.3.1.4.1h.4c.1,0,.2-.1.1-.2,0-.1-.1-.1-.2-.1h-.3a.3674.3674,0,0,1-.3-.1.3491.3491,0,0,1-.2-.1c-.2-.2.1-.5.3-.6a2.2344,2.2344,0,0,1,1.2-.7c.1,0,.1,0,.1.1s.1.2.1.3.3.3.4.1c0-.1-.2-.2-.2-.2v-.4l.1-.1a.3491.3491,0,0,1,.2-.1c.1,0,.2-.1.3-.1a.3674.3674,0,0,0,.3-.1H72c.1,0,.2.1.3.1a.2151.2151,0,0,1,.2.2l.2.2c0,.1.1.2.1.3v.4a.6012.6012,0,0,1-.1.4.7581.7581,0,0,1-.2.4c-.1.1-.1.2-.2.3s-.1.1-.2.1H70.7c-.3,0-.7.1-1,.1H67.9Z" fill="#bebeb4"/></g><g id="scrub_bd-12" data-name="scrub_bd" style="isolation:isolate"><g id="Scrub_FC-12" data-name="Scrub_FC"><g id="Deleted_Symbol_1-12" data-name="Deleted Symbol 1"><path d="M81.1,71.1A.0979.0979,0,0,1,81,71l-.3-1c0-.1,0-.1.1-.2l.2-.1h.1a.0979.0979,0,0,1,.1.1l.3,1c0,.1,0,.1-.1.2-.2,0-.3,0-.3.1Z" fill="#a9cda6"/><path d="M82.9,70.8a.0979.0979,0,0,1-.1-.1V69.6h-.1a.31.31,0,0,0-.2.1h-.1c-.1,0-.1,0-.1-.1l-.1-.1v-.2c.2-.1.3-.2.5-.2a.52.52,0,0,1,.4.2.6012.6012,0,0,1,.1.4v1a.0979.0979,0,0,1-.1.1Z" fill="#a9cda6"/><path d="M87.2,70.9H87c-.1,0-.1-.1-.1-.2l.3-1a.0979.0979,0,0,1,.1-.1h.3c.1,0,.1.1.1.2l-.3,1c-.1.1-.1.1-.2.1Z" fill="#a9cda6"/><path d="M85,70.7a.3674.3674,0,0,1-.3-.1,9.2783,9.2783,0,0,0-.7-2.4.3491.3491,0,0,0-.1-.2c.1,0,.2.1.3.1,0,0,.4.2.6,1.2l.1.2c0-.1.1-2.1.8-2.4a.3491.3491,0,0,0,.2-.1.31.31,0,0,1-.1.2,3.5548,3.5548,0,0,0-.4,1.6V69a1.3807,1.3807,0,0,1,.9-.7h.1s0,.1-.2.2a6.69,6.69,0,0,0-.9,1.5v.5C85.2,70.7,85.1,70.7,85,70.7Z" fill="#a9cda6"/></g></g></g><g id="boulder_bd-14" data-name="boulder_bd" style="isolation:isolate"><path d="M86.8,65.7a.3491.3491,0,0,0-.1.2.2151.2151,0,0,0,.2.2h2c.3,0,.7-.1,1-.1h.9a2.7686,2.7686,0,0,1,.9.1.5845.5845,0,0,0,.4-.1.2151.2151,0,0,0-.2-.2.3491.3491,0,0,1-.2-.1,1.4385,1.4385,0,0,1,.2-.3c.1-.1.1-.3.2-.4a4.3311,4.3311,0,0,0,.1-.5V64c0-.1-.1-.3-.1-.4-.1-.1-.2-.2-.2-.3-.1-.1-.2-.2-.3-.2s-.2-.1-.3-.1h-.4c-.1,0-.3,0-.3.1-.1,0-.3.1-.4.1s-.2.1-.3.2a1.0073,1.0073,0,0,1-.3.1,3.0749,3.0749,0,0,0-1.4.8.7467.7467,0,0,0-.3.3h0a.3491.3491,0,0,1-.2.1c-.1.1-.3.2-.4.3s-.2.2-.2.3C86.9,65.7,86.9,65.7,86.8,65.7Zm.4,0h0c0-.1.1-.2.2-.3s.2-.2.3-.2a.0979.0979,0,0,0,.1-.1h0a.3491.3491,0,0,0,.2.1c.1.1.2.1.3.2.1,0,.3.1.4.1h.4c.1,0,.2-.1.1-.2,0-.1-.1-.1-.2-.1h-.3a.3674.3674,0,0,1-.3-.1.3491.3491,0,0,1-.2-.1c-.2-.2.1-.5.3-.6a2.2344,2.2344,0,0,1,1.2-.7c.1,0,.1,0,.1.1s.1.2.1.3.3.3.4.1c0-.1-.2-.2-.2-.2v-.3l.1-.1a.3491.3491,0,0,1,.2-.1c.1,0,.2-.1.3-.1a.3674.3674,0,0,0,.3-.1h.3c.1,0,.2.1.3.1a.2151.2151,0,0,1,.2.2l.2.2c0,.1.1.2.1.3v.4a.6012.6012,0,0,1-.1.4.7581.7581,0,0,1-.2.4c-.1.1-.1.2-.2.3s-.1.1-.2.1H90c-.3,0-.7.1-1,.1H87.9A4.1839,4.1839,0,0,0,87.2,65.7Z" fill="#bebeb4"/></g><g id="scrub_bd-13" data-name="scrub_bd" style="isolation:isolate"><g id="Scrub_FC-13" data-name="Scrub_FC"><g id="Deleted_Symbol_1-13" data-name="Deleted Symbol 1"><path d="M77.6,65c-.1,0-.1,0-.1-.1l-.3-1c0-.1,0-.1.1-.2l.2-.1h.1a.0979.0979,0,0,1,.1.1l.3,1c0,.1,0,.1-.1.2a.774.774,0,0,1-.3.1Z" fill="#a9cda6"/><path d="M79.4,64.8a.0979.0979,0,0,1-.1-.1V63.6h-.1a.31.31,0,0,0-.2.1h-.1c-.1,0-.1,0-.1-.1l-.1-.1v-.2c.2-.1.3-.2.5-.2a.52.52,0,0,1,.4.2.6012.6012,0,0,1,.1.4v1a.0979.0979,0,0,1-.1.1Z" fill="#a9cda6"/><path d="M83.7,64.9h-.2c-.1,0-.1-.1-.1-.2l.3-1a.0979.0979,0,0,1,.1-.1h.3c.1,0,.1.1.1.2l-.3,1c-.1.1-.1.1-.2.1Z" fill="#a9cda6"/><path d="M81.5,64.7a.3674.3674,0,0,1-.3-.1,9.2783,9.2783,0,0,0-.7-2.4.3491.3491,0,0,0-.1-.2c.1,0,.2.1.3.1,0,0,.4.2.6,1.2l.1.2c0-.1.1-2.1.8-2.4a.3491.3491,0,0,0,.2-.1.31.31,0,0,1-.1.2,3.5548,3.5548,0,0,0-.4,1.6V63a1.3807,1.3807,0,0,1,.9-.7h.1s0,.1-.2.2a6.69,6.69,0,0,0-.9,1.5v.5C81.7,64.6,81.6,64.7,81.5,64.7Z" fill="#a9cda6"/></g></g></g><g id="scrub_bd-14" data-name="scrub_bd" style="isolation:isolate"><g id="Scrub_FC-14" data-name="Scrub_FC"><g id="Deleted_Symbol_1-14" data-name="Deleted Symbol 1"><path d="M55.1,92.2c-.1,0-.1,0-.1-.1l-.3-1c0-.1,0-.1.1-.2l.2-.1h.1a.0979.0979,0,0,1,.1.1l.3,1c0,.1,0,.1-.1.2-.2.1-.2.1-.3.1Z" fill="#a9cda6"/><path d="M57,91.9a.0979.0979,0,0,1-.1-.1V90.7h-.1a.31.31,0,0,0-.2.1h-.1c-.1,0-.1,0-.1-.1l-.1-.1v-.2c.2-.1.3-.2.5-.2a.52.52,0,0,1,.4.2.6012.6012,0,0,1,.1.4v1a.0979.0979,0,0,1-.1.1Z" fill="#a9cda6"/><path d="M61.2,92.1H61v-.2l.3-1a.0979.0979,0,0,1,.1-.1h.3c.1,0,.1.1.1.2l-.3,1c-.1,0-.2.1-.3.1Z" fill="#a9cda6"/><path d="M59,91.9a.3674.3674,0,0,1-.3-.1,9.2783,9.2783,0,0,0-.7-2.4.3491.3491,0,0,0-.1-.2c.1,0,.2.1.3.1,0,0,.4.2.6,1.2l.1.2c0-.1.1-2.1.8-2.4a.3491.3491,0,0,0,.2-.1.31.31,0,0,1-.1.2,3.5548,3.5548,0,0,0-.4,1.6v.2a1.3807,1.3807,0,0,1,.9-.7h.1s0,.1-.2.2a6.69,6.69,0,0,0-.9,1.5v.5C59.2,91.8,59.2,91.9,59,91.9Z" fill="#a9cda6"/></g></g></g><g id="boulder_bd-15" data-name="boulder_bd" style="isolation:isolate"><path d="M60.9,86.9a.3491.3491,0,0,0-.1.2.2151.2151,0,0,0,.2.2h2c.3,0,.7-.1,1-.1h.9a2.7686,2.7686,0,0,1,.9.1.5845.5845,0,0,0,.4-.1A.2151.2151,0,0,0,66,87a.3491.3491,0,0,1-.2-.1,1.4385,1.4385,0,0,1,.2-.3c.1-.1.1-.3.2-.4a4.3311,4.3311,0,0,0,.1-.5v-.5c0-.1-.1-.3-.1-.4-.1-.1-.2-.2-.2-.3-.1-.1-.2-.2-.3-.2s-.2-.1-.3-.1H65c-.1,0-.3,0-.3.1-.1,0-.3.1-.4.1s-.2.1-.3.2a.3674.3674,0,0,1-.3.1,3.0749,3.0749,0,0,0-1.4.8.7467.7467,0,0,0-.3.3h0a.3491.3491,0,0,1-.2.1c-.1.1-.3.2-.4.3s-.2.2-.2.3C60.9,86.8,60.9,86.9,60.9,86.9Zm.3-.1h0c0-.1.1-.2.2-.3s.2-.2.3-.2a.0979.0979,0,0,0,.1-.1h0a.3491.3491,0,0,0,.2.1c.1.1.2.1.3.2.1,0,.3.1.4.1h.4c.1,0,.2-.1.1-.2,0-.1-.1-.1-.2-.1h-.3a.3674.3674,0,0,1-.3-.1.3491.3491,0,0,1-.2-.1c-.2-.2.1-.5.3-.6a2.2344,2.2344,0,0,1,1.2-.7c.1,0,.1,0,.1.1s.1.2.1.3.3.3.4.1c0-.1-.2-.2-.2-.2v-.3l.1-.1a.3491.3491,0,0,1,.2-.1c.1,0,.2-.1.3-.1a.3674.3674,0,0,0,.3-.1h.3c.1,0,.2.1.3.1a.2151.2151,0,0,1,.2.2l.2.2c0,.1.1.2.1.3v.4a.6012.6012,0,0,1-.1.4.7581.7581,0,0,1-.2.4c-.1.1-.1.2-.2.3s-.1.1-.2.1H64c-.3,0-.7.1-1,.1H61.9A2.4417,2.4417,0,0,1,61.2,86.8Z" fill="#bebeb4"/></g><g id="scrub_bd-15" data-name="scrub_bd" style="isolation:isolate"><g id="Scrub_FC-15" data-name="Scrub_FC"><g id="Deleted_Symbol_1-15" data-name="Deleted Symbol 1"><path d="M51.6,86.1c-.1,0-.1,0-.1-.1l-.3-1c0-.1,0-.1.1-.2l.2-.1h.1a.0979.0979,0,0,1,.1.1l.3,1c0,.1,0,.1-.1.2-.2.1-.2.1-.3.1Z" fill="#a9cda6"/><path d="M53.5,85.9a.0979.0979,0,0,1-.1-.1V84.7h-.1a.31.31,0,0,0-.2.1H53c-.1,0-.1,0-.1-.1l-.1-.1v-.2c.2-.1.3-.2.5-.2a.52.52,0,0,1,.4.2.6012.6012,0,0,1,.1.4v1a.0979.0979,0,0,1-.1.1Z" fill="#a9cda6"/><path d="M57.7,86h-.2c-.1,0-.1-.1-.1-.2l.3-1a.0979.0979,0,0,1,.1-.1h.3c.1,0,.1.1.1.2l-.3,1c0,.1-.1.1-.2.1Z" fill="#a9cda6"/><path d="M55.5,85.8a.3674.3674,0,0,1-.3-.1,9.2783,9.2783,0,0,0-.7-2.4.3491.3491,0,0,0-.1-.2c.1,0,.2.1.3.1,0,0,.4.2.6,1.2l.1.2c0-.1.1-2.1.8-2.4a.3491.3491,0,0,0,.2-.1.31.31,0,0,1-.1.2,3.5548,3.5548,0,0,0-.4,1.6v.2a1.3807,1.3807,0,0,1,.9-.7h.1s0,.1-.2.2a6.69,6.69,0,0,0-.9,1.5v.5C55.7,85.8,55.7,85.8,55.5,85.8Z" fill="#a9cda6"/></g></g></g><g id="scrub_bd-16" data-name="scrub_bd" style="isolation:isolate"><g id="Scrub_FC-16" data-name="Scrub_FC"><g id="Deleted_Symbol_1-16" data-name="Deleted Symbol 1"><path d="M7.8,95c-.1,0-.1,0-.1-.1l-.3-1c0-.1,0-.1.1-.2l.2-.1h.1a.0979.0979,0,0,1,.1.1l.3,1c0,.1,0,.1-.1.2a.774.774,0,0,1-.3.1Z" fill="#a9cda6"/><path d="M9.6,94.8a.0979.0979,0,0,1-.1-.1V93.6H9.4a.31.31,0,0,0-.2.1H9.1c-.1,0-.1,0-.1-.1l-.1-.1v-.2c0-.3.2-.3.4-.3a.52.52,0,0,1,.4.2.6012.6012,0,0,1,.1.4v1a.0979.0979,0,0,1-.1.1H9.6Z" fill="#a9cda6"/><path d="M13.9,94.9h-.2c-.1,0-.1-.1-.1-.2l.3-1a.0979.0979,0,0,1,.1-.1h.3c.1,0,.1.1.1.2l-.3,1a.31.31,0,0,1-.2.1Z" fill="#a9cda6"/><path d="M11.7,94.7a.3674.3674,0,0,1-.3-.1,9.2783,9.2783,0,0,0-.7-2.4.3491.3491,0,0,0-.1-.2c.1,0,.2.1.3.1,0,0,.4.2.6,1.2l.1.2c0-.1.1-2.1.8-2.4a.3491.3491,0,0,0,.2-.1.31.31,0,0,1-.1.2,3.5548,3.5548,0,0,0-.4,1.6V93a1.3807,1.3807,0,0,1,.9-.7h.1s0,.1-.2.2A6.69,6.69,0,0,0,12,94v.5C11.9,94.6,11.8,94.7,11.7,94.7Z" fill="#a9cda6"/></g></g></g><g id="boulder_bd-16" data-name="boulder_bd" style="isolation:isolate"><path d="M13.5,89.7a.3491.3491,0,0,0-.1.2.2151.2151,0,0,0,.2.2h2c.3,0,.7-.1,1-.1h.9a3.0849,3.0849,0,0,1,.9.1.5845.5845,0,0,0,.4-.1.2151.2151,0,0,0-.2-.2.3491.3491,0,0,1-.2-.1,1.4385,1.4385,0,0,1,.2-.3c.1-.1.1-.3.2-.4a4.3311,4.3311,0,0,0,.1-.5V88c0-.1-.1-.3-.1-.4-.1-.1-.2-.2-.2-.3-.1-.1-.2-.2-.3-.2s-.2-.1-.3-.1h-.4c-.1,0-.3,0-.3.1-.1,0-.3.1-.4.1s-.2.1-.3.2a1.0073,1.0073,0,0,1-.3.1,3.0749,3.0749,0,0,0-1.4.8.7467.7467,0,0,0-.3.3h0a.3491.3491,0,0,1-.2.1c-.1.1-.3.2-.4.3s-.2.2-.2.3C13.5,89.6,13.5,89.7,13.5,89.7Zm.3,0h0c0-.1.1-.2.2-.3s.2-.2.3-.2a.0979.0979,0,0,0,.1-.1h0a.3491.3491,0,0,0,.2.1c.1.1.2.1.3.2.1,0,.3.1.4.1h.4c.1,0,.2-.1.1-.2,0-.1-.1-.1-.2-.1h-.3a.3674.3674,0,0,1-.3-.1.3491.3491,0,0,1-.2-.1c-.2-.2.1-.5.3-.6a2.2344,2.2344,0,0,1,1.2-.7c.1,0,.1,0,.1.1s.1.2.1.3.3.3.4.1c0-.1-.2-.2-.2-.2v-.3l.1-.1a.3491.3491,0,0,1,.2-.1c.1,0,.2-.1.3-.1a.3674.3674,0,0,0,.3-.1h.3c.1,0,.2.1.3.1a.2151.2151,0,0,1,.2.2l.2.2c0,.1.1.2.1.3v.4a.6012.6012,0,0,1-.1.4.7581.7581,0,0,1-.2.4c-.1.1-.1.2-.2.3s-.1.1-.2.1H16.6c-.3,0-.7.1-1,.1H14.5A3.1967,3.1967,0,0,0,13.8,89.7Z" fill="#bebeb4"/></g><g id="scrub_bd-17" data-name="scrub_bd" style="isolation:isolate"><g id="Scrub_FC-17" data-name="Scrub_FC"><g id="Deleted_Symbol_1-17" data-name="Deleted Symbol 1"><path d="M4.3,89c-.1,0-.1,0-.1-.1l-.3-1c0-.1,0-.1.1-.2l.2-.1h.1a.0979.0979,0,0,1,.1.1l.3,1c0,.1,0,.1-.1.2-.2,0-.3,0-.3.1Z" fill="#a9cda6"/><path d="M6.1,88.7a.0979.0979,0,0,1-.1-.1V87.5H5.9a.31.31,0,0,0-.2.1H5.6c-.1,0-.1,0-.1-.1l-.1-.1v-.2c.2-.1.3-.2.5-.2a.52.52,0,0,1,.4.2.6012.6012,0,0,1,.1.4v1a.0979.0979,0,0,1-.1.1Z" fill="#a9cda6"/><path d="M10.4,88.8h-.2c-.1,0-.1-.1-.1-.2l.3-1a.0979.0979,0,0,1,.1-.1h.3c.1,0,.1.1.1.2l-.3,1a.31.31,0,0,1-.2.1Z" fill="#a9cda6"/><path d="M8.2,88.6a.3674.3674,0,0,1-.3-.1,9.2783,9.2783,0,0,0-.7-2.4.3491.3491,0,0,0-.1-.2c.1,0,.2.1.3.1,0,0,.4.2.6,1.2l.1.2c0-.1.1-2.1.8-2.4a.3491.3491,0,0,0,.2-.1.31.31,0,0,1-.1.2,3.5548,3.5548,0,0,0-.4,1.6V87a1.3807,1.3807,0,0,1,.9-.7h.1s0,.1-.2.2A6.69,6.69,0,0,0,8.5,88v.5A.3674.3674,0,0,1,8.2,88.6Z" fill="#a9cda6"/></g></g></g></svg>