<svg id="Layer_1" data-name="Layer 1" xmlns="http://www.w3.org/2000/svg" width="33.8667mm" height="33.8667mm" viewBox="0 0 96 96"><g id="heath_bd"><g id="Heath_FC"><path d="M11.5,79.5c-.1,0-.1,0-.1-.1l-.4-.7v-.1a.0979.0979,0,0,1,.1-.1l.1-.1h.1l.1.1.4.7v.1l-.1.1-.2.1Z" fill="#6bbe66"/><path d="M13,79.2c-.1,0-.1,0-.2-.1l-.4-1.3c0-.1,0-.2.1-.2l.1-.1h.1l.1.1.4,1.3V79l-.1.1a.0979.0979,0,0,1-.1.1Z" fill="#6bbe66"/><path d="M14.5,77l.2,1.8v.1l-.1.1h-.2a.2151.2151,0,0,1-.2-.2L14,77l.1-.1.2-.1h.1C14.5,76.8,14.5,76.9,14.5,77Z" fill="#6bbe66"/><path d="M15.8,79.2h-.1l-.1-.1V79l.4-1.3.1-.1h.3l.1.1c.1,0,.1.1.1.2L16,79.1c0,.1,0,.1-.2.1Z" fill="#6bbe66"/><path d="M17.4,79.5h0l-.2-.1-.1-.1v-.1l.4-.7.1-.1h.1l.1.1c.1,0,.1.1.1.2l-.4.7A.0979.0979,0,0,1,17.4,79.5Z" fill="#6bbe66"/></g></g><g id="roughgrass_bd"><g id="RoughGrass_FC"><path d="M16.9,74.6v.1l-.1.1h-.3l-.3-.4v-.1l.1-.1h.3Z" fill="#6bbe66"/><path d="M19.2,74h0a1.7265,1.7265,0,0,0-.4-.3A1.9727,1.9727,0,0,1,19,73v-.7A1.5084,1.5084,0,0,1,19.2,74Z" fill="#6bbe66"/><path d="M19.2,74c.1.1.2.1.2.4h-.3A.7559.7559,0,0,1,19.2,74Z" fill="#6bbe66"/><path d="M21.3,73.2l-.5.5a2.1644,2.1644,0,0,0-.3.6v.2a.4829.4829,0,0,1-.4,0,2.18,2.18,0,0,0,.1-.6s0-1.1.5-1.2c0,0,.4-.2.1.1a1.67,1.67,0,0,0-.3.9C20.6,73.5,20.9,73.1,21.3,73.2Z" fill="#6bbe66"/><path d="M23.3,74.2v.1l-.3.5c0,.1-.1.1-.2,0h-.1l-.1-.1v-.1l.3-.5c0-.1.1-.1.2,0l.2.1Z" fill="#6bbe66"/><path d="M17.9,73.7l.2.7v.1l-.1.1h-.1c-.1,0-.1,0-.2-.1l-.2-.7v-.1l.1-.1h.1C17.8,73.5,17.9,73.6,17.9,73.7Z" fill="#6bbe66"/><path d="M21.9,73.6H22l.1.1v.1l-.2.7c0,.1-.1.1-.2.1h-.1l-.1-.1v-.1l.2-.7C21.7,73.6,21.8,73.5,21.9,73.6Z" fill="#6bbe66"/></g></g><g id="boulder_bd"><path d="M8.2,73.2a.3491.3491,0,0,0-.1.2.2151.2151,0,0,0,.2.2h2c.3,0,.7-.1,1-.1h.9a2.7686,2.7686,0,0,1,.9.1.5845.5845,0,0,0,.4-.1.2151.2151,0,0,0-.2-.2.3491.3491,0,0,1-.2-.1,1.4385,1.4385,0,0,1,.2-.3c.1-.1.1-.3.2-.4a4.3311,4.3311,0,0,0,.1-.5v-.5c0-.1-.1-.3-.1-.4-.1-.1-.2-.2-.2-.3-.1-.1-.2-.2-.3-.2s-.2-.1-.3-.1h-.4c-.1,0-.3,0-.3.1-.1,0-.3.1-.4.1s-.2.1-.3.2a1.0073,1.0073,0,0,1-.3.1,3.0749,3.0749,0,0,0-1.4.8l-.3.3h0a.3491.3491,0,0,1-.2.1c-.1.1-.3.2-.4.3s-.2.2-.2.3A2.9585,2.9585,0,0,1,8.2,73.2Zm.3,0h0c0-.1.1-.2.2-.3s.2-.2.3-.2a.0979.0979,0,0,0,.1-.1h0a.3491.3491,0,0,0,.2.1c.1.1.2.1.3.2.1,0,.3.1.4.1h.4a.2151.2151,0,0,0,.2-.2c0-.1-.1-.1-.2-.1h-.3a.3674.3674,0,0,1-.3-.1c-.1,0-.2-.1-.3-.2-.2-.2.1-.5.3-.6a2.2344,2.2344,0,0,1,1.2-.7c.1,0,.1,0,.1.1s.1.2.1.3.3.3.4.1c0-.1-.2-.2-.2-.2V71l.1-.1a.3491.3491,0,0,1,.2-.1c.1,0,.2-.1.3-.1a.3674.3674,0,0,0,.3-.1h.3c.1,0,.2.1.3.1a.2151.2151,0,0,1,.2.2l.2.2c0,.1.1.2.1.3v.4a.6012.6012,0,0,1-.1.4.7581.7581,0,0,1-.2.4c-.1.1-.1.2-.2.3s-.1.1-.2.1H11.3c-.3,0-.7.1-1,.1H9.2A2.6386,2.6386,0,0,1,8.5,73.2Z" fill="#9a9a90"/></g><g id="heath_bd-2" data-name="heath_bd" style="isolation:isolate"><g id="Heath_FC-2" data-name="Heath_FC"><path d="M48.1,68.9c-.1,0-.1,0-.1-.1l-.4-.7V68a.0979.0979,0,0,1,.1-.1l.1-.1h.1l.1.1.4.7v.1l-.1.1-.2.1Z" fill="#6bbe66"/><path d="M49.6,68.6c-.1,0-.1,0-.2-.1L49,67.2c0-.1,0-.2.1-.2l.1-.1h.1l.1.1.4,1.3v.1l-.1.1c0,.1,0,.1-.1.1Z" fill="#6bbe66"/><path d="M51.2,66.4l.2,1.8v.1l-.1.1h-.2a.2151.2151,0,0,1-.2-.2l-.2-1.9.1-.1.2-.1h.1C51.1,66.2,51.2,66.3,51.2,66.4Z" fill="#6bbe66"/><path d="M52.5,68.6h-.1l-.1-.1v-.1l.4-1.3.1-.1H53c.1,0,.1.1.1.2l-.4,1.3c-.1,0-.1.1-.2.1Z" fill="#6bbe66"/><path d="M54,68.9h0l-.2-.1-.1-.1v-.1l.4-.7.1-.1h.1l.1.1c.1,0,.1.1.1.2l-.4.7Z" fill="#6bbe66"/></g></g><g id="roughgrass_bd-2" data-name="roughgrass_bd" style="isolation:isolate"><g id="RoughGrass_FC-2" data-name="RoughGrass_FC"><path d="M53.5,63.9V64l-.1.1h-.3l-.3-.4v-.1l.1-.1h.3Z" fill="#6bbe66"/><path d="M55.8,63.4h0a1.7265,1.7265,0,0,0-.4-.3c-.1-.2.1-.7.1-.7v-.7A1.432,1.432,0,0,1,55.8,63.4Z" fill="#6bbe66"/><path d="M55.8,63.4c.1.1.2.1.2.4h-.3C55.7,63.6,55.8,63.5,55.8,63.4Z" fill="#6bbe66"/><path d="M58,62.5l-.5.5a2.1644,2.1644,0,0,0-.3.6v.2a.4829.4829,0,0,1-.4,0,2.18,2.18,0,0,0,.1-.6s0-1.1.5-1.2c0,0,.4-.2.1.1a1.67,1.67,0,0,0-.3.9A.8514.8514,0,0,1,58,62.5Z" fill="#6bbe66"/><path d="M60,63.6v.1l-.3.4c0,.1-.1.1-.2,0h-.1l-.1-.1v-.1l.3-.5c0-.1.1-.1.2,0l.2.2Z" fill="#6bbe66"/><path d="M54.5,63l.2.7V64h-.1c-.1,0-.1,0-.2-.1l-.2-.7v-.1l.1-.1h.1C54.4,62.9,54.5,63,54.5,63Z" fill="#6bbe66"/><path d="M58.5,63h.1l.1.1v.1l-.2.7c0,.1-.1.1-.2.1h-.1l-.1-.1v-.1l.2-.7C58.4,63,58.4,62.9,58.5,63Z" fill="#6bbe66"/></g></g><g id="boulder_bd-2" data-name="boulder_bd" style="isolation:isolate"><path d="M44.9,62.6a.3491.3491,0,0,0-.1.2.2151.2151,0,0,0,.2.2h2c.3,0,.7-.1,1-.1h.9a2.7686,2.7686,0,0,1,.9.1.5845.5845,0,0,0,.4-.1.2151.2151,0,0,0-.2-.2.3491.3491,0,0,1-.2-.1,1.4385,1.4385,0,0,1,.2-.3c.1-.1.1-.3.2-.4a4.3311,4.3311,0,0,0,.1-.5v-.5c0-.1-.1-.3-.1-.4-.1-.1-.2-.2-.2-.3-.1-.1-.2-.2-.3-.2s-.2-.1-.3-.1H49c-.1,0-.3,0-.3.1-.1,0-.3.1-.4.1s-.2.1-.3.2a1.0073,1.0073,0,0,1-.3.1,3.0749,3.0749,0,0,0-1.4.8l-.3.3h0a.3491.3491,0,0,1-.2.1c-.1.1-.3.2-.4.3s-.2.2-.2.3C44.9,62.5,44.9,62.6,44.9,62.6Zm.3,0h0c0-.1.1-.2.2-.3s.2-.2.3-.2a.0979.0979,0,0,0,.1-.1h0a.3491.3491,0,0,0,.2.1c.1.1.2.1.3.2.1,0,.3.1.4.1h.4a.2151.2151,0,0,0,.2-.2c0-.1-.1-.1-.2-.1h-.3a.3674.3674,0,0,1-.3-.1c-.1,0-.2-.1-.3-.2-.2-.2.1-.5.3-.6a2.2344,2.2344,0,0,1,1.2-.7c.1,0,.1,0,.1.1s.1.2.1.3.3.3.4.1c0-.1-.2-.2-.2-.2v-.4l.1-.1a.3491.3491,0,0,1,.2-.1c.1,0,.2-.1.3-.1A.3674.3674,0,0,0,49,60h.3c.1,0,.2.1.3.1a.2151.2151,0,0,1,.2.2l.2.2c0,.1.1.2.1.3v.4a.6012.6012,0,0,1-.1.4.7581.7581,0,0,1-.2.4c-.1.1-.1.2-.2.3s-.1.1-.2.1H48c-.3,0-.7.1-1,.1H45.9A4.1839,4.1839,0,0,1,45.2,62.6Z" fill="#9a9a90"/></g><g id="heath_bd-3" data-name="heath_bd" style="isolation:isolate"><g id="Heath_FC-3" data-name="Heath_FC"><path d="M7,51.4c-.1,0-.1,0-.1-.1l-.4-.7v-.1a.0979.0979,0,0,1,.1-.1l.1-.1h.1l.1.1.4.7v.1l-.1.1-.2.1Z" fill="#6bbe66"/><path d="M8.5,51.1c-.1,0-.1,0-.2-.1l-.4-1.3c0-.1,0-.2.1-.2l.1-.1h.1l.1.1.4,1.3v.1l-.1.1c0,.1,0,.1-.1.1Z" fill="#6bbe66"/><path d="M10.1,48.9l.2,1.8v.1l-.1.1H10a.2151.2151,0,0,1-.2-.2l-.2-1.9.1-.1.2-.1H10C10,48.7,10.1,48.8,10.1,48.9Z" fill="#6bbe66"/><path d="M11.4,51.1h-.1l-.2-.1v-.1l.4-1.3.1-.1h.3l.1.1c.1,0,.1.1.1.2L11.6,51c0,.1-.1.1-.2.1Z" fill="#6bbe66"/><path d="M12.9,51.4h0l-.2-.1-.1-.1v-.1l.4-.7.1-.1h.1l.1.1c.1,0,.1.1.1.2l-.4.7C13,51.4,13,51.4,12.9,51.4Z" fill="#6bbe66"/></g></g><g id="roughgrass_bd-3" data-name="roughgrass_bd" style="isolation:isolate"><g id="RoughGrass_FC-3" data-name="RoughGrass_FC"><path d="M12.5,46.4v.1l-.1.1h-.3l-.3-.4v-.1l.1-.1h.3Z" fill="#6bbe66"/><path d="M14.8,45.9h0a1.7265,1.7265,0,0,0-.4-.3c-.1-.2.1-.7.1-.7v-.7A1.65,1.65,0,0,1,14.8,45.9Z" fill="#6bbe66"/><path d="M14.8,45.9c.1.1.2.1.2.3h-.3C14.6,46.2,14.7,46.1,14.8,45.9Z" fill="#6bbe66"/><path d="M16.9,45l-.5.5a2.1644,2.1644,0,0,0-.3.6v.2a.4829.4829,0,0,1-.4,0,2.18,2.18,0,0,0,.1-.6s0-1.1.5-1.2c0,0,.4-.2.1.1a1.67,1.67,0,0,0-.3.9A1.0092,1.0092,0,0,1,16.9,45Z" fill="#6bbe66"/><path d="M18.9,46.1v.1l-.3.4c0,.1-.1.1-.2,0h-.1l-.1-.1v-.1l.3-.5c0-.1.1-.1.2,0l.2.2Z" fill="#6bbe66"/><path d="M13.5,45.6l.2.7v.1l-.1.1h-.1c-.1,0-.1,0-.2-.1l-.2-.7v-.1l.1-.1h.1C13.4,45.4,13.4,45.5,13.5,45.6Z" fill="#6bbe66"/><path d="M17.4,45.5h.1l.1.1v.1l-.2.7c0,.1-.1.1-.2.1h-.1l-.1-.1v-.1l.2-.7C17.3,45.5,17.4,45.4,17.4,45.5Z" fill="#6bbe66"/></g></g><g id="boulder_bd-3" data-name="boulder_bd" style="isolation:isolate"><path d="M3.8,45.1a.3491.3491,0,0,0-.1.2.2151.2151,0,0,0,.2.2h2c.3,0,.7-.1,1-.1h.9a2.7686,2.7686,0,0,1,.9.1.5845.5845,0,0,0,.4-.1s-.1-.3-.2-.3a.3491.3491,0,0,1-.2-.1,1.4385,1.4385,0,0,1,.2-.3c.1-.1.1-.3.2-.4a4.3311,4.3311,0,0,0,.1-.5v-.5c0-.1-.1-.3-.1-.4-.1-.1-.2-.2-.2-.3-.1-.1-.2-.2-.3-.2s-.2-.1-.3-.1H7.9c-.1,0-.3,0-.3.1-.1,0-.3.1-.4.1s-.2.1-.3.2a1.0073,1.0073,0,0,1-.3.1,3.0749,3.0749,0,0,0-1.4.8l-.3.3h0a.3491.3491,0,0,1-.2.1c-.1.1-.3.2-.4.3a1.4385,1.4385,0,0,0-.2.3C3.8,45,3.8,45.1,3.8,45.1Zm.3,0h0c0-.1.1-.2.2-.3s.2-.2.3-.2a.0979.0979,0,0,0,.1-.1h0a.3491.3491,0,0,0,.2.1c.1.1.2.1.3.2.1,0,.3.1.4.1H6a.2151.2151,0,0,0,.2-.2c0-.1-.1-.1-.2-.1H5.7a.3674.3674,0,0,1-.3-.1c-.1,0-.2-.1-.3-.2-.2-.2.1-.5.3-.6A2.2344,2.2344,0,0,1,6.6,43c.1,0,.1,0,.1.1s.1.2.1.3.3.3.4.1c0-.1-.2-.2-.2-.2v-.4c-.1.1,0,.1,0,.1a.3491.3491,0,0,1,.2-.1c.1,0,.2-.1.3-.1a.3674.3674,0,0,0,.3-.1h.3c.1,0,.2.1.3.1a.2151.2151,0,0,1,.2.2l.2.2c0,.1.1.2.1.3v.4a.6012.6012,0,0,1-.1.4.7581.7581,0,0,1-.2.4c-.1.1-.1.2-.2.3H6.9c-.3,0-.7.1-1,.1H4.1Z" fill="#9a9a90"/></g><g id="heath_bd-4" data-name="heath_bd" style="isolation:isolate"><g id="Heath_FC-4" data-name="Heath_FC"><path d="M15.9,30.4c-.1,0-.1,0-.1-.1l-.4-.7v-.1a.0979.0979,0,0,1,.1-.1l.1-.1h.1l.1.1.4.7v.1l-.2.1-.1.1Z" fill="#6bbe66"/><path d="M17.4,30.1c-.1,0-.1,0-.2-.1l-.4-1.3c0-.1,0-.2.1-.2l.1-.1h.1l.1.1.4,1.3v.1l-.1.1a.0979.0979,0,0,1-.1.1Z" fill="#6bbe66"/><path d="M18.9,27.9l.2,1.8v.1l-.1.1h-.2a.2151.2151,0,0,1-.2-.2l-.2-1.9.1-.1.2-.1h.1A.3674.3674,0,0,1,18.9,27.9Z" fill="#6bbe66"/><path d="M20.2,30.1h-.1L20,30v-.1l.4-1.3.1-.1h.3l.1.1c.1,0,.1.1.1.2L20.4,30c0,.1,0,.1-.2.1Z" fill="#6bbe66"/><path d="M21.8,30.4h0l-.2-.1-.1-.1v-.1l.4-.7.1-.1h.1l.1.1c.1,0,.1.1.1.2l-.4.7A.0979.0979,0,0,1,21.8,30.4Z" fill="#6bbe66"/></g></g><g id="roughgrass_bd-4" data-name="roughgrass_bd" style="isolation:isolate"><g id="RoughGrass_FC-4" data-name="RoughGrass_FC"><path d="M21.3,25.5v.1l-.1.1h-.3l-.3-.4v-.1l.1-.1H21Z" fill="#6bbe66"/><path d="M23.6,24.9h0a1.7265,1.7265,0,0,0-.4-.3c-.1-.2.1-.7.1-.7v-.7C24.1,24.2,23.6,24.9,23.6,24.9Z" fill="#6bbe66"/><path d="M23.6,24.9c.1.1.2.1.2.3h-.3A.774.774,0,0,1,23.6,24.9Z" fill="#6bbe66"/><path d="M25.7,24.1l-.5.5a2.1644,2.1644,0,0,0-.3.6v.2a.4829.4829,0,0,1-.4,0,2.18,2.18,0,0,0,.1-.6s0-1.1.5-1.2c0,0,.4-.2.1.1a1.67,1.67,0,0,0-.3.9C25,24.5,25.3,24,25.7,24.1Z" fill="#6bbe66"/><path d="M27.7,25.1v.1l-.3.4c0,.1-.1.1-.2,0h-.1l-.1-.1v-.1l.3-.5c0-.1.1-.1.2,0l.2.2Z" fill="#6bbe66"/><path d="M22.3,24.6l.2.7v.1l-.1.1h-.1c-.1,0-.1,0-.2-.1l-.2-.7v-.1l.1-.1h.1C22.2,24.5,22.3,24.5,22.3,24.6Z" fill="#6bbe66"/><path d="M26.3,24.5h.1l.1.1v.1l-.2.7c0,.1-.1.1-.2.1H26l-.1-.1v-.1l.2-.7C26.1,24.5,26.2,24.5,26.3,24.5Z" fill="#6bbe66"/></g></g><g id="boulder_bd-4" data-name="boulder_bd" style="isolation:isolate"><path d="M12.6,24.1a.3491.3491,0,0,0-.1.2.2151.2151,0,0,0,.2.2h2c.3,0,.7-.1,1-.1h.9a2.7686,2.7686,0,0,1,.9.1.5845.5845,0,0,0,.4-.1.2151.2151,0,0,0-.2-.2.3491.3491,0,0,1-.2-.1,1.4385,1.4385,0,0,1,.2-.3c.1-.1.1-.3.2-.4a4.3311,4.3311,0,0,0,.1-.5v-.5c0-.1-.1-.3-.1-.4-.1-.1-.2-.2-.2-.3-.1-.1-.2-.2-.3-.2s-.2-.1-.3-.1h-.4c-.1,0-.3,0-.3.1-.1,0-.3.1-.4.1s-.2.1-.3.2a1.0073,1.0073,0,0,1-.3.1,3.0749,3.0749,0,0,0-1.4.8l-.3.3h0a.3491.3491,0,0,1-.2.1c-.1.1-.3.2-.4.3a1.4385,1.4385,0,0,0-.2.3C12.7,24.1,12.6,24.1,12.6,24.1Zm.3,0h0c0-.1.1-.2.2-.3s.2-.2.3-.2a.0979.0979,0,0,0,.1-.1h0a.3491.3491,0,0,0,.2.1c.1.1.2.1.3.2.1,0,.3.1.4.1h.4a.2151.2151,0,0,0,.2-.2c0-.1-.1-.1-.2-.1h-.3a.3674.3674,0,0,1-.3-.1c-.1,0-.2-.1-.3-.2-.2-.2.1-.5.3-.6a2.2344,2.2344,0,0,1,1.2-.7c.1,0,.1,0,.1.1s.1.2.1.3.3.3.4.1c0-.1-.2-.2-.2-.2v-.4l.1-.1a.3491.3491,0,0,1,.2-.1c.1,0,.2-.1.3-.1a.3674.3674,0,0,0,.3-.1c.1-.1.2,0,.3,0s.2.1.3.1a.2151.2151,0,0,1,.2.2l.2.2c0,.1.1.2.1.3v.4a.6012.6012,0,0,1-.1.4.7581.7581,0,0,1-.2.4c-.1.1-.1.2-.2.3s-.1.1-.2.1H15.7c-.3,0-.7.1-1,.1H13.6A2.6386,2.6386,0,0,1,12.9,24.1Z" fill="#9a9a90"/></g><g id="heath_bd-5" data-name="heath_bd" style="isolation:isolate"><g id="Heath_FC-5" data-name="Heath_FC"><path d="M46.7,10.7c-.1,0-.1,0-.1-.1l-.4-.7V9.8a.0979.0979,0,0,1,.1-.1l.1-.1h.1l.1.1.4.7v.1l-.1.1-.2.1Z" fill="#6bbe66"/><path d="M48.1,10.4c-.1,0-.1,0-.2-.1L47.6,9c0-.1,0-.2.1-.2l.1-.1h.1l.1.1.4,1.3v.1l-.1.1c0,.1-.1.1-.2.1Z" fill="#6bbe66"/><path d="M49.7,8.2l.2,1.8v.1l-.1.1h-.2a.2151.2151,0,0,1-.2-.2l-.2-1.9.1-.1h.2C49.7,8,49.7,8.1,49.7,8.2Z" fill="#6bbe66"/><path d="M51,10.4h-.1l-.1-.1v-.1l.4-1.3.1-.1h.2l.1.1c.1,0,.1.1.1.2l-.4,1.3Z" fill="#6bbe66"/><path d="M52.6,10.7h0l-.2-.1-.1-.1v-.1l.4-.7.1-.1h.1l.1.1c.1,0,.1.1.1.2l-.4.7A.0979.0979,0,0,1,52.6,10.7Z" fill="#6bbe66"/></g></g><g id="roughgrass_bd-5" data-name="roughgrass_bd" style="isolation:isolate"><g id="RoughGrass_FC-5" data-name="RoughGrass_FC"><path d="M52.1,5.8v.1L52,6h-.2l-.3-.4V5.5l.1-.1h.3Z" fill="#6bbe66"/><path d="M54.4,5.2h0a1.7265,1.7265,0,0,0-.4-.3c-.1-.2.1-.7.1-.7V3.5A1.432,1.432,0,0,1,54.4,5.2Z" fill="#6bbe66"/><path d="M54.4,5.2c.1.1.2.1.2.3h-.3A.774.774,0,0,1,54.4,5.2Z" fill="#6bbe66"/><path d="M56.5,4.4l-.5.5a2.1644,2.1644,0,0,0-.3.6v.2a.4829.4829,0,0,1-.4,0,2.18,2.18,0,0,0,.1-.6s0-1.1.5-1.2c0,0,.4-.2.1.1a1.67,1.67,0,0,0-.3.9C55.8,4.7,56.1,4.3,56.5,4.4Z" fill="#6bbe66"/><path d="M58.5,5.4v.1l-.3.5h-.3l-.1-.1V5.8l.3-.5c0-.1.1-.1.2,0l.2.1Z" fill="#6bbe66"/><path d="M53.1,4.9l.2.7v.1l-.1.1h-.1c-.1,0-.1,0-.2-.1L52.7,5V4.9l.1-.1h.1C53,4.8,53.1,4.8,53.1,4.9Z" fill="#6bbe66"/><path d="M57.1,4.8h.1l.1.1V5l-.2.7c0,.1-.1.1-.2.1h-.1l-.1-.1V5.6l.2-.7C56.9,4.8,57,4.8,57.1,4.8Z" fill="#6bbe66"/></g></g><g id="boulder_bd-5" data-name="boulder_bd" style="isolation:isolate"><path d="M43.4,4.4a.3491.3491,0,0,0-.1.2.2151.2151,0,0,0,.2.2h2c.3,0,.7-.1,1-.1h.9a2.7686,2.7686,0,0,1,.9.1.5845.5845,0,0,0,.4-.1.2151.2151,0,0,0-.2-.2.3491.3491,0,0,1-.2-.1,1.4385,1.4385,0,0,1,.2-.3c.1-.1.1-.3.2-.4a4.3311,4.3311,0,0,0,.1-.5V2.7c0-.1-.1-.3-.1-.4-.1-.1-.2-.2-.2-.3-.1-.1-.2-.2-.3-.2s-.2-.1-.3-.1h-.4c-.1,0-.3,0-.3.1-.1,0-.3.1-.4.1s-.2.1-.3.2a1.0073,1.0073,0,0,1-.3.1,3.0749,3.0749,0,0,0-1.4.8l-.3.3h0a.3491.3491,0,0,1-.2.1c-.1.1-.3.2-.4.3a1.4385,1.4385,0,0,0-.2.3A2.9585,2.9585,0,0,1,43.4,4.4Zm.3,0h0c0-.1.1-.2.2-.3s.2-.1.3-.2a.0979.0979,0,0,0,.1-.1h0a.3491.3491,0,0,0,.2.1c.1.1.2.1.3.2.1,0,.3.1.4.1h.4a.2151.2151,0,0,0,.2-.2h-.6a.3674.3674,0,0,1-.3-.1c-.1,0-.2-.1-.3-.2-.2-.2.1-.5.3-.6a2.2344,2.2344,0,0,1,1.2-.7c.1,0,.1,0,.1.1s.1.2.1.3.3.3.4.1c0-.1-.2-.2-.2-.2V2.3l.1-.1a.3491.3491,0,0,1,.2-.1c.1,0,.2-.1.3-.1a.3674.3674,0,0,0,.3-.1h.3c.1.1.2.1.3.2a.2151.2151,0,0,1,.2.2l.2.2c0,.1.1.2.1.3v.4a.6012.6012,0,0,1-.1.4.7581.7581,0,0,1-.2.4c-.1.1-.1.2-.2.3s-.1.1-.2.1H46.4c-.3,0-.7.1-1,.1H44.3A2.1422,2.1422,0,0,0,43.7,4.4Z" fill="#9a9a90"/></g><g id="heath_bd-6" data-name="heath_bd" style="isolation:isolate"><g id="Heath_FC-6" data-name="Heath_FC"><path d="M69.2,26.9c-.1,0-.1,0-.1-.1l-.4-.7V26a.0979.0979,0,0,1,.1-.1l.1-.1H69V26l.4.7v.1l-.1.1Z" fill="#6bbe66"/><path d="M70.7,26.6c-.1,0-.1,0-.2-.1l-.4-1.3c0-.1,0-.2.1-.2l.1-.1h.1l.1.1.4,1.3v.1l-.1.1c0,.1,0,.1-.1.1Z" fill="#6bbe66"/><path d="M72.3,24.4l.2,1.8v.1l-.1.1h-.2a.2151.2151,0,0,1-.2-.2l-.2-1.9.1-.1.2-.1h.1C72.2,24.2,72.3,24.3,72.3,24.4Z" fill="#6bbe66"/><path d="M73.6,26.6h-.1l-.1-.1v-.1l.4-1.3.1-.1h.2l.1.1c.1,0,.1.1.1.2l-.4,1.3Z" fill="#6bbe66"/><path d="M75.1,26.9h0l-.2-.1-.1-.1v-.1l.4-.7.1-.1h.1l.1.1c.1,0,.1.1.1.2l-.4.7A.0979.0979,0,0,1,75.1,26.9Z" fill="#6bbe66"/></g></g><g id="roughgrass_bd-6" data-name="roughgrass_bd" style="isolation:isolate"><g id="RoughGrass_FC-6" data-name="RoughGrass_FC"><path d="M74.6,22v.1l-.1.1h-.3l-.2-.5v-.1l.1-.1h.3Z" fill="#6bbe66"/><path d="M76.9,21.4h0a1.7265,1.7265,0,0,0-.4-.3c-.1-.2.1-.7.1-.7v-.7C77.4,20.7,76.9,21.4,76.9,21.4Z" fill="#6bbe66"/><path d="M76.9,21.5c.1.1.2.1.2.3h-.3C76.8,21.7,76.9,21.6,76.9,21.5Z" fill="#6bbe66"/><path d="M79.1,20.6l-.5.4a2.1644,2.1644,0,0,0-.3.6v.2a.4829.4829,0,0,1-.4,0,2.18,2.18,0,0,0,.1-.6s0-1.1.5-1.2c0,0,.4-.2.1.1a1.67,1.67,0,0,0-.3.9A.8274.8274,0,0,1,79.1,20.6Z" fill="#6bbe66"/><path d="M81,21.6v.1l-.3.4c0,.1-.1.1-.2,0h-.1l-.1-.1v-.1l.3-.5c0-.1.1-.1.2,0l.2.2Z" fill="#6bbe66"/><path d="M75.6,21.1l.2.7V22h-.1c-.1,0-.1,0-.2-.1l-.2-.7v-.1l.1-.1h.1A.0979.0979,0,0,1,75.6,21.1Z" fill="#6bbe66"/><path d="M79.6,21h.1l.1.1v.1l-.2.7c0,.1-.1.1-.2.1h-.1l-.1-.1v-.1l.2-.7C79.5,21,79.5,21,79.6,21Z" fill="#6bbe66"/></g></g><g id="boulder_bd-6" data-name="boulder_bd" style="isolation:isolate"><path d="M65.9,20.6a.3491.3491,0,0,0-.1.2.2151.2151,0,0,0,.2.2h2c.3,0,.7-.1,1-.1h.9a2.7686,2.7686,0,0,1,.9.1.5845.5845,0,0,0,.4-.1.2151.2151,0,0,0-.2-.2.3491.3491,0,0,1-.2-.1,1.4385,1.4385,0,0,1,.2-.3c.1-.1.1-.3.2-.4a4.3311,4.3311,0,0,0,.1-.5v-.5c0-.1-.1-.3-.1-.4-.1-.1-.2-.2-.2-.3-.1-.1-.2-.2-.3-.2s-.2-.1-.3-.1H70a.6012.6012,0,0,0-.4.1c-.1,0-.3.1-.4.1s-.2.1-.3.2a1.0073,1.0073,0,0,1-.3.1,3.0749,3.0749,0,0,0-1.4.8l-.3.3h0a.3491.3491,0,0,1-.2.1c-.1.1-.3.2-.4.3a1.4385,1.4385,0,0,0-.2.3C66,20.6,66,20.6,65.9,20.6Zm.4,0h0c0-.1.1-.2.2-.3s.2-.2.3-.2a.0979.0979,0,0,0,.1-.1h0a.3491.3491,0,0,0,.2.1c.1.1.2.1.3.2.1,0,.3.1.4.1h.4a.2151.2151,0,0,0,.2-.2c0-.1-.1-.1-.2-.1h-.3a.3674.3674,0,0,1-.3-.1c-.1,0-.2-.1-.3-.2-.2-.2.1-.5.3-.6a2.2344,2.2344,0,0,1,1.2-.7c.1,0,.1,0,.1.1s.1.2.1.3.3.3.4.1c0-.1-.2-.2-.2-.2v-.4l.1-.1a.3491.3491,0,0,1,.2-.1c.1,0,.2-.1.3-.1a.3674.3674,0,0,0,.3-.1c.1-.1.2,0,.3,0s.2.1.3.1a.2151.2151,0,0,1,.2.2l.2.2c0,.1.1.2.1.3v.4a.6012.6012,0,0,1-.1.4.7581.7581,0,0,1-.2.4c-.1.1-.1.2-.2.3s-.1.1-.2.1H69.1c-.3,0-.7.1-1,.1H67A4.1839,4.1839,0,0,1,66.3,20.6Z" fill="#9a9a90"/></g><g id="heath_bd-7" data-name="heath_bd" style="isolation:isolate"><g id="Heath_FC-7" data-name="Heath_FC"><path d="M80.3,10c-.1,0-.1,0-.1-.1l-.4-.7V9.1a.0979.0979,0,0,1,.1-.1H80l.1.1.4.7V10Z" fill="#6bbe66"/><path d="M81.8,9.7c-.1,0-.1,0-.2-.1l-.4-1.3c0-.1,0-.2.1-.2l.1-.1h.1l.1.1L82,9.4v.3Z" fill="#6bbe66"/><path d="M83.4,7.5l.2,1.8v.1l-.1.1h-.2a.2151.2151,0,0,1-.2-.2l-.2-1.9.1-.1.2-.1h.1C83.3,7.3,83.4,7.4,83.4,7.5Z" fill="#6bbe66"/><path d="M84.7,9.7h-.1l-.1-.1V9.5l.4-1.3.1-.1h0V8h.1l.1.1c.1,0,.1.1.1.2l-.4,1.3c-.1.1-.1.1-.2.1Z" fill="#6bbe66"/><path d="M86.2,10h0L86,9.9l-.1-.1V9.7l.4-.7h.2l.1.1c.1,0,.1.1.1.2l-.4.7Z" fill="#6bbe66"/></g></g><g id="roughgrass_bd-7" data-name="roughgrass_bd" style="isolation:isolate"><g id="RoughGrass_FC-7" data-name="RoughGrass_FC"><path d="M85.7,5.1v.1l-.1.1h-.3L85,4.9V4.8l.1-.1h.3Z" fill="#6bbe66"/><path d="M88,4.5h0a1.7265,1.7265,0,0,0-.4-.3c-.1-.2.1-.7.1-.7V2.8C88.5,3.8,88,4.5,88,4.5Z" fill="#6bbe66"/><path d="M88,4.6c.1.1.2.1.2.3h-.3C87.9,4.8,88,4.7,88,4.6Z" fill="#6bbe66"/><path d="M90.2,3.7l-.5.5a2.1644,2.1644,0,0,0-.3.6V5A.4829.4829,0,0,1,89,5a2.18,2.18,0,0,0,.1-.6s0-1.1.5-1.2c0,0,.4-.2.1.1a1.67,1.67,0,0,0-.3.9A.8514.8514,0,0,1,90.2,3.7Z" fill="#6bbe66"/><path d="M92.2,4.7v.1l-.3.4c0,.1-.1.1-.2,0h-.1l-.1-.1V5l.3-.5c0-.1.1-.1.2,0l.2.2Z" fill="#6bbe66"/><path d="M86.7,4.2l.3.7V5l-.1.1h-.1c-.1,0-.1,0-.2-.1l-.2-.7V4.2l.1-.1h.1A.0979.0979,0,0,1,86.7,4.2Z" fill="#6bbe66"/><path d="M90.7,4.1h.1l.1.1v.1l-.2.7c0,.1-.1.1-.2.1h-.1L90.3,5V4.9l.2-.7C90.6,4.1,90.6,4.1,90.7,4.1Z" fill="#6bbe66"/></g></g><g id="boulder_bd-7" data-name="boulder_bd" style="isolation:isolate"><path d="M77.1,3.7a.3491.3491,0,0,0-.1.2c0,.1,0,.2.1.2h2c.3,0,.7-.1,1-.1H82a.5845.5845,0,0,0,.4-.1.2151.2151,0,0,0-.2-.2c-.2,0-.2,0-.2-.1a1.4385,1.4385,0,0,1,.2-.3c.1-.1.1-.3.2-.4a4.3311,4.3311,0,0,0,.1-.5V1.9c0-.1-.1-.3-.1-.4-.1-.1-.2-.2-.2-.3-.1-.1-.2-.2-.3-.2s-.2-.1-.3-.1h-.4a.6012.6012,0,0,0-.4.1c-.1,0-.3.1-.4.1s-.2.1-.3.2a.3674.3674,0,0,1-.3.1,3.0749,3.0749,0,0,0-1.4.8l-.3.3h0a.3491.3491,0,0,1-.2.1c-.1.1-.3.2-.4.3a1.4385,1.4385,0,0,0-.2.3Zm.3,0h0c0-.1.1-.2.2-.3s.2-.2.3-.2a.0979.0979,0,0,0,.1-.1h0a.3491.3491,0,0,0,.2.1c.1.1.2.1.3.2.1,0,.3.1.4.1h.4a.2151.2151,0,0,0,.2-.2c0-.1-.1-.1-.2-.1H79a.3674.3674,0,0,1-.3-.1c-.1,0-.2-.1-.3-.2-.2-.2.1-.5.3-.6a2.2344,2.2344,0,0,1,1.2-.7c.1,0,.1,0,.1.1s.1.2.1.3.3.3.4.1c0-.1-.2-.2-.2-.2V1.5l.1-.1a.3491.3491,0,0,1,.2-.1c.1,0,.2-.1.3-.1a.3674.3674,0,0,0,.3-.1h.3c.1,0,.2.1.3.1a.2151.2151,0,0,1,.2.2c-.1.2,0,.3,0,.4s.1.2.1.3v.4a.6012.6012,0,0,1-.1.4.7581.7581,0,0,1-.2.4c-.1.1-.1.2-.2.3s-.1.1-.2.1H80c-.3,0-.7.1-1,.1H77.9A1.75,1.75,0,0,0,77.4,3.7Z" fill="#9a9a90"/></g><g id="heath_bd-8" data-name="heath_bd" style="isolation:isolate"><g id="Heath_FC-8" data-name="Heath_FC"><path d="M70.2,46.8c-.1,0-.1,0-.1-.1l-.4-.7v-.1a.0979.0979,0,0,1,.1-.1l.1-.1H70l.1.1.4.7v.1l-.1.1-.2.1Z" fill="#6bbe66"/><path d="M71.7,46.5c-.1,0-.1,0-.2-.1l-.4-1.3c0-.1,0-.2.1-.2l.1-.1h.1l.1.1.4,1.3v.1l-.1.1c0,.1,0,.1-.1.1Z" fill="#6bbe66"/><path d="M73.3,44.3l.2,1.8v.1l-.1.1h-.2a.2151.2151,0,0,1-.2-.2l-.2-1.9.1-.1.2-.1h.1C73.2,44.1,73.3,44.2,73.3,44.3Z" fill="#6bbe66"/><path d="M74.6,46.5h-.1l-.1-.1v-.1l.4-1.3.1-.1h.2l.1.1c.1,0,.1.1.1.2l-.4,1.3Z" fill="#6bbe66"/><path d="M76.1,46.8h0l-.2-.1-.1-.1v-.1l.4-.7.1-.1h.1l.1.1c.1,0,.1.1.1.2l-.4.7A.0979.0979,0,0,1,76.1,46.8Z" fill="#6bbe66"/></g></g><g id="roughgrass_bd-8" data-name="roughgrass_bd" style="isolation:isolate"><g id="RoughGrass_FC-8" data-name="RoughGrass_FC"><path d="M75.6,41.9V42l-.1.1h-.3l-.2-.5v-.1l.1-.1h.3Z" fill="#6bbe66"/><path d="M77.9,41.3h0a1.7265,1.7265,0,0,0-.4-.3c-.1-.2.1-.7.1-.7v-.7C78.4,40.6,77.9,41.3,77.9,41.3Z" fill="#6bbe66"/><path d="M77.9,41.4c.1.1.2.1.2.3h-.3C77.8,41.6,77.9,41.5,77.9,41.4Z" fill="#6bbe66"/><path d="M80.1,40.5l-.5.5a2.1644,2.1644,0,0,0-.3.6v.2a.4829.4829,0,0,1-.4,0,2.18,2.18,0,0,0,.1-.6s0-1.1.5-1.2c0,0,.4-.2.1.1a1.67,1.67,0,0,0-.3.9A.73.73,0,0,1,80.1,40.5Z" fill="#6bbe66"/><path d="M82,41.5v.1l-.3.4c0,.1-.1.1-.2,0h-.1v-.1l.3-.5c0-.1.1-.1.2,0l.1.1Z" fill="#6bbe66"/><path d="M76.6,41l.2.7v.1l-.1.1h-.1c-.1,0-.1,0-.2-.1l-.2-.7V41l.1-.1h.1C76.5,40.9,76.6,40.9,76.6,41Z" fill="#6bbe66"/><path d="M80.6,40.9h.1l.1.1v.1l-.2.7c0,.1-.1.1-.2.1h-.1l-.1-.1v-.1l.2-.7C80.5,40.9,80.5,40.9,80.6,40.9Z" fill="#6bbe66"/></g></g><g id="boulder_bd-8" data-name="boulder_bd" style="isolation:isolate"><path d="M66.9,40.5a.3491.3491,0,0,0-.1.2.2151.2151,0,0,0,.2.2h2c.3,0,.7-.1,1-.1h.9a2.7686,2.7686,0,0,1,.9.1.5845.5845,0,0,0,.4-.1s-.1-.2-.2-.2a.3491.3491,0,0,1-.2-.1,1.4385,1.4385,0,0,1,.2-.3c.1-.1.1-.3.2-.4a4.3311,4.3311,0,0,0,.1-.5v-.5c0-.1-.1-.3-.1-.4-.1-.1-.2-.2-.2-.3-.1-.1-.2-.2-.3-.2s-.2-.1-.3-.1H71a.6012.6012,0,0,0-.4.1c-.1,0-.3.1-.4.1s-.2.1-.3.2a1.0073,1.0073,0,0,1-.3.1,3.0749,3.0749,0,0,0-1.4.8l-.3.3h0a.3491.3491,0,0,1-.2.1c-.1.1-.3.2-.4.3a1.4385,1.4385,0,0,0-.2.3C67,40.5,67,40.5,66.9,40.5Zm.4,0h0c0-.1.1-.2.2-.3s.2-.2.3-.2a.0979.0979,0,0,0,.1-.1h0a.3491.3491,0,0,0,.2.1c.1.1.2.1.3.2.1,0,.3.1.4.1h.4a.2151.2151,0,0,0,.2-.2c0-.1-.1-.1-.2-.1h-.3a.3674.3674,0,0,1-.3-.1c-.1,0-.2-.1-.3-.2-.2-.2.1-.5.3-.6a2.2344,2.2344,0,0,1,1.2-.7c.1,0,.1,0,.1.1s.1.2.1.3.3.3.4.1c0-.1-.2-.2-.2-.2v-.4l.1-.1a.3491.3491,0,0,1,.2-.1c.1,0,.2-.1.3-.1a.3674.3674,0,0,0,.3-.1h.3c.1,0,.2.1.3.1a.2151.2151,0,0,1,.2.2l.2.2c0,.1.1.2.1.3v.4a.6012.6012,0,0,1-.1.4.7581.7581,0,0,1-.2.4c-.1.1-.1.2-.2.3s-.1.1-.2.1H70.1c-.3,0-.7.1-1,.1H68A4.1839,4.1839,0,0,1,67.3,40.5Z" fill="#9a9a90"/></g><g id="heath_bd-9" data-name="heath_bd" style="isolation:isolate"><g id="Heath_FC-9" data-name="Heath_FC"><path d="M80.8,70.8c-.1,0-.1,0-.1-.1l-.4-.7v-.1a.0979.0979,0,0,1,.1-.1l.1-.1h.1l.1.1.4.7v.1l-.1.1-.2.1Z" fill="#6bbe66"/><path d="M82.3,70.5c-.1,0-.1,0-.2-.1l-.4-1.3c0-.1,0-.2.1-.2l.1-.1H82l.1.1.4,1.3v.1l-.1.1c0,.1,0,.1-.1.1Z" fill="#6bbe66"/><path d="M83.9,68.3l.2,1.8v.1l-.1.1h-.2a.2151.2151,0,0,1-.2-.2l-.2-1.9.1-.1.2-.1h.1C83.8,68.1,83.9,68.2,83.9,68.3Z" fill="#6bbe66"/><path d="M85.2,70.5h-.1l-.1-.1v-.1l.4-1.3.1-.1h.2l.1.1c.1,0,.1.1.1.2l-.4,1.3Z" fill="#6bbe66"/><path d="M86.7,70.8h0l-.2-.1-.1-.1v-.1l.4-.7.1-.1H87l.1.1c.1,0,.1.1.1.2l-.4.7C86.8,70.8,86.8,70.8,86.7,70.8Z" fill="#6bbe66"/></g></g><g id="roughgrass_bd-9" data-name="roughgrass_bd" style="isolation:isolate"><g id="RoughGrass_FC-9" data-name="RoughGrass_FC"><path d="M86.2,65.9V66l-.1.1h-.3l-.3-.4v-.1l.1-.1h.3Z" fill="#6bbe66"/><path d="M88.5,65.3h0a1.7265,1.7265,0,0,0-.4-.3c-.1-.2.1-.7.1-.7v-.7A1.432,1.432,0,0,1,88.5,65.3Z" fill="#6bbe66"/><path d="M88.5,65.3c.1.1.2.1.2.4h-.3C88.4,65.6,88.5,65.5,88.5,65.3Z" fill="#6bbe66"/><path d="M90.7,64.4l-.5.5a2.1644,2.1644,0,0,0-.3.6v.2a.4829.4829,0,0,1-.4,0,2.18,2.18,0,0,0,.1-.6s0-1.1.5-1.2c0,0,.4-.2.1.1a1.67,1.67,0,0,0-.3.9A.8514.8514,0,0,1,90.7,64.4Z" fill="#6bbe66"/><path d="M92.7,65.5v.1l-.3.4c0,.1-.1.1-.2,0H92v-.1l.3-.5c0-.1.1-.1.2,0l.2.1Z" fill="#6bbe66"/><path d="M87.2,65l.2.7v.1l-.1.1h-.1c-.1,0-.1,0-.2-.1l-.2-.7V65l.1-.1H87C87.1,64.8,87.2,64.9,87.2,65Z" fill="#6bbe66"/><path d="M91.2,64.9h.1l.1.1v.1l-.2.7c0,.1-.1.1-.2.1h-.1l-.1-.1v-.1L91,65C91.1,64.9,91.1,64.8,91.2,64.9Z" fill="#6bbe66"/></g></g><g id="boulder_bd-9" data-name="boulder_bd" style="isolation:isolate"><path d="M77.6,64.5a.3491.3491,0,0,0-.1.2.2151.2151,0,0,0,.2.2h2c.3,0,.7-.1,1-.1h.9a2.7686,2.7686,0,0,1,.9.1.5845.5845,0,0,0,.4-.1.2151.2151,0,0,0-.2-.2.3491.3491,0,0,1-.2-.1,1.4385,1.4385,0,0,1,.2-.3c.1-.1.1-.3.2-.4a4.3311,4.3311,0,0,0,.1-.5v-.5c0-.1-.1-.3-.1-.4-.1-.1-.2-.2-.2-.3-.1-.1-.2-.2-.3-.2s-.2-.1-.3-.1h-.4a.6012.6012,0,0,0-.4.1c-.1,0-.3.1-.4.1s-.2.1-.3.2a1.0073,1.0073,0,0,1-.3.1,3.0749,3.0749,0,0,0-1.4.8l-.3.3h0a.3491.3491,0,0,1-.2.1c-.1.1-.3.2-.4.3s-.2.2-.2.3C77.6,64.4,77.6,64.5,77.6,64.5Zm.3,0h0c0-.1.1-.2.2-.3s.2-.2.3-.2a.0979.0979,0,0,0,.1-.1h0a.3491.3491,0,0,0,.2.1c.1.1.2.1.3.2.1,0,.3.1.4.1h.4a.2151.2151,0,0,0,.2-.2c0-.1-.1-.1-.2-.1h-.3a.3674.3674,0,0,1-.3-.1c-.1,0-.2-.1-.3-.2-.2-.2.1-.5.3-.6a2.2344,2.2344,0,0,1,1.2-.7c.1,0,.1,0,.1.1s.1.2.1.3.3.3.4.1c0-.1-.2-.2-.2-.2v-.4l.1-.1a.3491.3491,0,0,1,.2-.1c.1,0,.2-.1.3-.1a.3674.3674,0,0,0,.3-.1H82c.1,0,.2.1.3.1a.2151.2151,0,0,1,.2.2l.2.2c0,.1.1.2.1.3v.4a.6012.6012,0,0,1-.1.4.7581.7581,0,0,1-.2.4c-.1.1-.1.2-.2.3s-.1.1-.2.1H80.7c-.3,0-.7.1-1,.1H78.6A4.1839,4.1839,0,0,1,77.9,64.5Z" fill="#9a9a90"/></g><g id="heath_bd-10" data-name="heath_bd" style="isolation:isolate"><g id="Heath_FC-10" data-name="Heath_FC"><path d="M54.6,92.1c-.1,0-.1,0-.1-.1l-.5-.6v-.1a.0979.0979,0,0,1,.1-.1l.1-.1h.1l.1.1.4.7V92l-.1.1Z" fill="#6bbe66"/><path d="M56,91.9c-.1,0-.1,0-.2-.1l-.4-1.3c0-.1,0-.2.1-.2l.1-.1h.1l.1.1.4,1.3v.1l-.1.1c.1,0,0,0-.1.1Z" fill="#6bbe66"/><path d="M57.6,89.6l.2,1.8v.1l-.1.1h-.2a.2151.2151,0,0,1-.2-.2l-.2-1.9.1-.1.2-.1h.1C57.6,89.5,57.6,89.5,57.6,89.6Z" fill="#6bbe66"/><path d="M58.9,91.9h-.1l-.1-.1v-.1l.4-1.3.1-.1h.2l.1.1c.1,0,.1.1.1.2l-.4,1.3c-.1-.1-.2,0-.3,0Z" fill="#6bbe66"/><path d="M60.5,92.1h0l-.2-.1h-.1v-.1l.4-.7.1-.1h.1l.1.1c.1,0,.1.1.1.2l-.4.7Z" fill="#6bbe66"/></g></g><g id="roughgrass_bd-10" data-name="roughgrass_bd" style="isolation:isolate"><g id="RoughGrass_FC-10" data-name="RoughGrass_FC"><path d="M60,87.2v.1l-.1.1h-.3l-.2-.4v-.1l.1-.1h.3Z" fill="#6bbe66"/><path d="M62.3,86.7h0a1.7265,1.7265,0,0,0-.4-.3c-.1-.2.1-.7.1-.7V85A1.432,1.432,0,0,1,62.3,86.7Z" fill="#6bbe66"/><path d="M62.3,86.7c.1.1.2.1.2.4h-.3C62.2,86.9,62.2,86.8,62.3,86.7Z" fill="#6bbe66"/><path d="M64.4,85.8l-.4.5a2.1644,2.1644,0,0,0-.3.6v.2a.4829.4829,0,0,1-.4,0,2.18,2.18,0,0,0,.1-.6s0-1.1.5-1.2c0,0,.4-.2.1.1a1.67,1.67,0,0,0-.3.9A.8083.8083,0,0,1,64.4,85.8Z" fill="#6bbe66"/><path d="M66.4,86.8v.1l-.3.4c0,.1-.1.1-.2,0h-.1l-.1-.1v-.1l.3-.5c0-.1.1-.1.2,0l.2.2Z" fill="#6bbe66"/><path d="M61,86.3l.2.7v.1l-.1.1H61c-.1,0-.1,0-.2-.1l-.2-.7v-.1l.1-.1h.1C60.9,86.2,61,86.2,61,86.3Z" fill="#6bbe66"/><path d="M65,86.2h.1l.1.1v.1l-.2.8c0,.1-.1.1-.2.1h-.1l-.1-.1v-.1l.2-.7C64.8,86.2,64.9,86.2,65,86.2Z" fill="#6bbe66"/></g></g><g id="boulder_bd-10" data-name="boulder_bd" style="isolation:isolate"><path d="M51.3,85.9a.3491.3491,0,0,0-.1.2.2151.2151,0,0,0,.2.2h2c.3,0,.7-.1,1-.1h.9a2.7686,2.7686,0,0,1,.9.1.5845.5845,0,0,0,.4-.1.2151.2151,0,0,0-.2-.2.3491.3491,0,0,1-.2-.1,1.4385,1.4385,0,0,1,.2-.3c.1-.1.1-.3.2-.4a4.3311,4.3311,0,0,0,.1-.5v-.5c0-.1-.1-.3-.1-.4-.1-.1-.2-.2-.2-.3-.1-.1-.2-.2-.3-.2s-.2-.1-.3-.1h-.4a.6012.6012,0,0,0-.4.1c-.1,0-.3.1-.4.1s-.2.1-.3.2a1.0073,1.0073,0,0,1-.3.1,3.0749,3.0749,0,0,0-1.4.8l-.3.3h0a.3491.3491,0,0,1-.2.1c-.1.1-.3.2-.4.3s-.2.2-.2.3C51.3,85.8,51.3,85.9,51.3,85.9Zm.3-.1h0c0-.1.1-.2.2-.3s.2-.2.3-.2a.0979.0979,0,0,0,.1-.1h0a.3491.3491,0,0,0,.2.1c.1.1.2.1.3.2.1,0,.3.1.4.1h.4a.2151.2151,0,0,0,.2-.2c0-.1-.1-.1-.2-.1h-.3a.3674.3674,0,0,1-.3-.1c-.1,0-.2-.1-.3-.2-.2-.2.1-.5.3-.6a2.2344,2.2344,0,0,1,1.2-.7c.1,0,.1,0,.1.1s.1.2.1.3.3.3.4.1c0-.1-.2-.2-.2-.2v-.4l.1-.1a.3491.3491,0,0,1,.2-.1c.1,0,.2-.1.3-.1a.3674.3674,0,0,0,.3-.1h.3c.1,0,.2.1.3.1a.2151.2151,0,0,1,.2.2l.2.2c0,.1.1.2.1.3v.4a.6012.6012,0,0,1-.1.4.7581.7581,0,0,1-.2.4c-.1.1-.1.2-.2.3s-.1.1-.2.1H54.4c-.3,0-.7.1-1,.1H52.3A.9794.9794,0,0,1,51.6,85.8Z" fill="#9a9a90"/></g><g id="heath_bd-11" data-name="heath_bd" style="isolation:isolate"><g id="Heath_FC-11" data-name="Heath_FC"><path d="M6.7,95c-.1,0-.1,0-.1-.1l-.4-.7v-.1a.0979.0979,0,0,1,.1-.1h.2l.4.7v.1l-.1.1-.1.1Z" fill="#6bbe66"/><path d="M8.1,94.7c-.1,0-.1,0-.2-.1l-.4-1.3c0-.1,0-.2.1-.2l.2-.1h.1l.1.1.4,1.3v.1l-.1.1c0,.1-.1.1-.2.1Z" fill="#6bbe66"/><path d="M9.7,92.5l.2,1.8v.1l-.1.1H9.6a.2151.2151,0,0,1-.2-.2l-.2-1.9.1-.1.2-.1h.1A.3674.3674,0,0,1,9.7,92.5Z" fill="#6bbe66"/><path d="M11,94.7h-.1l-.1-.1v-.1l.4-1.3.1-.1h.3l.1.1c.1,0,.1.1.1.2l-.4,1.3Z" fill="#6bbe66"/><path d="M12.6,95h0l-.2-.1-.1-.1v-.1l.4-.7.1-.1h.1l.1.1c.1,0,.1.1.1.2l-.4.7A.0979.0979,0,0,1,12.6,95Z" fill="#6bbe66"/></g></g><g id="roughgrass_bd-11" data-name="roughgrass_bd" style="isolation:isolate"><g id="RoughGrass_FC-11" data-name="RoughGrass_FC"><path d="M12.1,90.1v.1l-.1.1h-.3l-.3-.4v-.1l.1-.1h.3Z" fill="#6bbe66"/><path d="M14.4,89.5h0a1.7265,1.7265,0,0,0-.4-.3c-.1-.2.1-.7.1-.7v-.7A1.432,1.432,0,0,1,14.4,89.5Z" fill="#6bbe66"/><path d="M14.4,89.5c.1.1.2.1.2.4h-.3A.7559.7559,0,0,1,14.4,89.5Z" fill="#6bbe66"/><path d="M16.5,88.7l-.5.5a2.1644,2.1644,0,0,0-.3.6V90a.4829.4829,0,0,1-.4,0,2.18,2.18,0,0,0,.1-.6s0-1.1.5-1.2c0,0,.4-.2.1.1a1.67,1.67,0,0,0-.3.9C15.8,89,16.1,88.6,16.5,88.7Z" fill="#6bbe66"/><path d="M18.5,89.7v.1l-.3.4c0,.1-.1.1-.2,0h-.1l-.1-.1V90l.3-.5c0-.1.1-.1.2,0l.2.2Z" fill="#6bbe66"/><path d="M13.1,89.2l.2.7V90l-.1.1h-.1c-.1,0-.1,0-.2-.1l-.2-.7v-.1l.1-.1h.1C13,89,13.1,89.1,13.1,89.2Z" fill="#6bbe66"/><path d="M17.1,89.1h.1l.1.1v.1l-.2.7c0,.1-.1.1-.2.1h-.1l-.1-.1v-.1l.2-.7C16.9,89.1,17,89,17.1,89.1Z" fill="#6bbe66"/></g></g><g id="boulder_bd-11" data-name="boulder_bd" style="isolation:isolate"><path d="M3.4,88.7a.3491.3491,0,0,0-.1.2.2151.2151,0,0,0,.2.2h2c.3,0,.7-.1,1-.1h.9a2.7686,2.7686,0,0,1,.9.1.5845.5845,0,0,0,.4-.1.2151.2151,0,0,0-.2-.2.3491.3491,0,0,1-.2-.1,1.4385,1.4385,0,0,1,.2-.3c.1-.1.1-.3.2-.4a4.3311,4.3311,0,0,0,.1-.5V87c0-.1-.1-.3-.1-.4-.1-.1-.2-.2-.2-.3-.1-.1-.2-.2-.3-.2-.2,0-.3-.1-.4-.1H7.4c-.1,0-.3,0-.3.1-.1,0-.3.1-.4.1s-.2.1-.3.2a1.0073,1.0073,0,0,1-.3.1,3.0749,3.0749,0,0,0-1.4.8l-.3.3h0a.3491.3491,0,0,1-.2.1,2.2524,2.2524,0,0,1-.5.5c-.1.1-.2.2-.2.3A.3491.3491,0,0,1,3.4,88.7Zm.3,0h0c0-.1.1-.2.2-.3s.2-.2.3-.2a.0979.0979,0,0,0,.1-.1h0a.3491.3491,0,0,0,.2.1c.1.1.2.1.3.2.1,0,.3.1.4.1h.4a.2151.2151,0,0,0,.2-.2c0-.1-.1-.1-.2-.1H5.3a.3674.3674,0,0,1-.3-.1c-.1,0-.2-.1-.3-.2-.2-.2.1-.5.3-.6a2.2344,2.2344,0,0,1,1.2-.7c.1,0,.1,0,.1.1s.1.2.1.3.3.3.4.1c0-.1-.2-.2-.2-.2v-.4l.1-.1a.3491.3491,0,0,1,.2-.1c.1,0,.2-.1.3-.1a.3674.3674,0,0,0,.3-.1h.3c.1,0,.2.1.3.1a.2151.2151,0,0,1,.2.2l.2.2c0,.1.1.2.1.3v.4a.6012.6012,0,0,1-.1.4.7581.7581,0,0,1-.2.4c-.1.1-.1.2-.2.3s-.1.1-.2.1H6.5c-.3,0-.7.1-1,.1H4.4A3.1967,3.1967,0,0,1,3.7,88.7Z" fill="#9a9a90"/></g></svg>