<svg id="Layer_1" data-name="Layer 1" xmlns="http://www.w3.org/2000/svg" width="33.8667mm" height="33.8667mm" viewBox="0 0 96 96"><g id="coniferoustree_bd"><path d="M17.8,79.3c-.8-.1-1.6-1.5-1.6-1.5l.1,2.1c-.1.3-.6.1-.6.1V78a3.0819,3.0819,0,0,1-1.5,1.3c-.3,0-.1-.2-.1-.2,1.4-1.4,1.5-1.9,1.5-1.9a4.8858,4.8858,0,0,0,.1-1.6c-.7,1-1.2,1.1-1.2,1.1h-.2c-.1-.1.1-.3.1-.3a1.7556,1.7556,0,0,1,.5-.4h0a2.722,2.722,0,0,0,.8-1.2l.2-1s0-.1.1,0l.1,1a8.2294,8.2294,0,0,0,1.1,1.5c.1.1,0,.1,0,.1-.5-.1-1.1-.9-1.1-.9l.1,1.6a5.8543,5.8543,0,0,0,1.5,1.6C18.2,79.1,17.8,79.3,17.8,79.3Zm-3.2-2.9Zm.2-.1c-.1.1-.1.1-.2.1C14.7,76.4,14.7,76.3,14.8,76.3Zm.1-.1-.1.1Zm.1-.1-.1.1A.0979.0979,0,0,1,15,76.1Zm0,0Zm.1-.2Z" fill="#a9cda6"/></g><g id="coniferoustree_bd-2" data-name="coniferoustree_bd" style="isolation:isolate"><path d="M23,74.8c-.8-.1-1.6-1.5-1.6-1.5l.1,2.1c-.1.3-.6.1-.6.1v-2a3.0819,3.0819,0,0,1-1.5,1.3c-.3,0-.1-.2-.1-.2,1.4-1.4,1.5-1.9,1.5-1.9a4.8858,4.8858,0,0,0,.1-1.6c-.7,1-1.2,1.1-1.2,1.1h-.2c-.1-.1.1-.3.1-.3a1.7556,1.7556,0,0,1,.5-.4h0a2.722,2.722,0,0,0,.8-1.2l.2-1s0-.1.1,0l.1,1a8.2294,8.2294,0,0,0,1.1,1.5c.1.1,0,.1,0,.1-.5-.1-1.1-.9-1.1-.9l.1,1.6a5.8543,5.8543,0,0,0,1.5,1.6C23.3,74.7,23,74.8,23,74.8ZM19.8,72h0C19.7,72.1,19.8,72.1,19.8,72Zm.1-.1c-.1.1-.1.1-.2.1A.3491.3491,0,0,0,19.9,71.9Zm.2-.1-.1.1C20,71.8,20,71.8,20.1,71.8Zm.1-.1-.1.1C20.1,71.7,20.1,71.7,20.2,71.7Zm0,0Zm.1-.2Z" fill="#a9cda6"/></g><g id="coniferoustree_bd-3" data-name="coniferoustree_bd" style="isolation:isolate"><path d="M14.4,73.4c-.8-.1-1.6-1.5-1.6-1.5l.1,2.1c-.1.3-.6.1-.6.1v-2a3.0819,3.0819,0,0,1-1.5,1.3c-.3,0-.1-.2-.1-.2,1.4-1.4,1.5-1.9,1.5-1.9a4.8858,4.8858,0,0,0,.1-1.6c-.7,1-1.2,1.1-1.2,1.1h-.2c-.1-.1.1-.3.1-.3a1.7556,1.7556,0,0,1,.5-.4h0a2.722,2.722,0,0,0,.8-1.2l.2-1s0-.1.1,0l.1,1a8.2294,8.2294,0,0,0,1.1,1.5c.1.1,0,.1,0,.1-.5-.1-1.1-.9-1.1-.9l.1,1.6a5.8543,5.8543,0,0,0,1.5,1.6C14.7,73.2,14.4,73.4,14.4,73.4Zm-3.2-2.9Zm.2-.1c-.1.1-.1.1-.2.1C11.3,70.5,11.3,70.4,11.4,70.4Zm.1-.1-.1.1Zm.1-.1-.1.1A.0979.0979,0,0,1,11.6,70.2Zm0,0Zm.1-.1Z" fill="#a9cda6"/></g><g id="coniferoustree_bd-4" data-name="coniferoustree_bd" style="isolation:isolate"><path d="M53.1,69c-.8-.1-1.6-1.5-1.6-1.5l.1,2.1c-.1.4-.6.1-.6.1v-2A3.0819,3.0819,0,0,1,49.5,69c-.3,0-.1-.2-.1-.2C50.9,67.5,51,67,51,67a4.8858,4.8858,0,0,0,.1-1.6c-.7,1-1.2,1.1-1.2,1.1h-.2c-.1-.1.1-.3.1-.3a1.7556,1.7556,0,0,1,.5-.4h0a2.722,2.722,0,0,0,.8-1.2l.2-1s0-.1.1,0l.1,1a8.2294,8.2294,0,0,0,1.1,1.5c.1.1,0,.1,0,.1-.5-.1-1.1-.9-1.1-.9l.1,1.6a5.8543,5.8543,0,0,0,1.5,1.6C53.4,68.8,53.1,69,53.1,69Zm-3.2-2.8Zm.1-.1c-.1.1-.1.1-.2.1A.31.31,0,0,1,50,66.1Zm.2-.2-.1.1Zm.1-.1-.1.1Zm0,0Zm.1-.1Z" fill="#a9cda6"/></g><g id="coniferoustree_bd-5" data-name="coniferoustree_bd" style="isolation:isolate"><path d="M58.3,64.6c-.8-.1-1.6-1.5-1.6-1.5l.1,2.1c-.1.3-.6.1-.6.1v-2a3.0819,3.0819,0,0,1-1.5,1.3c-.3,0-.1-.2-.1-.2,1.4-1.4,1.5-1.9,1.5-1.9a4.8858,4.8858,0,0,0,.1-1.6C55.5,61.9,55,62,55,62h-.2l.2-.2a1.7556,1.7556,0,0,1,.5-.4h0a2.722,2.722,0,0,0,.8-1.2l.2-1s0-.1.1,0l.1,1a8.2294,8.2294,0,0,0,1.1,1.5c.1.1,0,.1,0,.1-.5-.1-1.1-.9-1.1-.9l.1,1.6a5.8543,5.8543,0,0,0,1.5,1.6C58.6,64.4,58.3,64.6,58.3,64.6Zm-3.2-2.8Zm.1-.2c-.1.1-.1.1-.2.1C55.1,61.7,55.2,61.7,55.2,61.6Zm.2-.1-.1.1Zm.1-.1-.1.1Zm0,0Zm.1-.1Z" fill="#a9cda6"/></g><g id="coniferoustree_bd-6" data-name="coniferoustree_bd" style="isolation:isolate"><path d="M49.7,63.1c-.8-.1-1.6-1.5-1.6-1.5l.1,2.1c-.1.3-.6.1-.6.1v-2a3.0819,3.0819,0,0,1-1.5,1.3c-.3,0-.1-.2-.1-.2,1.4-1.4,1.5-1.9,1.5-1.9a4.8858,4.8858,0,0,0,.1-1.6c-.7,1-1.2,1.1-1.2,1.1h-.2c-.1-.1.1-.3.1-.3a1.7556,1.7556,0,0,1,.5-.4h0a2.722,2.722,0,0,0,.8-1.2l.2-1s0-.1.1,0l.1,1a8.2294,8.2294,0,0,0,1.1,1.5c.1.1,0,.1,0,.1-.5-.1-1.1-.9-1.1-.9l.1,1.6a5.8543,5.8543,0,0,0,1.5,1.6C50,62.9,49.7,63.1,49.7,63.1Zm-3.2-2.8Zm.1-.1c-.1.1-.1.1-.2.1A.3491.3491,0,0,0,46.6,60.2Zm.2-.2-.1.1Zm.1-.1-.1.1Zm0,0Zm.1-.1Z" fill="#a9cda6"/></g><g id="coniferoustree_bd-7" data-name="coniferoustree_bd" style="isolation:isolate"><path d="M13.5,52.2c-.8-.1-1.6-1.5-1.6-1.5l.1,2.1c-.1.3-.6.1-.6.1v-2a3.0819,3.0819,0,0,1-1.5,1.3c-.3,0-.1-.2-.1-.2,1.4-1.4,1.5-1.9,1.5-1.9a4.8858,4.8858,0,0,0,.1-1.6c-.7,1-1.2,1.1-1.2,1.1H10c-.1-.1.1-.3.1-.3a1.7556,1.7556,0,0,1,.5-.4h0a2.722,2.722,0,0,0,.8-1.2l.2-1s0-.1.1,0l.1,1a8.2294,8.2294,0,0,0,1.1,1.5c.1.1,0,.1,0,.1-.5-.1-1.1-.9-1.1-.9l.1,1.6a5.8543,5.8543,0,0,0,1.5,1.6C13.9,52,13.5,52.2,13.5,52.2Zm-3.2-2.8Zm.2-.2c-.1.1-.1.1-.2.1C10.4,49.3,10.4,49.3,10.5,49.2Zm.1-.1-.1.1Zm.1-.1-.1.1Zm0,0Zm.1-.1Z" fill="#a9cda6"/></g><g id="coniferoustree_bd-8" data-name="coniferoustree_bd" style="isolation:isolate"><path d="M18.7,47.8c-.8-.1-1.6-1.5-1.6-1.5l.1,2.1c-.1.3-.6.1-.6.1v-2a3.0819,3.0819,0,0,1-1.5,1.3c-.3,0-.1-.2-.1-.2,1.4-1.4,1.5-1.9,1.5-1.9a4.8858,4.8858,0,0,0,.1-1.6c-.7,1-1.2,1.1-1.2,1.1h-.2c-.1-.1.1-.3.1-.3a1.7556,1.7556,0,0,1,.5-.4h0a2.722,2.722,0,0,0,.8-1.2l.2-1s0-.1.1,0l.1,1a8.2294,8.2294,0,0,0,1.1,1.5c.1.1,0,.1,0,.1-.5-.1-1.1-.9-1.1-.9l.1,1.6a5.8543,5.8543,0,0,0,1.5,1.6C19,47.6,18.7,47.8,18.7,47.8ZM15.5,45Zm.2-.2c-.1.1-.1.1-.2.1C15.6,44.9,15.6,44.8,15.7,44.8Zm.1-.1-.1.1Zm.1-.1-.1.1A.0979.0979,0,0,1,15.9,44.6Zm0,0Zm.1-.1Z" fill="#a9cda6"/></g><g id="coniferoustree_bd-9" data-name="coniferoustree_bd" style="isolation:isolate"><path d="M10.1,46.3c-.8-.1-1.6-1.5-1.6-1.5l.1,2.1c-.1.4-.6.1-.6.1V45a3.0819,3.0819,0,0,1-1.5,1.3c-.3,0-.1-.2-.1-.2C7.9,44.8,8,44.3,8,44.3a4.8858,4.8858,0,0,0,.1-1.6c-.7,1-1.2,1.1-1.2,1.1H6.7c-.1-.1.1-.3.1-.3a1.7556,1.7556,0,0,1,.5-.4h0a2.722,2.722,0,0,0,.8-1.2l.2-1s0-.1.1,0l.1,1a8.2294,8.2294,0,0,0,1.1,1.5c.1.1,0,.1,0,.1-.5-.1-1.1-.9-1.1-.9l.1,1.6a5.8543,5.8543,0,0,0,1.5,1.6C10.5,46.1,10.1,46.3,10.1,46.3ZM6.9,43.5Zm.2-.2-.2.2Zm.1-.1-.1.1Zm.1-.1-.1.1Zm0,0Zm.1-.1Z" fill="#a9cda6"/></g><g id="coniferoustree_bd-10" data-name="coniferoustree_bd" style="isolation:isolate"><path d="M22.1,32c-.8-.1-1.6-1.5-1.6-1.5l.1,2.1c-.1.4-.6.1-.6.1v-2A3.0819,3.0819,0,0,1,18.5,32c-.3,0-.1-.2-.1-.2,1.4-1.4,1.5-1.9,1.5-1.9a4.8858,4.8858,0,0,0,.1-1.6c-.7,1-1.2,1.1-1.2,1.1h-.2c-.1-.1.1-.3.1-.3a1.7556,1.7556,0,0,1,.5-.4h0c.8-.7.8-1.1.8-1.1l.2-1s0-.1.1,0l.1,1a8.2294,8.2294,0,0,0,1.1,1.5c.1.1,0,.1,0,.1-.5-.1-1.1-.9-1.1-.9l.1,1.6A5.8543,5.8543,0,0,0,22,31.5C22.4,31.8,22.1,32,22.1,32Zm-3.3-2.8ZM19,29c-.1.1-.1.1-.2.1C18.9,29.1,19,29.1,19,29Zm.1-.1L19,29Zm.1-.1-.1.1A.0979.0979,0,0,0,19.2,28.8Zm0,0Zm.2-.1Z" fill="#a9cda6"/></g><g id="coniferoustree_bd-11" data-name="coniferoustree_bd" style="isolation:isolate"><path d="M27.2,27.6c-.8-.1-1.6-1.5-1.6-1.5l.1,2.1c-.1.3-.6.1-.6.1v-2a3.0819,3.0819,0,0,1-1.5,1.3c-.3,0-.1-.2-.1-.2C24.9,26,25,25.5,25,25.5a4.8858,4.8858,0,0,0,.1-1.6c-.7,1-1.2,1.1-1.2,1.1h-.2c.1,0,.3-.2.3-.2a1.7556,1.7556,0,0,1,.5-.4h0a2.722,2.722,0,0,0,.8-1.2l.2-1s0-.1.1,0l.1,1a8.2294,8.2294,0,0,0,1.1,1.5c.1.1,0,.1,0,.1-.5-.1-1.1-.9-1.1-.9l.1,1.6a5.8543,5.8543,0,0,0,1.5,1.6C27.6,27.4,27.2,27.6,27.2,27.6ZM24,24.8Zm.2-.2c-.1.1-.1.1-.2.1C24.1,24.7,24.1,24.7,24.2,24.6Zm.1-.1-.1.1Zm.1-.1-.1.1Zm0,0Zm.1-.1Z" fill="#a9cda6"/></g><g id="coniferoustree_bd-12" data-name="coniferoustree_bd" style="isolation:isolate"><path d="M18.6,26.1c-.8-.1-1.6-1.5-1.6-1.5l.1,2.1c-.1.3-.6.1-.6.1v-2A3.0819,3.0819,0,0,1,15,26.1c-.2,0,0-.1,0-.1,1.4-1.4,1.5-1.9,1.5-1.9a4.8858,4.8858,0,0,0,.1-1.6c-.7,1-1.2,1.1-1.2,1.1h-.2c-.1-.1.1-.3.1-.3a1.7556,1.7556,0,0,1,.5-.4h0a2.722,2.722,0,0,0,.8-1.2l.2-1s0-.1.1,0l.1,1a8.2294,8.2294,0,0,0,1.1,1.5c.1.1,0,.1,0,.1-.5-.1-1.1-.9-1.1-.9l.1,1.6a5.8543,5.8543,0,0,0,1.5,1.6C19,25.9,18.6,26.1,18.6,26.1Zm-3.2-2.8Zm.2-.2c-.1.1-.1.1-.2.1C15.5,23.2,15.6,23.2,15.6,23.1Zm.1-.1-.1.1Zm.1-.1-.1.1A.0979.0979,0,0,0,15.8,22.9Zm0,0Zm.2-.1Z" fill="#a9cda6"/></g><g id="coniferoustree_bd-13" data-name="coniferoustree_bd" style="isolation:isolate"><path d="M51.7,13c-.8-.1-1.6-1.5-1.6-1.5l.1,2.1c-.1.3-.6.1-.6.1v-2A3.0819,3.0819,0,0,1,48.1,13c-.3,0-.1-.2-.1-.2,1.4-1.4,1.5-1.9,1.5-1.9a4.8858,4.8858,0,0,0,.1-1.6c-.7,1-1.2,1.1-1.2,1.1h-.2c-.1-.1.1-.3.1-.3a1.7556,1.7556,0,0,1,.5-.4h0a2.722,2.722,0,0,0,.8-1.2l.2-1s0-.1.1,0l.1,1A8.2294,8.2294,0,0,0,51.1,10c.1.1,0,.1,0,.1-.5-.1-1.1-.9-1.1-.9l.1,1.6a5.8543,5.8543,0,0,0,1.5,1.6C52,12.8,51.7,13,51.7,13Zm-3.2-2.8Zm.2-.2c-.1.1-.1.1-.2.1C48.6,10.1,48.6,10.1,48.7,10Zm.1-.1-.1.1A.0979.0979,0,0,1,48.8,9.9Zm.1-.1-.1.1Zm0,0Zm.1-.1Z" fill="#a9cda6"/></g><g id="coniferoustree_bd-14" data-name="coniferoustree_bd" style="isolation:isolate"><path d="M56.9,8.6c-.8-.1-1.6-1.5-1.6-1.5l.1,2.1c-.1.3-.6.1-.6.1v-2a3.0819,3.0819,0,0,1-1.5,1.3c-.3,0-.1-.2-.1-.2,1.4-1.4,1.5-1.9,1.5-1.9A5.4173,5.4173,0,0,0,54.9,5c-.7,1-1.2,1.1-1.2,1.1h-.2c-.1-.1.1-.3.1-.3a1.7556,1.7556,0,0,1,.5-.4h0a2.722,2.722,0,0,0,.8-1.2l.2-1s0-.1.1,0l.1,1a8.2294,8.2294,0,0,0,1.1,1.5c.1.1,0,.1,0,.1-.6,0-1.1-.8-1.1-.8l.1,1.6a5.8543,5.8543,0,0,0,1.5,1.6C57.2,8.4,56.9,8.6,56.9,8.6ZM53.7,5.8Zm.1-.2c-.1.1-.1.1-.2.1C53.7,5.7,53.8,5.7,53.8,5.6Zm.2-.1-.1.1A.0979.0979,0,0,1,54,5.5Zm.1-.1-.1.1A.0979.0979,0,0,1,54.1,5.4Zm0,0Zm.1-.1Z" fill="#a9cda6"/></g><g id="coniferoustree_bd-15" data-name="coniferoustree_bd" style="isolation:isolate"><path d="M48.3,7.1c-.8-.1-1.6-1.5-1.6-1.5l.1,2.1c-.1.3-.6.1-.6.1v-2a3.0819,3.0819,0,0,1-1.5,1.3c-.3,0-.1-.2-.1-.2C46,5.5,46.1,5,46.1,5a4.8858,4.8858,0,0,0,.1-1.6c-.7,1-1.2,1.1-1.2,1.1h-.2c-.1-.1.1-.3.1-.3a1.7556,1.7556,0,0,1,.5-.4h0a2.722,2.722,0,0,0,.8-1.2l.2-1s0-.1.1,0l.1,1a8.2294,8.2294,0,0,0,1.1,1.5c.1.1,0,.1,0,.1-.5-.1-1.1-.9-1.1-.9l.1,1.6a5.8543,5.8543,0,0,0,1.5,1.6C48.6,6.9,48.3,7.1,48.3,7.1ZM45.1,4.3Zm.2-.2c-.1.1-.1.1-.2.1C45.2,4.2,45.2,4.2,45.3,4.1Zm.1-.1-.1.1Zm.1-.1-.1.1A.0979.0979,0,0,0,45.5,3.9Zm0,0Zm.1-.1Z" fill="#a9cda6"/></g><g id="coniferoustree_bd-16" data-name="coniferoustree_bd" style="isolation:isolate"><path d="M73.4,28.6c-.8-.1-1.6-1.5-1.6-1.5l.1,2.1c-.1.3-.6.1-.6.1v-2a3.0819,3.0819,0,0,1-1.5,1.3c-.3,0-.1-.2-.1-.2,1.4-1.4,1.5-1.9,1.5-1.9a4.8858,4.8858,0,0,0,.1-1.6c-.7,1-1.2,1.1-1.2,1.1h-.2c-.1-.1.1-.3.1-.3a1.7556,1.7556,0,0,1,.5-.4h0a2.722,2.722,0,0,0,.8-1.2l.2-1s0-.1.1,0l.1,1a8.2294,8.2294,0,0,0,1.1,1.5c.1.1,0,.1,0,.1-.5-.1-1.1-.9-1.1-.9l.1,1.6A5.8543,5.8543,0,0,0,73.3,28C73.7,28.4,73.4,28.6,73.4,28.6Zm-3.2-2.8Zm.2-.2c-.1.1-.1.1-.2.1C70.3,25.7,70.3,25.7,70.4,25.6Zm.1-.1-.1.1Zm.1-.1-.1.1A.0979.0979,0,0,0,70.6,25.4Zm0,0Zm.1-.1Z" fill="#a9cda6"/></g><g id="coniferoustree_bd-17" data-name="coniferoustree_bd" style="isolation:isolate"><path d="M78.6,24.2c-.8-.1-1.6-1.5-1.6-1.5l.1,2.1c-.1.3-.6.1-.6.1v-2A3.0819,3.0819,0,0,1,75,24.2c-.3,0-.1-.2-.1-.2,1.4-1.4,1.5-1.9,1.5-1.9a4.8858,4.8858,0,0,0,.1-1.6c-.7,1-1.2,1.1-1.2,1.1h-.2c-.1-.1.1-.3.1-.3a1.7556,1.7556,0,0,1,.5-.4h0a2.722,2.722,0,0,0,.8-1.2l.2-1s0-.1.1,0l.1,1A8.2294,8.2294,0,0,0,78,21.2c.1.1,0,.1,0,.1-.5-.1-1.1-.9-1.1-.9L77,22a5.8543,5.8543,0,0,0,1.5,1.6C78.9,24,78.6,24.2,78.6,24.2Zm-3.2-2.8Zm.1-.2c-.1.1-.1.1-.2.1C75.4,21.3,75.5,21.3,75.5,21.2Zm.2-.1-.1.1Zm.1-.1-.1.1A.0979.0979,0,0,1,75.8,21Zm0,0Zm.1-.1Z" fill="#a9cda6"/></g><g id="coniferoustree_bd-18" data-name="coniferoustree_bd" style="isolation:isolate"><path d="M70,22.7c-.8-.1-1.6-1.5-1.6-1.5l.1,2.1c-.1.3-.6.1-.6.1v-2a3.0819,3.0819,0,0,1-1.5,1.3c-.3,0-.1-.2-.1-.2,1.4-1.4,1.5-1.9,1.5-1.9a4.8858,4.8858,0,0,0,.1-1.6c-.7,1-1.2,1.1-1.2,1.1h-.2c-.1-.1.1-.3.1-.3a1.7556,1.7556,0,0,1,.5-.4h0a2.722,2.722,0,0,0,.8-1.2l.2-1s0-.1.1,0l.1,1a8.2294,8.2294,0,0,0,1.1,1.5c.1.1,0,.1,0,.1-.5-.1-1.1-.9-1.1-.9l.1,1.6a5.8543,5.8543,0,0,0,1.5,1.6C70.3,22.5,70,22.7,70,22.7Zm-3.2-2.8Zm.2-.1c-.1.1-.1.1-.2.1C66.9,19.8,66.9,19.8,67,19.8Zm.1-.2-.1.1Zm.1-.1-.1.1A.0979.0979,0,0,0,67.2,19.5Zm0,0Zm.1-.1Z" fill="#a9cda6"/></g><g id="coniferoustree_bd-19" data-name="coniferoustree_bd" style="isolation:isolate"><path d="M84.1,12.3c-.8-.1-1.6-1.5-1.6-1.5l.1,2.1c-.1.3-.6.1-.6.1V11a3.0819,3.0819,0,0,1-1.5,1.3c-.3,0-.1-.2-.1-.2,1.4-1.4,1.5-1.9,1.5-1.9A4.8858,4.8858,0,0,0,82,8.6c-.7,1-1.2,1.1-1.2,1.1h-.2c-.1-.1.1-.3.1-.3a1.7556,1.7556,0,0,1,.5-.4h0A2.722,2.722,0,0,0,82,7.8l.2-1s0-.1.1,0l.1,1a8.2294,8.2294,0,0,0,1.1,1.5c.1.1,0,.1,0,.1-.5-.1-1.1-.9-1.1-.9l.1,1.6A5.8543,5.8543,0,0,0,84,11.7C84.4,12.1,84.1,12.3,84.1,12.3ZM80.9,9.5Zm.2-.1c-.1.1-.1.1-.2.1C81,9.5,81,9.4,81.1,9.4Zm.1-.1-.1.1C81.1,9.3,81.1,9.3,81.2,9.3Zm.1-.1-.1.1A.0979.0979,0,0,1,81.3,9.2Zm0,0Zm.1-.2Z" fill="#a9cda6"/></g><g id="coniferoustree_bd-20" data-name="coniferoustree_bd" style="isolation:isolate"><path d="M89.3,7.9c-.8-.1-1.6-1.5-1.6-1.5l.1,2.1c-.1.3-.6.1-.6.1v-2a3.0819,3.0819,0,0,1-1.5,1.3c-.3,0-.1-.2-.1-.2,1.4-1.4,1.5-1.9,1.5-1.9a4.8858,4.8858,0,0,0,.1-1.6c-.7,1-1.2,1.1-1.2,1.1h-.2l.2-.1a1.7556,1.7556,0,0,1,.5-.4h0a2.722,2.722,0,0,0,.8-1.2l.2-1s0-.1.1,0l.1,1a8.2294,8.2294,0,0,0,1.1,1.5c.1.1,0,.1,0,.1-.5-.1-1.1-.9-1.1-.9L87.8,6a5.8543,5.8543,0,0,0,1.5,1.6C89.6,7.7,89.3,7.9,89.3,7.9ZM86.1,5.1h0C86,5.2,86,5.1,86.1,5.1Zm.1-.1c-.1.1-.1.1-.2.1A.3491.3491,0,0,0,86.2,5Zm.2-.2-.1.1Zm.1,0-.1.1C86.4,4.8,86.4,4.8,86.5,4.8Zm0,0Zm.1-.2Z" fill="#a9cda6"/></g><g id="coniferoustree_bd-21" data-name="coniferoustree_bd" style="isolation:isolate"><path d="M80.7,6.5C79.9,6.3,79.1,5,79.1,5l.1,2.1c-.1.3-.6.1-.6.1v-2a3.0819,3.0819,0,0,1-1.5,1.3c-.3,0-.1-.2-.1-.2,1.4-1.4,1.5-1.9,1.5-1.9a4.8858,4.8858,0,0,0,.1-1.6c-.7,1-1.2,1.1-1.2,1.1h-.2c-.1-.1.1-.3.1-.3a1.7556,1.7556,0,0,1,.5-.4h0A2.5584,2.5584,0,0,0,78.7,2l.2-1s0-.1.1,0l.1,1a8.2294,8.2294,0,0,0,1.1,1.5c.1.1,0,.1,0,.1-.5-.1-1.1-.9-1.1-.9l.1,1.6a5.8543,5.8543,0,0,0,1.5,1.6C81,6.3,80.7,6.5,80.7,6.5ZM77.5,3.6h0C77.4,3.7,77.5,3.7,77.5,3.6Zm.1-.1c-.1.1-.1.1-.2.1A.3491.3491,0,0,0,77.6,3.5Zm.2-.1-.1.1C77.7,3.4,77.7,3.4,77.8,3.4Zm.1-.1-.1.1A.0979.0979,0,0,1,77.9,3.3Zm0,0Zm.1-.2Z" fill="#a9cda6"/></g><g id="coniferoustree_bd-22" data-name="coniferoustree_bd" style="isolation:isolate"><path d="M74.4,47.8c-.8-.1-1.6-1.5-1.6-1.5l.1,2.1c-.1.3-.6.1-.6.1v-2a3.0819,3.0819,0,0,1-1.5,1.3c-.3,0-.1-.2-.1-.2,1.4-1.4,1.5-1.9,1.5-1.9a4.8858,4.8858,0,0,0,.1-1.6c-.7,1-1.2,1.1-1.2,1.1h-.2c-.1-.1.1-.3.1-.3a1.7556,1.7556,0,0,1,.5-.4h0a2.722,2.722,0,0,0,.8-1.2l.2-1s0-.1.1,0l.1,1a8.2294,8.2294,0,0,0,1.1,1.5c.1.1,0,.1,0,.1-.5-.1-1.1-.9-1.1-.9l.1,1.6a5.8543,5.8543,0,0,0,1.5,1.6C74.7,47.6,74.4,47.8,74.4,47.8ZM71.2,45Zm.1-.2c-.1.1-.1.1-.2.1C71.2,44.9,71.3,44.9,71.3,44.8Zm.2-.1-.1.1A.0979.0979,0,0,1,71.5,44.7Zm.1-.1-.1.1C71.5,44.6,71.5,44.6,71.6,44.6Zm0,0Zm.1-.1Z" fill="#a9cda6"/></g><g id="coniferoustree_bd-23" data-name="coniferoustree_bd" style="isolation:isolate"><path d="M79.5,43.4c-.8-.1-1.6-1.5-1.6-1.5L78,44c-.1.3-.6.1-.6.1v-2a3.0819,3.0819,0,0,1-1.5,1.3c-.3,0-.1-.2-.1-.2,1.4-1.4,1.5-1.9,1.5-1.9a4.8858,4.8858,0,0,0,.1-1.6c-.7,1-1.2,1.1-1.2,1.1H76c-.1-.1.1-.3.1-.3a1.7556,1.7556,0,0,1,.5-.4h0a2.722,2.722,0,0,0,.8-1.2l.2-1s0-.1.1,0l.1,1a8.2294,8.2294,0,0,0,1.1,1.5c.1.1,0,.1,0,.1-.5-.1-1.1-.9-1.1-.9l.1,1.6a5.8543,5.8543,0,0,0,1.5,1.6C79.9,43.2,79.5,43.4,79.5,43.4Zm-3.2-2.9Zm.2-.1c-.1.1-.1.1-.2.1A.3491.3491,0,0,0,76.5,40.4Zm.1-.1-.1.1Zm.1-.1-.1.1Zm0,0Zm.2-.1Z" fill="#a9cda6"/></g><g id="coniferoustree_bd-24" data-name="coniferoustree_bd" style="isolation:isolate"><path d="M71,41.9c-.8-.1-1.6-1.5-1.6-1.5l.1,2.1c-.1.3-.6.1-.6.1v-2a3.0819,3.0819,0,0,1-1.5,1.3c-.3,0-.1-.2-.1-.2,1.4-1.4,1.5-1.9,1.5-1.9a4.8858,4.8858,0,0,0,.1-1.6c-.7,1-1.2,1.1-1.2,1.1h-.2c-.1-.1.1-.3.1-.3a1.7556,1.7556,0,0,1,.5-.4h0a2.722,2.722,0,0,0,.8-1.2l.2-1s0-.1.1,0l.1,1a8.2294,8.2294,0,0,0,1.1,1.5c.1.1,0,.1,0,.1-.5-.1-1.1-.9-1.1-.9l.1,1.6a5.8543,5.8543,0,0,0,1.5,1.6C71.3,41.7,71,41.9,71,41.9Zm-3.2-2.8Zm.1-.2c-.1.1-.1.1-.2.1C67.8,39,67.9,39,67.9,38.9Zm.1-.1-.1.1A.0979.0979,0,0,0,68,38.8Zm.1-.1-.1.1A.0979.0979,0,0,0,68.1,38.7Zm0,0Zm.2-.1Z" fill="#a9cda6"/></g><g id="coniferoustree_bd-25" data-name="coniferoustree_bd" style="isolation:isolate"><path d="M84.6,70.9c-.8-.1-1.6-1.5-1.6-1.5l.1,2.1c-.1.3-.6.1-.6.1v-2A3.0819,3.0819,0,0,1,81,70.9c-.3,0-.1-.2-.1-.2,1.4-1.4,1.5-1.9,1.5-1.9a4.8858,4.8858,0,0,0,.1-1.6c-.7,1-1.2,1.1-1.2,1.1h-.2c-.1-.1.1-.3.1-.3a1.7556,1.7556,0,0,1,.5-.4h0a2.722,2.722,0,0,0,.8-1.2l.2-1s0-.1.1,0l.1,1A8.2294,8.2294,0,0,0,84,67.9c.1.1,0,.1,0,.1-.5-.1-1.1-.9-1.1-.9l.1,1.6a5.8543,5.8543,0,0,0,1.5,1.6C84.9,70.7,84.6,70.9,84.6,70.9Zm-3.2-2.8Zm.1-.2c-.1.1-.1.1-.2.1A.3491.3491,0,0,0,81.5,67.9Zm.2-.1-.1.1A.0979.0979,0,0,1,81.7,67.8Zm.1-.1-.1.1C81.7,67.7,81.7,67.7,81.8,67.7Zm0,0Zm.1-.1Z" fill="#a9cda6"/></g><g id="coniferoustree_bd-26" data-name="coniferoustree_bd" style="isolation:isolate"><path d="M89.8,66.5c-.8-.2-1.6-1.5-1.6-1.5l.1,2.1c-.1.3-.6.1-.6.1v-2a3.0819,3.0819,0,0,1-1.5,1.3c-.3,0-.1-.2-.1-.2,1.4-1.4,1.5-1.9,1.5-1.9a4.8858,4.8858,0,0,0,.1-1.6c-.7,1-1.2,1.1-1.2,1.1h-.2c-.1-.1.1-.3.1-.3a1.7556,1.7556,0,0,1,.5-.4h0a2.722,2.722,0,0,0,.8-1.2l.2-1s0-.1.1,0l.1,1a8.2294,8.2294,0,0,0,1.1,1.5c.1.1,0,.1,0,.1-.5-.1-1.1-.9-1.1-.9l.1,1.6a5.8543,5.8543,0,0,0,1.5,1.6C90.1,66.3,89.8,66.5,89.8,66.5Zm-3.2-2.9c0,.1-.1.1,0,0Zm.1-.1c-.1.1-.1.1-.2.1A.3491.3491,0,0,0,86.7,63.5Zm.2-.1-.1.1A.0979.0979,0,0,1,86.9,63.4Zm.1-.1-.1.1C86.9,63.3,86.9,63.3,87,63.3Zm0,0Zm.1-.1Z" fill="#a9cda6"/></g><g id="coniferoustree_bd-27" data-name="coniferoustree_bd" style="isolation:isolate"><path d="M81.2,65c-.8-.1-1.6-1.5-1.6-1.5l.1,2.1c-.1.3-.6.1-.6.1v-2A3.0819,3.0819,0,0,1,77.6,65c-.3,0-.1-.2-.1-.2,1.4-1.4,1.5-1.9,1.5-1.9a4.8858,4.8858,0,0,0,.1-1.6c-.7,1-1.2,1.1-1.2,1.1h-.2c-.1-.1.1-.3.1-.3a1.7556,1.7556,0,0,1,.5-.4h0a2.722,2.722,0,0,0,.8-1.2l.2-1s0-.1.1,0l.1,1A8.2294,8.2294,0,0,0,80.6,62c.1.1,0,.1,0,.1-.5-.1-1.1-.9-1.1-.9l.1,1.6a5.8543,5.8543,0,0,0,1.5,1.6C81.5,64.8,81.2,65,81.2,65ZM78,62.2Zm.1-.2c-.1.1-.1.1-.2.1C78,62.1,78.1,62.1,78.1,62Zm.2-.1-.1.1A.0979.0979,0,0,1,78.3,61.9Zm.1-.1-.1.1A.0979.0979,0,0,1,78.4,61.8Zm0,0Zm.1-.1Z" fill="#a9cda6"/></g><g id="coniferoustree_bd-28" data-name="coniferoustree_bd" style="isolation:isolate"><path d="M59.3,91.4c-.8-.1-1.6-1.5-1.6-1.5l.1,2.1c-.1.3-.6.1-.6.1v-2a3.0819,3.0819,0,0,1-1.5,1.3c-.3,0-.1-.2-.1-.2,1.4-1.4,1.5-1.9,1.5-1.9a4.8858,4.8858,0,0,0,.1-1.6c-.7,1-1.2,1.1-1.2,1.1h-.2c-.1-.1.1-.3.1-.3a1.7556,1.7556,0,0,1,.5-.4h0a2.722,2.722,0,0,0,.8-1.2l.2-1s0-.1.1,0l.1,1a8.2294,8.2294,0,0,0,1.1,1.5c.1.1,0,.1,0,.1-.5-.1-1.1-.9-1.1-.9l.1,1.6a5.8543,5.8543,0,0,0,1.5,1.6C59.6,91.2,59.3,91.4,59.3,91.4Zm-3.2-2.8Zm.2-.1c-.1.1-.1.1-.2.1C56.2,88.6,56.2,88.5,56.3,88.5Zm.1-.2-.1.1A.0979.0979,0,0,0,56.4,88.3Zm.1,0-.1.1A.0979.0979,0,0,1,56.5,88.3Zm0,0Zm.1-.2Z" fill="#a9cda6"/></g><g id="coniferoustree_bd-29" data-name="coniferoustree_bd" style="isolation:isolate"><path d="M64.5,87c-.8-.1-1.6-1.5-1.6-1.5l.1,2.1c-.1.3-.6.1-.6.1v-2A3.0819,3.0819,0,0,1,60.9,87c-.3,0-.1-.2-.1-.2,1.4-1.4,1.5-1.9,1.5-1.9a4.8858,4.8858,0,0,0,.1-1.6c-.7,1-1.2,1.1-1.2,1.1H61c-.1-.1.1-.3.1-.3a1.7556,1.7556,0,0,1,.5-.4h0a2.722,2.722,0,0,0,.8-1.2l.2-1s0-.1.1,0l.1,1A8.2294,8.2294,0,0,0,63.9,84c.1.1,0,.1,0,.1-.5-.1-1.1-.9-1.1-.9l.1,1.6a5.8543,5.8543,0,0,0,1.5,1.6C64.8,86.8,64.5,87,64.5,87Zm-3.2-2.8Zm.1-.1c-.1.1-.1.1-.2.1A.3491.3491,0,0,0,61.4,84.1Zm.2-.2-.1.1Zm.1-.1-.1.1Zm0,0Zm.1-.1Z" fill="#a9cda6"/></g><g id="coniferoustree_bd-30" data-name="coniferoustree_bd" style="isolation:isolate"><path d="M55.9,85.6c-.8-.1-1.6-1.5-1.6-1.5l.1,2.1c-.1.3-.6.1-.6.1v-2a3.0819,3.0819,0,0,1-1.5,1.3c-.3,0-.1-.2-.1-.2,1.4-1.4,1.5-1.9,1.5-1.9a3.1179,3.1179,0,0,0,.2-1.5c-.7,1-1.2,1.1-1.2,1.1h-.2c-.1-.1.1-.3.1-.3a1.7556,1.7556,0,0,1,.5-.4h0a2.722,2.722,0,0,0,.8-1.2l.2-1s0-.1.1,0l.1,1a8.2294,8.2294,0,0,0,1.1,1.5c.1.1,0,.1,0,.1-.5-.1-1.1-.9-1.1-.9l.1,1.6a5.8543,5.8543,0,0,0,1.5,1.6C56.2,85.4,55.9,85.6,55.9,85.6Zm-3.2-2.9Zm.2-.1c-.1.1-.1.1-.2.1C52.8,82.7,52.8,82.6,52.9,82.6Zm.1-.1-.1.1C52.9,82.5,52.9,82.5,53,82.5Zm.1-.1-.1.1A.0979.0979,0,0,1,53.1,82.4Zm0,0Zm.1-.2Z" fill="#a9cda6"/></g><g id="coniferoustree_bd-31" data-name="coniferoustree_bd" style="isolation:isolate"><path d="M13.2,94.2c-.8-.1-1.6-1.5-1.6-1.5l.1,2.1c-.1.3-.6.1-.6.1v-2a3.0819,3.0819,0,0,1-1.5,1.3c-.3,0-.1-.2-.1-.2,1.4-1.4,1.5-1.9,1.5-1.9a4.8858,4.8858,0,0,0,.1-1.6c-.7,1-1.2,1.1-1.2,1.1H9.7c-.1-.1.1-.3.1-.3a1.7556,1.7556,0,0,1,.5-.4h0a2.722,2.722,0,0,0,.8-1.2l.2-1s0-.1.1,0l.1,1a8.2294,8.2294,0,0,0,1.1,1.5c.1.1,0,.1,0,.1-.5-.1-1.1-.9-1.1-.9l.1,1.6a5.8543,5.8543,0,0,0,1.5,1.6C13.5,94,13.2,94.2,13.2,94.2ZM10,91.4Zm.1-.2c-.1.1-.1.1-.2.1C10,91.3,10.1,91.3,10.1,91.2Zm.2-.1-.1.1A.0979.0979,0,0,1,10.3,91.1Zm.1-.1-.1.1A.0979.0979,0,0,1,10.4,91Zm0,0Zm.1-.1Z" fill="#a9cda6"/></g><g id="coniferoustree_bd-32" data-name="coniferoustree_bd" style="isolation:isolate"><path d="M18.4,89.8c-.8-.1-1.6-1.5-1.6-1.5l.1,2.1c-.1.3-.6.1-.6.1v-2a3.0819,3.0819,0,0,1-1.5,1.3c-.3,0-.1-.2-.1-.2,1.4-1.4,1.5-1.9,1.5-1.9a4.8858,4.8858,0,0,0,.1-1.6c-.7,1-1.2,1.1-1.2,1.1h-.2c-.1-.1.1-.3.1-.3a1.7556,1.7556,0,0,1,.5-.4h0a2.722,2.722,0,0,0,.8-1.2l.2-1s0-.1.1,0l.1,1a8.2294,8.2294,0,0,0,1.1,1.5c.1.1,0,.1,0,.1-.5-.1-1.1-.9-1.1-.9l.1,1.6a5.8543,5.8543,0,0,0,1.5,1.6C18.7,89.6,18.4,89.8,18.4,89.8ZM15.2,87Zm.1-.2c-.1.1-.1.1-.2.1C15.2,86.9,15.3,86.9,15.3,86.8Zm.1-.1-.1.1A.0979.0979,0,0,0,15.4,86.7Zm.1-.1-.1.1Zm0,0Zm.2-.1Z" fill="#a9cda6"/></g><g id="coniferoustree_bd-33" data-name="coniferoustree_bd" style="isolation:isolate"><path d="M9.8,88.3c-.8-.1-1.6-1.5-1.6-1.5l.1,2.1c-.1.4-.6.1-.6.1V87a3.0819,3.0819,0,0,1-1.5,1.3c-.3,0-.1-.2-.1-.2,1.4-1.4,1.5-1.9,1.5-1.9a4.8858,4.8858,0,0,0,.1-1.6c-.7,1-1.2,1.1-1.2,1.1H6.3c-.1-.1.1-.3.1-.3a1.7556,1.7556,0,0,1,.5-.4h0a2.722,2.722,0,0,0,.8-1.2l.2-1s0-.1.1,0l.1,1a8.2294,8.2294,0,0,0,1.1,1.5c.1.1,0,.1,0,.1-.5-.1-1.1-.9-1.1-.9l.1,1.6a5.8543,5.8543,0,0,0,1.5,1.6C10.1,88.1,9.8,88.3,9.8,88.3ZM6.6,85.5Zm.1-.2c-.1.1-.1.1-.2.1C6.6,85.4,6.7,85.4,6.7,85.3Zm.2-.1-.1.1A.0979.0979,0,0,1,6.9,85.2Zm.1-.1-.1.1A.0979.0979,0,0,1,7,85.1Zm0,0Zm.1-.1Z" fill="#a9cda6"/></g></svg>