<svg id="Layer_1" data-name="Layer 1" xmlns="http://www.w3.org/2000/svg" width="33.8667mm" height="33.8667mm" viewBox="0 0 96 96"><g id="heath_bd"><g id="Heath_FC"><path d="M12.2,79.5c-.1,0-.1,0-.1-.1l-.4-.7v-.1a.0979.0979,0,0,1,.1-.1l.1-.1H12l.1.1.4.7v.1l-.1.1-.2.1Z" fill="#6bbe66"/><path d="M13.7,79.2c-.1,0-.1,0-.2-.1l-.4-1.3c0-.1,0-.2.1-.2l.1-.1h.1l.1.1.4,1.3V79l-.1.1c0,.1,0,.1-.1.1Z" fill="#6bbe66"/><path d="M15.3,76.9l.2,1.8v.1l-.2.2h-.2a.2151.2151,0,0,1-.2-.2L14.7,77l.1-.1.2-.1h.1C15.2,76.8,15.3,76.8,15.3,76.9Z" fill="#6bbe66"/><path d="M16.6,79.2h-.1l-.1-.1V79l.4-1.3.1-.1h.3l.1.1c.1,0,.1.1.1.2L17,79.2c-.3-.1-.3,0-.4,0Z" fill="#6bbe66"/><path d="M18.1,79.5h0l-.2-.1-.1-.1v-.1l.4-.7.1-.1h.1l.1.1c.1,0,.1.1.1.2l-.4.7Z" fill="#6bbe66"/></g></g><g id="boulder_bd"><path d="M17.9,74.7a.3491.3491,0,0,0-.1.2.2151.2151,0,0,0,.2.2h2c.3,0,.7-.1,1-.1h.9a2.7686,2.7686,0,0,1,.9.1.5845.5845,0,0,0,.4-.1s-.1-.2-.2-.2a.3491.3491,0,0,1-.2-.1,1.4385,1.4385,0,0,1,.2-.3c.1-.1.1-.3.2-.4a4.3311,4.3311,0,0,0,.1-.5V73c0-.1-.1-.3-.1-.4-.1-.1-.2-.2-.2-.3-.1-.1-.2-.2-.3-.2s-.2-.1-.3-.1H22a.6012.6012,0,0,0-.4.1c-.1,0-.3.1-.4.1s-.2.1-.3.2a1.0073,1.0073,0,0,1-.3.1,3.0749,3.0749,0,0,0-1.4.8l-.3.3h0a.3491.3491,0,0,1-.2.1c-.1.1-.3.2-.4.3a1.4385,1.4385,0,0,0-.2.3C17.9,74.6,17.9,74.7,17.9,74.7Zm.3,0h0c0-.1.1-.2.2-.3s.2-.2.3-.2a.0979.0979,0,0,0,.1-.1h0a.3491.3491,0,0,0,.2.1c.1.1.2.1.3.2.1,0,.3.1.4.1h.4a.2151.2151,0,0,0,.2-.2c0-.1-.1-.1-.2-.1h-.3a.3674.3674,0,0,1-.3-.1c-.1,0-.2-.1-.3-.2-.2-.2.1-.5.3-.6a2.2344,2.2344,0,0,1,1.2-.7c.1,0,.1,0,.1.1s.1.2.1.3.3.3.4.1c0-.1-.2-.2-.2-.2v-.4l.1-.1a.3491.3491,0,0,1,.2-.1c.1,0,.2-.1.3-.1a.3674.3674,0,0,0,.3-.1c.1-.1.2,0,.3,0s.2.1.3.1a.2151.2151,0,0,1,.2.2l.2.2c0,.1.1.2.1.3v.4a.6012.6012,0,0,1-.1.4.7581.7581,0,0,1-.2.4c-.1.1-.1.2-.2.3s-.1.1-.2.1H21c-.3,0-.7.1-1,.1H18.9A4.1839,4.1839,0,0,1,18.2,74.7Z" fill="#9a9a90"/></g><g id="boulder_bd-2" data-name="boulder_bd" style="isolation:isolate"><path d="M8.9,73.2a.3491.3491,0,0,0-.1.2.2151.2151,0,0,0,.2.2h2c.3,0,.7-.1,1-.1h.9a2.7686,2.7686,0,0,1,.9.1.5845.5845,0,0,0,.4-.1.2151.2151,0,0,0-.2-.2.3491.3491,0,0,1-.2-.1,1.4385,1.4385,0,0,1,.2-.3c.1-.1.1-.3.2-.4a4.3311,4.3311,0,0,0,.1-.5v-.5c0-.1-.1-.3-.1-.4-.1-.1-.2-.2-.2-.3-.1-.1-.2-.2-.3-.2s-.2-.1-.3-.1H13a.6012.6012,0,0,0-.4.1c-.1,0-.3.1-.4.1s-.2.1-.3.2a1.0073,1.0073,0,0,1-.3.1,3.0749,3.0749,0,0,0-1.4.8l-.3.3h0a.3491.3491,0,0,1-.2.1c-.1.1-.3.2-.4.3-.2.3-.3.4-.3.5A.3491.3491,0,0,1,8.9,73.2Zm.3-.1h0c0-.1.1-.2.2-.3s.2-.2.3-.2a.0979.0979,0,0,0,.1-.1h0a.3491.3491,0,0,0,.2.1c.1.1.2.1.3.2.1,0,.3.1.4.1h.4a.2151.2151,0,0,0,.2-.2c0-.1-.1-.1-.2-.1h-.3a.3674.3674,0,0,1-.3-.1c-.1,0-.2-.1-.3-.2-.2-.2.1-.5.3-.6a2.2344,2.2344,0,0,1,1.2-.7c.1,0,.1,0,.1.1s.1.2.1.3.3.3.4.1c0-.1-.2-.2-.2-.2v-.4l.1-.1a.3491.3491,0,0,1,.2-.1c.1,0,.2-.1.3-.1a.3674.3674,0,0,0,.3-.1h.3c.1,0,.2.1.3.1a.2151.2151,0,0,1,.2.2l.2.2c0,.1.1.2.1.3v.4a.6012.6012,0,0,1-.1.4.7581.7581,0,0,1-.2.4c-.1.1-.1.2-.2.3s-.1.1-.2.1H12c-.3,0-.7.1-1,.1H9.9A.9806.9806,0,0,1,9.2,73.1Z" fill="#9a9a90"/></g><g id="heath_bd-2" data-name="heath_bd" style="isolation:isolate"><g id="Heath_FC-2" data-name="Heath_FC"><path d="M48.9,68.8c-.1,0-.1,0-.1-.1l-.4-.7v-.1a.0979.0979,0,0,1,.1-.1l.1-.1h.1l.1.1.4.7v.1l-.1.1-.2.1Z" fill="#6bbe66"/><path d="M50.4,68.5c-.1,0-.1,0-.2-.1l-.4-1.3c0-.1,0-.2.1-.2l.1-.1h.1l.1.1.4,1.3v.1l-.1.1c0,.1,0,.1-.1.1Z" fill="#6bbe66"/><path d="M52,66.3l.2,1.8v.1l-.2.1h-.2a.2151.2151,0,0,1-.2-.2l-.2-1.9v-.1l.2-.1h.1Q52,66.15,52,66.3Z" fill="#6bbe66"/><path d="M53.3,68.5h-.1l-.2-.1v-.1l.4-1.3v-.1h.3l.1.1c.1,0,.1.1.1.2l-.4,1.3Z" fill="#6bbe66"/><path d="M54.8,68.8h0l-.2-.1-.1-.1v-.1l.4-.7.1-.1h.1l.1.1c.1,0,.1.1.1.2l-.4.7A.0979.0979,0,0,1,54.8,68.8Z" fill="#6bbe66"/></g></g><g id="boulder_bd-3" data-name="boulder_bd" style="isolation:isolate"><path d="M54.6,64.1a.3491.3491,0,0,0-.1.2.2151.2151,0,0,0,.2.2h2c.3,0,.7-.1,1-.1h.9a2.4828,2.4828,0,0,1,.9.1.5845.5845,0,0,0,.4-.1.2151.2151,0,0,0-.2-.2.3491.3491,0,0,1-.2-.1,1.4385,1.4385,0,0,1,.2-.3c.1-.1.1-.3.2-.4a4.3311,4.3311,0,0,0,.1-.5v-.5c0-.1-.1-.3-.1-.4-.1-.1-.2-.2-.2-.3-.1-.1-.2-.2-.3-.2s-.2-.1-.3-.1h-.4a.6012.6012,0,0,0-.4.1c-.1,0-.3.1-.4.1s-.2.1-.3.2a1.0073,1.0073,0,0,1-.3.1,3.0749,3.0749,0,0,0-1.4.8l-.3.3h0a.3491.3491,0,0,1-.2.1c-.1.1-.3.2-.4.3a1.4385,1.4385,0,0,0-.2.3C54.6,64,54.6,64.1,54.6,64.1Zm.3-.1h0c0-.1.1-.2.2-.3s.2-.2.3-.2a.0979.0979,0,0,0,.1-.1h0a.3491.3491,0,0,0,.2.1c.1.1.2.1.3.2.1,0,.3.1.4.1h.4a.2151.2151,0,0,0,.2-.2c0-.1-.1-.1-.2-.1h-.3a.3674.3674,0,0,1-.3-.1c-.1,0-.2-.1-.3-.2-.2-.2.1-.5.3-.6a2.2344,2.2344,0,0,1,1.2-.7c.1,0,.1,0,.1.1s.1.2.1.3.3.3.4.1c0-.1-.2-.2-.2-.2v-.4l.1-.1a.3491.3491,0,0,1,.2-.1c.1,0,.2-.1.3-.1a.3674.3674,0,0,0,.3-.1H59c.1,0,.2.1.3.1a.2151.2151,0,0,1,.2.2l.2.2c0,.1.1.2.1.3v.4a.6012.6012,0,0,1-.1.4.7581.7581,0,0,1-.2.4c-.1.1-.1.2-.2.3s-.1.1-.2.1H57.7c-.3,0-.7.1-1,.1H55.6C55.1,64.1,54.9,64,54.9,64Z" fill="#9a9a90"/></g><g id="boulder_bd-4" data-name="boulder_bd" style="isolation:isolate"><path d="M45.6,62.5a.3491.3491,0,0,0-.1.2.2151.2151,0,0,0,.2.2h2c.3,0,.7-.1,1-.1h.9a2.4828,2.4828,0,0,1,.9.1.5845.5845,0,0,0,.4-.1.2151.2151,0,0,0-.2-.2.3491.3491,0,0,1-.2-.1,1.4385,1.4385,0,0,1,.2-.3c.1-.1.1-.3.2-.4a4.3311,4.3311,0,0,0,.1-.5v-.5c0-.1-.1-.3-.1-.4-.1-.1-.2-.2-.2-.3-.1-.1-.2-.2-.3-.2s-.2-.1-.3-.1h-.4a.6012.6012,0,0,0-.4.1c-.1,0-.3.1-.4.1s-.2.1-.3.2a1.0073,1.0073,0,0,1-.3.1,3.0749,3.0749,0,0,0-1.4.8l-.3.3h0a.3491.3491,0,0,1-.2.1c-.1.1-.3.2-.4.3a1.4385,1.4385,0,0,0-.2.3A1.0945,1.0945,0,0,1,45.6,62.5Zm.4,0h0c0-.1.1-.2.2-.3s.2-.2.3-.2a.0979.0979,0,0,0,.1-.1h0a.3491.3491,0,0,0,.2.1c.1.1.2.1.3.2.1,0,.3.1.4.1h.4a.2151.2151,0,0,0,.2-.2c0-.1-.1-.1-.2-.1h-.3a.3674.3674,0,0,1-.3-.1c-.1,0-.2-.1-.3-.2-.2-.2.1-.5.3-.6a2.2344,2.2344,0,0,1,1.2-.7c.1,0,.1,0,.1.1s.1.2.1.3.3.3.4.1c0-.1-.2-.2-.2-.2v-.4l.1-.1a.3491.3491,0,0,1,.2-.1c.1,0,.2-.1.3-.1a.3674.3674,0,0,0,.3-.1h.3c.1,0,.2.1.3.1a.2151.2151,0,0,1,.2.2l.2.2c0,.1.1.2.1.3v.4a.6012.6012,0,0,1-.1.4.7581.7581,0,0,1-.2.4c-.1.1-.1.2-.2.3s-.1.1-.2.1H48.8c-.3,0-.7.1-1,.1H46.7A4.1839,4.1839,0,0,1,46,62.5Z" fill="#9a9a90"/></g><g id="heath_bd-3" data-name="heath_bd" style="isolation:isolate"><g id="Heath_FC-3" data-name="Heath_FC"><path d="M7.7,51.3c-.1,0-.1,0-.1-.1l-.4-.7v-.1a.0979.0979,0,0,1,.1-.1l.1-.1h.1l.1.1L8,51v.1l-.1.1-.2.1Z" fill="#6bbe66"/><path d="M9.2,51c-.1,0-.1,0-.2-.1l-.4-1.3c0-.1,0-.2.1-.2l.1-.1h.1l.1.1.4,1.3V51Z" fill="#6bbe66"/><path d="M10.8,48.8l.2,1.8v.1l-.1.1h-.2a.2151.2151,0,0,1-.2-.2l-.2-1.9.1-.1.2-.1h.1C10.7,48.6,10.8,48.7,10.8,48.8Z" fill="#6bbe66"/><path d="M12.1,51H12l-.1-.1v-.1l.4-1.3.1-.1h.3l.1.1c.1,0,.1.1.1.2L12.5,51Z" fill="#6bbe66"/><path d="M13.6,51.3h0l-.2-.1-.1-.1V51l.4-.7.1-.1h.1l.1.1c.1,0,.1.1.1.2l-.4.7C13.7,51.3,13.7,51.3,13.6,51.3Z" fill="#6bbe66"/></g></g><g id="boulder_bd-5" data-name="boulder_bd" style="isolation:isolate"><path d="M13.4,46.5a.3491.3491,0,0,0-.1.2.2151.2151,0,0,0,.2.2h2c.3,0,.7-.1,1-.1h.9a2.7686,2.7686,0,0,1,.9.1.5845.5845,0,0,0,.4-.1.2151.2151,0,0,0-.2-.2.3491.3491,0,0,1-.2-.1,1.4385,1.4385,0,0,1,.2-.3c.1-.1.1-.3.2-.4a4.3311,4.3311,0,0,0,.1-.5v-.5c0-.1-.1-.3-.1-.4-.1-.1-.2-.2-.2-.3-.1-.1-.2-.2-.3-.2s-.2-.1-.3-.1h-.4a.6012.6012,0,0,0-.4.1c-.1,0-.3.1-.4.1s-.2.1-.3.2a1.0073,1.0073,0,0,1-.3.1,3.0749,3.0749,0,0,0-1.4.8l-.3.3h0a.3491.3491,0,0,1-.2.1c-.1.1-.3.2-.4.3a1.4385,1.4385,0,0,0-.2.3Zm.3,0h0c0-.1.1-.2.2-.3s.2-.2.3-.2a.0979.0979,0,0,0,.1-.1h0a.3491.3491,0,0,0,.2.1c.1.1.2.1.3.2.1,0,.3.1.4.1h.4a.2151.2151,0,0,0,.2-.2c0-.1-.1-.1-.2-.1h-.3a.3674.3674,0,0,1-.3-.1c-.1,0-.2-.1-.3-.2-.2-.2.1-.5.3-.6a2.2344,2.2344,0,0,1,1.2-.7c.1,0,.1,0,.1.1s.1.2.1.3.3.3.4.1c0-.1-.2-.2-.2-.2v-.4l.1-.1a.3491.3491,0,0,1,.2-.1c.1,0,.2-.1.3-.1a.3674.3674,0,0,0,.3-.1h.3c.1,0,.2.1.3.1a.2151.2151,0,0,1,.2.2l.2.2c0,.1.1.2.1.3v.4a.6012.6012,0,0,1-.1.4.7581.7581,0,0,1-.2.4c-.1.1-.1.2-.2.3s-.1.1-.2.1H16.5c-.3,0-.7.1-1,.1H14.4A3.1967,3.1967,0,0,1,13.7,46.5Z" fill="#9a9a90"/></g><g id="heath_bd-4" data-name="heath_bd" style="isolation:isolate"><g id="Heath_FC-4" data-name="Heath_FC"><path d="M4.2,45.2c-.1,0-.1,0-.1-.1l-.4-.7v-.1a.0979.0979,0,0,1,.1-.1l.1-.1H4v.1l.4.7V45l-.1.1-.1.1Z" fill="#6bbe66"/><path d="M5.7,44.9c-.1,0-.1,0-.2-.1l-.4-1.3c0-.1,0-.2.1-.2l.1-.1h.1l.1.1L6,44.6v.1l-.1.1c-.1,0-.1.1-.2.1Z" fill="#6bbe66"/><path d="M7.3,42.6l.2,1.8v.1l-.1.1H7.2a.2151.2151,0,0,1-.2-.2l-.2-1.9.1-.1.2-.1h.1C7.2,42.5,7.3,42.5,7.3,42.6Z" fill="#6bbe66"/><path d="M8.6,44.9H8.5l-.1-.1v-.1l.4-1.3.1-.1h.3l.1.1c.1,0,.1.1.1.2L9,44.9c-.3-.1-.3,0-.4,0Z" fill="#6bbe66"/><path d="M10.1,45.2h0l-.2-.1L9.8,45v-.1l.4-.7.1-.1h.1l.1.1c.1,0,.1.1.1.2l-.4.7Z" fill="#6bbe66"/></g></g><g id="heath_bd-5" data-name="heath_bd" style="isolation:isolate"><g id="Heath_FC-5" data-name="Heath_FC"><path d="M16.6,30.3c-.1,0-.1,0-.1-.1l-.4-.7v-.1a.0979.0979,0,0,1,.1-.1l.1-.1h.1l.1.1.4.7v.1l-.1.1-.2.1Z" fill="#6bbe66"/><path d="M18.1,30c-.1,0-.1,0-.2-.1l-.4-1.3c0-.1,0-.2.1-.2l.1-.1h.1l.1.1.4,1.3v.1l-.1.1c0,.1,0,.1-.1.1Z" fill="#6bbe66"/><path d="M19.7,27.7l.2,1.8v.1l-.1.1h-.2a.2151.2151,0,0,1-.2-.2l-.2-1.9.1-.1.2-.1h.1A.438.438,0,0,0,19.7,27.7Z" fill="#6bbe66"/><path d="M21,30h-.1l-.1-.1v-.1l.4-1.3.1-.1h.3l.1.1c.1,0,.1.1.1.2L21.4,30c-.3-.1-.3,0-.4,0Z" fill="#6bbe66"/><path d="M22.5,30.3h0l-.2-.1-.1-.1V30l.4-.7.1-.1h.1l.1.1c.1,0,.1.1.1.2l-.4.7A.0979.0979,0,0,1,22.5,30.3Z" fill="#6bbe66"/></g></g><g id="boulder_bd-6" data-name="boulder_bd" style="isolation:isolate"><path d="M22.3,25.5a.3491.3491,0,0,0-.1.2.2151.2151,0,0,0,.2.2h2c.3,0,.7-.1,1-.1h.9a2.7686,2.7686,0,0,1,.9.1.5845.5845,0,0,0,.4-.1.2151.2151,0,0,0-.2-.2.3491.3491,0,0,1-.2-.1,1.4385,1.4385,0,0,1,.2-.3c.1-.1.1-.3.2-.4a4.3311,4.3311,0,0,0,.1-.5v-.5c0-.1-.1-.3-.1-.4-.1-.1-.2-.2-.2-.3-.1-.1-.2-.2-.3-.2s-.2-.1-.3-.1h-.4a.6012.6012,0,0,0-.4.1c-.1,0-.3.1-.4.1s-.2.1-.3.2a1.0073,1.0073,0,0,1-.3.1,3.0749,3.0749,0,0,0-1.4.8l-.3.3h0a.3491.3491,0,0,1-.2.1c-.1.1-.3.2-.4.3a1.4385,1.4385,0,0,0-.2.3C22.3,25.4,22.3,25.5,22.3,25.5Zm.3,0h0c0-.1.1-.2.2-.3,0-.1.2-.2.2-.2a.0979.0979,0,0,0,.1-.1h0a.3491.3491,0,0,0,.2.1c.1.1.2.1.3.2.1,0,.3.1.4.1h.4a.2151.2151,0,0,0,.2-.2c0-.1-.1-.1-.2-.1h-.3a.3674.3674,0,0,1-.3-.1c-.1,0-.2-.1-.3-.2-.2-.2.1-.5.3-.6a2.2344,2.2344,0,0,1,1.2-.7c.1,0,.1,0,.1.1s.1.2.1.3.3.3.4.1c0-.1-.2-.2-.2-.2v-.4l.1-.1a.3491.3491,0,0,1,.2-.1c.1,0,.2-.1.3-.1a.3674.3674,0,0,0,.3-.1h.3c.1,0,.2.1.3.1a.2151.2151,0,0,1,.2.2l.2.2c0,.1.1.2.1.3v.4a.6012.6012,0,0,1-.1.4.7581.7581,0,0,1-.2.4c-.1.1-.1.2-.2.3s-.1.1-.2.1H25.3c-.3,0-.7.1-1,.1H23.2A2.1422,2.1422,0,0,1,22.6,25.5Z" fill="#9a9a90"/></g><g id="boulder_bd-7" data-name="boulder_bd" style="isolation:isolate"><path d="M13.3,24a.3491.3491,0,0,0-.1.2.2151.2151,0,0,0,.2.2h2c.3,0,.7-.1,1-.1h.9a2.7686,2.7686,0,0,1,.9.1.5845.5845,0,0,0,.4-.1.2151.2151,0,0,0-.2-.2.3491.3491,0,0,1-.2-.1,1.4385,1.4385,0,0,1,.2-.3c.1-.1.1-.3.2-.4a4.3311,4.3311,0,0,0,.1-.5v-.5c0-.1-.1-.3-.1-.4-.1-.1-.2-.2-.2-.3-.1-.1-.2-.2-.3-.2s-.2-.1-.3-.1h-.4a.6012.6012,0,0,0-.4.1c-.1,0-.3.1-.4.1s-.2.1-.3.2a1.0073,1.0073,0,0,1-.3.1,3.0749,3.0749,0,0,0-1.4.8l-.3.3h0a.3491.3491,0,0,1-.2.1c-.1.1-.3.2-.4.3a1.4385,1.4385,0,0,0-.2.3C13.4,23.9,13.4,24,13.3,24Zm.4-.1h0c0-.1.1-.2.2-.3s.2-.2.3-.2a.0979.0979,0,0,0,.1-.1h0a.3491.3491,0,0,0,.2.1c.1.1.2.1.3.2.1,0,.3.1.4.1h.4a.2151.2151,0,0,0,.2-.2c0-.1-.1-.1-.2-.1h-.3a.3674.3674,0,0,1-.3-.1c-.1,0-.2-.1-.3-.2-.2-.2.1-.5.3-.6a2.2344,2.2344,0,0,1,1.2-.7c.1,0,.1,0,.1.1s.1.2.1.3.3.3.4.1c0-.1-.2-.2-.2-.2v-.4l.1-.1a.3491.3491,0,0,1,.2-.1c.1,0,.2-.1.3-.1a.3674.3674,0,0,0,.3-.1h.3c.1,0,.2.1.3.1a.2151.2151,0,0,1,.2.2l.2.2c0,.1.1.2.1.3v.4a.6012.6012,0,0,1-.1.4.7581.7581,0,0,1-.2.4c-.1.1-.1.2-.2.3s-.1.1-.2.1H16.5c-.3,0-.7.1-1,.1H14.4C13.9,24,13.7,23.9,13.7,23.9Z" fill="#9a9a90"/></g><g id="heath_bd-6" data-name="heath_bd" style="isolation:isolate"><g id="Heath_FC-6" data-name="Heath_FC"><path d="M47.4,10.5c-.1,0-.1,0-.1-.1l-.4-.7V9.6a.0979.0979,0,0,1,.1-.1l.1-.1h.1l.1.1.4.7v.1l-.1.1-.2.1Z" fill="#6bbe66"/><path d="M48.9,10.2c-.1,0-.1,0-.2-.1l-.4-1.3c0-.1,0-.2.1-.2l.1-.1h.1l.1.1.4,1.3V10l-.1.1c.1.1,0,.1-.1.1Z" fill="#6bbe66"/><path d="M50.5,8l.2,1.8v.1l-.1.1h-.2a.2151.2151,0,0,1-.2-.2L50,8V7.9l.2-.1h.1A.2151.2151,0,0,1,50.5,8Z" fill="#6bbe66"/><path d="M51.8,10.2h-.1l-.1-.1V10L52,8.6V8.5h.3l.1.1c.1,0,.1.1.1.2L52,10.1c0,.1-.1.1-.2.1Z" fill="#6bbe66"/><path d="M53.4,10.5h0l-.2-.1-.1-.1v-.1l.4-.7.1-.1h.1l.1.1c.1,0,.1.1.1.2l-.4.7A.0979.0979,0,0,1,53.4,10.5Z" fill="#6bbe66"/></g></g><g id="boulder_bd-8" data-name="boulder_bd" style="isolation:isolate"><path d="M53.1,5.8A.3491.3491,0,0,0,53,6a.2151.2151,0,0,0,.2.2h2c.3,0,.7-.1,1-.1h.9a2.4828,2.4828,0,0,1,.9.1.5845.5845,0,0,0,.4-.1.2151.2151,0,0,0-.2-.2.3491.3491,0,0,1-.2-.1,1.4385,1.4385,0,0,1,.2-.3c.1-.1.1-.3.2-.4a4.3311,4.3311,0,0,0,.1-.5V4.1c0-.1-.1-.3-.1-.4s-.2-.2-.2-.3c-.1-.1-.2-.2-.3-.2s-.2-.1-.3-.1h-.4a.6012.6012,0,0,0-.4.1c-.1,0-.3.1-.4.1s-.2.1-.3.2a1.0073,1.0073,0,0,1-.3.1,3.0749,3.0749,0,0,0-1.4.8l-.3.3h0a.3491.3491,0,0,1-.2.1c-.1.1-.3.2-.4.3a1.4385,1.4385,0,0,0-.2.3A1.0945,1.0945,0,0,1,53.1,5.8Zm.3-.1h0c0-.1.1-.2.2-.3s.2-.2.3-.2H54a.3491.3491,0,0,0,.2.1c.1.1.2.1.3.2.1,0,.3.1.4.1h.4a.2151.2151,0,0,0,.2-.2c0-.1-.1-.1-.2-.1H55a.3674.3674,0,0,1-.3-.1c-.1,0-.2-.1-.3-.2-.2-.2.1-.5.3-.6a2.2344,2.2344,0,0,1,1.2-.7c.1,0,.1,0,.1.1a.4829.4829,0,0,0,0,.4c0,.1.3.3.4.1,0-.1-.2-.2-.2-.2V3.7l.1-.1a.3491.3491,0,0,1,.2-.1c.1,0,.2-.1.3-.1a.3674.3674,0,0,0,.3-.1h.3c.1,0,.2.1.3.1a.2151.2151,0,0,1,.2.2l.2.2c0,.1.1.2.1.3v.4a.6012.6012,0,0,1-.1.4.7581.7581,0,0,1-.2.4c-.1.1-.1.2-.2.3s-.1.1-.2.1H56.1c-.3,0-.7.1-1,.1H54A3.536,3.536,0,0,1,53.4,5.7Z" fill="#9a9a90"/></g><g id="boulder_bd-9" data-name="boulder_bd" style="isolation:isolate"><path d="M44.2,4.2a.3491.3491,0,0,0-.1.2.2151.2151,0,0,0,.2.2h2c.3,0,.7-.1,1-.1h.9a2.7686,2.7686,0,0,1,.9.1.5845.5845,0,0,0,.4-.1.2151.2151,0,0,0-.2-.2.3491.3491,0,0,1-.2-.1,1.4385,1.4385,0,0,1,.2-.3c.1-.1.1-.3.2-.4a4.3311,4.3311,0,0,0,.1-.5V2.5c0-.1-.1-.3-.1-.4-.1-.1-.2-.2-.2-.3-.1-.1-.2-.2-.3-.2s-.2-.1-.3-.1h-.4a.6012.6012,0,0,0-.4.1c-.1,0-.3.1-.4.1s-.2.1-.3.2a1.0073,1.0073,0,0,1-.3.1,3.0749,3.0749,0,0,0-1.4.8l-.3.3h0a.3491.3491,0,0,1-.2.1c-.1.1-.3.2-.4.3a1.4385,1.4385,0,0,0-.2.3C44.2,4.1,44.2,4.2,44.2,4.2Zm.3,0h0c0-.1.1-.2.2-.3s.2-.2.3-.2a.0979.0979,0,0,0,.1-.1h0a.3491.3491,0,0,0,.2.1q.15.3.3.3c.1,0,.3.1.4.1h.4a.2151.2151,0,0,0,.2-.2c0-.1-.1-.1-.2-.1h-.3a.3674.3674,0,0,1-.3-.1c-.1,0-.2-.1-.3-.2-.2-.2.1-.5.3-.6A2.2344,2.2344,0,0,1,47,2.2c.1,0,.1,0,.1.1s.1.2.1.3.3.3.4.1c0-.1-.2-.2-.2-.2V2.1l.1-.1a.3491.3491,0,0,1,.2-.1c.1,0,.2-.1.3-.1a.3674.3674,0,0,0,.3-.1c.1-.1.2,0,.3,0s.2.1.3.1A.3491.3491,0,0,0,49,2l.2.2c0,.1.1.2.1.3v.4a.6012.6012,0,0,1-.1.4.7581.7581,0,0,1-.2.4.3674.3674,0,0,0-.1.3c-.1.1-.1.1-.2.1H47.3c-.3,0-.7.1-1,.1H44.5Z" fill="#9a9a90"/></g><g id="heath_bd-7" data-name="heath_bd" style="isolation:isolate"><g id="Heath_FC-7" data-name="Heath_FC"><path d="M70,26.8c-.1,0-.1,0-.1-.1l-.4-.7v-.1a.0979.0979,0,0,1,.1-.1l.1-.1h.1l.1.1.4.7v.1l-.1.1-.2.1Z" fill="#6bbe66"/><path d="M71.5,26.5c-.1,0-.1,0-.2-.1L70.9,25c0-.1,0-.2.1-.2l.1-.1h.1l.1.1.4,1.3v.1l-.1.1c0,.2,0,.2-.1.2Z" fill="#6bbe66"/><path d="M73.1,24.2l.2,1.8v.1l-.1.1H73a.2151.2151,0,0,1-.2-.2l-.2-1.9V24l.2-.1h.1C73,24.1,73.1,24.1,73.1,24.2Z" fill="#6bbe66"/><path d="M74.4,26.5h-.1l-.1-.1v-.1l.4-1.3v-.1h.3l.1.1h0l-.4,1.3a.2151.2151,0,0,1-.2.2Z" fill="#6bbe66"/><path d="M75.9,26.8h0l-.2-.1-.1-.1v-.1l.4-.7.1-.1h.1l.1.1c.1,0,.1.1.1.2l-.4.7A.0979.0979,0,0,1,75.9,26.8Z" fill="#6bbe66"/></g></g><g id="boulder_bd-10" data-name="boulder_bd" style="isolation:isolate"><path d="M75.7,22a.3491.3491,0,0,0-.1.2.2151.2151,0,0,0,.2.2h2c.3,0,.7-.1,1-.1h.9a2.4828,2.4828,0,0,1,.9.1.5845.5845,0,0,0,.4-.1.2151.2151,0,0,0-.2-.2.3491.3491,0,0,1-.2-.1,1.4385,1.4385,0,0,1,.2-.3c.1-.1.1-.3.2-.4a4.3311,4.3311,0,0,0,.1-.5v-.5c0-.1-.1-.3-.1-.4s-.2-.2-.2-.3c-.1-.1-.2-.2-.3-.2s-.2-.1-.3-.1h-.4a.6012.6012,0,0,0-.4.1c-.1,0-.3.1-.4.1s-.2.1-.3.2a1.0073,1.0073,0,0,1-.3.1,3.0749,3.0749,0,0,0-1.4.8l-.3.3h0a.3491.3491,0,0,1-.2.1c-.1.1-.3.2-.4.3a1.4385,1.4385,0,0,0-.2.3C75.7,21.9,75.7,22,75.7,22Zm.3,0h0c0-.1.1-.2.2-.3s.2-.2.3-.2a.0979.0979,0,0,0,.1-.1h0a.3491.3491,0,0,0,.2.1c.1.1.2.1.3.2.1,0,.3.1.4.1h.4a.2151.2151,0,0,0,.2-.2c0-.1-.1-.1-.2-.1h-.3a.3674.3674,0,0,1-.3-.1c-.1,0-.2-.1-.3-.2-.2-.2.1-.5.3-.6a2.2344,2.2344,0,0,1,1.2-.7c.1,0,.1,0,.1.1s.1.2.1.3.3.3.4.1c0-.1-.2-.2-.2-.2v-.4l.1-.1a.3491.3491,0,0,1,.2-.1c.1,0,.2-.1.3-.1a.3674.3674,0,0,0,.3-.1h.3c.1,0,.2.1.3.1a.2151.2151,0,0,1,.2.2l.2.2c0,.1.1.2.1.3v.4a.6012.6012,0,0,1-.1.4.7581.7581,0,0,1-.2.4c-.1.1-.1.2-.2.3s-.1.1-.2.1H78.8c-.3,0-.7.1-1,.1H76.7A3.1967,3.1967,0,0,1,76,22Z" fill="#9a9a90"/></g><g id="heath_bd-8" data-name="heath_bd" style="isolation:isolate"><g id="Heath_FC-8" data-name="Heath_FC"><path d="M66.5,20.6c-.1,0-.1,0-.1-.1l-.4-.7v-.1a.0979.0979,0,0,1,.1-.1l.1-.1h.1l.1.1.4.7v.1l-.1.1-.2.1Z" fill="#6bbe66"/><path d="M68,20.4c-.1,0-.1,0-.2-.1L67.4,19c0-.1,0-.2.1-.2l.1-.1h.1l.1.1.4,1.3v.1l-.1.1-.1.1Z" fill="#6bbe66"/><path d="M69.6,18.1l.2,1.8V20l-.1.1h-.2a.2151.2151,0,0,1-.2-.2L69,18.1V18l.2-.1h.1C69.5,18,69.6,18,69.6,18.1Z" fill="#6bbe66"/><path d="M70.9,20.4h-.1l-.1-.1v-.1l.4-1.3v-.1h.3l.1.1c.1,0,.1.1.1.2l-.4,1.3c-.2-.1-.2,0-.3,0Z" fill="#6bbe66"/><path d="M72.4,20.6h0l-.2-.1-.1-.1v-.1l.4-.7.1-.1h.1l.1.1c.1,0,.1.1.1.2l-.4.7A.0979.0979,0,0,1,72.4,20.6Z" fill="#6bbe66"/></g></g><g id="heath_bd-9" data-name="heath_bd" style="isolation:isolate"><g id="Heath_FC-9" data-name="Heath_FC"><path d="M81.2,9.8c-.1,0-.1,0-.1-.1L80.7,9V8.9a.0979.0979,0,0,1,.1-.1l.1-.1H81v.2l.4.7v.1l-.1.1Z" fill="#6bbe66"/><path d="M82.6,9.6c-.1,0-.1,0-.2-.1L82,8.2c0-.1,0-.2.1-.2l.1-.1h.1l.2.1.4,1.3v.1l-.1.1a.31.31,0,0,0-.2.1Z" fill="#6bbe66"/><path d="M84.2,7.3l.2,1.8v.1l-.1.1h-.2a.2151.2151,0,0,1-.2-.2l-.2-1.9V7.1l.2-.1H84C84.2,7.2,84.2,7.2,84.2,7.3Z" fill="#6bbe66"/><path d="M85.5,9.6h-.1l-.1-.1V9.4l.4-1.3V8H86l.1.1c.1,0,.1.1.1.2l-.4,1.3c-.1-.1-.1,0-.3,0Z" fill="#6bbe66"/><path d="M87.1,9.8h0l-.2-.1-.1-.1V9.5l.4-.7.1-.1h.1l.1.1c.1,0,.1.1.1.2l-.4.7A.0979.0979,0,0,1,87.1,9.8Z" fill="#6bbe66"/></g></g><g id="boulder_bd-11" data-name="boulder_bd" style="isolation:isolate"><path d="M86.8,5.1a.3491.3491,0,0,0-.1.2.2151.2151,0,0,0,.2.2h2c.3,0,.7-.1,1-.1h.9a2.4828,2.4828,0,0,1,.9.1.5845.5845,0,0,0,.4-.1.2151.2151,0,0,0-.2-.2L91.8,5a1.4385,1.4385,0,0,1,.2-.3c.1-.1.1-.3.2-.4a4.3311,4.3311,0,0,0,.1-.5V3.3c0-.1-.1-.3-.1-.4s-.2-.2-.2-.3c-.1-.1-.2-.2-.3-.2s-.2-.1-.3-.1H91a.6012.6012,0,0,0-.4.1c-.1,0-.3.1-.4.1s-.2.1-.3.2a1.0073,1.0073,0,0,1-.3.1,3.0749,3.0749,0,0,0-1.4.8,1.7265,1.7265,0,0,0-.3.4h0a.3491.3491,0,0,1-.2.1c-.1.1-.3.2-.4.3a1.4385,1.4385,0,0,0-.2.3A2.9585,2.9585,0,0,1,86.8,5.1Zm.4,0h0c0-.1.1-.2.2-.3s.2-.2.3-.2a.0979.0979,0,0,0,.1-.1h0a.3491.3491,0,0,0,.2.1c.1.1.2.1.3.2.1,0,.3.1.4.1h.4a.2151.2151,0,0,0,.2-.2c0-.1-.1-.1-.2-.1h-.3a.3674.3674,0,0,1-.3-.1c-.1,0-.2-.1-.3-.2-.2-.2.1-.5.3-.6A2.2344,2.2344,0,0,1,89.7,3c.1,0,.1,0,.1.1s.1.2.1.3.3.3.4.1c0-.1-.2-.2-.2-.2V2.9h0a.3491.3491,0,0,1,.2-.1c.1,0,.2-.1.3-.1a.3674.3674,0,0,0,.3-.1h.3c.1,0,.2.1.3.1a.2151.2151,0,0,1,.2.2c0,.1.1.1.1.2s.1.2.1.3v.4a.6012.6012,0,0,1-.1.4.7581.7581,0,0,1-.2.4c-.1.1-.1.2-.2.3a.0979.0979,0,0,1-.1.1H89.9c-.3,0-.7.1-1,.1H87.2Z" fill="#9a9a90"/></g><g id="heath_bd-10" data-name="heath_bd" style="isolation:isolate"><g id="Heath_FC-10" data-name="Heath_FC"><path d="M77.6,3.7c-.1,0-.1,0-.1-.1L77.1,3V2.9a.0979.0979,0,0,1,.1-.1l.1-.1h.1l.1.1.4.7v.1l-.1.1Z" fill="#6bbe66"/><path d="M79.1,3.4c-.1,0-.1,0-.2-.1L78.5,2c0-.1,0-.2.1-.2l.1-.1h.1l.2.1.4,1.3v.1l-.1.1c-.1.1-.1.1-.2.1Z" fill="#6bbe66"/><path d="M80.7,1.2,80.9,3v.1l-.1.1h-.2a.2151.2151,0,0,1-.2-.2l-.2-1.9V1h.3A.2151.2151,0,0,1,80.7,1.2Z" fill="#6bbe66"/><path d="M82,3.4h-.1l-.1-.1V3.2l.4-1.3V1.8h.3l.1.1c.1,0,.1.1.1.2l-.4,1.3Z" fill="#6bbe66"/><path d="M83.5,3.7h0l-.2-.1-.1-.1V3.4l.4-.7.1-.1h.1l.2.2c.1,0,.1.1.1.2l-.4.7Z" fill="#6bbe66"/></g></g><g id="heath_bd-11" data-name="heath_bd" style="isolation:isolate"><g id="Heath_FC-11" data-name="Heath_FC"><path d="M71,46.7c-.1,0-.1,0-.1-.1l-.4-.7v-.1a.0979.0979,0,0,1,.1-.1l.1-.1h.1l.1.1.4.7v.1l-.1.1-.2.1Z" fill="#6bbe66"/><path d="M72.5,46.4c-.1,0-.1,0-.2-.1L71.9,45c0-.1,0-.2.1-.2l.1-.1h.1l.1.1.4,1.3v.1l-.1.1c0,.1,0,.1-.1.1Z" fill="#6bbe66"/><path d="M74.1,44.2l.2,1.8v.1l-.1.1H74a.2151.2151,0,0,1-.2-.2l-.2-1.9V44l.2-.1h.1C74,44,74.1,44.1,74.1,44.2Z" fill="#6bbe66"/><path d="M75.4,46.4h-.1l-.1-.1v-.1l.4-1.3v-.1h.3l.1.1c.1,0,.1.1.1.2l-.4,1.3Z" fill="#6bbe66"/><path d="M76.9,46.7h0l-.2-.1-.1-.1v-.1l.4-.7.1-.1h.1l.1.1c.1,0,.1.1.1.2l-.4.7C77,46.7,77,46.7,76.9,46.7Z" fill="#6bbe66"/></g></g><g id="boulder_bd-12" data-name="boulder_bd" style="isolation:isolate"><path d="M76.7,41.9a.3491.3491,0,0,0-.1.2.2151.2151,0,0,0,.2.2h2c.3,0,.7-.1,1-.1h.9a2.4828,2.4828,0,0,1,.9.1.5845.5845,0,0,0,.4-.1.2151.2151,0,0,0-.2-.2.3491.3491,0,0,1-.2-.1,1.4385,1.4385,0,0,1,.2-.3c.1-.1.1-.3.2-.4a4.3311,4.3311,0,0,0,.1-.5v-.5c0-.1-.1-.3-.1-.4-.1-.1-.2-.2-.2-.3-.1-.1-.2-.2-.3-.2s-.2-.1-.3-.1h-.4a.6012.6012,0,0,0-.4.1c-.1,0-.3.1-.4.1s-.2.1-.3.2a1.0073,1.0073,0,0,1-.3.1,3.0749,3.0749,0,0,0-1.4.8l-.3.3h0a.3491.3491,0,0,1-.2.1c-.1.1-.3.2-.4.3a1.4385,1.4385,0,0,0-.2.3Zm.3,0h0c0-.1.1-.2.2-.3s.2-.2.3-.2a.0979.0979,0,0,0,.1-.1h0a.3491.3491,0,0,0,.2.1c.1.1.2.1.3.2.1,0,.3.1.4.1h.4a.2151.2151,0,0,0,.2-.2c0-.1-.1-.1-.2-.1h-.3a.3674.3674,0,0,1-.3-.1c-.1,0-.2-.1-.3-.2-.2-.2.1-.5.3-.6a2.2344,2.2344,0,0,1,1.2-.7c.1,0,.1,0,.1.1s.1.2.1.3.3.3.4.1c0-.1-.2-.2-.2-.2v-.4l.1-.1a.3491.3491,0,0,1,.2-.1c.1,0,.2-.1.3-.1a.3674.3674,0,0,0,.3-.1h.3c.1,0,.2.1.3.1a.2151.2151,0,0,1,.2.2l.2.2c0,.1.1.2.1.3v.4a.6012.6012,0,0,1-.1.4.7581.7581,0,0,1-.2.4c-.1.1-.1.2-.2.3s-.1.1-.2.1H79.8c-.3,0-.7.1-1,.1H77.7A3.1967,3.1967,0,0,1,77,41.9Z" fill="#9a9a90"/></g><g id="boulder_bd-13" data-name="boulder_bd" style="isolation:isolate"><path d="M67.8,40.4a.3491.3491,0,0,0-.1.2.2151.2151,0,0,0,.2.2h2c.3,0,.7-.1,1-.1h.9a2.4828,2.4828,0,0,1,.9.1.5845.5845,0,0,0,.4-.1.2151.2151,0,0,0-.2-.2.3491.3491,0,0,1-.2-.1,1.4385,1.4385,0,0,1,.2-.3c.1-.1.1-.3.2-.4a4.3311,4.3311,0,0,0,.1-.5v-.5c0-.1-.1-.3-.1-.4-.1-.1-.2-.2-.2-.3-.1-.1-.2-.2-.3-.2s-.2-.1-.3-.1h-.4a.6012.6012,0,0,0-.4.1c-.1,0-.3.1-.4.1s-.2.1-.3.2a1.0073,1.0073,0,0,1-.3.1,3.0749,3.0749,0,0,0-1.4.8l-.3.3h0a.3491.3491,0,0,1-.2.1c-.1.1-.3.2-.4.3a1.4385,1.4385,0,0,0-.2.3C67.8,40.3,67.8,40.4,67.8,40.4Zm.3,0h0c0-.1.1-.2.2-.3s.2-.2.3-.2a.0979.0979,0,0,0,.1-.1h0a.3491.3491,0,0,0,.2.1c.1.1.2.1.3.2.1,0,.3.1.4.1H70a.2151.2151,0,0,0,.2-.2h-.6a.3674.3674,0,0,1-.3-.1c-.1,0-.2-.1-.3-.2-.2-.2.1-.5.3-.6a2.2344,2.2344,0,0,1,1.2-.7c.1,0,.1,0,.1.1s.1.2.1.3.3.3.4.1c0-.1-.2-.2-.2-.2v-.4l.1-.1a.3491.3491,0,0,1,.2-.1c.1,0,.2-.1.3-.1a.3674.3674,0,0,0,.3-.1h.3c.1,0,.2.1.3.1a.2151.2151,0,0,1,.2.2l.2.2c0,.1.1.2.1.3v.4a.6012.6012,0,0,1-.1.4.7581.7581,0,0,1-.2.4c-.1.1-.1.2-.2.3s-.1.1-.2.1H70.8c-.3,0-.7.1-1,.1H68.1Z" fill="#9a9a90"/></g><g id="heath_bd-12" data-name="heath_bd" style="isolation:isolate"><g id="Heath_FC-12" data-name="Heath_FC"><path d="M81.7,70.7c-.1,0-.1,0-.1-.1l-.5-.6v-.1a.0979.0979,0,0,1,.1-.1l.1-.1h.1l.1.1.4.7v.1l-.1.1Z" fill="#6bbe66"/><path d="M83.1,70.5c-.1,0-.1,0-.2-.1L82.6,69c0-.1,0-.2.1-.2l.1-.1h.1l.1.1.4,1.3v.1l-.1.1c0,.1-.1.1-.2.2Z" fill="#6bbe66"/><path d="M84.7,68.2l.2,1.8v.1l-.1.1h-.2a.2151.2151,0,0,1-.2-.2l-.2-1.9V68l.2-.1h.1C84.7,68.1,84.7,68.1,84.7,68.2Z" fill="#6bbe66"/><path d="M86,70.5h-.1l-.1-.1v-.1l.4-1.3v-.1h.3l.1.1c.1,0,.1.1.1.2l-.4,1.3c-.1-.1-.1,0-.3,0Z" fill="#6bbe66"/><path d="M87.6,70.7h0l-.2-.1-.1-.1v-.1l.4-.7.1-.1h.1l.1.1c.1,0,.1.1.1.2l-.4.7A.0979.0979,0,0,1,87.6,70.7Z" fill="#6bbe66"/></g></g><g id="boulder_bd-14" data-name="boulder_bd" style="isolation:isolate"><path d="M87.3,66a.3491.3491,0,0,0-.1.2.2151.2151,0,0,0,.2.2h2c.3,0,.7-.1,1-.1h.9a2.4828,2.4828,0,0,1,.9.1.5845.5845,0,0,0,.4-.1.2151.2151,0,0,0-.2-.2.3491.3491,0,0,1-.2-.1,1.4385,1.4385,0,0,1,.2-.3c.1-.1.1-.3.2-.4a4.3311,4.3311,0,0,0,.1-.5v-.5c0-.1-.1-.3-.1-.4-.1-.1-.2-.2-.2-.3-.1-.1-.2-.2-.3-.2s-.2-.1-.3-.1h-.4a.6012.6012,0,0,0-.4.1c-.1,0-.3.1-.4.1s-.2.1-.3.2a1.0073,1.0073,0,0,1-.3.1,3.0749,3.0749,0,0,0-1.4.8l-.3.3h0a.3491.3491,0,0,1-.2.1c-.1.1-.3.2-.4.3a1.4385,1.4385,0,0,0-.2.3C87.4,65.9,87.4,66,87.3,66Zm.4,0h0c0-.1.1-.2.2-.3s.2-.2.3-.2a.0979.0979,0,0,0,.1-.1h0a.3491.3491,0,0,0,.2.1c.1.1.2.1.3.2.1,0,.3.1.4.1h.4a.2151.2151,0,0,0,.2-.2c0-.1-.1-.1-.2-.1h-.3a.3674.3674,0,0,1-.3-.1c-.1,0-.2-.1-.3-.2-.2-.2.1-.5.3-.6a2.2344,2.2344,0,0,1,1.2-.7c.1,0,.1,0,.1.1s.1.2.1.3.3.3.4.1c0-.1-.2-.2-.2-.2v-.4l.1-.1a.3491.3491,0,0,1,.2-.1c.1,0,.2-.1.3-.1a.3674.3674,0,0,0,.3-.1h.3c.1,0,.2.1.3.1a.2151.2151,0,0,1,.2.2l.2.2c0,.1.1.2.1.3v.4a.6012.6012,0,0,1-.1.4.7581.7581,0,0,1-.2.4c-.1.1-.1.2-.2.3s-.1.1-.2.1H90.5c-.3,0-.7.1-1,.1H88.4A4.1839,4.1839,0,0,1,87.7,66Z" fill="#9a9a90"/></g><g id="heath_bd-13" data-name="heath_bd" style="isolation:isolate"><g id="Heath_FC-13" data-name="Heath_FC"><path d="M78.1,64.6c-.1,0-.1,0-.1-.1l-.4-.7v-.1a.0979.0979,0,0,1,.1-.1l.1-.1h.1l.1.1.4.7v.1l-.1.1-.2.1Z" fill="#6bbe66"/><path d="M79.6,64.3c-.1,0-.1,0-.2-.1L79,62.9c0-.1,0-.2.1-.2l.1-.1h.1l.1.1.4,1.3v.1l-.1.1c0,.1,0,.1-.1.1Z" fill="#6bbe66"/><path d="M81.2,62.1l.2,1.8V64l-.1.1h-.2a.2151.2151,0,0,1-.2-.2L80.7,62v-.1l.2-.1H81C81.1,61.9,81.2,62,81.2,62.1Z" fill="#6bbe66"/><path d="M82.5,64.3h-.1l-.1-.1v-.1l.4-1.3v-.1H83l.1.1c.1,0,.1.1.1.2l-.4,1.3Z" fill="#6bbe66"/><path d="M84,64.6h0l-.2-.1-.1-.1v-.1l.4-.7.1-.1h.1l.1.1c.1,0,.1.1.1.2l-.4.7C84.1,64.6,84.1,64.6,84,64.6Z" fill="#6bbe66"/></g></g><g id="heath_bd-14" data-name="heath_bd" style="isolation:isolate"><g id="Heath_FC-14" data-name="Heath_FC"><path d="M55.4,92.1c-.1,0-.1,0-.1-.1l-.4-.7v-.1a.0979.0979,0,0,1,.1-.1l.1-.1h.1l.1.1.4.7v.1l-.1.1-.2.1Z" fill="#6bbe66"/><path d="M56.8,91.9c-.1,0-.1,0-.2-.1l-.4-1.3c0-.1,0-.2.1-.2l.1-.1h.1l.1.1.4,1.3v.2a.31.31,0,0,0-.2.1Z" fill="#6bbe66"/><path d="M58.4,89.6l.2,1.8v.1l-.1.1h-.2a.2151.2151,0,0,1-.2-.2l-.2-1.9v-.1l.2-.1h.1C58.4,89.5,58.4,89.5,58.4,89.6Z" fill="#6bbe66"/><path d="M59.7,91.9h-.1l-.1-.1v-.1l.4-1.3v-.1h.3l.1.1c.1,0,.1.1.1.2L60,91.9c-.1-.1-.1,0-.3,0Z" fill="#6bbe66"/><path d="M61.3,92.1h0l-.2-.1H61v-.1l.4-.7.1-.1h.1l.1.1c.1,0,.1.1.1.2l-.4.7Z" fill="#6bbe66"/></g></g><g id="boulder_bd-15" data-name="boulder_bd" style="isolation:isolate"><path d="M61,87.4a.3491.3491,0,0,0-.1.2.2151.2151,0,0,0,.2.2h2c.3,0,.7-.1,1-.1H65a2.4828,2.4828,0,0,1,.9.1.5845.5845,0,0,0,.4-.1.2151.2151,0,0,0-.2-.2.3491.3491,0,0,1-.2-.1,1.4385,1.4385,0,0,1,.2-.3c.1-.1.1-.3.2-.4a4.3311,4.3311,0,0,0,.1-.5v-.5c0-.1-.1-.3-.1-.4s-.2-.2-.3-.3-.2-.2-.3-.2-.2-.1-.3-.1H65a.6012.6012,0,0,0-.4.1c-.1,0-.3.1-.4.1s-.2.1-.3.2a1.0073,1.0073,0,0,1-.3.1,3.0749,3.0749,0,0,0-1.4.8l-.3.3h0a.3491.3491,0,0,1-.2.1c-.1.1-.3.2-.4.3a1.4385,1.4385,0,0,0-.2.3A.5845.5845,0,0,1,61,87.4Zm.4,0h0c0-.1.1-.2.2-.3s.2-.2.3-.2a.0979.0979,0,0,0,.1-.1h0a.3491.3491,0,0,0,.2.1c.1.1.2.1.3.2.1,0,.3.1.4.1h.4a.2151.2151,0,0,0,.2-.2c0-.1-.1-.1-.2-.1H63a.3674.3674,0,0,1-.3-.1c-.1,0-.2-.1-.3-.2-.2-.2.1-.5.3-.6a2.2344,2.2344,0,0,1,1.2-.7c.1,0,.1,0,.1.1s.1.2.1.3.3.3.4.1c0-.1-.2-.2-.2-.2v-.4l.1-.1a.3491.3491,0,0,1,.2-.1c.1,0,.2-.1.3-.1a.3674.3674,0,0,0,.3-.1h.3c.1,0,.2.1.3.1a.2151.2151,0,0,1,.2.2l.2.2c0,.1.1.2.1.3V86a.6012.6012,0,0,1-.1.4.7581.7581,0,0,1-.2.4c-.1.1-.1.2-.2.3s-.1.1-.2.1H64.2c-.3,0-.7.1-1,.1H62.1A4.1839,4.1839,0,0,1,61.4,87.4Z" fill="#9a9a90"/></g><g id="heath_bd-15" data-name="heath_bd" style="isolation:isolate"><g id="Heath_FC-15" data-name="Heath_FC"><path d="M51.8,86c-.1,0-.1,0-.1-.1l-.4-.7v-.1a.0979.0979,0,0,1,.1-.1l.1-.1h.1l.1.1.4.7v.1l-.1.1-.2.1Z" fill="#6bbe66"/><path d="M53.3,85.7c-.1,0-.1,0-.2-.1l-.4-1.3c0-.1,0-.2.1-.2l.1-.1H53l.1.1.4,1.3v.1l-.1.1c0,.1,0,.1-.1.1Z" fill="#6bbe66"/><path d="M54.9,83.5l.2,1.8v.1l-.1.1h-.2a.2151.2151,0,0,1-.2-.2l-.2-1.9v-.1l.2-.1h.1C54.8,83.3,54.9,83.4,54.9,83.5Z" fill="#6bbe66"/><path d="M56.2,85.7h-.1l-.1-.1v-.1l.4-1.3v-.1h.3l.1.1c.1,0,.1.1.1.2l-.4,1.3Z" fill="#6bbe66"/><path d="M57.7,86h0l-.2-.1-.1-.1v-.1l.4-.7h.3l.1.1c.1,0,.1.1.1.2l-.4.7Z" fill="#6bbe66"/></g></g><g id="heath_bd-16" data-name="heath_bd" style="isolation:isolate"><g id="Heath_FC-16" data-name="Heath_FC"><path d="M7.4,95c-.1,0-.1,0-.1-.1l-.4-.7v-.1A.0979.0979,0,0,1,7,94h.2l.4.7v.1l-.1.1-.1.1Z" fill="#6bbe66"/><path d="M8.8,94.7c-.1,0-.1,0-.2-.1l-.4-1.3c0-.1,0-.2.1-.2l.2-.1h.1l.1.1.4,1.3v.1l-.1.2Z" fill="#6bbe66"/><path d="M10.4,92.5l.2,1.8v.1l-.1.1h-.2a.2151.2151,0,0,1-.2-.2l-.2-1.9.1-.1.2-.1h.1A.3674.3674,0,0,1,10.4,92.5Z" fill="#6bbe66"/><path d="M11.7,94.7h-.1l-.1-.1v-.1l.4-1.3.1-.1h.3l.1.1c.1,0,.1.1.1.2l-.4,1.3Z" fill="#6bbe66"/><path d="M13.3,95h0l-.2-.1-.1-.1v-.1l.4-.7.1-.1h.1l.1.1c.1,0,.1.1.1.2l-.4.7A.0979.0979,0,0,1,13.3,95Z" fill="#6bbe66"/></g></g><g id="boulder_bd-16" data-name="boulder_bd" style="isolation:isolate"><path d="M13,90.2a.3491.3491,0,0,0-.1.2.2151.2151,0,0,0,.2.2h2c.3,0,.7-.1,1-.1H17a2.7686,2.7686,0,0,1,.9.1.5845.5845,0,0,0,.4-.1s-.1-.2-.2-.2a.3491.3491,0,0,1-.2-.1,1.4385,1.4385,0,0,1,.2-.3c.1-.1.1-.3.2-.4a4.3311,4.3311,0,0,0,.1-.5v-.5c0-.1-.1-.3-.1-.4-.1-.1-.2-.2-.2-.3-.1-.1-.2-.2-.3-.2s-.2-.1-.3-.1h-.4a.6012.6012,0,0,0-.4.1c-.1,0-.3.1-.4.1s-.2.1-.3.2a1.0073,1.0073,0,0,1-.3.1,3.0749,3.0749,0,0,0-1.4.8l-.3.3h0a.3491.3491,0,0,1-.2.1c-.1.1-.3.2-.4.3a1.4385,1.4385,0,0,0-.2.3C13.1,90.2,13.1,90.2,13,90.2Zm.4,0h0c0-.1.1-.2.2-.3s.2-.2.3-.2a.0979.0979,0,0,0,.1-.1h0a.3491.3491,0,0,0,.2.1c.1.1.2.1.3.2.1,0,.3.1.4.1h.4a.2151.2151,0,0,0,.2-.2c0-.1-.1-.1-.2-.1H15a.3674.3674,0,0,1-.3-.1c-.1,0-.2-.1-.3-.2-.2-.2.1-.5.3-.6a2.2344,2.2344,0,0,1,1.2-.7c.1,0,.1,0,.1.1s.1.2.1.3.3.3.4.1c0-.1-.2-.2-.2-.2V88l.1-.1a.3491.3491,0,0,1,.2-.1c.1,0,.2-.1.3-.1a.3674.3674,0,0,0,.3-.1h.3c.1,0,.2.1.3.1a.2151.2151,0,0,1,.2.2l.2.2c0,.1.1.2.1.3v.4a.6012.6012,0,0,1-.1.4.7581.7581,0,0,1-.2.4c-.1.1-.1.2-.2.3s-.1.1-.2.1H16.2c-.3,0-.7.1-1,.1H14.1A4.1839,4.1839,0,0,1,13.4,90.2Z" fill="#9a9a90"/></g><g id="heath_bd-17" data-name="heath_bd" style="isolation:isolate"><g id="Heath_FC-17" data-name="Heath_FC"><path d="M3.8,88.9c-.1,0-.1,0-.1-.1l-.4-.7V88a.0979.0979,0,0,1,.1-.1l.1-.1h.1l.1.1.4.7v.1l-.1.1-.2.1Z" fill="#6bbe66"/><path d="M5.3,88.6c-.1,0-.1,0-.2-.1l-.4-1.3c0-.1,0-.2.1-.2l.1-.1H5l.2.1.4,1.3v.1l-.1.1c-.1.1-.1.1-.2.1Z" fill="#6bbe66"/><path d="M6.9,86.3l.2,1.8v.1l-.1.1H6.8a.2151.2151,0,0,1-.2-.2l-.2-1.9.1-.1.2-.1h.1A.438.438,0,0,0,6.9,86.3Z" fill="#6bbe66"/><path d="M8.2,88.6H8.1L8,88.5v-.1L8.3,87l.1-.1h.3l.1.1c.1,0,.1.1.1.2l-.4,1.3c-.1,0-.2.1-.3.1Z" fill="#6bbe66"/><path d="M9.7,88.9h0l-.2-.1-.1-.1v-.1l.4-.7.1-.1H10l.1.1c.1,0,.1.1.1.2l-.4.7A.0979.0979,0,0,1,9.7,88.9Z" fill="#6bbe66"/></g></g></svg>