<svg id="Layer_1" data-name="Layer 1" xmlns="http://www.w3.org/2000/svg" width="33.8667mm" height="33.8667mm" viewBox="0 0 96.0001 96.0001"><g id="rock2_bd" data-name="rock2 bd"><path d="M16.4,78.6v.1a.8643.8643,0,0,1-.3.6.764.764,0,0,1-.5.2,1.087,1.087,0,0,1-.5-.1,1.7587,1.7587,0,0,0-.6-.1h-.3a1.087,1.087,0,0,0-.5.1c-.2,0-.3.1-.5.1h-.1c-.3,0-.4-.1-.4-.3a1.6884,1.6884,0,0,1,.2-.5v-.6a1.4827,1.4827,0,0,0-.1-.7c0-.3.2-.5.5-.7a6.8727,6.8727,0,0,1,.8-.3h.1a.3673.3673,0,0,1,.3.1l.3.3.2.2a1.6884,1.6884,0,0,0,.5.2,1.3807,1.3807,0,0,1,.4.3c.1.1.1.3.2.5C16.3,78.3,16.3,78.5,16.4,78.6Zm-.3,0v-.3c0-.1-.1-.2-.1-.3a.3489.3489,0,0,0-.1-.2.3489.3489,0,0,0-.1-.2.9981.9981,0,0,0-.5-.4H15c-.1,0-.2-.1-.3-.1-.1-.1-.1-.2-.2-.2-.1-.1-.1-.1-.2-.1s-.1,0-.2.1l-.2.2-.2.2a.3673.3673,0,0,1-.3.1.3489.3489,0,0,0-.2.1V79c0,.1-.1.1-.1.2v.1a.31.31,0,0,1,.2.1h.2c.1,0,.2-.1.3-.1s.3-.1.4-.1a1.087,1.087,0,0,1,.5-.1h.2c.1,0,.1,0,.2.1a.3673.3673,0,0,0,.3.1,1.0342,1.0342,0,0,1,.4.1h.1v-.1C16,78.8,16.1,78.7,16.1,78.6Z" fill="#bebeb4"/></g><g id="rock2_bd-2" data-name="rock2 bd-2"><path d="M21.8,74v.1a.8643.8643,0,0,1-.3.6.764.764,0,0,1-.5.2,1.087,1.087,0,0,1-.5-.1,1.7587,1.7587,0,0,0-.6-.1h-.3a1.087,1.087,0,0,0-.5.1c-.2,0-.3.1-.5.1h-.1c-.3,0-.4-.1-.4-.3a1.6884,1.6884,0,0,1,.2-.5v-.6a1.4828,1.4828,0,0,0-.1-.7c0-.3.2-.5.5-.7a6.8727,6.8727,0,0,1,.8-.3h.1a.3673.3673,0,0,1,.3.1l.3.3.2.2a1.6884,1.6884,0,0,0,.5.2,1.3807,1.3807,0,0,1,.4.3c.1.1.1.3.2.5A1.6277,1.6277,0,0,0,21.8,74Zm-.6-1a.9981.9981,0,0,0-.5-.4h-.3c-.1,0-.2-.1-.3-.1-.1-.1-.1-.2-.2-.2-.1-.1-.1-.1-.2-.1s-.1,0-.2.1l-.2.2-.2.2a.3673.3673,0,0,1-.3.1.3489.3489,0,0,0-.2.1v1.5c0,.1-.1.1-.1.2v.1a.31.31,0,0,1,.2.1h.2c.1,0,.2-.1.3-.1s.3-.1.4-.1a1.087,1.087,0,0,1,.5-.1h.2c.1,0,.1,0,.2.1a.3676.3676,0,0,0,.3.1,1.0325,1.0325,0,0,1,.4.1h.1v-.1c.1-.4.1-.6.2-.7v-.3c0-.1-.1-.2-.1-.3" fill="#bebeb4"/></g><g id="rock1_bd" data-name="rock1 bd"><path d="M9.8,71.8c.1-.2.1-.4.2-.4,0-.1.1-.1.3-.2.1,0,.2-.1.4-.2.1,0,.1-.1.2-.2l.2-.2a.31.31,0,0,1,.2-.1h.1c.3.1.5.1.7.3.3.2.4.3.4.6v1a.7578.7578,0,0,1,.2.4c0,.1-.1.2-.3.2H11.3a1.087,1.087,0,0,0-.5.1c-.2,0-.3.1-.4.1-.4-.2-.5-.2-.6-.3a.55.55,0,0,1-.2-.5v-.1C9.7,72.2,9.7,72.1,9.8,71.8Zm.2.8h0c.1.1.2.1.4,0,.1,0,.2,0,.2-.1.1,0,.1-.1.2-.1H11a.6012.6012,0,0,1,.4.1c.1,0,.2.1.3.1s.1,0,.2.1h.2c.1,0,.1,0,.1-.1v-.1l-.1-.1V71.2c0-.1,0-.1-.1-.1s-.2-.1-.3-.1l-.2-.2-.1-.1c-.1,0-.1-.1-.2-.1a.0979.0979,0,0,0-.1.0958V70.7c0,.1-.1.1-.1.2a.3489.3489,0,0,1-.2.1h-.2a1.3807,1.3807,0,0,0-.4.3.3489.3489,0,0,0-.1.2.31.31,0,0,1-.1.2.3489.3489,0,0,1-.1.2v.2C9.9,72.4,9.9,72.5,10,72.6Z" fill="#bebeb4"/></g><g id="rock2_bd-3" data-name="rock2 bd-3"><path d="M53.1,67.9V68a.8643.8643,0,0,1-.3.6.764.764,0,0,1-.5.2,1.087,1.087,0,0,1-.5-.1,1.7587,1.7587,0,0,0-.6-.1h-.3a1.087,1.087,0,0,0-.5.1c-.2,0-.3.1-.5.1h-.1c-.3,0-.4-.1-.4-.3a1.6884,1.6884,0,0,1,.2-.5V66.7c0-.3.2-.5.5-.7a6.8727,6.8727,0,0,1,.8-.3H51a.3673.3673,0,0,1,.3.1l.3.3.2.2a1.6884,1.6884,0,0,0,.5.2,1.3807,1.3807,0,0,1,.4.3c.1.1.1.3.2.5A.8453.8453,0,0,0,53.1,67.9Zm-.4.1v-.3c0-.1-.1-.2-.1-.3a.3489.3489,0,0,0-.1-.2.3489.3489,0,0,0-.1-.2.9981.9981,0,0,0-.5-.4h-.3c-.1,0-.2-.1-.3-.1-.1-.1-.1-.2-.2-.2,0-.3-.1-.3-.2-.3s-.1,0-.2.1l-.2.2-.2.2a.3673.3673,0,0,1-.3.1.3489.3489,0,0,0-.2.1v1.5c0,.1-.1.1-.1.2v.1a.31.31,0,0,1,.2.1h.2c.1,0,.2-.1.3-.1s.3-.1.4-.1a1.087,1.087,0,0,1,.5-.1h.2c.1,0,.1,0,.2.1a.3673.3673,0,0,0,.3.1,1.0325,1.0325,0,0,1,.4.1h.1v-.1C52.7,68.2,52.7,68.1,52.7,68Z" fill="#bebeb4"/></g><g id="rock2_bd-4" data-name="rock2 bd-4"><path d="M58.5,63.4v.1a.8643.8643,0,0,1-.3.6.764.764,0,0,1-.5.2,1.087,1.087,0,0,1-.5-.1,1.7587,1.7587,0,0,0-.6-.1h-.3a1.087,1.087,0,0,0-.5.1c-.2,0-.3.1-.5.1h-.1c-.3,0-.4-.1-.4-.3a1.6884,1.6884,0,0,1,.2-.5V62.2c0-.3.2-.5.5-.7a6.8909,6.8909,0,0,1,.8-.3h.1a.3673.3673,0,0,1,.3.1l.3.3.2.2a1.6884,1.6884,0,0,0,.5.2,1.3807,1.3807,0,0,1,.4.3c.1.1.1.3.2.5A1.4214,1.4214,0,0,0,58.5,63.4Zm-.7-1a.9981.9981,0,0,0-.5-.4H57c-.1,0-.2-.1-.3-.1-.1-.1-.1-.2-.2-.2-.1-.1-.1-.1-.2-.1s-.1,0-.2.1l-.2.2-.2.2a.3673.3673,0,0,1-.3.1.3489.3489,0,0,0-.2.1v1.5c0,.1-.1.1-.1.2v.1a.31.31,0,0,1,.2.1h.2c.1,0,.2-.1.3-.1s.3-.1.4-.1a1.087,1.087,0,0,1,.5-.1h.2c.1,0,.1,0,.2.1a.3673.3673,0,0,0,.3.1,1.0342,1.0342,0,0,1,.4.1h.1v-.1a1.7283,1.7283,0,0,0,.2-.7v-.3c0-.1-.1-.2-.1-.3" fill="#bebeb4"/></g><g id="rock1_bd-2" data-name="rock1 bd-2"><path d="M46.5,61.2c.1-.2.1-.4.2-.4,0-.1.1-.1.3-.2.1,0,.2-.1.4-.2.1,0,.1-.1.2-.2l.2-.2a.31.31,0,0,1,.2-.1h.1c.3.1.5.1.7.3.3.2.4.3.4.6v1a.7578.7578,0,0,1,.2.4c0,.1-.1.2-.3.2H48a1.087,1.087,0,0,0-.5.1c-.2,0-.3.1-.4.1a.52.52,0,0,1-.4-.2.55.55,0,0,1-.2-.5v-.1C46.3,61.6,46.4,61.4,46.5,61.2Zm.2.8h0c.1.1.2.1.4,0,.1,0,.2,0,.2-.1.1,0,.1-.1.2-.1h.2a.6012.6012,0,0,1,.4.1c.1,0,.2.1.3.1s.1,0,.2.1h.2c.1,0,.1,0,.1-.1v-.1l-.1-.1V60.6c0-.1,0-.1-.1-.1s-.2-.1-.3-.1l-.2-.2-.1-.1c-.1,0-.1-.1-.2-.1a.0979.0979,0,0,0-.1.0958V60.1c0,.1-.1.1-.1.2a.3489.3489,0,0,1-.2.1h-.2a1.3807,1.3807,0,0,0-.4.3.3489.3489,0,0,0-.1.2.31.31,0,0,1-.1.2.3489.3489,0,0,1-.1.2v.2C46.6,61.8,46.6,61.9,46.7,62Z" fill="#bebeb4"/></g><g id="rock2_bd-5" data-name="rock2 bd-5"><path d="M12,50.4v.1a.8643.8643,0,0,1-.3.6.764.764,0,0,1-.5.2,1.087,1.087,0,0,1-.5-.1,1.7587,1.7587,0,0,0-.6-.1H9.8a1.087,1.087,0,0,0-.5.1c-.2,0-.3.1-.5.1H8.7c-.3,0-.4-.1-.4-.3a1.6884,1.6884,0,0,1,.2-.5v-.6a1.4828,1.4828,0,0,0-.1-.7c0-.3.2-.5.5-.7a6.8909,6.8909,0,0,1,.8-.3h.1a.3673.3673,0,0,1,.3.1l.3.3.2.2a1.6884,1.6884,0,0,0,.5.2,1.3807,1.3807,0,0,1,.4.3c.1.1.1.3.2.5A1.6277,1.6277,0,0,0,12,50.4Zm-.7-.9a.9981.9981,0,0,0-.5-.4h-.3c-.1,0-.2-.1-.3-.1-.1-.1-.1-.2-.2-.2-.1-.1-.1-.1-.2-.1s-.1,0-.2.1l-.2.2-.2.2c0-.2-.2-.1-.3-.1a.3489.3489,0,0,0-.2.1v1.5c0,.1-.1.1-.1.2V51a.31.31,0,0,1,.2.1H9c.1,0,.2-.1.3-.1s.3-.1.4-.1a1.087,1.087,0,0,1,.5-.1h.2c.1,0,.1,0,.2.1a.3673.3673,0,0,0,.3.1,1.0342,1.0342,0,0,1,.4.1h.1V51c.2-.3.2-.4.2-.5v-.3c0-.1-.1-.2-.1-.3" fill="#bebeb4"/></g><g id="rock2_bd-6" data-name="rock2 bd-6"><path d="M17.3,45.8v.1a.8643.8643,0,0,1-.3.6.764.764,0,0,1-.5.2,1.087,1.087,0,0,1-.5-.1,1.7587,1.7587,0,0,0-.6-.1h-.3a1.087,1.087,0,0,0-.5.1c-.2,0-.3.1-.5.1H14c-.3,0-.4-.1-.4-.3a1.6884,1.6884,0,0,1,.2-.5v-.6a1.4828,1.4828,0,0,0-.1-.7c0-.3.2-.5.5-.7a6.8909,6.8909,0,0,1,.8-.3h.1a.3673.3673,0,0,1,.3.1l.3.3.2.2a1.6884,1.6884,0,0,0,.5.2,1.3807,1.3807,0,0,1,.4.3c.1.1.1.3.2.5A1.5465,1.5465,0,0,1,17.3,45.8Zm-.3.1v-.3c0-.1-.1-.2-.1-.3a.3489.3489,0,0,0-.1-.2.3489.3489,0,0,0-.1-.2.9981.9981,0,0,0-.5-.4h-.3c-.1,0-.2-.1-.3-.1-.1-.1-.1-.2-.2-.2-.1-.1-.1-.1-.2-.1s-.1,0-.2.1l-.2.2-.2.2a.3673.3673,0,0,1-.3.1.3489.3489,0,0,0-.2.1v1.5c0,.1-.1.1-.1.2v.1a.31.31,0,0,1,.2.1h.2c.1,0,.2-.1.3-.1s.3-.1.4-.1a1.087,1.087,0,0,1,.5-.1h.2c.1,0,.1,0,.2.1a.3673.3673,0,0,0,.3.1,1.0342,1.0342,0,0,1,.4.1h.1v-.1C16.9,46.1,17,46,17,45.9Z" fill="#bebeb4"/></g><g id="rock1_bd-3" data-name="rock1 bd-3"><path d="M5.4,43.7c.1-.2.1-.3.2-.4,0-.1.1-.1.3-.2,0-.1.1-.1.3-.2.1,0,.1-.1.2-.2l.2-.2a.31.31,0,0,1,.2-.1h.1a6.3629,6.3629,0,0,1,.7.2c.3.2.4.3.4.6v1.4c0,.1-.1.2-.3.2H6.6a1.087,1.087,0,0,0-.5.1c-.2,0-.3.1-.4.1a.52.52,0,0,1-.4-.2.55.55,0,0,1-.2-.5v-.1A2.1843,2.1843,0,0,0,5.4,43.7Zm.2.8h0c.1.1.2.1.4,0,.1,0,.2,0,.2-.1.1,0,.1-.1.2-.1h.2a.6012.6012,0,0,1,.4.1c.1,0,.2.1.3.1s.1,0,.2.1h.2c.1,0,.1,0,.1-.1v-.1l-.1-.1V43.1c0-.1,0-.1-.1-.1s-.2-.1-.3-.1l-.2-.2c0,.1-.1,0-.1,0-.1,0-.1-.1-.2-.1a.0979.0979,0,0,0-.1.0958V42.7c0,.1-.1.1-.1.2a.3489.3489,0,0,1-.2.1H6.2a1.3807,1.3807,0,0,0-.4.3.3489.3489,0,0,0-.1.2.31.31,0,0,1-.1.2.3489.3489,0,0,1-.1.2v.2C5.4,44.3,5.5,44.4,5.6,44.5Z" fill="#bebeb4"/></g><g id="rock2_bd-7" data-name="rock2 bd-7"><path d="M20.8,29.4v.1a.8643.8643,0,0,1-.3.6.764.764,0,0,1-.5.2,1.087,1.087,0,0,1-.5-.1,1.7587,1.7587,0,0,0-.6-.1h-.3a1.087,1.087,0,0,0-.5.1c-.2,0-.3.1-.5.1h-.1c-.3,0-.4-.1-.4-.3a1.6884,1.6884,0,0,1,.2-.5v-.6a1.4828,1.4828,0,0,0-.1-.7c0-.3.2-.5.5-.7a6.8909,6.8909,0,0,1,.8-.3h.1a.3673.3673,0,0,1,.3.1l.3.3.2.2a1.6884,1.6884,0,0,0,.5.2,1.3807,1.3807,0,0,1,.4.3c.1.1.1.3.2.5A1.5465,1.5465,0,0,1,20.8,29.4Zm-.6-.9a.9981.9981,0,0,0-.5-.4h-.3c-.1,0-.2-.1-.3-.1-.1-.1-.1-.2-.2-.2-.1-.1-.1-.1-.2-.1s-.1,0-.2.1l-.2.2-.2.2a.3673.3673,0,0,1-.3.1.3489.3489,0,0,0-.2.1v1.5c0,.1-.1.1-.1.2v.1a.31.31,0,0,1,.2.1h.2c.1,0,.2-.1.3-.1s.3-.1.4-.1a1.087,1.087,0,0,1,.5-.1h.2c.1,0,.1,0,.2.1a.3673.3673,0,0,0,.3.1,1.036,1.036,0,0,1,.4.1h.1v-.1c.1-.5.2-.6.2-.7v-.3c0-.1-.1-.2-.1-.3" fill="#bebeb4"/></g><g id="rock2_bd-8" data-name="rock2 bd-8"><path d="M26.2,24.8v.1a.8643.8643,0,0,1-.3.6.764.764,0,0,1-.5.2,1.087,1.087,0,0,1-.5-.1,1.7587,1.7587,0,0,0-.6-.1H24a1.087,1.087,0,0,0-.5.1c-.2,0-.3.1-.5.1h-.1c-.3,0-.4-.1-.4-.3a1.6884,1.6884,0,0,1,.2-.5v-.6a1.4828,1.4828,0,0,0-.1-.7c0-.3.2-.5.5-.7a6.8909,6.8909,0,0,1,.8-.3H24a.3673.3673,0,0,1,.3.1l.3.3.2.2a1.6884,1.6884,0,0,0,.5.2,1.3807,1.3807,0,0,1,.4.3c.1.1.1.3.2.5C26.1,24.5,26.1,24.7,26.2,24.8Zm-.6-.9a.9981.9981,0,0,0-.5-.4h-.3c-.1,0-.2-.1-.3-.1-.1-.1-.1-.2-.2-.2-.1-.1-.1-.1-.2-.1s-.1,0-.2.1l-.2.2-.2.2a.3673.3673,0,0,1-.3.1.3489.3489,0,0,0-.2.1v1.5c0,.1-.1.1-.1.2v.1a.31.31,0,0,1,.2.1h.2c.1,0,.2-.1.3-.1s.3-.1.4-.1a1.087,1.087,0,0,1,.5-.1h.2c.1,0,.1,0,.2.1a.3673.3673,0,0,0,.3.1,1.036,1.036,0,0,1,.4.1h.1v-.1c.1-.5.2-.6.2-.7v-.3c0-.1-.1-.2-.1-.3" fill="#bebeb4"/></g><g id="rock1_bd-4" data-name="rock1 bd-4"><path d="M14.2,22.7c.1-.2.1-.3.2-.4,0-.1.1-.1.3-.2.1,0,.2-.1.4-.2.1,0,.1-.1.2-.2l.2-.2a.31.31,0,0,1,.2-.1h.1a6.3629,6.3629,0,0,1,.7.2c.3.2.4.3.4.6v1a.7578.7578,0,0,1,.2.4c0,.1-.1.2-.3.2H15.7a1.087,1.087,0,0,0-.5.1c-.2,0-.3.1-.4.1a.52.52,0,0,1-.4-.2.55.55,0,0,1-.2-.5v-.1A.38.38,0,0,1,14.2,22.7Zm.2.8h0c.1,0,.1.1,0,0,.1.1.2.1.4,0,.1,0,.2,0,.2-.1.1,0,.1-.1.2-.1h.2a.6012.6012,0,0,1,.4.1c.1,0,.2.1.3.1s.1,0,.2.1h.2c.1,0,.1,0,.1-.1v-.1l-.1-.1V22.1c0-.1,0-.1-.1-.1s-.2-.1-.3-.1l-.2-.2-.1-.1c-.1,0-.1-.1-.2-.1a.0979.0979,0,0,0-.1.0958V21.6c0,.1-.1.1-.1.2a.3489.3489,0,0,1-.2.1H15a1.3807,1.3807,0,0,0-.4.3.3489.3489,0,0,0-.1.2.31.31,0,0,1-.1.2.3489.3489,0,0,1-.1.2V23C14.3,23.3,14.3,23.4,14.4,23.5Z" fill="#bebeb4"/></g><g id="rock2_bd-9" data-name="rock2 bd-9"><path d="M51.6,9.7v.1a.8643.8643,0,0,1-.3.6.764.764,0,0,1-.5.2,1.087,1.087,0,0,1-.5-.1,1.7587,1.7587,0,0,0-.6-.1h-.3a1.087,1.087,0,0,0-.5.1c-.2,0-.3.1-.5.1h-.1c-.3,0-.4-.1-.4-.3a1.6884,1.6884,0,0,1,.2-.5V9.2a1.4828,1.4828,0,0,0-.1-.7c0-.3.2-.5.5-.7a6.8909,6.8909,0,0,1,.8-.3h.1a.3673.3673,0,0,1,.3.1l.3.3c.2.1.3.1.4.2a1.6884,1.6884,0,0,0,.5.2,1.3793,1.3793,0,0,1,.4.3c.1.1.1.3.2.5A3.5336,3.5336,0,0,0,51.6,9.7Zm-.3,0V9.4c0-.1-.1-.2-.1-.3L51,8.9a.3489.3489,0,0,0-.1-.2.9981.9981,0,0,0-.5-.4h-.3c-.1,0-.2-.1-.3-.1,0-.2-.1-.2-.1-.3-.1-.1-.1-.1-.2-.1s-.1,0-.2.1l-.2.2c-.1,0-.1.1-.2.1a.3673.3673,0,0,1-.3.1.3489.3489,0,0,0-.2.1V9.9c0,.1-.1.1-.1.2v.1a.31.31,0,0,1,.2.1h.2c.1,0,.2-.1.3-.1s.3-.1.4-.1a1.087,1.087,0,0,1,.5-.1h.2c.1,0,.1,0,.2.1a.3673.3673,0,0,0,.3.1,1.036,1.036,0,0,1,.4.1h.1v-.1A1.6884,1.6884,0,0,0,51.3,9.7Z" fill="#bebeb4"/></g><g id="rock2_bd-10" data-name="rock2 bd-10"><path d="M57,5.1v.1a.8643.8643,0,0,1-.3.6c-.1.2-.2.2-.4.2h-.5a1.7587,1.7587,0,0,0-.6-.1h-.3a1.087,1.087,0,0,0-.5.1c-.2,0-.3.1-.5.1h-.1c-.3,0-.4-.1-.4-.3a1.6884,1.6884,0,0,1,.2-.5V4c0-.3.2-.5.5-.7a6.8909,6.8909,0,0,1,.8-.3H55a.3673.3673,0,0,1,.3.1l.3.3.2.2a1.6884,1.6884,0,0,0,.5.2,1.3807,1.3807,0,0,1,.4.3c.1.1.1.3.2.5A4.34,4.34,0,0,0,57,5.1Zm-.3.1V4.9c0-.1-.1-.2-.1-.3a.3489.3489,0,0,0-.1-.2.3489.3489,0,0,0-.1-.2,2.649,2.649,0,0,0-.6-.5h-.3c-.1,0-.2-.1-.3-.1-.1-.1-.1-.2-.2-.2-.1-.1-.1-.1-.2-.1s-.1,0-.2.1l-.2.2-.2.2a.3673.3673,0,0,1-.3.1.3489.3489,0,0,0-.2.1V5.5c0,.1-.1.1-.1.2v.1a.31.31,0,0,1,.2.1H54c.1,0,.2-.1.3-.1s.3-.1.4-.1a1.087,1.087,0,0,1,.5-.1h.2c.1,0,.1,0,.2.1a.3673.3673,0,0,0,.3.1,1.0342,1.0342,0,0,1,.4.1h.1V5.8C56.6,5.4,56.7,5.3,56.7,5.2Z" fill="#bebeb4"/></g><g id="rock1_bd-5" data-name="rock1 bd-5"><path d="M45,3c.1-.2.1-.3.2-.4,0-.1.1-.1.3-.2.1,0,.2-.1.4-.2.1,0,.1-.1.2-.2l.2-.2a.31.31,0,0,1,.2-.1h.1a6.3629,6.3629,0,0,1,.7.2c.3.2.4.3.4.6v1a.7578.7578,0,0,1,.2.4c0,.1-.1.2-.3.2H46.5a1.087,1.087,0,0,0-.5.1c-.2,0-.3.1-.4.1a.52.52,0,0,1-.4-.2.55.55,0,0,1-.2-.5V3.5C44.9,3.4,45,3.2,45,3Zm.3.7h0c.1.1.2.1.4,0,.1,0,.2,0,.2-.1.1,0,.1-.1.2-.1h.2a.6012.6012,0,0,1,.4.1c.1,0,.2.1.3.1s.1,0,.2.1h.2c.1,0,.1,0,.1-.1V3.6l-.1-.1V2.3c0-.1,0-.1-.1-.1s-.2-.1-.3-.1l-.2-.2c0,.2-.1.1-.1.1-.1,0-.1-.1-.2-.1a.0979.0979,0,0,0-.1.0958V2c0,.1-.1.1-.1.2a.3489.3489,0,0,1-.2.1h-.2a1.3807,1.3807,0,0,0-.4.3.3489.3489,0,0,0-.1.2.31.31,0,0,1-.1.2.3489.3489,0,0,1-.1.2v.2C45.1,3.6,45.2,3.6,45.3,3.7Z" fill="#bebeb4"/></g><g id="rock2_bd-11" data-name="rock2 bd-11"><path d="M74.2,25.9V26a.8643.8643,0,0,1-.3.6.764.764,0,0,1-.5.2,1.087,1.087,0,0,1-.5-.1,1.7587,1.7587,0,0,0-.6-.1H72a1.087,1.087,0,0,0-.5.1c-.2,0-.3.1-.5.1h-.1c-.3,0-.4-.1-.4-.3a1.6884,1.6884,0,0,1,.2-.5V24.7c0-.3.2-.5.5-.7a6.8909,6.8909,0,0,1,.8-.3h.1a.3673.3673,0,0,1,.3.1l.3.3.2.2a1.6884,1.6884,0,0,0,.5.2,1.3793,1.3793,0,0,1,.4.3c.1.1.1.3.2.5A.8453.8453,0,0,0,74.2,25.9Zm-.6-.9a.9981.9981,0,0,0-.5-.4h-.3c-.1,0-.2-.1-.3-.1-.1-.1-.1-.2-.2-.2-.1-.3-.2-.3-.2-.3-.1,0-.1,0-.2.1l-.2.2-.2.2a.3673.3673,0,0,1-.3.1.3489.3489,0,0,0-.2.1v1.5c0,.1-.1.1-.1.2v.1a.31.31,0,0,1,.2.1h.2c.1,0,.2-.1.3-.1s.3-.1.4-.1a1.087,1.087,0,0,1,.5-.1h.2c.1,0,.1,0,.2.1a.3673.3673,0,0,0,.3.1,1.036,1.036,0,0,1,.4.1h.1v-.1c.1-.3.2-.4.2-.5v-.3c0-.1-.1-.2-.1-.3" fill="#bebeb4"/></g><g id="rock2_bd-12" data-name="rock2 bd-12"><path d="M79.6,21.3v.1a.8643.8643,0,0,1-.3.6.764.764,0,0,1-.5.2,1.087,1.087,0,0,1-.5-.1,1.7587,1.7587,0,0,0-.6-.1h-.3a1.087,1.087,0,0,0-.5.1c-.2,0-.3.1-.5.1h-.1c-.3,0-.4-.1-.4-.3a1.6884,1.6884,0,0,1,.2-.5V20.1c0-.3.2-.5.5-.7a6.8909,6.8909,0,0,1,.8-.3h.1a.3673.3673,0,0,1,.3.1l.3.3.2.2a1.6884,1.6884,0,0,0,.5.2,1.3807,1.3807,0,0,1,.4.3c.1.1.1.3.2.5A.8453.8453,0,0,0,79.6,21.3Zm-.7-.9a.9981.9981,0,0,0-.5-.4h-.3c-.1,0-.2-.1-.3-.1-.1-.1-.1-.2-.2-.2-.1-.1-.1-.1-.2-.1s-.1,0-.2.1l-.2.2-.2.2a.3673.3673,0,0,1-.3.1.3489.3489,0,0,0-.2.1v1.5c0,.1-.1.1-.1.2v.1a.31.31,0,0,1,.2.1h.2c.1,0,.2-.1.3-.1s.3-.1.4-.1a1.087,1.087,0,0,1,.5-.1H78c.1,0,.1,0,.2.1a.3673.3673,0,0,0,.3.1,1.036,1.036,0,0,1,.4.1H79v-.1a1.7283,1.7283,0,0,0,.2-.7v-.3c0-.1-.1-.2-.1-.3" fill="#bebeb4"/></g><g id="rock1_bd-6" data-name="rock1 bd-6"><path d="M67.6,19.2c.1-.2.1-.3.2-.4,0-.1.1-.1.3-.2.1,0,.2-.1.4-.2l.2-.2.2-.2a.31.31,0,0,1,.2-.1h.1a6.3691,6.3691,0,0,1,.7.2c.3.2.4.3.4.6v1a.7578.7578,0,0,1,.2.4c0,.1-.1.2-.3.2H69.1a1.087,1.087,0,0,0-.5.1c-.2,0-.3.1-.4.1a.52.52,0,0,1-.4-.2.55.55,0,0,1-.2-.5v-.1A.4464.4464,0,0,1,67.6,19.2Zm.2.8h0c.1,0,.1.1,0,0,.1.1.2.1.4,0,.1,0,.2,0,.2-.1.1,0,.1-.1.2-.1h.2a.6013.6013,0,0,1,.4.1c.1,0,.2.1.3.1s.1,0,.2.1h.2c.1,0,.1,0,.1-.1v-.1l-.1-.1V18.6c0-.1,0-.1-.1-.1s-.2-.1-.3-.1l-.2-.2-.1-.1A.3489.3489,0,0,0,69,18a.0979.0979,0,0,0-.1.0958V18.1c0,.1-.1.1-.1.2a.3489.3489,0,0,1-.2.1h-.2a1.3807,1.3807,0,0,0-.4.3.3489.3489,0,0,0-.1.2.31.31,0,0,1-.1.2.3489.3489,0,0,1-.1.2v.2C67.7,19.8,67.7,19.9,67.8,20Z" fill="#bebeb4"/></g><g id="rock2_bd-13" data-name="rock2 bd-13"><path d="M85.3,9v.1a.8643.8643,0,0,1-.3.6.764.764,0,0,1-.5.2,1.087,1.087,0,0,1-.5-.1,1.7587,1.7587,0,0,0-.6-.1h-.3a1.087,1.087,0,0,0-.5.1c-.2,0-.3.1-.5.1H82c-.3,0-.4-.1-.4-.3a1.6884,1.6884,0,0,1,.2-.5V7.8c0-.3.2-.5.5-.7a6.8909,6.8909,0,0,1,.8-.3h.1a.3673.3673,0,0,1,.3.1l.3.3c.1.1.2.1.2.2a1.6884,1.6884,0,0,0,.5.2,1.3807,1.3807,0,0,1,.4.3c0,.1.1.2.2.5A3.9359,3.9359,0,0,1,85.3,9Zm-.3.1V8.8c0-.1-.1-.2-.1-.3a.3489.3489,0,0,0-.1-.2.3489.3489,0,0,0-.1-.2.9981.9981,0,0,0-.5-.4h-.3c-.1,0-.2-.1-.3-.1-.1-.1-.1-.2-.2-.2-.1-.1-.1-.1-.2-.1s-.1,0-.2.1l-.2.2-.2.2a.3673.3673,0,0,1-.3.1.3489.3489,0,0,0-.2.1V9.5c0,.1-.1.1-.1.2v.1a.31.31,0,0,1,.2.1h.2c.1,0,.2-.1.3-.1s.3-.1.4-.1a1.087,1.087,0,0,1,.5-.1h.2c.1,0,.1,0,.2.1a.3673.3673,0,0,0,.3.1,1.036,1.036,0,0,1,.4.1h.1V9.8C84.9,9.3,85,9.2,85,9.1Z" fill="#bebeb4"/></g><g id="rock2_bd-14" data-name="rock2 bd-14"><path d="M90.7,4.4v.1a.8643.8643,0,0,1-.3.6.764.764,0,0,1-.5.2,1.087,1.087,0,0,1-.5-.1,1.7587,1.7587,0,0,0-.6-.1h-.3a1.087,1.087,0,0,0-.5.1c-.2,0-.3.1-.5.1h-.1c-.2-.1-.4-.1-.4-.3a1.6884,1.6884,0,0,1,.2-.5V3.2c0-.3.2-.5.5-.7a6.8909,6.8909,0,0,1,.8-.3h.1a.3673.3673,0,0,1,.3.1l.3.3.2.2a1.6884,1.6884,0,0,0,.5.2,1.3807,1.3807,0,0,1,.4.3c.1.1.1.3.2.5C90.6,4.1,90.6,4.3,90.7,4.4Zm-.3.1V4.2c0-.1-.1-.2-.1-.3a.3489.3489,0,0,0-.1-.2.3489.3489,0,0,0-.1-.2.9981.9981,0,0,0-.5-.4h-.3c-.1,0-.2-.1-.3-.1-.1-.1-.1-.2-.2-.2-.1-.1-.1-.1-.2-.1s-.1,0-.2.1l-.2.2c-.1-.1-.2-.1-.2,0a.3673.3673,0,0,1-.3.1.3489.3489,0,0,0-.2.1V4.7c0,.1-.1.1-.1.2V5a.31.31,0,0,1,.2.1h.2c.1,0,.2-.1.3-.1s.3-.1.4-.1a1.087,1.087,0,0,1,.5-.1h.2c.1,0,.1,0,.2.1a.3673.3673,0,0,0,.3.1,1.036,1.036,0,0,1,.4.1h.1V5C90.3,4.7,90.4,4.6,90.4,4.5Z" fill="#bebeb4"/></g><g id="rock1_bd-7" data-name="rock1 bd-7"><path d="M78.7,2.3c.1-.2.1-.3.2-.4,0-.1.1-.1.3-.2.1,0,.2-.1.4-.2l.2-.2.2-.2c0-.1.1-.1.2-.1h.1a6.3691,6.3691,0,0,1,.7.2c.3.2.4.3.4.6v1a.7578.7578,0,0,1,.2.4c0,.1-.1.2-.3.2H80.2a1.087,1.087,0,0,0-.5.1c-.2,0-.3.1-.4.1a.52.52,0,0,1-.4-.2.55.55,0,0,1-.2-.5V2.8A.4464.4464,0,0,1,78.7,2.3Zm.2.8h0c.1.1.2.1.4,0,.1,0,.2,0,.2-.1.1,0,.1-.1.2-.1h.2a.6013.6013,0,0,1,.4.1c.1,0,.2.1.3.1s.1,0,.2.1H81c.1,0,.1,0,.1-.1V3L81,2.9V1.7c0-.1,0-.1-.1-.1s-.2-.1-.3-.1l-.2-.2-.1-.1a.3489.3489,0,0,0-.2-.1.0979.0979,0,0,0-.1.0958V1.2c0,.1-.1.1-.1.2a.3489.3489,0,0,1-.2.1h-.2a1.3807,1.3807,0,0,0-.4.3A.3489.3489,0,0,0,79,2a.31.31,0,0,1-.1.2.3489.3489,0,0,1-.1.2v.2C78.8,2.9,78.8,3,78.9,3.1Z" fill="#bebeb4"/></g><g id="rock2_bd-15" data-name="rock2 bd-15"><path d="M75.2,45.9V46a.8643.8643,0,0,1-.3.6.764.764,0,0,1-.5.2,1.087,1.087,0,0,1-.5-.1,1.7587,1.7587,0,0,0-.6-.1H73a1.087,1.087,0,0,0-.5.1c-.2,0-.3.1-.5.1h-.1c-.3,0-.4-.1-.4-.3a1.6884,1.6884,0,0,1,.2-.5V44.7c0-.3.2-.5.5-.7a6.8909,6.8909,0,0,1,.8-.3h.1a.3673.3673,0,0,1,.3.1l.3.3.2.2a1.6884,1.6884,0,0,0,.5.2,1.3793,1.3793,0,0,1,.4.3c.1.1.1.3.2.5S75.1,45.7,75.2,45.9Zm-.6-1a.9981.9981,0,0,0-.5-.4h-.3c-.1,0-.2-.1-.3-.1-.1-.1-.1-.2-.2-.2-.1-.1-.1-.1-.2-.1s-.1,0-.2.1l-.2.2-.2.2a.3673.3673,0,0,1-.3.1.3489.3489,0,0,0-.2.1v1.5c0,.1-.1.1-.1.2v.1a.31.31,0,0,1,.2.1h.2c.1,0,.2-.1.3-.1s.3-.1.4-.1a1.087,1.087,0,0,1,.5-.1h.2c.1,0,.1,0,.2.1a.3673.3673,0,0,0,.3.1,1.0342,1.0342,0,0,1,.4.1h.1v-.1c.1-.5.2-.6.2-.7v-.3c0-.1-.1-.2-.1-.3" fill="#bebeb4"/></g><g id="rock2_bd-16" data-name="rock2 bd-16"><path d="M80.6,41.3v.1a.8643.8643,0,0,1-.3.6.764.764,0,0,1-.5.2,1.087,1.087,0,0,1-.5-.1,3.5336,3.5336,0,0,1-.6-.1h-.3a1.087,1.087,0,0,0-.5.1c-.2,0-.3.1-.5.1h-.1c-.3,0-.4-.1-.4-.3a1.6884,1.6884,0,0,1,.2-.5V40.1c0-.3.2-.5.5-.7a6.8909,6.8909,0,0,1,.8-.3h.1a.3673.3673,0,0,1,.3.1l.3.3.2.2a1.6884,1.6884,0,0,0,.5.2,1.3807,1.3807,0,0,1,.4.3c.1.1.1.3.2.5A.8453.8453,0,0,0,80.6,41.3Zm-.4,0V41c0-.1-.1-.2-.1-.3a.3489.3489,0,0,0-.1-.2.3489.3489,0,0,0-.1-.2.9981.9981,0,0,0-.5-.4h-.3c-.1,0-.2-.1-.3-.1-.1-.1-.1-.2-.2-.2-.1-.1-.1-.1-.2-.1s-.1,0-.2.1l-.2.2-.2.2a.3673.3673,0,0,1-.3.1.3489.3489,0,0,0-.2.1v1.5c0,.1-.1.1-.1.2V42a.31.31,0,0,1,.2.1h.2c.1,0,.2-.1.3-.1s.3-.1.4-.1a1.087,1.087,0,0,1,.5-.1H79c.1,0,.1,0,.2.1a.3673.3673,0,0,0,.3.1,1.0342,1.0342,0,0,1,.4.1H80V42A1.7283,1.7283,0,0,0,80.2,41.3Z" fill="#bebeb4"/></g><g id="rock1_bd-8" data-name="rock1 bd-8"><path d="M68.6,39.1c.1-.2.1-.3.2-.4,0-.1.1-.1.3-.2.1,0,.2-.1.4-.2l.2-.2.2-.2a.31.31,0,0,1,.2-.1h.1a6.3691,6.3691,0,0,1,.7.2c.3.2.4.3.4.6v1a.7578.7578,0,0,1,.2.4c0,.1-.1.2-.3.2H70.1a1.087,1.087,0,0,0-.5.1c-.2,0-.3.1-.4.1a.52.52,0,0,1-.4-.2.55.55,0,0,1-.2-.5v-.1A.4464.4464,0,0,1,68.6,39.1Zm.2.8h0c.1.1.2.1.4,0,.1,0,.2,0,.2-.1.1,0,.1-.1.2-.1h.2a.6013.6013,0,0,1,.4.1c.1,0,.2.1.3.1s.1,0,.2.1h.2c.1,0,.1,0,.1-.1v-.1l-.1-.1V38.5c0-.1,0-.1-.1-.1s-.2-.1-.3-.1l-.2-.2-.1-.1a.3489.3489,0,0,0-.2-.1.0979.0979,0,0,0-.1.0958V38c0,.1-.1.1-.1.2a.3489.3489,0,0,1-.2.1h-.2a1.3807,1.3807,0,0,0-.4.3.3489.3489,0,0,0-.1.2.31.31,0,0,1-.1.2.3489.3489,0,0,1-.1.2v.2C68.7,39.7,68.7,39.8,68.8,39.9Z" fill="#bebeb4"/></g><g id="rock2_bd-17" data-name="rock2 bd-17"><path d="M85.8,69.9V70a.8643.8643,0,0,1-.3.6.764.764,0,0,1-.5.2,1.087,1.087,0,0,1-.5-.1,1.7587,1.7587,0,0,0-.6-.1h-.3a1.087,1.087,0,0,0-.5.1c-.2,0-.3.1-.5.1h-.1c-.3,0-.4-.1-.4-.3a1.6884,1.6884,0,0,1,.2-.5V68.7c0-.3.2-.5.5-.7a6.8727,6.8727,0,0,1,.8-.3h.1a.3673.3673,0,0,1,.3.1l.3.3.2.2a1.6884,1.6884,0,0,0,.5.2,1.3807,1.3807,0,0,1,.4.3c.1.1.1.3.2.5A1.4214,1.4214,0,0,1,85.8,69.9Zm-.6-1a.9981.9981,0,0,0-.5-.4h-.3c-.1,0-.2-.1-.3-.1-.1-.1-.1-.2-.2-.2-.1-.1-.1-.1-.2-.1s-.1,0-.2.1l-.2.2-.2.2a.3673.3673,0,0,1-.3.1.3489.3489,0,0,0-.2.1v1.5c0,.1-.1.1-.1.2v.1a.31.31,0,0,1,.2.1h.2c.1,0,.2-.1.3-.1s.3-.1.4-.1a1.087,1.087,0,0,1,.5-.1h.2c.1,0,.1,0,.2.1a.3673.3673,0,0,0,.3.1,1.0325,1.0325,0,0,1,.4.1h.1v-.1c.1-.5.2-.6.2-.7v-.3c0-.1-.1-.2-.1-.3" fill="#bebeb4"/></g><g id="rock2_bd-18" data-name="rock2 bd-18"><path d="M91.2,65.3v.1a.8643.8643,0,0,1-.3.6.764.764,0,0,1-.5.2,1.087,1.087,0,0,1-.5-.1,1.7587,1.7587,0,0,0-.6-.1H89a1.087,1.087,0,0,0-.5.1c-.2,0-.3.1-.5.1h-.1c-.3,0-.4-.1-.4-.3a1.6884,1.6884,0,0,1,.2-.5V64.1c0-.3.2-.5.5-.7a6.8909,6.8909,0,0,1,.8-.3h.1a.3673.3673,0,0,1,.3.1l.3.3.2.2a1.6884,1.6884,0,0,0,.5.2,1.3793,1.3793,0,0,1,.4.3c.1.1.1.3.2.5C91.1,65,91.1,65.2,91.2,65.3Zm-.6-1a.9981.9981,0,0,0-.5-.4h-.3c-.1,0-.2-.1-.3-.1-.1-.1-.1-.2-.2-.2-.1-.1-.1-.1-.2-.1s-.1,0-.2.1l-.2.2-.2.2a.3673.3673,0,0,1-.3.1.3489.3489,0,0,0-.2.1v1.5c0,.1-.1.1-.1.2V66a.31.31,0,0,1,.2.1h.2c.1,0,.2-.1.3-.1s.3-.1.4-.1a1.087,1.087,0,0,1,.5-.1h.2c.1,0,.1,0,.2.1a.3673.3673,0,0,0,.3.1,1.0342,1.0342,0,0,1,.4.1h.1V66c.1-.5.2-.6.2-.7V65c0-.1-.1-.2-.1-.3" fill="#bebeb4"/></g><g id="rock1_bd-9" data-name="rock1 bd-9"><path d="M79.2,63.1c.1-.2.1-.4.2-.4,0-.1.1-.1.3-.2.1,0,.2-.1.4-.2l.2-.2.2-.2a.31.31,0,0,1,.2-.1h.1c.3.1.5.1.7.3.3.2.4.3.4.6v1a.7578.7578,0,0,1,.2.4c0,.1-.1.2-.3.2H80.7a1.087,1.087,0,0,0-.5.1c-.2,0-.3.1-.4.1a.52.52,0,0,1-.4-.2c-.3-.3-.4-.5-.4-.6v-.1C79.1,63.5,79.1,63.3,79.2,63.1Zm.2.8h0c.1.1.2.1.4,0,.1,0,.2,0,.2-.1.1,0,.1-.1.2-.1h.2a.6013.6013,0,0,1,.4.1c.1,0,.2.1.3.1s.1,0,.2.1h.2c.1,0,.1,0,.1-.1v-.1l-.1-.1V62.5c0-.1,0-.1-.1-.1s-.2-.1-.3-.1l-.2-.2-.1-.1a.3489.3489,0,0,0-.2-.1.0979.0979,0,0,0-.1.0958V62c0,.1-.1.1-.1.2a.3489.3489,0,0,1-.2.1H80a1.3807,1.3807,0,0,0-.4.3.3489.3489,0,0,0-.1.2.31.31,0,0,1-.1.2.3489.3489,0,0,1-.1.2v.2C79.3,63.7,79.3,63.8,79.4,63.9Z" fill="#bebeb4"/></g><g id="rock2_bd-19" data-name="rock2 bd-19"><path d="M59.5,91.2v.1a.8643.8643,0,0,1-.3.6.764.764,0,0,1-.5.2,1.087,1.087,0,0,1-.5-.1h-.9a1.087,1.087,0,0,0-.5.1c-.2,0-.3.1-.5.1h-.1c-.3,0-.4-.1-.4-.3a1.6884,1.6884,0,0,1,.2-.5V90.1c0-.3.2-.5.5-.7a6.8727,6.8727,0,0,1,.8-.3h.1a.3673.3673,0,0,1,.3.1l.3.3.2.2a1.6884,1.6884,0,0,0,.5.2,1.3807,1.3807,0,0,1,.4.3c.1.1.1.3.2.5A1.6884,1.6884,0,0,1,59.5,91.2Zm-.3.1V91c0-.1-.1-.2-.1-.3a.3489.3489,0,0,0-.1-.2.3489.3489,0,0,0-.1-.2.9981.9981,0,0,0-.5-.4h-.3c-.1,0-.2-.1-.3-.1-.1-.1-.1-.2-.2-.2-.1-.1-.1-.1-.2-.1s-.1,0-.2.1l-.2.2-.2.2a.3673.3673,0,0,1-.3.1.3489.3489,0,0,0-.2.1v1.5c0,.1-.1.1-.1.2V92a.31.31,0,0,1,.2.1h.2c.1,0,.2-.1.3-.1s.3-.1.4-.1a1.087,1.087,0,0,1,.5-.1H58c.1,0,.1,0,.2.1a.3673.3673,0,0,0,.3.1,1.0342,1.0342,0,0,1,.4.1H59V92C59.1,91.5,59.2,91.4,59.2,91.3Z" fill="#bebeb4"/></g><g id="rock2_bd-20" data-name="rock2 bd-20"><path d="M64.9,86.7v.1a.8643.8643,0,0,1-.3.6.764.764,0,0,1-.5.2,1.087,1.087,0,0,1-.5-.1,1.7587,1.7587,0,0,0-.6-.1h-.3a1.087,1.087,0,0,0-.5.1c-.2,0-.3.1-.5.1h-.1c-.3,0-.4-.1-.4-.3a1.6884,1.6884,0,0,1,.2-.5V85.5c0-.3.2-.5.5-.7a6.8909,6.8909,0,0,1,.8-.3h.1a.3673.3673,0,0,1,.3.1l.3.3.2.2a1.6884,1.6884,0,0,0,.5.2,1.3807,1.3807,0,0,1,.4.3c.1.1.1.3.2.5A1.4214,1.4214,0,0,1,64.9,86.7Zm-.6-1a.9981.9981,0,0,0-.5-.4h-.3c-.1,0-.2-.1-.3-.1a1.2378,1.2378,0,0,0-.2-.3c-.1-.1-.1-.1-.2-.1s-.1,0-.2.1l-.2.2-.2.2a.3676.3676,0,0,1-.3.1.3489.3489,0,0,0-.2.1V87c0,.1-.1.1-.1.2v.1a.31.31,0,0,1,.2.1H62c.1,0,.2-.1.3-.1s.3-.1.4-.1a1.087,1.087,0,0,1,.5-.1h.2c.1,0,.1,0,.2.1a.3673.3673,0,0,0,.3.1,1.0342,1.0342,0,0,1,.4.1h.1v-.1c.1-.4.2-.5.2-.6v-.3c0-.1-.1-.2-.1-.3" fill="#bebeb4"/></g><g id="rock1_bd-10" data-name="rock1 bd-10"><path d="M52.9,84.5c.1-.2.1-.4.2-.4,0-.1.1-.1.3-.2.1,0,.2-.1.4-.2l.2-.2.2-.2a.31.31,0,0,1,.2-.1h.1c.3.1.5.1.7.3.3.2.4.3.4.6v1a.7578.7578,0,0,1,.2.4c0,.1-.1.2-.3.2H54.4a1.087,1.087,0,0,0-.5.1c-.2,0-.3.1-.4.1a.52.52,0,0,1-.4-.2.55.55,0,0,1-.2-.5v-.1C52.8,84.9,52.9,84.7,52.9,84.5Zm.3.8h0c.1.1.2.1.4,0,.1,0,.2,0,.2-.1.1,0,.1-.1.2-.1h.2a.6012.6012,0,0,1,.4.1c.1,0,.2.1.3.1s.1,0,.2.1h.2c.1,0,.1,0,.1-.1v-.1l-.1-.1V83.9c0-.1,0-.1-.1-.1s-.2-.1-.3-.1l-.2-.2-.1-.1a.3489.3489,0,0,0-.2-.1.0979.0979,0,0,0-.1.0958V83.4c0,.1-.1.1-.1.2a.3489.3489,0,0,1-.2.1h-.2a1.3807,1.3807,0,0,0-.4.3.3489.3489,0,0,0-.1.2.31.31,0,0,1-.1.2.3489.3489,0,0,1-.1.2v.2A.3972.3972,0,0,0,53.2,85.3Z" fill="#bebeb4"/></g><g id="rock2_bd-21" data-name="rock2 bd-21"><path d="M11.6,94.1v.1a.8643.8643,0,0,1-.3.6.764.764,0,0,1-.5.2,1.087,1.087,0,0,1-.5-.1,1.7587,1.7587,0,0,0-.6-.1H9.4a1.087,1.087,0,0,0-.5.1c-.2,0-.3.1-.5.1H8.3c-.3,0-.4-.1-.4-.3a1.6884,1.6884,0,0,1,.2-.5v-.6a1.4827,1.4827,0,0,0-.1-.7c0-.3.2-.5.5-.7a6.8727,6.8727,0,0,1,.8-.3h.1a.3673.3673,0,0,1,.3.1l.3.3.2.2a1.6884,1.6884,0,0,0,.5.2,1.3807,1.3807,0,0,1,.4.3c.1.1.1.3.2.5A1.6277,1.6277,0,0,0,11.6,94.1Zm-.4,0v-.3c0-.1-.1-.2-.1-.3a.3489.3489,0,0,0-.1-.2.3489.3489,0,0,0-.1-.2.9981.9981,0,0,0-.5-.4h-.3c-.1,0-.2-.1-.3-.1-.1-.1-.1-.2-.2-.2-.1-.1-.1-.1-.2-.1s-.1,0-.2.1l-.2.2-.2.2a.3673.3673,0,0,1-.3.1.3489.3489,0,0,0-.2.1v1.5c0,.1-.1.1-.1.2v.1a.31.31,0,0,1,.2.1h.2c.1,0,.2-.1.3-.1s.3-.1.4-.1a1.087,1.087,0,0,1,.5-.1H10c.1,0,.1,0,.2.1a.3673.3673,0,0,0,.3.1,1.0325,1.0325,0,0,1,.4.1H11v-.1A1.433,1.433,0,0,0,11.2,94.1Z" fill="#bebeb4"/></g><g id="rock2_bd-22" data-name="rock2 bd-22"><path d="M17,89.5v.1a.8643.8643,0,0,1-.3.6.764.764,0,0,1-.5.2,1.087,1.087,0,0,1-.5-.1,1.7587,1.7587,0,0,0-.6-.1h-.3a1.087,1.087,0,0,0-.5.1c-.2,0-.3.1-.5.1h-.1c-.3,0-.4-.1-.4-.3a1.6884,1.6884,0,0,1,.2-.5V89a1.4828,1.4828,0,0,0-.1-.7c0-.3.2-.5.5-.7a6.9091,6.9091,0,0,1,.8-.3h.1a.3673.3673,0,0,1,.3.1l.3.3.2.2a1.6884,1.6884,0,0,0,.5.2,1.3807,1.3807,0,0,1,.4.3c.1.1.1.3.2.5A1.6277,1.6277,0,0,0,17,89.5Zm-.7-1a.9981.9981,0,0,0-.5-.4h-.3c-.1,0-.2-.1-.3-.1-.1-.1-.1-.2-.2-.2-.1-.1-.1-.1-.2-.1s-.1,0-.2.1l-.2.2-.2.2a.3673.3673,0,0,1-.3.1.3489.3489,0,0,0-.2.1v1.5c0,.1-.1.1-.1.2v.1a.31.31,0,0,1,.2.1H14c.1,0,.2-.1.3-.1s.3-.1.4-.1a1.087,1.087,0,0,1,.5-.1h.2c.1,0,.1,0,.2.1a.3676.3676,0,0,0,.3.1,1.0325,1.0325,0,0,1,.4.1h.1v-.1a1.2317,1.2317,0,0,0,.2-.7v-.3c0-.1-.1-.2-.1-.3" fill="#bebeb4"/></g><g id="rock1_bd-11" data-name="rock1 bd-11"><path d="M5,87.3c.1-.2.1-.4.2-.4,0-.1.1-.1.3-.2.1,0,.2-.1.4-.2.1,0,.1-.1.2-.2l.2-.2a.31.31,0,0,1,.2-.1h.1c.3.1.5.1.7.3.3.2.4.3.4.6v1a.7578.7578,0,0,1,.2.4c0,.1-.1.2-.3.2H6.5a1.087,1.087,0,0,0-.5.1c-.2,0-.3.1-.4.1a.52.52,0,0,1-.4-.2A.55.55,0,0,1,5,88v-.1C4.8,87.7,4.9,87.6,5,87.3Zm.2.8h0c0,.1.1.1,0,0,.1.1.2.1.4,0,.1,0,.2,0,.2-.1h.4a.6012.6012,0,0,1,.4.1c.1,0,.2.1.3.1s.1,0,.2.1h.2c.1,0,.1,0,.1-.1v-.1L7.3,88V86.8c0-.1,0-.1-.1-.1s-.2-.1-.3-.1l-.2-.2-.1-.1c-.1,0-.1-.1-.2-.1a.0979.0979,0,0,0-.1.0958V86.3c0,.1-.1.1-.1.2a.3489.3489,0,0,1-.2.1H5.8a1.3807,1.3807,0,0,0-.4.3.3489.3489,0,0,0-.1.2.31.31,0,0,1-.1.2.3489.3489,0,0,1-.1.2v.2C5.1,87.9,5.1,88,5.2,88.1Z" fill="#bebeb4"/></g></svg>