<svg id="Layer_1" data-name="Layer 1" xmlns="http://www.w3.org/2000/svg" width="33.8667mm" height="33.8667mm" viewBox="0 0 96 96"><g id="scrub_bd"><g id="Scrub_FC"><g id="Deleted_Symbol_1" data-name="Deleted Symbol 1"><path d="M12.1,79.7c-.1,0-.1,0-.1-.1l-.3-1c0-.1,0-.1.1-.2l.2-.1h.1a.0979.0979,0,0,1,.1.1l.3,1c0,.1,0,.1-.1.2-.2.1-.2.1-.3.1Z" fill="#6bbe66"/><path d="M13.9,79.4a.0979.0979,0,0,1-.1-.1V78.2h-.1a.31.31,0,0,0-.2.1h-.1c-.1,0-.1,0-.1-.1l-.2-.2v-.2c.2-.1.3-.2.5-.2a.52.52,0,0,1,.4.2.6012.6012,0,0,1,.1.4v1a.0979.0979,0,0,1-.1.1h-.1Z" fill="#6bbe66"/><path d="M18.2,79.6H18c-.1,0-.1-.1-.1-.2l.3-1a.0979.0979,0,0,1,.1-.1h.3c.1,0,.1.1.1.2l-.3,1c-.1,0-.1.1-.2.1Z" fill="#6bbe66"/><path d="M16,79.3a.3674.3674,0,0,1-.3-.1,9.2783,9.2783,0,0,0-.7-2.4.3491.3491,0,0,0-.1-.2c.1,0,.2.1.3.1,0,0,.4.2.6,1.2l.1.2c0-.1.1-2.1.8-2.4a.3491.3491,0,0,0,.2-.1.31.31,0,0,1-.1.2,3.5548,3.5548,0,0,0-.4,1.6v.2a1.3807,1.3807,0,0,1,.9-.7h.1s0,.1-.2.2a6.69,6.69,0,0,0-.9,1.5v.5C16.2,79.3,16.1,79.3,16,79.3Z" fill="#6bbe66"/></g></g></g><g id="scrub_bd-2" data-name="scrub_bd" style="isolation:isolate"><g id="Scrub_FC-2" data-name="Scrub_FC"><g id="Deleted_Symbol_1-2" data-name="Deleted Symbol 1"><path d="M17.4,75.1c-.1,0-.1,0-.1-.1L17,74c0-.1,0-.1.1-.2l.2-.1h.1a.0979.0979,0,0,1,.1.1l.3,1c0,.1,0,.1-.1.2-.2.1-.2.1-.3.1Z" fill="#6bbe66"/><path d="M19.3,74.9a.0979.0979,0,0,1-.1-.1V73.7h-.1a.31.31,0,0,0-.2.1h-.1c-.1,0-.1,0-.1-.1l-.1-.1v-.2c.2-.1.3-.2.5-.2a.52.52,0,0,1,.4.2.6012.6012,0,0,1,.1.4v1a.0979.0979,0,0,1-.1.1Z" fill="#6bbe66"/><path d="M23.5,75h-.2c-.1,0-.1-.1-.1-.2l.3-1a.0979.0979,0,0,1,.1-.1h.3c.1,0,.1.1.1.2l-.3,1c0,.1-.1.1-.2.1Z" fill="#6bbe66"/><path d="M21.3,74.8a.3674.3674,0,0,1-.3-.1,9.2783,9.2783,0,0,0-.7-2.4.3491.3491,0,0,0-.1-.2c.1,0,.2.1.3.1,0,0,.4.2.6,1.2l.1.2c0-.1.1-2.1.8-2.4a.3491.3491,0,0,0,.2-.1.31.31,0,0,1-.1.2,3.5548,3.5548,0,0,0-.4,1.6v.2a1.3807,1.3807,0,0,1,.9-.7h.1s0,.1-.2.2a6.69,6.69,0,0,0-.9,1.5v.5C21.5,74.8,21.5,74.8,21.3,74.8Z" fill="#6bbe66"/></g></g></g><g id="scrub_bd-3" data-name="scrub_bd" style="isolation:isolate"><g id="Scrub_FC-3" data-name="Scrub_FC"><g id="Deleted_Symbol_1-3" data-name="Deleted Symbol 1"><path d="M8.6,73.6c-.1,0-.1,0-.1-.1l-.3-1c0-.1,0-.1.1-.2l.2-.1h.1a.0979.0979,0,0,1,.1.1l.3,1c0,.1,0,.1-.1.2-.2.1-.2.1-.3.1Z" fill="#6bbe66"/><path d="M10.5,73.4a.0979.0979,0,0,1-.1-.1V72.2h-.1a.31.31,0,0,0-.2.1H10c-.1,0-.1,0-.1-.1L9.6,72v-.2c.2-.1.3-.2.5-.2a.52.52,0,0,1,.4.2.6012.6012,0,0,1,.1.4v1a.0979.0979,0,0,1-.1.1h0Z" fill="#6bbe66"/><path d="M14.7,73.5h-.2c-.1,0-.1-.1-.1-.2l.3-1a.0979.0979,0,0,1,.1-.1h.3c.1,0,.1.1.1.2l-.3,1c-.1.1-.1.1-.2.1Z" fill="#6bbe66"/><path d="M12.5,73.3a.3674.3674,0,0,1-.3-.1,9.2783,9.2783,0,0,0-.7-2.4.3491.3491,0,0,0-.1-.2c.1,0,.2.1.3.1,0,0,.4.2.6,1.2l.1.2c0-.1.1-2.1.8-2.4a.3491.3491,0,0,0,.2-.1.31.31,0,0,1-.1.2,3.5548,3.5548,0,0,0-.4,1.6v.2a1.3807,1.3807,0,0,1,.9-.7h.1s0,.1-.2.2a6.69,6.69,0,0,0-.9,1.5v.5C12.7,73.2,12.6,73.3,12.5,73.3Z" fill="#6bbe66"/></g></g></g><g id="scrub_bd-4" data-name="scrub_bd" style="isolation:isolate"><g id="Scrub_FC-4" data-name="Scrub_FC"><g id="Deleted_Symbol_1-4" data-name="Deleted Symbol 1"><path d="M48.3,69.2c-.1,0-.1,0-.1-.1l-.3-1c0-.1,0-.1.1-.2l.2-.1h.1a.0979.0979,0,0,1,.1.1l.3,1c0,.1,0,.1-.1.2-.2,0-.2.1-.3.1Z" fill="#6bbe66"/><path d="M50.2,68.9a.0979.0979,0,0,1-.1-.1V67.7H50a.31.31,0,0,0-.2.1h-.1c-.1,0-.1,0-.1-.1l-.1-.1v-.2c.2-.1.3-.2.5-.2a.52.52,0,0,1,.4.2.6012.6012,0,0,1,.1.4v1a.0979.0979,0,0,1-.1.1Z" fill="#6bbe66"/><path d="M54.4,69h-.2c-.1,0-.1-.1-.1-.2l.3-1a.0979.0979,0,0,1,.1-.1h.3c.1,0,.1.1.1.2l-.3,1c0,.1-.1.2-.2.1Z" fill="#6bbe66"/><path d="M52.3,68.8a.3674.3674,0,0,1-.3-.1,9.2783,9.2783,0,0,0-.7-2.4.3491.3491,0,0,0-.1-.2c.1,0,.2.1.3.1,0,0,.4.2.6,1.2l.1.2c0-.1.1-2.1.8-2.4a.3491.3491,0,0,0,.2-.1.31.31,0,0,1-.1.2,3.5548,3.5548,0,0,0-.4,1.6v.2a1.3807,1.3807,0,0,1,.9-.7h.1s0,.1-.2.2a6.69,6.69,0,0,0-.9,1.5v.5C52.5,68.8,52.4,68.8,52.3,68.8Z" fill="#6bbe66"/></g></g></g><g id="scrub_bd-5" data-name="scrub_bd" style="isolation:isolate"><g id="Scrub_FC-5" data-name="Scrub_FC"><g id="Deleted_Symbol_1-5" data-name="Deleted Symbol 1"><path d="M53.7,64.6c-.1,0-.1,0-.1-.1l-.3-1c0-.1,0-.1.1-.2l.2-.1h.1a.0979.0979,0,0,1,.1.1l.3,1c0,.1,0,.1-.1.2a.774.774,0,0,1-.3.1Z" fill="#6bbe66"/><path d="M55.5,64.4a.0979.0979,0,0,1-.1-.1V63.2h-.1a.31.31,0,0,0-.2.1H55c-.1,0-.1,0-.1-.1l-.3-.2v-.2c.2-.1.3-.2.5-.2a.52.52,0,0,1,.4.2.6012.6012,0,0,1,.1.4v1a.0979.0979,0,0,1-.1.1h0Z" fill="#6bbe66"/><path d="M59.8,64.5h-.2c-.1,0-.1-.1-.1-.2l.3-1a.0979.0979,0,0,1,.1-.1h.3c.1,0,.1.1.1.2l-.3,1a.31.31,0,0,1-.2.1Z" fill="#6bbe66"/><path d="M57.6,64.3a.3674.3674,0,0,1-.3-.1,9.2783,9.2783,0,0,0-.7-2.4.3491.3491,0,0,0-.1-.2c.1,0,.2.1.3.1,0,0,.4.2.6,1.2l.1.2c0-.1.1-2.1.8-2.4a.3491.3491,0,0,0,.2-.1.31.31,0,0,1-.1.2,3.5548,3.5548,0,0,0-.4,1.6v.2a1.3807,1.3807,0,0,1,.9-.7H59s0,.1-.2.2a6.69,6.69,0,0,0-.9,1.5v.5C57.8,64.3,57.7,64.3,57.6,64.3Z" fill="#6bbe66"/></g></g></g><g id="scrub_bd-6" data-name="scrub_bd" style="isolation:isolate"><g id="Scrub_FC-6" data-name="Scrub_FC"><g id="Deleted_Symbol_1-6" data-name="Deleted Symbol 1"><path d="M44.8,63.1c-.1,0-.1,0-.1-.1l-.3-1c0-.1,0-.1.1-.2l.2-.1h.1a.0979.0979,0,0,1,.1.1l.3,1c0,.1,0,.1-.1.2a.3674.3674,0,0,1-.3.1Z" fill="#6bbe66"/><path d="M46.7,62.9a.0979.0979,0,0,1-.1-.1V61.7h-.1a.31.31,0,0,0-.2.1h-.1c-.1,0-.1,0-.1-.1l-.1-.1v-.2c.2-.1.3-.2.5-.2a.52.52,0,0,1,.4.2.6012.6012,0,0,1,.1.4v1a.0979.0979,0,0,1-.1.1Z" fill="#6bbe66"/><path d="M50.9,63h-.2c-.1,0-.1-.1-.1-.2l.3-1a.0979.0979,0,0,1,.1-.1h.3c.1,0,.1.1.1.2l-.3,1c0,.1-.1.1-.2.1Z" fill="#6bbe66"/><path d="M48.8,62.8a.3674.3674,0,0,1-.3-.1,9.2783,9.2783,0,0,0-.7-2.4.3491.3491,0,0,0-.1-.2c.1,0,.2.1.3.1,0,0,.4.2.6,1.2l.1.2c0-.1.1-2.1.8-2.4a.3491.3491,0,0,0,.2-.1.31.31,0,0,1-.1.2,3.5548,3.5548,0,0,0-.4,1.6v.2a1.3807,1.3807,0,0,1,.9-.7h.1s0,.1-.2.2a6.69,6.69,0,0,0-.9,1.5v.5C49,62.7,48.9,62.8,48.8,62.8Z" fill="#6bbe66"/></g></g></g><g id="scrub_bd-7" data-name="scrub_bd" style="isolation:isolate"><g id="Scrub_FC-7" data-name="Scrub_FC"><g id="Deleted_Symbol_1-7" data-name="Deleted Symbol 1"><path d="M7.7,51.9c-.1,0-.1,0-.1-.1l-.3-1c0-.1,0-.1.1-.2l.2-.1h.1a.0979.0979,0,0,1,.1.1l.3,1c0,.1,0,.1-.1.2-.2,0-.2.1-.3.1Z" fill="#6bbe66"/><path d="M9.5,51.6a.0979.0979,0,0,1-.1-.1V50.4H9.3a.31.31,0,0,0-.2.1H9c-.1,0-.1,0-.1-.1l-.1-.1v-.2c.2-.1.3-.2.5-.2a.52.52,0,0,1,.4.2.6012.6012,0,0,1,.1.4v1a.0979.0979,0,0,1-.1.1Z" fill="#6bbe66"/><path d="M13.8,51.7h-.2c-.1,0-.1-.1-.1-.2l.3-1a.0979.0979,0,0,1,.1-.1h.3c.1,0,.1.1.1.2l-.3,1c-.1.1-.1.2-.2.1Z" fill="#6bbe66"/><path d="M11.6,51.5a.3674.3674,0,0,1-.3-.1,9.2783,9.2783,0,0,0-.7-2.4.3491.3491,0,0,0-.1-.2c.1,0,.2.1.3.1,0,0,.4.2.6,1.2l.1.2c0-.1.1-2.1.8-2.4a.3491.3491,0,0,0,.2-.1.31.31,0,0,1-.1.2,3.5548,3.5548,0,0,0-.4,1.6V50a1.3807,1.3807,0,0,1,.9-.7H13s0,.1-.2.2a6.69,6.69,0,0,0-.9,1.5v.5Z" fill="#6bbe66"/></g></g></g><g id="scrub_bd-8" data-name="scrub_bd" style="isolation:isolate"><g id="Scrub_FC-8" data-name="Scrub_FC"><g id="Deleted_Symbol_1-8" data-name="Deleted Symbol 1"><path d="M13,47.3c-.1,0-.1,0-.1-.1l-.3-1c0-.1,0-.1.1-.2l.2-.1H13a.0979.0979,0,0,1,.1.1l.3,1c0,.1,0,.1-.1.2-.2.1-.2.1-.3.1Z" fill="#6bbe66"/><path d="M14.9,47.1a.0979.0979,0,0,1-.1-.1V45.9h-.1a.31.31,0,0,0-.2.1h-.1c-.1,0-.1,0-.1-.1l-.3-.2v-.2c.2-.1.3-.2.5-.2a.52.52,0,0,1,.4.2.6012.6012,0,0,1,.1.4v1a.0979.0979,0,0,1-.1.1h0Z" fill="#6bbe66"/><path d="M19.1,47.2h-.2c-.1,0-.1-.1-.1-.2l.3-1a.0979.0979,0,0,1,.1-.1h.3c.1,0,.1.1.1.2l-.3,1c0,.1-.1.1-.2.1Z" fill="#6bbe66"/><path d="M16.9,47a.3674.3674,0,0,1-.3-.1,9.2783,9.2783,0,0,0-.7-2.4.3491.3491,0,0,0-.1-.2c.1,0,.2.1.3.1,0,0,.4.2.6,1.2l.1.2c0-.1.1-2.1.8-2.4a.3491.3491,0,0,0,.2-.1.31.31,0,0,1-.1.2,3.5548,3.5548,0,0,0-.4,1.6v.2a1.3807,1.3807,0,0,1,.9-.7h.1s0,.1-.2.2a6.69,6.69,0,0,0-.9,1.5v.5C17.1,47,17.1,47,16.9,47Z" fill="#6bbe66"/></g></g></g><g id="scrub_bd-9" data-name="scrub_bd" style="isolation:isolate"><g id="Scrub_FC-9" data-name="Scrub_FC"><g id="Deleted_Symbol_1-9" data-name="Deleted Symbol 1"><path d="M4.2,45.8c-.1,0-.1,0-.1-.1l-.3-1c0-.1,0-.1.1-.2h.2a.0979.0979,0,0,1,.1.1l.3,1c0,.1,0,.1-.1.2Z" fill="#6bbe66"/><path d="M6.1,45.6a.0979.0979,0,0,1-.1-.1V44.4H5.9a.31.31,0,0,0-.2.1H5.6c-.1,0-.1,0-.1-.1l-.1-.1v-.2c.2-.1.3-.2.5-.2a.52.52,0,0,1,.4.2.6012.6012,0,0,1,.1.4v1a.0979.0979,0,0,1-.1.1Z" fill="#6bbe66"/><path d="M10.3,45.7h-.2c-.1,0-.1-.1-.1-.2l.3-1a.0979.0979,0,0,1,.1-.1h.3c.1,0,.1.1.1.2l-.3,1c-.1.1-.1.1-.2.1Z" fill="#6bbe66"/><path d="M8.1,45.5a.3674.3674,0,0,1-.3-.1A9.2783,9.2783,0,0,0,7.1,43a.3491.3491,0,0,0-.1-.2c.1,0,.2.1.3.1,0,0,.4.2.6,1.2l.1.2c0-.1.1-2.1.8-2.4a.3491.3491,0,0,0,.2-.1.31.31,0,0,1-.1.2,3.5548,3.5548,0,0,0-.4,1.6v.2a1.3807,1.3807,0,0,1,.9-.7h.1s0,.1-.2.2a6.69,6.69,0,0,0-.9,1.5v.5C8.3,45.4,8.2,45.5,8.1,45.5Z" fill="#6bbe66"/></g></g></g><g id="scrub_bd-10" data-name="scrub_bd" style="isolation:isolate"><g id="Scrub_FC-10" data-name="Scrub_FC"><g id="Deleted_Symbol_1-10" data-name="Deleted Symbol 1"><path d="M16.5,31.1c-.1,0-.1,0-.1-.1l-.3-1c0-.1,0-.1.1-.2l.2-.1h.1a.0979.0979,0,0,1,.1.1l.3,1c0,.1,0,.1-.1.2a.774.774,0,0,1-.3.1Z" fill="#6bbe66"/><path d="M18.3,30.9a.0979.0979,0,0,1-.1-.1V29.7h-.1a.31.31,0,0,0-.2.1h-.1c-.1,0-.1,0-.1-.1l-.1-.1v-.2c.2-.1.3-.2.5-.2a.52.52,0,0,1,.4.2.6012.6012,0,0,1,.1.4v1a.0979.0979,0,0,1-.1.1Z" fill="#6bbe66"/><path d="M22.6,31h-.2c-.1,0-.1-.1-.1-.2l.3-1a.0979.0979,0,0,1,.1-.1H23c.1,0,.1.1.1.2l-.3,1a.31.31,0,0,1-.2.1Z" fill="#6bbe66"/><path d="M20.4,30.8a.3674.3674,0,0,1-.3-.1,9.2783,9.2783,0,0,0-.7-2.4.3491.3491,0,0,0-.1-.2c.1,0,.2.1.3.1,0,0,.4.2.6,1.2l.1.2c0-.1.1-2.1.8-2.4a.3491.3491,0,0,0,.2-.1.31.31,0,0,1-.1.2,3.5548,3.5548,0,0,0-.4,1.6v.2a1.3807,1.3807,0,0,1,.9-.7h.1s0,.1-.2.2a6.69,6.69,0,0,0-.9,1.5v.5C20.6,30.7,20.5,30.8,20.4,30.8Z" fill="#6bbe66"/></g></g></g><g id="scrub_bd-11" data-name="scrub_bd" style="isolation:isolate"><g id="Scrub_FC-11" data-name="Scrub_FC"><g id="Deleted_Symbol_1-11" data-name="Deleted Symbol 1"><path d="M21.8,26.6c-.1,0-.1,0-.1-.1l-.3-1c0-.1,0-.1.1-.2l.2-.1h.1a.0979.0979,0,0,1,.1.1l.3,1c0,.1,0,.1-.1.2a.774.774,0,0,1-.3.1Z" fill="#6bbe66"/><path d="M23.6,26.3a.0979.0979,0,0,1-.1-.1V25.1h-.1a.31.31,0,0,0-.2.1h-.1c-.1,0-.1,0-.1-.1l-.2-.1v-.2c.2-.1.3-.2.5-.2a.52.52,0,0,1,.4.2.6012.6012,0,0,1,.1.4v1a.0979.0979,0,0,1-.1.1Z" fill="#6bbe66"/><path d="M27.9,26.5h-.2c-.1,0-.1-.1-.1-.2l.3-1a.0979.0979,0,0,1,.1-.1h.3c.1,0,.1.1.1.2l-.3,1c-.1.1-.1.1-.2.1Z" fill="#6bbe66"/><path d="M25.7,26.3a.3674.3674,0,0,1-.3-.1,9.2783,9.2783,0,0,0-.7-2.4.3491.3491,0,0,0-.1-.2c.1,0,.2.1.3.1,0,0,.4.2.6,1.2l.1.2c0-.1.1-2.1.8-2.4a.3491.3491,0,0,0,.2-.1.31.31,0,0,1-.1.2,3.5548,3.5548,0,0,0-.4,1.6v.2a1.3807,1.3807,0,0,1,.9-.7h.1s0,.1-.2.2a6.69,6.69,0,0,0-.9,1.5v.5C25.9,26.2,25.8,26.3,25.7,26.3Z" fill="#6bbe66"/></g></g></g><g id="scrub_bd-12" data-name="scrub_bd" style="isolation:isolate"><g id="Scrub_FC-12" data-name="Scrub_FC"><g id="Deleted_Symbol_1-12" data-name="Deleted Symbol 1"><path d="M13,25.1c-.1,0-.1,0-.1-.1l-.3-1c0-.1,0-.1.1-.2l.2-.1H13a.0979.0979,0,0,1,.1.1l.3,1c0,.1,0,.1-.1.2a.774.774,0,0,1-.3.1Z" fill="#6bbe66"/><path d="M14.8,24.8a.0979.0979,0,0,1-.1-.1V23.6h-.1a.31.31,0,0,0-.2.1h-.1c-.1,0-.1,0-.1-.1l-.2-.2v-.2c.2-.1.3-.2.5-.2a.52.52,0,0,1,.4.2.6012.6012,0,0,1,.1.4v1a.0979.0979,0,0,1-.1.1C15,24.8,14.8,24.8,14.8,24.8Z" fill="#6bbe66"/><path d="M19.1,25h-.2c-.1,0-.1-.1-.1-.2l.3-1a.0979.0979,0,0,1,.1-.1h.3c.1,0,.1.1.1.2l-.3,1c-.1,0-.1.1-.2.1Z" fill="#6bbe66"/><path d="M16.9,24.7a.3674.3674,0,0,1-.3-.1,9.2783,9.2783,0,0,0-.7-2.4.3491.3491,0,0,0-.1-.2c.1,0,.2.1.3.1,0,0,.4.2.6,1.2l.1.2c0-.1.1-2.1.8-2.4a.3491.3491,0,0,0,.2-.1.31.31,0,0,1-.1.2,3.5548,3.5548,0,0,0-.4,1.6V23a1.3807,1.3807,0,0,1,.9-.7h.1s0,.1-.2.2a6.69,6.69,0,0,0-.9,1.5v.5C17.1,24.7,17,24.7,16.9,24.7Z" fill="#6bbe66"/></g></g></g><g id="scrub_bd-13" data-name="scrub_bd" style="isolation:isolate"><g id="Scrub_FC-13" data-name="Scrub_FC"><g id="Deleted_Symbol_1-13" data-name="Deleted Symbol 1"><path d="M46.9,11.6c-.1,0-.1,0-.1-.1l-.3-1c0-.1,0-.1.1-.2l.2-.1h.1a.0979.0979,0,0,1,.1.1l.3,1c0,.1,0,.1-.1.2-.2.1-.2.1-.3.1Z" fill="#6bbe66"/><path d="M48.8,11.4a.0979.0979,0,0,1-.1-.1V10.2h-.1a.31.31,0,0,0-.2.1h-.1c-.1,0-.1,0-.1-.1l-.3-.2V9.8c.2-.1.3-.2.5-.2a.52.52,0,0,1,.4.2c.2.2.2.3.2.4v1a13268857651107.71,13268857651107.71,0,0,1-.2.2Z" fill="#6bbe66"/><path d="M53,11.5h-.2c-.1,0-.1-.1-.1-.2l.3-1a.0979.0979,0,0,1,.1-.1h.3c.1,0,.1.1.1.2l-.3,1c-.1.1-.1.1-.2.1Z" fill="#6bbe66"/><path d="M50.8,11.3a.3674.3674,0,0,1-.3-.1,9.2783,9.2783,0,0,0-.7-2.4.3491.3491,0,0,0-.1-.2c.1,0,.2.1.3.1,0,0,.4.2.6,1.2l.1.2c0-.1.1-2.1.8-2.4a.3491.3491,0,0,0,.2-.1.31.31,0,0,1-.1.2,3.5548,3.5548,0,0,0-.4,1.6v.2a1.3807,1.3807,0,0,1,.9-.7h.1s0,.1-.2.2a6.69,6.69,0,0,0-.9,1.5v.5C51,11.3,50.9,11.3,50.8,11.3Z" fill="#6bbe66"/></g></g></g><g id="scrub_bd-14" data-name="scrub_bd" style="isolation:isolate"><g id="Scrub_FC-14" data-name="Scrub_FC"><g id="Deleted_Symbol_1-14" data-name="Deleted Symbol 1"><path d="M52.2,7.1c-.1,0-.1,0-.1-.1l-.3-1c0-.1,0-.1.1-.2h.2a.0979.0979,0,0,1,.1.1l.3,1c0,.1,0,.1-.1.2Z" fill="#6bbe66"/><path d="M54.1,6.9a.0979.0979,0,0,1-.1-.1V5.7h-.1a.31.31,0,0,0-.2.1h-.1c-.1,0-.1,0-.1-.1l-.1-.1V5.4c.2-.1.3-.2.5-.2a.52.52,0,0,1,.4.2.6012.6012,0,0,1,.1.4v1a.0979.0979,0,0,1-.1.1Z" fill="#6bbe66"/><path d="M58.3,7h-.2c-.1,0-.1-.1-.1-.2l.3-1a.0979.0979,0,0,1,.1-.1h.3c.1,0,.1.1.1.2l-.3,1c0,.1-.1.1-.2.1Z" fill="#6bbe66"/><path d="M56.2,6.8a.3674.3674,0,0,1-.3-.1,9.2783,9.2783,0,0,0-.7-2.4.3491.3491,0,0,0-.1-.2c.1,0,.2.1.3.1,0,0,.4.2.6,1.2l.1.2c0-.1.1-2.1.8-2.4a.3491.3491,0,0,0,.2-.1.31.31,0,0,1-.1.2,3.5548,3.5548,0,0,0-.4,1.6v.2a1.3807,1.3807,0,0,1,.9-.7h.1s0,.1-.2.2a6.69,6.69,0,0,0-.9,1.5v.5C56.4,6.7,56.3,6.8,56.2,6.8Z" fill="#6bbe66"/></g></g></g><g id="scrub_bd-15" data-name="scrub_bd" style="isolation:isolate"><g id="Scrub_FC-15" data-name="Scrub_FC"><g id="Deleted_Symbol_1-15" data-name="Deleted Symbol 1"><path d="M43.4,5.6c-.1,0-.1,0-.1-.1l-.3-1c0-.1,0-.1.1-.2l.2-.1h.1a.0979.0979,0,0,1,.1.1l.3,1c0,.1,0,.1-.1.2-.2.1-.2.1-.3.1Z" fill="#6bbe66"/><path d="M45.3,5.3a.0979.0979,0,0,1-.1-.1V4.1h-.1a.31.31,0,0,0-.2.1h-.1c-.1,0-.1,0-.1-.1L44.6,4V3.8c.2-.1.3-.2.5-.2a.52.52,0,0,1,.4.2.6012.6012,0,0,1,.1.4v1a.0979.0979,0,0,1-.1.1Z" fill="#6bbe66"/><path d="M49.5,5.5h-.2c-.1,0-.1-.1-.1-.2l.3-1a.0979.0979,0,0,1,.1-.1h.3c.1.1.1.1.1.2l-.3,1a.3491.3491,0,0,1-.2.1Z" fill="#6bbe66"/><path d="M47.3,5.3a.3674.3674,0,0,1-.3-.1,9.2783,9.2783,0,0,0-.7-2.4.3491.3491,0,0,0-.1-.2c.1,0,.2.1.3.1,0,0,.4.2.6,1.2l.1.2c0-.1.1-2.1.8-2.4a.3491.3491,0,0,0,.2-.1.31.31,0,0,1-.1.2,3.5548,3.5548,0,0,0-.4,1.6v.2a1.3807,1.3807,0,0,1,.9-.7h.1s0,.1-.2.2a6.69,6.69,0,0,0-.9,1.5v.5C47.5,5.2,47.5,5.3,47.3,5.3Z" fill="#6bbe66"/></g></g></g><g id="scrub_bd-16" data-name="scrub_bd" style="isolation:isolate"><g id="Scrub_FC-16" data-name="Scrub_FC"><g id="Deleted_Symbol_1-16" data-name="Deleted Symbol 1"><path d="M69.2,27.7c-.1,0-.1,0-.1-.1l-.3-1c0-.1,0-.1.1-.2l.2-.1h.1a.0979.0979,0,0,1,.1.1l.3,1c0,.1,0,.1-.1.2-.2,0-.2.1-.3.1Z" fill="#6bbe66"/><path d="M71,27.4a.0979.0979,0,0,1-.1-.1V26.2h-.1a.31.31,0,0,0-.2.1h-.1c-.1,0-.1,0-.1-.1l-.2-.2v-.2c.2-.1.3-.2.5-.2a.52.52,0,0,1,.4.2.6012.6012,0,0,1,.1.4v1a.0979.0979,0,0,1-.1.1C71.2,27.4,71,27.4,71,27.4Z" fill="#6bbe66"/><path d="M75.3,27.5h-.2c-.1,0-.1-.1-.1-.2l.3-1a.0979.0979,0,0,1,.1-.1h.3c.1,0,.1.1.1.2l-.3,1c-.1.1-.1.2-.2.1Z" fill="#6bbe66"/><path d="M73.1,27.3a.3674.3674,0,0,1-.3-.1,9.2783,9.2783,0,0,0-.7-2.4.3491.3491,0,0,0-.1-.2c.1,0,.2.1.3.1,0,0,.4.2.6,1.2l.1.2c0-.1.1-2.1.8-2.4a.3491.3491,0,0,0,.2-.1.31.31,0,0,1-.1.2,3.5548,3.5548,0,0,0-.4,1.6v.2a1.3807,1.3807,0,0,1,.9-.7h.1s0,.1-.2.2a6.69,6.69,0,0,0-.9,1.5v.5C73.3,27.3,73.2,27.3,73.1,27.3Z" fill="#6bbe66"/></g></g></g><g id="scrub_bd-17" data-name="scrub_bd" style="isolation:isolate"><g id="Scrub_FC-17" data-name="Scrub_FC"><g id="Deleted_Symbol_1-17" data-name="Deleted Symbol 1"><path d="M74.5,23.1c-.1,0-.1,0-.1-.1l-.3-1c0-.1,0-.1.1-.2l.2-.1h.1a.0979.0979,0,0,1,.1.1l.3,1c0,.1,0,.1-.1.2-.2.1-.2.1-.3.1Z" fill="#6bbe66"/><path d="M76.4,22.9a.0979.0979,0,0,1-.1-.1V21.7h-.1a.31.31,0,0,0-.2.1h-.1c-.1,0-.1,0-.1-.1l-.1-.1v-.2c.2-.1.3-.2.5-.2a.52.52,0,0,1,.4.2.6012.6012,0,0,1,.1.4v1a.0979.0979,0,0,1-.1.1Z" fill="#6bbe66"/><path d="M80.6,23h-.2c-.1,0-.1-.1-.1-.2l.3-1a.0979.0979,0,0,1,.1-.1H81c.1,0,.1.1.1.2l-.3,1c-.1.1-.1.1-.2.1Z" fill="#6bbe66"/><path d="M78.4,22.8a.3674.3674,0,0,1-.3-.1,9.2783,9.2783,0,0,0-.7-2.4.3491.3491,0,0,0-.1-.2c.1,0,.2.1.3.1,0,0,.4.2.6,1.2l.1.2c0-.1.1-2.1.8-2.4a.3491.3491,0,0,0,.2-.1.31.31,0,0,1-.1.2,3.5548,3.5548,0,0,0-.4,1.6v.2a1.3807,1.3807,0,0,1,.9-.7h.1s0,.1-.2.2a6.69,6.69,0,0,0-.9,1.5v.5C78.6,22.8,78.5,22.8,78.4,22.8Z" fill="#6bbe66"/></g></g></g><g id="scrub_bd-18" data-name="scrub_bd" style="isolation:isolate"><g id="Scrub_FC-18" data-name="Scrub_FC"><g id="Deleted_Symbol_1-18" data-name="Deleted Symbol 1"><path d="M65.7,21.6c-.1,0-.1,0-.1-.1l-.3-1c0-.1,0-.1.1-.2l.2-.1h.1a.0979.0979,0,0,1,.1.1l.3,1c0,.1,0,.1-.1.2-.2.1-.2.1-.3.1Z" fill="#6bbe66"/><path d="M67.5,21.4a.0979.0979,0,0,1-.1-.1V20.2h-.1a.31.31,0,0,0-.2.1H67c-.1,0-.1,0-.1-.1l-.2-.2v-.2c.2-.1.3-.2.5-.2a.52.52,0,0,1,.4.2.6012.6012,0,0,1,.1.4v1a.0979.0979,0,0,1-.1.1C67.7,21.4,67.5,21.4,67.5,21.4Z" fill="#6bbe66"/><path d="M71.8,21.5h-.2c-.1,0-.1-.1-.1-.2l.3-1a.0979.0979,0,0,1,.1-.1h.3c.1,0,.1.1.1.2l-.3,1c-.1.1-.1.1-.2.1Z" fill="#6bbe66"/><path d="M69.6,21.3a.3674.3674,0,0,1-.3-.1,9.2783,9.2783,0,0,0-.7-2.4.3491.3491,0,0,0-.1-.2c.1,0,.2.1.3.1,0,0,.4.2.6,1.2l.1.2c0-.1.1-2.1.8-2.4a.3491.3491,0,0,0,.2-.1.31.31,0,0,1-.1.2,3.5548,3.5548,0,0,0-.4,1.6v.2a1.3807,1.3807,0,0,1,.9-.7H71s0,.1-.2.2a6.69,6.69,0,0,0-.9,1.5v.5C69.8,21.2,69.7,21.3,69.6,21.3Z" fill="#6bbe66"/></g></g></g><g id="scrub_bd-19" data-name="scrub_bd" style="isolation:isolate"><g id="Scrub_FC-19" data-name="Scrub_FC"><g id="Deleted_Symbol_1-19" data-name="Deleted Symbol 1"><path d="M80.2,11c-.1,0-.1,0-.1-.1l-.3-1c0-.1,0-.1.1-.2h.2a.0979.0979,0,0,1,.1.1l.3,1c0,.1,0,.1-.1.2-.1-.1-.2-.1-.2,0Z" fill="#6bbe66"/><path d="M82,10.7a.0979.0979,0,0,1-.1-.1V9.5h-.1a.31.31,0,0,0-.2.1h-.1c-.1,0-.1,0-.1-.1l-.1-.1V9.2c.2-.1.3-.2.5-.2a.52.52,0,0,1,.4.2.6012.6012,0,0,1,.1.4v1a.0979.0979,0,0,1-.1.1Z" fill="#6bbe66"/><path d="M86.3,10.8h-.2c-.1,0-.1-.1-.1-.2l.3-1a.0979.0979,0,0,1,.1-.1h.3c.1,0,.1.1.1.2l-.3,1c-.1.1-.1.1-.2.1Z" fill="#6bbe66"/><path d="M84.1,10.6a.3674.3674,0,0,1-.3-.1,9.2783,9.2783,0,0,0-.7-2.4A.0979.0979,0,0,1,83,8c.1,0,.2.1.3.1,0,0,.4.2.6,1.2l.1.2c0-.1.1-2.1.8-2.4.1,0,.2,0,.2-.1a.31.31,0,0,1-.1.2,3.5548,3.5548,0,0,0-.4,1.6V9a1.3807,1.3807,0,0,1,.9-.7h.1s0,.1-.2.2a6.69,6.69,0,0,0-.9,1.5v.5A.3674.3674,0,0,1,84.1,10.6Z" fill="#6bbe66"/></g></g></g><g id="scrub_bd-20" data-name="scrub_bd" style="isolation:isolate"><g id="Scrub_FC-20" data-name="Scrub_FC"><g id="Deleted_Symbol_1-20" data-name="Deleted Symbol 1"><path d="M85.5,6.4c-.1,0-.1,0-.1-.1l-.3-1c0-.1,0-.1.1-.2l.2-.1h.1a.0979.0979,0,0,1,.1.1l.3,1c0,.1,0,.1-.1.2-.2.1-.2.1-.3.1Z" fill="#6bbe66"/><path d="M87.3,6.2a.0979.0979,0,0,1-.1-.1V5h-.1a.31.31,0,0,0-.2.1h-.1c-.1,0-.1,0-.1-.1l-.1-.1V4.7c.2-.1.3-.2.5-.2a.52.52,0,0,1,.4.2.6012.6012,0,0,1,.1.4v1a.0979.0979,0,0,1-.1.1Z" fill="#6bbe66"/><path d="M91.6,6.3h-.2c-.1,0-.1-.1-.1-.2l.3-1a.0979.0979,0,0,1,.1-.1H92c.1,0,.1.1.1.2l-.3,1c-.1.1-.1.1-.2.1Z" fill="#6bbe66"/><path d="M89.4,6.1a.3674.3674,0,0,1-.3-.1,9.2783,9.2783,0,0,0-.7-2.4.3491.3491,0,0,0-.1-.2c.1,0,.2.1.3.1,0,0,.4.2.6,1.2l.1.3c0-.1.1-2.1.8-2.4a.3491.3491,0,0,0,.2-.1.31.31,0,0,1-.1.2,3.5548,3.5548,0,0,0-.4,1.6v.2a1.3807,1.3807,0,0,1,.9-.7h.1s0,.1-.2.2a6.69,6.69,0,0,0-.9,1.5V6A.3674.3674,0,0,1,89.4,6.1Z" fill="#6bbe66"/></g></g></g><g id="scrub_bd-21" data-name="scrub_bd" style="isolation:isolate"><g id="Scrub_FC-21" data-name="Scrub_FC"><g id="Deleted_Symbol_1-21" data-name="Deleted Symbol 1"><path d="M76.7,4.9c-.1,0-.1,0-.1-.1l-.3-1c0-.1,0-.1.1-.2l.2-.1h.1a.0979.0979,0,0,1,.1.1l.3,1c0,.1,0,.1-.1.2a.774.774,0,0,1-.3.1Z" fill="#6bbe66"/><path d="M78.5,4.7a.0979.0979,0,0,1-.1-.1V3.5h-.1a.31.31,0,0,0-.2.1H78c-.1,0-.1,0-.1-.1l-.1-.1V3.2c.2-.1.3-.2.5-.2a.52.52,0,0,1,.4.2.6012.6012,0,0,1,.1.4v1a.0979.0979,0,0,1-.1.1Z" fill="#6bbe66"/><path d="M82.8,4.8h-.2c-.1,0-.1-.1-.1-.2l.3-1a.0979.0979,0,0,1,.1-.1h.3c.1,0,.1.1.1.2l-.3,1c-.1.1-.1.1-.2.1Z" fill="#6bbe66"/><path d="M80.6,4.6a.3674.3674,0,0,1-.3-.1,9.2783,9.2783,0,0,0-.7-2.4.3491.3491,0,0,0-.1-.2c.1,0,.2.1.3.1,0,0,.4.2.6,1.2l.1.2c0-.1.1-2.1.8-2.4a.3491.3491,0,0,0,.2-.1.31.31,0,0,1-.1.2A3.5548,3.5548,0,0,0,81,2.7V3a1.3807,1.3807,0,0,1,.9-.7H82s0,.1-.2.2A6.69,6.69,0,0,0,80.9,4v.5C80.8,4.5,80.7,4.6,80.6,4.6Z" fill="#6bbe66"/></g></g></g><g id="scrub_bd-22" data-name="scrub_bd" style="isolation:isolate"><g id="Scrub_FC-22" data-name="Scrub_FC"><g id="Deleted_Symbol_1-22" data-name="Deleted Symbol 1"><path d="M70.2,47.3c-.1,0-.1,0-.1-.1l-.3-1c0-.1,0-.1.1-.2l.2-.1h.1a.0979.0979,0,0,1,.1.1l.3,1c0,.1,0,.1-.1.2a.774.774,0,0,1-.3.1Z" fill="#6bbe66"/><path d="M72,47.1a.0979.0979,0,0,1-.1-.1V45.9h-.1a.31.31,0,0,0-.2.1h-.1c-.1,0-.1,0-.1-.1l-.1-.1v-.2c.2-.1.3-.2.5-.2a.52.52,0,0,1,.4.2.6012.6012,0,0,1,.1.4v1a.0979.0979,0,0,1-.1.1Z" fill="#6bbe66"/><path d="M76.3,47.2h-.2c-.1,0-.1-.1-.1-.2l.3-1a.0979.0979,0,0,1,.1-.1h.3c.1,0,.1.1.1.2l-.3,1c-.1.1-.1.1-.2.1Z" fill="#6bbe66"/><path d="M74.1,47a.3674.3674,0,0,1-.3-.1,9.2783,9.2783,0,0,0-.7-2.4.3491.3491,0,0,0-.1-.2c.1,0,.2.1.3.1,0,0,.4.2.6,1.2l.1.2c0-.1.1-2.1.8-2.4a.3491.3491,0,0,0,.2-.1.31.31,0,0,1-.1.2,3.5548,3.5548,0,0,0-.4,1.6v.2a1.3807,1.3807,0,0,1,.9-.7h.1s0,.1-.2.2a6.69,6.69,0,0,0-.9,1.5v.5C74.3,47,74.2,47,74.1,47Z" fill="#6bbe66"/></g></g></g><g id="scrub_bd-23" data-name="scrub_bd" style="isolation:isolate"><g id="Scrub_FC-23" data-name="Scrub_FC"><g id="Deleted_Symbol_1-23" data-name="Deleted Symbol 1"><path d="M75.5,42.8c-.1,0-.1,0-.1-.1l-.3-1c0-.1,0-.1.1-.2l.2-.1h.1a.0979.0979,0,0,1,.1.1l.3,1c0,.1,0,.1-.1.2-.2.1-.2.1-.3.1Z" fill="#6bbe66"/><path d="M77.3,42.6a.0979.0979,0,0,1-.1-.1V41.4h-.1a.31.31,0,0,0-.2.1h-.1c-.1,0-.1,0-.1-.1l-.1-.1v-.2c.2-.1.3-.2.5-.2a.52.52,0,0,1,.4.2.6012.6012,0,0,1,.1.4v1a.0979.0979,0,0,1-.1.1Z" fill="#6bbe66"/><path d="M81.6,42.7h-.2c-.1,0-.1-.1-.1-.2l.3-1a.0979.0979,0,0,1,.1-.1H82c.1,0,.1.1.1.2l-.3,1c-.1.1-.1.1-.2.1Z" fill="#6bbe66"/><path d="M79.4,42.5a.3674.3674,0,0,1-.3-.1,9.2783,9.2783,0,0,0-.7-2.4.3491.3491,0,0,0-.1-.2c.1,0,.2.1.3.1,0,0,.4.2.6,1.2l.1.2c0-.1.1-2.1.8-2.4a.3491.3491,0,0,0,.2-.1.31.31,0,0,1-.1.2,3.5548,3.5548,0,0,0-.4,1.6v.2a1.3807,1.3807,0,0,1,.9-.7h.1s0,.1-.2.2a6.69,6.69,0,0,0-.9,1.5v.5C79.6,42.4,79.5,42.5,79.4,42.5Z" fill="#6bbe66"/></g></g></g><g id="scrub_bd-24" data-name="scrub_bd" style="isolation:isolate"><g id="Scrub_FC-24" data-name="Scrub_FC"><g id="Deleted_Symbol_1-24" data-name="Deleted Symbol 1"><path d="M66.7,41.3c-.1,0-.1,0-.1-.1l-.3-1c0-.1,0-.1.1-.2l.2-.1h.1a.0979.0979,0,0,1,.1.1l.3,1c0,.1,0,.1-.1.2a.774.774,0,0,1-.3.1Z" fill="#6bbe66"/><path d="M68.5,41a.0979.0979,0,0,1-.1-.1V39.8h-.1a.31.31,0,0,0-.2.1H68c-.1,0-.1,0-.1-.1l-.1-.1v-.2c.2-.1.3-.2.5-.2a.52.52,0,0,1,.4.2.6012.6012,0,0,1,.1.4v1a.0979.0979,0,0,1-.1.1Z" fill="#6bbe66"/><path d="M72.8,41.2h-.2c-.1,0-.1-.1-.1-.2l.3-1a.0979.0979,0,0,1,.1-.1h.3c.1,0,.1.1.1.2l-.3,1c-.1.1-.1.1-.2.1Z" fill="#6bbe66"/><path d="M70.6,41a.3674.3674,0,0,1-.3-.1,9.2783,9.2783,0,0,0-.7-2.4.3491.3491,0,0,0-.1-.2c.1,0,.2.1.3.1,0,0,.4.2.6,1.2l.1.2c0-.1.1-2.1.8-2.4a.3491.3491,0,0,0,.2-.1.31.31,0,0,1-.1.2,3.5548,3.5548,0,0,0-.4,1.6v.2a1.3807,1.3807,0,0,1,.9-.7H72s0,.1-.2.2a6.69,6.69,0,0,0-.9,1.5v.5C70.8,40.9,70.7,41,70.6,41Z" fill="#6bbe66"/></g></g></g><g id="scrub_bd-25" data-name="scrub_bd" style="isolation:isolate"><g id="Scrub_FC-25" data-name="Scrub_FC"><g id="Deleted_Symbol_1-25" data-name="Deleted Symbol 1"><path d="M80.7,71.1c-.1,0-.1,0-.1-.1l-.3-1c0-.1,0-.1.1-.2l.2-.1h.1a.0979.0979,0,0,1,.1.1l.3,1c0,.1,0,.1-.1.2-.2,0-.3,0-.3.1Z" fill="#6bbe66"/><path d="M82.5,70.8a.0979.0979,0,0,1-.1-.1V69.6h-.1a.31.31,0,0,0-.2.1H82c-.1,0-.1,0-.1-.1l-.1-.1v-.2c.2-.1.3-.2.5-.2a.52.52,0,0,1,.4.2.6012.6012,0,0,1,.1.4v1a.0979.0979,0,0,1-.1.1Z" fill="#6bbe66"/><path d="M86.8,70.9h-.2c-.1,0-.1-.1-.1-.2l.3-1a.0979.0979,0,0,1,.1-.1h.3c.1,0,.1.1.1.2l-.3,1c-.1.1-.1.1-.2.1Z" fill="#6bbe66"/><path d="M84.6,70.7a.3674.3674,0,0,1-.3-.1,9.2783,9.2783,0,0,0-.7-2.4.3491.3491,0,0,0-.1-.2c.1,0,.2.1.3.1,0,0,.4.2.6,1.2l.1.2c0-.1.1-2.1.8-2.4a.3491.3491,0,0,0,.2-.1.31.31,0,0,1-.1.2,3.5548,3.5548,0,0,0-.4,1.6V69a1.3807,1.3807,0,0,1,.9-.7H86s0,.1-.2.2a6.69,6.69,0,0,0-.9,1.5v.5C84.8,70.7,84.7,70.7,84.6,70.7Z" fill="#6bbe66"/></g></g></g><g id="scrub_bd-26" data-name="scrub_bd" style="isolation:isolate"><g id="Scrub_FC-26" data-name="Scrub_FC"><g id="Deleted_Symbol_1-26" data-name="Deleted Symbol 1"><path d="M86,66.5c-.1,0-.1,0-.1-.1l-.3-1c0-.1,0-.1.1-.2l.2-.1H86a.0979.0979,0,0,1,.1.1l.3,1c0,.1,0,.1-.1.2-.2.1-.2.1-.3.1Z" fill="#6bbe66"/><path d="M87.8,66.3a.0979.0979,0,0,1-.1-.1V65.1h-.1a.31.31,0,0,0-.2.1h-.1c-.1,0-.1,0-.1-.1l-.2-.2v-.2c.2-.1.3-.2.5-.2a.52.52,0,0,1,.4.2.6012.6012,0,0,1,.1.4v1a.0979.0979,0,0,1-.1.1h-.1Z" fill="#6bbe66"/><path d="M92.1,66.4h-.2c-.1,0-.1-.1-.1-.2l.3-1a.0979.0979,0,0,1,.1-.1h.3c.1,0,.1.1.1.2l-.3,1c-.1.1-.1.1-.2.1Z" fill="#6bbe66"/><path d="M89.9,66.2a.3674.3674,0,0,1-.3-.1,9.2783,9.2783,0,0,0-.7-2.4.3491.3491,0,0,0-.1-.2c.1,0,.2.1.3.1,0,0,.4.2.6,1.2l.1.2c0-.1.1-2.1.8-2.4a.3491.3491,0,0,0,.2-.1.31.31,0,0,1-.1.2,3.5548,3.5548,0,0,0-.4,1.6v.2a1.3807,1.3807,0,0,1,.9-.7h.1s0,.1-.2.2a6.69,6.69,0,0,0-.9,1.5V66C90.1,66.2,90,66.2,89.9,66.2Z" fill="#6bbe66"/></g></g></g><g id="scrub_bd-27" data-name="scrub_bd" style="isolation:isolate"><g id="Scrub_FC-27" data-name="Scrub_FC"><g id="Deleted_Symbol_1-27" data-name="Deleted Symbol 1"><path d="M77.2,65c-.1,0-.1,0-.1-.1l-.3-1c0-.1,0-.1.1-.2l.2-.1h.1a.0979.0979,0,0,1,.1.1l.3,1c0,.1,0,.1-.1.2a.774.774,0,0,1-.3.1Z" fill="#6bbe66"/><path d="M79,64.8a.0979.0979,0,0,1-.1-.1V63.6h-.1a.31.31,0,0,0-.2.1h-.1c-.1,0-.1,0-.1-.1l-.1-.1v-.2c.2-.1.3-.2.5-.2a.52.52,0,0,1,.4.2.6012.6012,0,0,1,.1.4v1a.0979.0979,0,0,1-.1.1Z" fill="#6bbe66"/><path d="M83.3,64.9h-.2c-.1,0-.1-.1-.1-.2l.3-1a.0979.0979,0,0,1,.1-.1h.3c.1,0,.1.1.1.2l-.3,1c-.1.1-.1.1-.2.1Z" fill="#6bbe66"/><path d="M81.1,64.7a.3674.3674,0,0,1-.3-.1,9.2783,9.2783,0,0,0-.7-2.4A.3491.3491,0,0,0,80,62c.1,0,.2.1.3.1,0,0,.4.2.6,1.2l.1.2c0-.1.1-2.1.8-2.4A.3491.3491,0,0,0,82,61a.31.31,0,0,1-.1.2,3.5548,3.5548,0,0,0-.4,1.6V63a1.3807,1.3807,0,0,1,.9-.7h.1s0,.1-.2.2a6.69,6.69,0,0,0-.9,1.5v.5C81.3,64.6,81.2,64.7,81.1,64.7Z" fill="#6bbe66"/></g></g></g><g id="scrub_bd-28" data-name="scrub_bd" style="isolation:isolate"><g id="Scrub_FC-28" data-name="Scrub_FC"><g id="Deleted_Symbol_1-28" data-name="Deleted Symbol 1"><path d="M54.7,92.2c-.1,0-.1,0-.1-.1l-.3-1c0-.1,0-.1.1-.2l.2-.1h.1a.0979.0979,0,0,1,.1.1l.3,1c0,.1,0,.1-.1.2-.2.1-.2.1-.3.1Z" fill="#6bbe66"/><path d="M56.6,91.9a.0979.0979,0,0,1-.1-.1V90.7h-.1a.31.31,0,0,0-.2.1h-.1c-.1,0-.1,0-.1-.1l-.1-.1v-.2c.2-.1.3-.2.5-.2a.52.52,0,0,1,.4.2.6012.6012,0,0,1,.1.4v1a.0979.0979,0,0,1-.1.1Z" fill="#6bbe66"/><path d="M60.8,92.1h-.2c-.1,0-.1-.1-.1-.2l.3-1a.0979.0979,0,0,1,.1-.1h.3c.1,0,.1.1.1.2L61,92a.3491.3491,0,0,1-.2.1Z" fill="#6bbe66"/><path d="M58.6,91.9a.3674.3674,0,0,1-.3-.1,9.2783,9.2783,0,0,0-.7-2.4.3491.3491,0,0,0-.1-.2c.1,0,.2.1.3.1,0,0,.4.2.6,1.2l.1.2c0-.1.1-2.1.8-2.4a.3491.3491,0,0,0,.2-.1.31.31,0,0,1-.1.2A3.5548,3.5548,0,0,0,59,90v.2a1.3807,1.3807,0,0,1,.9-.7H60s0,.1-.2.2a6.69,6.69,0,0,0-.9,1.5v.5C58.8,91.8,58.8,91.9,58.6,91.9Z" fill="#6bbe66"/></g></g></g><g id="scrub_bd-29" data-name="scrub_bd" style="isolation:isolate"><g id="Scrub_FC-29" data-name="Scrub_FC"><g id="Deleted_Symbol_1-29" data-name="Deleted Symbol 1"><path d="M60,87.7c-.1,0-.1,0-.1-.1l-.3-1c0-.1,0-.1.1-.2l.2-.1H60a.0979.0979,0,0,1,.1.1l.3,1c0,.1,0,.1-.1.2a.3674.3674,0,0,0-.3.1Z" fill="#6bbe66"/><path d="M61.9,87.4a.0979.0979,0,0,1-.1-.1V86.2h-.1a.31.31,0,0,0-.2.1h-.1c-.1,0-.1,0-.1-.1L61,86v-.2c.2-.1.3-.2.5-.2a.52.52,0,0,1,.4.2.6012.6012,0,0,1,.1.4v1a.0979.0979,0,0,1-.1.1h0Z" fill="#6bbe66"/><path d="M66.1,87.5h-.2c-.1,0-.1-.1-.1-.2l.3-1a.0979.0979,0,0,1,.1-.1h.3c.1,0,.1.1.1.2l-.3,1c0,.1-.1.1-.2.1Z" fill="#6bbe66"/><path d="M64,87.3a.3674.3674,0,0,1-.3-.1,9.2783,9.2783,0,0,0-.7-2.4.3491.3491,0,0,0-.1-.2c.1,0,.2.1.3.1,0,0,.4.2.6,1.2l.1.2c0-.1.1-2.1.8-2.4a.3491.3491,0,0,0,.2-.1.31.31,0,0,1-.1.2,3.5548,3.5548,0,0,0-.4,1.6v.2a1.3807,1.3807,0,0,1,.9-.7h.1s0,.1-.2.2a6.69,6.69,0,0,0-.9,1.5v.5C64.2,87.3,64.1,87.3,64,87.3Z" fill="#6bbe66"/></g></g></g><g id="scrub_bd-30" data-name="scrub_bd" style="isolation:isolate"><g id="Scrub_FC-30" data-name="Scrub_FC"><g id="Deleted_Symbol_1-30" data-name="Deleted Symbol 1"><path d="M51.2,86.1c-.1,0-.1,0-.1-.1l-.3-1c0-.1,0-.1.1-.2l.2-.1h.1a.0979.0979,0,0,1,.1.1l.3,1c0,.1,0,.1-.1.2-.2.1-.2.1-.3.1Z" fill="#6bbe66"/><path d="M53.1,85.9a.0979.0979,0,0,1-.1-.1V84.7h-.1a.31.31,0,0,0-.2.1h-.1c-.1,0-.1,0-.1-.1l-.1-.1v-.2c.2-.1.3-.2.5-.2a.52.52,0,0,1,.4.2.6012.6012,0,0,1,.1.4v1a.0979.0979,0,0,1-.1.1Z" fill="#6bbe66"/><path d="M57.3,86h-.2c-.1,0-.1-.1-.1-.2l.3-1a.0979.0979,0,0,1,.1-.1h.3c.1,0,.1.1.1.2l-.3,1c0,.1-.1.1-.2.1Z" fill="#6bbe66"/><path d="M55.1,85.8a.3674.3674,0,0,1-.3-.1,9.2783,9.2783,0,0,0-.7-2.4.3491.3491,0,0,0-.1-.2c.1,0,.2.1.3.1,0,0,.4.2.6,1.2l.1.2c0-.1.1-2.1.8-2.4a.3491.3491,0,0,0,.2-.1.31.31,0,0,1-.1.2,3.5548,3.5548,0,0,0-.4,1.6v.2a1.3807,1.3807,0,0,1,.9-.7h.1s0,.1-.2.2a6.69,6.69,0,0,0-.9,1.5v.5C55.3,85.8,55.3,85.8,55.1,85.8Z" fill="#6bbe66"/></g></g></g><g id="scrub_bd-31" data-name="scrub_bd" style="isolation:isolate"><g id="Scrub_FC-31" data-name="Scrub_FC"><g id="Deleted_Symbol_1-31" data-name="Deleted Symbol 1"><path d="M7.4,95c-.1,0-.1,0-.1-.1l-.3-1c0-.1,0-.1.1-.2l.2-.1h.1a.0979.0979,0,0,1,.1.1l.3,1c0,.1,0,.1-.1.2a.774.774,0,0,1-.3.1Z" fill="#6bbe66"/><path d="M9.2,94.8a.0979.0979,0,0,1-.1-.1V93.6H9a.31.31,0,0,0-.2.1H8.7c-.1,0-.1,0-.1-.1l-.1-.1v-.2c0-.3.2-.3.4-.3a.52.52,0,0,1,.4.2.6012.6012,0,0,1,.1.4v1a.0979.0979,0,0,1-.1.1H9.2Z" fill="#6bbe66"/><path d="M13.5,94.9h-.2c-.1,0-.1-.1-.1-.2l.3-1a.0979.0979,0,0,1,.1-.1h.3c.1,0,.1.1.1.2l-.3,1a.31.31,0,0,1-.2.1Z" fill="#6bbe66"/><path d="M11.3,94.7a.3674.3674,0,0,1-.3-.1,9.2783,9.2783,0,0,0-.7-2.4.3491.3491,0,0,0-.1-.2c.1,0,.2.1.3.1,0,0,.4.2.6,1.2l.1.2c0-.1.1-2.1.8-2.4a.3491.3491,0,0,0,.2-.1.31.31,0,0,1-.1.2,3.5548,3.5548,0,0,0-.4,1.6V93a1.3807,1.3807,0,0,1,.9-.7h.1s0,.1-.2.2a6.69,6.69,0,0,0-.9,1.5v.5C11.5,94.6,11.4,94.7,11.3,94.7Z" fill="#6bbe66"/></g></g></g><g id="scrub_bd-32" data-name="scrub_bd" style="isolation:isolate"><g id="Scrub_FC-32" data-name="Scrub_FC"><g id="Deleted_Symbol_1-32" data-name="Deleted Symbol 1"><path d="M12.7,90.5c-.1,0-.1,0-.1-.1l-.3-1c0-.1,0-.1.1-.2l.2-.1h.1a.0979.0979,0,0,1,.1.1l.3,1c0,.1,0,.1-.1.2a.774.774,0,0,1-.3.1Z" fill="#6bbe66"/><path d="M14.5,90.2a.0979.0979,0,0,1-.1-.1V89h-.1a.31.31,0,0,0-.2.1H14c-.1,0-.1,0-.1-.1l-.1-.1v-.2c.2-.1.3-.2.5-.2a.52.52,0,0,1,.4.2.6012.6012,0,0,1,.1.4v1a.0979.0979,0,0,1-.1.1Z" fill="#6bbe66"/><path d="M18.8,90.4h-.2c-.1,0-.1-.1-.1-.2l.3-1a.0979.0979,0,0,1,.1-.1h.3c.1,0,.1.1.1.2l-.3,1c-.1,0-.1.1-.2.1Z" fill="#6bbe66"/><path d="M16.6,90.1a.3674.3674,0,0,1-.3-.1,9.2783,9.2783,0,0,0-.7-2.4.3491.3491,0,0,0-.1-.2c.1,0,.2.1.3.1,0,0,.4.2.6,1.2l.1.2c0-.1.1-2.1.8-2.4a.3491.3491,0,0,0,.2-.1.31.31,0,0,1-.1.2,3.5548,3.5548,0,0,0-.4,1.6v.2a1.3807,1.3807,0,0,1,.9-.7H18s0,.1-.2.2a6.69,6.69,0,0,0-.9,1.5v.5C16.8,90.1,16.7,90.1,16.6,90.1Z" fill="#6bbe66"/></g></g></g><g id="scrub_bd-33" data-name="scrub_bd" style="isolation:isolate"><g id="Scrub_FC-33" data-name="Scrub_FC"><g id="Deleted_Symbol_1-33" data-name="Deleted Symbol 1"><path d="M3.9,89c-.1,0-.1,0-.1-.1l-.3-1c0-.1,0-.1.1-.2l.2-.1h.1a.0979.0979,0,0,1,.1.1l.3,1c0,.1,0,.1-.1.2-.2,0-.3,0-.3.1Z" fill="#6bbe66"/><path d="M5.7,88.7a.0979.0979,0,0,1-.1-.1V87.5H5.5a.31.31,0,0,0-.2.1H5.2c-.1,0-.1,0-.1-.1L5,87.4v-.2c.2-.1.3-.2.5-.2a.52.52,0,0,1,.4.2c0,.1.1.2.1.4v1a.0979.0979,0,0,1-.1.1Z" fill="#6bbe66"/><path d="M10,88.8H9.8c-.1,0-.1-.1-.1-.2l.3-1a.0979.0979,0,0,1,.1-.1h.3c.1,0,.1.1.1.2l-.3,1a.31.31,0,0,1-.2.1Z" fill="#6bbe66"/><path d="M7.8,88.6a.3674.3674,0,0,1-.3-.1,9.2783,9.2783,0,0,0-.7-2.4.3491.3491,0,0,0-.1-.2c.1.1.2.1.3.2,0,0,.4.2.6,1.2l.1.2c0-.1.1-2.1.8-2.4a.3491.3491,0,0,0,.2-.1.31.31,0,0,1-.1.2,3.5548,3.5548,0,0,0-.4,1.6V87a1.3807,1.3807,0,0,1,.9-.7h.1s0,.1-.2.2A6.69,6.69,0,0,0,8.1,88v.5A.3674.3674,0,0,1,7.8,88.6Z" fill="#6bbe66"/></g></g></g></svg>