<svg id="Layer_1" data-name="Layer 1" xmlns="http://www.w3.org/2000/svg" width="33.8667mm" height="33.8667mm" viewBox="0 0 96 96"><g id="boulder_bd"><path d="M12.2,79.2a.3491.3491,0,0,0-.1.2.2151.2151,0,0,0,.2.2h2c.3,0,.7-.1,1-.1h.9a2.7686,2.7686,0,0,1,.9.1.5845.5845,0,0,0,.4-.1.2151.2151,0,0,0-.2-.2.3491.3491,0,0,1-.2-.1,1.4385,1.4385,0,0,1,.2-.3c.1-.1.1-.3.2-.4a4.3311,4.3311,0,0,0,.1-.5v-.5c0-.1-.1-.3-.1-.4-.1-.1-.2-.2-.2-.3-.1-.1-.2-.2-.3-.2s-.2-.1-.3-.1h-.4c-.1,0-.3,0-.3.1-.1,0-.3.1-.4.1s-.2.1-.3.2a1.0073,1.0073,0,0,1-.3.1,3.0749,3.0749,0,0,0-1.4.8l-.3.3h0a.3491.3491,0,0,1-.2.1c-.1.1-.3.2-.4.3s-.2.2-.2.3C12.3,79.1,12.3,79.2,12.2,79.2Zm.4-.1h0c0-.1.1-.2.2-.3s.2-.2.3-.2a.0979.0979,0,0,0,.1-.1h0a.3491.3491,0,0,0,.2.1c.1.1.2.1.3.2.1,0,.3.1.4.1h.4a.2151.2151,0,0,0,.2-.2c0-.1-.1-.1-.2-.1h-.3a.3674.3674,0,0,1-.3-.1c-.1,0-.2-.1-.3-.2-.2-.2.1-.5.3-.6a2.2344,2.2344,0,0,1,1.2-.7c.1,0,.1,0,.1.1s.1.2.1.3.3.3.4.1c0-.1-.2-.2-.2-.2v-.4l.1-.1a.3491.3491,0,0,1,.2-.1c.1,0,.2-.1.3-.1a.3674.3674,0,0,0,.3-.1h.3c.1,0,.2.1.3.1a.2151.2151,0,0,1,.2.2l.2.2c0,.1.1.2.1.3v.4a.6012.6012,0,0,1-.1.4.7581.7581,0,0,1-.2.4c-.1.1-.1.2-.2.3s-.1.1-.2.1H15.4c-.3,0-.7.1-1,.1H13.3C12.8,79.2,12.6,79.1,12.6,79.1Z" fill="#9a9a90"/></g><g id="boulder_bd-2" data-name="boulder_bd" style="isolation:isolate"><path d="M17.6,74.6a.3491.3491,0,0,0-.1.2.2151.2151,0,0,0,.2.2h2c.3,0,.7-.1,1-.1h.9a2.7686,2.7686,0,0,1,.9.1.5845.5845,0,0,0,.4-.1.2151.2151,0,0,0-.2-.2.3491.3491,0,0,1-.2-.1,1.4385,1.4385,0,0,1,.2-.3c.1-.1.1-.3.2-.4a4.3311,4.3311,0,0,0,.1-.5v-.5c0-.1-.1-.3-.1-.4-.1-.1-.2-.2-.2-.3-.1-.1-.2-.2-.3-.2s-.2-.1-.3-.1h-.4c-.1,0-.3,0-.3.1-.1,0-.3.1-.4.1s-.2.1-.3.2a1.0073,1.0073,0,0,1-.3.1,3.0749,3.0749,0,0,0-1.4.8l-.3.3h0a.3491.3491,0,0,1-.2.1c-.1.1-.3.2-.4.3s-.2.2-.2.3C17.6,74.5,17.6,74.6,17.6,74.6Zm.3,0h0c0-.1.1-.2.2-.3s.2-.2.3-.2a.0979.0979,0,0,0,.1-.1h0a.3491.3491,0,0,0,.2.1c.1.1.2.1.3.2.1,0,.3.1.4.1h.4a.2151.2151,0,0,0,.2-.2c0-.1-.1-.1-.2-.1h-.3a.3674.3674,0,0,1-.3-.1c-.1,0-.2-.1-.3-.2-.2-.2.1-.5.3-.6a2.2344,2.2344,0,0,1,1.2-.7c.1,0,.1,0,.1.1s.1.2.1.3.3.3.4.1c0-.1-.2-.2-.2-.2v-.4l.1-.1a.3491.3491,0,0,1,.2-.1c.1,0,.2-.1.3-.1a.3674.3674,0,0,0,.3-.1H22c.1,0,.2.1.3.1a.2151.2151,0,0,1,.2.2l.2.2c0,.1.1.2.1.3v.4a.6012.6012,0,0,1-.1.4.7581.7581,0,0,1-.2.4c-.1.1-.1.2-.2.3s-.1.1-.2.1H20.7c-.3,0-.7.1-1,.1H18.6A3.1967,3.1967,0,0,1,17.9,74.6Z" fill="#9a9a90"/></g><g id="boulder_bd-3" data-name="boulder_bd" style="isolation:isolate"><path d="M8.7,73.1a.3491.3491,0,0,0-.1.2.2151.2151,0,0,0,.2.2h2c.3,0,.7-.1,1-.1h.9a2.7686,2.7686,0,0,1,.9.1.5845.5845,0,0,0,.4-.1.2151.2151,0,0,0-.2-.2.3491.3491,0,0,1-.2-.1,1.4385,1.4385,0,0,1,.2-.3c.1-.1.1-.3.2-.4a4.3311,4.3311,0,0,0,.1-.5v-.5c0-.1-.1-.3-.1-.4-.1-.1-.2-.2-.2-.3-.1-.1-.2-.2-.3-.2s-.2-.1-.3-.1h-.4c-.1,0-.3,0-.3.1-.1,0-.3.1-.4.1s-.2.1-.3.2a1.0073,1.0073,0,0,1-.3.1,3.0749,3.0749,0,0,0-1.4.8,1.8658,1.8658,0,0,0-.4.3h0a.3491.3491,0,0,1-.2.1c-.1.1-.3.2-.4.3s-.2.2-.2.3C8.7,73,8.7,73.1,8.7,73.1ZM9,73H9c0-.1.1-.2.2-.3s.2-.2.3-.2a.0979.0979,0,0,0,.1-.1h0a.3491.3491,0,0,0,.2.1c.1.1.2.1.3.2.1,0,.3.1.4.1h.4a.2151.2151,0,0,0,.2-.2c0-.1-.1-.1-.2-.1h-.3a.3674.3674,0,0,1-.3-.1c-.1,0-.2-.1-.3-.2-.2-.2.1-.5.3-.6a2.2344,2.2344,0,0,1,1.2-.7c.1,0,.1,0,.1.1s.1.2.1.3.3.3.4.1c0-.1-.2-.2-.2-.2v-.4l.1-.1a.3491.3491,0,0,1,.2-.1c.1,0,.2-.1.3-.1a.3674.3674,0,0,0,.3-.1h.3c.1,0,.2.1.3.1a.2151.2151,0,0,1,.2.2l.2.2c0,.1.1.2.1.3v.4a.6012.6012,0,0,1-.1.4.7581.7581,0,0,1-.2.4c-.1.1-.1.2-.2.3s-.1.1-.2.1H11.8c-.3,0-.7.1-1,.1H9.7A.9794.9794,0,0,1,9,73Z" fill="#9a9a90"/></g><g id="boulder_bd-4" data-name="boulder_bd" style="isolation:isolate"><path d="M48.8,68.6a.3491.3491,0,0,0-.1.2.2151.2151,0,0,0,.2.2h2c.3,0,.7-.1,1-.1h.9a2.7686,2.7686,0,0,1,.9.1.5845.5845,0,0,0,.4-.1.2151.2151,0,0,0-.2-.2.3491.3491,0,0,1-.2-.1,1.4385,1.4385,0,0,1,.2-.3c.1-.1.1-.3.2-.4a4.3311,4.3311,0,0,0,.1-.5v-.5c0-.1-.1-.3-.1-.4-.1-.1-.2-.2-.2-.3-.1-.1-.2-.2-.3-.2s-.2-.1-.3-.1h-.4c-.1,0-.3,0-.3.1-.1,0-.3.1-.4.1s-.2.1-.3.2a.3674.3674,0,0,1-.3.1,3.0749,3.0749,0,0,0-1.4.8l-.3.3h0a.3491.3491,0,0,1-.2.1c-.1.1-.3.2-.4.3s-.2.2-.2.3C48.8,68.5,48.8,68.6,48.8,68.6Zm.3-.1h0c0-.1.1-.2.2-.3s.2-.2.3-.2a.0979.0979,0,0,0,.1-.1h0a.3491.3491,0,0,0,.2.1c.1.1.2.1.3.2.1,0,.3.1.4.1H51a.2151.2151,0,0,0,.2-.2c0-.1-.1-.1-.2-.1h-.3a.3674.3674,0,0,1-.3-.1c-.1,0-.2-.1-.3-.2-.2-.2.1-.5.3-.6a2.2344,2.2344,0,0,1,1.2-.7c.1,0,.1,0,.1.1s.1.2.1.3.3.3.4.1c0-.1-.2-.2-.2-.2v-.4l.1-.1a.3491.3491,0,0,1,.2-.1c.1,0,.2-.1.3-.1a.3674.3674,0,0,0,.3-.1h.3c.1,0,.2.1.3.1a.2151.2151,0,0,1,.2.2l.2.2c0,.1.1.2.1.3v.4a.6012.6012,0,0,1-.1.4.7581.7581,0,0,1-.2.4c-.1.1-.1.2-.2.3s-.1.1-.2.1H51.9c-.3,0-.7.1-1,.1H49.8A.9794.9794,0,0,1,49.1,68.5Z" fill="#9a9a90"/></g><g id="boulder_bd-5" data-name="boulder_bd" style="isolation:isolate"><path d="M54.2,64a.3491.3491,0,0,0-.1.2.2151.2151,0,0,0,.2.2h2c.3,0,.7-.1,1-.1h.9a2.7686,2.7686,0,0,1,.9.1.5845.5845,0,0,0,.4-.1.2151.2151,0,0,0-.2-.2.3491.3491,0,0,1-.2-.1,1.4385,1.4385,0,0,1,.2-.3c.1-.1.1-.3.2-.4a4.3311,4.3311,0,0,0,.1-.5v-.5c0-.1-.1-.3-.1-.4-.1-.1-.2-.2-.2-.3-.1-.1-.2-.2-.3-.2s-.2-.1-.3-.1h-.4c-.1,0-.3,0-.3.1-.1,0-.3.1-.4.1s-.2.1-.3.2a1.0073,1.0073,0,0,1-.3.1,3.0749,3.0749,0,0,0-1.4.8l-.3.3h0a.3491.3491,0,0,1-.2.1c-.1.1-.3.2-.4.3s-.2.2-.2.3C54.2,63.9,54.2,64,54.2,64Zm.3,0h0c0-.1.1-.2.2-.3s.2-.2.3-.2a.0979.0979,0,0,0,.1-.1h0a.3491.3491,0,0,0,.2.1c.1.1.2.1.3.2.1,0,.3.1.4.1h.4a.2151.2151,0,0,0,.2-.2c0-.1-.1-.1-.2-.1h-.3a.3674.3674,0,0,1-.3-.1c-.1,0-.2-.1-.3-.2-.2-.2.1-.5.3-.6a2.2344,2.2344,0,0,1,1.2-.7c.1,0,.1,0,.1.1s.1.2.1.3.3.3.4.1c0-.1-.2-.2-.2-.2v-.4l.1-.1a.3491.3491,0,0,1,.2-.1c.1,0,.2-.1.3-.1a.3674.3674,0,0,0,.3-.1c.1-.1.2,0,.3,0s.2.1.3.1a.2151.2151,0,0,1,.2.2l.2.2c0,.1.1.2.1.3v.4a.6012.6012,0,0,1-.1.4.7581.7581,0,0,1-.2.4c-.1.1-.1.2-.2.3s-.1.1-.2.1H57.3c-.3,0-.7.1-1,.1H55.2A4.1839,4.1839,0,0,1,54.5,64Z" fill="#9a9a90"/></g><g id="boulder_bd-6" data-name="boulder_bd" style="isolation:isolate"><path d="M45.3,62.5a.3491.3491,0,0,0-.1.2.2151.2151,0,0,0,.2.2h2c.3,0,.7-.1,1-.1h.9a2.7686,2.7686,0,0,1,.9.1.5845.5845,0,0,0,.4-.1.2151.2151,0,0,0-.2-.2.3491.3491,0,0,1-.2-.1,1.4385,1.4385,0,0,1,.2-.3c.1-.1.1-.3.2-.4a4.3311,4.3311,0,0,0,.1-.5v-.5c0-.1-.1-.3-.1-.4s-.2-.2-.2-.3c-.1-.1-.2-.2-.3-.2s-.2-.1-.3-.1h-.4c-.1,0-.3,0-.3.1-.1,0-.3.1-.4.1s-.2.1-.3.2a1.0073,1.0073,0,0,1-.3.1,3.0749,3.0749,0,0,0-1.4.8l-.3.3h0a.3491.3491,0,0,1-.2.1c-.1.1-.3.2-.4.3s-.2.2-.2.3C45.3,62.4,45.3,62.5,45.3,62.5Zm.3-.1h0c0-.1.1-.2.2-.3L46,62a.0979.0979,0,0,0,.1-.1h0a.3491.3491,0,0,0,.2.1c.1.1.2.1.3.2.1,0,.3.1.4.1h.4a.2151.2151,0,0,0,.2-.2c0-.1-.1-.1-.2-.1h-.3a.3674.3674,0,0,1-.3-.1c-.1,0-.2-.1-.3-.2-.2-.2.1-.5.3-.6a2.2344,2.2344,0,0,1,1.2-.7c.1,0,.1,0,.1.1s.1.2.1.3.3.3.4.1c0-.1-.2-.2-.2-.2v-.4l.1-.1a.3491.3491,0,0,1,.2-.1c.1,0,.2-.1.3-.1a.3674.3674,0,0,0,.3-.1h.3c.1,0,.2.1.3.1a.2151.2151,0,0,1,.2.2l.2.2c0,.1.1.2.1.3v.4a.6012.6012,0,0,1-.1.4.7581.7581,0,0,1-.2.4c-.1.1-.1.2-.2.3s-.1.1-.2.1H48.3c-.3,0-.7.1-1,.1H45.6Z" fill="#9a9a90"/></g><g id="boulder_bd-7" data-name="boulder_bd" style="isolation:isolate"><path d="M7.8,51.1a.3491.3491,0,0,0-.1.2.2151.2151,0,0,0,.2.2h2c.3,0,.7-.1,1-.1h.9a2.7686,2.7686,0,0,1,.9.1.5845.5845,0,0,0,.4-.1.2151.2151,0,0,0-.2-.2.3491.3491,0,0,1-.2-.1,1.4385,1.4385,0,0,1,.2-.3c.1-.1.1-.3.2-.4a4.3311,4.3311,0,0,0,.1-.5v-.5c0-.1-.1-.3-.1-.4-.1-.1-.2-.2-.2-.3-.1-.1-.2-.2-.3-.2s-.2-.1-.3-.1h-.4c-.1,0-.3,0-.3.1-.1,0-.3.1-.4.1s-.2.1-.3.2a1.0073,1.0073,0,0,1-.3.1,3.0749,3.0749,0,0,0-1.4.8l-.3.3h0a.3491.3491,0,0,1-.2.1c-.1.1-.3.2-.4.3a7.365,7.365,0,0,0-.5.6Zm.3,0h0c0-.1.1-.2.2-.3s.2-.2.3-.2a.0979.0979,0,0,0,.1-.1h0a.3491.3491,0,0,0,.2.1c.1.1.2.1.3.2.1,0,.3.1.4.1H10a.2151.2151,0,0,0,.2-.2c0-.1-.1-.1-.2-.1H9.7a.3674.3674,0,0,1-.3-.1c-.1,0-.2-.1-.3-.2-.2-.2.1-.5.3-.6a2.2344,2.2344,0,0,1,1.2-.7c.1,0,.1,0,.1.1s.1.2.1.3.3.3.4.1c0-.1-.2-.2-.2-.2v-.4l.1-.1a.3491.3491,0,0,1,.2-.1c.1,0,.2-.1.3-.1a.3674.3674,0,0,0,.3-.1c.1-.1.2,0,.3,0s.2.1.3.1a.2151.2151,0,0,1,.2.2l.2.2c0,.1.1.2.1.3v.4a.6012.6012,0,0,1-.1.4.7581.7581,0,0,1-.2.4c-.1.1-.1.2-.2.3-.1.2-.2.2-.2.2H10.9c-.3,0-.7.1-1,.1H8.1Z" fill="#9a9a90"/></g><g id="boulder_bd-8" data-name="boulder_bd" style="isolation:isolate"><path d="M13.2,46.5a.3491.3491,0,0,0-.1.2.2151.2151,0,0,0,.2.2h2c.3,0,.7-.1,1-.1h.9a2.7686,2.7686,0,0,1,.9.1.5845.5845,0,0,0,.4-.1s-.1-.2-.2-.2a.3491.3491,0,0,1-.2-.1,1.4385,1.4385,0,0,1,.2-.3c.1-.1.1-.3.2-.4a4.3311,4.3311,0,0,0,.1-.5v-.5c0-.1-.1-.3-.1-.4-.1-.1-.2-.2-.2-.3-.2,0-.3-.1-.4-.1s-.2-.1-.3-.1h-.4c-.1,0-.3,0-.3.1-.1,0-.3.1-.4.1s-.2.1-.3.2a1.0073,1.0073,0,0,1-.3.1,3.0749,3.0749,0,0,0-1.4.8l-.3.3h0a.3491.3491,0,0,1-.2.1c-.1.1-.3.2-.4.3a1.4385,1.4385,0,0,0-.2.3Zm.3,0h0c0-.1.1-.2.2-.3s.2-.2.3-.2a.0979.0979,0,0,0,.1-.1h0a.3491.3491,0,0,0,.2.1c.1.1.2.1.3.2.1,0,.3.1.4.1h.4a.2151.2151,0,0,0,.2-.2c0-.1-.1-.1-.2-.1h-.3a.3674.3674,0,0,1-.3-.1c-.1,0-.2-.1-.3-.2-.2-.2.1-.5.3-.6a2.2344,2.2344,0,0,1,1.2-.7c.1,0,.1,0,.1.1s.1.2.1.3.3.3.4.1c0-.1-.2-.2-.2-.2v-.4l.1-.1a.3491.3491,0,0,1,.2-.1c.1,0,.2-.1.3-.1a.3674.3674,0,0,0,.3-.1h.3c.1,0,.2.1.3.1a.2151.2151,0,0,1,.2.2l.2.2c0,.1.1.2.1.3v.4a.6012.6012,0,0,1-.1.4.7581.7581,0,0,1-.2.4c-.1.1-.1.2-.2.3s-.1.1-.2.1H16.3c-.3,0-.7.1-1,.1H14.2A4.1839,4.1839,0,0,1,13.5,46.5Z" fill="#9a9a90"/></g><g id="boulder_bd-9" data-name="boulder_bd" style="isolation:isolate"><path d="M4.3,45a.3491.3491,0,0,0-.1.2.2151.2151,0,0,0,.2.2h2c.3,0,.7-.1,1-.1h.9a2.7686,2.7686,0,0,1,.9.1.5845.5845,0,0,0,.4-.1.2151.2151,0,0,0-.2-.2.3491.3491,0,0,1-.2-.1,1.4385,1.4385,0,0,1,.2-.3c.1-.1.1-.3.2-.4a4.3311,4.3311,0,0,0,.1-.5v-.5c0-.1-.1-.3-.1-.4-.1-.1-.2-.2-.2-.3-.1-.1-.2-.2-.3-.2s-.2-.1-.3-.1H8.4c-.1,0-.3,0-.3.1-.1,0-.3.1-.4.1s-.2.1-.3.2a1.0073,1.0073,0,0,1-.3.1,3.0749,3.0749,0,0,0-1.4.8,1.1977,1.1977,0,0,0-.4.4h0a.3491.3491,0,0,1-.2.1c-.1.1-.3.2-.4.3a1.4385,1.4385,0,0,0-.2.3C4.3,44.9,4.3,45,4.3,45Zm.3,0h0c0-.1.1-.2.2-.3,0-.1.2-.2.2-.2a.0979.0979,0,0,0,.1-.1h0a.3491.3491,0,0,0,.2.1c.1.1.2.1.3.2.1,0,.3.1.4.1h.4a.2151.2151,0,0,0,.2-.2c0-.1-.1-.1-.2-.1H6.1a.3674.3674,0,0,1-.3-.1c-.1,0-.2-.1-.3-.2-.2-.2.1-.5.3-.6.2,0,.6-.5,1.2-.5.1,0,.1,0,.1.1s.1.2.1.3.3.3.4.1c0-.1-.2-.2-.2-.2V43l.1-.1a.3491.3491,0,0,1,.2-.1c.1,0,.2-.1.3-.1a.3674.3674,0,0,0,.3-.1c.1-.1.2,0,.3,0s.2.1.3.1a.2151.2151,0,0,1,.2.2.3491.3491,0,0,0,.2.1c0,.1.1.2.1.3v.4a.6012.6012,0,0,1-.1.4.7581.7581,0,0,1-.2.4c-.1.1-.1.2-.2.3s-.1.1-.2.1H7.3a3.4019,3.4019,0,0,1-1,.1H4.6Z" fill="#9a9a90"/></g><g id="boulder_bd-10" data-name="boulder_bd" style="isolation:isolate"><path d="M16.6,30.2a.3491.3491,0,0,0-.1.2.2151.2151,0,0,0,.2.2h2c.3,0,.7-.1,1-.1h.9a2.7686,2.7686,0,0,1,.9.1.5845.5845,0,0,0,.4-.1.2151.2151,0,0,0-.2-.2.3491.3491,0,0,1-.2-.1,1.4385,1.4385,0,0,1,.2-.3c.1-.1.1-.3.2-.4A4.3311,4.3311,0,0,0,22,29v-.5c0-.1-.1-.3-.1-.4-.1-.1-.2-.2-.2-.3-.1-.1-.2-.2-.3-.2s-.2-.1-.3-.1h-.4c-.1,0-.3,0-.3.1-.1,0-.3.1-.4.1s-.2.1-.3.2a1.0073,1.0073,0,0,1-.3.1,3.0749,3.0749,0,0,0-1.4.8l-.3.3h0a.3491.3491,0,0,1-.2.1c-.1.1-.3.2-.4.3a1.4385,1.4385,0,0,0-.2.3A2.9585,2.9585,0,0,1,16.6,30.2Zm.4,0c-.1,0-.1-.1,0,0,0-.1.1-.2.2-.3s.2-.2.3-.2a.0979.0979,0,0,0,.1-.1h0a.3491.3491,0,0,0,.2.1c.1.1.2.1.3.2.1,0,.3.1.4.1h.4a.2151.2151,0,0,0,.2-.2c0-.1-.1-.1-.2-.1h-.3a.3674.3674,0,0,1-.3-.1c-.1,0-.2-.1-.3-.2-.2-.2.1-.5.3-.6a2.2344,2.2344,0,0,1,1.2-.7c.1,0,.1,0,.1.1s.1.2.1.3.3.3.4.1c0-.1-.2-.2-.2-.2V28l.1-.1a.3491.3491,0,0,1,.2-.1c.1,0,.2-.1.3-.1a.3674.3674,0,0,0,.3-.1h.3c.1,0,.2.1.3.1a.2151.2151,0,0,1,.2.2l.2.2c0,.1.1.2.1.3v.4a.6012.6012,0,0,1-.1.4.7581.7581,0,0,1-.2.4c-.1.1-.1.2-.2.3s-.1.1-.2.1H19.8c-.3,0-.7.1-1,.1H17.7A4.1839,4.1839,0,0,1,17,30.2Z" fill="#9a9a90"/></g><g id="boulder_bd-11" data-name="boulder_bd" style="isolation:isolate"><path d="M22,25.6a.3491.3491,0,0,0-.1.2.2151.2151,0,0,0,.2.2h2c.3,0,.7-.1,1-.1H26a2.7686,2.7686,0,0,1,.9.1.5845.5845,0,0,0,.4-.1.2151.2151,0,0,0-.2-.2.3491.3491,0,0,1-.2-.1,1.4385,1.4385,0,0,1,.2-.3c.1-.1.1-.3.2-.4a4.3311,4.3311,0,0,0,.1-.5v-.5c0-.1-.1-.3-.1-.4-.1-.1-.2-.2-.2-.3-.1-.1-.2-.2-.3-.2s-.2-.1-.3-.1h-.4c-.1,0-.3,0-.3.1-.1,0-.3.1-.4.1s-.2.1-.3.2a1.0073,1.0073,0,0,1-.3.1,3.0749,3.0749,0,0,0-1.4.8l-.3.3h0a.3491.3491,0,0,1-.2.1c-.1.1-.3.2-.4.3a1.4385,1.4385,0,0,0-.2.3C22,25.5,22,25.6,22,25.6Zm.3,0h0c0-.1.1-.2.2-.3s.2-.2.3-.2a.0979.0979,0,0,0,.1-.1h0a.3491.3491,0,0,0,.2.1c.1.1.2.1.3.2.1,0,.3.1.4.1h.4a.2151.2151,0,0,0,.2-.2c0-.1-.1-.1-.2-.1h-.3a.3674.3674,0,0,1-.3-.1c-.1,0-.2-.1-.3-.2-.2-.2.1-.5.3-.6a2.2344,2.2344,0,0,1,1.2-.7c.1,0,.1,0,.1.1s.1.2.1.3.3.3.4.1c0-.1-.2-.2-.2-.2v-.4l.1-.1a.3491.3491,0,0,1,.2-.1c.1,0,.2-.1.3-.1a.3674.3674,0,0,0,.3-.1h.3c.1,0,.2.1.3.1a.2151.2151,0,0,1,.2.2l.2.2c0,.1.1.2.1.3v.4a.6012.6012,0,0,1-.1.4.7581.7581,0,0,1-.2.4c-.1.1-.1.2-.2.3s-.1.1-.2.1H25.1c-.3,0-.7.1-1,.1H23A3.1967,3.1967,0,0,1,22.3,25.6Z" fill="#9a9a90"/></g><g id="boulder_bd-12" data-name="boulder_bd" style="isolation:isolate"><path d="M13.1,24.1a.3491.3491,0,0,0-.1.2.2151.2151,0,0,0,.2.2h2c.3,0,.7-.1,1-.1h.9a2.7686,2.7686,0,0,1,.9.1.5845.5845,0,0,0,.4-.1s-.1-.2-.2-.2c-.1-.2-.2-.2-.1-.2a1.4385,1.4385,0,0,1,.2-.3c.1-.1.1-.3.2-.4a4.3311,4.3311,0,0,0,.1-.5v-.5c0-.1-.1-.3-.1-.4-.1-.1-.2-.2-.2-.3-.1-.1-.2-.2-.3-.2s-.2-.1-.3-.1h-.4c-.1,0-.3,0-.3.1-.1,0-.3.1-.4.1s-.2.1-.3.2a1.0073,1.0073,0,0,1-.3.1,3.0749,3.0749,0,0,0-1.4.8l-.3.3h0a.3491.3491,0,0,1-.2.1c-.1.1-.3.2-.4.3a1.4385,1.4385,0,0,0-.2.3C13.1,24,13.1,24.1,13.1,24.1Zm.3,0h0c0-.1.1-.2.2-.3s.2-.2.3-.2a.0979.0979,0,0,0,.1-.1h0a.3491.3491,0,0,0,.2.1c.1.1.2.1.3.2.1,0,.3.1.4.1h.4a.2151.2151,0,0,0,.2-.2c0-.1-.1-.1-.2-.1H15a.3674.3674,0,0,1-.3-.1c-.1,0-.2-.1-.3-.2-.2-.2.1-.5.3-.6a2.2344,2.2344,0,0,1,1.2-.7c.1,0,.1,0,.1.1s.1.2.1.3.3.3.4.1c0-.1-.2-.2-.2-.2v-.4l.1-.1a.3491.3491,0,0,1,.2-.1c.1,0,.2-.1.3-.1a.3674.3674,0,0,0,.3-.1h.3c.1,0,.2.1.3.1a.2151.2151,0,0,1,.2.2l.2.2c0,.1.1.2.1.3v.4a.6012.6012,0,0,1-.1.4.7581.7581,0,0,1-.2.4c-.1.1-.1.2-.2.3s-.1.1-.2.1H16.2c-.3,0-.7.1-1,.1H14.1A3.1967,3.1967,0,0,1,13.4,24.1Z" fill="#9a9a90"/></g><g id="boulder_bd-13" data-name="boulder_bd" style="isolation:isolate"><path d="M47.4,10.5a.3491.3491,0,0,0-.1.2.2151.2151,0,0,0,.2.2h2c.3,0,.7-.1,1-.1h.9a2.7686,2.7686,0,0,1,.9.1.5845.5845,0,0,0,.4-.1s-.1-.2-.2-.2a.3491.3491,0,0,1-.2-.1,1.4385,1.4385,0,0,1,.2-.3c.1-.1.1-.3.2-.4a4.3311,4.3311,0,0,0,.1-.5V8.8c0-.1-.1-.3-.1-.4-.1-.1-.2-.2-.2-.3-.1-.1-.2-.2-.3-.2s-.2-.1-.3-.1h-.4c-.1,0-.3,0-.3.1-.1,0-.3.1-.4.1s-.2.1-.3.2a.3674.3674,0,0,1-.3.1,3.0749,3.0749,0,0,0-1.4.8l-.3.3h0a.3491.3491,0,0,1-.2.1c-.1.1-.3.2-.4.3a1.4385,1.4385,0,0,0-.2.3C47.4,10.4,47.4,10.5,47.4,10.5Zm.3,0h0c0-.1.1-.2.2-.3s.2-.2.3-.2a.0979.0979,0,0,0,.1-.1h0a.3491.3491,0,0,0,.2.1c.1.1.2.1.3.2.1,0,.3.1.4.1h.4a.2151.2151,0,0,0,.2-.2c0-.1-.1-.1-.2-.1h-.3a.3674.3674,0,0,1-.3-.1c-.1,0-.2-.1-.3-.2-.2-.2.1-.5.3-.6a2.2344,2.2344,0,0,1,1.2-.7c.1,0,.1,0,.1.1s.1.2.1.3.3.3.4.1c0-.1-.2-.2-.2-.2V8.3l.1-.1a.3491.3491,0,0,1,.2-.1c.1,0,.2-.1.3-.1a.3674.3674,0,0,0,.3-.1h.3c.1,0,.2.1.3.1a.2151.2151,0,0,1,.2.2l.2.2c0,.1.1.2.1.3v.4a.6012.6012,0,0,1-.1.4.7581.7581,0,0,1-.2.4c-.1.1-.1.2-.2.3s-.1.1-.2.1H50.5c-.3,0-.7.1-1,.1H48.4A4.1839,4.1839,0,0,1,47.7,10.5Z" fill="#9a9a90"/></g><g id="boulder_bd-14" data-name="boulder_bd" style="isolation:isolate"><path d="M52.7,5.9a.3491.3491,0,0,0-.1.2.2151.2151,0,0,0,.2.2h2c.3,0,.7-.1,1-.1h.9a2.7686,2.7686,0,0,1,.9.1.5845.5845,0,0,0,.4-.1s0-.3-.2-.3a.3491.3491,0,0,1-.2-.1,1.4385,1.4385,0,0,1,.2-.3c.1,0,.2-.2.2-.4a4.3311,4.3311,0,0,0,.1-.5V4.1c0-.1-.1-.3-.1-.4-.1-.1-.2-.2-.2-.3-.1-.1-.2-.2-.3-.2s-.2-.1-.3-.1h-.4c-.1,0-.3,0-.3.1-.1,0-.3.1-.4.1s-.2.1-.3.2a1.0073,1.0073,0,0,1-.3.1,3.5622,3.5622,0,0,0-1.5,1l-.3.3h0a.3491.3491,0,0,1-.2.1c-.1.1-.3.2-.4.3a1.4385,1.4385,0,0,0-.2.3C52.8,5.9,52.7,5.9,52.7,5.9Zm.3,0h0c0-.1.1-.2.2-.3s.2-.2.3-.2a.0979.0979,0,0,0,.1-.1h0a.3491.3491,0,0,0,.2.1c.1.1.2.1.3.2.1,0,.3.1.4.1h.4c.1.1.1,0,.1-.1s-.1-.1-.2-.1h-.3a.3674.3674,0,0,1-.3-.1c-.1,0-.2-.1-.3-.2-.2-.2.1-.5.3-.6a2.2344,2.2344,0,0,1,1.2-.7c.1,0,.1,0,.1.1s.1.2.1.3.3.3.4.1c0-.1-.2-.2-.2-.2V3.8l.1-.1a.3491.3491,0,0,1,.2-.1c.1,0,.2-.1.3-.1a.3674.3674,0,0,0,.3-.1H57c.1,0,.2.1.3.1a.2151.2151,0,0,1,.2.2l.2.2c0,.1.1.2.1.3v.4a.6012.6012,0,0,1-.1.4.7581.7581,0,0,1-.2.4c-.1.1-.1.2-.2.3s-.1.1-.2.1H55.7c-.3,0-.7.1-1,.1H53Z" fill="#9a9a90"/></g><g id="boulder_bd-15" data-name="boulder_bd" style="isolation:isolate"><path d="M43.8,4.4a.3491.3491,0,0,0-.1.2.2151.2151,0,0,0,.2.2h2c.3,0,.7-.1,1-.1h.9a2.7686,2.7686,0,0,1,.9.1.5845.5845,0,0,0,.4-.1s-.1-.2-.2-.2a.3491.3491,0,0,1-.2-.1,1.4385,1.4385,0,0,1,.2-.3c.1-.1.1-.3.2-.4a4.3311,4.3311,0,0,0,.1-.5V2.7c0-.1-.1-.3-.1-.4L48.8,2c-.1-.1-.2-.2-.3-.2s-.2-.1-.3-.1h-.4c-.1,0-.3,0-.3.1-.1,0-.3.1-.4.1s-.2.1-.3.2a1.0073,1.0073,0,0,1-.3.1,3.0749,3.0749,0,0,0-1.4.8l-.3.3h0a.3491.3491,0,0,1-.2.1c-.1.1-.3.2-.4.3a1.5462,1.5462,0,0,0-.3.6Zm.3,0h0c0-.1.1-.2.2-.3s.2-.2.3-.2a.0979.0979,0,0,0,.1-.1h0a.3491.3491,0,0,0,.2.1c.1.1.2.1.3.2.1,0,.3.1.4.1H46a.2151.2151,0,0,0,.2-.2h-.6a.3674.3674,0,0,1-.3-.1c-.1,0-.2-.1-.3-.2-.2-.2.1-.5.3-.6.3-.1.7-.6,1.3-.6.1,0,.1,0,.1.1s.1.2.1.3.3.3.4.1c0-.1-.2-.2-.2-.2V2.4l.1-.1a.3491.3491,0,0,1,.2-.1c.1,0,.2-.1.3-.1a.3674.3674,0,0,0,.3-.1h.3c.1,0,.2.1.3.1a.2151.2151,0,0,1,.2.2l.2.2c0,.1.1.2.1.3v.4a.6012.6012,0,0,1-.1.4.7581.7581,0,0,1-.2.4c-.1.1-.1.2-.2.3s-.1.1-.2.1H46.9c-.3,0-.7.1-1,.1H44.8A2.6386,2.6386,0,0,0,44.1,4.4Z" fill="#9a9a90"/></g><g id="boulder_bd-16" data-name="boulder_bd" style="isolation:isolate"><path d="M69.8,26.7a.3491.3491,0,0,0-.1.2.2151.2151,0,0,0,.2.2h2c.3,0,.7-.1,1-.1h.9a2.7686,2.7686,0,0,1,.9.1.5845.5845,0,0,0,.4-.1.2151.2151,0,0,0-.2-.2.3491.3491,0,0,1-.2-.1,1.4385,1.4385,0,0,1,.2-.3c.1-.1.1-.3.2-.4a4.3311,4.3311,0,0,0,.1-.5V25c0-.1-.1-.3-.1-.4-.1-.1-.2-.2-.2-.3-.1-.1-.2-.2-.3-.2s-.2-.1-.3-.1h-.4c-.1,0-.3,0-.3.1-.1,0-.3.1-.4.1s-.2.1-.3.2a1.0073,1.0073,0,0,1-.3.1,3.0749,3.0749,0,0,0-1.4.8l-.3.3h0a.3491.3491,0,0,1-.2.1c-.1.1-.3.2-.4.3a1.4385,1.4385,0,0,0-.2.3C69.9,26.6,69.9,26.7,69.8,26.7Zm.4,0h0c0-.1.1-.2.2-.3s.2-.2.3-.2a.0979.0979,0,0,0,.1-.1h0a.3491.3491,0,0,0,.2.1c.1.1.2.1.3.2.1,0,.3.1.4.1h.4a.2151.2151,0,0,0,.2-.2c0-.1-.1-.1-.2-.1h-.3a.3674.3674,0,0,1-.3-.1c-.1,0-.2-.1-.3-.2-.2-.2.1-.5.3-.6a2.2344,2.2344,0,0,1,1.2-.7c.1,0,.1,0,.1.1s.1.2.1.3.3.3.4.1c0-.1-.2-.2-.2-.2v-.4l.1-.1a.3491.3491,0,0,1,.2-.1c.1,0,.2-.1.3-.1a.3674.3674,0,0,0,.3-.1h.3c.1,0,.2.1.3.1a.2151.2151,0,0,1,.2.2l.2.2c0,.1.1.2.1.3v.4a.6012.6012,0,0,1-.1.4.7581.7581,0,0,1-.2.4c-.1.1-.1.2-.2.3s-.1.1-.2.1H73c-.3,0-.7.1-1,.1H70.9A4.1839,4.1839,0,0,1,70.2,26.7Z" fill="#9a9a90"/></g><g id="boulder_bd-17" data-name="boulder_bd" style="isolation:isolate"><path d="M75.2,22.1a.3491.3491,0,0,0-.1.2.2151.2151,0,0,0,.2.2h2c.3,0,.7-.1,1-.1h.9a2.7686,2.7686,0,0,1,.9.1.5845.5845,0,0,0,.4-.1.2151.2151,0,0,0-.2-.2.3491.3491,0,0,1-.2-.1,1.4385,1.4385,0,0,1,.2-.3c.1-.1.1-.3.2-.4a4.3311,4.3311,0,0,0,.1-.5v-.5c0-.1-.1-.3-.1-.4-.1-.1-.2-.2-.2-.3-.1-.1-.2-.2-.3-.2s-.2-.1-.3-.1h-.4c-.1,0-.3,0-.3.1-.1,0-.3.1-.4.1s-.2.1-.3.2a1.0073,1.0073,0,0,1-.3.1,3.0749,3.0749,0,0,0-1.4.8l-.3.3h0a.3491.3491,0,0,1-.2.1c-.1.1-.3.2-.4.3a1.4385,1.4385,0,0,0-.2.3Zm.3,0h0c0-.1.1-.2.2-.3s.2-.2.3-.2a.0979.0979,0,0,0,.1-.1h0a.3491.3491,0,0,0,.2.1c.1.1.2.1.3.2.1,0,.3.1.4.1h.4a.2151.2151,0,0,0,.2-.2c0-.1-.1-.1-.2-.1h-.3a.3674.3674,0,0,1-.3-.1c-.1,0-.2-.1-.3-.2-.2-.2.1-.5.3-.6A2.2344,2.2344,0,0,1,78,20c.1,0,.1,0,.1.1s.1.2.1.3.3.3.4.1c0-.1-.2-.2-.2-.2v-.4l.1-.1a.3491.3491,0,0,1,.2-.1c.1,0,.2-.1.3-.1a.3674.3674,0,0,0,.3-.1h.3c.1,0,.2.1.3.1a.2151.2151,0,0,1,.2.2l.2.2c0,.1.1.2.1.3v.4a.6012.6012,0,0,1-.1.4.7581.7581,0,0,1-.2.4c-.1.1-.1.2-.2.3-.1.2-.2.2-.2.2H78.3c-.3,0-.7.1-1,.1H75.5Z" fill="#9a9a90"/></g><g id="boulder_bd-18" data-name="boulder_bd" style="isolation:isolate"><path d="M66.3,20.6a.3491.3491,0,0,0-.1.2.2151.2151,0,0,0,.2.2h2c.3,0,.7-.1,1-.1h.9a2.7686,2.7686,0,0,1,.9.1.5845.5845,0,0,0,.4-.1.2151.2151,0,0,0-.2-.2.3491.3491,0,0,1-.2-.1,1.4385,1.4385,0,0,1,.2-.3c.1-.1.1-.3.2-.4a4.3311,4.3311,0,0,0,.1-.5v-.5c0-.1-.1-.3-.1-.4-.1-.1-.2-.2-.2-.3-.2-.1-.3-.2-.4-.2s-.2-.1-.3-.1h-.4c-.1,0-.3,0-.3.1-.1,0-.3.1-.4.1s-.2.1-.3.2a1.0073,1.0073,0,0,1-.3.1,3.0749,3.0749,0,0,0-1.4.8l-.3.3h0a.3491.3491,0,0,1-.2.1c-.1.1-.3.2-.4.3a1.4385,1.4385,0,0,0-.2.3C66.3,20.5,66.3,20.6,66.3,20.6Zm.3,0h0c0-.1.1-.2.2-.3s.2-.2.3-.2a.0979.0979,0,0,0,.1-.1h0a.3491.3491,0,0,0,.2.1c.1.1.2.1.3.2.1,0,.3.1.4.1h.4a.2151.2151,0,0,0,.2-.2c0-.1-.1-.1-.2-.1h-.3a.3674.3674,0,0,1-.3-.1c-.1,0-.2-.1-.3-.2-.2-.2.1-.5.3-.6a2.2344,2.2344,0,0,1,1.2-.7c.1,0,.1,0,.1.1s.1.2.1.3.3.3.4.1c0-.1-.2-.2-.2-.2v-.4l.1-.1a.3491.3491,0,0,1,.2-.1c.1,0,.2-.1.3-.1a.3674.3674,0,0,0,.3-.1h.3c.1,0,.2.1.3.1a.2151.2151,0,0,1,.2.2l.2.2c0,.1.1.2.1.3v.4a.6012.6012,0,0,1-.1.4.7581.7581,0,0,1-.2.4c-.1.1-.1.2-.2.3s-.1.1-.2.1H69.4c-.3,0-.7.1-1,.1H67.3A3.1967,3.1967,0,0,1,66.6,20.6Z" fill="#9a9a90"/></g><g id="boulder_bd-19" data-name="boulder_bd" style="isolation:isolate"><path d="M80.9,9.8a.3491.3491,0,0,0-.1.2.2151.2151,0,0,0,.2.2h2c.3,0,.7-.1,1-.1h.9a2.7686,2.7686,0,0,1,.9.1.5845.5845,0,0,0,.4-.1.2151.2151,0,0,0-.2-.2.3491.3491,0,0,1-.2-.1,1.4385,1.4385,0,0,1,.2-.3c.1-.1.1-.3.2-.4a4.3311,4.3311,0,0,0,.1-.5V8.1c0-.1-.1-.3-.1-.4-.1-.1-.2-.2-.2-.3-.1-.1-.2-.2-.3-.2s-.2-.1-.3-.1H85c-.1,0-.3,0-.3.1-.1,0-.3.1-.4.1s-.2.1-.3.2a1.0073,1.0073,0,0,1-.3.1,3.0749,3.0749,0,0,0-1.4.8l-.3.3h0a.3491.3491,0,0,1-.2.1c-.1.1-.3.2-.4.3-.3.4-.4.5-.4.6A.0979.0979,0,0,1,80.9,9.8Zm.3,0h0c0-.1.1-.2.2-.3s.2-.2.3-.2a.0979.0979,0,0,0,.1-.1h0a.3491.3491,0,0,0,.2.1c.1.1.2.1.3.2.1,0,.3.1.4.1h.4a.2151.2151,0,0,0,.2-.2c0-.1-.1-.1-.2-.1h-.3a.3674.3674,0,0,1-.3-.1c-.1,0-.2-.1-.3-.2-.2,0,.1-.3.3-.4a2.2344,2.2344,0,0,1,1.2-.7c.1,0,.1,0,.1.1s.1.2.1.3.3.3.4.1c0-.1-.2-.2-.2-.2C84,8.2,84,8,84,8V7.8l.1-.1a.3491.3491,0,0,1,.2-.1c.1,0,.2-.1.3-.1a.3674.3674,0,0,0,.3-.1c.1-.1.2,0,.3,0s.2.1.3.1a.2151.2151,0,0,1,.2.2l.2.2c0,.1.1.2.1.3v.4a.6012.6012,0,0,1-.1.4.7581.7581,0,0,1-.2.4c-.1.1-.1.2-.2.3s-.1.1-.2.1H83.9c-.3,0-.7.1-1,.1H81.8A2.1422,2.1422,0,0,0,81.2,9.8Z" fill="#9a9a90"/></g><g id="boulder_bd-20" data-name="boulder_bd" style="isolation:isolate"><path d="M86.3,5.3a.3491.3491,0,0,0-.1.2.2151.2151,0,0,0,.2.2h2c.3,0,.7-.1,1-.1h.9a2.7686,2.7686,0,0,1,.9.1.5845.5845,0,0,0,.4-.1s-.1-.2-.2-.2a.3491.3491,0,0,1-.2-.1,1.4385,1.4385,0,0,1,.2-.3c.1-.1.1-.3.2-.4a4.3311,4.3311,0,0,0,.1-.5V3.6c0-.1-.1-.3-.1-.4-.1-.1-.2-.2-.2-.3-.1-.1-.2-.2-.3-.2s-.2-.1-.3-.1h-.4c-.1,0-.3,0-.3.1-.1,0-.3.1-.4.1s-.2.1-.3.2a1.0073,1.0073,0,0,1-.3.1,3.0749,3.0749,0,0,0-1.4.8l-.3.3h0a.3491.3491,0,0,1-.2.1c-.1.1-.3.2-.4.3a1.4385,1.4385,0,0,0-.2.3C86.3,5.2,86.3,5.3,86.3,5.3Zm.3-.1h0c0-.1.1-.2.2-.3s.2-.2.3-.2a.0979.0979,0,0,0,.1-.1h0a.3491.3491,0,0,0,.2.1.3193.3193,0,0,0,.3.3c.1,0,.3.1.4.1h.4a.2151.2151,0,0,0,.2-.2c0-.1-.1-.1-.2-.1h-.3a.3674.3674,0,0,1-.3-.1c-.1,0-.2-.1-.3-.2-.2-.2.1-.5.3-.6.1,0,.5-.5,1.1-.5.1,0,.1,0,.1.1s.1.2.1.3.3.3.4.1c0-.1-.2-.2-.2-.2V3.3l.1-.1a.3491.3491,0,0,1,.2-.1c.1,0,.2-.1.3-.1a.3674.3674,0,0,0,.3-.1h.3c.1,0,.2.1.3.1a.31.31,0,0,1,.2.1l.2.2c0,.1.1.2.1.3V4a.6012.6012,0,0,1-.1.4.7581.7581,0,0,1-.2.4,1.4385,1.4385,0,0,1-.2.3c-.1.1-.1.1-.2.1H89.3c-.3,0-.7.1-1,.1H87.2A2.18,2.18,0,0,1,86.6,5.2Z" fill="#9a9a90"/></g><g id="boulder_bd-21" data-name="boulder_bd" style="isolation:isolate"><path d="M77.4,3.7a.3491.3491,0,0,0-.1.2.2151.2151,0,0,0,.2.2h2c.3,0,.7-.1,1-.1h1.8a.5845.5845,0,0,0,.4-.1s-.1-.2-.2-.2a.3491.3491,0,0,1-.2-.1,1.4385,1.4385,0,0,1,.2-.3c.1-.1.1-.3.2-.4a4.3311,4.3311,0,0,0,.1-.5V1.9c0-.1-.1-.3-.1-.4-.1-.1-.2-.2-.2-.3-.1-.1-.2-.2-.3-.2-.2.1-.3,0-.4,0h-.4c-.1,0-.3,0-.3.1-.1,0-.3.1-.4.1s-.2.1-.3.2a1.0073,1.0073,0,0,1-.3.1,3.0749,3.0749,0,0,0-1.4.8l-.3.3h0a.3491.3491,0,0,1-.2.1,2.2524,2.2524,0,0,1-.5.5,1.4385,1.4385,0,0,0-.2.3Zm.3,0h0c0-.1.1-.2.2-.3s.2-.2.3-.2a.0979.0979,0,0,0,.1-.1h0a.3491.3491,0,0,0,.2.1c.1.1.2.1.3.2.1,0,.3.1.4.1h.4a.2151.2151,0,0,0,.2-.2c0-.1-.1-.1-.2-.1h-.3a.3674.3674,0,0,1-.3-.1c-.1,0-.2-.1-.3-.2-.2-.2.1-.5.3-.6a2.2344,2.2344,0,0,1,1.2-.7c.1,0,.1,0,.1.1s.1.2.1.3.3.3.4.1c0-.1-.2-.2-.2-.2V1.5l.1-.1a.3491.3491,0,0,1,.2-.1c.1,0,.2-.1.3-.1a.3674.3674,0,0,0,.3-.1h.3c.1,0,.2.1.3.1a.2151.2151,0,0,1,.2.2l.2.2c0,.1.1.2.1.3v.4a.6012.6012,0,0,1-.1.4.7581.7581,0,0,1-.2.4c-.1.1-.1.2-.2.3s-.1.1-.2.1H80.5c-.3,0-.7.1-1,.1H78.4A3.1967,3.1967,0,0,1,77.7,3.7Z" fill="#9a9a90"/></g><g id="boulder_bd-22" data-name="boulder_bd" style="isolation:isolate"><path d="M70.8,46.5a.3491.3491,0,0,0-.1.2.2151.2151,0,0,0,.2.2h2c.3,0,.7-.1,1-.1h.9a2.7686,2.7686,0,0,1,.9.1.5845.5845,0,0,0,.4-.1s-.1-.2-.2-.2a.3491.3491,0,0,1-.2-.1,1.4385,1.4385,0,0,1,.2-.3c.1-.1.1-.3.2-.4a4.3311,4.3311,0,0,0,.1-.5v-.5c0-.1-.1-.3-.1-.4-.1-.1-.2-.2-.2-.3-.1-.1-.2-.2-.3-.2s-.2-.1-.3-.1h-.4c-.1,0-.3,0-.3.1-.1,0-.3.1-.4.1s-.2.1-.3.2a1.0073,1.0073,0,0,1-.3.1,3.0749,3.0749,0,0,0-1.4.8l-.3.3h0a.3491.3491,0,0,1-.2.1c-.1.1-.3.2-.4.3a1.4385,1.4385,0,0,0-.2.3C70.9,46.5,70.9,46.5,70.8,46.5Zm.4,0h0c0-.1.1-.2.2-.3s.2-.2.3-.2a.0979.0979,0,0,0,.1-.1h0a.3491.3491,0,0,0,.2.1c.1.1.2.1.3.2.1,0,.3.1.4.1h.4a.2151.2151,0,0,0,.2-.2c0-.1-.1-.1-.2-.1h-.3a.3674.3674,0,0,1-.3-.1c-.1,0-.2-.1-.3-.2-.2-.2.1-.5.3-.6a2.2344,2.2344,0,0,1,1.2-.7c.1,0,.1,0,.1.1s.1.2.1.3.3.3.4.1c0-.1-.2-.2-.2-.2v-.4l.1-.1a.3491.3491,0,0,1,.2-.1c.1,0,.2-.1.3-.1a.3674.3674,0,0,0,.3-.1h.3c.1,0,.2.1.3.1a.2151.2151,0,0,1,.2.2l.2.2c0,.1.1.2.1.3v.4a.6012.6012,0,0,1-.1.4.7581.7581,0,0,1-.2.4c-.1.1-.1.2-.2.3s-.1.1-.2.1H74c-.3,0-.7.1-1,.1H71.9A4.1839,4.1839,0,0,1,71.2,46.5Z" fill="#9a9a90"/></g><g id="boulder_bd-23" data-name="boulder_bd" style="isolation:isolate"><path d="M76.2,42a.3491.3491,0,0,0-.1.2.2151.2151,0,0,0,.2.2h2c.3,0,.7-.1,1-.1h.9a2.7686,2.7686,0,0,1,.9.1.5845.5845,0,0,0,.4-.1.2151.2151,0,0,0-.2-.2.3491.3491,0,0,1-.2-.1,1.4385,1.4385,0,0,1,.2-.3c.1-.1.1-.3.2-.4a4.3311,4.3311,0,0,0,.1-.5v-.5c0-.1-.1-.3-.1-.4-.1-.1-.2-.2-.2-.3-.1-.1-.2-.2-.3-.2s-.2-.1-.3-.1h-.4c-.1,0-.3,0-.3.1-.1,0-.3.1-.4.1s-.2.1-.3.2a1.0073,1.0073,0,0,1-.3.1,3.0749,3.0749,0,0,0-1.4.8l-.3.3h0a.3491.3491,0,0,1-.2.1c-.1.1-.3.2-.4.3a1.4385,1.4385,0,0,0-.2.3C76.2,41.9,76.2,42,76.2,42Zm.3,0h0c0-.1.1-.2.2-.3s.2-.2.3-.2a.0979.0979,0,0,0,.1-.1h0a.3491.3491,0,0,0,.2.1c.1.1.2.1.3.2.1,0,.3.1.4.1h.4a.2151.2151,0,0,0,.2-.2c0-.1-.1-.1-.2-.1h-.3a.3674.3674,0,0,1-.3-.1c-.1,0-.2-.1-.3-.2-.2-.2.1-.5.3-.6a2.2344,2.2344,0,0,1,1.2-.7c.1,0,.1,0,.1.1s.1.2.1.3.3.3.4.1c0-.1-.2-.2-.2-.2v-.4l.1-.1a.3491.3491,0,0,1,.2-.1c.1,0,.2-.1.3-.1a.3674.3674,0,0,0,.3-.1c.1-.1.2,0,.3,0s.2.1.3.1a.2151.2151,0,0,1,.2.2l.2.2c0,.1.1.2.1.3v.4a.6012.6012,0,0,1-.1.4.7581.7581,0,0,1-.2.4c-.1.1-.1.2-.2.3s-.1.1-.2.1H79.3c-.3,0-.7.1-1,.1H77.2A3.1967,3.1967,0,0,1,76.5,42Z" fill="#9a9a90"/></g><g id="boulder_bd-24" data-name="boulder_bd" style="isolation:isolate"><path d="M67.3,40.4a.3491.3491,0,0,0-.1.2.2151.2151,0,0,0,.2.2h2c.3,0,.7-.1,1-.1h.9a2.7686,2.7686,0,0,1,.9.1.5845.5845,0,0,0,.4-.1.2151.2151,0,0,0-.2-.2.3491.3491,0,0,1-.2-.1,1.4385,1.4385,0,0,1,.2-.3c.1-.1.1-.3.2-.4a4.3311,4.3311,0,0,0,.1-.5v-.5c0-.1-.1-.3-.1-.4-.1-.1-.2-.2-.2-.3-.1-.1-.2-.2-.3-.2s-.2-.1-.3-.1h-.4c-.1,0-.3,0-.3.1-.1,0-.3.1-.4.1s-.2.1-.3.2a1.0073,1.0073,0,0,1-.3.1,3.0749,3.0749,0,0,0-1.4.8l-.3.3h0a.3491.3491,0,0,1-.2.1c-.1.1-.3.2-.4.3a1.4385,1.4385,0,0,0-.2.3Zm.3,0h0c0-.1.1-.2.2-.3s.2-.2.3-.2a.0979.0979,0,0,0,.1-.1h0a.3491.3491,0,0,0,.2.1c.1.1.2.1.3.2.1,0,.3.1.4.1h.4a.2151.2151,0,0,0,.2-.2c0-.1-.1-.1-.2-.1h-.3a.3674.3674,0,0,1-.3-.1c-.1,0-.2-.1-.3-.2-.2-.2.1-.5.3-.6a2.2344,2.2344,0,0,1,1.2-.7c.1,0,.1,0,.1.1s.1.2.1.3.3.3.4.1c0-.1-.2-.2-.2-.2v-.4l.1-.1a.3491.3491,0,0,1,.2-.1c.1,0,.2-.1.3-.1a.3674.3674,0,0,0,.3-.1h.3c.1,0,.2.1.3.1a.2151.2151,0,0,1,.2.2l.2.2c0,.1.1.2.1.3V39a.6012.6012,0,0,1-.1.4.7581.7581,0,0,1-.2.4l-.2.4c-.1.1-.1.1-.2.1H70.4c-.3,0-.7.1-1,.1H67.6Z" fill="#9a9a90"/></g><g id="boulder_bd-25" data-name="boulder_bd" style="isolation:isolate"><path d="M81.4,70.5a.3491.3491,0,0,0-.1.2.2151.2151,0,0,0,.2.2h2c.3,0,.7-.1,1-.1h.9a2.7686,2.7686,0,0,1,.9.1.5845.5845,0,0,0,.4-.1s-.1-.2-.2-.2a.3491.3491,0,0,1-.2-.1,1.4385,1.4385,0,0,1,.2-.3c.1-.1.1-.3.2-.4a4.3311,4.3311,0,0,0,.1-.5v-.5c0-.1-.1-.3-.1-.4-.1-.1-.2-.2-.2-.3-.1-.1-.2-.2-.3-.2s-.2-.1-.3-.1h-.4c-.1,0-.3,0-.3.1-.1,0-.3.1-.4.1s-.2.1-.3.2a1.0073,1.0073,0,0,1-.3.1,3.0749,3.0749,0,0,0-1.4.8l-.3.3h0a.3491.3491,0,0,1-.2.1c-.1.1-.3.2-.4.3s-.2.2-.2.3A2.9585,2.9585,0,0,1,81.4,70.5Zm.3-.1h0c0-.1.1-.2.2-.3s.2-.2.3-.2a.0979.0979,0,0,0,.1-.1h0a.3491.3491,0,0,0,.2.1c.1.1.2.1.3.2.1,0,.3.1.4.1h.4a.2151.2151,0,0,0,.2-.2c0-.1-.1-.1-.2-.1h-.3a.3674.3674,0,0,1-.3-.1c-.1,0-.2-.1-.3-.2-.2-.2.1-.5.3-.6a2.2344,2.2344,0,0,1,1.2-.7c.1,0,.1,0,.1.1s.1.2.1.3.3.3.4.1c0-.1-.2-.2-.2-.2v-.4l.1-.1a.3491.3491,0,0,1,.2-.1c.1,0,.2-.1.3-.1a.3674.3674,0,0,0,.3-.1h.3c.1,0,.2.1.3.1a.2151.2151,0,0,1,.2.2l.2.2c0,.1.1.2.1.3V69a.6012.6012,0,0,1-.1.4.7581.7581,0,0,1-.2.4c-.1.1-.1.2-.2.3s-.1.1-.2.1H84.5c-.3,0-.7.1-1,.1H82.4A.9806.9806,0,0,1,81.7,70.4Z" fill="#9a9a90"/></g><g id="boulder_bd-26" data-name="boulder_bd" style="isolation:isolate"><path d="M86.8,65.9a.3491.3491,0,0,0-.1.2.2151.2151,0,0,0,.2.2h2c.3,0,.7-.1,1-.1h.9a2.7686,2.7686,0,0,1,.9.1.5845.5845,0,0,0,.4-.1s-.1-.2-.2-.2a.3491.3491,0,0,1-.2-.1,1.4385,1.4385,0,0,1,.2-.3c.1-.1.1-.3.2-.4a4.3311,4.3311,0,0,0,.1-.5v-.5c0-.1-.1-.3-.1-.4-.1-.1-.2-.2-.2-.3-.1-.1-.2-.2-.3-.2s-.2-.1-.3-.1h-.4c-.1,0-.3,0-.3.1-.1,0-.3.1-.4.1s-.2.1-.3.2a1.0073,1.0073,0,0,1-.3.1,3.0749,3.0749,0,0,0-1.4.8l-.3.3h0a.3491.3491,0,0,1-.2.1c-.1.1-.3.2-.4.3s-.2.2-.2.3C86.8,65.8,86.8,65.9,86.8,65.9Zm.3,0h0c0-.1.1-.2.2-.3s.2-.2.3-.2a.0979.0979,0,0,0,.1-.1h0a.3491.3491,0,0,0,.2.1c.1.1.2.1.3.2.1,0,.3.1.4.1H89a.2151.2151,0,0,0,.2-.2c0-.1-.1-.1-.2-.1h-.3a.3674.3674,0,0,1-.3-.1c-.1,0-.2-.1-.3-.2-.2-.2.1-.5.3-.6a2.2344,2.2344,0,0,1,1.2-.7c.1,0,.1,0,.1.1s.1.2.1.3.3.3.4.1c0-.1-.2-.2-.2-.2v-.4l.1-.1a.3491.3491,0,0,1,.2-.1c.1,0,.2-.1.3-.1a.3674.3674,0,0,0,.3-.1h.3c.1,0,.2.1.3.1a.2151.2151,0,0,1,.2.2l.2.2c0,.1.1.2.1.3v.4a.6012.6012,0,0,1-.1.4.7581.7581,0,0,1-.2.4c-.1.1-.1.2-.2.3s-.1.1-.2.1H89.9c-.3,0-.7.1-1,.1H87.8A3.1967,3.1967,0,0,1,87.1,65.9Z" fill="#9a9a90"/></g><g id="boulder_bd-27" data-name="boulder_bd" style="isolation:isolate"><path d="M77.9,64.4a.3491.3491,0,0,0-.1.2.2151.2151,0,0,0,.2.2h2c.3,0,.7-.1,1-.1h.9a2.7686,2.7686,0,0,1,.9.1.5845.5845,0,0,0,.4-.1s-.1-.2-.2-.2a.3491.3491,0,0,1-.2-.1,1.4385,1.4385,0,0,1,.2-.3c.1-.1.1-.3.2-.4a4.3311,4.3311,0,0,0,.1-.5v-.5c0-.1-.1-.3-.1-.4-.1-.1-.2-.2-.2-.3-.1-.1-.2-.2-.3-.2s-.2-.1-.3-.1H82c-.1,0-.3,0-.3.1-.1,0-.3.1-.4.1s-.2.1-.3.2a1.0073,1.0073,0,0,1-.3.1,3.0749,3.0749,0,0,0-1.4.8l-.3.3h0a.3491.3491,0,0,1-.2.1c-.1.1-.3.2-.4.3s-.2.2-.2.3C77.9,64.3,77.9,64.4,77.9,64.4Zm.3-.1h0c0-.1.1-.2.2-.3s.2-.2.3-.2a.0979.0979,0,0,0,.1-.1h0a.3491.3491,0,0,0,.2.1c.1.1.2.1.3.2.1,0,.3.1.4.1h.4a.2151.2151,0,0,0,.2-.2c0-.1-.1-.1-.2-.1h-.3a.3674.3674,0,0,1-.3-.1c-.1,0-.2-.1-.3-.2-.2-.2.1-.5.3-.6a2.2344,2.2344,0,0,1,1.2-.7c.1,0,.1,0,.1.1s.1.2.1.3.3.3.4.1c0-.1-.2-.2-.2-.2v-.4l.1-.1a.3491.3491,0,0,1,.2-.1c.1,0,.2-.1.3-.1a.3674.3674,0,0,0,.3-.1c.1-.1.2,0,.3,0s.2.1.3.1a.2151.2151,0,0,1,.2.2l.2.2c0,.1.1.2.1.3v.4a.6012.6012,0,0,1-.1.4.7581.7581,0,0,1-.2.4c-.1.1-.1.2-.2.3s-.1.1-.2.1H81c-.3,0-.7.1-1,.1H78.9A.9794.9794,0,0,1,78.2,64.3Z" fill="#9a9a90"/></g><g id="boulder_bd-28" data-name="boulder_bd" style="isolation:isolate"><path d="M55.2,91.8a.3491.3491,0,0,0-.1.2.2151.2151,0,0,0,.2.2h2c.3,0,.7-.1,1-.1h.9a2.7686,2.7686,0,0,1,.9.1.5845.5845,0,0,0,.4-.1s-.1-.2-.2-.2a.3491.3491,0,0,1-.2-.1,1.4385,1.4385,0,0,1,.2-.3c.1-.1.1-.3.2-.4a4.3311,4.3311,0,0,0,.1-.5v-.5c0-.1-.1-.3-.1-.4-.1-.1-.2-.2-.2-.3-.1-.1-.2-.2-.3-.2s-.2-.1-.3-.1h-.4c-.1,0-.3,0-.3.1-.1,0-.3.1-.4.1s-.2.1-.3.2a1.0073,1.0073,0,0,1-.3.1,3.0749,3.0749,0,0,0-1.4.8l-.3.3h0a.3491.3491,0,0,1-.2.1c-.1.1-.3.2-.4.3s-.2.2-.2.3C55.3,91.7,55.3,91.8,55.2,91.8Zm.4,0h0c0-.1.1-.2.2-.3s.2-.2.3-.2a.0979.0979,0,0,0,.1-.1h0a.3491.3491,0,0,0,.2.1c.1.1.2.1.3.2.1,0,.3.1.4.1h.4a.2151.2151,0,0,0,.2-.2c0-.1-.1-.1-.2-.1h-.3a.3674.3674,0,0,1-.3-.1c-.1,0-.2-.1-.3-.2-.2-.2.1-.5.3-.6a2.2344,2.2344,0,0,1,1.2-.7c.1,0,.1,0,.1.1s.1.2.1.3.3.3.4.1c0-.1-.2-.2-.2-.2v-.4l.1-.1a.3491.3491,0,0,1,.2-.1c.1,0,.2-.1.3-.1a.3674.3674,0,0,0,.3-.1h.3c.1,0,.2.1.3.1a.2151.2151,0,0,1,.2.2l.2.2c0,.1.1.2.1.3v.4a.6012.6012,0,0,1-.1.4.7581.7581,0,0,1-.2.4c-.1.1-.1.2-.2.3s-.1.1-.2.1H58.4c-.3,0-.7.1-1,.1H56.3A4.1839,4.1839,0,0,1,55.6,91.8Z" fill="#9a9a90"/></g><g id="boulder_bd-29" data-name="boulder_bd" style="isolation:isolate"><path d="M60.6,87.2a.3491.3491,0,0,0-.1.2.2151.2151,0,0,0,.2.2h2c.3,0,.7-.1,1-.1h.9a2.7686,2.7686,0,0,1,.9.1.5845.5845,0,0,0,.4-.1.2151.2151,0,0,0-.2-.2.3491.3491,0,0,1-.2-.1,1.4385,1.4385,0,0,1,.2-.3c.1-.1.1-.3.2-.4A4.3311,4.3311,0,0,0,66,86v-.5c0-.1-.1-.3-.1-.4-.1-.1-.2-.2-.2-.3-.1-.1-.2-.2-.3-.2s-.2-.1-.3-.1h-.4c-.1,0-.3,0-.3.1-.1,0-.3.1-.4.1s-.2.1-.3.2a1.0073,1.0073,0,0,1-.3.1,3.0749,3.0749,0,0,0-1.4.8l-.3.3h0a.3491.3491,0,0,1-.2.1c-.1.1-.3.2-.4.3s-.2.2-.2.3C60.6,87.1,60.6,87.2,60.6,87.2Zm.3,0h0c0-.1.1-.2.2-.3s.2-.2.3-.2a.0979.0979,0,0,0,.1-.1h0a.3491.3491,0,0,0,.2.1c.1.1.2.1.3.2.1,0,.3.1.4.1h.4a.2151.2151,0,0,0,.2-.2c0-.1-.1-.1-.2-.1h-.3a.3674.3674,0,0,1-.3-.1c-.1,0-.2-.1-.3-.2-.2-.2.1-.5.3-.6a2.2344,2.2344,0,0,1,1.2-.7c.1,0,.1,0,.1.1s.1.2.1.3.3.3.4.1c0-.1-.2-.2-.2-.2V85l.1-.1a.3491.3491,0,0,1,.2-.1c.1,0,.2-.1.3-.1a.3674.3674,0,0,0,.3-.1c.1-.1.2,0,.3,0s.2.1.3.1a.2151.2151,0,0,1,.2.2l.2.2c0,.1.1.2.1.3v.4a.6012.6012,0,0,1-.1.4.7581.7581,0,0,1-.2.4c-.1.1-.1.2-.2.3s-.1.1-.2.1H63.7c-.3,0-.7.1-1,.1H61.6A3.1967,3.1967,0,0,1,60.9,87.2Z" fill="#9a9a90"/></g><g id="boulder_bd-30" data-name="boulder_bd" style="isolation:isolate"><path d="M51.7,85.7a.3491.3491,0,0,0-.1.2.2151.2151,0,0,0,.2.2h2c.3,0,.7-.1,1-.1h.9a2.7686,2.7686,0,0,1,.9.1A.5845.5845,0,0,0,57,86s-.1-.2-.2-.2a.3491.3491,0,0,1-.2-.1,1.4385,1.4385,0,0,1,.2-.3c.1-.1.1-.3.2-.4a4.3311,4.3311,0,0,0,.1-.5V84c0-.1-.1-.3-.1-.4-.1-.1-.2-.2-.2-.3-.1-.1-.2-.2-.3-.2s-.2-.1-.3-.1h-.4c-.1,0-.3,0-.3.1-.1,0-.3.1-.4.1s-.2.1-.3.2a1.0073,1.0073,0,0,1-.3.1,3.0749,3.0749,0,0,0-1.4.8l-.3.3h0a.3491.3491,0,0,1-.2.1c-.1.1-.3.2-.4.3s-.2.2-.2.3C51.7,85.6,51.7,85.7,51.7,85.7Zm.3,0h0c0-.1.1-.2.2-.3s.2-.2.3-.2a.0979.0979,0,0,0,.1-.1h0a.3491.3491,0,0,0,.2.1c.1.1.2.1.3.2.1,0,.3.1.4.1h.4a.2151.2151,0,0,0,.2-.2c0-.1-.1-.1-.2-.1h-.3a.3674.3674,0,0,1-.3-.1c-.1,0-.2-.1-.3-.2-.2-.2.1-.5.3-.6a2.2344,2.2344,0,0,1,1.2-.7c.1,0,.1,0,.1.1s.1.2.1.3.3.3.4.1c0-.1-.2-.2-.2-.2v-.4l.1-.1a.3491.3491,0,0,1,.2-.1c.1,0,.2-.1.3-.1a.3674.3674,0,0,0,.3-.1h.3c.1,0,.2.1.3.1a.2151.2151,0,0,1,.2.2l.2.2c0,.1.1.2.1.3v.4a.6012.6012,0,0,1-.1.4.7581.7581,0,0,1-.2.4c-.1.1-.1.2-.2.3s-.1.1-.2.1H54.8c-.3,0-.7.1-1,.1H52.7A3.1967,3.1967,0,0,1,52,85.7Z" fill="#9a9a90"/></g><g id="boulder_bd-31" data-name="boulder_bd" style="isolation:isolate"><path d="M7.4,94.6a.3491.3491,0,0,0-.1.2.2151.2151,0,0,0,.2.2h2c.3,0,.7-.1,1-.1h.9a2.7686,2.7686,0,0,1,.9.1.5845.5845,0,0,0,.4-.1.2151.2151,0,0,0-.2-.2.3491.3491,0,0,1-.2-.1,1.4385,1.4385,0,0,1,.2-.3c.1-.1.1-.3.2-.4a4.3311,4.3311,0,0,0,.1-.5v-.5c0-.1-.1-.3-.1-.4-.1-.1-.2-.2-.2-.3-.1-.1-.2-.2-.3-.2s-.2-.1-.3-.1h-.4c-.1,0-.3,0-.3.1-.1,0-.3.1-.4.1s-.2.1-.3.2a1.0073,1.0073,0,0,1-.3.1,3.0749,3.0749,0,0,0-1.4.8l-.3.3h0a.3491.3491,0,0,1-.2.1,7.365,7.365,0,0,1-.6.5c-.1.1-.2.2-.2.3C7.5,94.6,7.5,94.6,7.4,94.6Zm.4,0h0c0-.1.1-.2.2-.3s.2-.2.3-.2a.0979.0979,0,0,0,.1-.1h0a.3491.3491,0,0,0,.2.1c.1.1.2.1.3.2.1,0,.3.1.4.1h.4a.2151.2151,0,0,0,.2-.2c0-.1-.1-.1-.2-.1H9.4a.3674.3674,0,0,1-.3-.1c-.1,0-.2-.1-.3-.2-.2-.2.1-.5.3-.6a2.2344,2.2344,0,0,1,1.2-.7c.1,0,.1,0,.1.1s.1.2.1.3.3.3.4.1c0-.1-.2-.2-.2-.2v-.4l.1-.1a.3491.3491,0,0,1,.2-.1c.1,0,.2-.1.3-.1a.3674.3674,0,0,0,.3-.1h.3c.1,0,.2.1.3.1a.2151.2151,0,0,1,.2.2l.2.2c0,.1.1.2.1.3v.4a.6012.6012,0,0,1-.1.4.7581.7581,0,0,1-.2.4c-.1.1-.1.2-.2.3s-.1.1-.2.1H10.6c-.3,0-.7.1-1,.1H8.5A4.1839,4.1839,0,0,1,7.8,94.6Z" fill="#9a9a90"/></g><g id="boulder_bd-32" data-name="boulder_bd" style="isolation:isolate"><path d="M12.8,90.1a.3491.3491,0,0,0-.1.2.2151.2151,0,0,0,.2.2h2c.3,0,.7-.1,1-.1h.9a2.7686,2.7686,0,0,1,.9.1.5845.5845,0,0,0,.4-.1,1.4245,1.4245,0,0,0-.2-.4.3491.3491,0,0,1-.2-.1,1.4385,1.4385,0,0,1,.2-.3c.1-.1.1-.3.2-.4a4.3311,4.3311,0,0,0,.1-.5v-.5c0-.1-.1-.3-.1-.4-.1-.1-.2-.2-.2-.3-.1-.1-.2-.2-.3-.2s-.2-.1-.3-.1h-.4c-.1,0-.3,0-.3.1-.1,0-.3.1-.4.1s-.2.1-.3.2a1.0073,1.0073,0,0,1-.3.1,3.0749,3.0749,0,0,0-1.4.8,3.6093,3.6093,0,0,1-.4.5h0a.3491.3491,0,0,1-.2.1c-.1.1-.3.2-.4.3s-.2.2-.2.3C12.8,90,12.8,90.1,12.8,90.1Zm.3-.1h0c0-.1.1-.2.2-.3s.2-.2.3-.2a.0979.0979,0,0,0,.1-.1h0a.3491.3491,0,0,0,.2.1c.1.1.2.1.3.2.1,0,.3.1.4.1H15a.2151.2151,0,0,0,.2-.2c0-.1-.1-.1-.2-.1h-.3a.3674.3674,0,0,1-.3-.1c-.1,0-.2-.1-.3-.2-.2-.2.1-.5.3-.6a2.2344,2.2344,0,0,1,1.2-.7c.1,0,.1,0,.1.1s.1.2.1.3.3.3.4.1c0-.1-.2-.2-.2-.2v-.4l.1-.1a.3491.3491,0,0,1,.2-.1c.1,0,.2-.1.3-.1a.3674.3674,0,0,0,.3-.1h.3c.1,0,.2.1.3.1a.2151.2151,0,0,1,.2.2l.2.2c0,.1.1.2.1.3v.4a.6012.6012,0,0,1-.1.4.7581.7581,0,0,1-.2.4c-.1.1-.1.2-.2.3s-.1.1-.2.1H15.9c-.3,0-.7.1-1,.1H13.8A.9794.9794,0,0,1,13.1,90Z" fill="#9a9a90"/></g><g id="boulder_bd-33" data-name="boulder_bd" style="isolation:isolate"><path d="M3.9,88.5a.3491.3491,0,0,0-.1.2.2151.2151,0,0,0,.2.2H6c.3,0,.7-.1,1-.1h.9a2.7686,2.7686,0,0,1,.9.1.5845.5845,0,0,0,.4-.1.2151.2151,0,0,0-.2-.2.3491.3491,0,0,1-.2-.1,1.4385,1.4385,0,0,1,.2-.3c.1-.1.1-.3.2-.4a4.3311,4.3311,0,0,0,.1-.5v-.5c0-.1-.1-.3-.1-.4-.1-.1-.2-.2-.2-.3-.1-.1-.2-.2-.3-.2s-.2-.1-.3-.1H8c-.1,0-.3,0-.3.1-.1,0-.3.1-.4.1s-.2.1-.3.2a1.0073,1.0073,0,0,1-.3.1,3.0749,3.0749,0,0,0-1.4.8l-.3.3H5a.3491.3491,0,0,1-.2.1c-.1.1-.3.2-.4.3-.3.3-.4.5-.4.6Zm.3,0h0c0-.1.1-.2.2-.3s.2-.2.3-.2h.1a.3491.3491,0,0,0,.2.1c.1.1.2.1.3.2.1,0,.3.1.4.1h.4a.2151.2151,0,0,0,.2-.2c0-.1-.1-.1-.2-.1H5.8a.3674.3674,0,0,1-.3-.1c-.1,0-.2-.1-.3-.2-.2-.2.1-.5.3-.6a2.2344,2.2344,0,0,1,1.2-.7c.1,0,.1,0,.1.1s.1.2.1.3.3.3.4.1c0-.1-.2-.2-.2-.2v-.4l.1-.1a.3491.3491,0,0,1,.2-.1c.1,0,.2-.1.3-.1A.3674.3674,0,0,0,8,86h.3c.1,0,.2.1.3.1a.2151.2151,0,0,1,.2.2l.2.2c0,.1.1.2.1.3v.4a.6012.6012,0,0,1-.1.4.7581.7581,0,0,1-.2.4c-.1.1-.1.2-.2.3s-.1.1-.2.1H7c-.3,0-.7.1-1,.1H4.2Z" fill="#9a9a90"/></g></svg>