<svg id="Layer_1" data-name="Layer 1" xmlns="http://www.w3.org/2000/svg" width="33.8667mm" height="33.8667mm" viewBox="0 0 96 96"><g id="roughgrass_bd"><g id="RoughGrass_FC"><path d="M11.8,79.2v.1l-.1.1h-.3l-.3-.5v-.1l.1-.1h.3Z" fill="#6bbe66"/><path d="M14.1,78.6h0a1.7265,1.7265,0,0,0-.4-.3c-.1-.2.1-.7.1-.7v-.7A1.432,1.432,0,0,1,14.1,78.6Z" fill="#6bbe66"/><path d="M14.1,78.6c.1.1.2.1.2.4H14A.7559.7559,0,0,1,14.1,78.6Z" fill="#6bbe66"/><path d="M16.2,77.8l-.5.5a2.1644,2.1644,0,0,0-.3.6v.2a.4829.4829,0,0,1-.4,0,2.18,2.18,0,0,0,.1-.6s0-1.1.5-1.2c0,0,.4-.2.1.1a1.67,1.67,0,0,0-.3.9C15.5,78.1,15.8,77.7,16.2,77.8Z" fill="#6bbe66"/><path d="M18.2,78.8v.1l-.3.4c0,.1-.1.1-.2,0h-.1l-.1-.1v-.1l.3-.5c0-.1.1-.1.2,0l.2.2Z" fill="#6bbe66"/><path d="M12.8,78.3l.2.7v.1l-.1.1h-.1c-.1,0-.1,0-.2-.1l-.2-.7v-.1l.1-.1h.1C12.7,78.2,12.8,78.2,12.8,78.3Z" fill="#6bbe66"/><path d="M16.8,78.2h.1l.1.1v.1l-.2.7c0,.1-.1.1-.2.1h-.1l-.1-.1V79l.2-.7C16.6,78.2,16.7,78.2,16.8,78.2Z" fill="#6bbe66"/></g></g><g id="heath_bd"><g id="Heath_FC"><path d="M17.1,74.9c-.1,0-.1,0-.1-.1l-.4-.7V74a.0979.0979,0,0,1,.1-.1l.1-.1h.1l.1.2.4.7v.1l-.1.1Z" fill="#6bbe66"/><path d="M18.6,74.7c-.1,0-.1,0-.2-.1L18,73.2c0-.1,0-.2.1-.2l.1-.1h.1l.1.1.4,1.3v.1l-.1.1c.1.1,0,.1-.1.2Z" fill="#6bbe66"/><path d="M20.2,72.4l.2,1.8v.1l-.1.1h-.2a.2151.2151,0,0,1-.2-.2l-.2-1.9.1-.1.2-.1h.1C20.1,72.3,20.2,72.3,20.2,72.4Z" fill="#6bbe66"/><path d="M21.5,74.7h-.1l-.1-.1v-.1l.4-1.3.1-.1h.3l.1.1c.1,0,.1.1.1.2l-.4,1.3c-.2-.1-.3,0-.4,0Z" fill="#6bbe66"/><path d="M23.1,74.9h0l-.2-.1-.1-.1v-.1l.4-.7.1-.1h.1l.1.1c.1,0,.1.1.1.2l-.4.7A.0979.0979,0,0,1,23.1,74.9Z" fill="#6bbe66"/></g></g><g id="heath_bd-2" data-name="heath_bd" style="isolation:isolate"><g id="Heath_FC-2" data-name="Heath_FC"><path d="M8.2,73.4c-.1,0-.1,0-.1-.1l-.4-.7v-.1a.0979.0979,0,0,1,.1-.1l.1-.1H8v.1l.4.7v.1l-.1.1-.1.1Z" fill="#6bbe66"/><path d="M9.7,73.1c-.1,0-.1,0-.2-.1l-.4-1.3c0-.1,0-.2.1-.2l.1-.1h.1l.1.1.4,1.3v.1l-.1.1c0,.1,0,.1-.1.1Z" fill="#6bbe66"/><path d="M11.3,70.9l.2,1.8v.1l-.1.1h-.2a.2151.2151,0,0,1-.2-.2l-.2-1.9.1-.1.2-.1h.1C11.2,70.7,11.3,70.8,11.3,70.9Z" fill="#6bbe66"/><path d="M12.6,73.1h-.1l-.2-.1v-.1l.4-1.3.1-.1h.3l.1.1c.1,0,.1.1.1.2L12.8,73c-.1.1-.1.1-.2.1Z" fill="#6bbe66"/><path d="M14.1,73.4h0l-.2-.1-.1-.1v-.1l.4-.7.1-.1h.1l.1.1c.1,0,.1.1.1.2l-.4.7C14.2,73.4,14.2,73.4,14.1,73.4Z" fill="#6bbe66"/></g></g><g id="roughgrass_bd-2" data-name="roughgrass_bd" style="isolation:isolate"><g id="RoughGrass_FC-2" data-name="RoughGrass_FC"><path d="M48.6,68.5v.1l-.1.1h-.3l-.2-.5V68h.3Z" fill="#6bbe66"/><path d="M50.9,68h0c0-.1-.1-.1,0,0a1.7265,1.7265,0,0,0-.4-.3c-.1-.2.1-.7.1-.7v-.7A1.432,1.432,0,0,1,50.9,68Z" fill="#6bbe66"/><path d="M50.9,68c.1.1.2.1.2.4h-.3C50.8,68.2,50.8,68.1,50.9,68Z" fill="#6bbe66"/><path d="M53,67.1l-.5.5a2.1644,2.1644,0,0,0-.3.6v.2a.4829.4829,0,0,1-.4,0,2.18,2.18,0,0,0,.1-.6s0-1.1.5-1.2c0,0,.4-.2.1.1a1.67,1.67,0,0,0-.3.9C52.3,67.5,52.6,67.1,53,67.1Z" fill="#6bbe66"/><path d="M55,68.1v.1l-.3.4c0,.1-.1.1-.2,0h-.1l-.1-.1v-.1l.3-.5c0-.1.1-.1.2,0l.2.2Z" fill="#6bbe66"/><path d="M49.6,67.6l.2.7v.1l-.1.1h-.1c-.1,0-.1,0-.2-.1l-.2-.7v-.1l.1-.1h.1C49.5,67.5,49.6,67.5,49.6,67.6Z" fill="#6bbe66"/><path d="M53.6,67.5h.1l.1.1v.1l-.2.7c0,.1-.1.1-.2.1h-.1l-.1-.1v-.1l.2-.7C53.4,67.5,53.5,67.5,53.6,67.5Z" fill="#6bbe66"/></g></g><g id="heath_bd-3" data-name="heath_bd" style="isolation:isolate"><g id="Heath_FC-3" data-name="Heath_FC"><path d="M53.9,64.3c-.1,0-.1,0-.1-.1l-.4-.7v-.1a.0979.0979,0,0,1,.1-.1l.1-.1h.1l.1.1.4.7v.1l-.1.1-.2.1Z" fill="#6bbe66"/><path d="M55.4,64c-.1,0-.1,0-.2-.1l-.4-1.3c0-.1,0-.2.1-.2l.1-.1h.2l.1.1.4,1.3v.1l-.1.1c-.1.1-.1.1-.2.1Z" fill="#6bbe66"/><path d="M57,61.7l.2,1.8v.1l-.1.1h-.2a.2151.2151,0,0,1-.2-.2l-.2-1.9.1-.1.2-.1h.1C56.9,61.6,57,61.6,57,61.7Z" fill="#6bbe66"/><path d="M58.3,64h-.1l-.1-.1v-.1l.4-1.3.1-.1h.2l.1.1c.1,0,.1.1.1.2L58.6,64c-.1-.1-.2,0-.3,0Z" fill="#6bbe66"/><path d="M59.8,64.3h0l-.2-.1-.1-.1V64l.4-.7.1-.1h.1l.1.1c.1,0,.1.1.1.2l-.3.7C59.9,64.2,59.9,64.3,59.8,64.3Z" fill="#6bbe66"/></g></g><g id="heath_bd-4" data-name="heath_bd" style="isolation:isolate"><g id="Heath_FC-4" data-name="Heath_FC"><path d="M45,62.7c-.1,0-.1,0-.1-.1l-.5-.6v-.1a.0979.0979,0,0,1,.1-.1l.1-.1h.1l.1.1.4.7v.1l-.1.1Z" fill="#6bbe66"/><path d="M46.5,62.4c-.1,0-.1,0-.2-.1L45.9,61c0-.1,0-.2.1-.2l.1-.1h.1l.1.1.4,1.3v.1l-.1.1a.0979.0979,0,0,1-.1.1Z" fill="#6bbe66"/><path d="M48.1,60.2l.2,1.8v.1l-.1.1H48a.2151.2151,0,0,1-.2-.2l-.2-1.9.1-.1.2-.1H48A.3674.3674,0,0,0,48.1,60.2Z" fill="#6bbe66"/><path d="M49.3,62.4h-.1l-.1-.1v-.1l.4-1.3.1-.1h.2l.1.1c.1,0,.1.1.1.2l-.4,1.3Z" fill="#6bbe66"/><path d="M50.9,62.7h0l-.2-.1-.1-.1v-.1l.4-.7.1-.1h.1l.1.1c.1,0,.1.1.1.2l-.4.7A.0979.0979,0,0,1,50.9,62.7Z" fill="#6bbe66"/></g></g><g id="roughgrass_bd-3" data-name="roughgrass_bd" style="isolation:isolate"><g id="RoughGrass_FC-3" data-name="RoughGrass_FC"><path d="M7.3,50.9V51l-.1.1H6.9l-.3-.5v-.1l.1-.1H7Z" fill="#6bbe66"/><path d="M9.6,50.4h0a1.7265,1.7265,0,0,0-.4-.3c-.1-.2.1-.7.1-.7v-.7A1.432,1.432,0,0,1,9.6,50.4Z" fill="#6bbe66"/><path d="M9.6,50.4c.1.1.2.1.2.4H9.5C9.5,50.6,9.6,50.5,9.6,50.4Z" fill="#6bbe66"/><path d="M11.8,49.5l-.5.5a2.1644,2.1644,0,0,0-.3.6v.2a.4829.4829,0,0,1-.4,0,2.18,2.18,0,0,0,.1-.6s0-1.1.5-1.2c0,0,.4-.2.1.1a1.67,1.67,0,0,0-.3.9A.8514.8514,0,0,1,11.8,49.5Z" fill="#6bbe66"/><path d="M13.8,50.6v.1l-.3.4c0,.1-.1.1-.2,0h-.1l-.1-.1v-.1l.3-.5c0-.1.1-.1.2,0l.2.2Z" fill="#6bbe66"/><path d="M8.3,50l.2.7V51H8.4c-.1,0-.1,0-.2-.1L8,50.2v-.1l.1-.1h.1C8.2,49.9,8.3,50,8.3,50Z" fill="#6bbe66"/><path d="M12.3,49.9h.1l.1.1v.1l-.2.7c0,.1-.1.1-.2.1H12l-.1-.1v-.1l.2-.7A.3491.3491,0,0,0,12.3,49.9Z" fill="#6bbe66"/></g></g><g id="heath_bd-5" data-name="heath_bd" style="isolation:isolate"><g id="Heath_FC-5" data-name="Heath_FC"><path d="M12.7,46.7c-.1,0-.1,0-.1-.1l-.4-.7v-.1a.0979.0979,0,0,1,.1-.1l.1-.1h.1l.1.1.4.7v.1l-.1.1-.2.1Z" fill="#6bbe66"/><path d="M14.2,46.4c-.1,0-.1,0-.2-.1L13.6,45c0-.1,0-.2.1-.2l.1-.1h.1l.1.1.4,1.3v.1l-.1.1a.0979.0979,0,0,1-.1.1Z" fill="#6bbe66"/><path d="M15.7,44.2,16,46v.1l-.1.1h-.2a.2151.2151,0,0,1-.2-.2l-.2-1.9.1-.1.2-.1h.1Z" fill="#6bbe66"/><path d="M17,46.4h-.1l-.1-.1v-.1l.4-1.3.1-.1h.3l.1.1c.1,0,.1.1.1.2l-.4,1.3Z" fill="#6bbe66"/><path d="M18.6,46.7h0l-.2-.1-.1-.1v-.1l.4-.7.1-.1h.1l.1.1c.1,0,.1.1.1.2l-.4.7A.0979.0979,0,0,1,18.6,46.7Z" fill="#6bbe66"/></g></g><g id="roughgrass_bd-4" data-name="roughgrass_bd" style="isolation:isolate"><g id="RoughGrass_FC-4" data-name="RoughGrass_FC"><path d="M3.8,44.8v.1l-.1.1H3.4l-.3-.5v-.1l.1-.1h.3Z" fill="#6bbe66"/><path d="M6.1,44.2h0a1.7265,1.7265,0,0,0-.4-.3c-.1-.2.1-.7.1-.7v-.7C6.6,43.5,6.1,44.2,6.1,44.2Z" fill="#6bbe66"/><path d="M6.1,44.3c.1.1.2.1.2.4H6C6,44.5,6,44.4,6.1,44.3Z" fill="#6bbe66"/><path d="M8.2,43.4l-.5.5a2.1644,2.1644,0,0,0-.3.6v.2a.4829.4829,0,0,1-.4,0,2.18,2.18,0,0,0,.1-.6s0-1.1.5-1.2c0,0,.4-.2.1.1a1.67,1.67,0,0,0-.3.9C7.5,43.8,7.8,43.4,8.2,43.4Z" fill="#6bbe66"/><path d="M10.2,44.4v.1l-.3.5c0,.1-.1.1-.2,0H9.6l-.1-.1v-.1l.3-.5c0-.1.1-.1.2,0l.2.1Z" fill="#6bbe66"/><path d="M4.8,43.9l.2.7v.1l-.1.1H4.8c-.1,0-.1,0-.2-.1L4.4,44v-.1l.1-.1h.1C4.7,43.8,4.8,43.8,4.8,43.9Z" fill="#6bbe66"/><path d="M8.8,43.8h.1l.1.1V44l-.2.7c0,.1-.1.1-.2.1H8.5l-.1-.1v-.1l.2-.7C8.6,43.8,8.7,43.8,8.8,43.8Z" fill="#6bbe66"/></g></g><g id="roughgrass_bd-5" data-name="roughgrass_bd" style="isolation:isolate"><g id="RoughGrass_FC-5" data-name="RoughGrass_FC"><path d="M16.2,29.9V30l-.1.1h-.3l-.3-.5v-.1l.1-.1h.3Z" fill="#6bbe66"/><path d="M18.5,29.3h0a1.7265,1.7265,0,0,0-.4-.3c-.1-.2.1-.7.1-.7v-.7A1.432,1.432,0,0,1,18.5,29.3Z" fill="#6bbe66"/><path d="M18.5,29.3c.1.1.2.1.2.4h-.3C18.4,29.6,18.5,29.5,18.5,29.3Z" fill="#6bbe66"/><path d="M20.7,28.5l-.5.5a2.1644,2.1644,0,0,0-.3.6v.2a.4829.4829,0,0,1-.4,0,2.18,2.18,0,0,0,.1-.6s0-1.1.5-1.2c0,0,.4-.2.1.1a1.67,1.67,0,0,0-.3.9A.6508.6508,0,0,1,20.7,28.5Z" fill="#6bbe66"/><path d="M22.7,29.5v.1l-.3.4c0,.1-.1.1-.2,0H22v-.1l.3-.5c0-.1.1-.1.2,0l.2.1Z" fill="#6bbe66"/><path d="M17.2,29l.2.7v.1l-.1.1h-.1c-.1,0-.1,0-.2-.1l-.2-.7V29l.1-.1H17C17.1,28.9,17.2,28.9,17.2,29Z" fill="#6bbe66"/><path d="M21.2,28.9h.1l.1.1v.1l-.2.7c0,.1-.1.1-.2.1h-.1l-.1-.1v-.1L21,29C21.1,28.9,21.1,28.9,21.2,28.9Z" fill="#6bbe66"/></g></g><g id="heath_bd-6" data-name="heath_bd" style="isolation:isolate"><g id="Heath_FC-6" data-name="Heath_FC"><path d="M21.5,25.6c-.1,0-.1,0-.1-.1l-.4-.6v-.1a.0979.0979,0,0,1,.1-.1l.1-.1h.1l.1.1.4.7v.1l-.1.1Z" fill="#6bbe66"/><path d="M23,25.3c-.1,0-.1,0-.2-.1l-.4-1.3c0-.1,0-.2.1-.2l.1-.1h.1l.1.1.4,1.3v.1l-.1.1c.1.1,0,.1-.1.1Z" fill="#6bbe66"/><path d="M24.6,23.1l.2,1.8V25l-.1.1h-.2a.2151.2151,0,0,1-.2-.2L24.1,23l.1-.1.2-.1h.1A.3674.3674,0,0,1,24.6,23.1Z" fill="#6bbe66"/><path d="M25.9,25.3h-.1l-.1-.1v-.1l.4-1.3.1-.1h.3l.1.1c.1,0,.1.1.1.2l-.4,1.3c-.2,0-.2.1-.4,0Z" fill="#6bbe66"/><path d="M27.5,25.6h0l-.2-.1-.1-.1v-.1l.4-.7.1-.1h.1l.1.1c.1,0,.1.1.1.2l-.4.7A.0979.0979,0,0,1,27.5,25.6Z" fill="#6bbe66"/></g></g><g id="heath_bd-7" data-name="heath_bd" style="isolation:isolate"><g id="Heath_FC-7" data-name="Heath_FC"><path d="M12.6,24.1c-.1,0-.1,0-.1-.1l-.4-.7v-.1a.0979.0979,0,0,1,.1-.1l.1-.1h.1l.1.1.4.7v.1l-.1.1-.2.1Z" fill="#6bbe66"/><path d="M14.1,23.8c-.1,0-.1,0-.2-.1l-.4-1.3c0-.1,0-.2.1-.2l.1-.1h.1l.1.1.4,1.3v.1l-.1.1c0,.1,0,.1-.1.1Z" fill="#6bbe66"/><path d="M15.7,21.6l.2,1.8v.1l-.1.1h-.2a.2151.2151,0,0,1-.2-.2l-.2-1.9.1-.1.2-.1h.1C15.6,21.4,15.7,21.5,15.7,21.6Z" fill="#6bbe66"/><path d="M17,23.8h-.1l-.1-.1v-.1l.4-1.3.1-.1h.3l.1.1c.1,0,.1.1.1.2l-.4,1.3Z" fill="#6bbe66"/><path d="M18.5,24.1h0l-.2-.1-.1-.1v-.1l.4-.7.1-.1h.1l.1.1c.1,0,.1.1.1.2l-.3.7C18.6,24.1,18.6,24.1,18.5,24.1Z" fill="#6bbe66"/></g></g><g id="roughgrass_bd-6" data-name="roughgrass_bd" style="isolation:isolate"><g id="RoughGrass_FC-6" data-name="RoughGrass_FC"><path d="M47.1,10.1v.1l-.1.1h-.3l-.3-.5V9.7l.1-.1h.3Z" fill="#6bbe66"/><path d="M49.5,9.5h0a1.7265,1.7265,0,0,0-.4-.3c-.1-.2.1-.7.1-.7V7.8A1.65,1.65,0,0,1,49.5,9.5Z" fill="#6bbe66"/><path d="M49.4,9.5c.1.1.2.1.2.4h-.3C49.3,9.8,49.4,9.7,49.4,9.5Z" fill="#6bbe66"/><path d="M51.6,8.7l-.5.5a2.1644,2.1644,0,0,0-.3.6V10a.4829.4829,0,0,1-.4,0,2.18,2.18,0,0,0,.1-.6s0-1.1.5-1.2c0,0,.4-.2.1.1a1.67,1.67,0,0,0-.3.9A.7137.7137,0,0,1,51.6,8.7Z" fill="#6bbe66"/><path d="M53.6,9.7v.1l-.3.4c0,.1-.1.1-.2,0H53l-.1-.1V10l.3-.5c0-.1.1-.1.2,0l.2.2Z" fill="#6bbe66"/><path d="M48.1,9.2l.2.7V10l-.1.1h-.1c-.1,0-.1,0-.2-.1l-.2-.7V9.2l.1-.1h.1C48,9.1,48.1,9.1,48.1,9.2Z" fill="#6bbe66"/><path d="M52.1,9.1h.1l.1.1v.1l-.2.7c0,.1-.1.1-.2.1h-.1V9.9l.2-.7A.0979.0979,0,0,1,52.1,9.1Z" fill="#6bbe66"/></g></g><g id="heath_bd-8" data-name="heath_bd" style="isolation:isolate"><g id="Heath_FC-8" data-name="Heath_FC"><path d="M52.5,5.8c-.1,0-.1,0-.1-.1L52,5V4.9a.0979.0979,0,0,1,.1-.1l.1-.1h.1l.1.1.4.7v.1l-.1.1-.2.1Z" fill="#6bbe66"/><path d="M54,5.6c-.1,0-.1,0-.2-.1l-.4-1.3c0-.1,0-.2.1-.2l.1-.1h.2l.1.1.4,1.3v.1l-.1.1c-.1,0-.1,0-.2.1Z" fill="#6bbe66"/><path d="M55.6,3.3l.2,1.8v.1l-.1.1h-.2a.2151.2151,0,0,1-.2-.2L55,3.3l.1-.1.2-.1h.1C55.5,3.2,55.6,3.2,55.6,3.3Z" fill="#6bbe66"/><path d="M56.9,5.5h-.1l-.1-.1V5.3L57,3.9l.1-.1h.2l.1.1c.1,0,.1.1.1.2l-.4,1.3c-.1.1-.1.2-.2.1Z" fill="#6bbe66"/><path d="M58.4,5.8h0l-.2-.1-.1-.1V5.5l.4-.7.1-.1h.1l.1.1c.1,0,.1.1.1.2l-.4.7C58.5,5.8,58.5,5.8,58.4,5.8Z" fill="#6bbe66"/></g></g><g id="heath_bd-9" data-name="heath_bd" style="isolation:isolate"><g id="Heath_FC-9" data-name="Heath_FC"><path d="M43.5,4.3c-.1,0-.1,0-.1-.1L43,3.5V3.4a.0979.0979,0,0,1,.1-.1l.1-.1h.1l.1.1.4.7v.1l-.1.1-.2.1Z" fill="#6bbe66"/><path d="M45,4c-.1,0-.1,0-.2-.1l-.4-1.3c0-.1,0-.2.1-.2l.1-.1h.1l.1.1.4,1.3V4Z" fill="#6bbe66"/><path d="M46.6,1.8l.2,1.8v.1l-.1.1h-.2a.2151.2151,0,0,1-.2-.2l-.2-1.9.1-.1.2-.1h.1C46.5,1.6,46.6,1.7,46.6,1.8Z" fill="#6bbe66"/><path d="M47.9,4h-.1l-.1-.1V3.8l.4-1.3.1-.1h.3l.1.1c.1,0,.1.1.1.2L48.3,4Z" fill="#6bbe66"/><path d="M49.4,4.3h0l-.2-.1-.1-.1V4l.4-.7.1-.1h.1l.1.1c.2.1.2.2.2.2l-.4.7C49.5,4.3,49.5,4.3,49.4,4.3Z" fill="#6bbe66"/></g></g><g id="roughgrass_bd-7" data-name="roughgrass_bd" style="isolation:isolate"><g id="RoughGrass_FC-7" data-name="RoughGrass_FC"><path d="M69.8,26.4v.1l-.1.1h-.3l-.3-.5V26l.1-.1h.3Z" fill="#6bbe66"/><path d="M72.1,25.8h0a1.7265,1.7265,0,0,0-.4-.3c-.1-.2.1-.7.1-.7v-.7A1.432,1.432,0,0,1,72.1,25.8Z" fill="#6bbe66"/><path d="M72.1,25.8c.1.1.2.1.2.4H72A.7559.7559,0,0,1,72.1,25.8Z" fill="#6bbe66"/><path d="M74.2,24.9l-.5.5a2.1644,2.1644,0,0,0-.3.6v.2a.4829.4829,0,0,1-.4,0,2.18,2.18,0,0,0,.1-.6s0-1.1.5-1.2c0,0,.4-.2.1.1a1.67,1.67,0,0,0-.3.9C73.5,25.3,73.8,24.9,74.2,24.9Z" fill="#6bbe66"/><path d="M76.2,26v.1l-.3.4c0,.1-.1.1-.2,0h-.1l-.1-.1v-.1l.3-.5c0-.1.1-.1.2,0l.2.2Z" fill="#6bbe66"/><path d="M70.8,25.5l.2.7v.1l-.1.1h-.1c-.1,0-.1,0-.2-.1l-.2-.7v-.1l.1-.1h.1C70.7,25.3,70.7,25.4,70.8,25.5Z" fill="#6bbe66"/><path d="M74.8,25.4h.1l.1.1v.1l-.2.7c0,.1-.1.1-.2.1h-.1l-.1-.1v-.1l.2-.7C74.6,25.4,74.7,25.3,74.8,25.4Z" fill="#6bbe66"/></g></g><g id="heath_bd-10" data-name="heath_bd" style="isolation:isolate"><g id="Heath_FC-10" data-name="Heath_FC"><path d="M75.1,22.1c-.1,0-.1,0-.1-.1l-.4-.7v-.1a.0979.0979,0,0,1,.1-.1l.1-.1h.1l.1.1.4.7v.1l-.1.1-.2.1Z" fill="#6bbe66"/><path d="M76.6,21.8c-.1,0-.1,0-.2-.1L76,20.4c0-.1,0-.2.1-.2l.1-.1h.2l.1.1.4,1.3v.1l-.1.1c-.1.1-.1.1-.2.1Z" fill="#6bbe66"/><path d="M78.2,19.6l.2,1.8v.1l-.1.1h-.2a.2151.2151,0,0,1-.2-.2l-.2-1.9.1-.1.2-.1h.1C78.1,19.4,78.2,19.5,78.2,19.6Z" fill="#6bbe66"/><path d="M79.5,21.8h-.1l-.1-.1v-.1l.4-1.3.1-.1H80l.1.1c.1,0,.1.1.1.2l-.4,1.3Z" fill="#6bbe66"/><path d="M81,22.1h0l-.2-.1-.1-.1v-.1l.4-.7.1-.1h.1l.1.1c.1,0,.1.1.1.2l-.3.7C81.1,22.1,81.1,22.1,81,22.1Z" fill="#6bbe66"/></g></g><g id="roughgrass_bd-8" data-name="roughgrass_bd" style="isolation:isolate"><g id="RoughGrass_FC-8" data-name="RoughGrass_FC"><path d="M66.2,20.2v.1l-.1.1h-.3l-.2-.4v-.1l.1-.1H66Z" fill="#6bbe66"/><path d="M68.5,19.7h0a1.7265,1.7265,0,0,0-.4-.3c-.1-.2.1-.7.1-.7V18A1.432,1.432,0,0,1,68.5,19.7Z" fill="#6bbe66"/><path d="M68.5,19.7c.1.1.2.1.2.4h-.3C68.4,19.9,68.5,19.8,68.5,19.7Z" fill="#6bbe66"/><path d="M70.7,18.8l-.5.5a2.1644,2.1644,0,0,0-.3.6v.2a.4829.4829,0,0,1-.4,0,2.18,2.18,0,0,0,.1-.6s0-1.1.5-1.2c0,0,.4-.2.1.1a1.67,1.67,0,0,0-.3.9A.8514.8514,0,0,1,70.7,18.8Z" fill="#6bbe66"/><path d="M72.7,19.8v.1l-.3.4c0,.1-.1.1-.2,0H72v-.1l.3-.5c0-.1.1-.1.2,0l.2.1Z" fill="#6bbe66"/><path d="M67.2,19.3l.2.7v.1l-.1.1h-.1c-.1,0-.1,0-.2-.1l-.2-.7v-.1l.1-.1H67C67.1,19.2,67.2,19.2,67.2,19.3Z" fill="#6bbe66"/><path d="M71.2,19.2h.1l.1.1v.1l-.2.7c0,.1-.1.1-.2.1h-.1l-.1-.1V20l.2-.7C71.1,19.2,71.1,19.2,71.2,19.2Z" fill="#6bbe66"/></g></g><g id="roughgrass_bd-9" data-name="roughgrass_bd" style="isolation:isolate"><g id="RoughGrass_FC-9" data-name="RoughGrass_FC"><path d="M80.9,9.4v.1l-.1.1h-.3l-.3-.5V9l.1-.1h.3Z" fill="#6bbe66"/><path d="M83.2,8.8h0a1.7265,1.7265,0,0,0-.4-.3,3.1,3.1,0,0,1,.2-.7V7.1A1.4785,1.4785,0,0,1,83.2,8.8Z" fill="#6bbe66"/><path d="M83.2,8.9c.1.1.2.1.2.4h-.3C83.1,9.1,83.2,9,83.2,8.9Z" fill="#6bbe66"/><path d="M85.4,8l-.5.5a2.1644,2.1644,0,0,0-.3.6v.2a.4829.4829,0,0,1-.4,0,2.18,2.18,0,0,0,.1-.6s0-1.1.5-1.2c0,0,.4-.2.1.1a1.67,1.67,0,0,0-.3.9A.8514.8514,0,0,1,85.4,8Z" fill="#6bbe66"/><path d="M87.4,9v.1l-.4.5c0,.1-.1.1-.2,0h-.1l-.1-.1V9.4l.4-.5c0-.1.1-.1.2,0l.2.1Z" fill="#6bbe66"/><path d="M81.9,8.5l.2.7v.1l-.1.1h-.1c-.1,0-.1,0-.2-.1l-.2-.7V8.5l.1-.1h.1C81.8,8.4,81.9,8.4,81.9,8.5Z" fill="#6bbe66"/><path d="M85.9,8.4H86l.1.1v.1l-.2.7c0,.1-.1.1-.2.1h-.1l-.1-.1V9.2l.2-.7A.31.31,0,0,1,85.9,8.4Z" fill="#6bbe66"/></g></g><g id="heath_bd-11" data-name="heath_bd" style="isolation:isolate"><g id="Heath_FC-11" data-name="Heath_FC"><path d="M86.3,5.2c-.1,0-.1,0-.1-.1l-.4-.7V4.3a.0979.0979,0,0,1,.1-.1l.1-.1h.1l.1.1.4.7V5l-.1.1-.2.1Z" fill="#6bbe66"/><path d="M87.8,4.9c-.1,0-.1,0-.2-.1l-.4-1.3c0-.1,0-.2.1-.2l.1-.1h.2l.1.1.4,1.3v.1l-.1.1a.3491.3491,0,0,0-.2.1Z" fill="#6bbe66"/><path d="M89.4,2.6l.2,1.8v.1l-.1.1h-.2a.2151.2151,0,0,1-.2-.2l-.2-1.9.1-.1h.1A.7688.7688,0,0,1,89.4,2.6Z" fill="#6bbe66"/><path d="M90.6,4.9h-.1l-.1-.1V4.7l.4-1.3.1-.1h.2l.1.1c.1,0,.1.1.1.2l-.4,1.3c-.1-.1-.1,0-.3,0Z" fill="#6bbe66"/><path d="M92.2,5.2h0L92,5.1,91.9,5V4.9l.4-.7.1-.1h.1l.1.1c.1,0,.1.1.1.2l-.4.7Z" fill="#6bbe66"/></g></g><g id="roughgrass_bd-10" data-name="roughgrass_bd" style="isolation:isolate"><g id="RoughGrass_FC-10" data-name="RoughGrass_FC"><path d="M77.4,3.2v.1l-.1.1H77L76.7,3V2.9l.1-.1h.3Z" fill="#6bbe66"/><path d="M79.7,2.7h0a1.7265,1.7265,0,0,0-.4-.3c-.1-.2.1-.7.1-.7V1A1.432,1.432,0,0,1,79.7,2.7Z" fill="#6bbe66"/><path d="M79.7,2.7c.1.1.2.1.2.4h-.3A.7559.7559,0,0,1,79.7,2.7Z" fill="#6bbe66"/><path d="M81.8,1.8l-.5.5a2.1644,2.1644,0,0,0-.3.6v.2a.4829.4829,0,0,1-.4,0,2.18,2.18,0,0,0,.1-.6s0-1.1.5-1.2c0,0,.4-.2.1.1a1.67,1.67,0,0,0-.3.9C81.1,2.2,81.4,1.8,81.8,1.8Z" fill="#6bbe66"/><path d="M83.8,2.9V3l-.3.4c0,.1-.1.1-.2,0h-.1l-.1-.1V3.2l.3-.5c0-.1.1-.1.2,0l.2.2Z" fill="#6bbe66"/><path d="M78.4,2.4l.2.7v.1l-.1.1h-.1c-.1,0-.1,0-.2-.1L78,2.5V2.4l.1-.1h.1C78.3,2.2,78.4,2.3,78.4,2.4Z" fill="#6bbe66"/><path d="M82.4,2.3h.1l.1.1v.1l-.2.7c0,.1-.1.1-.2.1h-.1L82,3.2V3.1l.2-.7C82.2,2.3,82.3,2.2,82.4,2.3Z" fill="#6bbe66"/></g></g><g id="roughgrass_bd-11" data-name="roughgrass_bd" style="isolation:isolate"><g id="RoughGrass_FC-11" data-name="RoughGrass_FC"><path d="M70.8,46.3v.1l-.1.1h-.3l-.3-.5v-.1l.1-.1h.3Z" fill="#6bbe66"/><path d="M73.1,45.8h0a1.7265,1.7265,0,0,0-.4-.3c-.1-.2.1-.7.1-.7v-.7A1.432,1.432,0,0,1,73.1,45.8Z" fill="#6bbe66"/><path d="M73.1,45.8c.1.1.2.1.2.4H73A.7559.7559,0,0,1,73.1,45.8Z" fill="#6bbe66"/><path d="M75.2,44.9l-.5.5a2.1644,2.1644,0,0,0-.3.6v.2a.4829.4829,0,0,1-.4,0,2.18,2.18,0,0,0,.1-.6s0-1.1.5-1.2c0,0,.4-.2.1.1a1.67,1.67,0,0,0-.3.9C74.5,45.3,74.8,44.9,75.2,44.9Z" fill="#6bbe66"/><path d="M77.2,46v.1l-.3.4c0,.1-.1.1-.2,0h-.1l-.1-.1v-.1l.3-.5c0-.1.1-.1.2,0l.2.2Z" fill="#6bbe66"/><path d="M71.8,45.5l.2.7v.1l-.1.1h-.1c-.1,0-.1,0-.2-.1l-.2-.7v-.1l.1-.1h.1C71.7,45.3,71.8,45.4,71.8,45.5Z" fill="#6bbe66"/><path d="M75.8,45.4h.1l.1.1v.1l-.2.7c0,.1-.1.1-.2.1h-.1l-.1-.1v-.1l.2-.7C75.6,45.4,75.7,45.3,75.8,45.4Z" fill="#6bbe66"/></g></g><g id="heath_bd-12" data-name="heath_bd" style="isolation:isolate"><g id="Heath_FC-12" data-name="Heath_FC"><path d="M76.1,42.1c-.1,0-.1,0-.1-.1l-.4-.7v-.1a.0979.0979,0,0,1,.1-.1l.1-.1h.1l.1.1.4.7v.1l-.1.1-.2.1Z" fill="#6bbe66"/><path d="M77.6,41.8c-.1,0-.1,0-.2-.1L77,40.4c0-.1,0-.2.1-.2l.1-.1h.2l.1.1.4,1.3v.1l-.1.1c-.1.1-.1.1-.2.1Z" fill="#6bbe66"/><path d="M79.2,39.6l.2,1.8v.1l-.1.1h-.2a.2151.2151,0,0,1-.2-.2l-.2-1.9.1-.1.2-.1h.1C79.1,39.4,79.2,39.5,79.2,39.6Z" fill="#6bbe66"/><path d="M80.5,41.8h-.1l-.1-.1v-.1l.4-1.3.1-.1H81l.1.1c.1,0,.1.1.1.2l-.4,1.3Z" fill="#6bbe66"/><path d="M82,42.1h0l-.2-.1-.1-.1v-.1l.4-.7.1-.1h.1l.1.1c.1,0,.1.1.1.2l-.3.7C82.1,42.1,82.1,42.1,82,42.1Z" fill="#6bbe66"/></g></g><g id="heath_bd-13" data-name="heath_bd" style="isolation:isolate"><g id="Heath_FC-13" data-name="Heath_FC"><path d="M67.2,40.6c-.1,0-.1,0-.1-.1l-.4-.7v-.1a.0979.0979,0,0,1,.1-.1l.1-.1H67l.1.1.4.7v.1l-.1.1-.2.1Z" fill="#6bbe66"/><path d="M68.6,40.3c-.1,0-.1,0-.2-.1L68,38.9c0-.1,0-.2.1-.2l.1-.1h.2l.1.1L69,40v.1l-.1.1c-.1,0-.2.1-.3.1Z" fill="#6bbe66"/><path d="M70.2,38l.2,1.8v.1l-.1.1h-.2a.2151.2151,0,0,1-.2-.2l-.2-1.9.1-.1.2-.1h.1C70.2,37.9,70.2,37.9,70.2,38Z" fill="#6bbe66"/><path d="M71.5,40.3h-.1l-.1-.1v-.1l.4-1.3.1-.1H72l.1.1c.1,0,.1.1.1.2l-.4,1.3c-.1-.1-.1,0-.3,0Z" fill="#6bbe66"/><path d="M73.1,40.6h0l-.2-.1-.1-.1v-.1l.4-.7.1-.1h.1l.1.1c.1,0,.1.1.1.2l-.4.7Z" fill="#6bbe66"/></g></g><g id="roughgrass_bd-12" data-name="roughgrass_bd" style="isolation:isolate"><g id="RoughGrass_FC-12" data-name="RoughGrass_FC"><path d="M81.4,70.4v.1l-.1.1H81l-.3-.5V70l.1-.1h.3Z" fill="#6bbe66"/><path d="M83.8,69.9h0a1.7265,1.7265,0,0,0-.4-.3c-.1-.2.1-.7.1-.7v-.7A1.65,1.65,0,0,1,83.8,69.9Z" fill="#6bbe66"/><path d="M83.7,69.9c.1.1.2.1.2.4h-.3C83.6,70.1,83.7,70,83.7,69.9Z" fill="#6bbe66"/><path d="M85.9,69l-.5.5a2.1644,2.1644,0,0,0-.3.6v.2a.4829.4829,0,0,1-.4,0,2.18,2.18,0,0,0,.1-.6s0-1.1.5-1.2c0,0,.4-.2.1.1a1.67,1.67,0,0,0-.3.9A.8514.8514,0,0,1,85.9,69Z" fill="#6bbe66"/><path d="M87.9,70.1v.1l-.3.4c0,.1-.1.1-.2,0h-.1l-.1-.1v-.1l.3-.5c0-.1.1-.1.2,0l.2.2Z" fill="#6bbe66"/><path d="M82.4,69.5l.2.7v.1l-.1.1h-.1c-.1,0-.1,0-.2-.1l-.2-.7v-.1l.1-.1h.1A.3491.3491,0,0,1,82.4,69.5Z" fill="#6bbe66"/><path d="M86.4,69.4h.1l.1.1v.1l-.2.7c0,.1-.1.1-.2.1h-.1l-.1-.1v-.1l.2-.7A.3491.3491,0,0,0,86.4,69.4Z" fill="#6bbe66"/></g></g><g id="heath_bd-14" data-name="heath_bd" style="isolation:isolate"><g id="Heath_FC-14" data-name="Heath_FC"><path d="M86.8,66.2c-.1,0-.1,0-.1-.1l-.4-.7v-.1a.0979.0979,0,0,1,.1-.1l.1-.1h.1l.1.1.4.7V66l-.1.1-.2.1Z" fill="#6bbe66"/><path d="M88.3,65.9c-.1,0-.1,0-.2-.1l-.4-1.3c0-.1,0-.2.1-.2l.1-.1h.2l.1.1.4,1.3v.1l-.1.1c-.1.1-.1.1-.2.1Z" fill="#6bbe66"/><path d="M89.9,63.7l.2,1.8v.1l-.1.1h-.2a.2151.2151,0,0,1-.2-.2l-.2-1.9.1-.1.2-.1h.1C89.8,63.5,89.9,63.6,89.9,63.7Z" fill="#6bbe66"/><path d="M91.2,65.9h-.1l-.1-.1v-.1l.4-1.3.1-.1h.2l.1.1c.1,0,.1.1.1.2l-.4,1.3Z" fill="#6bbe66"/><path d="M92.7,66.2h0l-.2-.1-.1-.1v-.1l.4-.7.1-.1H93l.1.1c.1,0,.1.1.1.2l-.4.7A.0979.0979,0,0,1,92.7,66.2Z" fill="#6bbe66"/></g></g><g id="roughgrass_bd-13" data-name="roughgrass_bd" style="isolation:isolate"><g id="RoughGrass_FC-13" data-name="RoughGrass_FC"><path d="M77.9,64.3v.1l-.1.1h-.3l-.2-.5v-.1l.1-.1h.3Z" fill="#6bbe66"/><path d="M80.2,63.7h0a1.7265,1.7265,0,0,0-.4-.3c-.1-.2.1-.7.1-.7V62C80.7,63,80.2,63.7,80.2,63.7Z" fill="#6bbe66"/><path d="M80.2,63.8c.1.1.2.1.2.4h-.3C80.1,64,80.1,63.9,80.2,63.8Z" fill="#6bbe66"/><path d="M82.3,62.9l-.5.5a2.1644,2.1644,0,0,0-.3.6v.2a.4829.4829,0,0,1-.4,0,2.18,2.18,0,0,0,.1-.6s0-1.1.5-1.2c0,0,.4-.2.1.1a1.67,1.67,0,0,0-.3.9C81.6,63.3,81.9,62.8,82.3,62.9Z" fill="#6bbe66"/><path d="M84.3,63.9V64l-.3.5c0,.1-.1.1-.2,0h-.1l-.1-.1v-.1l.3-.5c0-.1.1-.1.2,0l.2.1Z" fill="#6bbe66"/><path d="M78.9,63.4l.2.7v.1l-.1.1h-.1c-.1,0-.1,0-.2-.1l-.2-.7v-.1l.1-.1h.1C78.8,63.3,78.9,63.3,78.9,63.4Z" fill="#6bbe66"/><path d="M82.9,63.3H83l.1.1v.1l-.2.7c0,.1-.1.1-.2.1h-.1l-.1-.1v-.1l.2-.7C82.7,63.3,82.8,63.3,82.9,63.3Z" fill="#6bbe66"/></g></g><g id="roughgrass_bd-14" data-name="roughgrass_bd" style="isolation:isolate"><g id="RoughGrass_FC-14" data-name="RoughGrass_FC"><path d="M55.1,91.9V92l-.1.1h-.3l-.3-.5v-.1l.1-.1h.3Z" fill="#6bbe66"/><path d="M57.4,91.3h0A1.8658,1.8658,0,0,1,57,91c-.1-.2.1-.7.1-.7v-.7C57.9,90.6,57.4,91.3,57.4,91.3Z" fill="#6bbe66"/><path d="M57.4,91.4c.1.1.2.1.2.4h-.3C57.3,91.6,57.3,91.5,57.4,91.4Z" fill="#6bbe66"/><path d="M59.5,90.5,59,91a2.1644,2.1644,0,0,0-.3.6v.2a.4829.4829,0,0,1-.4,0,2.18,2.18,0,0,0,.1-.6s0-1.1.5-1.2c0,0,.4-.2.1.1a1.67,1.67,0,0,0-.3.9C58.8,90.9,59.1,90.4,59.5,90.5Z" fill="#6bbe66"/><path d="M61.5,91.5v.1l-.3.4c0,.1-.1.1-.2,0h-.2v-.1l.3-.5c0-.1.1-.1.2,0l.2.1Z" fill="#6bbe66"/><path d="M56.1,91l.2.7v.1l-.1.1h-.1c-.1,0-.1,0-.2-.1l-.2-.7V91l.1-.1h.1C56,90.9,56,90.9,56.1,91Z" fill="#6bbe66"/><path d="M60.1,90.9h.1l.1.1v.1l-.3.7c0,.1-.1.1-.2.1h-.1l-.1-.1v-.1l.2-.7A.3674.3674,0,0,1,60.1,90.9Z" fill="#6bbe66"/></g></g><g id="heath_bd-15" data-name="heath_bd" style="isolation:isolate"><g id="Heath_FC-15" data-name="Heath_FC"><path d="M60.4,87.6c-.1,0-.1,0-.1-.1l-.4-.7v-.1a.0979.0979,0,0,1,.1-.1l.1-.1h.1l.1.1.4.7v.1l-.1.1-.2.1Z" fill="#6bbe66"/><path d="M61.9,87.4c-.1,0-.1,0-.2-.1L61.3,86c0-.1,0-.2.1-.2l.1-.1h.2l.1.1.4,1.3v.1l-.1.1c-.1,0-.1,0-.2.1Z" fill="#6bbe66"/><path d="M63.5,85.1l.2,1.8V87l-.1.1h-.2a.2151.2151,0,0,1-.2-.2L63,85.1V85l.2-.1h.1C63.4,85,63.5,85,63.5,85.1Z" fill="#6bbe66"/><path d="M64.8,87.4h-.1l-.1-.1v-.1l.4-1.3.1-.1h.2l.1.1c.1,0,.1.1.1.2L65,87.2a.2151.2151,0,0,1-.2.2Z" fill="#6bbe66"/><path d="M66.3,87.6h0l-.2-.1-.1-.1v-.1l.4-.7.1-.1h.1l.1.1c.1,0,.1.1.1.2l-.4.7C66.4,87.6,66.4,87.6,66.3,87.6Z" fill="#6bbe66"/></g></g><g id="roughgrass_bd-15" data-name="roughgrass_bd" style="isolation:isolate"><g id="RoughGrass_FC-15" data-name="RoughGrass_FC"><path d="M51.5,85.7v.1l-.1.1h-.3l-.3-.5v-.1l.1-.1h.3Z" fill="#6bbe66"/><path d="M53.8,85.2h0a1.7265,1.7265,0,0,0-.4-.3c-.1-.2.1-.7.1-.7v-.7A1.432,1.432,0,0,1,53.8,85.2Z" fill="#6bbe66"/><path d="M53.8,85.2c.1.1.2.1.2.4h-.3C53.7,85.5,53.8,85.3,53.8,85.2Z" fill="#6bbe66"/><path d="M56,84.3l-.5.5a2.1644,2.1644,0,0,0-.3.6v.2a.4829.4829,0,0,1-.4,0,2.18,2.18,0,0,0,.1-.6s0-1.1.5-1.2c0,0,.4-.2.1.1a1.67,1.67,0,0,0-.3.9A.8514.8514,0,0,1,56,84.3Z" fill="#6bbe66"/><path d="M58,85.4v.1l-.3.4c0,.1-.1.1-.2,0h-.1l-.1-.1v-.1l.3-.5c0-.1.1-.1.2,0l.2.2Z" fill="#6bbe66"/><path d="M52.5,84.8l.2.7v.1l-.1.1h-.1c-.1,0-.1,0-.2-.1l-.1-.6v-.1l.1-.1h.1C52.4,84.7,52.5,84.8,52.5,84.8Z" fill="#6bbe66"/><path d="M56.5,84.8h.1l.1.1V85l-.2.7c0,.1-.1.1-.2.1h-.1l-.1-.1v-.1l.2-.7C56.4,84.8,56.4,84.7,56.5,84.8Z" fill="#6bbe66"/></g></g><g id="roughgrass_bd-16" data-name="roughgrass_bd" style="isolation:isolate"><g id="RoughGrass_FC-16" data-name="RoughGrass_FC"><path d="M7,94.7v.1l-.1.1H6.6l-.3-.5v-.1l.1-.1h.3Z" fill="#6bbe66"/><path d="M9.3,94.2h0a1.7265,1.7265,0,0,0-.4-.3,1.1041,1.1041,0,0,1,.1-.7v-.7A1.65,1.65,0,0,1,9.3,94.2Z" fill="#6bbe66"/><path d="M9.3,94.2c.1.1.2.1.2.4H9.2C9.1,94.5,9.2,94.4,9.3,94.2Z" fill="#6bbe66"/><path d="M11.4,93.3l-.5.5a2.1644,2.1644,0,0,0-.3.6v.2a.4829.4829,0,0,1-.4,0,2.18,2.18,0,0,0,.1-.6s0-1.1.5-1.2c0,0,.4-.2.1.1a1.67,1.67,0,0,0-.3.9C10.7,93.7,11,93.3,11.4,93.3Z" fill="#6bbe66"/><path d="M13.4,94.4v.1l-.3.4c0,.1-.1.1-.2,0h-.1l-.1-.1v-.1l.3-.5c0-.1.1-.1.2,0l.2.2Z" fill="#6bbe66"/><path d="M8,93.9l.2.7v.1l-.1.1H8c-.1,0-.1,0-.2-.1L7.6,94v-.1l.1-.1h.1C7.9,93.7,7.9,93.8,8,93.9Z" fill="#6bbe66"/><path d="M12,93.8h.1l.1.1V94l-.2.7c0,.1-.1.1-.2.1h-.1l-.1-.1v-.1l.2-.7C11.8,93.8,11.9,93.7,12,93.8Z" fill="#6bbe66"/></g></g><g id="heath_bd-16" data-name="heath_bd" style="isolation:isolate"><g id="Heath_FC-16" data-name="Heath_FC"><path d="M12.3,90.5c-.1,0-.1,0-.1-.1l-.4-.7v-.1a.0979.0979,0,0,1,.1-.1l.1-.1h.1l.1.1.4.7v.1l-.1.1-.2.1Z" fill="#6bbe66"/><path d="M13.8,90.2c-.1,0-.1,0-.2-.1l-.4-1.3c0-.1,0-.2.1-.2l.1-.1h.1l.1.1.4,1.3v.3Z" fill="#6bbe66"/><path d="M15.4,88l.2,1.8v.1l-.2.1h-.2a.2151.2151,0,0,1-.2-.2L14.9,88l.1-.1.2-.1h.1A.3491.3491,0,0,1,15.4,88Z" fill="#6bbe66"/><path d="M16.7,90.2h-.1l-.1-.1V90l.4-1.3.1-.1h.3l.1.1c.1,0,.1.1.1.2l-.4,1.3Z" fill="#6bbe66"/><path d="M18.2,90.5h0l-.2-.1-.1-.1v-.1l.4-.7.1-.1h.1l.1.1c.1,0,.1.1.1.2l-.4.7C18.3,90.5,18.3,90.5,18.2,90.5Z" fill="#6bbe66"/></g></g><g id="roughgrass_bd-17" data-name="roughgrass_bd" style="isolation:isolate"><g id="RoughGrass_FC-17" data-name="RoughGrass_FC"><path d="M3.4,88.6v.1l-.1.1H3l-.3-.5v-.1l.1-.1h.3Z" fill="#6bbe66"/><path d="M5.7,88.1h0a1.7265,1.7265,0,0,0-.4-.3c-.1-.2.1-.7.1-.7v-.7A1.432,1.432,0,0,1,5.7,88.1Z" fill="#6bbe66"/><path d="M5.7,88.1c.1.1.2.1.2.4H5.6C5.6,88.3,5.6,88.2,5.7,88.1Z" fill="#6bbe66"/><path d="M7.9,87.2l-.5.5a2.1644,2.1644,0,0,0-.3.6v.2a.4829.4829,0,0,1-.4,0,2.18,2.18,0,0,0,.1-.6s0-1.1.5-1.2c0,0,.4-.2.1.1a1.67,1.67,0,0,0-.3.9A.8514.8514,0,0,1,7.9,87.2Z" fill="#6bbe66"/><path d="M9.9,88.2v.1l-.3.4c0,.1-.1.1-.2,0H9.3l-.1-.1v-.1l.3-.5c0-.1.1-.1.2,0l.2.2Z" fill="#6bbe66"/><path d="M4.4,87.7l.2.7v.1l-.1.1H4.4c-.1,0-.1,0-.2-.1L4,87.9v-.1l.1-.1h.1C4.3,87.6,4.4,87.6,4.4,87.7Z" fill="#6bbe66"/><path d="M8.4,87.6h.1l.1.1v.1l-.2.7c0,.1-.1.1-.2.1H8.1L8,88.5v-.1l.2-.7C8.3,87.6,8.3,87.6,8.4,87.6Z" fill="#6bbe66"/></g></g></svg>