<svg id="Layer_1" data-name="Layer 1" xmlns="http://www.w3.org/2000/svg" width="33.8667mm" height="33.8667mm" viewBox="0 0 96 96"><g id="nonconiferoustree_bd"><g id="NonConiferousTree_FC"><g id="Deleted_Symbol_2" data-name="Deleted Symbol 2"><path d="M18.6,77.5a1.11,1.11,0,0,1-1.1,1.1,1.4213,1.4213,0,0,1-.6-.2.752.752,0,0,1-.7.5,3.7463,3.7463,0,0,0,.1.8h0c0,.1-.1.1-.1.2a.3674.3674,0,0,1-.3.1h-.2c-.1,0-.1-.1-.1-.2V79a2.092,2.092,0,0,1-.6-.4,1.1355,1.1355,0,0,1-.8.3,1.11,1.11,0,0,1-1.1-1.1,1.05,1.05,0,0,1,.5-.9v-.3a.9738.9738,0,0,1,.8-1v-.1a1.0324,1.0324,0,0,1,1.1-1.1,1.0879,1.0879,0,0,1,1.1.9h.1a1.11,1.11,0,0,1,1.1,1.1v.2A.8168.8168,0,0,1,18.6,77.5Zm-.4,0a.8579.8579,0,0,0-.6-.7h-.2v-.2c0-.1.1-.2.1-.3a.7133.7133,0,0,0-.8-.7h-.2l-.2.1h-.1v-.4a.7.7,0,1,0-1.4,0v.2h0v.3h-.3a.6611.6611,0,0,0-.6.7.3674.3674,0,0,0,.1.3h0l.1.1V77h-.2a.752.752,0,0,0-.5.7.6835.6835,0,0,0,.7.7.5483.5483,0,0,0,.6-.4.31.31,0,0,1,.1-.2v0l.1.2h0a.7385.7385,0,0,0,.6.5.752.752,0,0,0,.7-.5h0l.1-.2v-.1l.1.1.2.2a.7638.7638,0,0,0,.5.2C17.9,78.2,18.2,77.9,18.2,77.5Z" fill="#a9cda6"/></g></g></g><g id="nonconiferoustree_bd-2" data-name="nonconiferoustree_bd" style="isolation:isolate"><g id="NonConiferousTree_FC-2" data-name="NonConiferousTree_FC"><g id="Deleted_Symbol_2-2" data-name="Deleted Symbol 2"><path d="M23.8,73a1.11,1.11,0,0,1-1.1,1.1,1.4213,1.4213,0,0,1-.6-.2.752.752,0,0,1-.7.5,3.7463,3.7463,0,0,0,.1.8h0c0,.1-.1.1-.1.2-.1,0-.1.1-.2.1H21c-.1,0-.1-.1-.1-.2v-.8a2.092,2.092,0,0,1-.6-.4,1.1355,1.1355,0,0,1-.8.3,1.11,1.11,0,0,1-1.1-1.1,1.05,1.05,0,0,1,.5-.9v-.3a.9738.9738,0,0,1,.8-1V71a1.0324,1.0324,0,0,1,1.1-1.1,1.0879,1.0879,0,0,1,1.1.9H22a1.11,1.11,0,0,1,1.1,1.1v.2A.9605.9605,0,0,1,23.8,73Zm-.4,0a.8579.8579,0,0,0-.6-.7h-.2v-.2c0-.1.1-.2.1-.3a.7133.7133,0,0,0-.8-.7h-.2l-.2.1h-.1v-.4a.7.7,0,1,0-1.4,0V71h0v.3h-.2a.6611.6611,0,0,0-.6.7.3674.3674,0,0,0,.1.3h0l.1.1v.1h-.2a.752.752,0,0,0-.5.7.6835.6835,0,0,0,.7.7.5483.5483,0,0,0,.6-.4.31.31,0,0,1,.1-.2v0l.1.2h0a.7385.7385,0,0,0,.6.5.752.752,0,0,0,.7-.5h0l.1-.2v-.1l.1.1.2.2a.7638.7638,0,0,0,.5.2C23.1,73.8,23.4,73.5,23.4,73Z" fill="#a9cda6"/></g></g></g><g id="nonconiferoustree_bd-3" data-name="nonconiferoustree_bd" style="isolation:isolate"><g id="NonConiferousTree_FC-3" data-name="NonConiferousTree_FC"><g id="Deleted_Symbol_2-3" data-name="Deleted Symbol 2"><path d="M15.1,71.5A1.11,1.11,0,0,1,14,72.6a1.4213,1.4213,0,0,1-.6-.2.752.752,0,0,1-.7.5,3.7463,3.7463,0,0,0,.1.8h0c0,.1-.1.1-.1.2-.1,0-.1.1-.2.1h-.2c-.1,0-.1-.1-.1-.2V73a2.092,2.092,0,0,1-.6-.4,1.1355,1.1355,0,0,1-.8.3,1.11,1.11,0,0,1-1.1-1.1,1.05,1.05,0,0,1,.5-.9v-.3a.9738.9738,0,0,1,.8-1v-.1a1.0324,1.0324,0,0,1,1.1-1.1,1.0879,1.0879,0,0,1,1.1.9h.1a1.11,1.11,0,0,1,1.1,1.1v.2A.9605.9605,0,0,1,15.1,71.5Zm-.3,0a.8579.8579,0,0,0-.6-.7H14v-.2c0-.1.1-.2.1-.3a.7133.7133,0,0,0-.8-.7h-.2l-.2.1h-.1v-.4a.7.7,0,1,0-1.4,0v.2h0v.3h-.3a.6611.6611,0,0,0-.6.7.3674.3674,0,0,0,.1.3h0l.1.1V71h-.2a.752.752,0,0,0-.5.7.6835.6835,0,0,0,.7.7.5483.5483,0,0,0,.6-.4.31.31,0,0,1,.1-.2v0l.1.2h0a.7385.7385,0,0,0,.6.5.752.752,0,0,0,.7-.5h0l.1-.2v-.1l.1.1.2.2a.7638.7638,0,0,0,.5.2C14.4,72.3,14.8,72,14.8,71.5Z" fill="#a9cda6"/></g></g></g><g id="nonconiferoustree_bd-4" data-name="nonconiferoustree_bd" style="isolation:isolate"><g id="NonConiferousTree_FC-4" data-name="NonConiferousTree_FC"><g id="Deleted_Symbol_2-4" data-name="Deleted Symbol 2"><path d="M54,67.2a1.11,1.11,0,0,1-1.1,1.1,1.4213,1.4213,0,0,1-.6-.2.752.752,0,0,1-.7.5,3.7463,3.7463,0,0,0,.1.8h0c0,.1,0,.1-.1.2-.1,0-.1.1-.2.1h-.2c-.1,0-.1-.1-.1-.2v-.8a2.092,2.092,0,0,1-.6-.4,1.1355,1.1355,0,0,1-.8.3,1.11,1.11,0,0,1-1.1-1.1,1.05,1.05,0,0,1,.5-.9v-.3a.9738.9738,0,0,1,.8-1v-.1A1.0324,1.0324,0,0,1,51,64.1a1.0879,1.0879,0,0,1,1.1.9h.1a1.11,1.11,0,0,1,1.1,1.1v.2A.8079.8079,0,0,1,54,67.2Zm-.4,0a.8579.8579,0,0,0-.6-.7h-.1v-.2c0-.1.1-.2.1-.3a.7133.7133,0,0,0-.8-.7H52l-.2.1h-.1V65a.7.7,0,0,0-1.4,0v.2h0v.3H50a.6611.6611,0,0,0-.6.7.3674.3674,0,0,0,.1.3h0l.1.1v.1h-.2a.752.752,0,0,0-.5.7.6835.6835,0,0,0,.7.7.5483.5483,0,0,0,.6-.4.31.31,0,0,1,.1-.2v0l.1.2h0a.7385.7385,0,0,0,.6.5.752.752,0,0,0,.7-.5h0l.1-.2v-.1l.1.1.2.2a.7638.7638,0,0,0,.5.2C53.3,67.9,53.6,67.6,53.6,67.2Z" fill="#a9cda6"/></g></g></g><g id="nonconiferoustree_bd-5" data-name="nonconiferoustree_bd" style="isolation:isolate"><g id="NonConiferousTree_FC-5" data-name="NonConiferousTree_FC"><g id="Deleted_Symbol_2-5" data-name="Deleted Symbol 2"><path d="M59.2,62.7a1.11,1.11,0,0,1-1.1,1.1,1.4213,1.4213,0,0,1-.6-.2.752.752,0,0,1-.7.5,3.7463,3.7463,0,0,0,.1.8h0c0,.1,0,.1-.1.2-.1,0-.1.1-.2.1h-.2c-.1,0-.1-.1-.1-.2v-.8a2.092,2.092,0,0,1-.6-.4,1.1355,1.1355,0,0,1-.8.3A1.11,1.11,0,0,1,53.8,63a1.05,1.05,0,0,1,.5-.9v-.3a.9738.9738,0,0,1,.8-1v-.1a1.0324,1.0324,0,0,1,1.1-1.1,1.0879,1.0879,0,0,1,1.1.9h.1a1.11,1.11,0,0,1,1.1,1.1v.2A.9605.9605,0,0,1,59.2,62.7Zm-.3,0a.8579.8579,0,0,0-.6-.7h-.1v-.2c0-.1.1-.2.1-.3a.7133.7133,0,0,0-.8-.7h-.2l-.2.1H57v-.4a.7.7,0,0,0-1.4,0v.2h0V61h-.3a.6611.6611,0,0,0-.6.7.3674.3674,0,0,0,.1.3h0l.1.1v.1h-.2a.752.752,0,0,0-.5.7.6835.6835,0,0,0,.7.7.5483.5483,0,0,0,.6-.4.31.31,0,0,1,.1-.2v0l.1.2h0a.7385.7385,0,0,0,.6.5.752.752,0,0,0,.7-.5h0l.1-.2v-.1l.1.1.2.2a.7638.7638,0,0,0,.5.2C58.5,63.5,58.9,63.2,58.9,62.7Z" fill="#a9cda6"/></g></g></g><g id="nonconiferoustree_bd-6" data-name="nonconiferoustree_bd" style="isolation:isolate"><g id="NonConiferousTree_FC-6" data-name="NonConiferousTree_FC"><g id="Deleted_Symbol_2-6" data-name="Deleted Symbol 2"><path d="M50.6,61.3a1.11,1.11,0,0,1-1.1,1.1,1.4213,1.4213,0,0,1-.6-.2.752.752,0,0,1-.7.5,3.7463,3.7463,0,0,0,.1.8h0c0,.1-.1.1-.1.2-.1,0-.1.1-.2.1h-.2c-.1,0-.1-.1-.1-.2v-.8a2.092,2.092,0,0,1-.6-.4,1.1355,1.1355,0,0,1-.8.3,1.11,1.11,0,0,1-1.1-1.1,1.05,1.05,0,0,1,.5-.9v-.3a.9738.9738,0,0,1,.8-1v-.1a1.0324,1.0324,0,0,1,1.1-1.1,1.0879,1.0879,0,0,1,1.1.9h.1a1.11,1.11,0,0,1,1.1,1.1v.2A.8079.8079,0,0,1,50.6,61.3Zm-.4,0a.8579.8579,0,0,0-.6-.7h-.1v-.2c0-.1.1-.2.1-.3a.7133.7133,0,0,0-.8-.7h-.2l-.2.1h-.1v-.4a.7.7,0,0,0-1.4,0v.2h0v.3h-.3a.6611.6611,0,0,0-.6.7.3674.3674,0,0,0,.1.3h0l.1.1v.1H46a.752.752,0,0,0-.5.7.6835.6835,0,0,0,.7.7.5483.5483,0,0,0,.6-.4.31.31,0,0,1,.1-.2v0l.1.2h0a.7385.7385,0,0,0,.6.5.752.752,0,0,0,.7-.5h0l.1-.2v-.1l.1.1.2.2a.7638.7638,0,0,0,.5.2C49.9,62,50.2,61.7,50.2,61.3Z" fill="#a9cda6"/></g></g></g><g id="nonconiferoustree_bd-7" data-name="nonconiferoustree_bd" style="isolation:isolate"><g id="NonConiferousTree_FC-7" data-name="NonConiferousTree_FC"><g id="Deleted_Symbol_2-7" data-name="Deleted Symbol 2"><path d="M14.2,50.2a1.11,1.11,0,0,1-1.1,1.1,1.4213,1.4213,0,0,1-.6-.2.752.752,0,0,1-.7.5,3.7463,3.7463,0,0,0,.1.8h0c0,.1-.1.1-.1.2-.1,0-.1.1-.2.1h-.2c-.1,0-.1-.1-.1-.2v-.8a2.092,2.092,0,0,1-.6-.4,1.1355,1.1355,0,0,1-.8.3,1.11,1.11,0,0,1-1.1-1.1,1.05,1.05,0,0,1,.5-.9v-.3a.9738.9738,0,0,1,.8-1v-.1a1.0324,1.0324,0,0,1,1.1-1.1,1.0879,1.0879,0,0,1,1.1.9h.1a1.11,1.11,0,0,1,1.1,1.1v.2A.9605.9605,0,0,1,14.2,50.2Zm-.3,0a.8579.8579,0,0,0-.6-.7h-.2v-.2c0-.1.1-.2.1-.3a.7133.7133,0,0,0-.8-.7h-.2l-.2.1h-.1V48a.7.7,0,1,0-1.4,0v.2h0v.3h-.3a.6611.6611,0,0,0-.6.7.3674.3674,0,0,0,.1.3h0l.1.1v.1H9.6a.752.752,0,0,0-.5.7.6835.6835,0,0,0,.7.7.5483.5483,0,0,0,.6-.4.31.31,0,0,1,.1-.2v0l.1.2h0a.7385.7385,0,0,0,.6.5.752.752,0,0,0,.7-.5h0l.1-.2v-.1l.1.1.2.2a.7638.7638,0,0,0,.5.2C13.5,51,13.9,50.7,13.9,50.2Z" fill="#a9cda6"/></g></g></g><g id="nonconiferoustree_bd-8" data-name="nonconiferoustree_bd" style="isolation:isolate"><g id="NonConiferousTree_FC-8" data-name="NonConiferousTree_FC"><g id="Deleted_Symbol_2-8" data-name="Deleted Symbol 2"><path d="M19.5,45.8a1.11,1.11,0,0,1-1.1,1.1,1.4213,1.4213,0,0,1-.6-.2.752.752,0,0,1-.7.5,3.7463,3.7463,0,0,0,.1.8h0c0,.1-.1.1-.1.2-.1,0-.1.1-.2.1h-.2c-.1,0-.1-.1-.1-.2v-.8a2.092,2.092,0,0,1-.6-.4,1.1355,1.1355,0,0,1-.8.3,1.11,1.11,0,0,1-1.1-1.1,1.05,1.05,0,0,1,.5-.9v-.3a.9738.9738,0,0,1,.8-1v-.1a1.0324,1.0324,0,0,1,1.1-1.1,1.0879,1.0879,0,0,1,1.1.9h.1a1.11,1.11,0,0,1,1.1,1.1v.2A.876.876,0,0,1,19.5,45.8Zm-.4,0a.8579.8579,0,0,0-.6-.7h-.2v-.2c0-.1.1-.2.1-.3a.7133.7133,0,0,0-.8-.7h-.2l-.2.1h-.1v-.4a.7.7,0,0,0-1.4,0v.2h0v.3h-.3a.6611.6611,0,0,0-.6.7.3674.3674,0,0,0,.1.3h0l.1.1v.1h-.2a.752.752,0,0,0-.5.7.6835.6835,0,0,0,.7.7.5483.5483,0,0,0,.6-.4.31.31,0,0,1,.1-.2v0l.1.2h0a.7385.7385,0,0,0,.6.5.752.752,0,0,0,.7-.5h0l.1-.2V46l.1.1.2.2a.7638.7638,0,0,0,.5.2C18.8,46.5,19.1,46.2,19.1,45.8Z" fill="#a9cda6"/></g></g></g><g id="nonconiferoustree_bd-9" data-name="nonconiferoustree_bd" style="isolation:isolate"><g id="NonConiferousTree_FC-9" data-name="NonConiferousTree_FC"><g id="Deleted_Symbol_2-9" data-name="Deleted Symbol 2"><path d="M10.8,44.3a1.11,1.11,0,0,1-1.1,1.1,1.4213,1.4213,0,0,1-.6-.2.752.752,0,0,1-.7.5,3.7463,3.7463,0,0,0,.1.8h0c0,.1-.1.1-.1.2-.1,0-.1.1-.2.1H8c-.1,0-.1-.1-.1-.2v-.8a2.092,2.092,0,0,1-.6-.4,1.1355,1.1355,0,0,1-.8.3,1.11,1.11,0,0,1-1.1-1.1,1.05,1.05,0,0,1,.5-.9v-.3a.9738.9738,0,0,1,.8-1v-.1a1.0324,1.0324,0,0,1,1.1-1.1,1.0879,1.0879,0,0,1,1.1.9A.0979.0979,0,0,1,9,42a1.11,1.11,0,0,1,1.1,1.1v.2A1.2041,1.2041,0,0,1,10.8,44.3Zm-.4,0a.8579.8579,0,0,0-.6-.7H9.6v-.2c0-.1.1-.2.1-.3a.7133.7133,0,0,0-.8-.7H8.7l-.2.1H8.4v-.4a.7.7,0,1,0-1.4,0v.2H7v.3H6.9a.6611.6611,0,0,0-.6.7.3674.3674,0,0,0,.1.3h0l.1.1v.1H6.3a1.02,1.02,0,0,0-.5.8.6835.6835,0,0,0,.7.7.5483.5483,0,0,0,.6-.4.31.31,0,0,1,.1-.2v0l.1.2h0a.7385.7385,0,0,0,.6.5.752.752,0,0,0,.7-.5h0l.1-.2v-.1l.3.1.2.2a.7638.7638,0,0,0,.5.2A.7728.7728,0,0,0,10.4,44.3Z" fill="#a9cda6"/></g></g></g><g id="nonconiferoustree_bd-10" data-name="nonconiferoustree_bd" style="isolation:isolate"><g id="NonConiferousTree_FC-10" data-name="NonConiferousTree_FC"><g id="Deleted_Symbol_2-10" data-name="Deleted Symbol 2"><path d="M22.8,29.9A1.11,1.11,0,0,1,21.7,31a1.4213,1.4213,0,0,1-.6-.2.752.752,0,0,1-.7.5,3.7463,3.7463,0,0,0,.1.8h0c0,.1-.1.1-.1.2-.1,0-.1.1-.2.1H20c-.1,0-.1-.1-.1-.2v-.8a2.092,2.092,0,0,1-.6-.4,1.1355,1.1355,0,0,1-.8.3,1.11,1.11,0,0,1-1.1-1.1,1.05,1.05,0,0,1,.5-.9V29a.9738.9738,0,0,1,.8-1v-.1a1.0324,1.0324,0,0,1,1.1-1.1,1.0879,1.0879,0,0,1,1.1.9H21a1.11,1.11,0,0,1,1.1,1.1V29A.9605.9605,0,0,1,22.8,29.9Zm-.4,0a.8579.8579,0,0,0-.6-.7h-.2V29c0-.1.1-.2.1-.3a.7133.7133,0,0,0-.8-.7h-.2l-.2.1h-.1v-.4a.7.7,0,0,0-1.4,0v.2h0v.3h-.3a.6611.6611,0,0,0-.6.7.3674.3674,0,0,0,.1.3h0l.1.1v.1h-.2a.752.752,0,0,0-.5.7.6835.6835,0,0,0,.7.7.5483.5483,0,0,0,.6-.4.31.31,0,0,1,.1-.2v0l.1.2h0a.7385.7385,0,0,0,.6.5.752.752,0,0,0,.7-.5h0l.1-.2v-.1l.1.1.2.2a.7638.7638,0,0,0,.5.2C22.1,30.7,22.4,30.3,22.4,29.9Z" fill="#a9cda6"/></g></g></g><g id="nonconiferoustree_bd-11" data-name="nonconiferoustree_bd" style="isolation:isolate"><g id="NonConiferousTree_FC-11" data-name="NonConiferousTree_FC"><g id="Deleted_Symbol_2-11" data-name="Deleted Symbol 2"><path d="M28,25.5a1.11,1.11,0,0,1-1.1,1.1,1.4213,1.4213,0,0,1-.6-.2.752.752,0,0,1-.7.5,3.7463,3.7463,0,0,0,.1.8h0c0,.1-.1.1-.1.2-.1,0-.1.1-.2.1h-.2c-.1,0-.1-.1-.1-.2V27a2.092,2.092,0,0,1-.6-.4,1.1355,1.1355,0,0,1-.8.3,1.11,1.11,0,0,1-1.1-1.1,1.05,1.05,0,0,1,.5-.9v-.3a.9738.9738,0,0,1,.8-1v-.1A1.0324,1.0324,0,0,1,25,22.4a1.0879,1.0879,0,0,1,1.1.9h.1a1.11,1.11,0,0,1,1.1,1.1v.2A.8079.8079,0,0,1,28,25.5Zm-.4,0a.8579.8579,0,0,0-.6-.7h-.2v-.2c0-.1.1-.2.1-.3a.7133.7133,0,0,0-.8-.7h-.2l-.2.1h-.1v-.4a.7.7,0,1,0-1.4,0v.2h0v.3h-.3a.6611.6611,0,0,0-.6.7.3674.3674,0,0,0,.1.3h0l.1.1V25h-.2a.752.752,0,0,0-.5.7.6835.6835,0,0,0,.7.7.5483.5483,0,0,0,.6-.4.31.31,0,0,1,.1-.2v0l.1.2h0a.7385.7385,0,0,0,.6.5.752.752,0,0,0,.7-.5h0l.1-.2v-.1l.1.1.2.2a.7638.7638,0,0,0,.5.2C27.3,26.2,27.6,25.9,27.6,25.5Z" fill="#a9cda6"/></g></g></g><g id="nonconiferoustree_bd-12" data-name="nonconiferoustree_bd" style="isolation:isolate"><g id="NonConiferousTree_FC-12" data-name="NonConiferousTree_FC"><g id="Deleted_Symbol_2-12" data-name="Deleted Symbol 2"><path d="M19.4,24a1.11,1.11,0,0,1-1.1,1.1,1.4213,1.4213,0,0,1-.6-.2.752.752,0,0,1-.7.5,3.7463,3.7463,0,0,0,.1.8h0c0,.1-.1.1-.1.2-.1,0-.1.1-.2.1h-.2c-.1,0-.1-.1-.1-.2v-.8a2.092,2.092,0,0,1-.6-.4,1.1355,1.1355,0,0,1-.8.3A1.11,1.11,0,0,1,14,24.3a1.05,1.05,0,0,1,.5-.9v-.3a.9738.9738,0,0,1,.8-1V22a1.0324,1.0324,0,0,1,1.1-1.1,1.0879,1.0879,0,0,1,1.1.9h.1a1.11,1.11,0,0,1,1.1,1.1v.2A.876.876,0,0,1,19.4,24ZM19,24a.8579.8579,0,0,0-.6-.7h-.2v-.2c0-.1.1-.2.1-.3a.7133.7133,0,0,0-.8-.7h-.2l-.2.1H17v-.4a.7.7,0,0,0-1.4,0V22h0v.3h-.3a.6611.6611,0,0,0-.6.7.3674.3674,0,0,0,.1.3h0l.1.1v.1h-.2a.752.752,0,0,0-.5.7.6835.6835,0,0,0,.7.7.5483.5483,0,0,0,.6-.4.31.31,0,0,1,.1-.2v0l.1.2h0a.7385.7385,0,0,0,.6.5.752.752,0,0,0,.7-.5h0l.1-.2v-.1l.1.1.2.2a.7638.7638,0,0,0,.5.2C18.7,24.7,19,24.4,19,24Z" fill="#a9cda6"/></g></g></g><g id="nonconiferoustree_bd-13" data-name="nonconiferoustree_bd" style="isolation:isolate"><g id="NonConiferousTree_FC-13" data-name="NonConiferousTree_FC"><g id="Deleted_Symbol_2-13" data-name="Deleted Symbol 2"><path d="M52.6,10.8a1.11,1.11,0,0,1-1.1,1.1,1.4213,1.4213,0,0,1-.6-.2.752.752,0,0,1-.7.5,3.7463,3.7463,0,0,0,.1.8h0c0,.1,0,.1-.1.2-.1,0-.1.1-.2.1h-.2c-.1,0-.1-.1-.1-.2v-.8a2.092,2.092,0,0,1-.6-.4,1.1355,1.1355,0,0,1-.8.3,1.11,1.11,0,0,1-1.1-1.1,1.05,1.05,0,0,1,.5-.9V9.9a.9738.9738,0,0,1,.8-1V8.8a1.0324,1.0324,0,0,1,1.1-1.1,1.0879,1.0879,0,0,1,1.1.9h.1a1.11,1.11,0,0,1,1.1,1.1v.2A.9605.9605,0,0,1,52.6,10.8Zm-.3,0a.8579.8579,0,0,0-.6-.7h-.1V9.9c0-.1.1-.2.1-.3a.7133.7133,0,0,0-.8-.7h-.2l-.2.1h-.1V8.7h0a.8485.8485,0,0,0-.8-.7.6835.6835,0,0,0-.7.7v.2h0v.3h-.3a.6611.6611,0,0,0-.6.7.3674.3674,0,0,0,.1.3h0l.1.1v.1H48a.752.752,0,0,0-.5.7.6835.6835,0,0,0,.7.7.5483.5483,0,0,0,.6-.4.31.31,0,0,1,.1-.2v0l.1.2h0a.7385.7385,0,0,0,.6.5.752.752,0,0,0,.7-.5h0l.1-.2v-.1l.1.1.2.2a.7638.7638,0,0,0,.5.2C51.9,11.6,52.3,11.3,52.3,10.8Z" fill="#a9cda6"/></g></g></g><g id="nonconiferoustree_bd-14" data-name="nonconiferoustree_bd" style="isolation:isolate"><g id="NonConiferousTree_FC-14" data-name="NonConiferousTree_FC"><g id="Deleted_Symbol_2-14" data-name="Deleted Symbol 2"><path d="M57.8,6.4a1.11,1.11,0,0,1-1.1,1.1,1.4213,1.4213,0,0,1-.6-.2.752.752,0,0,1-.7.5,3.7463,3.7463,0,0,0,.1.8h0c0,.1,0,.1-.1.2-.1,0-.1.1-.2.1H55c-.1,0-.1-.1-.1-.2V7.9a2.092,2.092,0,0,1-.6-.4,1.1355,1.1355,0,0,1-.8.3,1.11,1.11,0,0,1-1.1-1.1,1.05,1.05,0,0,1,.5-.9V5.5a.9738.9738,0,0,1,.8-1V4.4a1.1355,1.1355,0,0,1,.3-.8,1.1355,1.1355,0,0,1,.8-.3,1.0879,1.0879,0,0,1,1.1.9H56a1.11,1.11,0,0,1,1.1,1.1v.2A.876.876,0,0,1,57.8,6.4Zm-.3,0a.8579.8579,0,0,0-.6-.7h-.1V5.5c0-.1.1-.2.1-.3a.7133.7133,0,0,0-.8-.7h-.2l-.2.1h-.1V4.2a.7.7,0,1,0-1.4,0v.2h0v.3h-.3a.6611.6611,0,0,0-.6.7.3674.3674,0,0,0,.1.3h0l.1.1v.1h-.2a.752.752,0,0,0-.5.7.6835.6835,0,0,0,.7.7.5483.5483,0,0,0,.6-.4.31.31,0,0,1,.1-.2v0l.1.2h0a.7385.7385,0,0,0,.6.5.752.752,0,0,0,.7-.5h0l.1-.2V6.6l.3.1.2.2a.7638.7638,0,0,0,.5.2A.7728.7728,0,0,0,57.5,6.4Z" fill="#a9cda6"/></g></g></g><g id="nonconiferoustree_bd-15" data-name="nonconiferoustree_bd" style="isolation:isolate"><g id="NonConiferousTree_FC-15" data-name="NonConiferousTree_FC"><g id="Deleted_Symbol_2-15" data-name="Deleted Symbol 2"><path d="M49.2,4.9A1.11,1.11,0,0,1,48.1,6a1.4213,1.4213,0,0,1-.6-.2.752.752,0,0,1-.7.5,3.7463,3.7463,0,0,0,.1.8h0c0,.1-.1.1-.1.2-.1,0-.1.1-.2.1h-.2c-.1,0-.1-.1-.1-.2V6.4a2.092,2.092,0,0,1-.6-.4,1.1355,1.1355,0,0,1-.8.3,1.11,1.11,0,0,1-1.1-1.1,1.05,1.05,0,0,1,.5-.9V4a.9738.9738,0,0,1,.8-1V2.9a1.1355,1.1355,0,0,1,.3-.8,1.1355,1.1355,0,0,1,.8-.3,1.0879,1.0879,0,0,1,1.1.9h.1a1.11,1.11,0,0,1,1.1,1.1V4A.876.876,0,0,1,49.2,4.9Zm-.4,0a.8579.8579,0,0,0-.6-.7H48V4c0-.1.1-.2.1-.3a.7133.7133,0,0,0-.8-.7h-.2l-.2.1h-.1V2.8h0a.7.7,0,0,0-1.4,0V3h0v.3h-.3a.6611.6611,0,0,0-.6.7.3674.3674,0,0,0,.1.3h0l.1.1v.1h-.2a.752.752,0,0,0-.5.7.6835.6835,0,0,0,.7.7.5483.5483,0,0,0,.6-.4.31.31,0,0,1,.1-.2v0l.1.2h0a2.5027,2.5027,0,0,0,1.1.5.752.752,0,0,0,.7-.5h0l.1-.2V5.2l.1.1.2.2a.7638.7638,0,0,0,.5.2C48.5,5.7,48.8,5.3,48.8,4.9Z" fill="#a9cda6"/></g></g></g><g id="nonconiferoustree_bd-16" data-name="nonconiferoustree_bd" style="isolation:isolate"><g id="NonConiferousTree_FC-16" data-name="NonConiferousTree_FC"><g id="Deleted_Symbol_2-16" data-name="Deleted Symbol 2"><path d="M74.5,26.5a1.11,1.11,0,0,1-1.1,1.1,1.4213,1.4213,0,0,1-.6-.2.752.752,0,0,1-.7.5,3.7463,3.7463,0,0,0,.1.8h0c0,.1,0,.1-.1.2-.1,0-.1.1-.2.1h-.2c-.1,0-.1-.1-.1-.2V28a2.092,2.092,0,0,1-.6-.4,1.1355,1.1355,0,0,1-.8.3,1.11,1.11,0,0,1-1.1-1.1,1.05,1.05,0,0,1,.5-.9v-.3a.9738.9738,0,0,1,.8-1v-.1a1.0324,1.0324,0,0,1,1.1-1.1,1.0879,1.0879,0,0,1,1.1.9h.1a1.11,1.11,0,0,1,1.1,1.1v.2A.9605.9605,0,0,1,74.5,26.5Zm-.4,0a.8579.8579,0,0,0-.6-.7h-.1v-.2c0-.1.1-.2.1-.3a.7133.7133,0,0,0-.8-.7h-.2l-.2.1h-.1v-.4a.7.7,0,0,0-1.4,0v.2h0v.3h-.3a.6611.6611,0,0,0-.6.7.3674.3674,0,0,0,.1.3h0l.1.1V26h-.2a.752.752,0,0,0-.5.7.6835.6835,0,0,0,.7.7.5483.5483,0,0,0,.6-.4.31.31,0,0,1,.1-.2v0l.1.2h0a.7385.7385,0,0,0,.6.5.752.752,0,0,0,.7-.5h0l.1-.2v-.1l.1.1.2.2a.7638.7638,0,0,0,.5.2C73.8,27.3,74.1,27,74.1,26.5Z" fill="#a9cda6"/></g></g></g><g id="nonconiferoustree_bd-17" data-name="nonconiferoustree_bd" style="isolation:isolate"><g id="NonConiferousTree_FC-17" data-name="NonConiferousTree_FC"><g id="Deleted_Symbol_2-17" data-name="Deleted Symbol 2"><path d="M79.7,22.1a1.11,1.11,0,0,1-1.1,1.1A1.4213,1.4213,0,0,1,78,23a.752.752,0,0,1-.7.5,3.7463,3.7463,0,0,0,.1.8h0c0,.1,0,.1-.1.2-.1,0-.1.1-.2.1h-.2c-.1,0-.1-.1-.1-.2v-.8a2.092,2.092,0,0,1-.6-.4,1.1355,1.1355,0,0,1-.8.3,1.11,1.11,0,0,1-1.1-1.1,1.05,1.05,0,0,1,.5-.9v-.3a.9738.9738,0,0,1,.8-1v-.1A1.0324,1.0324,0,0,1,76.7,19a1.0879,1.0879,0,0,1,1.1.9h.1A1.11,1.11,0,0,1,79,21v.2A.876.876,0,0,1,79.7,22.1Zm-.4,0a.8579.8579,0,0,0-.6-.7h-.1v-.2c0-.1.1-.2.1-.3a.7133.7133,0,0,0-.8-.7h-.2l-.2.1h-.1v-.4a.7.7,0,0,0-1.4,0v.2h0v.3h-.3a.6611.6611,0,0,0-.6.7.3674.3674,0,0,0,.1.3h0l.1.1v.1h-.2a.752.752,0,0,0-.5.7.6835.6835,0,0,0,.7.7.5483.5483,0,0,0,.6-.4.31.31,0,0,1,.1-.2v0l.1.2h0a.7385.7385,0,0,0,.6.5.752.752,0,0,0,.7-.5h0l.1-.2v-.1l.1.1.2.2a.7638.7638,0,0,0,.5.2C79,22.8,79.3,22.5,79.3,22.1Z" fill="#a9cda6"/></g></g></g><g id="nonconiferoustree_bd-18" data-name="nonconiferoustree_bd" style="isolation:isolate"><g id="NonConiferousTree_FC-18" data-name="NonConiferousTree_FC"><g id="Deleted_Symbol_2-18" data-name="Deleted Symbol 2"><path d="M71,20.6a1.11,1.11,0,0,1-1.1,1.1,1.4213,1.4213,0,0,1-.6-.2.752.752,0,0,1-.7.5,3.7463,3.7463,0,0,0,.1.8h0c0,.1,0,.1-.1.2-.1,0-.1.1-.2.1h-.2c-.1,0-.1-.1-.1-.2v-.8a2.092,2.092,0,0,1-.6-.4,1.1355,1.1355,0,0,1-.8.3,1.11,1.11,0,0,1-1.1-1.1,1.05,1.05,0,0,1,.5-.9v-.3a.9738.9738,0,0,1,.8-1v-.1A1.0324,1.0324,0,0,1,68,17.5a1.0879,1.0879,0,0,1,1.1.9h.1a1.11,1.11,0,0,1,1.1,1.1v.2A.876.876,0,0,1,71,20.6Zm-.3,0a.8579.8579,0,0,0-.6-.7H70v-.2c0-.1.1-.2.1-.3a.7133.7133,0,0,0-.8-.7h-.2l-.2.1h-.1v-.4a.7.7,0,0,0-1.4,0v.2h0v.3h-.3a.6611.6611,0,0,0-.6.7.3674.3674,0,0,0,.1.3h0l.1.1v.1h-.2a.752.752,0,0,0-.5.7.6835.6835,0,0,0,.7.7.5483.5483,0,0,0,.6-.4.31.31,0,0,1,.1-.2v0l.1.2h0a.7385.7385,0,0,0,.6.5.752.752,0,0,0,.7-.5h0l.1-.2v-.1l.1.1.2.2a.7638.7638,0,0,0,.5.2A.7936.7936,0,0,0,70.7,20.6Z" fill="#a9cda6"/></g></g></g><g id="nonconiferoustree_bd-19" data-name="nonconiferoustree_bd" style="isolation:isolate"><g id="NonConiferousTree_FC-19" data-name="NonConiferousTree_FC"><g id="Deleted_Symbol_2-19" data-name="Deleted Symbol 2"><path d="M85.2,10.2a1.11,1.11,0,0,1-1.1,1.1,1.4213,1.4213,0,0,1-.6-.2.752.752,0,0,1-.7.5,3.7463,3.7463,0,0,0,.1.8h0c0,.1,0,.1-.1.2-.1,0-.1.1-.2.1h-.2c-.1,0-.1-.1-.1-.2v-.8a2.092,2.092,0,0,1-.6-.4,1.1355,1.1355,0,0,1-.8.3,1.11,1.11,0,0,1-1.1-1.1,1.05,1.05,0,0,1,.5-.9V9.3a.9738.9738,0,0,1,.8-1V8.2a1.0324,1.0324,0,0,1,1.1-1.1,1.0879,1.0879,0,0,1,1.1.9h.1a1.11,1.11,0,0,1,1.1,1.1v.2A.8079.8079,0,0,1,85.2,10.2Zm-.4,0a.8579.8579,0,0,0-.6-.7h-.1V9.3c0-.1.1-.2.1-.3a.7133.7133,0,0,0-.8-.7h-.2l-.2.1h-.1V8a.7.7,0,0,0-1.4,0v.2h0v.3h-.3a.6611.6611,0,0,0-.6.7.3674.3674,0,0,0,.1.3h0l.1.1v.1h-.2a.752.752,0,0,0-.5.7.6835.6835,0,0,0,.7.7.5483.5483,0,0,0,.6-.4.31.31,0,0,1,.1-.2v0l.1.2h0a.7385.7385,0,0,0,.6.5.752.752,0,0,0,.7-.5h0l.1-.2v-.1l.1.1.2.2a.7638.7638,0,0,0,.5.2C84.5,10.9,84.8,10.6,84.8,10.2Z" fill="#a9cda6"/></g></g></g><g id="nonconiferoustree_bd-20" data-name="nonconiferoustree_bd" style="isolation:isolate"><g id="NonConiferousTree_FC-20" data-name="NonConiferousTree_FC"><g id="Deleted_Symbol_2-20" data-name="Deleted Symbol 2"><path d="M90.4,5.7a1.11,1.11,0,0,1-1.1,1.1,1.4213,1.4213,0,0,1-.6-.2.752.752,0,0,1-.7.5,3.7463,3.7463,0,0,0,.1.8h0c0,.1,0,.1-.1.2-.1,0-.1.1-.2.1h-.2c-.1,0-.1-.1-.1-.2V7.2a2.092,2.092,0,0,1-.6-.4,1.1355,1.1355,0,0,1-.8.3A1.182,1.182,0,0,1,85,6a1.05,1.05,0,0,1,.5-.9V4.8a.9738.9738,0,0,1,.8-1V3.7a1.1355,1.1355,0,0,1,.3-.8,1.1355,1.1355,0,0,1,.8-.3,1.0879,1.0879,0,0,1,1.1.9h.1a1.11,1.11,0,0,1,1.1,1.1v.2A.9605.9605,0,0,1,90.4,5.7Zm-.4,0a.8579.8579,0,0,0-.6-.7h-.1V4.8c0-.1.1-.2.1-.3a.7133.7133,0,0,0-.8-.7h-.2l-.2.1h-.1V3.6h0a.7.7,0,1,0-1.4,0v.2h0v.3h-.3a.6611.6611,0,0,0-.6.7.3674.3674,0,0,0,.1.3h0l.1.1v.1h-.2a.752.752,0,0,0-.5.7.6835.6835,0,0,0,.7.7.5483.5483,0,0,0,.6-.4.31.31,0,0,1,.1-.2v0l.1.2h0a.7385.7385,0,0,0,.6.5.752.752,0,0,0,.7-.5h0l.1-.2V6l.1.1.2.2a.7638.7638,0,0,0,.5.2C89.7,6.5,90,6.2,90,5.7Z" fill="#a9cda6"/></g></g></g><g id="nonconiferoustree_bd-21" data-name="nonconiferoustree_bd" style="isolation:isolate"><g id="NonConiferousTree_FC-21" data-name="NonConiferousTree_FC"><g id="Deleted_Symbol_2-21" data-name="Deleted Symbol 2"><path d="M81.8,4.3a1.11,1.11,0,0,1-1.1,1.1,1.4213,1.4213,0,0,1-.6-.2.752.752,0,0,1-.7.5,3.7463,3.7463,0,0,0,.1.8h0c0,.1,0,.1-.1.2-.1,0-.1.1-.2.1H79c-.1,0-.1-.1-.1-.2V5.8a2.092,2.092,0,0,1-.6-.4,1.1355,1.1355,0,0,1-.8.3,1.11,1.11,0,0,1-1.1-1.1,1.05,1.05,0,0,1,.5-.9V3.4a.9738.9738,0,0,1,.8-1V2.3a1.1355,1.1355,0,0,1,.3-.8.7493.7493,0,0,1,.8-.5,1.0879,1.0879,0,0,1,1.1.9H80A1.11,1.11,0,0,1,81.1,3v.2A1.23,1.23,0,0,1,81.8,4.3Zm-.4,0a.8579.8579,0,0,0-.6-.7h-.1V3.4c0-.1.1-.2.1-.3a.7133.7133,0,0,0-.8-.7h-.2l-.2.1h-.1V2.1a.7.7,0,0,0-1.4,0v.2h0v.3h-.3a.6611.6611,0,0,0-.6.7.3674.3674,0,0,0,.1.3h0l.1.1v.1h-.2a.752.752,0,0,0-.5.7.6835.6835,0,0,0,.7.7.5483.5483,0,0,0,.6-.4.31.31,0,0,1,.1-.2v0l.1.2h0a.7385.7385,0,0,0,.6.5.752.752,0,0,0,.7-.5h0l.1-.2V4.5l.4.1.2.2a.7638.7638,0,0,0,.5.2A.6835.6835,0,0,0,81.4,4.3Z" fill="#a9cda6"/></g></g></g><g id="nonconiferoustree_bd-22" data-name="nonconiferoustree_bd" style="isolation:isolate"><g id="NonConiferousTree_FC-22" data-name="NonConiferousTree_FC"><g id="Deleted_Symbol_2-22" data-name="Deleted Symbol 2"><path d="M75.4,45.8a1.11,1.11,0,0,1-1.1,1.1,1.4213,1.4213,0,0,1-.6-.2.752.752,0,0,1-.7.5,3.7463,3.7463,0,0,0,.1.8h0c0,.1,0,.1-.1.2-.1,0-.1.1-.2.1h-.2c-.1,0-.1-.1-.1-.2v-.8a2.092,2.092,0,0,1-.6-.4,1.1355,1.1355,0,0,1-.8.3A1.11,1.11,0,0,1,70,46.1a1.05,1.05,0,0,1,.5-.9v-.3a.9738.9738,0,0,1,.8-1v-.1a1.0324,1.0324,0,0,1,1.1-1.1,1.0879,1.0879,0,0,1,1.1.9h.1a1.11,1.11,0,0,1,1.1,1.1v.2A.876.876,0,0,1,75.4,45.8Zm-.3,0a.8579.8579,0,0,0-.6-.7h-.1v-.2c0-.1.1-.2.1-.3a.7133.7133,0,0,0-.8-.7h-.2l-.2.1h-.1v-.4a.7.7,0,1,0-1.4,0v.2h0v.3h-.3a.6611.6611,0,0,0-.6.7.3674.3674,0,0,0,.1.3h0l.1.1v.1h-.2a.752.752,0,0,0-.5.7.6835.6835,0,0,0,.7.7.5483.5483,0,0,0,.6-.4.31.31,0,0,1,.1-.2v0l.1.2h0a.7385.7385,0,0,0,.6.5.752.752,0,0,0,.7-.5h0l.1-.2V46l.1.1.2.2a.7638.7638,0,0,0,.5.2A.7936.7936,0,0,0,75.1,45.8Z" fill="#a9cda6"/></g></g></g><g id="nonconiferoustree_bd-23" data-name="nonconiferoustree_bd" style="isolation:isolate"><g id="NonConiferousTree_FC-23" data-name="NonConiferousTree_FC"><g id="Deleted_Symbol_2-23" data-name="Deleted Symbol 2"><path d="M80.6,41.4a1.11,1.11,0,0,1-1.1,1.1,1.4213,1.4213,0,0,1-.6-.2.752.752,0,0,1-.7.5,3.7463,3.7463,0,0,0,.1.8h0c0,.1,0,.1-.1.2-.1,0-.1.1-.2.1h-.2c-.1,0-.1-.1-.1-.2v-.8a2.092,2.092,0,0,1-.6-.4,1.1355,1.1355,0,0,1-.8.3,1.11,1.11,0,0,1-1.1-1.1,1.05,1.05,0,0,1,.5-.9v-.3a.9738.9738,0,0,1,.8-1v-.1a1.0324,1.0324,0,0,1,1.1-1.1,1.0879,1.0879,0,0,1,1.1.9h.1a1.11,1.11,0,0,1,1.1,1.1v.2A.8079.8079,0,0,1,80.6,41.4Zm-.3,0a.8579.8579,0,0,0-.6-.7h-.1v-.2c0-.1.1-.2.1-.3a.7133.7133,0,0,0-.8-.7h-.2l-.2.1h-.1v-.4a.7.7,0,0,0-1.4,0v.2h0v.3h-.3a.6611.6611,0,0,0-.6.7.3674.3674,0,0,0,.1.3h0l.1.1v.1h-.2a.752.752,0,0,0-.5.7.6835.6835,0,0,0,.7.7.5483.5483,0,0,0,.6-.4.31.31,0,0,1,.1-.2v0l.1.2h0a.7385.7385,0,0,0,.6.5.752.752,0,0,0,.7-.5h0l.1-.2v-.1l.1.1.2.2a.7638.7638,0,0,0,.5.2C79.9,42.1,80.3,41.8,80.3,41.4Z" fill="#a9cda6"/></g></g></g><g id="nonconiferoustree_bd-24" data-name="nonconiferoustree_bd" style="isolation:isolate"><g id="NonConiferousTree_FC-24" data-name="NonConiferousTree_FC"><g id="Deleted_Symbol_2-24" data-name="Deleted Symbol 2"><path d="M72,39.9A1.11,1.11,0,0,1,70.9,41a1.4213,1.4213,0,0,1-.6-.2.752.752,0,0,1-.7.5,3.7463,3.7463,0,0,0,.1.8h0c0,.1,0,.1-.1.2-.1,0-.1.1-.2.1h-.2c-.1,0-.1-.1-.1-.2v-.8a2.092,2.092,0,0,1-.6-.4,1.1355,1.1355,0,0,1-.8.3,1.11,1.11,0,0,1-1.1-1.1,1.05,1.05,0,0,1,.5-.9V39a.9738.9738,0,0,1,.8-1v-.1A1.0324,1.0324,0,0,1,69,36.8a1.0879,1.0879,0,0,1,1.1.9h.1a1.11,1.11,0,0,1,1.1,1.1V39A.8079.8079,0,0,1,72,39.9Zm-.4,0a.8579.8579,0,0,0-.6-.7h-.1V39c0-.1.1-.2.1-.3a.7133.7133,0,0,0-.8-.7H70l-.2.1h-.1v-.4a.7.7,0,1,0-1.4,0v.2h0v.3H68a.6611.6611,0,0,0-.6.7.3674.3674,0,0,0,.1.3h0l.1.1v.1h-.2a.752.752,0,0,0-.5.7.6835.6835,0,0,0,.7.7.5483.5483,0,0,0,.6-.4.31.31,0,0,1,.1-.2v0l.1.2h0a.7385.7385,0,0,0,.6.5.752.752,0,0,0,.7-.5h0l.1-.2v-.1l.1.1.2.2a.7638.7638,0,0,0,.5.2C71.3,40.6,71.6,40.3,71.6,39.9Z" fill="#a9cda6"/></g></g></g><g id="nonconiferoustree_bd-25" data-name="nonconiferoustree_bd" style="isolation:isolate"><g id="NonConiferousTree_FC-25" data-name="NonConiferousTree_FC"><g id="Deleted_Symbol_2-25" data-name="Deleted Symbol 2"><path d="M85.7,69a1.11,1.11,0,0,1-1.1,1.1,1.4213,1.4213,0,0,1-.6-.2.752.752,0,0,1-.7.5,3.7463,3.7463,0,0,0,.1.8h0c0,.1,0,.1-.1.2-.1,0-.1.1-.2.1h-.2c-.1,0-.1-.1-.1-.2v-.8a2.092,2.092,0,0,1-.6-.4,1.1355,1.1355,0,0,1-.8.3,1.11,1.11,0,0,1-1.1-1.1,1.05,1.05,0,0,1,.5-.9v-.3a.9738.9738,0,0,1,.8-1V67a1.0324,1.0324,0,0,1,1.1-1.1,1.0879,1.0879,0,0,1,1.1.9h.1A1.11,1.11,0,0,1,85,67.9v.2A.9605.9605,0,0,1,85.7,69Zm-.4,0a.8579.8579,0,0,0-.6-.7h-.1v-.2c0-.1.1-.2.1-.3a.7133.7133,0,0,0-.8-.7h-.2l-.2.1h-.1v-.4a.7.7,0,0,0-1.4,0V67h0v.3h-.2a.6611.6611,0,0,0-.6.7.3674.3674,0,0,0,.1.3h0l.1.1v.1h-.2a.752.752,0,0,0-.5.7.6835.6835,0,0,0,.7.7.5483.5483,0,0,0,.6-.4.31.31,0,0,1,.1-.2v0l.1.2h0a.7385.7385,0,0,0,.6.5.752.752,0,0,0,.7-.5h0l.1-.2v-.1l.1.1.2.2a.7638.7638,0,0,0,.5.2C85,69.8,85.3,69.5,85.3,69Z" fill="#a9cda6"/></g></g></g><g id="nonconiferoustree_bd-26" data-name="nonconiferoustree_bd" style="isolation:isolate"><g id="NonConiferousTree_FC-26" data-name="NonConiferousTree_FC"><g id="Deleted_Symbol_2-26" data-name="Deleted Symbol 2"><path d="M90.9,64.6a1.11,1.11,0,0,1-1.1,1.1,1.4213,1.4213,0,0,1-.6-.2.752.752,0,0,1-.7.5,3.7463,3.7463,0,0,0,.1.8h0c0,.1,0,.1-.1.2-.1,0-.1.1-.2.1h-.2c-.1-.1-.1-.1-.1-.2v-.8a2.092,2.092,0,0,1-.6-.4,1.1355,1.1355,0,0,1-.8.3,1.11,1.11,0,0,1-1.1-1.1A1.05,1.05,0,0,1,86,64v-.3a.9738.9738,0,0,1,.8-1v-.1a1.0324,1.0324,0,0,1,1.1-1.1,1.0879,1.0879,0,0,1,1.1.9h.1a1.11,1.11,0,0,1,1.1,1.1v.2A.876.876,0,0,1,90.9,64.6Zm-.4,0a.8579.8579,0,0,0-.6-.7h-.1v-.2c0-.1.1-.2.1-.3a.7133.7133,0,0,0-.8-.7h-.2l-.2.1h-.1v-.4a.7.7,0,1,0-1.4,0v.2h0v.3h-.3a.6611.6611,0,0,0-.6.7.3674.3674,0,0,0,.1.3h0l.1.1v.1h-.2a.752.752,0,0,0-.5.7.6835.6835,0,0,0,.7.7.5483.5483,0,0,0,.6-.4.31.31,0,0,1,.1-.2v0l.1.2h0a.7385.7385,0,0,0,.6.5.752.752,0,0,0,.7-.5h0l.1-.2v-.1l.1.1.2.2a.7638.7638,0,0,0,.5.2C90.2,65.3,90.5,65,90.5,64.6Z" fill="#a9cda6"/></g></g></g><g id="nonconiferoustree_bd-27" data-name="nonconiferoustree_bd" style="isolation:isolate"><g id="NonConiferousTree_FC-27" data-name="NonConiferousTree_FC"><g id="Deleted_Symbol_2-27" data-name="Deleted Symbol 2"><path d="M82.3,63.1a1.11,1.11,0,0,1-1.1,1.1,1.4213,1.4213,0,0,1-.6-.2.752.752,0,0,1-.7.5,3.7463,3.7463,0,0,0,.1.8h0c0,.1,0,.1-.1.2-.1,0-.1.1-.2.1h-.2c-.1,0-.1-.1-.1-.2v-.8a2.092,2.092,0,0,1-.6-.4,1.1355,1.1355,0,0,1-.8.3,1.11,1.11,0,0,1-1.1-1.1,1.05,1.05,0,0,1,.5-.9v-.3a.9738.9738,0,0,1,.8-1v-.1A1.0324,1.0324,0,0,1,79.3,60a1.0879,1.0879,0,0,1,1.1.9h.1A1.11,1.11,0,0,1,81.6,62v.2A.876.876,0,0,1,82.3,63.1Zm-.4,0a.8579.8579,0,0,0-.6-.7h-.1v-.2c0-.1.1-.2.1-.3a.7133.7133,0,0,0-.8-.7h-.2l-.2.1H80V61h0a.7.7,0,0,0-1.4,0v.2h0v.3h-.3a.6611.6611,0,0,0-.6.7.3674.3674,0,0,0,.1.3h0l.1.1v.1h-.2a.752.752,0,0,0-.5.7.6835.6835,0,0,0,.7.7.5483.5483,0,0,0,.6-.4.31.31,0,0,1,.1-.2v0l.1.2h0a.7385.7385,0,0,0,.6.5.752.752,0,0,0,.7-.5h0l.1-.2v-.1l.1.1.2.2a.7638.7638,0,0,0,.5.2C81.6,63.9,81.9,63.5,81.9,63.1Z" fill="#a9cda6"/></g></g></g><g id="nonconiferoustree_bd-28" data-name="nonconiferoustree_bd" style="isolation:isolate"><g id="NonConiferousTree_FC-28" data-name="NonConiferousTree_FC"><g id="Deleted_Symbol_2-28" data-name="Deleted Symbol 2"><path d="M60.3,89.7a1.11,1.11,0,0,1-1.1,1.1,1.4213,1.4213,0,0,1-.6-.2.752.752,0,0,1-.7.5,3.7463,3.7463,0,0,0,.1.8h0c0,.1,0,.1-.1.2-.1,0-.1.1-.2.1h-.2c-.1,0-.1-.1-.1-.2v-.8a2.092,2.092,0,0,1-.6-.4,1.1355,1.1355,0,0,1-.8.3A1.11,1.11,0,0,1,54.9,90a1.05,1.05,0,0,1,.5-.9v-.3a.9738.9738,0,0,1,.8-1v-.1a1.0324,1.0324,0,0,1,1.1-1.1,1.0879,1.0879,0,0,1,1.1.9h.1a1.11,1.11,0,0,1,1.1,1.1v.2A.9605.9605,0,0,1,60.3,89.7Zm-.4,0a.8579.8579,0,0,0-.6-.7h-.1v-.2c0-.1.1-.2.1-.3a.7133.7133,0,0,0-.8-.7h-.2l-.2.1H58v-.4a.7.7,0,0,0-1.4,0v.2h0V88h-.3a.6611.6611,0,0,0-.6.7.3674.3674,0,0,0,.1.3h0l.1.1v.1h-.2a.752.752,0,0,0-.5.7.6835.6835,0,0,0,.7.7.5483.5483,0,0,0,.6-.4.31.31,0,0,1,.1-.2v0l.1.2h0a.7385.7385,0,0,0,.6.5.752.752,0,0,0,.7-.5h0l.1-.2v-.1l.1.1.2.2a.7638.7638,0,0,0,.5.2C59.6,90.5,59.9,90.1,59.9,89.7Z" fill="#a9cda6"/></g></g></g><g id="nonconiferoustree_bd-29" data-name="nonconiferoustree_bd" style="isolation:isolate"><g id="NonConiferousTree_FC-29" data-name="NonConiferousTree_FC"><g id="Deleted_Symbol_2-29" data-name="Deleted Symbol 2"><path d="M65.5,85.3a1.11,1.11,0,0,1-1.1,1.1,1.4213,1.4213,0,0,1-.6-.2.752.752,0,0,1-.7.5,3.7463,3.7463,0,0,0,.1.8h0c0,.1,0,.1-.1.2-.1,0-.1.1-.2.1h-.2c-.1,0-.1-.1-.1-.2v-.8a2.092,2.092,0,0,1-.6-.4,1.1355,1.1355,0,0,1-.8.3,1.11,1.11,0,0,1-1.1-1.1,1.05,1.05,0,0,1,.5-.9v-.3a.9738.9738,0,0,1,.8-1v-.1a1.0324,1.0324,0,0,1,1.1-1.1,1.0879,1.0879,0,0,1,1.1.9h.1a1.11,1.11,0,0,1,1.1,1.1v.2A.8079.8079,0,0,1,65.5,85.3Zm-.4,0a.8579.8579,0,0,0-.6-.7h-.1v-.2c0-.1.1-.2.1-.3a.7133.7133,0,0,0-.8-.7h-.2l-.2.1h-.1v-.4a.7.7,0,1,0-1.4,0v.2h0v.3h-.3a.6611.6611,0,0,0-.6.7.3674.3674,0,0,0,.1.3h0l.1.1v.1h-.2a.752.752,0,0,0-.5.7.6835.6835,0,0,0,.7.7.5483.5483,0,0,0,.6-.4.31.31,0,0,1,.1-.2v0l.1.2h0a.7385.7385,0,0,0,.6.5.752.752,0,0,0,.7-.5h0l.1-.2v-.1l.1.1.2.2a.7638.7638,0,0,0,.5.2C64.8,86,65.1,85.7,65.1,85.3Z" fill="#a9cda6"/></g></g></g><g id="nonconiferoustree_bd-30" data-name="nonconiferoustree_bd" style="isolation:isolate"><g id="NonConiferousTree_FC-30" data-name="NonConiferousTree_FC"><g id="Deleted_Symbol_2-30" data-name="Deleted Symbol 2"><path d="M56.9,83.8a1.11,1.11,0,0,1-1.1,1.1,1.4213,1.4213,0,0,1-.6-.2.752.752,0,0,1-.7.5,3.7463,3.7463,0,0,0,.1.8h0c0,.1,0,.1-.1.2-.1,0-.1.1-.2.1h-.2c-.1,0-.1-.1-.1-.2v-.8a2.092,2.092,0,0,1-.6-.4,1.1355,1.1355,0,0,1-.8.3,1.11,1.11,0,0,1-1.1-1.1,1.05,1.05,0,0,1,.5-.9v-.3a.9738.9738,0,0,1,.8-1v-.1a1.0324,1.0324,0,0,1,1.1-1.1,1.0879,1.0879,0,0,1,1.1.9h.1a1.11,1.11,0,0,1,1.1,1.1v.2A.876.876,0,0,1,56.9,83.8Zm-.4,0a.8579.8579,0,0,0-.6-.7h-.1v-.2c0-.1.1-.2.1-.3a.7133.7133,0,0,0-.8-.7h-.2l-.2.1h-.1v-.4a.7.7,0,1,0-1.4,0v.2h0v.3h-.3a.6611.6611,0,0,0-.6.7.3674.3674,0,0,0,.1.3h0l.1.1v.1h-.2a.752.752,0,0,0-.5.7.6835.6835,0,0,0,.7.7.5483.5483,0,0,0,.6-.4.31.31,0,0,1,.1-.2v0l.1.2h0a.7385.7385,0,0,0,.6.5.752.752,0,0,0,.7-.5h0l.1-.2V84l.1.1.2.2a.7638.7638,0,0,0,.5.2C56.2,84.5,56.5,84.2,56.5,83.8Z" fill="#a9cda6"/></g></g></g><g id="nonconiferoustree_bd-31" data-name="nonconiferoustree_bd" style="isolation:isolate"><g id="NonConiferousTree_FC-31" data-name="NonConiferousTree_FC"><g id="Deleted_Symbol_2-31" data-name="Deleted Symbol 2"><path d="M13.9,92.5a1.11,1.11,0,0,1-1.1,1.1,1.4213,1.4213,0,0,1-.6-.2.752.752,0,0,1-.7.5,3.7463,3.7463,0,0,0,.1.8h0c0,.1-.1.1-.1.2-.1,0-.1.1-.2.1h-.2c-.1,0-.1-.1-.1-.2V94a2.092,2.092,0,0,1-.6-.4,1.1355,1.1355,0,0,1-.8.3,1.11,1.11,0,0,1-1.1-1.1,1.05,1.05,0,0,1,.5-.9v-.3a.9738.9738,0,0,1,.8-1v-.1a1.0324,1.0324,0,0,1,1.1-1.1,1.0879,1.0879,0,0,1,1.1.9h.1a1.11,1.11,0,0,1,1.1,1.1v.2A.8079.8079,0,0,1,13.9,92.5Zm-.4,0a.8579.8579,0,0,0-.6-.7h-.2v-.2c0-.1.1-.2.1-.3a.7133.7133,0,0,0-.8-.7h-.2l-.2.1h-.1v-.4a.7.7,0,1,0-1.4,0v.2h0v.3H9.8a.6611.6611,0,0,0-.6.7.3674.3674,0,0,0,.1.3h0l.1.1V92H9.2a.752.752,0,0,0-.5.7.6835.6835,0,0,0,.7.7A.5483.5483,0,0,0,10,93a.31.31,0,0,1,.1-.2v0l.1.2h0a.7385.7385,0,0,0,.6.5.752.752,0,0,0,.7-.5h0l.1-.2v-.1l.1.1.2.2a.7638.7638,0,0,0,.5.2C13.2,93.2,13.5,92.9,13.5,92.5Z" fill="#a9cda6"/></g></g></g><g id="nonconiferoustree_bd-32" data-name="nonconiferoustree_bd" style="isolation:isolate"><g id="NonConiferousTree_FC-32" data-name="NonConiferousTree_FC"><g id="Deleted_Symbol_2-32" data-name="Deleted Symbol 2"><path d="M19.1,88.1A1.11,1.11,0,0,1,18,89.2a1.4213,1.4213,0,0,1-.6-.2.752.752,0,0,1-.7.5,3.7463,3.7463,0,0,0,.1.8h0c0,.1-.1.1-.1.2-.1,0-.1.1-.2.1h-.2c-.1,0-.1-.1-.1-.2v-.8a2.092,2.092,0,0,1-.6-.4,1.1355,1.1355,0,0,1-.8.3,1.11,1.11,0,0,1-1.1-1.1,1.05,1.05,0,0,1,.5-.9v-.3a.9738.9738,0,0,1,.8-1v-.1A1.0324,1.0324,0,0,1,16.1,85a1.0879,1.0879,0,0,1,1.1.9h.1A1.11,1.11,0,0,1,18.4,87v.2A.8079.8079,0,0,1,19.1,88.1Zm-.4,0a.8579.8579,0,0,0-.6-.7h-.2v-.2c0-.1.1-.2.1-.3a.7133.7133,0,0,0-.8-.7H17l-.2.1h-.1v-.4a.7.7,0,0,0-1.4,0v.2h0v.3H15a.6611.6611,0,0,0-.6.7.3674.3674,0,0,0,.1.3h0l.1.1v.1h-.2a.752.752,0,0,0-.5.7.6835.6835,0,0,0,.7.7.5483.5483,0,0,0,.6-.4.31.31,0,0,1,.1-.2v0l.1.2h0a.7385.7385,0,0,0,.6.5.752.752,0,0,0,.7-.5h0l.1-.2v-.1l.1.1.2.2a.7638.7638,0,0,0,.5.2C18.4,88.8,18.7,88.5,18.7,88.1Z" fill="#a9cda6"/></g></g></g><g id="nonconiferoustree_bd-33" data-name="nonconiferoustree_bd" style="isolation:isolate"><g id="NonConiferousTree_FC-33" data-name="NonConiferousTree_FC"><g id="Deleted_Symbol_2-33" data-name="Deleted Symbol 2"><path d="M10.5,86.6a1.11,1.11,0,0,1-1.1,1.1,1.4213,1.4213,0,0,1-.6-.2.752.752,0,0,1-.7.5,3.7463,3.7463,0,0,0,.1.8h0c-.1.1-.1.2-.2.2s-.1.1-.2.1H7.6c-.1,0-.1-.1-.1-.2v-.8a2.092,2.092,0,0,1-.6-.4,1.143,1.143,0,0,1-.7.3,1.11,1.11,0,0,1-1.1-1.1,1.05,1.05,0,0,1,.5-.9v-.3a.9738.9738,0,0,1,.8-1v-.1a1.0324,1.0324,0,0,1,1.1-1.1,1.0879,1.0879,0,0,1,1.1.9h.1a1.11,1.11,0,0,1,1.1,1.1v.2A.8079.8079,0,0,1,10.5,86.6Zm-.4,0a.8579.8579,0,0,0-.6-.7H9.3v-.2c0-.1.1-.2.1-.3a.7133.7133,0,0,0-.8-.7H8.4l-.2.1H8.1v-.4a.7.7,0,0,0-1.4,0v.2h0v.3H6.5a.6611.6611,0,0,0-.6.7.3674.3674,0,0,0,.1.3H6l.1.1v.1H5.9a.752.752,0,0,0-.5.7.6835.6835,0,0,0,.7.7.5483.5483,0,0,0,.6-.4.31.31,0,0,1,.1-.2v-.1L7,87l.1.2h0a.7385.7385,0,0,0,.6.5.752.752,0,0,0,.7-.5h0l.1-.2v-.1l.1.1.2.2a.7638.7638,0,0,0,.5.2C9.8,87.3,10.1,87,10.1,86.6Z" fill="#a9cda6"/></g></g></g></svg>