<svg id="Layer_1" data-name="Layer 1" xmlns="http://www.w3.org/2000/svg" width="33.8667mm" height="33.8667mm" viewBox="0 0 96 96"><g id="marsh_bd"><g id="Marsh_FC"><path d="M13.7,78.4c.1.1,0,.2-.1.2H11.2a.2.2,0,1,1,0-.4h1.6a.0979.0979,0,0,0-.1-.1h0c-.1-.1-.1-.1,0-.2l.1-.1.2.2v.2h.2c0-.2,0-.3-.1-.4a.0979.0979,0,0,0-.1-.1.1385.1385,0,0,1,0-.2h.1c.1.1.1.2.2.2s0,.1,0,.1a.3674.3674,0,0,0,.1.3Q13.7,78.25,13.7,78.4Zm3.1.9c0,.1-.1.1-.2.1H12.7a.125.125,0,1,1,0-.2h3.9C16.7,79.2,16.8,79.2,16.8,79.3Zm-2.4-.8a3.0764,3.0764,0,0,0-.4-.9s-.2-.2.2-.1a1.1057,1.1057,0,0,1,.4.5s0-.8.5-.9c0,0,.3-.1.1.1a1.0474,1.0474,0,0,0-.3.6,1.4093,1.4093,0,0,1,.5-.3s.3-.1,0,.1l-.4.6a.31.31,0,0,0-.1.2l-.2.2A.774.774,0,0,1,14.4,78.5Zm1.2-.1c0-.1.1-.2.1-.3V78a.3674.3674,0,0,1,.1-.3.0979.0979,0,0,1,.1-.1.1875.1875,0,0,1,.3,0h.1c-.1.1-.2.2-.2.3v.2a.2151.2151,0,0,0,.2.2h0c0-.1,0-.2.1-.2V78a.1875.1875,0,0,1,.3,0l.1.1c-.1,0-.1.1-.2.1h0a.3491.3491,0,0,0,.2.1H18a.2.2,0,0,1,0,.4H15.6C15.6,78.6,15.5,78.5,15.6,78.4Z" fill="#74c8c0"/></g></g><g id="scrub_bd"><g id="Scrub_FC"><g id="Deleted_Symbol_1" data-name="Deleted Symbol 1"><path d="M16.9,75.7c-.1,0-.1,0-.1-.1l-.3-1c0-.1,0-.1.1-.2l.2-.1h.1a.0979.0979,0,0,1,.1.1l.3,1c0,.1,0,.1-.1.2-.2,0-.2,0-.3.1Z" fill="#6bbe66"/><path d="M18.8,75.4a.0979.0979,0,0,1-.1-.1v-1c0-.1,0-.1-.1-.1h-.1a.31.31,0,0,0-.2.1h-.1c-.1,0-.1,0-.1-.1l-.2-.2v-.2a1.69,1.69,0,0,1,.5-.2.52.52,0,0,1,.4.2.6012.6012,0,0,1,.1.4v1a.0979.0979,0,0,1-.1.1h0Z" fill="#6bbe66"/><path d="M23.1,75.5h-.2c-.1,0-.1-.1-.1-.2l.3-1a.0979.0979,0,0,1,.1-.1h.3c.1,0,.1.1.1.2l-.3,1c0,.1-.1.1-.2.1Z" fill="#6bbe66"/><path d="M20.9,75.3a.3674.3674,0,0,1-.3-.1,16.7048,16.7048,0,0,0-.7-2.4.31.31,0,0,1-.1-.2c.1,0,.2.1.3.1,0,0,.4.2.6,1.2l.1.2c0-.1.1-2.1.8-2.4a.3491.3491,0,0,0,.2-.1.31.31,0,0,1-.1.2,4.6025,4.6025,0,0,0-.5,1.6v.2a1.3807,1.3807,0,0,1,.9-.7h.1s0,.1-.2.2a6.5246,6.5246,0,0,0-.9,1.6v.5C21.1,75.3,21,75.3,20.9,75.3Z" fill="#6bbe66"/></g></g></g><g id="scrub_bd-2" data-name="scrub_bd" style="isolation:isolate"><g id="Scrub_FC-2" data-name="Scrub_FC"><g id="Deleted_Symbol_1-2" data-name="Deleted Symbol 1"><path d="M8,74.1c-.1,0-.1,0-.1-.1l-.3-1c0-.1,0-.1.1-.2l.2-.1H8a.0979.0979,0,0,1,.1.1l.3,1c0,.1,0,.1-.1.2a.774.774,0,0,1-.3.1Z" fill="#6bbe66"/><path d="M9.8,73.9a.0979.0979,0,0,1-.1-.1v-1c0-.1,0-.1-.1-.1H9.5a.31.31,0,0,0-.2.1H9.2c-.1,0-.1,0-.1-.1L9,72.5v-.2a1.69,1.69,0,0,1,.5-.2.52.52,0,0,1,.4.2.6012.6012,0,0,1,.1.4v1a.0979.0979,0,0,1-.1.1H9.8Z" fill="#6bbe66"/><path d="M14.2,74H14c-.1,0-.1-.1-.1-.2l.3-1a.0979.0979,0,0,1,.1-.1h.3c.1,0,.1.1.1.2l-.3,1c-.1.1-.1.1-.2.1Z" fill="#6bbe66"/><path d="M12,73.8a.3674.3674,0,0,1-.3-.1,16.7048,16.7048,0,0,0-.7-2.4.31.31,0,0,1-.1-.2c.1,0,.2.1.3.1,0,0,.4.2.6,1.2l.1.2c0-.1.1-2.1.8-2.4a.3491.3491,0,0,0,.2-.1.31.31,0,0,1-.1.2,4.6025,4.6025,0,0,0-.5,1.6v.2a1.3807,1.3807,0,0,1,.9-.7h.1s0,.1-.2.2a6.5246,6.5246,0,0,0-.9,1.6v.5A.3491.3491,0,0,1,12,73.8Z" fill="#6bbe66"/></g></g></g><g id="marsh_bd-2" data-name="marsh_bd" style="isolation:isolate"><g id="Marsh_FC-2" data-name="Marsh_FC"><path d="M50.6,67.7c.1.1,0,.2-.1.2H48.1a.2.2,0,0,1,0-.4h1.6a.0979.0979,0,0,0-.1-.1h0c-.1-.1-.1-.1,0-.2l.1-.1.2.2v.2h.2c0-.2,0-.3-.1-.4a.0979.0979,0,0,0-.1-.1.1385.1385,0,0,1,0-.2H50c.1.1.1.2.2.2v.1a.3674.3674,0,0,0,.1.3C50.5,67.5,50.5,67.7,50.6,67.7Zm3,.9c0,.1-.1.1-.2.1H49.5a.125.125,0,1,1,0-.2h3.9A.3491.3491,0,0,1,53.6,68.6Zm-2.4-.7a3.0764,3.0764,0,0,0-.4-.9s-.2-.2.2-.1a1.1057,1.1057,0,0,1,.4.5s0-.8.5-.9c0,0,.3-.1.1.1a1.0474,1.0474,0,0,0-.3.6,1.4093,1.4093,0,0,1,.5-.3s.3-.1,0,.1l-.4.4a.31.31,0,0,0-.1.2l-.2.2C51.5,68,51.5,68,51.2,67.9Zm1.2-.2c0-.1.1-.2.1-.3v-.1a.3674.3674,0,0,1,.1-.3.0979.0979,0,0,1,.1-.1.1875.1875,0,0,1,.3,0h.1c-.1.1-.2.2-.2.3v.2a.2151.2151,0,0,0,.2.2h0c0-.1,0-.2.1-.2v-.1a.1875.1875,0,0,1,.3,0l.1.1c-.1,0-.1.1-.2.1h0a.3491.3491,0,0,0,.2.1H55a.2.2,0,0,1,0,.4H52.6C52.4,67.9,52.3,67.8,52.4,67.7Z" fill="#74c8c0"/></g></g><g id="scrub_bd-3" data-name="scrub_bd" style="isolation:isolate"><g id="Scrub_FC-3" data-name="Scrub_FC"><g id="Deleted_Symbol_1-3" data-name="Deleted Symbol 1"><path d="M53.7,65c-.1,0-.1,0-.1-.1l-.3-1c0-.1,0-.1.1-.2l.2-.1h.1a.0979.0979,0,0,1,.1.1l.3,1c0,.1,0,.1-.1.2a.3674.3674,0,0,1-.3.1Z" fill="#6bbe66"/><path d="M55.6,64.7a.0979.0979,0,0,1-.1-.1V63.5h-.1a.31.31,0,0,0-.2.1h-.1c-.1,0-.1,0-.1-.1l-.1-.1v-.2a1.69,1.69,0,0,1,.5-.2.52.52,0,0,1,.4.2.6012.6012,0,0,1,.1.4v1a.0979.0979,0,0,1-.1.1Z" fill="#6bbe66"/><path d="M59.9,64.9h-.2c-.1,0-.1-.1-.1-.2l.3-1a.0979.0979,0,0,1,.1-.1h.3c.1,0,.1.1.1.2l-.3,1a.3491.3491,0,0,1-.2.1Z" fill="#6bbe66"/><path d="M57.7,64.6a.3674.3674,0,0,1-.3-.1,16.7048,16.7048,0,0,0-.7-2.4.3491.3491,0,0,0-.1-.2c.1,0,.2.1.3.1,0,0,.4.2.6,1.2l.1.2c0-.1.1-2.1.8-2.4a.3491.3491,0,0,0,.2-.1.31.31,0,0,1-.1.2,4.6025,4.6025,0,0,0-.5,1.6V63a1.3807,1.3807,0,0,1,.9-.7H59s0,.1-.2.2a6.5246,6.5246,0,0,0-.9,1.6v.5Z" fill="#6bbe66"/></g></g></g><g id="scrub_bd-4" data-name="scrub_bd" style="isolation:isolate"><g id="Scrub_FC-4" data-name="Scrub_FC"><g id="Deleted_Symbol_1-4" data-name="Deleted Symbol 1"><path d="M44.8,63.4c-.1,0-.1,0-.1-.1l-.3-1c0-.1,0-.1.1-.2l.2-.1h.1a.0979.0979,0,0,1,.1.1l.3,1c0,.1,0,.1-.1.2a.774.774,0,0,1-.3.1Z" fill="#6bbe66"/><path d="M46.7,63.2a.0979.0979,0,0,1-.1-.1v-1c0-.1,0-.1-.1-.1h-.1a.31.31,0,0,0-.2.1h-.1c-.1,0-.1,0-.1-.1l-.1-.1v-.2a1.69,1.69,0,0,1,.5-.2.52.52,0,0,1,.4.2.6012.6012,0,0,1,.1.4v1a.0979.0979,0,0,1-.1.1Z" fill="#6bbe66"/><path d="M51,63.3h-.2c-.1,0-.1-.1-.1-.2l.3-1a.0979.0979,0,0,1,.1-.1h.3c.1,0,.1.1.1.2l-.3,1c-.1.1-.1.1-.2.1Z" fill="#6bbe66"/><path d="M48.8,63.1a.3674.3674,0,0,1-.3-.1,16.7048,16.7048,0,0,0-.7-2.4.31.31,0,0,1-.1-.2c.1,0,.2.1.3.1,0,0,.4.2.6,1.2l.1.2c0-.1.1-2.1.8-2.4a.3491.3491,0,0,0,.2-.1.31.31,0,0,1-.1.2,4.6025,4.6025,0,0,0-.5,1.6v.2a1.3807,1.3807,0,0,1,.9-.7h.1s0,.1-.2.2a6.5246,6.5246,0,0,0-.9,1.6V63A.3491.3491,0,0,1,48.8,63.1Z" fill="#6bbe66"/></g></g></g><g id="marsh_bd-3" data-name="marsh_bd" style="isolation:isolate"><g id="Marsh_FC-3" data-name="Marsh_FC"><path d="M9.3,50.2c.1.1,0,.2-.1.2H6.8a.2.2,0,0,1,0-.4H8.4a.0979.0979,0,0,0-.1-.1h0c-.1-.1-.1-.1,0-.2l.1-.1.2.2V50h.2c0-.2,0-.3-.1-.4a.0979.0979,0,0,0-.1-.1.1385.1385,0,0,1,0-.2h.1c.3,0,.3.1.4.2v.1a.3674.3674,0,0,0,.1.3A.3674.3674,0,0,0,9.3,50.2Zm3,.8c0,.1-.1.1-.2.1H8.2c-.1.1-.2,0-.2-.1s.1-.1.2-.1h3.9A.3491.3491,0,0,1,12.3,51ZM10,50.3a3.0764,3.0764,0,0,0-.4-.9s-.2-.2.2-.1a1.1057,1.1057,0,0,1,.4.5s0-.8.5-.9c0,0,.3-.1.1.1a1.0474,1.0474,0,0,0-.3.6,1.4093,1.4093,0,0,1,.5-.3s.3-.1,0,.1l-.5.6a.31.31,0,0,0-.1.2l-.2.2Zm1.1-.1c0-.1.1-.2.1-.3v-.1a.3674.3674,0,0,1,.1-.3.0979.0979,0,0,1,.1-.1.1875.1875,0,0,1,.3,0h.1c-.1.1-.2.2-.2.3v.2a.2151.2151,0,0,0,.2.2h0c0-.1,0-.2.1-.2v-.1a.1875.1875,0,0,1,.3,0l.1.1c-.1,0-.1.1-.2.1h0a.3491.3491,0,0,0,.2.1h1.4a.2.2,0,0,1,0,.4H11.3C11.1,50.3,11,50.3,11.1,50.2Z" fill="#74c8c0"/></g></g><g id="scrub_bd-5" data-name="scrub_bd" style="isolation:isolate"><g id="Scrub_FC-5" data-name="Scrub_FC"><g id="Deleted_Symbol_1-5" data-name="Deleted Symbol 1"><path d="M12.5,47.4c-.1,0-.1,0-.1-.1l-.3-1c0-.1,0-.1.1-.2l.2-.1h.1a.0979.0979,0,0,1,.1.1l.3,1c0,.1,0,.1-.1.2a.774.774,0,0,1-.3.1Z" fill="#6bbe66"/><path d="M14.3,47.2a.0979.0979,0,0,1-.1-.1v-1c0-.1,0-.1-.1-.1H14a.31.31,0,0,0-.2.1h-.1c-.1,0-.1,0-.1-.1l-.1-.1v-.2a1.69,1.69,0,0,1,.5-.2.52.52,0,0,1,.4.2.6012.6012,0,0,1,.1.4v1a.0979.0979,0,0,1-.1.1Z" fill="#6bbe66"/><path d="M18.7,47.3h-.2c-.1,0-.1-.1-.1-.2l.3-1a.0979.0979,0,0,1,.1-.1h.3c.1,0,.1.1.1.2l-.3,1a.31.31,0,0,1-.2.1Z" fill="#6bbe66"/><path d="M16.4,47.1a.3674.3674,0,0,1-.3-.1,16.7048,16.7048,0,0,0-.7-2.4.31.31,0,0,1-.1-.2c.1,0,.2.1.3.1,0,0,.4.2.6,1.2l.1.2c0-.1.1-2.1.8-2.4a.3491.3491,0,0,0,.2-.1.31.31,0,0,1-.1.2,4.6025,4.6025,0,0,0-.5,1.6v.2a1.3807,1.3807,0,0,1,.9-.7h.1s0,.1-.2.2a6.5246,6.5246,0,0,0-.9,1.6V47S16.6,47.1,16.4,47.1Z" fill="#6bbe66"/></g></g></g><g id="marsh_bd-4" data-name="marsh_bd" style="isolation:isolate"><g id="Marsh_FC-4" data-name="Marsh_FC"><path d="M5.7,44c.1.1,0,.2-.1.2H3.3a.2.2,0,0,1,0-.4H4.9a.0979.0979,0,0,0-.1-.1h0c-.1-.1-.1-.1,0-.2l.1-.1.2.2v.2h.2c0-.2,0-.3-.1-.4a.0979.0979,0,0,0-.1-.1.1385.1385,0,0,1,0-.2h.1c.1.1.1.2.2.2v.1a.3674.3674,0,0,0,.1.3C5.6,43.8,5.7,43.9,5.7,44Zm3.1.9c0,.1-.1.1-.2.1H4.7a.3491.3491,0,0,1-.2-.1.3491.3491,0,0,1,.2-.1H8.6C8.7,44.8,8.8,44.8,8.8,44.9Zm-2.4-.8a3.0764,3.0764,0,0,0-.4-.9s-.2-.2.2-.1a1.1057,1.1057,0,0,1,.4.5s0-.8.5-.9c0,0,.3-.1.1.1a1.0474,1.0474,0,0,0-.3.6,1.4093,1.4093,0,0,1,.5-.3s.3-.1,0,.1l-.4.6-.2.2-.2.2ZM7.5,44c0-.1.1-.2.1-.3v-.1a.3674.3674,0,0,1,.1-.3.0979.0979,0,0,1,.1-.1.1875.1875,0,0,1,.3,0h.1c-.1.1-.2.2-.2.3v.2a.2151.2151,0,0,0,.2.2h0c0-.1,0-.2.1-.2v-.1a.1875.1875,0,0,1,.3,0l.1.1c-.1,0-.1.1-.2.1h0a.3491.3491,0,0,0,.2.1H10a.2.2,0,0,1,0,.4H7.6A.3674.3674,0,0,1,7.5,44Z" fill="#74c8c0"/></g></g><g id="marsh_bd-5" data-name="marsh_bd" style="isolation:isolate"><g id="Marsh_FC-5" data-name="Marsh_FC"><path d="M18.2,29.1c.1.1,0,.2-.1.2H15.7a.2.2,0,0,1,0-.4h1.6a.0979.0979,0,0,0-.1-.1h0c-.1-.1-.1-.1,0-.2l.1-.1.2.2v.2h.2c0-.2,0-.3-.1-.4a.0979.0979,0,0,0-.1-.1.1385.1385,0,0,1,0-.2h.1c.1.1.1.2.2.2v.1a.3674.3674,0,0,0,.1.3C18.1,28.9,18.1,29,18.2,29.1Zm3,.9c0,.1-.1.1-.2.1H17.1a.3491.3491,0,0,1-.2-.1c0-.1.1-.1.2-.1H21C21.1,29.9,21.2,29.9,21.2,30Zm-2.3-.8a3.0764,3.0764,0,0,0-.4-.9s-.2-.2.2-.1a1.1057,1.1057,0,0,1,.4.5s0-.8.5-.9c0,0,.3-.1.1.1a1.0474,1.0474,0,0,0-.3.6,1.4093,1.4093,0,0,1,.5-.3s.3-.1,0,.1l-.4.4a.31.31,0,0,0-.1.2l-.2.2C19.1,29.3,19.1,29.3,18.9,29.2Zm1.1-.1c0-.1.1-.2.1-.3v-.1a.3674.3674,0,0,1,.1-.3.0979.0979,0,0,1,.1-.1.1875.1875,0,0,1,.3,0h.1c-.1.1-.2.2-.2.3v.2a.2151.2151,0,0,0,.2.2h0c0-.1,0-.2.1-.2v-.1a.1875.1875,0,0,1,.3,0l.1.1c-.1,0-.1.1-.2.1h0a.3491.3491,0,0,0,.2.1h1.4a.2.2,0,1,1,0,.4H20.2C20,29.2,19.9,29.2,20,29.1Z" fill="#74c8c0"/></g></g><g id="scrub_bd-6" data-name="scrub_bd" style="isolation:isolate"><g id="Scrub_FC-6" data-name="Scrub_FC"><g id="Deleted_Symbol_1-6" data-name="Deleted Symbol 1"><path d="M21.4,26.3c-.1,0-.1,0-.1-.1l-.3-1c0-.1,0-.1.1-.2l.2-.1h.1a.0979.0979,0,0,1,.1.1l.3,1c0,.1,0,.1-.1.2a.774.774,0,0,1-.3.1Z" fill="#6bbe66"/><path d="M23.2,26.1a.0979.0979,0,0,1-.1-.1V25c0-.1,0-.1-.1-.1h-.1a.31.31,0,0,0-.2.1h-.1c-.1,0-.1,0-.1-.1l-.1-.1v-.2a1.69,1.69,0,0,1,.5-.2.52.52,0,0,1,.4.2.6012.6012,0,0,1,.1.4v1a.0979.0979,0,0,1-.1.1Z" fill="#6bbe66"/><path d="M27.6,26.2h-.2c-.1,0-.1-.1-.1-.2l.3-1a.0979.0979,0,0,1,.1-.1H28c.1,0,.1.1.1.2l-.3,1a.31.31,0,0,1-.2.1Z" fill="#6bbe66"/><path d="M25.3,26a.3674.3674,0,0,1-.3-.1,16.7048,16.7048,0,0,0-.7-2.4.31.31,0,0,1-.1-.2c.1,0,.2.1.3.1,0,0,.4.2.6,1.2l.1.2c0-.1.1-2.1.8-2.4a.3491.3491,0,0,0,.2-.1.31.31,0,0,1-.1.2,4.6025,4.6025,0,0,0-.5,1.6v.2a1.3807,1.3807,0,0,1,.9-.7h.1s0,.1-.2.2a6.5246,6.5246,0,0,0-.9,1.6v.5S25.5,26,25.3,26Z" fill="#6bbe66"/></g></g></g><g id="scrub_bd-7" data-name="scrub_bd" style="isolation:isolate"><g id="Scrub_FC-7" data-name="Scrub_FC"><g id="Deleted_Symbol_1-7" data-name="Deleted Symbol 1"><path d="M12.4,24.8c-.1,0-.1,0-.1-.1l-.3-1c0-.1,0-.1.1-.2l.2-.1h.1a.0979.0979,0,0,1,.1.1l.3,1c0,.1,0,.1-.1.2-.2.1-.2.1-.3.1Z" fill="#6bbe66"/><path d="M14.3,24.5a.0979.0979,0,0,1-.1-.1v-1c0-.1,0-.1-.1-.1H14a.31.31,0,0,0-.2.1h-.1c-.1,0-.1,0-.1-.1l-.1-.1V23a1.69,1.69,0,0,1,.5-.2.52.52,0,0,1,.4.2.6012.6012,0,0,1,.1.4v1a.0979.0979,0,0,1-.1.1Z" fill="#6bbe66"/><path d="M18.6,24.7h-.2c-.1,0-.1-.1-.1-.2l.3-1a.0979.0979,0,0,1,.1-.1H19c.1,0,.1.1.1.2l-.3,1c-.1,0-.1.1-.2.1Z" fill="#6bbe66"/><path d="M16.4,24.4a.3674.3674,0,0,1-.3-.1,16.7048,16.7048,0,0,0-.7-2.4.31.31,0,0,1-.1-.2c.1,0,.2.1.3.1,0,0,.4.2.6,1.2l.1.2c0-.1.1-2.1.8-2.4a.3491.3491,0,0,0,.2-.1.31.31,0,0,1-.1.2,4.6025,4.6025,0,0,0-.5,1.6v.2a1.3807,1.3807,0,0,1,.9-.7h.1s0,.1-.2.2a6.5246,6.5246,0,0,0-.9,1.6v.5C16.6,24.4,16.5,24.4,16.4,24.4Z" fill="#6bbe66"/></g></g></g><g id="marsh_bd-6" data-name="marsh_bd" style="isolation:isolate"><g id="Marsh_FC-6" data-name="Marsh_FC"><path d="M49.1,9.3c.1.1,0,.2-.1.2H46.6a.2.2,0,1,1,0-.4h1.6a.0979.0979,0,0,0-.1-.1h0c-.1-.1-.1-.1,0-.2l.1-.1.2.2v.2h.2c0-.2,0-.3-.1-.4a.0979.0979,0,0,0-.1-.1.1385.1385,0,0,1,0-.2h.1c.1.1.1.2.2.2v.1c.3.1.3.2.3.3S49.1,9.2,49.1,9.3Zm3,.9c0,.1-.1.1-.2.1H48a.3491.3491,0,0,1-.2-.1s.2-.2.3-.2H52C52.1,10,52.1,10.1,52.1,10.2Zm-2.3-.8a3.0764,3.0764,0,0,0-.4-.9s-.2-.2.2-.1a1.1057,1.1057,0,0,1,.4.5s0-.8.5-.9c0,0,.3-.1.1.1a1.0474,1.0474,0,0,0-.3.6,1.4093,1.4093,0,0,1,.5-.3s.3-.1,0,.1l-.4.4a.31.31,0,0,0-.1.2l-.2.2C50,9.5,50,9.5,49.8,9.4Zm1.1-.1a.6012.6012,0,0,0,.1-.4V8.8a.3674.3674,0,0,1,.1-.3.0979.0979,0,0,1,.1-.1.1875.1875,0,0,1,.3,0h.1c-.1.1-.2.2-.2.3v.2a.2151.2151,0,0,0,.2.2h0c0-.1,0-.2.1-.2V8.8a.1875.1875,0,0,1,.3,0v.1a.31.31,0,0,1-.2.1h0a.3491.3491,0,0,0,.2.1h1.4a.2.2,0,0,1,0,.4H51C50.9,9.4,50.9,9.4,50.9,9.3Z" fill="#74c8c0"/></g></g><g id="scrub_bd-8" data-name="scrub_bd" style="isolation:isolate"><g id="Scrub_FC-8" data-name="Scrub_FC"><g id="Deleted_Symbol_1-8" data-name="Deleted Symbol 1"><path d="M52.3,6.5c-.1,0-.1,0-.1-.1l-.3-1c0-.1,0-.1.1-.2l.2-.1h.1a.0979.0979,0,0,1,.1.1l.3,1c0,.1,0,.1-.1.2-.2.1-.2.1-.3.1Z" fill="#6bbe66"/><path d="M54.2,6.3a.0979.0979,0,0,1-.1-.1v-1L54,5h-.1a.31.31,0,0,0-.2.1h-.1c-.1,0-.1,0-.1-.1l-.1-.1V4.7a1.69,1.69,0,0,1,.5-.2.52.52,0,0,1,.4.2.6012.6012,0,0,1,.1.4v1a.0979.0979,0,0,1-.1.1A.0979.0979,0,0,1,54.2,6.3Z" fill="#6bbe66"/><path d="M58.5,6.4h-.2c-.1,0-.1-.1-.1-.2l.3-1a.0979.0979,0,0,1,.1-.1h.3a.31.31,0,0,1,.1.2l-.3,1c-.1.1-.1.1-.2.1Z" fill="#6bbe66"/><path d="M56.3,6.2a.3674.3674,0,0,1-.3-.1,16.7048,16.7048,0,0,0-.7-2.4.3491.3491,0,0,0-.1-.2c.1,0,.2.1.3.1,0,0,.4.2.6,1.2l.1.2s.1-2,.8-2.4a.3491.3491,0,0,0,.2-.1.31.31,0,0,1-.1.2,4.6025,4.6025,0,0,0-.5,1.6v.2a1.3807,1.3807,0,0,1,.9-.7h.1s0,.1-.2.2a6.5246,6.5246,0,0,0-.9,1.6v.5A.3491.3491,0,0,1,56.3,6.2Z" fill="#6bbe66"/></g></g></g><g id="scrub_bd-9" data-name="scrub_bd" style="isolation:isolate"><g id="Scrub_FC-9" data-name="Scrub_FC"><g id="Deleted_Symbol_1-9" data-name="Deleted Symbol 1"><path d="M43.4,5c-.1,0-.1,0-.1-.1l-.3-1c0-.1,0-.1.1-.2l.2-.1h.1a.0979.0979,0,0,1,.1.1l.3,1c0,.1,0,.1-.1.2a.438.438,0,0,0-.3.1Z" fill="#6bbe66"/><path d="M45.2,4.7a.0979.0979,0,0,1-.1-.1v-1c0-.1,0-.1-.1-.1h-.1a.31.31,0,0,0-.2.1h-.1c-.1,0-.1,0-.1-.1l-.1-.1V3.2a1.69,1.69,0,0,1,.5-.2.52.52,0,0,1,.4.2.6012.6012,0,0,1,.1.4v1a.0979.0979,0,0,1-.1.1Z" fill="#6bbe66"/><path d="M49.5,4.9h-.2c-.1,0-.1-.1-.1-.2l.3-1a.0979.0979,0,0,1,.1-.1h.3c.1,0,.1.1.1.2l-.3,1a.3491.3491,0,0,1-.2.1Z" fill="#6bbe66"/><path d="M47.3,4.6a.3674.3674,0,0,1-.3-.1,16.7048,16.7048,0,0,0-.7-2.4.31.31,0,0,1-.1-.2c.1,0,.2.1.3.1,0,0,.4.2.6,1.2l.1.2c0-.1.1-2.1.8-2.4a.3491.3491,0,0,0,.2-.1.31.31,0,0,1-.1.2,4.6025,4.6025,0,0,0-.5,1.6V3a1.3807,1.3807,0,0,1,.9-.7h.1s0,.1-.2.2a6.5246,6.5246,0,0,0-.9,1.6v.5Z" fill="#6bbe66"/></g></g></g><g id="marsh_bd-7" data-name="marsh_bd" style="isolation:isolate"><g id="Marsh_FC-7" data-name="Marsh_FC"><path d="M71.8,25.6c.1.1,0,.2-.1.2H69.3a.2.2,0,0,1,0-.4h1.6a.0979.0979,0,0,0-.1-.1h0c-.1-.1-.1-.1,0-.2L71,25l.2.2v.2h.2c0-.2,0-.3-.1-.4a.0979.0979,0,0,0-.1-.1.1385.1385,0,0,1,0-.2h.1c.1.1.1.2.2.2V25a.3674.3674,0,0,0,.1.3C71.7,25.4,71.7,25.5,71.8,25.6Zm3,.9c0,.1-.1.1-.2.1H70.7a.3491.3491,0,0,1-.2-.1c0-.1.1-.1.2-.1h3.9C74.7,26.3,74.8,26.4,74.8,26.5Zm-2.4-.8a3.0764,3.0764,0,0,0-.4-.9s-.2-.2.2-.1a1.1057,1.1057,0,0,1,.4.5s0-.8.5-.9c0,0,.3-.1.1.1a1.0474,1.0474,0,0,0-.3.6,1.4093,1.4093,0,0,1,.5-.3s.3-.1,0,.1l-.4.6a.31.31,0,0,0-.1.2l-.2.2Zm1.2-.1c0-.1.1-.2.1-.3v-.1a.3674.3674,0,0,1,.1-.3.0979.0979,0,0,1,.1-.1.1875.1875,0,0,1,.3,0h.1q-.3.15-.3.3v.2a.2151.2151,0,0,0,.2.2h0c0-.1,0-.2.1-.2v-.1a.1875.1875,0,0,1,.3,0l.1.1c-.1,0-.1.1-.2.1h0a.3491.3491,0,0,0,.2.1H76a.2.2,0,1,1,0,.4H73.6C73.6,25.7,73.5,25.7,73.6,25.6Z" fill="#74c8c0"/></g></g><g id="scrub_bd-10" data-name="scrub_bd" style="isolation:isolate"><g id="Scrub_FC-10" data-name="Scrub_FC"><g id="Deleted_Symbol_1-10" data-name="Deleted Symbol 1"><path d="M74.9,22.8c-.1,0-.1,0-.1-.1l-.3-1c0-.1,0-.1.1-.2l.2-.1h.1a.0979.0979,0,0,1,.1.1l.3,1c0,.1,0,.1-.1.2a.3674.3674,0,0,1-.3.1Z" fill="#6bbe66"/><path d="M76.8,22.6a.0979.0979,0,0,1-.1-.1V21.4h-.1a.31.31,0,0,0-.2.1h-.1c-.1,0-.1,0-.1-.1l-.1-.1v-.2a1.69,1.69,0,0,1,.5-.2.52.52,0,0,1,.4.2.6012.6012,0,0,1,.1.4v1a.0979.0979,0,0,1-.1.1Z" fill="#6bbe66"/><path d="M81.1,22.7h-.2c-.1,0-.1-.1-.1-.2l.3-1a.0979.0979,0,0,1,.1-.1h.3c.1,0,.1.1.1.2l-.3,1c0,.1-.1.1-.2.1Z" fill="#6bbe66"/><path d="M78.9,22.5a.3674.3674,0,0,1-.3-.1,16.7048,16.7048,0,0,0-.7-2.4.3491.3491,0,0,0-.1-.2c.1,0,.2.1.3.1,0,0,.4.2.6,1.2l.1.2c0-.1.1-2.1.8-2.4a.3491.3491,0,0,0,.2-.1.31.31,0,0,1-.1.2,4.6025,4.6025,0,0,0-.5,1.6v.2a1.3807,1.3807,0,0,1,.9-.7h.1s0,.1-.2.2a6.5246,6.5246,0,0,0-.9,1.6v.5A.3491.3491,0,0,1,78.9,22.5Z" fill="#6bbe66"/></g></g></g><g id="marsh_bd-8" data-name="marsh_bd" style="isolation:isolate"><g id="Marsh_FC-8" data-name="Marsh_FC"><path d="M68.2,19.4c.1.1,0,.2-.1.2H65.7a.2.2,0,0,1,0-.4h1.6a.0979.0979,0,0,0-.1-.1h0c-.1-.1-.1-.1,0-.2l.1-.1.2.2v.2h.2c0-.2,0-.3-.1-.4a.0979.0979,0,0,0-.1-.1.1385.1385,0,0,1,0-.2h.1c.1.1.1.2.2.2v.1a.3674.3674,0,0,0,.1.3C68.1,19.2,68.1,19.3,68.2,19.4Zm3,.9c0,.1-.1.1-.2.1H67.1a.3491.3491,0,0,1-.2-.1.3491.3491,0,0,1,.2-.1H71C71.2,20.2,71.2,20.2,71.2,20.3Zm-2.3-.8a3.0764,3.0764,0,0,0-.4-.9s-.2-.2.2-.1a1.1057,1.1057,0,0,1,.4.5s0-.8.5-.9c0,0,.3-.1.1.1a1.0474,1.0474,0,0,0-.3.6,1.4093,1.4093,0,0,1,.5-.3s.3-.1,0,.1l-.4.4a.31.31,0,0,0-.1.2l-.2.2C69.1,19.6,69.1,19.6,68.9,19.5Zm1.1-.1c0-.1.1-.2.1-.3V19a.3674.3674,0,0,1,.1-.3.0979.0979,0,0,1,.1-.1.1875.1875,0,0,1,.3,0h.1c-.1.1-.2.2-.2.3v.2a.2151.2151,0,0,0,.2.2h0c0-.1,0-.2.1-.2V19a.1875.1875,0,0,1,.3,0l.1.1c-.1,0-.1.1-.2.1h0a.3491.3491,0,0,0,.2.1h1.4a.2.2,0,0,1,0,.4H70.2C70,19.6,70,19.5,70,19.4Z" fill="#74c8c0"/></g></g><g id="marsh_bd-9" data-name="marsh_bd" style="isolation:isolate"><g id="Marsh_FC-9" data-name="Marsh_FC"><path d="M82.9,8.6c.1.1,0,.2-.1.2H80.4a.2.2,0,1,1,0-.4H82a.0979.0979,0,0,0-.1-.1h0c-.1-.1-.1-.1,0-.2L82,8l.2.2v.2h.2c0-.2,0-.3-.1-.4h.1a.1385.1385,0,0,1,0-.2h.1c.1.1.1.2.2.2v.1a.3674.3674,0,0,0,.1.3A.3491.3491,0,0,1,82.9,8.6Zm3.1.9c0,.1-.1.1-.2.1H81.9a.3491.3491,0,0,1-.2-.1c0-.1.1-.1.2-.1h3.9C85.9,9.4,86,9.4,86,9.5Zm-2.4-.8a3.0764,3.0764,0,0,0-.4-.9s-.2-.2.2-.1a1.1057,1.1057,0,0,1,.4.5s0-.8.5-.9c0,0,.3-.1.1.1a1.0474,1.0474,0,0,0-.3.6,1.4093,1.4093,0,0,1,.5-.3s.3-.1,0,.1l-.4.4a1.0945,1.0945,0,0,1-.2.4l-.2.2Zm1.1-.1c0-.1.1-.2.1-.3V8.2a.3674.3674,0,0,1,.1-.3l.1-.1a.1875.1875,0,0,1,.3,0h.1c-.1.1-.2.2-.2.3v.2a.2151.2151,0,0,0,.2.2h0c0-.1,0-.2.1-.2V8.2a.1875.1875,0,0,1,.3,0l.1.1c-.1,0-.1.1-.2.1h0a.3491.3491,0,0,0,.2.1h1.4a.2.2,0,0,1,0,.4H84.9C84.7,8.8,84.7,8.7,84.7,8.6Z" fill="#74c8c0"/></g></g><g id="scrub_bd-11" data-name="scrub_bd" style="isolation:isolate"><g id="Scrub_FC-11" data-name="Scrub_FC"><g id="Deleted_Symbol_1-11" data-name="Deleted Symbol 1"><path d="M86.1,5.8c-.1,0-.1,0-.1-.1l-.3-1c0-.1,0-.1.1-.2l.2-.1h.1a.0979.0979,0,0,1,.1.1l.3,1c0,.1,0,.1-.1.2-.2.1-.2.1-.3.1Z" fill="#6bbe66"/><path d="M88,5.6a.0979.0979,0,0,1-.1-.1V4.4h-.1a.31.31,0,0,0-.2.1h-.1c-.1,0-.1,0-.1-.1l-.1-.1V4.1a1.69,1.69,0,0,1,.5-.2.52.52,0,0,1,.4.2.6012.6012,0,0,1,.1.4v1a.0979.0979,0,0,1-.1.1Z" fill="#6bbe66"/><path d="M92.3,5.7h-.2c-.1,0-.1-.1-.1-.2l.3-1a.0979.0979,0,0,1,.1-.1h.3c.1,0,.1.1.1.2l-.3,1c-.1.1-.1.1-.2.1Z" fill="#6bbe66"/><path d="M90.1,5.5a.3674.3674,0,0,1-.3-.1A16.7048,16.7048,0,0,0,89.1,3a.31.31,0,0,1-.1-.2c.1,0,.2.1.3.1,0,0,.4.2.6,1.2l.1.3c0-.1.1-2.1.8-2.4a.3491.3491,0,0,0,.2-.1.31.31,0,0,1-.1.2,4.6025,4.6025,0,0,0-.5,1.6v.2a1.3807,1.3807,0,0,1,.9-.7h.1s0,.1-.2.2A6.5246,6.5246,0,0,0,90.3,5v.5C90.3,5.4,90.2,5.5,90.1,5.5Z" fill="#6bbe66"/></g></g></g><g id="marsh_bd-10" data-name="marsh_bd" style="isolation:isolate"><g id="Marsh_FC-10" data-name="Marsh_FC"><path d="M79.4,2.5c.1.1,0,.2-.1.2H76.9a.2151.2151,0,0,1-.2-.2.2151.2151,0,0,1,.2-.2h1.6a.0979.0979,0,0,0-.1-.1h0c-.1-.1-.1-.1,0-.2l.1-.1c.1.1.2.1.3.2v.2H79c0-.2,0-.3-.1-.4a.0979.0979,0,0,0-.1-.1.1385.1385,0,0,1,0-.2h.1c.1.1.1.2.2.2v.1a.3674.3674,0,0,0,.1.3C79.3,2.2,79.3,2.4,79.4,2.5Zm3,.8c0,.1-.1.1-.2.1H78.3a.3491.3491,0,0,1-.2-.1c0-.1.1-.1.2-.1h3.9A.3491.3491,0,0,1,82.4,3.3ZM80,2.6a3.0764,3.0764,0,0,0-.4-.9s-.2-.2.2-.1a1.1057,1.1057,0,0,1,.4.5s0-.8.5-.9c0,0,.3-.1.1.1a1.0474,1.0474,0,0,0-.3.6,1.4093,1.4093,0,0,1,.5-.3s.3-.1,0,.1l-.4.4a.31.31,0,0,0-.1.2l-.2.2C80.3,2.7,80.3,2.7,80,2.6Zm1.2-.1c0-.1.1-.2.1-.3V2.1a.3674.3674,0,0,1,.1-.3.0979.0979,0,0,1,.1-.1.1875.1875,0,0,1,.3,0h.1c-.1.1-.2.2-.2.3v.2a.2151.2151,0,0,0,.2.2h0c0-.1,0-.2.1-.2V2.1c-.1-.1,0-.1.1-.1l.1.1c-.1,0-.1.1-.2.1h0a.3491.3491,0,0,0,.2.1h1.4a.2151.2151,0,0,1,.2.2.2151.2151,0,0,1-.2.2H81.2C81.2,2.6,81.1,2.5,81.2,2.5Z" fill="#74c8c0"/></g></g><g id="marsh_bd-11" data-name="marsh_bd" style="isolation:isolate"><g id="Marsh_FC-11" data-name="Marsh_FC"><path d="M72.8,45.6c.1.1,0,.2-.1.2H70.3a.2.2,0,0,1,0-.4h1.6a.0979.0979,0,0,0-.1-.1h0c-.1-.1-.1-.1,0-.2L72,45l.2.2v.2h.2c0-.2,0-.3-.1-.4a.0979.0979,0,0,0-.1-.1.1385.1385,0,0,1,0-.2h.1c.1.1.1.2.2.2V45a.3674.3674,0,0,0,.1.3C72.7,45.4,72.7,45.5,72.8,45.6Zm3,.9c0,.1-.1.1-.2.1H71.7a.3491.3491,0,0,1-.2-.1.3491.3491,0,0,1,.2-.1h3.9C75.7,46.3,75.8,46.4,75.8,46.5Zm-2.4-.8a3.0764,3.0764,0,0,0-.4-.9s-.2-.2.2-.1a1.1057,1.1057,0,0,1,.4.5s0-.8.5-.9c0,0,.3-.1.1.1a1.0474,1.0474,0,0,0-.3.6,1.4093,1.4093,0,0,1,.5-.3s.3-.1,0,.1l-.4.6a.31.31,0,0,0-.1.2l-.2.2Zm1.2-.1c0-.1.1-.2.1-.3v-.1a.3674.3674,0,0,1,.1-.3.0979.0979,0,0,1,.1-.1.1875.1875,0,0,1,.3,0h.1q-.3.15-.3.3v.2a.2151.2151,0,0,0,.2.2h0c0-.1,0-.2.1-.2v-.1a.1875.1875,0,0,1,.3,0l.1.1c-.1,0-.1.1-.2.1h0a.3491.3491,0,0,0,.2.1H77a.2.2,0,0,1,0,.4H74.6C74.6,45.7,74.5,45.7,74.6,45.6Z" fill="#74c8c0"/></g></g><g id="scrub_bd-12" data-name="scrub_bd" style="isolation:isolate"><g id="Scrub_FC-12" data-name="Scrub_FC"><g id="Deleted_Symbol_1-12" data-name="Deleted Symbol 1"><path d="M76,42.8c-.1,0-.1,0-.1-.1l-.3-1c0-.1,0-.1.1-.2l.2-.1H76a.0979.0979,0,0,1,.1.1l.3,1c0,.1,0,.1-.1.2a.774.774,0,0,1-.3.1Z" fill="#6bbe66"/><path d="M77.8,42.6a.0979.0979,0,0,1-.1-.1V41.4h-.1a.31.31,0,0,0-.2.1h-.1c-.1,0-.1,0-.1-.1l-.2-.3v-.2a1.69,1.69,0,0,1,.5-.2.52.52,0,0,1,.4.2.6012.6012,0,0,1,.1.4v1a.0979.0979,0,0,1-.1.1h-.1Z" fill="#6bbe66"/><path d="M82.1,42.7h-.2c-.1,0-.1-.1-.1-.2l.3-1a.0979.0979,0,0,1,.1-.1h.3c.1,0,.1.1.1.2l-.3,1c0,.1-.1.1-.2.1Z" fill="#6bbe66"/><path d="M79.9,42.5a.3674.3674,0,0,1-.3-.1,16.7048,16.7048,0,0,0-.7-2.4.3491.3491,0,0,0-.1-.2c.1,0,.2.1.3.1,0,0,.4.2.6,1.2l.1.2c0-.1.1-2.1.8-2.4a.3491.3491,0,0,0,.2-.1.31.31,0,0,1-.1.2,4.6025,4.6025,0,0,0-.5,1.6v.2a1.3807,1.3807,0,0,1,.9-.7h.1s0,.1-.2.2a6.5246,6.5246,0,0,0-.9,1.6v.5A.3491.3491,0,0,1,79.9,42.5Z" fill="#6bbe66"/></g></g></g><g id="scrub_bd-13" data-name="scrub_bd" style="isolation:isolate"><g id="Scrub_FC-13" data-name="Scrub_FC"><g id="Deleted_Symbol_1-13" data-name="Deleted Symbol 1"><path d="M67,41.3c-.1,0-.1,0-.1-.1l-.3-1c0-.1,0-.1.1-.2l.2-.1H67c-.1.1,0,.1,0,.1l.3,1c0,.1,0,.1-.1.2a.3491.3491,0,0,0-.2.1Z" fill="#6bbe66"/><path d="M68.9,41a.0979.0979,0,0,1-.1-.1V39.8h-.1a.31.31,0,0,0-.2.1h-.1c-.1,0-.1,0-.1-.1l-.3-.2v-.2a1.69,1.69,0,0,1,.5-.2.52.52,0,0,1,.4.2.6012.6012,0,0,1,.1.4v1a.0979.0979,0,0,1-.1.1h0Z" fill="#6bbe66"/><path d="M73.2,41.1H73c-.1,0-.1-.1-.1-.2l.3-1a.0979.0979,0,0,1,.1-.1h.3c.1,0,.1.1.1.2l-.3,1c-.1.1-.1.2-.2.1Z" fill="#6bbe66"/><path d="M71,40.9a.3674.3674,0,0,1-.3-.1,16.7048,16.7048,0,0,0-.7-2.4.3491.3491,0,0,0-.1-.2c.1,0,.2.1.3.1,0,0,.4.2.6,1.2l.1.2c0-.1.1-2.1.8-2.4a.3491.3491,0,0,0,.2-.1.31.31,0,0,1-.1.2,4.6025,4.6025,0,0,0-.5,1.6v.2a1.3807,1.3807,0,0,1,.9-.7h.1s0,.1-.2.2a6.5246,6.5246,0,0,0-.9,1.6v.5C71.2,40.9,71.1,40.9,71,40.9Z" fill="#6bbe66"/></g></g></g><g id="marsh_bd-12" data-name="marsh_bd" style="isolation:isolate"><g id="Marsh_FC-12" data-name="Marsh_FC"><path d="M83.4,69.7c.1.1,0,.2-.1.2H81a.2.2,0,0,1,0-.4h1.6a.0979.0979,0,0,0-.1-.1h0c-.1-.1-.1-.1,0-.2l.1-.1.2.2v.2H83c0-.2,0-.3-.1-.4a.0979.0979,0,0,0-.1-.1.1385.1385,0,0,1,0-.2h.1c.1.1.1.2.2.2v.1a.3674.3674,0,0,0,.1.3C83.3,69.5,83.4,69.6,83.4,69.7Zm3.1.9c0,.1-.1.1-.2.1H82.4a.3491.3491,0,0,1-.2-.1c0-.1.1-.1.2-.1h3.9C86.4,70.4,86.5,70.5,86.5,70.6Zm-2.4-.8a3.0764,3.0764,0,0,0-.4-.9s-.2-.2.2-.1a1.1057,1.1057,0,0,1,.4.5s0-.8.5-.9c0,0,.3-.1.1.1a1.0474,1.0474,0,0,0-.3.6,1.4093,1.4093,0,0,1,.5-.3s.3-.1,0,.1l-.4.4a.31.31,0,0,0-.1.2l-.2.2C84.3,69.9,84.3,69.9,84.1,69.8Zm1.1-.1c0-.1.1-.2.1-.3v-.1a.3674.3674,0,0,1,.1-.3.0979.0979,0,0,1,.1-.1.1875.1875,0,0,1,.3,0h.1c-.1.1-.2.2-.2.3v.2a.2151.2151,0,0,0,.2.2h0c0-.1,0-.2.1-.2v-.1a.1875.1875,0,0,1,.3,0l.1.1c-.1,0-.1.1-.2.1h0a.3491.3491,0,0,0,.2.1h1.4a.2.2,0,0,1,0,.4H85.4C85.2,69.8,85.2,69.8,85.2,69.7Z" fill="#74c8c0"/></g></g><g id="scrub_bd-14" data-name="scrub_bd" style="isolation:isolate"><g id="Scrub_FC-14" data-name="Scrub_FC"><g id="Deleted_Symbol_1-14" data-name="Deleted Symbol 1"><path d="M86.6,66.9c-.1,0-.1,0-.1-.1l-.3-1c0-.1,0-.1.1-.2l.2-.1h.1a.0979.0979,0,0,1,.1.1l.3,1c0,.1,0,.1-.1.2-.2.1-.2.1-.3.1Z" fill="#6bbe66"/><path d="M88.5,66.7a.0979.0979,0,0,1-.1-.1V65.5h-.1a.31.31,0,0,0-.2.1H88c-.1,0-.1,0-.1-.1l-.1-.1v-.2a1.69,1.69,0,0,1,.5-.2.52.52,0,0,1,.4.2.6012.6012,0,0,1,.1.4v1a.0979.0979,0,0,1-.1.1Z" fill="#6bbe66"/><path d="M92.8,66.8h-.2c-.1,0-.1-.1-.1-.2l.3-1a.0979.0979,0,0,1,.1-.1h.3c.1,0,.1.1.1.2l-.3,1c0,.1-.1.1-.2.1Z" fill="#6bbe66"/><path d="M90.6,66.6a.3674.3674,0,0,1-.3-.1,16.7048,16.7048,0,0,0-.7-2.4.3491.3491,0,0,0-.1-.2c.1,0,.2.1.3.1,0,0,.4.2.6,1.2l.1.2c0-.1.1-2.1.8-2.4a.3491.3491,0,0,0,.2-.1.31.31,0,0,1-.1.2,4.6025,4.6025,0,0,0-.5,1.6V65a1.3807,1.3807,0,0,1,.9-.7h.1s0,.1-.2.2a6.5246,6.5246,0,0,0-.9,1.6v.5C90.8,66.5,90.7,66.6,90.6,66.6Z" fill="#6bbe66"/></g></g></g><g id="marsh_bd-13" data-name="marsh_bd" style="isolation:isolate"><g id="Marsh_FC-13" data-name="Marsh_FC"><path d="M79.9,63.5c.1.1,0,.2-.1.2H77.4a.2.2,0,0,1,0-.4H79a.0979.0979,0,0,0-.1-.1h0c-.1-.1-.1-.1,0-.2l.1-.1.2.2v.2h.2c0-.2,0-.3-.1-.4a.0979.0979,0,0,0-.1-.1.1385.1385,0,0,1,0-.2h.1c.1.1.1.2.2.2v.1a.3674.3674,0,0,0,.1.3C79.8,63.3,79.8,63.4,79.9,63.5Zm3,.9c0,.1-.1.1-.2.1H78.8a.125.125,0,1,1,0-.2h3.9C82.8,64.3,82.9,64.3,82.9,64.4Zm-2.3-.8a3.0764,3.0764,0,0,0-.4-.9s-.2-.2.2-.1a1.1057,1.1057,0,0,1,.4.5s0-.8.5-.9c0,0,.3-.1.1.1a1.0474,1.0474,0,0,0-.3.6,1.4093,1.4093,0,0,1,.5-.3s.3-.1,0,.1l-.4.4c-.2.3-.2.4-.2.4l-.2.2Zm1.1-.1c0-.1.1-.2.1-.3v-.1a.3674.3674,0,0,1,.1-.3l.1-.1a.1875.1875,0,0,1,.3,0h.1c-.1.1-.2.2-.2.3v.2a.2151.2151,0,0,0,.2.2h0c0-.1,0-.2.1-.2v-.1a.1875.1875,0,0,1,.3,0l.1.1c-.1,0-.1.1-.2.1h0a.3491.3491,0,0,0,.2.1h1.4a.2.2,0,1,1,0,.4H81.9C81.7,63.7,81.6,63.6,81.7,63.5Z" fill="#74c8c0"/></g></g><g id="marsh_bd-14" data-name="marsh_bd" style="isolation:isolate"><g id="Marsh_FC-14" data-name="Marsh_FC"><path d="M57,91.1c.1.1,0,.2-.1.2H54.5a.2.2,0,0,1,0-.4h1.6a.0979.0979,0,0,0-.1-.1h0c-.1-.1-.1-.1,0-.2l.1-.1.2.2v.2h.2c0-.2,0-.3-.1-.4a.0979.0979,0,0,0-.1-.1.1385.1385,0,0,1,0-.2h.1c.1.1.1.2.2.2v.1a.3674.3674,0,0,0,.1.3Q57,90.95,57,91.1Zm3.1.9c0,.1-.1.1-.2.1H56a.125.125,0,1,1,0-.2h3.9C60,91.9,60.1,91.9,60.1,92Zm-2.4-.8a3.0764,3.0764,0,0,0-.4-.9s-.2-.2.2-.1a1.1057,1.1057,0,0,1,.4.5s0-.8.5-.9c0,0,.3-.1.1.1a1.0474,1.0474,0,0,0-.3.6,1.4093,1.4093,0,0,1,.5-.3s.3-.1,0,.1l-.4.4a.31.31,0,0,0-.1.2l-.2.2C58,91.3,57.9,91.3,57.7,91.2Zm1.2-.1c0-.1.1-.2.1-.3v-.1a.3674.3674,0,0,1,.1-.3.0979.0979,0,0,1,.1-.1.1875.1875,0,0,1,.3,0h.1c-.1.1-.2.2-.2.3v.2a.2151.2151,0,0,0,.2.2h0c0-.1,0-.2.1-.2v-.1a.1875.1875,0,0,1,.3,0l.1.1c-.1,0-.1.1-.2.1h0a.3491.3491,0,0,0,.2.1h1.4a.2.2,0,0,1,0,.4H59C58.9,91.3,58.8,91.2,58.9,91.1Z" fill="#74c8c0"/></g></g><g id="scrub_bd-15" data-name="scrub_bd" style="isolation:isolate"><g id="Scrub_FC-15" data-name="Scrub_FC"><g id="Deleted_Symbol_1-15" data-name="Deleted Symbol 1"><path d="M60.2,88.4c-.1,0-.1,0-.1-.1l-.3-1c0-.1,0-.1.1-.2l.2-.1h.1a.0979.0979,0,0,1,.1.1l.3,1c0,.1,0,.1-.1.2-.2,0-.2.1-.3.1Z" fill="#6bbe66"/><path d="M62.1,88.1c-.1,0-.1,0-.1-.1V86.9h-.1a.31.31,0,0,0-.2.1h-.1c-.1,0-.1,0-.1-.1l-.1-.1v-.2a1.69,1.69,0,0,1,.5-.2.52.52,0,0,1,.4.2.6012.6012,0,0,1,.1.4v1a.0979.0979,0,0,1-.1.1Z" fill="#6bbe66"/><path d="M66.4,88.3h-.2c-.1,0-.1-.1-.1-.2l.3-1a.0979.0979,0,0,1,.1-.1h.3c.1,0,.1.1.1.2l-.3,1a.3491.3491,0,0,1-.2.1Z" fill="#6bbe66"/><path d="M64.2,88a.3674.3674,0,0,1-.3-.1,16.7048,16.7048,0,0,0-.7-2.4.3491.3491,0,0,0-.1-.2c.1,0,.2.1.3.1,0,0,.4.2.6,1.2l.1.2c0-.1.1-2.1.8-2.4a.3491.3491,0,0,0,.2-.1.31.31,0,0,1-.1.2,4.6025,4.6025,0,0,0-.5,1.6v.2a1.3807,1.3807,0,0,1,.9-.7h.1s0,.1-.2.2a6.5246,6.5246,0,0,0-.9,1.6v.5C64.4,88,64.3,88,64.2,88Z" fill="#6bbe66"/></g></g></g><g id="marsh_bd-15" data-name="marsh_bd" style="isolation:isolate"><g id="Marsh_FC-15" data-name="Marsh_FC"><path d="M53.5,85c.1.1,0,.2-.1.2H51a.2.2,0,0,1,0-.4h1.6a.0979.0979,0,0,0-.1-.1h0c-.1-.1-.1-.1,0-.2l.1-.1.2.2v.2H53c0-.2,0-.3-.1-.4a.0979.0979,0,0,0-.1-.1.1385.1385,0,0,1,0-.2h.1c.1.1.1.2.2.2v.1a.3674.3674,0,0,0,.1.3C53.4,84.8,53.4,84.9,53.5,85Zm3,.9c0,.1-.1.1-.2.1H52.4a.125.125,0,1,1,0-.2h3.9C56.4,85.8,56.5,85.8,56.5,85.9Zm-2.3-.8a3.0764,3.0764,0,0,0-.4-.9s-.2-.2.2-.1a1.1057,1.1057,0,0,1,.4.5s0-.8.5-.9c0,0,.3-.1.1.1a1.0474,1.0474,0,0,0-.3.6,1.4093,1.4093,0,0,1,.5-.3s.3-.1,0,.1l-.4.4a.31.31,0,0,0-.1.2l-.2.2C54.4,85.2,54.4,85.2,54.2,85.1Zm1.1-.1c0-.1.1-.2.1-.3v-.1a.3674.3674,0,0,1,.1-.3l.1-.1a.1875.1875,0,0,1,.3,0H56c-.1.1-.2.2-.2.3v.2a.2151.2151,0,0,0,.2.2h0c0-.1,0-.2.1-.2v-.1a.1875.1875,0,0,1,.3,0l.1.1c-.1,0-.1.1-.2.1h0a.3491.3491,0,0,0,.2.1h1.4a.2.2,0,0,1,0,.4H55.5C55.3,85.1,55.3,85.1,55.3,85Z" fill="#74c8c0"/></g></g><g id="marsh_bd-16" data-name="marsh_bd" style="isolation:isolate"><g id="Marsh_FC-16" data-name="Marsh_FC"><path d="M8.9,94c.1.1,0,.2-.1.2H6.5a.2.2,0,0,1,0-.4H8.1a.0979.0979,0,0,0-.1-.1H8c-.1-.1-.1-.1,0-.2l.1-.1.2.2v.2h.2c0-.2,0-.3-.1-.4a.0979.0979,0,0,0-.1-.1.1385.1385,0,0,1,0-.2h.1c.1.1.1.2.2.2v.1a.3674.3674,0,0,0,.1.3C8.8,93.8,8.9,93.9,8.9,94Zm3,.9c0,.1-.1.1-.2.1H7.9a.125.125,0,1,1,0-.2h3.9C11.9,94.8,11.9,94.8,11.9,94.9Zm-2.3-.8a3.0764,3.0764,0,0,0-.4-.9s-.2-.2.2-.1a1.1057,1.1057,0,0,1,.4.5s0-.8.5-.9c0,0,.3-.1.1.1a1.0474,1.0474,0,0,0-.3.6,1.4093,1.4093,0,0,1,.5-.3s.3-.1,0,.1l-.4.4a1.0945,1.0945,0,0,1-.2.4l-.2.2Zm1.1-.1c0-.1.1-.2.1-.3v-.1a.3674.3674,0,0,1,.1-.3.0979.0979,0,0,1,.1-.1.1875.1875,0,0,1,.3,0h.1c-.1.1-.2.2-.2.3v.2a.2151.2151,0,0,0,.2.2h0c0-.1,0-.2.1-.2v-.1a.1875.1875,0,0,1,.3,0l.1.1c-.1,0-.1.1-.2.1h0a.3491.3491,0,0,0,.2.1h1.4a.2.2,0,0,1,0,.4H10.9C10.7,94.2,10.7,94.1,10.7,94Z" fill="#74c8c0"/></g></g><g id="scrub_bd-16" data-name="scrub_bd" style="isolation:isolate"><g id="Scrub_FC-16" data-name="Scrub_FC"><g id="Deleted_Symbol_1-16" data-name="Deleted Symbol 1"><path d="M12.1,91.2c-.1,0-.1,0-.1-.1l-.3-1c0-.1,0-.1.1-.2l.2-.1h.1a.0979.0979,0,0,1,.1.1l.3,1c0,.1,0,.1-.1.2-.2.1-.2.1-.3.1Z" fill="#6bbe66"/><path d="M14,91a.0979.0979,0,0,1-.1-.1v-1c0-.1,0-.1-.1-.1h-.1a.31.31,0,0,0-.2.1h-.1c-.1,0-.1,0-.1-.1l-.1-.1v-.2a1.69,1.69,0,0,1,.5-.2.52.52,0,0,1,.4.2.6012.6012,0,0,1,.1.4v1a.0979.0979,0,0,1-.1.1Z" fill="#6bbe66"/><path d="M18.3,91.1h-.2c-.1,0-.1-.1-.1-.2l.3-1a.0979.0979,0,0,1,.1-.1h.3c.1,0,.1.1.1.2l-.3,1c-.1.1-.1.1-.2.1Z" fill="#6bbe66"/><path d="M16.1,90.9a.3674.3674,0,0,1-.3-.1,16.7048,16.7048,0,0,0-.7-2.4.31.31,0,0,1-.1-.2c.1,0,.2.1.3.1,0,0,.4.2.6,1.2l.1.2c0-.1.1-2.1.8-2.4a.3491.3491,0,0,0,.2-.1.31.31,0,0,1-.1.2,4.6025,4.6025,0,0,0-.5,1.6v.2a1.3807,1.3807,0,0,1,.9-.7h.1s0,.1-.2.2a6.5246,6.5246,0,0,0-.9,1.6v.5C16.3,90.9,16.2,90.9,16.1,90.9Z" fill="#6bbe66"/></g></g></g><g id="marsh_bd-17" data-name="marsh_bd" style="isolation:isolate"><g id="Marsh_FC-17" data-name="Marsh_FC"><path d="M5.4,87.9c.1.1,0,.2-.1.2H2.9a.2.2,0,1,1,0-.4H4.5a.0979.0979,0,0,0-.1-.1h0c-.1-.1-.1-.1,0-.2l.1-.1.2.2v.2h.2c0-.2,0-.3-.1-.4a.0979.0979,0,0,0-.1-.1.1385.1385,0,0,1,0-.2h.1c.1.1.1.2.2.2v.1a.3674.3674,0,0,0,.1.3C5.3,87.6,5.3,87.8,5.4,87.9Zm3,.8c0,.1-.1.1-.2.1H4.3a.125.125,0,1,1,0-.2H8.2A.3491.3491,0,0,1,8.4,88.7ZM6,88a3.0764,3.0764,0,0,0-.4-.9s-.2-.2.2-.1a1.1057,1.1057,0,0,1,.4.5s0-.8.5-.9c0,0,.3-.1.1.1a1.0474,1.0474,0,0,0-.3.6A1.4093,1.4093,0,0,1,7,87s.3-.1,0,.1l-.4.4a.31.31,0,0,0-.1.2l-.2.2C6.3,88.1,6.3,88.1,6,88Zm1.2-.1c0-.1.1-.2.1-.3v-.1a.3674.3674,0,0,1,.1-.3.0979.0979,0,0,1,.1-.1c0-.1.1-.1.2-.1h.1c-.1.1-.2.2-.2.3v.2a.2151.2151,0,0,0,.2.2h0c0-.1,0-.2.1-.2v-.1a.1875.1875,0,0,1,.3,0l.1.1c-.1,0-.1.1-.2.1h0a.3491.3491,0,0,0,.2.1H9.7a.2.2,0,1,1,0,.4H7.3C7.2,88,7.1,87.9,7.2,87.9Z" fill="#74c8c0"/></g></g></svg>