<svg id="svg2" xmlns="http://www.w3.org/2000/svg" width="16.9333mm" height="16.9333mm" viewBox="0 0 48 48"><g id="heritageSiteOfSymbol"><g id="polyline4"><rect x="9.8625" y="22.9625" width="28.3" height="2" fill="#bf5a5f"/></g><g id="polyline6"><rect x="22.9625" y="9.8625" width="2" height="28.3" fill="#bf5a5f"/></g><g id="circle8"><path d="M23.9625,46.9625a4.9,4.9,0,1,1,4.9-4.9A4.8448,4.8448,0,0,1,23.9625,46.9625Zm0-7.8a2.9,2.9,0,1,0,2.9,2.9A2.84,2.84,0,0,0,23.9625,39.1625Z" fill="#bf5a5f"/></g><g id="circle10"><path d="M23.9625,10.8625a4.9,4.9,0,1,1,4.9-4.9A4.7841,4.7841,0,0,1,23.9625,10.8625Zm0-7.9a2.9,2.9,0,1,0,2.9,2.9A2.84,2.84,0,0,0,23.9625,2.9625Z" fill="#bf5a5f"/></g><g id="circle12"><path d="M42.0625,28.9625a4.9,4.9,0,1,1,4.9-4.9A4.908,4.908,0,0,1,42.0625,28.9625Zm0-7.9a2.9,2.9,0,1,0,2.9,2.9A2.9021,2.9021,0,0,0,42.0625,21.0625Z" fill="#bf5a5f"/></g><g id="circle14"><path d="M5.9625,28.9625a4.9,4.9,0,1,1,4.9-4.9A4.908,4.908,0,0,1,5.9625,28.9625Zm0-7.9a2.9,2.9,0,1,0,2.9,2.9A2.9021,2.9021,0,0,0,5.9625,21.0625Z" fill="#bf5a5f"/></g></g></svg>