<svg id="Layer_1" data-name="Layer 1" xmlns="http://www.w3.org/2000/svg" width="16.9333mm" height="16.9333mm" viewBox="0 0 48 48"><path d="M24,35.6,9.8,45.8l5.4-16.7L1,18.8H18.6L24,2.1l5.5,16.7H47L32.8,29.2l5.4,16.6Zm-4.3-7.9L17,36l7-5.1L31.1,36l-2.7-8.3,7.1-5.1H26.8L24,14.3l-2.7,8.2H12.6Z" fill="#fff"/><polygon points="7.9 21.1 17.4 28.5 13.6 40.6 24 33.5 34.2 40.6 30.6 28.3 40.7 21.1 28.2 20.7 24 7.2 20.2 20.7 7.9 21.1" fill="#fff"/><path d="M32.2,28.9l5,15.5L24,34.8,10.8,44.3l5-15.5L2.6,19.2H18.9L24,3.7l5.1,15.5H45.4Zm-5.1-7L24,12.5l-3.1,9.4H11l8.1,5.9L16,37.2l8-5.9,8.1,5.9L29,27.7l8.1-5.9h-10Z" fill="#de6266"/></svg>