<svg id="Layer_1" data-name="Layer 1" xmlns="http://www.w3.org/2000/svg" width="16.9333mm" height="16.9333mm" viewBox="0 0 48 48"><circle cx="24" cy="23.9" r="22.9" fill="#fff"/><g style="isolation:isolate"><path d="M24,46.9A23,23,0,1,1,46.9,23.8,22.9181,22.9181,0,0,1,24,46.9Zm0-2a21,21,0,1,0-21-21A20.9974,20.9974,0,0,0,24,44.9ZM36.2,11.1,26.7,19l-1.4.9a14.775,14.775,0,0,0,0,4.2,7.0169,7.0169,0,0,0,.9,2.3c.9,1.3,4.7,4.2,4.7,4.2l6.6,4.2-1.8,2.6-10-5.9-1.9-1.4a2.5525,2.5525,0,0,0-.9,0c-.6.2-.9,1.4-.9,1.4l-.7,10.8-3.8-.9,1.2-16.9a15.058,15.058,0,0,0-.9-3.8l-1-1.9L11.1,11l2.5-2,4.2,5.5a5.4938,5.4938,0,0,0,1.4.9,5.932,5.932,0,0,0,2.3.5,16.26,16.26,0,0,0,4.7-.9L34,8.9ZM18.8,10a3.4,3.4,0,1,1,3.4,3.4A3.3719,3.3719,0,0,1,18.8,10Z" fill="#2837c6"/></g></svg>