<svg id="Layer_1" data-name="Layer 1" xmlns="http://www.w3.org/2000/svg" width="16.9333mm" height="16.9333mm" viewBox="0 0 48 48"><circle cx="24" cy="23.9" r="23" fill="#fff"/><g style="isolation:isolate"><path d="M24,47A23,23,0,1,1,47,24,23.0033,23.0033,0,0,1,24,47Zm0-1.9A21.05,21.05,0,1,0,2.9,24,21.04,21.04,0,0,0,24,45.1ZM36.3,11.2,26.8,19l-1.4,1a15.4787,15.4787,0,0,0,0,4.3,7.0169,7.0169,0,0,0,.9,2.3c.9,1.3,4.7,4.2,4.7,4.2l6.7,4.3-1.8,2.6-10-5.9L24,30.4a2.5525,2.5525,0,0,0-.9,0c-.6.2-.9,1.4-.9,1.4l-.7,10.8-3.8-.9,1.2-16.9A15.058,15.058,0,0,0,18,21l-1-1.9-5.7-7.8,2.5-2,4.3,5.5a5.4938,5.4938,0,0,0,1.4.9,5.932,5.932,0,0,0,2.3.5,15.4526,15.4526,0,0,0,4.7-.9L34,8.9ZM18.8,10.1a3.4,3.4,0,1,1,3.4,3.4A3.3719,3.3719,0,0,1,18.8,10.1Z" fill="#6a70c7"/></g></svg>