<svg id="Layer_1" data-name="Layer 1" xmlns="http://www.w3.org/2000/svg" width="37.0417mm" height="16.9333mm" viewBox="0 0 105 48"><rect x="41.7" y="26.9" width="0.1" height="0.1" fill="#faf9f7"/><circle cx="24.5" cy="24" r="21.5" fill="#f3f300" stroke="#000" stroke-width="3"/><path d="M76.5,5c10.4,0,18.9,8.8,18.9,19.7S86.9,44.4,76.5,44.4,57.6,35.6,57.6,24.7,66,5,76.5,5Z" fill="#fff"/><path d="M76.5,47C64.3,47,54.3,36.7,54.3,24S64.3,1,76.5,1,98.7,11.3,98.7,24,88.7,47,76.5,47Zm0-39.4c-8.6,0-15.6,7.3-15.6,16.4,0,9,7,16.4,15.6,16.4S92.1,33.1,92.1,24C92,15,85.1,7.6,76.5,7.6Z" fill="#ff3c8c"/><polygon points="49.5 20.1 103.5 20.1 103.5 27.9 49.5 27.9 49.5 20.1" fill="#ff3c8c"/></svg>