<svg id="Layer_1" data-name="Layer 1" xmlns="http://www.w3.org/2000/svg" width="37.0417mm" height="16.9333mm" viewBox="0 0 105 48"><circle cx="76.5" cy="24.5" r="21.6" fill="#f3f300"/><path d="M76.5,47.5a23,23,0,1,1,23-23A23.0033,23.0033,0,0,1,76.5,47.5Zm0-43.2A20.2,20.2,0,1,0,96.7,24.5,20.2078,20.2078,0,0,0,76.5,4.3Z"/><circle cx="28.5" cy="24.5" r="21.6" fill="#ff3c8c"/><path d="M28.5,47.5a23,23,0,1,1,23-23A23.0033,23.0033,0,0,1,28.5,47.5Zm0-43.2A20.2,20.2,0,1,0,48.7,24.5,20.2078,20.2078,0,0,0,28.5,4.3Z"/></svg>