<svg id="Layer_1" data-name="Layer 1" xmlns="http://www.w3.org/2000/svg" width="37.0417mm" height="16.9333mm" viewBox="0 0 105 48"><circle cx="24.5" cy="24" r="21.6" fill="#eb6cb1"/><path d="M24.5,47a23,23,0,1,1,23-23A23.0033,23.0033,0,0,1,24.5,47Zm0-43.2A20.2,20.2,0,1,0,44.7,24,20.2078,20.2078,0,0,0,24.5,3.8Z" fill="#727272"/><rect x="52.4" y="26.9" width="0.1" height="0.1" fill="#faf9f7"/><path d="M76.5,4.3c10.4,0,18.9,8.8,18.9,19.7S86.9,43.7,76.5,43.7,57.6,34.9,57.6,24,66,4.3,76.5,4.3Z" fill="#fff"/><path d="M76.5,47C64.3,47,54.3,36.7,54.3,24S64.3,1,76.5,1,98.7,11.3,98.7,24,88.7,47,76.5,47Zm0-39.4c-8.6,0-15.6,7.3-15.6,16.4,0,9,7,16.4,15.6,16.4S92.1,33.1,92.1,24C92,15,85.1,7.6,76.5,7.6Z" fill="#eb75b6"/><polygon points="49.5 20.1 103.5 20.1 103.5 27.9 49.5 27.9 49.5 20.1" fill="#eb75b6"/></svg>