<svg id="Layer_1" data-name="Layer 1" xmlns="http://www.w3.org/2000/svg" width="37.0417mm" height="16.9333mm" viewBox="0 0 105 48"><path d="M76.5,4.4c10.4,0,18.9,8.8,18.9,19.7S86.9,43.8,76.5,43.8,57.6,35,57.6,24.1,66,4.4,76.5,4.4Z" fill="#fff"/><path d="M76.5,47.1c-12.2,0-22.2-10.3-22.2-23s10-23,22.2-23,22.2,10.3,22.2,23S88.7,47.1,76.5,47.1Zm0-39.4c-8.6,0-15.6,7.3-15.6,16.4,0,9,7,16.4,15.6,16.4s15.6-7.3,15.6-16.4C92,15.1,85.1,7.7,76.5,7.7Z" fill="#ff3c8c"/><polygon points="49.5 20.2 103.5 20.2 103.5 28 49.5 28 49.5 20.2" fill="#ff3c8c"/><circle cx="24.5" cy="24.1" r="21.5" fill="#ff3c8c" stroke="#000" stroke-width="3"/><rect x="24.9" y="30.1" width="0.2" height="0.2" fill="#faf9f7"/></svg>