<svg id="Layer_1" data-name="Layer 1" xmlns="http://www.w3.org/2000/svg" width="16.9333mm" height="16.9333mm" viewBox="0 0 48 48"><ellipse cx="23.9" cy="19.8" rx="8.6" ry="10.5" fill="#fff"/><g style="isolation:isolate"><path d="M23.9,47a10.2087,10.2087,0,0,1-1.8-.2,5.0976,5.0976,0,0,1-2.7-.6c-5.3-3.4-6.9-6.4-8.6-12.2-.4-1.5-.8-2.7-.9-3.2A13.4327,13.4327,0,0,1,7,27.4a11.3924,11.3924,0,0,0,2.5-5.1S11,10.1,12.1,8.4c1.1-1.8,4.7-4.7,6.6-5.2a1.1194,1.1194,0,0,1,.4-1c1.2-1,2.7-1.2,4.7-1.2a6.4087,6.4087,0,0,1,4.7,1.2,1.1194,1.1194,0,0,1,.4,1,15.207,15.207,0,0,1,6.6,5.2c1,1.8,2.6,13.9,2.6,13.9a11.8547,11.8547,0,0,0,2.5,5.1,11.68,11.68,0,0,1-2.9,3.4,24.82,24.82,0,0,1-.9,3.2c-1.8,5.8-3.3,8.8-8.6,12.2a5.0976,5.0976,0,0,1-2.7.6A7.4927,7.4927,0,0,1,23.9,47ZM12.4,32.3c1.4,5.3,3,8.8,8.1,12.2a14.0433,14.0433,0,0,0,3.3.4,13.2778,13.2778,0,0,0,3.2-.4c5.2-3.3,6.7-6.9,8.1-12.2a15.5273,15.5273,0,0,0-4.9,2.6c-2,1.9-6.5,1.8-6.5,1.8s-4.5.2-6.5-1.8A16.0619,16.0619,0,0,0,12.4,32.3ZM23.9,12.2c-.7,1.5-1.5,1.3-1.7,1.2-3.7-1.4-1.8,4.9-1.8,4.9h1.4l-.1.3-4.7.7,3.5,3.2L19.6,27l4.2-2.1L28.1,27l-.8-4.5,3.5-3.2L26,18.7l-.1-.3h1.4s1.9-6.3-1.8-4.9C25.4,13.6,24.5,13.7,23.9,12.2Zm-.7,5.1h-2c-.4-1.6-.4-3.4.7-3a1.5261,1.5261,0,0,0,1.3-.1Zm1.4-3.1a1.6514,1.6514,0,0,0,1.3.2c1.2-.4,1.1,1.3.7,3h-2Z" fill="#6a70c7"/></g></svg>