<svg id="Layer_1" data-name="Layer 1" xmlns="http://www.w3.org/2000/svg" width="16.9333mm" height="16.9333mm" viewBox="0 0 48 48"><path d="M2.9,21.4V16.1a1.4727,1.4727,0,0,1,1.5-1.5h6.3v6.8Zm9,0V14.6H22.1v6.8Zm11.4,0V14.6H33.5v6.8Zm17-6.7a2.1418,2.1418,0,0,1,1.9.8,13.9492,13.9492,0,0,1,2.1,4.7,21.9868,21.9868,0,0,1,1.1,5.9v2.6H36.5v-14Z" fill="#fff"/><path d="M40.4,12.6a4.0845,4.0845,0,0,1,3.1,1.3c1.7,2,3.5,8.3,3.5,11.7v6.2H37.3a4.2873,4.2873,0,0,0-7.1-2.5,4.3609,4.3609,0,0,0-1.5,2.5H16.3a4.0683,4.0683,0,0,0-1.5-2.5A4.1055,4.1055,0,0,0,12,28.2a3.9279,3.9279,0,0,0-2.8,1.1,4.73,4.73,0,0,0-1.6,2.5L1,30.9V15.5a2.7781,2.7781,0,0,1,2.5-2.9ZM4.5,14.5a1.181,1.181,0,0,0-1.3,1.2v5h7.3V14.5ZM14.7,32.7A2.6888,2.6888,0,0,1,12,35.4a2.6057,2.6057,0,0,1-2.6-2.7A2.6474,2.6474,0,0,1,12,30.1,2.7369,2.7369,0,0,1,14.7,32.7ZM12.2,20.8h9.7V14.6H12.2Zm11.4,0h9.7V14.6H23.6ZM35.7,32.7A2.6888,2.6888,0,0,1,33,35.4a2.6057,2.6057,0,0,1-2.6-2.7,2.65,2.65,0,0,1,5.3,0Zm1.1-4.6h8.4V25.7a21.33,21.33,0,0,0-1.1-5.9c-.8-2.6-1.5-4.1-2-4.6a1.83,1.83,0,0,0-1.7-.7H36.8Z" fill="#4951c7"/></svg>