<svg id="Layer_1" data-name="Layer 1" xmlns="http://www.w3.org/2000/svg" width="16.9333mm" height="16.9333mm" viewBox="0 0 48 48"><path d="M27.9,22.4c-2.6-.6-6.3-.9-6.3-2.5,0-1.1,1.5-1.3,2.4-1.3a3.4245,3.4245,0,0,1,1.8.4,1.645,1.645,0,0,1,.8,1.5h5.1c-.2-4.4-4.1-5.5-7.8-5.5-3.3,0-7.7,1.1-7.7,5.2,0,4.6,4.3,4.6,7.9,5.5,1,.3,2.7.5,2.7,1.8s-1.5,1.8-2.6,1.8a3.48,3.48,0,0,1-2.1-.6,2.1963,2.1963,0,0,1-.9-1.9H15.9c.2,4.7,4.3,6.1,8.3,6.1,3.8,0,8.2-1.4,8.2-6.1C32.3,25.5,31.4,23.1,27.9,22.4Z" fill="#fff"/><path d="M24,1,3.5,24,24,47,44.5,24ZM15.8,26.9h5.3a2.6468,2.6468,0,0,0,.9,1.9,3.48,3.48,0,0,0,2.1.6c1.1,0,2.6-.4,2.6-1.8,0-1.3-1.7-1.6-2.7-1.8-3.5-.9-7.9-.9-7.9-5.5,0-4.1,4.4-5.2,7.7-5.2,3.7,0,7.6,1.1,7.8,5.5H26.5a1.5411,1.5411,0,0,0-.8-1.5,3.2074,3.2074,0,0,0-1.8-.4c-.9,0-2.4.1-2.4,1.3,0,1.6,3.7,1.9,6.3,2.5,3.5.7,4.3,3.1,4.3,4.5,0,4.7-4.3,6.1-8.2,6.1C20.1,33,16,31.6,15.8,26.9Z" fill="#6a70c7"/></svg>