<svg id="Layer_1" data-name="Layer 1" xmlns="http://www.w3.org/2000/svg" width="16.9333mm" height="16.9333mm" viewBox="0 0 48 48"><path d="M21,26.2A2.1,2.1,0,1,0,21,22a2.1,2.1,0,0,0,0,4.2Z" fill="#fff"/><path d="M21,26.2A2.1,2.1,0,1,0,21,22a2.1,2.1,0,0,0,0,4.2Z" fill="#fff"/><path d="M21,26.2A2.1,2.1,0,1,0,21,22a2.1,2.1,0,0,0,0,4.2Z" fill="#fff"/><path d="M21,26.2A2.1,2.1,0,1,0,21,22a2.1,2.1,0,0,0,0,4.2Z" fill="#fff"/><path d="M36.2,25.8l-.7-8.3h-7v2.6H19.8l-1.3-5.4H12.6l1.3,5.4h-6L5.3,24.3H1c0,5.2.9,8.8,2.7,9.2H43.9A22.98,22.98,0,0,1,47,25.7l-10.8.1Zm-27.6-1a2.1123,2.1123,0,0,1,2.1-2.1,2.1,2.1,0,1,1,0,4.2A2.1123,2.1123,0,0,1,8.6,24.8Zm6.4,0a2.1123,2.1123,0,0,1,2.1-2.1,2.1,2.1,0,0,1,0,4.2A2.1123,2.1123,0,0,1,15,24.8Zm6.4,0a2.1123,2.1123,0,0,1,2.1-2.1,2.1,2.1,0,0,1,0,4.2A2.1123,2.1123,0,0,1,21.4,24.8Zm8.5,2.1a2.1,2.1,0,0,1,0-4.2,2.1,2.1,0,1,1,0,4.2Z" fill="#4951c7"/></svg>