<svg id="Layer_1" data-name="Layer 1" xmlns="http://www.w3.org/2000/svg" width="16.9333mm" height="16.9333mm" viewBox="0 0 48 48"><path d="M29.9,26.4a2.1,2.1,0,1,0,0-4.2,2.1123,2.1123,0,0,0-2.1,2.1A2.1816,2.1816,0,0,0,29.9,26.4Z" fill="#fff"/><path d="M17.1,26.4a2.1,2.1,0,0,0,0-4.2A2.1123,2.1123,0,0,0,15,24.3,2.1816,2.1816,0,0,0,17.1,26.4Z" fill="#fff"/><path d="M23.5,26.4a2.1,2.1,0,0,0,0-4.2,2.1123,2.1123,0,0,0-2.1,2.1A2.1816,2.1816,0,0,0,23.5,26.4Z" fill="#fff"/><path d="M10.7,26.4a2.1,2.1,0,1,0,0-4.2,2.1123,2.1123,0,0,0-2.1,2.1A2.1816,2.1816,0,0,0,10.7,26.4Z" fill="#fff"/><path d="M36.2,25.6l-.7-8.3h-7V20H19.8l-1.3-5.4H12.6L13.9,20h-6L5.3,24.2H1c0,5.2.9,8.8,2.7,9.2H43.9A22.98,22.98,0,0,1,47,25.6ZM8.6,24.7a2.1123,2.1123,0,0,1,2.1-2.1,2.1,2.1,0,1,1,0,4.2A2.1123,2.1123,0,0,1,8.6,24.7Zm6.4,0a2.1123,2.1123,0,0,1,2.1-2.1,2.1,2.1,0,0,1,0,4.2A2.1123,2.1123,0,0,1,15,24.7Zm6.4,0a2.1123,2.1123,0,0,1,2.1-2.1,2.1,2.1,0,1,1,0,4.2A2.1123,2.1123,0,0,1,21.4,24.7Zm8.5,2.1a2.1,2.1,0,1,1,0-4.2,2.1,2.1,0,1,1,0,4.2Z" fill="#6a70c7"/></svg>